<?xml version="1.0" encoding="UTF-8" standalone="no"?>
<!DOCTYPE svg PUBLIC "-//W3C//DTD SVG 1.1//EN"
 "http://www.w3.org/Graphics/SVG/1.1/DTD/svg11.dtd">
<!-- Generated by graphviz version 2.30.1 (20130214.1330)
 -->
<!-- Title: Hoofdprogramma/ourProgram/src/tcpTopCapsule.cpp Pages: 1 -->
<!--zoomable 488 -->
<svg id="main" version="1.1" xmlns="http://www.w3.org/2000/svg" xmlns:xlink="http://www.w3.org/1999/xlink" xml:space="preserve" onload="init(evt)">
        <defs>
                <circle id="rim" cx="0" cy="0" r="7"/>
                <circle id="rim2" cx="0" cy="0" r="3.5"/>
                <g id="zoomPlus">
                        <use xlink:href="#rim" fill="#404040">
                                <set attributeName="fill" to="#808080" begin="zoomplus.mouseover" end="zoomplus.mouseout"/>
                        </use>
                        <path d="M-4,0h8M0,-4v8" fill="none" stroke="white" stroke-width="1.5" pointer-events="none"/>
                </g>
                <g id="zoomMin">
                        <use xlink:href="#rim" fill="#404040">
                                <set attributeName="fill" to="#808080" begin="zoomminus.mouseover" end="zoomminus.mouseout"/>
                        </use>
                        <path d="M-4,0h8" fill="none" stroke="white" stroke-width="1.5" pointer-events="none"/>
                </g>
                <g id="dirArrow">
                        <path fill="none" stroke="white" stroke-width="1.5" d="M0,-3.0v7 M-2.5,-0.5L0,-3.0L2.5,-0.5"/>
                </g>
               <g id="resetDef">
                       <use xlink:href="#rim2" fill="#404040">
                               <set attributeName="fill" to="#808080" begin="reset.mouseover" end="reset.mouseout"/>
                       </use>
               </g>
        </defs>

<script type="text/javascript">
var viewWidth = 608;
var viewHeight = 488;
var sectionId = 'dynsection-0';
</script>
<script xlink:href="../../svgpan.js"/>
<svg id="graph" class="graph">
<g id="viewport">
<title>Hoofdprogramma/ourProgram/src/tcpTopCapsule.cpp</title>
<polygon fill="white" stroke="white" points="-4,5 -4,-484 605,-484 605,5 -4,5"/>
<!-- Node1 -->
<g id="node1" class="node"><title>Node1</title>
<polygon fill="#bfbfbf" stroke="black" points="79.5,-449 79.5,-479 222.5,-479 222.5,-449 79.5,-449"/>
<text text-anchor="start" x="87.5" y="-467" font-family="Helvetica,sans-Serif" font-size="10.00">Hoofdprogramma/ourProgram</text>
<text text-anchor="middle" x="151" y="-456" font-family="Helvetica,sans-Serif" font-size="10.00">/src/tcpTopCapsule.cpp</text>
</g>
<!-- Node2 -->
<g id="node2" class="node"><title>Node2</title>
<g id="a_node2"><a xlink:href="../../dd/d50/our_program_8h.xhtml" target="_top" xlink:title="RTSystem/ourProgram.h">
<polygon fill="white" stroke="black" points="108,-224.5 108,-243.5 232,-243.5 232,-224.5 108,-224.5"/>
<text text-anchor="middle" x="170" y="-231.5" font-family="Helvetica,sans-Serif" font-size="10.00">RTSystem/ourProgram.h</text>
</a>
</g>
</g>
<!-- Node1&#45;&gt;Node2 -->
<g id="edge1" class="edge"><title>Node1&#45;&gt;Node2</title>
<path fill="none" stroke="midnightblue" d="M170.314,-448.962C181.727,-439.691 195.555,-426.587 204,-412 216.854,-389.798 214.865,-381.463 218,-356 222.83,-316.769 198.654,-274.664 182.853,-251.924"/>
<polygon fill="midnightblue" stroke="midnightblue" points="185.592,-249.739 176.896,-243.686 179.92,-253.841 185.592,-249.739"/>
</g>
<!-- Node5 -->
<g id="node5" class="node"><title>Node5</title>
<g id="a_node5"><a xlink:href="../../db/d7e/tcp_top_capsule_8h.xhtml" target="_top" xlink:title="tcpTopCapsule.h">
<polygon fill="white" stroke="black" points="106.5,-392.5 106.5,-411.5 195.5,-411.5 195.5,-392.5 106.5,-392.5"/>
<text text-anchor="middle" x="151" y="-399.5" font-family="Helvetica,sans-Serif" font-size="10.00">tcpTopCapsule.h</text>
</a>
</g>
</g>
<!-- Node1&#45;&gt;Node5 -->
<g id="edge4" class="edge"><title>Node1&#45;&gt;Node5</title>
<path fill="none" stroke="midnightblue" d="M151,-448.781C151,-440.781 151,-430.689 151,-422.017"/>
<polygon fill="midnightblue" stroke="midnightblue" points="154.5,-421.73 151,-411.731 147.5,-421.731 154.5,-421.73"/>
</g>
<!-- Node22 -->
<g id="node22" class="node"><title>Node22</title>
<g id="a_node22"><a xlink:href="../../d2/d45/tcp_protocol_8h.xhtml" target="_top" xlink:title="tcpProtocol.h">
<polygon fill="white" stroke="black" points="0,-336.5 0,-355.5 74,-355.5 74,-336.5 0,-336.5"/>
<text text-anchor="middle" x="37" y="-343.5" font-family="Helvetica,sans-Serif" font-size="10.00">tcpProtocol.h</text>
</a>
</g>
</g>
<!-- Node1&#45;&gt;Node22 -->
<g id="edge35" class="edge"><title>Node1&#45;&gt;Node22</title>
<path fill="none" stroke="midnightblue" d="M135.604,-448.983C124.653,-438.887 109.693,-424.838 97,-412 81.0572,-395.874 63.5448,-376.726 51.5772,-363.408"/>
<polygon fill="midnightblue" stroke="midnightblue" points="53.86,-360.71 44.5858,-355.587 48.6414,-365.375 53.86,-360.71"/>
</g>
<!-- Node3 -->
<g id="node3" class="node"><title>Node3</title>
<polygon fill="white" stroke="#bfbfbf" points="147,-168.5 147,-187.5 229,-187.5 229,-168.5 147,-168.5"/>
<text text-anchor="middle" x="188" y="-175.5" font-family="Helvetica,sans-Serif" font-size="10.00">RTStructures.h</text>
</g>
<!-- Node2&#45;&gt;Node3 -->
<g id="edge2" class="edge"><title>Node2&#45;&gt;Node3</title>
<path fill="none" stroke="midnightblue" d="M172.972,-224.083C175.384,-216.849 178.864,-206.409 181.868,-197.397"/>
<polygon fill="midnightblue" stroke="midnightblue" points="185.241,-198.345 185.083,-187.751 178.6,-196.131 185.241,-198.345"/>
</g>
<!-- Node4 -->
<g id="node4" class="node"><title>Node4</title>
<polygon fill="white" stroke="#bfbfbf" points="150,-112.5 150,-131.5 204,-131.5 204,-112.5 150,-112.5"/>
<text text-anchor="middle" x="177" y="-119.5" font-family="Helvetica,sans-Serif" font-size="10.00">iostream</text>
</g>
<!-- Node2&#45;&gt;Node4 -->
<g id="edge3" class="edge"><title>Node2&#45;&gt;Node4</title>
<path fill="none" stroke="midnightblue" d="M160.719,-224.417C148.702,-212.208 130.175,-188.977 138,-168 142.173,-156.812 150.52,-146.56 158.424,-138.676"/>
<polygon fill="midnightblue" stroke="midnightblue" points="161.062,-141.003 166.01,-131.635 156.299,-135.872 161.062,-141.003"/>
</g>
<!-- Node5&#45;&gt;Node2 -->
<g id="edge5" class="edge"><title>Node5&#45;&gt;Node2</title>
<path fill="none" stroke="midnightblue" d="M142.786,-392.182C135.456,-383.663 125.245,-370.019 121,-356 118.424,-347.493 119.009,-344.663 121,-336 128.206,-304.639 146.499,-271.719 158.58,-252.296"/>
<polygon fill="midnightblue" stroke="midnightblue" points="161.651,-253.99 164.088,-243.679 155.753,-250.22 161.651,-253.99"/>
</g>
<!-- Node6 -->
<g id="node6" class="node"><title>Node6</title>
<g id="a_node6"><a xlink:href="../../d4/d51/json_protocol_8h.xhtml" target="_top" xlink:title="jsonProtocol.h">
<polygon fill="white" stroke="black" points="130.5,-336.5 130.5,-355.5 209.5,-355.5 209.5,-336.5 130.5,-336.5"/>
<text text-anchor="middle" x="170" y="-343.5" font-family="Helvetica,sans-Serif" font-size="10.00">jsonProtocol.h</text>
</a>
</g>
</g>
<!-- Node5&#45;&gt;Node6 -->
<g id="edge6" class="edge"><title>Node5&#45;&gt;Node6</title>
<path fill="none" stroke="midnightblue" d="M154.137,-392.083C156.683,-384.849 160.356,-374.409 163.527,-365.397"/>
<polygon fill="midnightblue" stroke="midnightblue" points="166.903,-366.346 166.921,-355.751 160.3,-364.023 166.903,-366.346"/>
</g>
<!-- Node6&#45;&gt;Node2 -->
<g id="edge7" class="edge"><title>Node6&#45;&gt;Node2</title>
<path fill="none" stroke="midnightblue" d="M170,-336.368C170,-318.617 170,-277.666 170,-253.597"/>
<polygon fill="midnightblue" stroke="midnightblue" points="173.5,-253.591 170,-243.591 166.5,-253.591 173.5,-253.591"/>
</g>
<!-- Node7 -->
<g id="node7" class="node"><title>Node7</title>
<g id="a_node7"><a xlink:href="../../d8/d2e/json_command_8h.xhtml" target="_top" xlink:title="jsonCommand.h">
<polygon fill="white" stroke="black" points="266.5,-280.5 266.5,-299.5 353.5,-299.5 353.5,-280.5 266.5,-280.5"/>
<text text-anchor="middle" x="310" y="-287.5" font-family="Helvetica,sans-Serif" font-size="10.00">jsonCommand.h</text>
</a>
</g>
</g>
<!-- Node6&#45;&gt;Node7 -->
<g id="edge8" class="edge"><title>Node6&#45;&gt;Node7</title>
<path fill="none" stroke="midnightblue" d="M192.183,-336.444C215.428,-327.478 252.149,-313.314 278.415,-303.183"/>
<polygon fill="midnightblue" stroke="midnightblue" points="279.85,-306.381 287.92,-299.516 277.331,-299.85 279.85,-306.381"/>
</g>
<!-- Node7&#45;&gt;Node2 -->
<g id="edge9" class="edge"><title>Node7&#45;&gt;Node2</title>
<path fill="none" stroke="midnightblue" d="M287.817,-280.444C264.572,-271.478 227.851,-257.314 201.585,-247.183"/>
<polygon fill="midnightblue" stroke="midnightblue" points="202.669,-243.85 192.08,-243.516 200.15,-250.381 202.669,-243.85"/>
</g>
<!-- Node8 -->
<g id="node8" class="node"><title>Node8</title>
<g id="a_node8"><a xlink:href="../../d4/d05/json_8h.xhtml" target="_top" xlink:title="../../include/json.h">
<polygon fill="white" stroke="black" points="334.5,-224.5 334.5,-243.5 429.5,-243.5 429.5,-224.5 334.5,-224.5"/>
<text text-anchor="middle" x="382" y="-231.5" font-family="Helvetica,sans-Serif" font-size="10.00">../../include/json.h</text>
</a>
</g>
</g>
<!-- Node7&#45;&gt;Node8 -->
<g id="edge10" class="edge"><title>Node7&#45;&gt;Node8</title>
<path fill="none" stroke="midnightblue" d="M321.568,-280.324C332.42,-272.185 348.881,-259.839 361.883,-250.087"/>
<polygon fill="midnightblue" stroke="midnightblue" points="364.321,-252.634 370.221,-243.834 360.121,-247.034 364.321,-252.634"/>
</g>
<!-- Node21 -->
<g id="node21" class="node"><title>Node21</title>
<polygon fill="white" stroke="#bfbfbf" points="270,-224.5 270,-243.5 316,-243.5 316,-224.5 270,-224.5"/>
<text text-anchor="middle" x="293" y="-231.5" font-family="Helvetica,sans-Serif" font-size="10.00">stdio.h</text>
</g>
<!-- Node7&#45;&gt;Node21 -->
<g id="edge34" class="edge"><title>Node7&#45;&gt;Node21</title>
<path fill="none" stroke="midnightblue" d="M307.193,-280.083C304.915,-272.849 301.629,-262.409 298.792,-253.397"/>
<polygon fill="midnightblue" stroke="midnightblue" points="302.096,-252.239 295.755,-243.751 295.419,-254.341 302.096,-252.239"/>
</g>
<!-- Node9 -->
<g id="node9" class="node"><title>Node9</title>
<g id="a_node9"><a xlink:href="../../d3/dea/autolink_8h.xhtml" target="_top" xlink:title="autolink.h">
<polygon fill="white" stroke="black" points="523.5,-168.5 523.5,-187.5 582.5,-187.5 582.5,-168.5 523.5,-168.5"/>
<text text-anchor="middle" x="553" y="-175.5" font-family="Helvetica,sans-Serif" font-size="10.00">autolink.h</text>
</a>
</g>
</g>
<!-- Node8&#45;&gt;Node9 -->
<g id="edge11" class="edge"><title>Node8&#45;&gt;Node9</title>
<path fill="none" stroke="midnightblue" d="M409.095,-224.444C437.988,-215.32 483.925,-200.813 516.105,-190.651"/>
<polygon fill="midnightblue" stroke="midnightblue" points="517.549,-193.865 526.031,-187.516 515.441,-187.19 517.549,-193.865"/>
</g>
<!-- Node11 -->
<g id="node11" class="node"><title>Node11</title>
<g id="a_node11"><a xlink:href="../../d4/d3f/value_8h.xhtml" target="_top" xlink:title="value.h">
<polygon fill="white" stroke="black" points="298.5,-112.5 298.5,-131.5 345.5,-131.5 345.5,-112.5 298.5,-112.5"/>
<text text-anchor="middle" x="322" y="-119.5" font-family="Helvetica,sans-Serif" font-size="10.00">value.h</text>
</a>
</g>
</g>
<!-- Node8&#45;&gt;Node11 -->
<g id="edge14" class="edge"><title>Node8&#45;&gt;Node11</title>
<path fill="none" stroke="midnightblue" d="M373.921,-224.252C366.22,-215.566 354.69,-201.616 347,-188 338.639,-173.195 331.92,-155.042 327.562,-141.686"/>
<polygon fill="midnightblue" stroke="midnightblue" points="330.79,-140.28 324.472,-131.774 324.107,-142.363 330.79,-140.28"/>
</g>
<!-- Node16 -->
<g id="node16" class="node"><title>Node16</title>
<g id="a_node16"><a xlink:href="../../d6/dda/reader_8h.xhtml" target="_top" xlink:title="reader.h">
<polygon fill="white" stroke="black" points="356,-168.5 356,-187.5 408,-187.5 408,-168.5 356,-168.5"/>
<text text-anchor="middle" x="382" y="-175.5" font-family="Helvetica,sans-Serif" font-size="10.00">reader.h</text>
</a>
</g>
</g>
<!-- Node8&#45;&gt;Node16 -->
<g id="edge20" class="edge"><title>Node8&#45;&gt;Node16</title>
<path fill="none" stroke="midnightblue" d="M382,-224.083C382,-217.006 382,-206.861 382,-197.986"/>
<polygon fill="midnightblue" stroke="midnightblue" points="385.5,-197.751 382,-187.751 378.5,-197.751 385.5,-197.751"/>
</g>
<!-- Node20 -->
<g id="node20" class="node"><title>Node20</title>
<g id="a_node20"><a xlink:href="../../d9/d53/writer_8h.xhtml" target="_top" xlink:title="writer.h">
<polygon fill="white" stroke="black" points="247,-168.5 247,-187.5 295,-187.5 295,-168.5 247,-168.5"/>
<text text-anchor="middle" x="271" y="-175.5" font-family="Helvetica,sans-Serif" font-size="10.00">writer.h</text>
</a>
</g>
</g>
<!-- Node8&#45;&gt;Node20 -->
<g id="edge28" class="edge"><title>Node8&#45;&gt;Node20</title>
<path fill="none" stroke="midnightblue" d="M364.166,-224.324C346.284,-215.625 318.525,-202.12 297.954,-192.113"/>
<polygon fill="midnightblue" stroke="midnightblue" points="299.313,-188.882 288.79,-187.655 296.251,-195.177 299.313,-188.882"/>
</g>
<!-- Node17 -->
<g id="node17" class="node"><title>Node17</title>
<g id="a_node17"><a xlink:href="../../de/d47/features_8h.xhtml" target="_top" xlink:title="features.h">
<polygon fill="white" stroke="black" points="483.5,-112.5 483.5,-131.5 542.5,-131.5 542.5,-112.5 483.5,-112.5"/>
<text text-anchor="middle" x="513" y="-119.5" font-family="Helvetica,sans-Serif" font-size="10.00">features.h</text>
</a>
</g>
</g>
<!-- Node8&#45;&gt;Node17 -->
<g id="edge33" class="edge"><title>Node8&#45;&gt;Node17</title>
<path fill="none" stroke="midnightblue" d="M392.279,-224.368C414.472,-205.733 467.111,-161.532 494.977,-138.134"/>
<polygon fill="midnightblue" stroke="midnightblue" points="497.361,-140.702 502.768,-131.591 492.859,-135.342 497.361,-140.702"/>
</g>
<!-- Node10 -->
<g id="node10" class="node"><title>Node10</title>
<g id="a_node10"><a xlink:href="../../db/d16/config_8h.xhtml" target="_top" xlink:title="config.h">
<polygon fill="white" stroke="black" points="516,-0.5 516,-19.5 566,-19.5 566,-0.5 516,-0.5"/>
<text text-anchor="middle" x="541" y="-7.5" font-family="Helvetica,sans-Serif" font-size="10.00">config.h</text>
</a>
</g>
</g>
<!-- Node9&#45;&gt;Node10 -->
<g id="edge12" class="edge"><title>Node9&#45;&gt;Node10</title>
<path fill="none" stroke="midnightblue" d="M553.449,-168.452C554.362,-148.613 555.955,-97.9381 551,-56 549.954,-47.1481 547.926,-37.481 545.967,-29.3834"/>
<polygon fill="midnightblue" stroke="midnightblue" points="549.316,-28.3535 543.439,-19.5381 542.536,-30.0944 549.316,-28.3535"/>
</g>
<!-- Node9&#45;&gt;Node9 -->
<g id="edge13" class="edge"><title>Node9&#45;&gt;Node9</title>
<path fill="none" stroke="midnightblue" d="M573.29,-187.575C586.825,-190.27 600,-187.078 600,-178 600,-171.262 592.743,-167.767 583.467,-167.515"/>
<polygon fill="midnightblue" stroke="midnightblue" points="582.938,-164.048 573.29,-168.425 583.562,-171.02 582.938,-164.048"/>
</g>
<!-- Node12 -->
<g id="node12" class="node"><title>Node12</title>
<g id="a_node12"><a xlink:href="../../d2/d84/forwards_8h.xhtml" target="_top" xlink:title="forwards.h">
<polygon fill="white" stroke="black" points="481.5,-56.5 481.5,-75.5 542.5,-75.5 542.5,-56.5 481.5,-56.5"/>
<text text-anchor="middle" x="512" y="-63.5" font-family="Helvetica,sans-Serif" font-size="10.00">forwards.h</text>
</a>
</g>
</g>
<!-- Node11&#45;&gt;Node12 -->
<g id="edge15" class="edge"><title>Node11&#45;&gt;Node12</title>
<path fill="none" stroke="midnightblue" d="M345.679,-114.27C377.367,-105.264 434.002,-89.1679 472.278,-78.2895"/>
<polygon fill="midnightblue" stroke="midnightblue" points="473.406,-81.6075 482.068,-75.5069 471.492,-74.8741 473.406,-81.6075"/>
</g>
<!-- Node13 -->
<g id="node13" class="node"><title>Node13</title>
<polygon fill="white" stroke="#bfbfbf" points="200.5,-56.5 200.5,-75.5 241.5,-75.5 241.5,-56.5 200.5,-56.5"/>
<text text-anchor="middle" x="221" y="-63.5" font-family="Helvetica,sans-Serif" font-size="10.00">string</text>
</g>
<!-- Node11&#45;&gt;Node13 -->
<g id="edge17" class="edge"><title>Node11&#45;&gt;Node13</title>
<path fill="none" stroke="midnightblue" d="M305.773,-112.324C289.649,-103.703 264.7,-90.3643 246.036,-80.3855"/>
<polygon fill="midnightblue" stroke="midnightblue" points="247.656,-77.283 237.187,-75.6545 244.356,-83.456 247.656,-77.283"/>
</g>
<!-- Node14 -->
<g id="node14" class="node"><title>Node14</title>
<polygon fill="white" stroke="#bfbfbf" points="260,-56.5 260,-75.5 302,-75.5 302,-56.5 260,-56.5"/>
<text text-anchor="middle" x="281" y="-63.5" font-family="Helvetica,sans-Serif" font-size="10.00">vector</text>
</g>
<!-- Node11&#45;&gt;Node14 -->
<g id="edge18" class="edge"><title>Node11&#45;&gt;Node14</title>
<path fill="none" stroke="midnightblue" d="M315.23,-112.083C309.438,-104.455 300.942,-93.2645 293.862,-83.9408"/>
<polygon fill="midnightblue" stroke="midnightblue" points="296.479,-81.5991 287.644,-75.7511 290.904,-85.8321 296.479,-81.5991"/>
</g>
<!-- Node15 -->
<g id="node15" class="node"><title>Node15</title>
<polygon fill="white" stroke="#bfbfbf" points="320.5,-56.5 320.5,-75.5 355.5,-75.5 355.5,-56.5 320.5,-56.5"/>
<text text-anchor="middle" x="338" y="-63.5" font-family="Helvetica,sans-Serif" font-size="10.00">map</text>
</g>
<!-- Node11&#45;&gt;Node15 -->
<g id="edge19" class="edge"><title>Node11&#45;&gt;Node15</title>
<path fill="none" stroke="midnightblue" d="M324.642,-112.083C326.786,-104.849 329.879,-94.4087 332.549,-85.3968"/>
<polygon fill="midnightblue" stroke="midnightblue" points="335.922,-86.3334 335.407,-75.7511 329.21,-84.3447 335.922,-86.3334"/>
</g>
<!-- Node12&#45;&gt;Node10 -->
<g id="edge16" class="edge"><title>Node12&#45;&gt;Node10</title>
<path fill="none" stroke="midnightblue" d="M516.789,-56.083C520.758,-48.6913 526.525,-37.9533 531.435,-28.8111"/>
<polygon fill="midnightblue" stroke="midnightblue" points="534.653,-30.217 536.3,-19.7511 528.486,-26.9051 534.653,-30.217"/>
</g>
<!-- Node16&#45;&gt;Node17 -->
<g id="edge21" class="edge"><title>Node16&#45;&gt;Node17</title>
<path fill="none" stroke="midnightblue" d="M402.757,-168.444C424.316,-159.557 458.263,-145.563 482.794,-135.451"/>
<polygon fill="midnightblue" stroke="midnightblue" points="484.428,-138.563 492.34,-131.516 481.761,-132.092 484.428,-138.563"/>
</g>
<!-- Node16&#45;&gt;Node11 -->
<g id="edge23" class="edge"><title>Node16&#45;&gt;Node11</title>
<path fill="none" stroke="midnightblue" d="M372.36,-168.324C363.49,-160.341 350.125,-148.313 339.392,-138.653"/>
<polygon fill="midnightblue" stroke="midnightblue" points="341.59,-135.922 331.815,-131.834 336.907,-141.125 341.59,-135.922"/>
</g>
<!-- Node18 -->
<g id="node18" class="node"><title>Node18</title>
<polygon fill="white" stroke="#bfbfbf" points="363.5,-112.5 363.5,-131.5 406.5,-131.5 406.5,-112.5 363.5,-112.5"/>
<text text-anchor="middle" x="385" y="-119.5" font-family="Helvetica,sans-Serif" font-size="10.00">deque</text>
</g>
<!-- Node16&#45;&gt;Node18 -->
<g id="edge24" class="edge"><title>Node16&#45;&gt;Node18</title>
<path fill="none" stroke="midnightblue" d="M382.495,-168.083C382.889,-161.006 383.452,-150.861 383.945,-141.986"/>
<polygon fill="midnightblue" stroke="midnightblue" points="387.454,-141.93 384.514,-131.751 380.464,-141.542 387.454,-141.93"/>
</g>
<!-- Node19 -->
<g id="node19" class="node"><title>Node19</title>
<polygon fill="white" stroke="#bfbfbf" points="424.5,-112.5 424.5,-131.5 465.5,-131.5 465.5,-112.5 424.5,-112.5"/>
<text text-anchor="middle" x="445" y="-119.5" font-family="Helvetica,sans-Serif" font-size="10.00">stack</text>
</g>
<!-- Node16&#45;&gt;Node19 -->
<g id="edge25" class="edge"><title>Node16&#45;&gt;Node19</title>
<path fill="none" stroke="midnightblue" d="M392.122,-168.324C401.526,-160.263 415.744,-148.077 427.069,-138.369"/>
<polygon fill="midnightblue" stroke="midnightblue" points="429.379,-140.999 434.694,-131.834 424.823,-135.684 429.379,-140.999"/>
</g>
<!-- Node16&#45;&gt;Node13 -->
<g id="edge26" class="edge"><title>Node16&#45;&gt;Node13</title>
<path fill="none" stroke="midnightblue" d="M359.514,-168.451C339.984,-160.495 311.397,-147.546 289,-132 268.588,-117.832 248.421,-97.5468 235.417,-83.4191"/>
<polygon fill="midnightblue" stroke="midnightblue" points="237.937,-80.9872 228.64,-75.9053 232.738,-85.6754 237.937,-80.9872"/>
</g>
<!-- Node16&#45;&gt;Node4 -->
<g id="edge27" class="edge"><title>Node16&#45;&gt;Node4</title>
<path fill="none" stroke="midnightblue" d="M355.62,-170.051C319.631,-160.571 254.962,-143.536 214.101,-132.773"/>
<polygon fill="midnightblue" stroke="midnightblue" points="214.82,-129.343 204.258,-130.18 213.037,-136.112 214.82,-129.343"/>
</g>
<!-- Node17&#45;&gt;Node12 -->
<g id="edge22" class="edge"><title>Node17&#45;&gt;Node12</title>
<path fill="none" stroke="midnightblue" d="M512.835,-112.083C512.704,-105.006 512.516,-94.8611 512.352,-85.9865"/>
<polygon fill="midnightblue" stroke="midnightblue" points="515.847,-85.6845 512.162,-75.7511 508.848,-85.8142 515.847,-85.6845"/>
</g>
<!-- Node20&#45;&gt;Node11 -->
<g id="edge29" class="edge"><title>Node20&#45;&gt;Node11</title>
<path fill="none" stroke="midnightblue" d="M279.422,-168.083C286.848,-160.22 297.852,-148.569 306.812,-139.081"/>
<polygon fill="midnightblue" stroke="midnightblue" points="309.413,-141.424 313.735,-131.751 304.324,-136.618 309.413,-141.424"/>
</g>
<!-- Node20&#45;&gt;Node14 -->
<g id="edge30" class="edge"><title>Node20&#45;&gt;Node14</title>
<path fill="none" stroke="midnightblue" d="M271.785,-168.368C273.398,-150.617 277.121,-109.666 279.309,-85.5974"/>
<polygon fill="midnightblue" stroke="midnightblue" points="282.799,-85.8673 280.219,-75.5914 275.828,-85.2334 282.799,-85.8673"/>
</g>
<!-- Node20&#45;&gt;Node13 -->
<g id="edge31" class="edge"><title>Node20&#45;&gt;Node13</title>
<path fill="none" stroke="midnightblue" d="M246.862,-170.281C211.045,-160.071 147.338,-140.901 141,-132 124.027,-108.164 161.375,-88.2587 190.575,-76.9877"/>
<polygon fill="midnightblue" stroke="midnightblue" points="191.892,-80.2328 200.075,-73.5032 189.482,-73.6609 191.892,-80.2328"/>
</g>
<!-- Node20&#45;&gt;Node4 -->
<g id="edge32" class="edge"><title>Node20&#45;&gt;Node4</title>
<path fill="none" stroke="midnightblue" d="M255.897,-168.324C241.097,-159.822 218.306,-146.729 201.018,-136.797"/>
<polygon fill="midnightblue" stroke="midnightblue" points="202.48,-133.601 192.065,-131.655 198.993,-139.671 202.48,-133.601"/>
</g>
<!-- Node22&#45;&gt;Node2 -->
<g id="edge36" class="edge"><title>Node22&#45;&gt;Node2</title>
<path fill="none" stroke="midnightblue" d="M42.3312,-336.081C50.7159,-322.618 68.0959,-296.892 88,-280 103.525,-266.825 123.514,-255.76 139.87,-247.9"/>
<polygon fill="midnightblue" stroke="midnightblue" points="141.424,-251.037 149.019,-243.65 138.475,-244.688 141.424,-251.037"/>
</g>
</g>
</svg>
        <g id="navigator" transform="translate(0 0)" fill="#404254">
                <rect fill="#f2f5e9" fill-opacity="0.5" stroke="#606060" stroke-width=".5" x="0" y="0" width="60" height="60"/>
                <use id="zoomplus" xlink:href="#zoomPlus" x="17" y="9" onmousedown="handleZoom(evt,'in')"/>
                <use id="zoomminus" xlink:href="#zoomMin" x="42" y="9" onmousedown="handleZoom(evt,'out')"/>
                <use id="reset" xlink:href="#resetDef" x="30" y="36" onmousedown="handleReset()"/>
                <g id="arrowUp" xlink:href="#dirArrow" transform="translate(30 24)" onmousedown="handlePan(0,-1)">
                  <use xlink:href="#rim" fill="#404040">
                        <set attributeName="fill" to="#808080" begin="arrowUp.mouseover" end="arrowUp.mouseout"/>
                  </use>
                  <path fill="none" stroke="white" stroke-width="1.5" d="M0,-3.0v7 M-2.5,-0.5L0,-3.0L2.5,-0.5"/>
                </g>
                <g id="arrowRight" xlink:href="#dirArrow" transform="rotate(90) translate(36 -43)" onmousedown="handlePan(1,0)">
                  <use xlink:href="#rim" fill="#404040">
                        <set attributeName="fill" to="#808080" begin="arrowRight.mouseover" end="arrowRight.mouseout"/>
                  </use>
                  <path fill="none" stroke="white" stroke-width="1.5" d="M0,-3.0v7 M-2.5,-0.5L0,-3.0L2.5,-0.5"/>
                </g>
                <g id="arrowDown" xlink:href="#dirArrow" transform="rotate(180) translate(-30 -48)" onmousedown="handlePan(0,1)">
                  <use xlink:href="#rim" fill="#404040">
                        <set attributeName="fill" to="#808080" begin="arrowDown.mouseover" end="arrowDown.mouseout"/>
                  </use>
                  <path fill="none" stroke="white" stroke-width="1.5" d="M0,-3.0v7 M-2.5,-0.5L0,-3.0L2.5,-0.5"/>
                </g>
                <g id="arrowLeft" xlink:href="#dirArrow" transform="rotate(270) translate(-36 17)" onmousedown="handlePan(-1,0)">
                  <use xlink:href="#rim" fill="#404040">
                        <set attributeName="fill" to="#808080" begin="arrowLeft.mouseover" end="arrowLeft.mouseout"/>
                  </use>
                  <path fill="none" stroke="white" stroke-width="1.5" d="M0,-3.0v7 M-2.5,-0.5L0,-3.0L2.5,-0.5"/>
                </g>
        </g>
        <svg viewBox="0 0 15 15" width="100%" height="30px" preserveAspectRatio="xMaxYMin meet">
         <g id="arrow_out" transform="scale(0.3 0.3)">
          <a xlink:href="tcp_top_capsule_8cpp__incl_org.svg" target="_base">
           <rect id="button" ry="5" rx="5" y="6" x="6" height="38" width="38"
                fill="#f2f5e9" fill-opacity="0.5" stroke="#606060" stroke-width="1.0"/>
           <path id="arrow"
             d="M 11.500037,31.436501 C 11.940474,20.09759 22.043105,11.32322 32.158766,21.979434 L 37.068811,17.246167 C 37.068811,17.246167 37.088388,32 37.088388,32 L 22.160133,31.978069 C 22.160133,31.978069 26.997745,27.140456 26.997745,27.140456 C 18.528582,18.264221 13.291696,25.230495 11.500037,31.436501 z"
             style="fill:#404040;"/>
          </a>
         </g>
        </svg>
</svg>
