<?xml version="1.0" encoding="UTF-8" standalone="no"?>
<!DOCTYPE svg PUBLIC "-//W3C//DTD SVG 1.1//EN"
 "http://www.w3.org/Graphics/SVG/1.1/DTD/svg11.dtd">
<!-- Generated by graphviz version 2.30.1 (20130214.1330)
 -->
<!-- Title: GUI/Gui&#45;RoombaV1.0/settingsroomba.cpp Pages: 1 -->
<svg width="2920pt" height="432pt"
 viewBox="0.00 0.00 2920.00 432.00" xmlns="http://www.w3.org/2000/svg" xmlns:xlink="http://www.w3.org/1999/xlink">
<g id="graph0" class="graph" transform="scale(1 1) rotate(0) translate(4 428)">
<title>GUI/Gui&#45;RoombaV1.0/settingsroomba.cpp</title>
<polygon fill="white" stroke="white" points="-4,5 -4,-428 2917,-428 2917,5 -4,5"/>
<!-- Node1 -->
<g id="node1" class="node"><title>Node1</title>
<polygon fill="#bfbfbf" stroke="black" points="710,-393 710,-423 820,-423 820,-393 710,-393"/>
<text text-anchor="start" x="718" y="-411" font-family="Helvetica,sans-Serif" font-size="10.00">GUI/Gui&#45;RoombaV1.0</text>
<text text-anchor="middle" x="765" y="-400" font-family="Helvetica,sans-Serif" font-size="10.00">/settingsroomba.cpp</text>
</g>
<!-- Node2 -->
<g id="node2" class="node"><title>Node2</title>
<g id="a_node2"><a xlink:href="../../dc/d4d/settingsroomba_8h.xhtml" target="_top" xlink:title="settingsroomba.h">
<polygon fill="white" stroke="black" points="289,-336.5 289,-355.5 381,-355.5 381,-336.5 289,-336.5"/>
<text text-anchor="middle" x="335" y="-343.5" font-family="Helvetica,sans-Serif" font-size="10.00">settingsroomba.h</text>
</a>
</g>
</g>
<!-- Node1&#45;&gt;Node2 -->
<g id="edge1" class="edge"><title>Node1&#45;&gt;Node2</title>
<path fill="none" stroke="midnightblue" d="M709.665,-399.279C627.466,-387.809 473.934,-366.386 391.224,-354.845"/>
<polygon fill="midnightblue" stroke="midnightblue" points="391.642,-351.37 381.254,-353.454 390.675,-358.303 391.642,-351.37"/>
</g>
<!-- Node4 -->
<g id="node4" class="node"><title>Node4</title>
<g id="a_node4"><a xlink:href="../../dd/da1/roomba_8h.xhtml" target="_top" xlink:title="roomba.h">
<polygon fill="white" stroke="black" points="736.5,-336.5 736.5,-355.5 793.5,-355.5 793.5,-336.5 736.5,-336.5"/>
<text text-anchor="middle" x="765" y="-343.5" font-family="Helvetica,sans-Serif" font-size="10.00">roomba.h</text>
</a>
</g>
</g>
<!-- Node1&#45;&gt;Node4 -->
<g id="edge3" class="edge"><title>Node1&#45;&gt;Node4</title>
<path fill="none" stroke="midnightblue" d="M765,-392.781C765,-384.781 765,-374.689 765,-366.017"/>
<polygon fill="midnightblue" stroke="midnightblue" points="768.5,-365.73 765,-355.731 761.5,-365.731 768.5,-365.73"/>
</g>
<!-- Node34 -->
<g id="node34" class="node"><title>Node34</title>
<g id="a_node34"><a xlink:href="../../db/d1e/ui__settingsroomba_8h.xhtml" target="_top" xlink:title="ui_settingsroomba.h">
<polygon fill="white" stroke="black" points="2196,-336.5 2196,-355.5 2300,-355.5 2300,-336.5 2196,-336.5"/>
<text text-anchor="middle" x="2248" y="-343.5" font-family="Helvetica,sans-Serif" font-size="10.00">ui_settingsroomba.h</text>
</a>
</g>
</g>
<!-- Node1&#45;&gt;Node34 -->
<g id="edge75" class="edge"><title>Node1&#45;&gt;Node34</title>
<path fill="none" stroke="midnightblue" d="M820.429,-404.757C1052.02,-395.388 1941.51,-359.4 2185.68,-349.521"/>
<polygon fill="midnightblue" stroke="midnightblue" points="2185.95,-353.013 2195.8,-349.112 2185.67,-346.019 2185.95,-353.013"/>
</g>
<!-- Node3 -->
<g id="node3" class="node"><title>Node3</title>
<polygon fill="white" stroke="#bfbfbf" points="142.5,-168.5 142.5,-187.5 197.5,-187.5 197.5,-168.5 142.5,-168.5"/>
<text text-anchor="middle" x="170" y="-175.5" font-family="Helvetica,sans-Serif" font-size="10.00">QWidget</text>
</g>
<!-- Node2&#45;&gt;Node3 -->
<g id="edge2" class="edge"><title>Node2&#45;&gt;Node3</title>
<path fill="none" stroke="midnightblue" d="M310.928,-336.409C276.565,-322.74 214.467,-292.517 186,-244 177.638,-229.748 173.629,-211.276 171.717,-197.668"/>
<polygon fill="midnightblue" stroke="midnightblue" points="175.176,-197.114 170.555,-187.581 168.222,-197.916 175.176,-197.114"/>
</g>
<!-- Node5 -->
<g id="node5" class="node"><title>Node5</title>
<polygon fill="white" stroke="#bfbfbf" points="1538,-56.5 1538,-75.5 1588,-75.5 1588,-56.5 1538,-56.5"/>
<text text-anchor="middle" x="1563" y="-63.5" font-family="Helvetica,sans-Serif" font-size="10.00">QString</text>
</g>
<!-- Node4&#45;&gt;Node5 -->
<g id="edge4" class="edge"><title>Node4&#45;&gt;Node5</title>
<path fill="none" stroke="midnightblue" d="M793.827,-345.162C937.011,-345.752 1567.78,-345.721 1641,-300 1669.01,-282.51 1677,-268.024 1677,-235 1677,-235 1677,-235 1677,-177 1677,-130.115 1626.45,-96.8944 1592.67,-79.9302"/>
<polygon fill="midnightblue" stroke="midnightblue" points="1594.17,-76.7687 1583.64,-75.5787 1591.13,-83.0742 1594.17,-76.7687"/>
</g>
<!-- Node6 -->
<g id="node6" class="node"><title>Node6</title>
<polygon fill="white" stroke="#bfbfbf" points="638,-0.5 638,-19.5 690,-19.5 690,-0.5 638,-0.5"/>
<text text-anchor="middle" x="664" y="-7.5" font-family="Helvetica,sans-Serif" font-size="10.00">QDebug</text>
</g>
<!-- Node4&#45;&gt;Node6 -->
<g id="edge5" class="edge"><title>Node4&#45;&gt;Node6</title>
<path fill="none" stroke="midnightblue" d="M736.416,-344.158C614.426,-340.425 140.797,-324.467 79,-300 36.7247,-283.262 0,-280.468 0,-235 0,-235 0,-235 0,-121 0,-56.799 489.376,-21.759 627.875,-13.1279"/>
<polygon fill="midnightblue" stroke="midnightblue" points="628.204,-16.6143 637.97,-12.507 627.774,-9.62753 628.204,-16.6143"/>
</g>
<!-- Node7 -->
<g id="node7" class="node"><title>Node7</title>
<polygon fill="white" stroke="#bfbfbf" points="292.5,-168.5 292.5,-187.5 339.5,-187.5 339.5,-168.5 292.5,-168.5"/>
<text text-anchor="middle" x="316" y="-175.5" font-family="Helvetica,sans-Serif" font-size="10.00">QtCore</text>
</g>
<!-- Node4&#45;&gt;Node7 -->
<g id="edge6" class="edge"><title>Node4&#45;&gt;Node7</title>
<path fill="none" stroke="midnightblue" d="M736.391,-342.354C649.194,-333.693 389.27,-303.289 333,-244 321.342,-231.716 317.439,-212.459 316.245,-198.089"/>
<polygon fill="midnightblue" stroke="midnightblue" points="319.729,-197.666 315.772,-187.838 312.737,-197.989 319.729,-197.666"/>
</g>
<!-- Node8 -->
<g id="node8" class="node"><title>Node8</title>
<polygon fill="white" stroke="#bfbfbf" points="793,-280.5 793,-299.5 835,-299.5 835,-280.5 793,-280.5"/>
<text text-anchor="middle" x="814" y="-287.5" font-family="Helvetica,sans-Serif" font-size="10.00">vector</text>
</g>
<!-- Node4&#45;&gt;Node8 -->
<g id="edge7" class="edge"><title>Node4&#45;&gt;Node8</title>
<path fill="none" stroke="midnightblue" d="M773.091,-336.083C780.155,-328.298 790.588,-316.801 799.149,-307.367"/>
<polygon fill="midnightblue" stroke="midnightblue" points="801.931,-309.509 806.059,-299.751 796.747,-304.805 801.931,-309.509"/>
</g>
<!-- Node9 -->
<g id="node9" class="node"><title>Node9</title>
<polygon fill="white" stroke="#bfbfbf" points="330.5,-112.5 330.5,-131.5 383.5,-131.5 383.5,-112.5 330.5,-112.5"/>
<text text-anchor="middle" x="357" y="-119.5" font-family="Helvetica,sans-Serif" font-size="10.00">QVector</text>
</g>
<!-- Node4&#45;&gt;Node9 -->
<g id="edge8" class="edge"><title>Node4&#45;&gt;Node9</title>
<path fill="none" stroke="midnightblue" d="M736.255,-343.214C661.345,-338.283 461.676,-323.28 400,-300 332.653,-274.579 302.845,-257.195 283,-188 280.549,-179.456 278.643,-175.748 283,-168 291.282,-153.271 306.553,-142.801 321.082,-135.69"/>
<polygon fill="midnightblue" stroke="midnightblue" points="322.75,-138.778 330.441,-131.491 319.884,-132.391 322.75,-138.778"/>
</g>
<!-- Node10 -->
<g id="node10" class="node"><title>Node10</title>
<polygon fill="white" stroke="#bfbfbf" points="1419,-112.5 1419,-131.5 1493,-131.5 1493,-112.5 1419,-112.5"/>
<text text-anchor="middle" x="1456" y="-119.5" font-family="Helvetica,sans-Serif" font-size="10.00">QVariantMap</text>
</g>
<!-- Node4&#45;&gt;Node10 -->
<g id="edge9" class="edge"><title>Node4&#45;&gt;Node10</title>
<path fill="none" stroke="midnightblue" d="M793.756,-339.906C838.708,-331.871 928.317,-315.563 1004,-300 1227.91,-253.956 1363.04,-366.375 1506,-188 1519.82,-170.755 1498.5,-150.525 1479.57,-137.27"/>
<polygon fill="midnightblue" stroke="midnightblue" points="1481.44,-134.314 1471.17,-131.707 1477.58,-140.149 1481.44,-134.314"/>
</g>
<!-- Node11 -->
<g id="node11" class="node"><title>Node11</title>
<polygon fill="white" stroke="#bfbfbf" points="1321,-0.5 1321,-19.5 1375,-19.5 1375,-0.5 1321,-0.5"/>
<text text-anchor="middle" x="1348" y="-7.5" font-family="Helvetica,sans-Serif" font-size="10.00">iostream</text>
</g>
<!-- Node4&#45;&gt;Node11 -->
<g id="edge10" class="edge"><title>Node4&#45;&gt;Node11</title>
<path fill="none" stroke="midnightblue" d="M793.604,-345.018C938.589,-344.917 1588.5,-342.102 1667,-300 1698.65,-283.026 1715,-270.912 1715,-235 1715,-235 1715,-235 1715,-121 1715,-52.7095 1478.89,-23.2007 1385.43,-14.1956"/>
<polygon fill="midnightblue" stroke="midnightblue" points="1385.57,-10.693 1375.28,-13.2447 1384.91,-17.6624 1385.57,-10.693"/>
</g>
<!-- Node12 -->
<g id="node12" class="node"><title>Node12</title>
<polygon fill="white" stroke="#bfbfbf" points="1531,-280.5 1531,-299.5 1611,-299.5 1611,-280.5 1531,-280.5"/>
<text text-anchor="middle" x="1571" y="-287.5" font-family="Helvetica,sans-Serif" font-size="10.00">QMainWindow</text>
</g>
<!-- Node4&#45;&gt;Node12 -->
<g id="edge11" class="edge"><title>Node4&#45;&gt;Node12</title>
<path fill="none" stroke="midnightblue" d="M793.78,-344.369C893.916,-341.943 1236.28,-331.703 1517,-300 1518.27,-299.856 1519.57,-299.702 1520.87,-299.54"/>
<polygon fill="midnightblue" stroke="midnightblue" points="1521.53,-302.982 1530.96,-298.156 1520.58,-296.047 1521.53,-302.982"/>
</g>
<!-- Node13 -->
<g id="node13" class="node"><title>Node13</title>
<polygon fill="white" stroke="#bfbfbf" points="692.5,-56.5 692.5,-75.5 745.5,-75.5 745.5,-56.5 692.5,-56.5"/>
<text text-anchor="middle" x="719" y="-63.5" font-family="Helvetica,sans-Serif" font-size="10.00">QObject</text>
</g>
<!-- Node4&#45;&gt;Node13 -->
<g id="edge12" class="edge"><title>Node4&#45;&gt;Node13</title>
<path fill="none" stroke="midnightblue" d="M736.404,-343.929C612.352,-339.172 125.856,-319.345 100,-300 75.3422,-281.552 76,-265.795 76,-235 76,-235 76,-235 76,-177 76,-146.205 75.3884,-130.51 100,-112 146.544,-76.9953 555.959,-69.0203 682.14,-67.3866"/>
<polygon fill="midnightblue" stroke="midnightblue" points="682.479,-70.8828 692.435,-67.2594 682.393,-63.8833 682.479,-70.8828"/>
</g>
<!-- Node14 -->
<g id="node14" class="node"><title>Node14</title>
<g id="a_node14"><a xlink:href="../../d4/dca/_roomba_connect_8h.xhtml" target="_top" xlink:title="RoombaConnect.h">
<polygon fill="white" stroke="black" points="756.5,-224.5 756.5,-243.5 853.5,-243.5 853.5,-224.5 756.5,-224.5"/>
<text text-anchor="middle" x="805" y="-231.5" font-family="Helvetica,sans-Serif" font-size="10.00">RoombaConnect.h</text>
</a>
</g>
</g>
<!-- Node4&#45;&gt;Node14 -->
<g id="edge13" class="edge"><title>Node4&#45;&gt;Node14</title>
<path fill="none" stroke="midnightblue" d="M767.056,-336.451C770.174,-323.893 776.535,-299.802 784,-280 787.421,-270.924 791.891,-261.135 795.827,-253.012"/>
<polygon fill="midnightblue" stroke="midnightblue" points="799.093,-254.306 800.408,-243.793 792.824,-251.191 799.093,-254.306"/>
</g>
<!-- Node31 -->
<g id="node31" class="node"><title>Node31</title>
<g id="a_node31"><a xlink:href="../../da/d4b/controllingroomba_8h.xhtml" target="_top" xlink:title="controllingroomba.h">
<polygon fill="white" stroke="black" points="518.5,-280.5 518.5,-299.5 619.5,-299.5 619.5,-280.5 518.5,-280.5"/>
<text text-anchor="middle" x="569" y="-287.5" font-family="Helvetica,sans-Serif" font-size="10.00">controllingroomba.h</text>
</a>
</g>
</g>
<!-- Node4&#45;&gt;Node31 -->
<g id="edge54" class="edge"><title>Node4&#45;&gt;Node31</title>
<path fill="none" stroke="midnightblue" d="M736.5,-337.148C703.168,-327.965 647.735,-312.692 609.838,-302.251"/>
<polygon fill="midnightblue" stroke="midnightblue" points="610.697,-298.858 600.126,-299.576 608.837,-305.606 610.697,-298.858"/>
</g>
<!-- Node27 -->
<g id="node27" class="node"><title>Node27</title>
<g id="a_node27"><a xlink:href="../../d4/d25/sensordata_8h.xhtml" target="_top" xlink:title="sensordata.h">
<polygon fill="white" stroke="black" points="1265.5,-168.5 1265.5,-187.5 1338.5,-187.5 1338.5,-168.5 1265.5,-168.5"/>
<text text-anchor="middle" x="1302" y="-175.5" font-family="Helvetica,sans-Serif" font-size="10.00">sensordata.h</text>
</a>
</g>
</g>
<!-- Node4&#45;&gt;Node27 -->
<g id="edge69" class="edge"><title>Node4&#45;&gt;Node27</title>
<path fill="none" stroke="midnightblue" d="M792.741,-336.425C882.13,-308.792 1162.71,-222.057 1264.58,-190.568"/>
<polygon fill="midnightblue" stroke="midnightblue" points="1265.9,-193.821 1274.43,-187.524 1263.84,-187.134 1265.9,-193.821"/>
</g>
<!-- Node23 -->
<g id="node23" class="node"><title>Node23</title>
<g id="a_node23"><a xlink:href="../../dc/d96/jsoncommand_8h.xhtml" target="_top" xlink:title="../resources/jsoncommand.h">
<polygon fill="white" stroke="black" points="1357,-168.5 1357,-187.5 1497,-187.5 1497,-168.5 1357,-168.5"/>
<text text-anchor="middle" x="1427" y="-175.5" font-family="Helvetica,sans-Serif" font-size="10.00">../resources/jsoncommand.h</text>
</a>
</g>
</g>
<!-- Node4&#45;&gt;Node23 -->
<g id="edge70" class="edge"><title>Node4&#45;&gt;Node23</title>
<path fill="none" stroke="midnightblue" d="M793.698,-338.272C830.597,-329.589 896.638,-313.939 953,-300 1112.48,-260.56 1301.57,-211.64 1384.48,-190.083"/>
<polygon fill="midnightblue" stroke="midnightblue" points="1385.49,-193.436 1394.29,-187.531 1383.73,-186.661 1385.49,-193.436"/>
</g>
<!-- Node24 -->
<g id="node24" class="node"><title>Node24</title>
<g id="a_node24"><a xlink:href="../../d4/d05/json_8h.xhtml" target="_top" xlink:title="json.h">
<polygon fill="white" stroke="black" points="1541.5,-112.5 1541.5,-131.5 1584.5,-131.5 1584.5,-112.5 1541.5,-112.5"/>
<text text-anchor="middle" x="1563" y="-119.5" font-family="Helvetica,sans-Serif" font-size="10.00">json.h</text>
</a>
</g>
</g>
<!-- Node4&#45;&gt;Node24 -->
<g id="edge71" class="edge"><title>Node4&#45;&gt;Node24</title>
<path fill="none" stroke="midnightblue" d="M793.829,-344.584C939.73,-342.34 1590.94,-330.631 1620,-300 1663.84,-253.797 1606.26,-173.69 1577.54,-139.372"/>
<polygon fill="midnightblue" stroke="midnightblue" points="1580.11,-136.991 1570.94,-131.682 1574.8,-141.55 1580.11,-136.991"/>
</g>
<!-- Node18 -->
<g id="node18" class="node"><title>Node18</title>
<g id="a_node18"><a xlink:href="../../d7/d62/clslog_8h.xhtml" target="_top" xlink:title="../resources/clslog.h">
<polygon fill="white" stroke="black" points="767.5,-56.5 767.5,-75.5 872.5,-75.5 872.5,-56.5 767.5,-56.5"/>
<text text-anchor="middle" x="820" y="-63.5" font-family="Helvetica,sans-Serif" font-size="10.00">../resources/clslog.h</text>
</a>
</g>
</g>
<!-- Node4&#45;&gt;Node18 -->
<g id="edge72" class="edge"><title>Node4&#45;&gt;Node18</title>
<path fill="none" stroke="midnightblue" d="M736.187,-343.228C610.199,-335.105 114,-299.046 114,-235 114,-235 114,-235 114,-177 114,-170.335 143.021,-145.533 321,-112 510.77,-76.2455 562.043,-97.053 754,-76 755.092,-75.8802 756.194,-75.7569 757.303,-75.6306"/>
<polygon fill="midnightblue" stroke="midnightblue" points="757.919,-79.082 767.434,-74.4217 757.09,-72.1314 757.919,-79.082"/>
</g>
<!-- Node26 -->
<g id="node26" class="node"><title>Node26</title>
<g id="a_node26"><a xlink:href="../../db/d97/clsevent_8h.xhtml" target="_top" xlink:title="../resources/clsevent.h">
<polygon fill="white" stroke="black" points="847.5,-112.5 847.5,-131.5 962.5,-131.5 962.5,-112.5 847.5,-112.5"/>
<text text-anchor="middle" x="905" y="-119.5" font-family="Helvetica,sans-Serif" font-size="10.00">../resources/clsevent.h</text>
</a>
</g>
</g>
<!-- Node4&#45;&gt;Node26 -->
<g id="edge73" class="edge"><title>Node4&#45;&gt;Node26</title>
<path fill="none" stroke="midnightblue" d="M752.86,-336.382C708.933,-305.142 560.556,-199.091 555,-188 551.019,-180.053 549.129,-174.674 555,-168 564.221,-157.518 737.791,-139.145 836.968,-129.435"/>
<polygon fill="midnightblue" stroke="midnightblue" points="837.594,-132.891 847.207,-128.438 836.915,-125.924 837.594,-132.891"/>
</g>
<!-- Node30 -->
<g id="node30" class="node"><title>Node30</title>
<g id="a_node30"><a xlink:href="../../da/d69/loggingdata_8h.xhtml" target="_top" xlink:title="loggingdata.h">
<polygon fill="white" stroke="black" points="396,-168.5 396,-187.5 470,-187.5 470,-168.5 396,-168.5"/>
<text text-anchor="middle" x="433" y="-175.5" font-family="Helvetica,sans-Serif" font-size="10.00">loggingdata.h</text>
</a>
</g>
</g>
<!-- Node4&#45;&gt;Node30 -->
<g id="edge74" class="edge"><title>Node4&#45;&gt;Node30</title>
<path fill="none" stroke="midnightblue" d="M744.495,-336.36C725.274,-327.966 695.987,-314.407 672,-300 622.923,-270.524 618.874,-250.254 568,-224 539.481,-209.282 505.143,-197.914 478.236,-190.286"/>
<polygon fill="midnightblue" stroke="midnightblue" points="478.886,-186.834 468.315,-187.546 477.022,-193.582 478.886,-186.834"/>
</g>
<!-- Node14&#45;&gt;Node6 -->
<g id="edge14" class="edge"><title>Node14&#45;&gt;Node6</title>
<path fill="none" stroke="midnightblue" d="M787.752,-224.459C773.264,-216.593 752.777,-203.771 739,-188 696.983,-139.901 675.874,-64.8054 667.893,-29.9523"/>
<polygon fill="midnightblue" stroke="midnightblue" points="671.224,-28.7999 665.679,-19.7724 664.384,-30.2879 671.224,-28.7999"/>
</g>
<!-- Node14&#45;&gt;Node7 -->
<g id="edge15" class="edge"><title>Node14&#45;&gt;Node7</title>
<path fill="none" stroke="midnightblue" d="M756.376,-228.066C678.398,-220.085 520.568,-203.654 387,-188 374.783,-186.568 361.397,-184.898 349.573,-183.388"/>
<polygon fill="midnightblue" stroke="midnightblue" points="350.018,-179.916 339.653,-182.112 349.125,-186.859 350.018,-179.916"/>
</g>
<!-- Node14&#45;&gt;Node13 -->
<g id="edge16" class="edge"><title>Node14&#45;&gt;Node13</title>
<path fill="none" stroke="midnightblue" d="M791.043,-224.339C779.235,-216.312 762.727,-203.32 753,-188 732.411,-155.571 724.061,-110.525 720.853,-85.5488"/>
<polygon fill="midnightblue" stroke="midnightblue" points="724.329,-85.1404 719.716,-75.6029 717.375,-85.9359 724.329,-85.1404"/>
</g>
<!-- Node15 -->
<g id="node15" class="node"><title>Node15</title>
<polygon fill="white" stroke="#bfbfbf" points="564.5,-168.5 564.5,-187.5 635.5,-187.5 635.5,-168.5 564.5,-168.5"/>
<text text-anchor="middle" x="600" y="-175.5" font-family="Helvetica,sans-Serif" font-size="10.00">QTcpSocket</text>
</g>
<!-- Node14&#45;&gt;Node15 -->
<g id="edge17" class="edge"><title>Node14&#45;&gt;Node15</title>
<path fill="none" stroke="midnightblue" d="M772.517,-224.444C737.28,-215.162 680.896,-200.309 642.241,-190.127"/>
<polygon fill="midnightblue" stroke="midnightblue" points="642.893,-186.679 632.331,-187.516 641.109,-193.448 642.893,-186.679"/>
</g>
<!-- Node16 -->
<g id="node16" class="node"><title>Node16</title>
<polygon fill="white" stroke="#bfbfbf" points="768,-168.5 768,-187.5 842,-187.5 842,-168.5 768,-168.5"/>
<text text-anchor="middle" x="805" y="-175.5" font-family="Helvetica,sans-Serif" font-size="10.00">QTextStream</text>
</g>
<!-- Node14&#45;&gt;Node16 -->
<g id="edge18" class="edge"><title>Node14&#45;&gt;Node16</title>
<path fill="none" stroke="midnightblue" d="M805,-224.083C805,-217.006 805,-206.861 805,-197.986"/>
<polygon fill="midnightblue" stroke="midnightblue" points="808.5,-197.751 805,-187.751 801.5,-197.751 808.5,-197.751"/>
</g>
<!-- Node17 -->
<g id="node17" class="node"><title>Node17</title>
<polygon fill="white" stroke="#bfbfbf" points="860.5,-168.5 860.5,-187.5 905.5,-187.5 905.5,-168.5 860.5,-168.5"/>
<text text-anchor="middle" x="883" y="-175.5" font-family="Helvetica,sans-Serif" font-size="10.00">QTime</text>
</g>
<!-- Node14&#45;&gt;Node17 -->
<g id="edge19" class="edge"><title>Node14&#45;&gt;Node17</title>
<path fill="none" stroke="midnightblue" d="M817.532,-224.324C829.586,-215.979 848.027,-203.212 862.269,-193.352"/>
<polygon fill="midnightblue" stroke="midnightblue" points="864.269,-196.224 870.499,-187.655 860.285,-190.469 864.269,-196.224"/>
</g>
<!-- Node14&#45;&gt;Node18 -->
<g id="edge20" class="edge"><title>Node14&#45;&gt;Node18</title>
<path fill="none" stroke="midnightblue" d="M791.213,-224.189C780.174,-216.241 765.498,-203.447 759,-188 755.553,-179.807 756.615,-176.563 759,-168 768.111,-135.292 790.995,-102.598 805.998,-83.6121"/>
<polygon fill="midnightblue" stroke="midnightblue" points="808.857,-85.6449 812.448,-75.6772 803.424,-81.2299 808.857,-85.6449"/>
</g>
<!-- Node22 -->
<g id="node22" class="node"><title>Node22</title>
<polygon fill="white" stroke="#bfbfbf" points="924,-168.5 924,-187.5 972,-187.5 972,-168.5 924,-168.5"/>
<text text-anchor="middle" x="948" y="-175.5" font-family="Helvetica,sans-Serif" font-size="10.00">QTimer</text>
</g>
<!-- Node14&#45;&gt;Node22 -->
<g id="edge26" class="edge"><title>Node14&#45;&gt;Node22</title>
<path fill="none" stroke="midnightblue" d="M827.659,-224.444C851.402,-215.478 888.909,-201.314 915.738,-191.183"/>
<polygon fill="midnightblue" stroke="midnightblue" points="917.329,-194.324 925.447,-187.516 914.856,-187.775 917.329,-194.324"/>
</g>
<!-- Node14&#45;&gt;Node23 -->
<g id="edge27" class="edge"><title>Node14&#45;&gt;Node23</title>
<path fill="none" stroke="midnightblue" d="M853.628,-229.441C946.886,-222.512 1157.58,-206.354 1346.65,-188.005"/>
<polygon fill="midnightblue" stroke="midnightblue" points="1347.16,-191.472 1356.77,-187.018 1346.48,-184.505 1347.16,-191.472"/>
</g>
<!-- Node14&#45;&gt;Node24 -->
<g id="edge34" class="edge"><title>Node14&#45;&gt;Node24</title>
<path fill="none" stroke="midnightblue" d="M853.544,-232.028C1002.71,-228.746 1447.84,-216.633 1506,-188 1526.96,-177.679 1543.51,-155.871 1553.26,-140.365"/>
<polygon fill="midnightblue" stroke="midnightblue" points="1556.32,-142.067 1558.43,-131.684 1550.31,-138.485 1556.32,-142.067"/>
</g>
<!-- Node14&#45;&gt;Node26 -->
<g id="edge35" class="edge"><title>Node14&#45;&gt;Node26</title>
<path fill="none" stroke="midnightblue" d="M853.724,-227.231C900.238,-220.603 965.477,-207.991 981,-188 997.478,-166.778 966.262,-147.461 938.992,-135.501"/>
<polygon fill="midnightblue" stroke="midnightblue" points="940.173,-132.201 929.596,-131.586 937.481,-138.663 940.173,-132.201"/>
</g>
<!-- Node14&#45;&gt;Node27 -->
<g id="edge41" class="edge"><title>Node14&#45;&gt;Node27</title>
<path fill="none" stroke="midnightblue" d="M853.571,-229.655C934.637,-223.744 1102.81,-210.087 1255.37,-187.953"/>
<polygon fill="midnightblue" stroke="midnightblue" points="1256.01,-191.397 1265.39,-186.483 1254.99,-184.471 1256.01,-191.397"/>
</g>
<!-- Node28 -->
<g id="node28" class="node"><title>Node28</title>
<g id="a_node28"><a xlink:href="../../d1/da1/brushvacuumdata_8h.xhtml" target="_top" xlink:title="brushvacuumdata.h">
<polygon fill="white" stroke="black" points="1146.5,-168.5 1146.5,-187.5 1247.5,-187.5 1247.5,-168.5 1146.5,-168.5"/>
<text text-anchor="middle" x="1197" y="-175.5" font-family="Helvetica,sans-Serif" font-size="10.00">brushvacuumdata.h</text>
</a>
</g>
</g>
<!-- Node14&#45;&gt;Node28 -->
<g id="edge44" class="edge"><title>Node14&#45;&gt;Node28</title>
<path fill="none" stroke="midnightblue" d="M853.692,-226.62C916.466,-218.346 1029.28,-203.311 1136.27,-188.087"/>
<polygon fill="midnightblue" stroke="midnightblue" points="1136.86,-191.538 1146.27,-186.661 1135.87,-184.608 1136.86,-191.538"/>
</g>
<!-- Node29 -->
<g id="node29" class="node"><title>Node29</title>
<g id="a_node29"><a xlink:href="../../de/d51/currentactiondata_8h.xhtml" target="_top" xlink:title="currentactiondata.h">
<polygon fill="white" stroke="black" points="1028,-168.5 1028,-187.5 1128,-187.5 1128,-168.5 1028,-168.5"/>
<text text-anchor="middle" x="1078" y="-175.5" font-family="Helvetica,sans-Serif" font-size="10.00">currentactiondata.h</text>
</a>
</g>
</g>
<!-- Node14&#45;&gt;Node29 -->
<g id="edge47" class="edge"><title>Node14&#45;&gt;Node29</title>
<path fill="none" stroke="midnightblue" d="M848.258,-224.444C896.181,-214.964 973.478,-199.675 1025,-189.483"/>
<polygon fill="midnightblue" stroke="midnightblue" points="1025.81,-192.89 1034.94,-187.516 1024.46,-186.023 1025.81,-192.89"/>
</g>
<!-- Node14&#45;&gt;Node30 -->
<g id="edge50" class="edge"><title>Node14&#45;&gt;Node30</title>
<path fill="none" stroke="midnightblue" d="M756.367,-225.94C684.568,-215.518 551.065,-196.139 480.135,-185.842"/>
<polygon fill="midnightblue" stroke="midnightblue" points="480.538,-182.364 470.139,-184.391 479.532,-189.291 480.538,-182.364"/>
</g>
<!-- Node18&#45;&gt;Node6 -->
<g id="edge21" class="edge"><title>Node18&#45;&gt;Node6</title>
<path fill="none" stroke="midnightblue" d="M795.281,-56.4435C769.152,-47.3986 727.741,-33.064 698.424,-22.9158"/>
<polygon fill="midnightblue" stroke="midnightblue" points="699.198,-19.4801 688.603,-19.5164 696.908,-26.0951 699.198,-19.4801"/>
</g>
<!-- Node19 -->
<g id="node19" class="node"><title>Node19</title>
<polygon fill="white" stroke="#bfbfbf" points="867.5,-0.5 867.5,-19.5 932.5,-19.5 932.5,-0.5 867.5,-0.5"/>
<text text-anchor="middle" x="900" y="-7.5" font-family="Helvetica,sans-Serif" font-size="10.00">QDateTime</text>
</g>
<!-- Node18&#45;&gt;Node19 -->
<g id="edge22" class="edge"><title>Node18&#45;&gt;Node19</title>
<path fill="none" stroke="midnightblue" d="M832.853,-56.324C845.216,-47.979 864.13,-35.2122 878.737,-25.3524"/>
<polygon fill="midnightblue" stroke="midnightblue" points="880.848,-28.1503 887.179,-19.6545 876.932,-22.3483 880.848,-28.1503"/>
</g>
<!-- Node20 -->
<g id="node20" class="node"><title>Node20</title>
<polygon fill="white" stroke="#bfbfbf" points="802.5,-0.5 802.5,-19.5 843.5,-19.5 843.5,-0.5 802.5,-0.5"/>
<text text-anchor="middle" x="823" y="-7.5" font-family="Helvetica,sans-Serif" font-size="10.00">string</text>
</g>
<!-- Node18&#45;&gt;Node20 -->
<g id="edge23" class="edge"><title>Node18&#45;&gt;Node20</title>
<path fill="none" stroke="midnightblue" d="M820.495,-56.083C820.889,-49.0059 821.452,-38.8611 821.945,-29.9865"/>
<polygon fill="midnightblue" stroke="midnightblue" points="825.454,-29.9299 822.514,-19.7511 818.464,-29.5415 825.454,-29.9299"/>
</g>
<!-- Node18&#45;&gt;Node11 -->
<g id="edge24" class="edge"><title>Node18&#45;&gt;Node11</title>
<path fill="none" stroke="midnightblue" d="M872.557,-59.6249C979.176,-48.7207 1218.58,-24.2364 1310.8,-14.8046"/>
<polygon fill="midnightblue" stroke="midnightblue" points="1311.2,-18.2822 1320.79,-13.7828 1310.49,-11.3185 1311.2,-18.2822"/>
</g>
<!-- Node21 -->
<g id="node21" class="node"><title>Node21</title>
<polygon fill="white" stroke="#bfbfbf" points="719.5,-0.5 719.5,-19.5 784.5,-19.5 784.5,-0.5 719.5,-0.5"/>
<text text-anchor="middle" x="752" y="-7.5" font-family="Helvetica,sans-Serif" font-size="10.00">QStringList</text>
</g>
<!-- Node18&#45;&gt;Node21 -->
<g id="edge25" class="edge"><title>Node18&#45;&gt;Node21</title>
<path fill="none" stroke="midnightblue" d="M809.075,-56.324C798.825,-48.1849 783.279,-35.8395 770.999,-26.0874"/>
<polygon fill="midnightblue" stroke="midnightblue" points="773.132,-23.3119 763.124,-19.8339 768.779,-28.7937 773.132,-23.3119"/>
</g>
<!-- Node23&#45;&gt;Node13 -->
<g id="edge28" class="edge"><title>Node23&#45;&gt;Node13</title>
<path fill="none" stroke="midnightblue" d="M1356.68,-168.942C1267.92,-158.647 1120.27,-141.079 1066,-132 1023.44,-124.881 1013.39,-120.041 971,-112 876.673,-94.107 852.15,-94.8026 758,-76 757.259,-75.852 756.51,-75.7003 755.757,-75.5456"/>
<polygon fill="midnightblue" stroke="midnightblue" points="756.321,-72.087 745.809,-73.4069 754.85,-78.9307 756.321,-72.087"/>
</g>
<!-- Node23&#45;&gt;Node10 -->
<g id="edge29" class="edge"><title>Node23&#45;&gt;Node10</title>
<path fill="none" stroke="midnightblue" d="M1431.79,-168.083C1435.76,-160.691 1441.53,-149.953 1446.43,-140.811"/>
<polygon fill="midnightblue" stroke="midnightblue" points="1449.65,-142.217 1451.3,-131.751 1443.49,-138.905 1449.65,-142.217"/>
</g>
<!-- Node23&#45;&gt;Node24 -->
<g id="edge30" class="edge"><title>Node23&#45;&gt;Node24</title>
<path fill="none" stroke="midnightblue" d="M1448.55,-168.444C1471.03,-159.517 1506.49,-145.439 1531.98,-135.317"/>
<polygon fill="midnightblue" stroke="midnightblue" points="1533.55,-138.46 1541.55,-131.516 1530.97,-131.954 1533.55,-138.46"/>
</g>
<!-- Node23&#45;&gt;Node18 -->
<g id="edge33" class="edge"><title>Node23&#45;&gt;Node18</title>
<path fill="none" stroke="midnightblue" d="M1379.87,-168.46C1269.85,-148.522 996.375,-98.9625 877.121,-77.3515"/>
<polygon fill="midnightblue" stroke="midnightblue" points="877.559,-73.8739 867.095,-75.5345 876.311,-80.7617 877.559,-73.8739"/>
</g>
<!-- Node25 -->
<g id="node25" class="node"><title>Node25</title>
<polygon fill="white" stroke="#bfbfbf" points="1119.5,-56.5 1119.5,-75.5 1174.5,-75.5 1174.5,-56.5 1119.5,-56.5"/>
<text text-anchor="middle" x="1147" y="-63.5" font-family="Helvetica,sans-Serif" font-size="10.00">QVariant</text>
</g>
<!-- Node24&#45;&gt;Node25 -->
<g id="edge31" class="edge"><title>Node24&#45;&gt;Node25</title>
<path fill="none" stroke="midnightblue" d="M1541.28,-117.685C1529.64,-115.936 1515.04,-113.789 1502,-112 1386.56,-96.1689 1249.72,-79.3802 1184.8,-71.5348"/>
<polygon fill="midnightblue" stroke="midnightblue" points="1184.99,-68.0324 1174.64,-70.3094 1184.15,-74.982 1184.99,-68.0324"/>
</g>
<!-- Node24&#45;&gt;Node5 -->
<g id="edge32" class="edge"><title>Node24&#45;&gt;Node5</title>
<path fill="none" stroke="midnightblue" d="M1563,-112.083C1563,-105.006 1563,-94.8611 1563,-85.9865"/>
<polygon fill="midnightblue" stroke="midnightblue" points="1566.5,-85.751 1563,-75.7511 1559.5,-85.7511 1566.5,-85.751"/>
</g>
<!-- Node26&#45;&gt;Node13 -->
<g id="edge36" class="edge"><title>Node26&#45;&gt;Node13</title>
<path fill="none" stroke="midnightblue" d="M875.528,-112.444C842.99,-102.997 790.578,-87.7807 755.476,-77.5897"/>
<polygon fill="midnightblue" stroke="midnightblue" points="756.202,-74.156 745.622,-74.729 754.25,-80.8784 756.202,-74.156"/>
</g>
<!-- Node26&#45;&gt;Node5 -->
<g id="edge37" class="edge"><title>Node26&#45;&gt;Node5</title>
<path fill="none" stroke="midnightblue" d="M962.529,-116.279C1095.41,-105.373 1420.53,-78.692 1527.93,-69.8782"/>
<polygon fill="midnightblue" stroke="midnightblue" points="1528.24,-73.3646 1537.92,-69.0584 1527.67,-66.3881 1528.24,-73.3646"/>
</g>
<!-- Node26&#45;&gt;Node25 -->
<g id="edge38" class="edge"><title>Node26&#45;&gt;Node25</title>
<path fill="none" stroke="midnightblue" d="M943.346,-112.444C988.847,-102.29 1064.22,-85.4719 1109.39,-75.3915"/>
<polygon fill="midnightblue" stroke="midnightblue" points="1110.37,-78.7588 1119.37,-73.1649 1108.85,-71.9268 1110.37,-78.7588"/>
</g>
<!-- Node26&#45;&gt;Node19 -->
<g id="edge39" class="edge"><title>Node26&#45;&gt;Node19</title>
<path fill="none" stroke="midnightblue" d="M904.608,-112.368C903.801,-94.617 901.939,-53.6664 900.845,-29.5974"/>
<polygon fill="midnightblue" stroke="midnightblue" points="904.341,-29.4221 900.391,-19.5914 897.348,-29.7401 904.341,-29.4221"/>
</g>
<!-- Node26&#45;&gt;Node18 -->
<g id="edge40" class="edge"><title>Node26&#45;&gt;Node18</title>
<path fill="none" stroke="midnightblue" d="M891.343,-112.324C878.084,-103.9 857.732,-90.9709 842.154,-81.0741"/>
<polygon fill="midnightblue" stroke="midnightblue" points="843.94,-78.0626 833.623,-75.6545 840.187,-83.9711 843.94,-78.0626"/>
</g>
<!-- Node27&#45;&gt;Node26 -->
<g id="edge42" class="edge"><title>Node27&#45;&gt;Node26</title>
<path fill="none" stroke="midnightblue" d="M1265.38,-169.61C1262.21,-169.039 1259.05,-168.494 1256,-168 1157.88,-152.128 1043.58,-138.344 972.75,-130.349"/>
<polygon fill="midnightblue" stroke="midnightblue" points="972.95,-126.849 962.622,-129.211 972.169,-133.806 972.95,-126.849"/>
</g>
<!-- Node27&#45;&gt;Node25 -->
<g id="edge43" class="edge"><title>Node27&#45;&gt;Node25</title>
<path fill="none" stroke="midnightblue" d="M1289.84,-168.368C1263.35,-149.573 1200.22,-104.768 1167.48,-81.5334"/>
<polygon fill="midnightblue" stroke="midnightblue" points="1169.29,-78.5246 1159.11,-75.5914 1165.24,-84.2332 1169.29,-78.5246"/>
</g>
<!-- Node28&#45;&gt;Node26 -->
<g id="edge45" class="edge"><title>Node28&#45;&gt;Node26</title>
<path fill="none" stroke="midnightblue" d="M1150.73,-168.444C1099.26,-158.925 1016.11,-143.547 961.001,-133.356"/>
<polygon fill="midnightblue" stroke="midnightblue" points="961.522,-129.893 951.052,-131.516 960.249,-136.777 961.522,-129.893"/>
</g>
<!-- Node28&#45;&gt;Node25 -->
<g id="edge46" class="edge"><title>Node28&#45;&gt;Node25</title>
<path fill="none" stroke="midnightblue" d="M1193.08,-168.368C1184.93,-150.456 1166.06,-108.923 1155.16,-84.9482"/>
<polygon fill="midnightblue" stroke="midnightblue" points="1158.23,-83.2468 1150.91,-75.5914 1151.86,-86.1434 1158.23,-83.2468"/>
</g>
<!-- Node29&#45;&gt;Node26 -->
<g id="edge48" class="edge"><title>Node29&#45;&gt;Node26</title>
<path fill="none" stroke="midnightblue" d="M1050.59,-168.444C1021.23,-159.28 974.481,-144.688 941.904,-134.519"/>
<polygon fill="midnightblue" stroke="midnightblue" points="942.873,-131.155 932.284,-131.516 940.787,-137.837 942.873,-131.155"/>
</g>
<!-- Node29&#45;&gt;Node25 -->
<g id="edge49" class="edge"><title>Node29&#45;&gt;Node25</title>
<path fill="none" stroke="midnightblue" d="M1083.41,-168.368C1094.75,-150.296 1121.17,-108.176 1136.14,-84.3074"/>
<polygon fill="midnightblue" stroke="midnightblue" points="1139.26,-85.9226 1141.61,-75.5914 1133.33,-82.2029 1139.26,-85.9226"/>
</g>
<!-- Node30&#45;&gt;Node26 -->
<g id="edge51" class="edge"><title>Node30&#45;&gt;Node26</title>
<path fill="none" stroke="midnightblue" d="M470,-170.165C474.705,-169.386 479.46,-168.642 484,-168 608.189,-150.426 753.863,-136.287 837.207,-128.812"/>
<polygon fill="midnightblue" stroke="midnightblue" points="837.655,-132.286 847.304,-127.912 837.033,-125.314 837.655,-132.286"/>
</g>
<!-- Node30&#45;&gt;Node25 -->
<g id="edge52" class="edge"><title>Node30&#45;&gt;Node25</title>
<path fill="none" stroke="midnightblue" d="M470.017,-170.279C474.719,-169.481 479.469,-168.702 484,-168 603.636,-149.476 634.963,-154.048 754,-132 791.735,-125.011 800.308,-119.217 838,-112 934.991,-93.4292 1050.41,-78.5023 1108.92,-71.4365"/>
<polygon fill="midnightblue" stroke="midnightblue" points="1109.65,-74.8739 1119.16,-70.2096 1108.82,-67.9235 1109.65,-74.8739"/>
</g>
<!-- Node30&#45;&gt;Node9 -->
<g id="edge53" class="edge"><title>Node30&#45;&gt;Node9</title>
<path fill="none" stroke="midnightblue" d="M420.789,-168.324C409.224,-160.107 391.625,-147.602 377.839,-137.807"/>
<polygon fill="midnightblue" stroke="midnightblue" points="379.612,-134.773 369.433,-131.834 375.557,-140.479 379.612,-134.773"/>
</g>
<!-- Node31&#45;&gt;Node24 -->
<g id="edge55" class="edge"><title>Node31&#45;&gt;Node24</title>
<path fill="none" stroke="midnightblue" d="M619.543,-286.616C807.375,-277.366 1458.25,-241.675 1533,-188 1548.11,-177.15 1555.81,-156.769 1559.59,-141.71"/>
<polygon fill="midnightblue" stroke="midnightblue" points="1563.02,-142.411 1561.71,-131.898 1556.18,-140.935 1563.02,-142.411"/>
</g>
<!-- Node31&#45;&gt;Node23 -->
<g id="edge56" class="edge"><title>Node31&#45;&gt;Node23</title>
<path fill="none" stroke="midnightblue" d="M619.785,-282.489C764.322,-263.959 1178.56,-210.851 1350.63,-188.791"/>
<polygon fill="midnightblue" stroke="midnightblue" points="1351.15,-192.253 1360.62,-187.51 1350.26,-185.31 1351.15,-192.253"/>
</g>
<!-- Node31&#45;&gt;Node14 -->
<g id="edge57" class="edge"><title>Node31&#45;&gt;Node14</title>
<path fill="none" stroke="midnightblue" d="M606.395,-280.444C647.392,-271.063 713.254,-255.993 757.784,-245.804"/>
<polygon fill="midnightblue" stroke="midnightblue" points="758.813,-249.159 767.78,-243.516 757.251,-242.335 758.813,-249.159"/>
</g>
<!-- Node31&#45;&gt;Node18 -->
<g id="edge58" class="edge"><title>Node31&#45;&gt;Node18</title>
<path fill="none" stroke="midnightblue" d="M564.096,-280.418C555.674,-266.457 537.113,-238.892 514,-224 462.144,-190.588 348.653,-216.321 387,-168 410.086,-138.91 643.148,-96.4811 757.452,-77.2062"/>
<polygon fill="midnightblue" stroke="midnightblue" points="758.185,-80.6322 767.467,-75.5253 757.026,-73.7288 758.185,-80.6322"/>
</g>
<!-- Node31&#45;&gt;Node26 -->
<g id="edge59" class="edge"><title>Node31&#45;&gt;Node26</title>
<path fill="none" stroke="midnightblue" d="M571.088,-280.458C573.789,-267.488 577.139,-242.396 568,-224 556.45,-200.75 533.371,-211.338 522,-188 518.107,-180.009 516.093,-174.642 522,-168 527.193,-162.162 728.576,-140.899 837.184,-129.819"/>
<polygon fill="midnightblue" stroke="midnightblue" points="837.801,-133.275 847.395,-128.78 837.092,-126.311 837.801,-133.275"/>
</g>
<!-- Node31&#45;&gt;Node3 -->
<g id="edge60" class="edge"><title>Node31&#45;&gt;Node3</title>
<path fill="none" stroke="midnightblue" d="M518.346,-288.127C431.307,-285.748 257.895,-276.896 208,-244 191.666,-233.231 181.442,-212.836 175.767,-197.752"/>
<polygon fill="midnightblue" stroke="midnightblue" points="178.956,-196.256 172.417,-187.92 172.33,-198.515 178.956,-196.256"/>
</g>
<!-- Node31&#45;&gt;Node15 -->
<g id="edge61" class="edge"><title>Node31&#45;&gt;Node15</title>
<path fill="none" stroke="midnightblue" d="M586.198,-280.386C599.251,-272.794 616.234,-260.389 624,-244 631.534,-228.102 622.627,-209.154 613.605,-195.83"/>
<polygon fill="midnightblue" stroke="midnightblue" points="616.295,-193.581 607.541,-187.611 610.662,-197.736 616.295,-193.581"/>
</g>
<!-- Node32 -->
<g id="node32" class="node"><title>Node32</title>
<polygon fill="white" stroke="#bfbfbf" points="456.5,-224.5 456.5,-243.5 505.5,-243.5 505.5,-224.5 456.5,-224.5"/>
<text text-anchor="middle" x="481" y="-231.5" font-family="Helvetica,sans-Serif" font-size="10.00">QSlider</text>
</g>
<!-- Node31&#45;&gt;Node32 -->
<g id="edge62" class="edge"><title>Node31&#45;&gt;Node32</title>
<path fill="none" stroke="midnightblue" d="M554.861,-280.324C541.134,-271.9 520.064,-258.971 503.936,-249.074"/>
<polygon fill="midnightblue" stroke="midnightblue" points="505.457,-245.902 495.104,-243.655 501.796,-251.868 505.457,-245.902"/>
</g>
<!-- Node31&#45;&gt;Node7 -->
<g id="edge63" class="edge"><title>Node31&#45;&gt;Node7</title>
<path fill="none" stroke="midnightblue" d="M518.186,-289.473C471.715,-287.491 403.089,-278.245 355,-244 338.956,-232.574 328.341,-212.29 322.291,-197.412"/>
<polygon fill="midnightblue" stroke="midnightblue" points="325.456,-195.882 318.681,-187.737 318.898,-198.33 325.456,-195.882"/>
</g>
<!-- Node31&#45;&gt;Node13 -->
<g id="edge64" class="edge"><title>Node31&#45;&gt;Node13</title>
<path fill="none" stroke="midnightblue" d="M518.26,-288.634C428.216,-285.488 252.637,-266.82 283,-168 291.834,-139.248 295.257,-127.557 321,-112 381.273,-75.5754 595.326,-68.6192 682.08,-67.3023"/>
<polygon fill="midnightblue" stroke="midnightblue" points="682.298,-70.7998 692.25,-67.1653 682.204,-63.8004 682.298,-70.7998"/>
</g>
<!-- Node31&#45;&gt;Node30 -->
<g id="edge65" class="edge"><title>Node31&#45;&gt;Node30</title>
<path fill="none" stroke="midnightblue" d="M568.5,-280.238C567.261,-266.517 562.956,-239.889 548,-224 530.064,-204.944 503.087,-193.83 479.769,-187.416"/>
<polygon fill="midnightblue" stroke="midnightblue" points="480.59,-184.013 470.036,-184.945 478.868,-190.798 480.59,-184.013"/>
</g>
<!-- Node33 -->
<g id="node33" class="node"><title>Node33</title>
<g id="a_node33"><a xlink:href="../../d7/d82/displaylogs_8h.xhtml" target="_top" xlink:title="displaylogs.h">
<polygon fill="white" stroke="black" points="364,-224.5 364,-243.5 438,-243.5 438,-224.5 364,-224.5"/>
<text text-anchor="middle" x="401" y="-231.5" font-family="Helvetica,sans-Serif" font-size="10.00">displaylogs.h</text>
</a>
</g>
</g>
<!-- Node31&#45;&gt;Node33 -->
<g id="edge66" class="edge"><title>Node31&#45;&gt;Node33</title>
<path fill="none" stroke="midnightblue" d="M542.38,-280.444C513.994,-271.32 468.863,-256.813 437.247,-246.651"/>
<polygon fill="midnightblue" stroke="midnightblue" points="438.087,-243.244 427.496,-243.516 435.945,-249.909 438.087,-243.244"/>
</g>
<!-- Node33&#45;&gt;Node3 -->
<g id="edge67" class="edge"><title>Node33&#45;&gt;Node3</title>
<path fill="none" stroke="midnightblue" d="M364.397,-224.444C321.527,-214.422 250.877,-197.906 207.587,-187.787"/>
<polygon fill="midnightblue" stroke="midnightblue" points="208.265,-184.351 197.731,-185.483 206.672,-191.167 208.265,-184.351"/>
</g>
<!-- Node33&#45;&gt;Node30 -->
<g id="edge68" class="edge"><title>Node33&#45;&gt;Node30</title>
<path fill="none" stroke="midnightblue" d="M406.284,-224.083C410.711,-216.613 417.163,-205.724 422.618,-196.52"/>
<polygon fill="midnightblue" stroke="midnightblue" points="425.727,-198.138 427.814,-187.751 419.705,-194.57 425.727,-198.138"/>
</g>
<!-- Node35 -->
<g id="node35" class="node"><title>Node35</title>
<polygon fill="white" stroke="#bfbfbf" points="1743.5,-280.5 1743.5,-299.5 1832.5,-299.5 1832.5,-280.5 1743.5,-280.5"/>
<text text-anchor="middle" x="1788" y="-287.5" font-family="Helvetica,sans-Serif" font-size="10.00">QtCore/QVariant</text>
</g>
<!-- Node34&#45;&gt;Node35 -->
<g id="edge76" class="edge"><title>Node34&#45;&gt;Node35</title>
<path fill="none" stroke="midnightblue" d="M2195.84,-340.211C2120.18,-333.049 1975.37,-318.531 1842.46,-300.138"/>
<polygon fill="midnightblue" stroke="midnightblue" points="1842.89,-296.665 1832.5,-298.75 1841.92,-303.598 1842.89,-296.665"/>
</g>
<!-- Node36 -->
<g id="node36" class="node"><title>Node36</title>
<polygon fill="white" stroke="#bfbfbf" points="1850.5,-280.5 1850.5,-299.5 1951.5,-299.5 1951.5,-280.5 1850.5,-280.5"/>
<text text-anchor="middle" x="1901" y="-287.5" font-family="Helvetica,sans-Serif" font-size="10.00">QtWidgets/QAction</text>
</g>
<!-- Node34&#45;&gt;Node36 -->
<g id="edge77" class="edge"><title>Node34&#45;&gt;Node36</title>
<path fill="none" stroke="midnightblue" d="M2195.67,-336.857C2132.91,-327.09 2027.9,-310.749 1961.66,-300.439"/>
<polygon fill="midnightblue" stroke="midnightblue" points="1962.19,-296.98 1951.77,-298.901 1961.11,-303.897 1962.19,-296.98"/>
</g>
<!-- Node37 -->
<g id="node37" class="node"><title>Node37</title>
<polygon fill="white" stroke="#bfbfbf" points="1970,-280.5 1970,-299.5 2092,-299.5 2092,-280.5 1970,-280.5"/>
<text text-anchor="middle" x="2031" y="-287.5" font-family="Helvetica,sans-Serif" font-size="10.00">QtWidgets/QApplication</text>
</g>
<!-- Node34&#45;&gt;Node37 -->
<g id="edge78" class="edge"><title>Node34&#45;&gt;Node37</title>
<path fill="none" stroke="midnightblue" d="M2213.62,-336.444C2176.08,-327.102 2115.87,-312.119 2074.93,-301.933"/>
<polygon fill="midnightblue" stroke="midnightblue" points="2075.77,-298.535 2065.22,-299.516 2074.08,-305.328 2075.77,-298.535"/>
</g>
<!-- Node38 -->
<g id="node38" class="node"><title>Node38</title>
<polygon fill="white" stroke="#bfbfbf" points="2110,-280.5 2110,-299.5 2238,-299.5 2238,-280.5 2110,-280.5"/>
<text text-anchor="middle" x="2174" y="-287.5" font-family="Helvetica,sans-Serif" font-size="10.00">QtWidgets/QButtonGroup</text>
</g>
<!-- Node34&#45;&gt;Node38 -->
<g id="edge79" class="edge"><title>Node34&#45;&gt;Node38</title>
<path fill="none" stroke="midnightblue" d="M2236.11,-336.324C2224.85,-328.107 2207.71,-315.602 2194.29,-305.807"/>
<polygon fill="midnightblue" stroke="midnightblue" points="2196.25,-302.901 2186.11,-299.834 2192.12,-308.556 2196.25,-302.901"/>
</g>
<!-- Node39 -->
<g id="node39" class="node"><title>Node39</title>
<polygon fill="white" stroke="#bfbfbf" points="2256,-280.5 2256,-299.5 2388,-299.5 2388,-280.5 2256,-280.5"/>
<text text-anchor="middle" x="2322" y="-287.5" font-family="Helvetica,sans-Serif" font-size="10.00">QtWidgets/QDateTimeEdit</text>
</g>
<!-- Node34&#45;&gt;Node39 -->
<g id="edge80" class="edge"><title>Node34&#45;&gt;Node39</title>
<path fill="none" stroke="midnightblue" d="M2259.89,-336.324C2271.15,-328.107 2288.29,-315.602 2301.71,-305.807"/>
<polygon fill="midnightblue" stroke="midnightblue" points="2303.88,-308.556 2309.89,-299.834 2299.75,-302.901 2303.88,-308.556"/>
</g>
<!-- Node40 -->
<g id="node40" class="node"><title>Node40</title>
<polygon fill="white" stroke="#bfbfbf" points="2406.5,-280.5 2406.5,-299.5 2531.5,-299.5 2531.5,-280.5 2406.5,-280.5"/>
<text text-anchor="middle" x="2469" y="-287.5" font-family="Helvetica,sans-Serif" font-size="10.00">QtWidgets/QHeaderView</text>
</g>
<!-- Node34&#45;&gt;Node40 -->
<g id="edge81" class="edge"><title>Node34&#45;&gt;Node40</title>
<path fill="none" stroke="midnightblue" d="M2283.02,-336.444C2321.25,-327.102 2382.57,-312.119 2424.26,-301.933"/>
<polygon fill="midnightblue" stroke="midnightblue" points="2425.26,-305.29 2434.15,-299.516 2423.6,-298.49 2425.26,-305.29"/>
</g>
<!-- Node41 -->
<g id="node41" class="node"><title>Node41</title>
<polygon fill="white" stroke="#bfbfbf" points="2549.5,-280.5 2549.5,-299.5 2646.5,-299.5 2646.5,-280.5 2549.5,-280.5"/>
<text text-anchor="middle" x="2598" y="-287.5" font-family="Helvetica,sans-Serif" font-size="10.00">QtWidgets/QLabel</text>
</g>
<!-- Node34&#45;&gt;Node41 -->
<g id="edge82" class="edge"><title>Node34&#45;&gt;Node41</title>
<path fill="none" stroke="midnightblue" d="M2300.22,-336.969C2356.54,-328.305 2449.12,-314.05 2539.15,-300.13"/>
<polygon fill="midnightblue" stroke="midnightblue" points="2539.92,-303.553 2549.27,-298.566 2538.85,-296.635 2539.92,-303.553"/>
</g>
<!-- Node42 -->
<g id="node42" class="node"><title>Node42</title>
<polygon fill="white" stroke="#bfbfbf" points="2664.5,-280.5 2664.5,-299.5 2789.5,-299.5 2789.5,-280.5 2664.5,-280.5"/>
<text text-anchor="middle" x="2727" y="-287.5" font-family="Helvetica,sans-Serif" font-size="10.00">QtWidgets/QPushButton</text>
</g>
<!-- Node34&#45;&gt;Node42 -->
<g id="edge83" class="edge"><title>Node34&#45;&gt;Node42</title>
<path fill="none" stroke="midnightblue" d="M2300.07,-339.483C2375.61,-331.426 2520.28,-315.796 2654.15,-300.086"/>
<polygon fill="midnightblue" stroke="midnightblue" points="2654.66,-303.55 2664.18,-298.906 2653.84,-296.598 2654.66,-303.55"/>
</g>
<!-- Node43 -->
<g id="node43" class="node"><title>Node43</title>
<polygon fill="white" stroke="#bfbfbf" points="2808,-280.5 2808,-299.5 2912,-299.5 2912,-280.5 2808,-280.5"/>
<text text-anchor="middle" x="2860" y="-287.5" font-family="Helvetica,sans-Serif" font-size="10.00">QtWidgets/QWidget</text>
</g>
<!-- Node34&#45;&gt;Node43 -->
<g id="edge84" class="edge"><title>Node34&#45;&gt;Node43</title>
<path fill="none" stroke="midnightblue" d="M2300.05,-341.83C2397.81,-335.635 2615.46,-320.696 2798,-300 2798.1,-299.989 2798.2,-299.977 2798.3,-299.965"/>
<polygon fill="midnightblue" stroke="midnightblue" points="2798.43,-303.476 2807.94,-298.799 2797.59,-296.527 2798.43,-303.476"/>
</g>
</g>
</svg>
