<?xml version="1.0" encoding="UTF-8" standalone="no"?>
<!DOCTYPE svg PUBLIC "-//W3C//DTD SVG 1.1//EN"
 "http://www.w3.org/Graphics/SVG/1.1/DTD/svg11.dtd">
<!-- Generated by graphviz version 2.30.1 (20130214.1330)
 -->
<!-- Title: GUI/Gui&#45;RoombaV1.0/settingsroomba.cpp Pages: 1 -->
<svg width="2500pt" height="432pt"
 viewBox="0.00 0.00 2500.00 432.00" xmlns="http://www.w3.org/2000/svg" xmlns:xlink="http://www.w3.org/1999/xlink">
<g id="graph0" class="graph" transform="scale(1 1) rotate(0) translate(4 428)">
<title>GUI/Gui&#45;RoombaV1.0/settingsroomba.cpp</title>
<polygon fill="white" stroke="white" points="-4,5 -4,-428 2497,-428 2497,5 -4,5"/>
<!-- Node1 -->
<g id="node1" class="node"><title>Node1</title>
<polygon fill="#bfbfbf" stroke="black" points="840,-393 840,-423 950,-423 950,-393 840,-393"/>
<text text-anchor="start" x="848" y="-411" font-family="Helvetica,sans-Serif" font-size="10.00">GUI/Gui&#45;RoombaV1.0</text>
<text text-anchor="middle" x="895" y="-400" font-family="Helvetica,sans-Serif" font-size="10.00">/settingsroomba.cpp</text>
</g>
<!-- Node2 -->
<g id="node2" class="node"><title>Node2</title>
<g id="a_node2"><a xlink:href="../../dc/d4d/settingsroomba_8h.xhtml" target="_top" xlink:title="settingsroomba.h">
<polygon fill="white" stroke="black" points="384,-336.5 384,-355.5 476,-355.5 476,-336.5 384,-336.5"/>
<text text-anchor="middle" x="430" y="-343.5" font-family="Helvetica,sans-Serif" font-size="10.00">settingsroomba.h</text>
</a>
</g>
</g>
<!-- Node1&#45;&gt;Node2 -->
<g id="edge1" class="edge"><title>Node1&#45;&gt;Node2</title>
<path fill="none" stroke="midnightblue" d="M839.832,-399.882C750.649,-388.374 575.758,-365.808 486.027,-354.229"/>
<polygon fill="midnightblue" stroke="midnightblue" points="486.408,-350.749 476.042,-352.941 485.512,-357.692 486.408,-350.749"/>
</g>
<!-- Node4 -->
<g id="node4" class="node"><title>Node4</title>
<g id="a_node4"><a xlink:href="../../dd/da1/roomba_8h.xhtml" target="_top" xlink:title="roomba.h">
<polygon fill="white" stroke="black" points="866.5,-336.5 866.5,-355.5 923.5,-355.5 923.5,-336.5 866.5,-336.5"/>
<text text-anchor="middle" x="895" y="-343.5" font-family="Helvetica,sans-Serif" font-size="10.00">roomba.h</text>
</a>
</g>
</g>
<!-- Node1&#45;&gt;Node4 -->
<g id="edge3" class="edge"><title>Node1&#45;&gt;Node4</title>
<path fill="none" stroke="midnightblue" d="M895,-392.781C895,-384.781 895,-374.689 895,-366.017"/>
<polygon fill="midnightblue" stroke="midnightblue" points="898.5,-365.73 895,-355.731 891.5,-365.731 898.5,-365.73"/>
</g>
<!-- Node30 -->
<g id="node30" class="node"><title>Node30</title>
<g id="a_node30"><a xlink:href="../../db/d1e/ui__settingsroomba_8h.xhtml" target="_top" xlink:title="ui_settingsroomba.h">
<polygon fill="white" stroke="black" points="1753,-336.5 1753,-355.5 1857,-355.5 1857,-336.5 1753,-336.5"/>
<text text-anchor="middle" x="1805" y="-343.5" font-family="Helvetica,sans-Serif" font-size="10.00">ui_settingsroomba.h</text>
</a>
</g>
</g>
<!-- Node1&#45;&gt;Node30 -->
<g id="edge59" class="edge"><title>Node1&#45;&gt;Node30</title>
<path fill="none" stroke="midnightblue" d="M950.215,-403.359C1110.33,-392.803 1574.12,-362.223 1742.76,-351.104"/>
<polygon fill="midnightblue" stroke="midnightblue" points="1743.21,-354.582 1752.96,-350.431 1742.75,-347.597 1743.21,-354.582"/>
</g>
<!-- Node3 -->
<g id="node3" class="node"><title>Node3</title>
<polygon fill="white" stroke="#bfbfbf" points="84.5,-224.5 84.5,-243.5 139.5,-243.5 139.5,-224.5 84.5,-224.5"/>
<text text-anchor="middle" x="112" y="-231.5" font-family="Helvetica,sans-Serif" font-size="10.00">QWidget</text>
</g>
<!-- Node2&#45;&gt;Node3 -->
<g id="edge2" class="edge"><title>Node2&#45;&gt;Node3</title>
<path fill="none" stroke="midnightblue" d="M383.978,-342C315.554,-336.797 191.072,-324.255 154,-300 137.009,-288.883 125.442,-268.24 118.816,-253.191"/>
<polygon fill="midnightblue" stroke="midnightblue" points="122.026,-251.794 115.013,-243.853 115.544,-254.435 122.026,-251.794"/>
</g>
<!-- Node5 -->
<g id="node5" class="node"><title>Node5</title>
<polygon fill="white" stroke="#bfbfbf" points="325,-56.5 325,-75.5 375,-75.5 375,-56.5 325,-56.5"/>
<text text-anchor="middle" x="350" y="-63.5" font-family="Helvetica,sans-Serif" font-size="10.00">QString</text>
</g>
<!-- Node4&#45;&gt;Node5 -->
<g id="edge4" class="edge"><title>Node4&#45;&gt;Node5</title>
<path fill="none" stroke="midnightblue" d="M899.245,-336.13C905.649,-323.172 918.576,-298.589 933,-280 972.665,-228.883 1068.24,-217.015 1026,-168 983.53,-118.713 517.707,-79.7483 385.058,-69.5919"/>
<polygon fill="midnightblue" stroke="midnightblue" points="385.265,-66.0977 375.029,-68.8305 384.735,-73.0776 385.265,-66.0977"/>
</g>
<!-- Node6 -->
<g id="node6" class="node"><title>Node6</title>
<polygon fill="white" stroke="#bfbfbf" points="1083,-0.5 1083,-19.5 1135,-19.5 1135,-0.5 1083,-0.5"/>
<text text-anchor="middle" x="1109" y="-7.5" font-family="Helvetica,sans-Serif" font-size="10.00">QDebug</text>
</g>
<!-- Node4&#45;&gt;Node6 -->
<g id="edge5" class="edge"><title>Node4&#45;&gt;Node6</title>
<path fill="none" stroke="midnightblue" d="M923.528,-344.802C999.766,-343.767 1206.17,-337.482 1261,-300 1288.09,-281.485 1296,-267.811 1296,-235 1296,-235 1296,-235 1296,-121 1296,-51.6453 1199.26,-25.1517 1144.94,-15.7424"/>
<polygon fill="midnightblue" stroke="midnightblue" points="1145.43,-12.2771 1135,-14.1291 1144.31,-19.1866 1145.43,-12.2771"/>
</g>
<!-- Node7 -->
<g id="node7" class="node"><title>Node7</title>
<polygon fill="white" stroke="#bfbfbf" points="970.5,-168.5 970.5,-187.5 1017.5,-187.5 1017.5,-168.5 970.5,-168.5"/>
<text text-anchor="middle" x="994" y="-175.5" font-family="Helvetica,sans-Serif" font-size="10.00">QtCore</text>
</g>
<!-- Node4&#45;&gt;Node7 -->
<g id="edge6" class="edge"><title>Node4&#45;&gt;Node7</title>
<path fill="none" stroke="midnightblue" d="M893.898,-336.149C892.672,-323.213 891.821,-298.658 900,-280 916.047,-243.395 951.107,-211.601 973.579,-193.897"/>
<polygon fill="midnightblue" stroke="midnightblue" points="975.976,-196.47 981.789,-187.613 971.721,-190.912 975.976,-196.47"/>
</g>
<!-- Node8 -->
<g id="node8" class="node"><title>Node8</title>
<polygon fill="white" stroke="#bfbfbf" points="942,-280.5 942,-299.5 984,-299.5 984,-280.5 942,-280.5"/>
<text text-anchor="middle" x="963" y="-287.5" font-family="Helvetica,sans-Serif" font-size="10.00">vector</text>
</g>
<!-- Node4&#45;&gt;Node8 -->
<g id="edge7" class="edge"><title>Node4&#45;&gt;Node8</title>
<path fill="none" stroke="midnightblue" d="M905.925,-336.324C916.175,-328.185 931.721,-315.839 944.001,-306.087"/>
<polygon fill="midnightblue" stroke="midnightblue" points="946.221,-308.794 951.876,-299.834 941.868,-303.312 946.221,-308.794"/>
</g>
<!-- Node9 -->
<g id="node9" class="node"><title>Node9</title>
<polygon fill="white" stroke="#bfbfbf" points="1002.5,-280.5 1002.5,-299.5 1055.5,-299.5 1055.5,-280.5 1002.5,-280.5"/>
<text text-anchor="middle" x="1029" y="-287.5" font-family="Helvetica,sans-Serif" font-size="10.00">QVector</text>
</g>
<!-- Node4&#45;&gt;Node9 -->
<g id="edge8" class="edge"><title>Node4&#45;&gt;Node9</title>
<path fill="none" stroke="midnightblue" d="M916.233,-336.444C938.384,-327.517 973.319,-313.439 998.436,-303.317"/>
<polygon fill="midnightblue" stroke="midnightblue" points="999.9,-306.501 1007.87,-299.516 997.283,-300.008 999.9,-306.501"/>
</g>
<!-- Node10 -->
<g id="node10" class="node"><title>Node10</title>
<polygon fill="white" stroke="#bfbfbf" points="969,-112.5 969,-131.5 1043,-131.5 1043,-112.5 969,-112.5"/>
<text text-anchor="middle" x="1006" y="-119.5" font-family="Helvetica,sans-Serif" font-size="10.00">QVariantMap</text>
</g>
<!-- Node4&#45;&gt;Node10 -->
<g id="edge9" class="edge"><title>Node4&#45;&gt;Node10</title>
<path fill="none" stroke="midnightblue" d="M923.545,-341.579C967.119,-335.705 1046.98,-322.148 1064,-300 1079.06,-280.41 1138.72,-328.547 1060,-168 1053.73,-155.204 1041.94,-144.718 1030.97,-137.097"/>
<polygon fill="midnightblue" stroke="midnightblue" points="1032.78,-134.096 1022.48,-131.611 1028.98,-139.976 1032.78,-134.096"/>
</g>
<!-- Node11 -->
<g id="node11" class="node"><title>Node11</title>
<polygon fill="white" stroke="#bfbfbf" points="668,-0.5 668,-19.5 722,-19.5 722,-0.5 668,-0.5"/>
<text text-anchor="middle" x="695" y="-7.5" font-family="Helvetica,sans-Serif" font-size="10.00">iostream</text>
</g>
<!-- Node4&#45;&gt;Node11 -->
<g id="edge10" class="edge"><title>Node4&#45;&gt;Node11</title>
<path fill="none" stroke="midnightblue" d="M923.581,-345.14C997.376,-344.913 1191.82,-340.405 1239,-300 1261.86,-280.421 1258,-265.098 1258,-235 1258,-235 1258,-235 1258,-121 1258,-13.5845 858.257,-9.0892 732.441,-10.3346"/>
<polygon fill="midnightblue" stroke="midnightblue" points="732.113,-6.83811 722.155,-10.4557 732.195,-13.8376 732.113,-6.83811"/>
</g>
<!-- Node12 -->
<g id="node12" class="node"><title>Node12</title>
<polygon fill="white" stroke="#bfbfbf" points="1150,-280.5 1150,-299.5 1230,-299.5 1230,-280.5 1150,-280.5"/>
<text text-anchor="middle" x="1190" y="-287.5" font-family="Helvetica,sans-Serif" font-size="10.00">QMainWindow</text>
</g>
<!-- Node4&#45;&gt;Node12 -->
<g id="edge11" class="edge"><title>Node4&#45;&gt;Node12</title>
<path fill="none" stroke="midnightblue" d="M923.554,-339.773C973.549,-330.622 1077.53,-311.588 1139.78,-300.193"/>
<polygon fill="midnightblue" stroke="midnightblue" points="1140.57,-303.607 1149.77,-298.364 1139.31,-296.722 1140.57,-303.607"/>
</g>
<!-- Node13 -->
<g id="node13" class="node"><title>Node13</title>
<polygon fill="white" stroke="#bfbfbf" points="817.5,-56.5 817.5,-75.5 870.5,-75.5 870.5,-56.5 817.5,-56.5"/>
<text text-anchor="middle" x="844" y="-63.5" font-family="Helvetica,sans-Serif" font-size="10.00">QObject</text>
</g>
<!-- Node4&#45;&gt;Node13 -->
<g id="edge12" class="edge"><title>Node4&#45;&gt;Node13</title>
<path fill="none" stroke="midnightblue" d="M923.592,-342.543C973.389,-337.65 1072.94,-324.944 1096,-300 1119.06,-275.061 1111.32,-257.165 1104,-224 1092.17,-170.41 1094.86,-146.278 1052,-112 1025.95,-91.1668 933.174,-77.3355 880.756,-70.9928"/>
<polygon fill="midnightblue" stroke="midnightblue" points="880.873,-67.4824 870.532,-69.7887 880.054,-74.4344 880.873,-67.4824"/>
</g>
<!-- Node14 -->
<g id="node14" class="node"><title>Node14</title>
<g id="a_node14"><a xlink:href="../../d4/dca/_roomba_connect_8h.xhtml" target="_top" xlink:title="RoombaConnect.h">
<polygon fill="white" stroke="black" points="519.5,-224.5 519.5,-243.5 616.5,-243.5 616.5,-224.5 519.5,-224.5"/>
<text text-anchor="middle" x="568" y="-231.5" font-family="Helvetica,sans-Serif" font-size="10.00">RoombaConnect.h</text>
</a>
</g>
</g>
<!-- Node4&#45;&gt;Node14 -->
<g id="edge13" class="edge"><title>Node4&#45;&gt;Node14</title>
<path fill="none" stroke="midnightblue" d="M869.613,-336.46C811.664,-316.966 669.546,-269.159 603.194,-246.839"/>
<polygon fill="midnightblue" stroke="midnightblue" points="604.19,-243.481 593.596,-243.61 601.958,-250.116 604.19,-243.481"/>
</g>
<!-- Node28 -->
<g id="node28" class="node"><title>Node28</title>
<g id="a_node28"><a xlink:href="../../da/d4b/controllingroomba_8h.xhtml" target="_top" xlink:title="controllingroomba.h">
<polygon fill="white" stroke="black" points="290.5,-280.5 290.5,-299.5 391.5,-299.5 391.5,-280.5 290.5,-280.5"/>
<text text-anchor="middle" x="341" y="-287.5" font-family="Helvetica,sans-Serif" font-size="10.00">controllingroomba.h</text>
</a>
</g>
</g>
<!-- Node4&#45;&gt;Node28 -->
<g id="edge44" class="edge"><title>Node4&#45;&gt;Node28</title>
<path fill="none" stroke="midnightblue" d="M866.386,-342.668C791.612,-336.501 584.239,-318.935 412,-300 408.727,-299.64 405.371,-299.258 401.984,-298.863"/>
<polygon fill="midnightblue" stroke="midnightblue" points="402.127,-295.355 391.782,-297.645 401.297,-302.306 402.127,-295.355"/>
</g>
<!-- Node27 -->
<g id="node27" class="node"><title>Node27</title>
<g id="a_node27"><a xlink:href="../../d4/d25/sensordata_8h.xhtml" target="_top" xlink:title="sensordata.h">
<polygon fill="white" stroke="black" points="104.5,-168.5 104.5,-187.5 177.5,-187.5 177.5,-168.5 104.5,-168.5"/>
<text text-anchor="middle" x="141" y="-175.5" font-family="Helvetica,sans-Serif" font-size="10.00">sensordata.h</text>
</a>
</g>
</g>
<!-- Node4&#45;&gt;Node27 -->
<g id="edge54" class="edge"><title>Node4&#45;&gt;Node27</title>
<path fill="none" stroke="midnightblue" d="M866.351,-344.19C738.347,-340.447 222.075,-323.977 154,-300 113.407,-285.702 94.7622,-282.232 75,-244 63.9014,-222.528 88.5822,-203.865 110.857,-192.113"/>
<polygon fill="midnightblue" stroke="midnightblue" points="112.426,-195.241 119.827,-187.659 109.314,-188.971 112.426,-195.241"/>
</g>
<!-- Node23 -->
<g id="node23" class="node"><title>Node23</title>
<g id="a_node23"><a xlink:href="../../dc/d96/jsoncommand_8h.xhtml" target="_top" xlink:title="../resources/jsoncommand.h">
<polygon fill="white" stroke="black" points="774,-168.5 774,-187.5 914,-187.5 914,-168.5 774,-168.5"/>
<text text-anchor="middle" x="844" y="-175.5" font-family="Helvetica,sans-Serif" font-size="10.00">../resources/jsoncommand.h</text>
</a>
</g>
</g>
<!-- Node4&#45;&gt;Node23 -->
<g id="edge55" class="edge"><title>Node4&#45;&gt;Node23</title>
<path fill="none" stroke="midnightblue" d="M886.754,-336.489C879.028,-327.98 867.823,-314.156 862,-300 847.912,-265.748 844.665,-222.015 844.026,-197.61"/>
<polygon fill="midnightblue" stroke="midnightblue" points="847.526,-197.534 843.887,-187.584 840.526,-197.632 847.526,-197.534"/>
</g>
<!-- Node24 -->
<g id="node24" class="node"><title>Node24</title>
<g id="a_node24"><a xlink:href="../../d4/d05/json_8h.xhtml" target="_top" xlink:title="json.h">
<polygon fill="white" stroke="black" points="322.5,-112.5 322.5,-131.5 365.5,-131.5 365.5,-112.5 322.5,-112.5"/>
<text text-anchor="middle" x="344" y="-119.5" font-family="Helvetica,sans-Serif" font-size="10.00">json.h</text>
</a>
</g>
</g>
<!-- Node4&#45;&gt;Node24 -->
<g id="edge56" class="edge"><title>Node4&#45;&gt;Node24</title>
<path fill="none" stroke="midnightblue" d="M866.299,-338.998C827.986,-330.851 758.093,-315.522 699,-300 617.967,-278.715 388.167,-255.838 339,-188 329.261,-174.563 332.319,-155.195 336.709,-141.098"/>
<polygon fill="midnightblue" stroke="midnightblue" points="340.058,-142.126 340.136,-131.531 333.468,-139.765 340.058,-142.126"/>
</g>
<!-- Node18 -->
<g id="node18" class="node"><title>Node18</title>
<g id="a_node18"><a xlink:href="../../d7/d62/clslog_8h.xhtml" target="_top" xlink:title="../resources/clslog.h">
<polygon fill="white" stroke="black" points="90.5,-56.5 90.5,-75.5 195.5,-75.5 195.5,-56.5 90.5,-56.5"/>
<text text-anchor="middle" x="143" y="-63.5" font-family="Helvetica,sans-Serif" font-size="10.00">../resources/clslog.h</text>
</a>
</g>
</g>
<!-- Node4&#45;&gt;Node18 -->
<g id="edge57" class="edge"><title>Node4&#45;&gt;Node18</title>
<path fill="none" stroke="midnightblue" d="M866.179,-344.228C732.452,-340.528 175.821,-323.812 102,-300 50.8399,-283.498 0,-288.756 0,-235 0,-235 0,-235 0,-177 0,-124.84 60.5107,-93.9938 102.808,-78.8035"/>
<polygon fill="midnightblue" stroke="midnightblue" points="104.002,-82.0941 112.323,-75.536 101.728,-75.4735 104.002,-82.0941"/>
</g>
<!-- Node26 -->
<g id="node26" class="node"><title>Node26</title>
<g id="a_node26"><a xlink:href="../../db/d97/clsevent_8h.xhtml" target="_top" xlink:title="../resources/clsevent.h">
<polygon fill="white" stroke="black" points="186.5,-112.5 186.5,-131.5 301.5,-131.5 301.5,-112.5 186.5,-112.5"/>
<text text-anchor="middle" x="244" y="-119.5" font-family="Helvetica,sans-Serif" font-size="10.00">../resources/clsevent.h</text>
</a>
</g>
</g>
<!-- Node4&#45;&gt;Node26 -->
<g id="edge58" class="edge"><title>Node4&#45;&gt;Node26</title>
<path fill="none" stroke="midnightblue" d="M866.223,-344.86C750.854,-344.036 325.863,-338.4 281,-300 234.73,-260.396 237.34,-179.167 241.318,-142.146"/>
<polygon fill="midnightblue" stroke="midnightblue" points="244.845,-142.142 242.597,-131.789 237.898,-141.284 244.845,-142.142"/>
</g>
<!-- Node14&#45;&gt;Node6 -->
<g id="edge14" class="edge"><title>Node14&#45;&gt;Node6</title>
<path fill="none" stroke="midnightblue" d="M616.715,-228.992C700.195,-221.764 867.006,-205.646 923,-188 941.203,-182.264 943.657,-175.966 961,-168 1000.52,-149.845 1020.28,-161.763 1052,-132 1082.37,-103.497 1098.17,-55.5315 1104.9,-29.3711"/>
<polygon fill="midnightblue" stroke="midnightblue" points="1108.31,-30.1562 1107.25,-19.6149 1101.51,-28.5188 1108.31,-30.1562"/>
</g>
<!-- Node14&#45;&gt;Node7 -->
<g id="edge15" class="edge"><title>Node14&#45;&gt;Node7</title>
<path fill="none" stroke="midnightblue" d="M616.655,-229.199C690.414,-223.022 834.779,-209.309 956,-188 957.461,-187.743 958.949,-187.465 960.45,-187.17"/>
<polygon fill="midnightblue" stroke="midnightblue" points="961.325,-190.562 970.372,-185.048 959.861,-183.717 961.325,-190.562"/>
</g>
<!-- Node14&#45;&gt;Node13 -->
<g id="edge16" class="edge"><title>Node14&#45;&gt;Node13</title>
<path fill="none" stroke="midnightblue" d="M607.023,-224.42C647.235,-215.147 706.811,-200.075 727,-188 773.213,-160.361 813.518,-109.817 832.476,-83.6643"/>
<polygon fill="midnightblue" stroke="midnightblue" points="835.331,-85.6886 838.266,-75.5084 829.623,-81.6365 835.331,-85.6886"/>
</g>
<!-- Node15 -->
<g id="node15" class="node"><title>Node15</title>
<polygon fill="white" stroke="#bfbfbf" points="348.5,-168.5 348.5,-187.5 419.5,-187.5 419.5,-168.5 348.5,-168.5"/>
<text text-anchor="middle" x="384" y="-175.5" font-family="Helvetica,sans-Serif" font-size="10.00">QTcpSocket</text>
</g>
<!-- Node14&#45;&gt;Node15 -->
<g id="edge17" class="edge"><title>Node14&#45;&gt;Node15</title>
<path fill="none" stroke="midnightblue" d="M538.845,-224.444C507.487,-215.241 457.469,-200.562 422.803,-190.388"/>
<polygon fill="midnightblue" stroke="midnightblue" points="423.6,-186.974 413.019,-187.516 421.629,-193.691 423.6,-186.974"/>
</g>
<!-- Node16 -->
<g id="node16" class="node"><title>Node16</title>
<polygon fill="white" stroke="#bfbfbf" points="514,-168.5 514,-187.5 588,-187.5 588,-168.5 514,-168.5"/>
<text text-anchor="middle" x="551" y="-175.5" font-family="Helvetica,sans-Serif" font-size="10.00">QTextStream</text>
</g>
<!-- Node14&#45;&gt;Node16 -->
<g id="edge18" class="edge"><title>Node14&#45;&gt;Node16</title>
<path fill="none" stroke="midnightblue" d="M565.193,-224.083C562.915,-216.849 559.629,-206.409 556.792,-197.397"/>
<polygon fill="midnightblue" stroke="midnightblue" points="560.096,-196.239 553.755,-187.751 553.419,-198.341 560.096,-196.239"/>
</g>
<!-- Node17 -->
<g id="node17" class="node"><title>Node17</title>
<polygon fill="white" stroke="#bfbfbf" points="606.5,-168.5 606.5,-187.5 651.5,-187.5 651.5,-168.5 606.5,-168.5"/>
<text text-anchor="middle" x="629" y="-175.5" font-family="Helvetica,sans-Serif" font-size="10.00">QTime</text>
</g>
<!-- Node14&#45;&gt;Node17 -->
<g id="edge19" class="edge"><title>Node14&#45;&gt;Node17</title>
<path fill="none" stroke="midnightblue" d="M577.801,-224.324C586.818,-216.341 600.406,-204.313 611.318,-194.653"/>
<polygon fill="midnightblue" stroke="midnightblue" points="613.853,-197.083 619.021,-187.834 609.213,-191.842 613.853,-197.083"/>
</g>
<!-- Node14&#45;&gt;Node18 -->
<g id="edge20" class="edge"><title>Node14&#45;&gt;Node18</title>
<path fill="none" stroke="midnightblue" d="M519.132,-230.11C401.109,-222.898 109.152,-203.562 95,-188 67.0115,-157.222 104.091,-108.144 127.135,-82.9974"/>
<polygon fill="midnightblue" stroke="midnightblue" points="129.687,-85.3936 134.024,-75.7272 124.605,-80.5791 129.687,-85.3936"/>
</g>
<!-- Node22 -->
<g id="node22" class="node"><title>Node22</title>
<polygon fill="white" stroke="#bfbfbf" points="670,-168.5 670,-187.5 718,-187.5 718,-168.5 670,-168.5"/>
<text text-anchor="middle" x="694" y="-175.5" font-family="Helvetica,sans-Serif" font-size="10.00">QTimer</text>
</g>
<!-- Node14&#45;&gt;Node22 -->
<g id="edge26" class="edge"><title>Node14&#45;&gt;Node22</title>
<path fill="none" stroke="midnightblue" d="M587.965,-224.444C608.609,-215.596 641.063,-201.687 664.632,-191.586"/>
<polygon fill="midnightblue" stroke="midnightblue" points="666.316,-194.673 674.128,-187.516 663.558,-188.239 666.316,-194.673"/>
</g>
<!-- Node14&#45;&gt;Node23 -->
<g id="edge27" class="edge"><title>Node14&#45;&gt;Node23</title>
<path fill="none" stroke="midnightblue" d="M611.733,-224.444C660.183,-214.964 738.329,-199.675 790.418,-189.483"/>
<polygon fill="midnightblue" stroke="midnightblue" points="791.33,-192.871 800.472,-187.516 789.986,-186.002 791.33,-192.871"/>
</g>
<!-- Node14&#45;&gt;Node24 -->
<g id="edge34" class="edge"><title>Node14&#45;&gt;Node24</title>
<path fill="none" stroke="midnightblue" d="M555.705,-224.412C536.382,-211.161 497.447,-185.439 462,-168 433.597,-154.026 399.7,-141.502 375.539,-133.236"/>
<polygon fill="midnightblue" stroke="midnightblue" points="376.42,-129.839 365.825,-129.962 374.184,-136.472 376.42,-129.839"/>
</g>
<!-- Node14&#45;&gt;Node26 -->
<g id="edge35" class="edge"><title>Node14&#45;&gt;Node26</title>
<path fill="none" stroke="midnightblue" d="M545.281,-224.351C523.55,-215.846 490.033,-202.12 462,-188 446.342,-180.113 444.243,-174.597 428,-168 388.731,-152.051 342.365,-140.755 306.001,-133.47"/>
<polygon fill="midnightblue" stroke="midnightblue" points="306.51,-130.003 296.024,-131.521 305.168,-136.873 306.51,-130.003"/>
</g>
<!-- Node14&#45;&gt;Node27 -->
<g id="edge41" class="edge"><title>Node14&#45;&gt;Node27</title>
<path fill="none" stroke="midnightblue" d="M519.433,-226.858C436.633,-216.387 269.21,-195.214 187.7,-184.906"/>
<polygon fill="midnightblue" stroke="midnightblue" points="188.087,-181.427 177.727,-183.645 187.209,-188.372 188.087,-181.427"/>
</g>
<!-- Node18&#45;&gt;Node6 -->
<g id="edge21" class="edge"><title>Node18&#45;&gt;Node6</title>
<path fill="none" stroke="midnightblue" d="M195.533,-56.9197C198.394,-56.5826 201.23,-56.2726 204,-56 540.232,-22.915 949.263,-13.6708 1072.3,-11.5512"/>
<polygon fill="midnightblue" stroke="midnightblue" points="1072.71,-15.045 1082.65,-11.3783 1072.59,-8.04596 1072.71,-15.045"/>
</g>
<!-- Node19 -->
<g id="node19" class="node"><title>Node19</title>
<polygon fill="white" stroke="#bfbfbf" points="241.5,-0.5 241.5,-19.5 306.5,-19.5 306.5,-0.5 241.5,-0.5"/>
<text text-anchor="middle" x="274" y="-7.5" font-family="Helvetica,sans-Serif" font-size="10.00">QDateTime</text>
</g>
<!-- Node18&#45;&gt;Node19 -->
<g id="edge22" class="edge"><title>Node18&#45;&gt;Node19</title>
<path fill="none" stroke="midnightblue" d="M163.757,-56.4435C185.316,-47.5566 219.263,-33.5632 243.794,-23.4514"/>
<polygon fill="midnightblue" stroke="midnightblue" points="245.428,-26.5634 253.34,-19.5164 242.761,-20.0917 245.428,-26.5634"/>
</g>
<!-- Node20 -->
<g id="node20" class="node"><title>Node20</title>
<polygon fill="white" stroke="#bfbfbf" points="158.5,-0.5 158.5,-19.5 199.5,-19.5 199.5,-0.5 158.5,-0.5"/>
<text text-anchor="middle" x="179" y="-7.5" font-family="Helvetica,sans-Serif" font-size="10.00">string</text>
</g>
<!-- Node18&#45;&gt;Node20 -->
<g id="edge23" class="edge"><title>Node18&#45;&gt;Node20</title>
<path fill="none" stroke="midnightblue" d="M148.945,-56.083C153.977,-48.5341 161.337,-37.4948 167.513,-28.2298"/>
<polygon fill="midnightblue" stroke="midnightblue" points="170.531,-30.0131 173.166,-19.7511 164.707,-26.1301 170.531,-30.0131"/>
</g>
<!-- Node18&#45;&gt;Node11 -->
<g id="edge24" class="edge"><title>Node18&#45;&gt;Node11</title>
<path fill="none" stroke="midnightblue" d="M195.548,-57.0594C198.405,-56.6863 201.236,-56.3303 204,-56 372.96,-35.8087 575.579,-19.8414 657.706,-13.7128"/>
<polygon fill="midnightblue" stroke="midnightblue" points="658.085,-17.1944 667.799,-12.964 657.567,-10.2136 658.085,-17.1944"/>
</g>
<!-- Node21 -->
<g id="node21" class="node"><title>Node21</title>
<polygon fill="white" stroke="#bfbfbf" points="75.5,-0.5 75.5,-19.5 140.5,-19.5 140.5,-0.5 75.5,-0.5"/>
<text text-anchor="middle" x="108" y="-7.5" font-family="Helvetica,sans-Serif" font-size="10.00">QStringList</text>
</g>
<!-- Node18&#45;&gt;Node21 -->
<g id="edge25" class="edge"><title>Node18&#45;&gt;Node21</title>
<path fill="none" stroke="midnightblue" d="M137.22,-56.083C132.328,-48.5341 125.173,-37.4948 119.167,-28.2298"/>
<polygon fill="midnightblue" stroke="midnightblue" points="122.048,-26.239 113.672,-19.7511 116.174,-30.0463 122.048,-26.239"/>
</g>
<!-- Node23&#45;&gt;Node13 -->
<g id="edge28" class="edge"><title>Node23&#45;&gt;Node13</title>
<path fill="none" stroke="midnightblue" d="M844,-168.368C844,-150.617 844,-109.666 844,-85.5974"/>
<polygon fill="midnightblue" stroke="midnightblue" points="847.5,-85.5914 844,-75.5914 840.5,-85.5915 847.5,-85.5914"/>
</g>
<!-- Node23&#45;&gt;Node10 -->
<g id="edge29" class="edge"><title>Node23&#45;&gt;Node10</title>
<path fill="none" stroke="midnightblue" d="M869.669,-168.444C896.923,-159.359 940.184,-144.939 970.651,-134.783"/>
<polygon fill="midnightblue" stroke="midnightblue" points="972.071,-137.999 980.451,-131.516 969.857,-131.358 972.071,-137.999"/>
</g>
<!-- Node23&#45;&gt;Node24 -->
<g id="edge30" class="edge"><title>Node23&#45;&gt;Node24</title>
<path fill="none" stroke="midnightblue" d="M773.951,-169.435C664.087,-157.569 455.592,-135.052 375.986,-126.454"/>
<polygon fill="midnightblue" stroke="midnightblue" points="375.95,-122.93 365.632,-125.336 375.199,-129.89 375.95,-122.93"/>
</g>
<!-- Node23&#45;&gt;Node18 -->
<g id="edge33" class="edge"><title>Node23&#45;&gt;Node18</title>
<path fill="none" stroke="midnightblue" d="M789.577,-168.46C661.662,-148.388 342.438,-98.2955 206.217,-76.9199"/>
<polygon fill="midnightblue" stroke="midnightblue" points="206.371,-73.4013 195.949,-75.3087 205.286,-80.3167 206.371,-73.4013"/>
</g>
<!-- Node25 -->
<g id="node25" class="node"><title>Node25</title>
<polygon fill="white" stroke="#bfbfbf" points="213.5,-56.5 213.5,-75.5 268.5,-75.5 268.5,-56.5 213.5,-56.5"/>
<text text-anchor="middle" x="241" y="-63.5" font-family="Helvetica,sans-Serif" font-size="10.00">QVariant</text>
</g>
<!-- Node24&#45;&gt;Node25 -->
<g id="edge31" class="edge"><title>Node24&#45;&gt;Node25</title>
<path fill="none" stroke="midnightblue" d="M327.451,-112.324C311.008,-103.703 285.565,-90.3643 266.532,-80.3855"/>
<polygon fill="midnightblue" stroke="midnightblue" points="267.989,-77.198 257.508,-75.6545 264.739,-83.3977 267.989,-77.198"/>
</g>
<!-- Node24&#45;&gt;Node5 -->
<g id="edge32" class="edge"><title>Node24&#45;&gt;Node5</title>
<path fill="none" stroke="midnightblue" d="M344.991,-112.083C345.786,-104.927 346.929,-94.6353 347.923,-85.6911"/>
<polygon fill="midnightblue" stroke="midnightblue" points="351.402,-86.0765 349.028,-75.7511 344.445,-85.3034 351.402,-86.0765"/>
</g>
<!-- Node26&#45;&gt;Node13 -->
<g id="edge36" class="edge"><title>Node26&#45;&gt;Node13</title>
<path fill="none" stroke="midnightblue" d="M301.581,-113.292C305.443,-112.836 309.276,-112.4 313,-112 498.439,-92.0588 721.1,-75.619 807.368,-69.5317"/>
<polygon fill="midnightblue" stroke="midnightblue" points="807.708,-73.0165 817.439,-68.8246 807.218,-66.0337 807.708,-73.0165"/>
</g>
<!-- Node26&#45;&gt;Node5 -->
<g id="edge37" class="edge"><title>Node26&#45;&gt;Node5</title>
<path fill="none" stroke="midnightblue" d="M261.031,-112.324C278.03,-103.664 304.376,-90.2424 323.993,-80.249"/>
<polygon fill="midnightblue" stroke="midnightblue" points="325.69,-83.3125 333.012,-75.6545 322.512,-77.0752 325.69,-83.3125"/>
</g>
<!-- Node26&#45;&gt;Node25 -->
<g id="edge38" class="edge"><title>Node26&#45;&gt;Node25</title>
<path fill="none" stroke="midnightblue" d="M243.505,-112.083C243.111,-105.006 242.548,-94.8611 242.055,-85.9865"/>
<polygon fill="midnightblue" stroke="midnightblue" points="245.536,-85.5415 241.486,-75.7511 238.546,-85.9299 245.536,-85.5415"/>
</g>
<!-- Node26&#45;&gt;Node19 -->
<g id="edge39" class="edge"><title>Node26&#45;&gt;Node19</title>
<path fill="none" stroke="midnightblue" d="M253.02,-112.34C261.072,-103.932 272.298,-90.3633 277,-76 281.943,-60.9024 280.55,-42.7779 278.29,-29.5076"/>
<polygon fill="midnightblue" stroke="midnightblue" points="281.716,-28.7866 276.309,-19.6752 274.854,-30.1696 281.716,-28.7866"/>
</g>
<!-- Node26&#45;&gt;Node18 -->
<g id="edge40" class="edge"><title>Node26&#45;&gt;Node18</title>
<path fill="none" stroke="midnightblue" d="M227.773,-112.324C211.649,-103.703 186.7,-90.3643 168.036,-80.3855"/>
<polygon fill="midnightblue" stroke="midnightblue" points="169.656,-77.283 159.187,-75.6545 166.356,-83.456 169.656,-77.283"/>
</g>
<!-- Node27&#45;&gt;Node26 -->
<g id="edge42" class="edge"><title>Node27&#45;&gt;Node26</title>
<path fill="none" stroke="midnightblue" d="M157.549,-168.324C173.992,-159.703 199.435,-146.364 218.468,-136.386"/>
<polygon fill="midnightblue" stroke="midnightblue" points="220.261,-139.398 227.492,-131.655 217.011,-133.198 220.261,-139.398"/>
</g>
<!-- Node27&#45;&gt;Node25 -->
<g id="edge43" class="edge"><title>Node27&#45;&gt;Node25</title>
<path fill="none" stroke="midnightblue" d="M144.352,-168.224C149.734,-154.95 161.31,-129.466 177,-112 188.102,-99.641 203.205,-88.8194 215.952,-80.8873"/>
<polygon fill="midnightblue" stroke="midnightblue" points="217.939,-83.7773 224.726,-75.6416 214.347,-77.7692 217.939,-83.7773"/>
</g>
<!-- Node28&#45;&gt;Node24 -->
<g id="edge45" class="edge"><title>Node28&#45;&gt;Node24</title>
<path fill="none" stroke="midnightblue" d="M349.628,-280.255C361.167,-267.453 378.974,-243.062 368,-224 352.102,-196.385 321.898,-215.615 306,-188 296.241,-171.049 310.873,-151.707 324.717,-138.56"/>
<polygon fill="midnightblue" stroke="midnightblue" points="327.414,-140.847 332.586,-131.6 322.777,-135.604 327.414,-140.847"/>
</g>
<!-- Node28&#45;&gt;Node23 -->
<g id="edge46" class="edge"><title>Node28&#45;&gt;Node23</title>
<path fill="none" stroke="midnightblue" d="M391.656,-283.016C448.76,-275.798 544.181,-262.313 625,-244 691.067,-229.029 766.466,-205.1 809.332,-190.831"/>
<polygon fill="midnightblue" stroke="midnightblue" points="810.622,-194.09 818.993,-187.595 808.399,-187.452 810.622,-194.09"/>
</g>
<!-- Node28&#45;&gt;Node14 -->
<g id="edge47" class="edge"><title>Node28&#45;&gt;Node14</title>
<path fill="none" stroke="midnightblue" d="M376.969,-280.444C416.319,-271.083 479.487,-256.056 522.314,-245.868"/>
<polygon fill="midnightblue" stroke="midnightblue" points="523.281,-249.236 532.199,-243.516 521.661,-242.426 523.281,-249.236"/>
</g>
<!-- Node28&#45;&gt;Node18 -->
<g id="edge48" class="edge"><title>Node28&#45;&gt;Node18</title>
<path fill="none" stroke="midnightblue" d="M314.07,-280.406C250.581,-259.882 95.8198,-208.223 82,-188 73.2147,-175.144 74.6455,-138.263 89,-112 95.8813,-99.4101 107.832,-88.8929 118.744,-81.2001"/>
<polygon fill="midnightblue" stroke="midnightblue" points="120.736,-84.0788 127.155,-75.6504 116.881,-78.2359 120.736,-84.0788"/>
</g>
<!-- Node28&#45;&gt;Node26 -->
<g id="edge49" class="edge"><title>Node28&#45;&gt;Node26</title>
<path fill="none" stroke="midnightblue" d="M329.64,-280.425C319.221,-272.077 303.943,-258.55 294,-244 271.424,-210.964 256.253,-166.146 248.979,-141.371"/>
<polygon fill="midnightblue" stroke="midnightblue" points="252.281,-140.185 246.194,-131.513 245.545,-142.088 252.281,-140.185"/>
</g>
<!-- Node28&#45;&gt;Node3 -->
<g id="edge50" class="edge"><title>Node28&#45;&gt;Node3</title>
<path fill="none" stroke="midnightblue" d="M304.714,-280.444C262.332,-270.449 192.562,-253.997 149.616,-243.87"/>
<polygon fill="midnightblue" stroke="midnightblue" points="150.369,-240.452 139.832,-241.563 148.762,-247.265 150.369,-240.452"/>
</g>
<!-- Node28&#45;&gt;Node15 -->
<g id="edge51" class="edge"><title>Node28&#45;&gt;Node15</title>
<path fill="none" stroke="midnightblue" d="M329.028,-280.427C313.257,-268.039 288.867,-244.38 301,-224 310.096,-208.721 326.388,-198.31 342.144,-191.386"/>
<polygon fill="midnightblue" stroke="midnightblue" points="343.833,-194.479 351.815,-187.512 341.231,-187.981 343.833,-194.479"/>
</g>
<!-- Node29 -->
<g id="node29" class="node"><title>Node29</title>
<polygon fill="white" stroke="#bfbfbf" points="310.5,-224.5 310.5,-243.5 359.5,-243.5 359.5,-224.5 310.5,-224.5"/>
<text text-anchor="middle" x="335" y="-231.5" font-family="Helvetica,sans-Serif" font-size="10.00">QSlider</text>
</g>
<!-- Node28&#45;&gt;Node29 -->
<g id="edge52" class="edge"><title>Node28&#45;&gt;Node29</title>
<path fill="none" stroke="midnightblue" d="M340.009,-280.083C339.214,-272.927 338.071,-262.635 337.077,-253.691"/>
<polygon fill="midnightblue" stroke="midnightblue" points="340.555,-253.303 335.972,-243.751 333.598,-254.076 340.555,-253.303"/>
</g>
<!-- Node28&#45;&gt;Node7 -->
<g id="edge53" class="edge"><title>Node28&#45;&gt;Node7</title>
<path fill="none" stroke="midnightblue" d="M391.662,-283.217C457.401,-275.478 575.577,-260.77 676,-244 801.176,-223.097 832.012,-215.073 956,-188 957.449,-187.684 958.928,-187.356 960.421,-187.02"/>
<polygon fill="midnightblue" stroke="midnightblue" points="961.351,-190.398 970.313,-184.746 959.783,-183.576 961.351,-190.398"/>
</g>
<!-- Node31 -->
<g id="node31" class="node"><title>Node31</title>
<polygon fill="white" stroke="#bfbfbf" points="1446.5,-280.5 1446.5,-299.5 1535.5,-299.5 1535.5,-280.5 1446.5,-280.5"/>
<text text-anchor="middle" x="1491" y="-287.5" font-family="Helvetica,sans-Serif" font-size="10.00">QtCore/QVariant</text>
</g>
<!-- Node30&#45;&gt;Node31 -->
<g id="edge60" class="edge"><title>Node30&#45;&gt;Node31</title>
<path fill="none" stroke="midnightblue" d="M1755.25,-336.444C1698.19,-326.632 1604.95,-310.597 1545.84,-300.432"/>
<polygon fill="midnightblue" stroke="midnightblue" points="1546.39,-296.975 1535.94,-298.729 1545.2,-303.873 1546.39,-296.975"/>
</g>
<!-- Node32 -->
<g id="node32" class="node"><title>Node32</title>
<polygon fill="white" stroke="#bfbfbf" points="1553.5,-280.5 1553.5,-299.5 1654.5,-299.5 1654.5,-280.5 1553.5,-280.5"/>
<text text-anchor="middle" x="1604" y="-287.5" font-family="Helvetica,sans-Serif" font-size="10.00">QtWidgets/QAction</text>
</g>
<!-- Node30&#45;&gt;Node32 -->
<g id="edge61" class="edge"><title>Node30&#45;&gt;Node32</title>
<path fill="none" stroke="midnightblue" d="M1773.15,-336.444C1738.6,-327.162 1683.32,-312.309 1645.42,-302.127"/>
<polygon fill="midnightblue" stroke="midnightblue" points="1646.27,-298.731 1635.7,-299.516 1644.45,-305.491 1646.27,-298.731"/>
</g>
<!-- Node33 -->
<g id="node33" class="node"><title>Node33</title>
<polygon fill="white" stroke="#bfbfbf" points="1673,-280.5 1673,-299.5 1795,-299.5 1795,-280.5 1673,-280.5"/>
<text text-anchor="middle" x="1734" y="-287.5" font-family="Helvetica,sans-Serif" font-size="10.00">QtWidgets/QApplication</text>
</g>
<!-- Node30&#45;&gt;Node33 -->
<g id="edge62" class="edge"><title>Node30&#45;&gt;Node33</title>
<path fill="none" stroke="midnightblue" d="M1793.59,-336.324C1782.89,-328.185 1766.66,-315.839 1753.84,-306.087"/>
<polygon fill="midnightblue" stroke="midnightblue" points="1755.69,-303.102 1745.61,-299.834 1751.46,-308.673 1755.69,-303.102"/>
</g>
<!-- Node34 -->
<g id="node34" class="node"><title>Node34</title>
<polygon fill="white" stroke="#bfbfbf" points="1813,-280.5 1813,-299.5 1941,-299.5 1941,-280.5 1813,-280.5"/>
<text text-anchor="middle" x="1877" y="-287.5" font-family="Helvetica,sans-Serif" font-size="10.00">QtWidgets/QButtonGroup</text>
</g>
<!-- Node30&#45;&gt;Node34 -->
<g id="edge63" class="edge"><title>Node30&#45;&gt;Node34</title>
<path fill="none" stroke="midnightblue" d="M1816.57,-336.324C1827.42,-328.185 1843.88,-315.839 1856.88,-306.087"/>
<polygon fill="midnightblue" stroke="midnightblue" points="1859.32,-308.634 1865.22,-299.834 1855.12,-303.034 1859.32,-308.634"/>
</g>
<!-- Node35 -->
<g id="node35" class="node"><title>Node35</title>
<polygon fill="white" stroke="#bfbfbf" points="1959,-280.5 1959,-299.5 2091,-299.5 2091,-280.5 1959,-280.5"/>
<text text-anchor="middle" x="2025" y="-287.5" font-family="Helvetica,sans-Serif" font-size="10.00">QtWidgets/QDateTimeEdit</text>
</g>
<!-- Node30&#45;&gt;Node35 -->
<g id="edge64" class="edge"><title>Node30&#45;&gt;Node35</title>
<path fill="none" stroke="midnightblue" d="M1839.86,-336.444C1877.92,-327.102 1938.96,-312.119 1980.46,-301.933"/>
<polygon fill="midnightblue" stroke="midnightblue" points="1981.43,-305.299 1990.3,-299.516 1979.76,-298.501 1981.43,-305.299"/>
</g>
<!-- Node36 -->
<g id="node36" class="node"><title>Node36</title>
<polygon fill="white" stroke="#bfbfbf" points="2109.5,-280.5 2109.5,-299.5 2234.5,-299.5 2234.5,-280.5 2109.5,-280.5"/>
<text text-anchor="middle" x="2172" y="-287.5" font-family="Helvetica,sans-Serif" font-size="10.00">QtWidgets/QHeaderView</text>
</g>
<!-- Node30&#45;&gt;Node36 -->
<g id="edge65" class="edge"><title>Node30&#45;&gt;Node36</title>
<path fill="none" stroke="midnightblue" d="M1857.19,-337.32C1921.89,-327.801 2032.31,-311.553 2103.69,-301.05"/>
<polygon fill="midnightblue" stroke="midnightblue" points="2104.55,-304.463 2113.93,-299.544 2103.53,-297.537 2104.55,-304.463"/>
</g>
<!-- Node37 -->
<g id="node37" class="node"><title>Node37</title>
<polygon fill="white" stroke="#bfbfbf" points="2252.5,-280.5 2252.5,-299.5 2349.5,-299.5 2349.5,-280.5 2252.5,-280.5"/>
<text text-anchor="middle" x="2301" y="-287.5" font-family="Helvetica,sans-Serif" font-size="10.00">QtWidgets/QLabel</text>
</g>
<!-- Node30&#45;&gt;Node37 -->
<g id="edge66" class="edge"><title>Node30&#45;&gt;Node37</title>
<path fill="none" stroke="midnightblue" d="M1857.02,-340.53C1937.31,-333.439 2096.52,-318.614 2242.27,-300.031"/>
<polygon fill="midnightblue" stroke="midnightblue" points="2242.82,-303.49 2252.29,-298.745 2241.93,-296.546 2242.82,-303.49"/>
</g>
<!-- Node38 -->
<g id="node38" class="node"><title>Node38</title>
<polygon fill="white" stroke="#bfbfbf" points="2367.5,-280.5 2367.5,-299.5 2492.5,-299.5 2492.5,-280.5 2367.5,-280.5"/>
<text text-anchor="middle" x="2430" y="-287.5" font-family="Helvetica,sans-Serif" font-size="10.00">QtWidgets/QPushButton</text>
</g>
<!-- Node30&#45;&gt;Node38 -->
<g id="edge67" class="edge"><title>Node30&#45;&gt;Node38</title>
<path fill="none" stroke="midnightblue" d="M1857.3,-341.5C1953.8,-334.877 2166.62,-319.502 2356.99,-300.061"/>
<polygon fill="midnightblue" stroke="midnightblue" points="2357.6,-303.517 2367.19,-299.013 2356.88,-296.554 2357.6,-303.517"/>
</g>
<!-- Node39 -->
<g id="node39" class="node"><title>Node39</title>
<polygon fill="white" stroke="#bfbfbf" points="1324,-280.5 1324,-299.5 1428,-299.5 1428,-280.5 1324,-280.5"/>
<text text-anchor="middle" x="1376" y="-287.5" font-family="Helvetica,sans-Serif" font-size="10.00">QtWidgets/QWidget</text>
</g>
<!-- Node30&#45;&gt;Node39 -->
<g id="edge68" class="edge"><title>Node30&#45;&gt;Node39</title>
<path fill="none" stroke="midnightblue" d="M1752.84,-339.035C1683.43,-331.004 1556.6,-316.013 1438.2,-300.134"/>
<polygon fill="midnightblue" stroke="midnightblue" points="1438.61,-296.659 1428.23,-298.793 1437.68,-303.596 1438.61,-296.659"/>
</g>
</g>
</svg>
