<?xml version="1.0" encoding="UTF-8" standalone="no"?>
<!DOCTYPE svg PUBLIC "-//W3C//DTD SVG 1.1//EN"
 "http://www.w3.org/Graphics/SVG/1.1/DTD/svg11.dtd">
<!-- Generated by graphviz version 2.30.1 (20130214.1330)
 -->
<!-- Title: mainCapsule_Actor Pages: 1 -->
<svg width="198pt" height="154pt"
 viewBox="0.00 0.00 198.00 154.00" xmlns="http://www.w3.org/2000/svg" xmlns:xlink="http://www.w3.org/1999/xlink">
<g id="graph0" class="graph" transform="scale(1 1) rotate(0) translate(4 150)">
<title>mainCapsule_Actor</title>
<polygon fill="white" stroke="white" points="-4,5 -4,-150 195,-150 195,5 -4,5"/>
<!-- Node1 -->
<g id="node1" class="node"><title>Node1</title>
<polygon fill="#bfbfbf" stroke="black" points="9.5,-0.5 9.5,-19.5 110.5,-19.5 110.5,-0.5 9.5,-0.5"/>
<text text-anchor="middle" x="60" y="-7.5" font-family="Helvetica,sans-Serif" font-size="10.00">mainCapsule_Actor</text>
</g>
<!-- Node2 -->
<g id="node2" class="node"><title>Node2</title>
<polygon fill="white" stroke="#bfbfbf" points="0,-68.5 0,-87.5 52,-87.5 52,-68.5 0,-68.5"/>
<text text-anchor="middle" x="26" y="-75.5" font-family="Helvetica,sans-Serif" font-size="10.00">RTActor</text>
</g>
<!-- Node2&#45;&gt;Node1 -->
<g id="edge1" class="edge"><title>Node2&#45;&gt;Node1</title>
<path fill="none" stroke="midnightblue" d="M35.177,-59.1859C41.7367,-46.4523 50.2839,-29.8607 55.4455,-19.8411"/>
<polygon fill="midnightblue" stroke="midnightblue" points="31.9131,-57.879 30.4449,-68.3717 38.1359,-61.0848 31.9131,-57.879"/>
</g>
<!-- Node3 -->
<g id="node3" class="node"><title>Node3</title>
<g id="a_node3"><a xlink:href="../../de/d4e/classjson_protocol_1_1_conjugate.xhtml" target="_top" xlink:title="jsonProtocol::Conjugate">
<polygon fill="white" stroke="black" points="70,-68.5 70,-87.5 190,-87.5 190,-68.5 70,-68.5"/>
<text text-anchor="middle" x="130" y="-75.5" font-family="Helvetica,sans-Serif" font-size="10.00">jsonProtocol::Conjugate</text>
</a>
</g>
</g>
<!-- Node3&#45;&gt;Node1 -->
<g id="edge2" class="edge"><title>Node3&#45;&gt;Node1</title>
<path fill="none" stroke="#9a32cd" stroke-dasharray="5,2" d="M113.468,-61.4122C99.7163,-48.4468 80.6351,-30.4559 69.3769,-19.8411"/>
<polygon fill="#9a32cd" stroke="#9a32cd" points="111.172,-64.0581 120.849,-68.3717 115.974,-58.9649 111.172,-64.0581"/>
<text text-anchor="middle" x="111" y="-41.5" font-family="Helvetica,sans-Serif" font-size="10.00"> GUI</text>
</g>
<!-- Node4 -->
<g id="node4" class="node"><title>Node4</title>
<polygon fill="white" stroke="#bfbfbf" points="87.5,-126.5 87.5,-145.5 172.5,-145.5 172.5,-126.5 87.5,-126.5"/>
<text text-anchor="middle" x="130" y="-133.5" font-family="Helvetica,sans-Serif" font-size="10.00">RTRootProtocol</text>
</g>
<!-- Node4&#45;&gt;Node3 -->
<g id="edge3" class="edge"><title>Node4&#45;&gt;Node3</title>
<path fill="none" stroke="midnightblue" d="M130,-115.953C130,-106.287 130,-95.0312 130,-87.5052"/>
<polygon fill="midnightblue" stroke="midnightblue" points="126.5,-116.25 130,-126.25 133.5,-116.25 126.5,-116.25"/>
</g>
</g>
</svg>
