<?xml version="1.0" encoding="UTF-8" standalone="no"?>
<!DOCTYPE svg PUBLIC "-//W3C//DTD SVG 1.1//EN"
 "http://www.w3.org/Graphics/SVG/1.1/DTD/svg11.dtd">
<!-- Generated by graphviz version 2.30.1 (20130214.1330)
 -->
<!-- Title: Simulator.drawObjects.drawObject Pages: 1 -->
<svg width="302pt" height="108pt"
 viewBox="0.00 0.00 302.00 108.00" xmlns="http://www.w3.org/2000/svg" xmlns:xlink="http://www.w3.org/1999/xlink">
<g id="graph0" class="graph" transform="scale(1 1) rotate(0) translate(4 104)">
<title>Simulator.drawObjects.drawObject</title>
<polygon fill="white" stroke="white" points="-4,5 -4,-104 299,-104 299,5 -4,5"/>
<!-- Node1 -->
<g id="node1" class="node"><title>Node1</title>
<polygon fill="#bfbfbf" stroke="black" points="78,-69 78,-99 216,-99 216,-69 78,-69"/>
<text text-anchor="start" x="86" y="-87" font-family="Helvetica,sans-Serif" font-size="10.00">Simulator.drawObjects.draw</text>
<text text-anchor="middle" x="147" y="-76" font-family="Helvetica,sans-Serif" font-size="10.00">Object</text>
</g>
<!-- Node2 -->
<g id="node2" class="node"><title>Node2</title>
<g id="a_node2"><a xlink:href="../../d1/d07/class_simulator_1_1draw_objects_1_1draw_roomba.xhtml" target="_top" xlink:title="Simulator.drawObjects.draw\lRoomba">
<polygon fill="white" stroke="black" points="0,-1 0,-31 138,-31 138,-1 0,-1"/>
<text text-anchor="start" x="8" y="-19" font-family="Helvetica,sans-Serif" font-size="10.00">Simulator.drawObjects.draw</text>
<text text-anchor="middle" x="69" y="-8" font-family="Helvetica,sans-Serif" font-size="10.00">Roomba</text>
</a>
</g>
</g>
<!-- Node1&#45;&gt;Node2 -->
<g id="edge1" class="edge"><title>Node1&#45;&gt;Node2</title>
<path fill="none" stroke="midnightblue" d="M122.204,-62.0184C110.263,-51.9145 96.2641,-40.0696 85.6238,-31.0663"/>
<polygon fill="midnightblue" stroke="midnightblue" points="120.18,-64.8914 130.075,-68.679 124.702,-59.5477 120.18,-64.8914"/>
</g>
<!-- Node3 -->
<g id="node3" class="node"><title>Node3</title>
<g id="a_node3"><a xlink:href="../../de/d49/class_simulator_1_1draw_objects_1_1draw_table.xhtml" target="_top" xlink:title="Simulator.drawObjects.draw\lTable">
<polygon fill="white" stroke="black" points="156,-1 156,-31 294,-31 294,-1 156,-1"/>
<text text-anchor="start" x="164" y="-19" font-family="Helvetica,sans-Serif" font-size="10.00">Simulator.drawObjects.draw</text>
<text text-anchor="middle" x="225" y="-8" font-family="Helvetica,sans-Serif" font-size="10.00">Table</text>
</a>
</g>
</g>
<!-- Node1&#45;&gt;Node3 -->
<g id="edge2" class="edge"><title>Node1&#45;&gt;Node3</title>
<path fill="none" stroke="midnightblue" d="M171.796,-62.0184C183.737,-51.9145 197.736,-40.0696 208.376,-31.0663"/>
<polygon fill="midnightblue" stroke="midnightblue" points="169.298,-59.5477 163.925,-68.679 173.82,-64.8914 169.298,-59.5477"/>
</g>
</g>
</svg>
