<?xml version="1.0" encoding="UTF-8" standalone="no"?>
<!DOCTYPE svg PUBLIC "-//W3C//DTD SVG 1.1//EN"
 "http://www.w3.org/Graphics/SVG/1.1/DTD/svg11.dtd">
<!-- Generated by graphviz version 2.30.1 (20130214.1330)
 -->
<!-- Title: GUI/resources/json.h Pages: 1 -->
<svg width="1198pt" height="386pt"
 viewBox="0.00 0.00 1198.00 386.00" xmlns="http://www.w3.org/2000/svg" xmlns:xlink="http://www.w3.org/1999/xlink">
<g id="graph0" class="graph" transform="scale(1 1) rotate(0) translate(4 382)">
<title>GUI/resources/json.h</title>
<polygon fill="white" stroke="white" points="-4,5 -4,-382 1195,-382 1195,5 -4,5"/>
<!-- Node1 -->
<g id="node1" class="node"><title>Node1</title>
<polygon fill="#bfbfbf" stroke="black" points="547,-358.5 547,-377.5 655,-377.5 655,-358.5 547,-358.5"/>
<text text-anchor="middle" x="601" y="-365.5" font-family="Helvetica,sans-Serif" font-size="10.00">GUI/resources/json.h</text>
</g>
<!-- Node2 -->
<g id="node2" class="node"><title>Node2</title>
<g id="a_node2"><a xlink:href="../../da/d4b/controllingroomba_8h.xhtml" target="_top" xlink:title="GUI/Gui&#45;RoombaV1.0\l/controllingroomba.h">
<polygon fill="white" stroke="black" points="112,-162 112,-192 222,-192 222,-162 112,-162"/>
<text text-anchor="start" x="120" y="-180" font-family="Helvetica,sans-Serif" font-size="10.00">GUI/Gui&#45;RoombaV1.0</text>
<text text-anchor="middle" x="167" y="-169" font-family="Helvetica,sans-Serif" font-size="10.00">/controllingroomba.h</text>
</a>
</g>
</g>
<!-- Node1&#45;&gt;Node2 -->
<g id="edge1" class="edge"><title>Node1&#45;&gt;Node2</title>
<path fill="none" stroke="midnightblue" d="M565.477,-355.132C513.777,-337.508 415.122,-302.549 334,-266 282.01,-242.576 223.544,-210.34 191.423,-192.092"/>
<polygon fill="midnightblue" stroke="midnightblue" points="564.578,-358.522 575.172,-358.421 566.827,-351.894 564.578,-358.522"/>
</g>
<!-- Node14 -->
<g id="node14" class="node"><title>Node14</title>
<g id="a_node14"><a xlink:href="../../dc/d96/jsoncommand_8h.xhtml" target="_top" xlink:title="GUI/resources/jsoncommand.h">
<polygon fill="white" stroke="black" points="525.5,-302.5 525.5,-321.5 676.5,-321.5 676.5,-302.5 525.5,-302.5"/>
<text text-anchor="middle" x="601" y="-309.5" font-family="Helvetica,sans-Serif" font-size="10.00">GUI/resources/jsoncommand.h</text>
</a>
</g>
</g>
<!-- Node1&#45;&gt;Node14 -->
<g id="edge14" class="edge"><title>Node1&#45;&gt;Node14</title>
<path fill="none" stroke="midnightblue" d="M601,-347.805C601,-338.91 601,-328.78 601,-321.751"/>
<polygon fill="midnightblue" stroke="midnightblue" points="597.5,-348.083 601,-358.083 604.5,-348.083 597.5,-348.083"/>
</g>
<!-- Node15 -->
<g id="node15" class="node"><title>Node15</title>
<g id="a_node15"><a xlink:href="../../d4/dca/_roomba_connect_8h.xhtml" target="_top" xlink:title="GUI/Gui&#45;RoombaV1.0\l/RoombaConnect.h">
<polygon fill="white" stroke="black" points="442,-235 442,-265 552,-265 552,-235 442,-235"/>
<text text-anchor="start" x="450" y="-253" font-family="Helvetica,sans-Serif" font-size="10.00">GUI/Gui&#45;RoombaV1.0</text>
<text text-anchor="middle" x="497" y="-242" font-family="Helvetica,sans-Serif" font-size="10.00">/RoombaConnect.h</text>
</a>
</g>
</g>
<!-- Node1&#45;&gt;Node15 -->
<g id="edge25" class="edge"><title>Node1&#45;&gt;Node15</title>
<path fill="none" stroke="midnightblue" d="M562.73,-354.664C546.18,-347.537 527.915,-336.957 516,-322 502.802,-305.433 498.731,-280.498 497.5,-265.013"/>
<polygon fill="midnightblue" stroke="midnightblue" points="561.63,-357.994 572.215,-358.467 564.236,-351.497 561.63,-357.994"/>
</g>
<!-- Node4 -->
<g id="node4" class="node"><title>Node4</title>
<g id="a_node4"><a xlink:href="../../dd/da1/roomba_8h.xhtml" target="_top" xlink:title="GUI/Gui&#45;RoombaV1.0\l/roomba.h">
<polygon fill="white" stroke="black" points="581,-84 581,-114 691,-114 691,-84 581,-84"/>
<text text-anchor="start" x="589" y="-102" font-family="Helvetica,sans-Serif" font-size="10.00">GUI/Gui&#45;RoombaV1.0</text>
<text text-anchor="middle" x="636" y="-91" font-family="Helvetica,sans-Serif" font-size="10.00">/roomba.h</text>
</a>
</g>
</g>
<!-- Node1&#45;&gt;Node4 -->
<g id="edge26" class="edge"><title>Node1&#45;&gt;Node4</title>
<path fill="none" stroke="midnightblue" d="M661.592,-356.052C711.382,-343.536 778.912,-317.676 812,-266 838.364,-224.826 841.89,-195.442 813,-156 785.384,-118.298 732.268,-105.339 691.397,-101.19"/>
<polygon fill="midnightblue" stroke="midnightblue" points="660.48,-352.719 651.57,-358.453 662.111,-359.526 660.48,-352.719"/>
</g>
<!-- Node20 -->
<g id="node20" class="node"><title>Node20</title>
<g id="a_node20"><a xlink:href="../../dd/d55/json_8cpp.xhtml" target="_top" xlink:title="GUI/resources/json.cpp">
<polygon fill="white" stroke="black" points="874.5,-302.5 874.5,-321.5 993.5,-321.5 993.5,-302.5 874.5,-302.5"/>
<text text-anchor="middle" x="934" y="-309.5" font-family="Helvetica,sans-Serif" font-size="10.00">GUI/resources/json.cpp</text>
</a>
</g>
</g>
<!-- Node1&#45;&gt;Node20 -->
<g id="edge27" class="edge"><title>Node1&#45;&gt;Node20</title>
<path fill="none" stroke="midnightblue" d="M663.957,-356.791C726.88,-346.587 822.519,-331.078 881.482,-321.516"/>
<polygon fill="midnightblue" stroke="midnightblue" points="663.076,-353.388 653.765,-358.444 664.196,-360.298 663.076,-353.388"/>
</g>
<!-- Node3 -->
<g id="node3" class="node"><title>Node3</title>
<g id="a_node3"><a xlink:href="../../d2/d33/bin_2debug_2debug_2moc__controllingroomba_8cpp.xhtml" target="_top" xlink:title="GUI/bin/debug/debug\l/moc_controllingroomba.cpp">
<polygon fill="white" stroke="black" points="-0.5,-84 -0.5,-114 138.5,-114 138.5,-84 -0.5,-84"/>
<text text-anchor="start" x="7.5" y="-102" font-family="Helvetica,sans-Serif" font-size="10.00">GUI/bin/debug/debug</text>
<text text-anchor="middle" x="69" y="-91" font-family="Helvetica,sans-Serif" font-size="10.00">/moc_controllingroomba.cpp</text>
</a>
</g>
</g>
<!-- Node2&#45;&gt;Node3 -->
<g id="edge2" class="edge"><title>Node2&#45;&gt;Node3</title>
<path fill="none" stroke="midnightblue" d="M140.248,-155.253C123.459,-142.234 102.247,-125.784 87.3504,-114.231"/>
<polygon fill="midnightblue" stroke="midnightblue" points="138.52,-158.342 148.567,-161.705 142.81,-152.811 138.52,-158.342"/>
</g>
<!-- Node2&#45;&gt;Node4 -->
<g id="edge3" class="edge"><title>Node2&#45;&gt;Node4</title>
<path fill="none" stroke="midnightblue" d="M221.808,-159.347C226.586,-158.128 231.365,-156.991 236,-156 357.887,-129.943 503.354,-113.073 580.894,-105.194"/>
<polygon fill="midnightblue" stroke="midnightblue" points="220.812,-155.99 212.046,-161.941 222.61,-162.755 220.812,-155.99"/>
</g>
<!-- Node6 -->
<g id="node6" class="node"><title>Node6</title>
<g id="a_node6"><a xlink:href="../../d5/dd2/controllingroomba_8cpp.xhtml" target="_top" xlink:title="GUI/Gui&#45;RoombaV1.0\l/controllingroomba.cpp">
<polygon fill="white" stroke="black" points="109.5,-6 109.5,-36 224.5,-36 224.5,-6 109.5,-6"/>
<text text-anchor="start" x="117.5" y="-24" font-family="Helvetica,sans-Serif" font-size="10.00">GUI/Gui&#45;RoombaV1.0</text>
<text text-anchor="middle" x="167" y="-13" font-family="Helvetica,sans-Serif" font-size="10.00">/controllingroomba.cpp</text>
</a>
</g>
</g>
<!-- Node2&#45;&gt;Node6 -->
<g id="edge12" class="edge"><title>Node2&#45;&gt;Node6</title>
<path fill="none" stroke="midnightblue" d="M167,-151.764C167,-119.237 167,-62.5092 167,-36.1776"/>
<polygon fill="midnightblue" stroke="midnightblue" points="163.5,-151.788 167,-161.788 170.5,-151.788 163.5,-151.788"/>
</g>
<!-- Node13 -->
<g id="node13" class="node"><title>Node13</title>
<g id="a_node13"><a xlink:href="../../d5/dc6/roombagui-build-_desktop___qt__5__0__1___m_s_v_c2010__32bit-_debug_2debug_2moc__controllingroomba_8cpp.xhtml" target="_top" xlink:title="GUI/roombagui&#45;build\l&#45;Desktop_Qt_5_0_1_MSVC2010\l_32bit&#45;Debug/debug/moc_controllingroomba.cpp">
<polygon fill="white" stroke="black" points="195.5,-78.5 195.5,-119.5 420.5,-119.5 420.5,-78.5 195.5,-78.5"/>
<text text-anchor="start" x="203.5" y="-107.5" font-family="Helvetica,sans-Serif" font-size="10.00">GUI/roombagui&#45;build</text>
<text text-anchor="start" x="203.5" y="-96.5" font-family="Helvetica,sans-Serif" font-size="10.00">&#45;Desktop_Qt_5_0_1_MSVC2010</text>
<text text-anchor="middle" x="308" y="-85.5" font-family="Helvetica,sans-Serif" font-size="10.00">_32bit&#45;Debug/debug/moc_controllingroomba.cpp</text>
</a>
</g>
</g>
<!-- Node2&#45;&gt;Node13 -->
<g id="edge13" class="edge"><title>Node2&#45;&gt;Node13</title>
<path fill="none" stroke="midnightblue" d="M202.171,-157.043C223.328,-145.639 250.209,-131.15 271.585,-119.628"/>
<polygon fill="midnightblue" stroke="midnightblue" points="200.333,-154.057 193.191,-161.883 203.654,-160.219 200.333,-154.057"/>
</g>
<!-- Node5 -->
<g id="node5" class="node"><title>Node5</title>
<g id="a_node5"><a xlink:href="../../d8/d22/bin_2debug_2debug_2moc__roomba_8cpp.xhtml" target="_top" xlink:title="GUI/bin/debug/debug\l/moc_roomba.cpp">
<polygon fill="white" stroke="black" points="826.5,-6 826.5,-36 933.5,-36 933.5,-6 826.5,-6"/>
<text text-anchor="start" x="834.5" y="-24" font-family="Helvetica,sans-Serif" font-size="10.00">GUI/bin/debug/debug</text>
<text text-anchor="middle" x="880" y="-13" font-family="Helvetica,sans-Serif" font-size="10.00">/moc_roomba.cpp</text>
</a>
</g>
</g>
<!-- Node4&#45;&gt;Node5 -->
<g id="edge4" class="edge"><title>Node4&#45;&gt;Node5</title>
<path fill="none" stroke="midnightblue" d="M691.557,-80.9267C727.384,-69.888 774.969,-55.1735 817,-42 823.132,-40.0781 829.596,-38.0399 835.953,-36.0284"/>
<polygon fill="midnightblue" stroke="midnightblue" points="690.305,-77.65 681.778,-83.9384 692.365,-84.34 690.305,-77.65"/>
</g>
<!-- Node4&#45;&gt;Node6 -->
<g id="edge5" class="edge"><title>Node4&#45;&gt;Node6</title>
<path fill="none" stroke="midnightblue" d="M570.505,-91.9598C490.493,-83.8746 351.295,-67.5221 234,-42 226.409,-40.3482 218.425,-38.2723 210.721,-36.0876"/>
<polygon fill="midnightblue" stroke="midnightblue" points="570.619,-95.4884 580.917,-92.9989 571.314,-88.5231 570.619,-95.4884"/>
</g>
<!-- Node7 -->
<g id="node7" class="node"><title>Node7</title>
<g id="a_node7"><a xlink:href="../../d1/d10/displaylogs_8cpp.xhtml" target="_top" xlink:title="GUI/Gui&#45;RoombaV1.0\l/displaylogs.cpp">
<polygon fill="white" stroke="black" points="952,-6 952,-36 1062,-36 1062,-6 952,-6"/>
<text text-anchor="start" x="960" y="-24" font-family="Helvetica,sans-Serif" font-size="10.00">GUI/Gui&#45;RoombaV1.0</text>
<text text-anchor="middle" x="1007" y="-13" font-family="Helvetica,sans-Serif" font-size="10.00">/displaylogs.cpp</text>
</a>
</g>
</g>
<!-- Node4&#45;&gt;Node7 -->
<g id="edge6" class="edge"><title>Node4&#45;&gt;Node7</title>
<path fill="none" stroke="midnightblue" d="M701.211,-88.3439C763.484,-78.5874 859.753,-62.1055 942,-42 949.111,-40.2617 956.59,-38.1923 963.842,-36.0542"/>
<polygon fill="midnightblue" stroke="midnightblue" points="700.478,-84.9156 691.135,-89.9102 701.554,-91.8325 700.478,-84.9156"/>
</g>
<!-- Node8 -->
<g id="node8" class="node"><title>Node8</title>
<g id="a_node8"><a xlink:href="../../da/d0b/information_8cpp.xhtml" target="_top" xlink:title="GUI/Gui&#45;RoombaV1.0\l/information.cpp">
<polygon fill="white" stroke="black" points="1080,-6 1080,-36 1190,-36 1190,-6 1080,-6"/>
<text text-anchor="start" x="1088" y="-24" font-family="Helvetica,sans-Serif" font-size="10.00">GUI/Gui&#45;RoombaV1.0</text>
<text text-anchor="middle" x="1135" y="-13" font-family="Helvetica,sans-Serif" font-size="10.00">/information.cpp</text>
</a>
</g>
</g>
<!-- Node4&#45;&gt;Node8 -->
<g id="edge7" class="edge"><title>Node4&#45;&gt;Node8</title>
<path fill="none" stroke="midnightblue" d="M701.213,-93.1836C786.825,-86.0475 941.446,-70.3535 1071,-42 1078.39,-40.3823 1086.16,-38.2967 1093.63,-36.0851"/>
<polygon fill="midnightblue" stroke="midnightblue" points="700.801,-89.7055 691.121,-94.0117 701.374,-96.6821 700.801,-89.7055"/>
</g>
<!-- Node9 -->
<g id="node9" class="node"><title>Node9</title>
<g id="a_node9"><a xlink:href="../../d8/da8/_gui-_roomba_v1_80_2main_8cpp.xhtml" target="_top" xlink:title="GUI/Gui&#45;RoombaV1.0\l/main.cpp">
<polygon fill="white" stroke="black" points="243,-6 243,-36 353,-36 353,-6 243,-6"/>
<text text-anchor="start" x="251" y="-24" font-family="Helvetica,sans-Serif" font-size="10.00">GUI/Gui&#45;RoombaV1.0</text>
<text text-anchor="middle" x="298" y="-13" font-family="Helvetica,sans-Serif" font-size="10.00">/main.cpp</text>
</a>
</g>
</g>
<!-- Node4&#45;&gt;Node9 -->
<g id="edge8" class="edge"><title>Node4&#45;&gt;Node9</title>
<path fill="none" stroke="midnightblue" d="M570.68,-86.5762C514.899,-76.3622 432.708,-60.2237 362,-42 355.124,-40.2277 347.891,-38.1645 340.861,-36.0496"/>
<polygon fill="midnightblue" stroke="midnightblue" points="570.315,-90.067 580.78,-88.4136 571.568,-83.1801 570.315,-90.067"/>
</g>
<!-- Node10 -->
<g id="node10" class="node"><title>Node10</title>
<g id="a_node10"><a xlink:href="../../de/d67/roomba_8cpp.xhtml" target="_top" xlink:title="GUI/Gui&#45;RoombaV1.0\l/roomba.cpp">
<polygon fill="white" stroke="black" points="371,-6 371,-36 481,-36 481,-6 371,-6"/>
<text text-anchor="start" x="379" y="-24" font-family="Helvetica,sans-Serif" font-size="10.00">GUI/Gui&#45;RoombaV1.0</text>
<text text-anchor="middle" x="426" y="-13" font-family="Helvetica,sans-Serif" font-size="10.00">/roomba.cpp</text>
</a>
</g>
</g>
<!-- Node4&#45;&gt;Node10 -->
<g id="edge9" class="edge"><title>Node4&#45;&gt;Node10</title>
<path fill="none" stroke="midnightblue" d="M587.346,-80.3918C550.079,-66.9049 499.359,-48.5488 464.798,-36.0413"/>
<polygon fill="midnightblue" stroke="midnightblue" points="586.399,-83.7711 596.993,-83.8831 588.781,-77.1889 586.399,-83.7711"/>
</g>
<!-- Node11 -->
<g id="node11" class="node"><title>Node11</title>
<g id="a_node11"><a xlink:href="../../da/d3b/settingsroomba_8cpp.xhtml" target="_top" xlink:title="GUI/Gui&#45;RoombaV1.0\l/settingsroomba.cpp">
<polygon fill="white" stroke="black" points="499,-6 499,-36 609,-36 609,-6 499,-6"/>
<text text-anchor="start" x="507" y="-24" font-family="Helvetica,sans-Serif" font-size="10.00">GUI/Gui&#45;RoombaV1.0</text>
<text text-anchor="middle" x="554" y="-13" font-family="Helvetica,sans-Serif" font-size="10.00">/settingsroomba.cpp</text>
</a>
</g>
</g>
<!-- Node4&#45;&gt;Node11 -->
<g id="edge10" class="edge"><title>Node4&#45;&gt;Node11</title>
<path fill="none" stroke="midnightblue" d="M613.228,-76.8941C599.243,-63.9322 581.705,-47.6775 569.354,-36.2309"/>
<polygon fill="midnightblue" stroke="midnightblue" points="610.863,-79.4743 620.576,-83.705 615.621,-74.3403 610.863,-79.4743"/>
</g>
<!-- Node12 -->
<g id="node12" class="node"><title>Node12</title>
<g id="a_node12"><a xlink:href="../../d9/d13/roombagui-build-_desktop___qt__5__0__1___m_s_v_c2010__32bit-_debug_2debug_2moc__roomba_8cpp.xhtml" target="_top" xlink:title="GUI/roombagui&#45;build\l&#45;Desktop_Qt_5_0_1_MSVC2010\l_32bit&#45;Debug/debug/moc_roomba.cpp">
<polygon fill="white" stroke="black" points="627.5,-0.5 627.5,-41.5 808.5,-41.5 808.5,-0.5 627.5,-0.5"/>
<text text-anchor="start" x="635.5" y="-29.5" font-family="Helvetica,sans-Serif" font-size="10.00">GUI/roombagui&#45;build</text>
<text text-anchor="start" x="635.5" y="-18.5" font-family="Helvetica,sans-Serif" font-size="10.00">&#45;Desktop_Qt_5_0_1_MSVC2010</text>
<text text-anchor="middle" x="718" y="-7.5" font-family="Helvetica,sans-Serif" font-size="10.00">_32bit&#45;Debug/debug/moc_roomba.cpp</text>
</a>
</g>
</g>
<!-- Node4&#45;&gt;Node12 -->
<g id="edge11" class="edge"><title>Node4&#45;&gt;Node12</title>
<path fill="none" stroke="midnightblue" d="M658.807,-76.8622C670.687,-65.851 685.124,-52.4702 696.766,-41.68"/>
<polygon fill="midnightblue" stroke="midnightblue" points="656.379,-74.3403 651.424,-83.705 661.137,-79.4743 656.379,-74.3403"/>
</g>
<!-- Node14&#45;&gt;Node2 -->
<g id="edge15" class="edge"><title>Node14&#45;&gt;Node2</title>
<path fill="none" stroke="midnightblue" d="M556.655,-299.868C522.669,-291.156 474.685,-278.467 433,-266 352.378,-241.888 259.244,-210.177 207.328,-192.149"/>
<polygon fill="midnightblue" stroke="midnightblue" points="556.175,-303.357 566.73,-302.439 557.906,-296.575 556.175,-303.357"/>
</g>
<!-- Node14&#45;&gt;Node15 -->
<g id="edge16" class="edge"><title>Node14&#45;&gt;Node15</title>
<path fill="none" stroke="midnightblue" d="M577.012,-297.161C560.368,-287.559 538.267,-274.808 521.511,-265.141"/>
<polygon fill="midnightblue" stroke="midnightblue" points="575.688,-300.438 586.099,-302.403 579.187,-294.375 575.688,-300.438"/>
</g>
<!-- Node14&#45;&gt;Node4 -->
<g id="edge22" class="edge"><title>Node14&#45;&gt;Node4</title>
<path fill="none" stroke="midnightblue" d="M685.169,-300.905C728.388,-293.821 774.721,-282.602 788,-266 818.539,-227.821 817.007,-196.074 789,-156 767.045,-124.584 725.467,-110.736 691.191,-104.66"/>
<polygon fill="midnightblue" stroke="midnightblue" points="684.475,-297.471 675.143,-302.486 685.566,-304.386 684.475,-297.471"/>
</g>
<!-- Node17 -->
<g id="node17" class="node"><title>Node17</title>
<g id="a_node17"><a xlink:href="../../d7/da4/_roomba_connect_8cpp.xhtml" target="_top" xlink:title="GUI/Gui&#45;RoombaV1.0\l/RoombaConnect.cpp">
<polygon fill="white" stroke="black" points="670,-162 670,-192 780,-192 780,-162 670,-162"/>
<text text-anchor="start" x="678" y="-180" font-family="Helvetica,sans-Serif" font-size="10.00">GUI/Gui&#45;RoombaV1.0</text>
<text text-anchor="middle" x="725" y="-169" font-family="Helvetica,sans-Serif" font-size="10.00">/RoombaConnect.cpp</text>
</a>
</g>
</g>
<!-- Node14&#45;&gt;Node17 -->
<g id="edge23" class="edge"><title>Node14&#45;&gt;Node17</title>
<path fill="none" stroke="midnightblue" d="M598.144,-292.258C596.623,-275.481 597.075,-250.979 609,-234 618.575,-220.366 656.301,-203.632 686.164,-192.026"/>
<polygon fill="midnightblue" stroke="midnightblue" points="594.703,-292.953 599.395,-302.452 601.65,-292.1 594.703,-292.953"/>
</g>
<!-- Node19 -->
<g id="node19" class="node"><title>Node19</title>
<g id="a_node19"><a xlink:href="../../d9/d73/jsoncommand_8cpp.xhtml" target="_top" xlink:title="GUI/resources/jsoncommand.cpp">
<polygon fill="white" stroke="black" points="618.5,-240.5 618.5,-259.5 779.5,-259.5 779.5,-240.5 618.5,-240.5"/>
<text text-anchor="middle" x="699" y="-247.5" font-family="Helvetica,sans-Serif" font-size="10.00">GUI/resources/jsoncommand.cpp</text>
</a>
</g>
</g>
<!-- Node14&#45;&gt;Node19 -->
<g id="edge24" class="edge"><title>Node14&#45;&gt;Node19</title>
<path fill="none" stroke="midnightblue" d="M623.657,-297.129C642.589,-285.538 668.986,-269.376 684.985,-259.581"/>
<polygon fill="midnightblue" stroke="midnightblue" points="621.742,-294.197 615.041,-302.403 625.397,-300.167 621.742,-294.197"/>
</g>
<!-- Node15&#45;&gt;Node2 -->
<g id="edge17" class="edge"><title>Node15&#45;&gt;Node2</title>
<path fill="none" stroke="midnightblue" d="M432.005,-237.962C378.987,-228.56 302.29,-214.05 236,-198 228.606,-196.21 220.817,-194.137 213.243,-192.018"/>
<polygon fill="midnightblue" stroke="midnightblue" points="431.496,-241.426 441.952,-239.715 432.711,-234.532 431.496,-241.426"/>
</g>
<!-- Node15&#45;&gt;Node4 -->
<g id="edge18" class="edge"><title>Node15&#45;&gt;Node4</title>
<path fill="none" stroke="midnightblue" d="M431.88,-238.67C368.191,-227.905 279.29,-210.846 269,-198 257.33,-183.431 256.837,-170.16 269,-156 289.054,-132.654 483.476,-112.972 580.914,-104.482"/>
<polygon fill="midnightblue" stroke="midnightblue" points="431.429,-242.143 441.87,-240.342 432.585,-235.239 431.429,-242.143"/>
</g>
<!-- Node16 -->
<g id="node16" class="node"><title>Node16</title>
<g id="a_node16"><a xlink:href="../../d1/d9b/bin_2debug_2debug_2moc___roomba_connect_8cpp.xhtml" target="_top" xlink:title="GUI/bin/debug/debug\l/moc_RoombaConnect.cpp">
<polygon fill="white" stroke="black" points="518,-162 518,-192 652,-192 652,-162 518,-162"/>
<text text-anchor="start" x="526" y="-180" font-family="Helvetica,sans-Serif" font-size="10.00">GUI/bin/debug/debug</text>
<text text-anchor="middle" x="585" y="-169" font-family="Helvetica,sans-Serif" font-size="10.00">/moc_RoombaConnect.cpp</text>
</a>
</g>
</g>
<!-- Node15&#45;&gt;Node16 -->
<g id="edge19" class="edge"><title>Node15&#45;&gt;Node16</title>
<path fill="none" stroke="midnightblue" d="M522.427,-228.485C536.824,-216.87 554.47,-202.632 567.349,-192.241"/>
<polygon fill="midnightblue" stroke="midnightblue" points="519.971,-225.969 514.386,-234.973 524.366,-231.417 519.971,-225.969"/>
</g>
<!-- Node15&#45;&gt;Node17 -->
<g id="edge20" class="edge"><title>Node15&#45;&gt;Node17</title>
<path fill="none" stroke="midnightblue" d="M551.836,-231.968C583.704,-222.065 624.626,-209.339 661,-198 667.112,-196.095 673.553,-194.085 679.897,-192.103"/>
<polygon fill="midnightblue" stroke="midnightblue" points="550.763,-228.636 542.252,-234.946 552.84,-235.321 550.763,-228.636"/>
</g>
<!-- Node18 -->
<g id="node18" class="node"><title>Node18</title>
<g id="a_node18"><a xlink:href="../../d2/ddc/roombagui-build-_desktop___qt__5__0__1___m_s_v_c2010__32bit-_debug_2debug_2moc___roomba_connect_8cpp.xhtml" target="_top" xlink:title="GUI/roombagui&#45;build\l&#45;Desktop_Qt_5_0_1_MSVC2010\l_32bit&#45;Debug/debug/moc_RoombaConnect.cpp">
<polygon fill="white" stroke="black" points="278.5,-156.5 278.5,-197.5 499.5,-197.5 499.5,-156.5 278.5,-156.5"/>
<text text-anchor="start" x="286.5" y="-185.5" font-family="Helvetica,sans-Serif" font-size="10.00">GUI/roombagui&#45;build</text>
<text text-anchor="start" x="286.5" y="-174.5" font-family="Helvetica,sans-Serif" font-size="10.00">&#45;Desktop_Qt_5_0_1_MSVC2010</text>
<text text-anchor="middle" x="389" y="-163.5" font-family="Helvetica,sans-Serif" font-size="10.00">_32bit&#45;Debug/debug/moc_RoombaConnect.cpp</text>
</a>
</g>
</g>
<!-- Node15&#45;&gt;Node18 -->
<g id="edge21" class="edge"><title>Node15&#45;&gt;Node18</title>
<path fill="none" stroke="midnightblue" d="M467.214,-229.418C452.161,-219.523 433.943,-207.546 418.878,-197.642"/>
<polygon fill="midnightblue" stroke="midnightblue" points="465.384,-232.404 475.663,-234.973 469.229,-226.555 465.384,-232.404"/>
</g>
</g>
</svg>
