<?xml version="1.0" encoding="UTF-8" standalone="no"?>
<!DOCTYPE svg PUBLIC "-//W3C//DTD SVG 1.1//EN"
 "http://www.w3.org/Graphics/SVG/1.1/DTD/svg11.dtd">
<!-- Generated by graphviz version 2.30.1 (20130214.1330)
 -->
<!-- Title: GUI/resources/json.h Pages: 1 -->
<svg width="763pt" height="288pt"
 viewBox="0.00 0.00 763.00 288.00" xmlns="http://www.w3.org/2000/svg" xmlns:xlink="http://www.w3.org/1999/xlink">
<g id="graph0" class="graph" transform="scale(1 1) rotate(0) translate(4 284)">
<title>GUI/resources/json.h</title>
<polygon fill="white" stroke="white" points="-4,5 -4,-284 760,-284 760,5 -4,5"/>
<!-- Node1 -->
<g id="node1" class="node"><title>Node1</title>
<polygon fill="#bfbfbf" stroke="black" points="459,-260.5 459,-279.5 567,-279.5 567,-260.5 459,-260.5"/>
<text text-anchor="middle" x="513" y="-267.5" font-family="Helvetica,sans-Serif" font-size="10.00">GUI/resources/json.h</text>
</g>
<!-- Node2 -->
<g id="node2" class="node"><title>Node2</title>
<g id="a_node2"><a xlink:href="../../dc/d96/jsoncommand_8h.xhtml" target="_top" xlink:title="GUI/resources/jsoncommand.h">
<polygon fill="white" stroke="black" points="437.5,-204.5 437.5,-223.5 588.5,-223.5 588.5,-204.5 437.5,-204.5"/>
<text text-anchor="middle" x="513" y="-211.5" font-family="Helvetica,sans-Serif" font-size="10.00">GUI/resources/jsoncommand.h</text>
</a>
</g>
</g>
<!-- Node1&#45;&gt;Node2 -->
<g id="edge1" class="edge"><title>Node1&#45;&gt;Node2</title>
<path fill="none" stroke="midnightblue" d="M513,-249.805C513,-240.91 513,-230.78 513,-223.751"/>
<polygon fill="midnightblue" stroke="midnightblue" points="509.5,-250.083 513,-260.083 516.5,-250.083 509.5,-250.083"/>
</g>
<!-- Node3 -->
<g id="node3" class="node"><title>Node3</title>
<g id="a_node3"><a xlink:href="../../d4/dca/_roomba_connect_8h.xhtml" target="_top" xlink:title="GUI/Gui&#45;RoombaV1.0\l/RoombaConnect.h">
<polygon fill="white" stroke="black" points="364,-137 364,-167 474,-167 474,-137 364,-137"/>
<text text-anchor="start" x="372" y="-155" font-family="Helvetica,sans-Serif" font-size="10.00">GUI/Gui&#45;RoombaV1.0</text>
<text text-anchor="middle" x="419" y="-144" font-family="Helvetica,sans-Serif" font-size="10.00">/RoombaConnect.h</text>
</a>
</g>
</g>
<!-- Node1&#45;&gt;Node3 -->
<g id="edge13" class="edge"><title>Node1&#45;&gt;Node3</title>
<path fill="none" stroke="midnightblue" d="M472.308,-256.75C455.978,-249.763 438.558,-239.269 428,-224 416.34,-207.138 415.972,-182.517 417.183,-167.144"/>
<polygon fill="midnightblue" stroke="midnightblue" points="471.15,-260.055 481.736,-260.468 473.717,-253.543 471.15,-260.055"/>
</g>
<!-- Node13 -->
<g id="node13" class="node"><title>Node13</title>
<g id="a_node13"><a xlink:href="../../dd/d55/json_8cpp.xhtml" target="_top" xlink:title="GUI/resources/json.cpp">
<polygon fill="white" stroke="black" points="606.5,-204.5 606.5,-223.5 725.5,-223.5 725.5,-204.5 606.5,-204.5"/>
<text text-anchor="middle" x="666" y="-211.5" font-family="Helvetica,sans-Serif" font-size="10.00">GUI/resources/json.cpp</text>
</a>
</g>
</g>
<!-- Node1&#45;&gt;Node13 -->
<g id="edge14" class="edge"><title>Node1&#45;&gt;Node13</title>
<path fill="none" stroke="midnightblue" d="M546.889,-257.039C575.677,-246.879 616.287,-232.546 641.87,-223.516"/>
<polygon fill="midnightblue" stroke="midnightblue" points="545.508,-253.815 537.243,-260.444 547.838,-260.416 545.508,-253.815"/>
</g>
<!-- Node2&#45;&gt;Node3 -->
<g id="edge2" class="edge"><title>Node2&#45;&gt;Node3</title>
<path fill="none" stroke="midnightblue" d="M490.896,-198.891C475.902,-189.321 456.158,-176.718 441.154,-167.141"/>
<polygon fill="midnightblue" stroke="midnightblue" points="489.22,-201.973 499.532,-204.403 492.986,-196.073 489.22,-201.973"/>
</g>
<!-- Node11 -->
<g id="node11" class="node"><title>Node11</title>
<g id="a_node11"><a xlink:href="../../d7/da4/_roomba_connect_8cpp.xhtml" target="_top" xlink:title="GUI/Gui&#45;RoombaV1.0\l/RoombaConnect.cpp">
<polygon fill="white" stroke="black" points="453,-69 453,-99 563,-99 563,-69 453,-69"/>
<text text-anchor="start" x="461" y="-87" font-family="Helvetica,sans-Serif" font-size="10.00">GUI/Gui&#45;RoombaV1.0</text>
<text text-anchor="middle" x="508" y="-76" font-family="Helvetica,sans-Serif" font-size="10.00">/RoombaConnect.cpp</text>
</a>
</g>
</g>
<!-- Node2&#45;&gt;Node11 -->
<g id="edge11" class="edge"><title>Node2&#45;&gt;Node11</title>
<path fill="none" stroke="midnightblue" d="M512.265,-194.171C511.253,-168.287 509.457,-122.294 508.552,-99.1431"/>
<polygon fill="midnightblue" stroke="midnightblue" points="508.769,-194.346 512.656,-204.202 515.763,-194.073 508.769,-194.346"/>
</g>
<!-- Node12 -->
<g id="node12" class="node"><title>Node12</title>
<g id="a_node12"><a xlink:href="../../d9/d73/jsoncommand_8cpp.xhtml" target="_top" xlink:title="GUI/resources/jsoncommand.cpp">
<polygon fill="white" stroke="black" points="536.5,-142.5 536.5,-161.5 697.5,-161.5 697.5,-142.5 536.5,-142.5"/>
<text text-anchor="middle" x="617" y="-149.5" font-family="Helvetica,sans-Serif" font-size="10.00">GUI/resources/jsoncommand.cpp</text>
</a>
</g>
</g>
<!-- Node2&#45;&gt;Node12 -->
<g id="edge12" class="edge"><title>Node2&#45;&gt;Node12</title>
<path fill="none" stroke="midnightblue" d="M536.77,-199.286C556.88,-187.685 585.072,-171.42 602.127,-161.581"/>
<polygon fill="midnightblue" stroke="midnightblue" points="534.813,-196.375 527.901,-204.403 538.312,-202.438 534.813,-196.375"/>
</g>
<!-- Node4 -->
<g id="node4" class="node"><title>Node4</title>
<g id="a_node4"><a xlink:href="../../dd/da1/roomba_8h.xhtml" target="_top" xlink:title="GUI/Gui&#45;RoombaV1.0\l/roomba.h">
<polygon fill="white" stroke="black" points="325,-69 325,-99 435,-99 435,-69 325,-69"/>
<text text-anchor="start" x="333" y="-87" font-family="Helvetica,sans-Serif" font-size="10.00">GUI/Gui&#45;RoombaV1.0</text>
<text text-anchor="middle" x="380" y="-76" font-family="Helvetica,sans-Serif" font-size="10.00">/roomba.h</text>
</a>
</g>
</g>
<!-- Node3&#45;&gt;Node4 -->
<g id="edge3" class="edge"><title>Node3&#45;&gt;Node4</title>
<path fill="none" stroke="midnightblue" d="M405.42,-128.019C399.776,-118.467 393.4,-107.677 388.446,-99.2931"/>
<polygon fill="midnightblue" stroke="midnightblue" points="402.437,-129.85 410.538,-136.679 408.463,-126.289 402.437,-129.85"/>
</g>
<!-- Node3&#45;&gt;Node11 -->
<g id="edge10" class="edge"><title>Node3&#45;&gt;Node11</title>
<path fill="none" stroke="midnightblue" d="M446.51,-130.599C460.303,-120.371 476.657,-108.243 489.032,-99.0663"/>
<polygon fill="midnightblue" stroke="midnightblue" points="444.259,-127.911 438.312,-136.679 448.429,-133.534 444.259,-127.911"/>
</g>
<!-- Node5 -->
<g id="node5" class="node"><title>Node5</title>
<g id="a_node5"><a xlink:href="../../d5/dd2/controllingroomba_8cpp.xhtml" target="_top" xlink:title="GUI/Gui&#45;RoombaV1.0\l/controllingroomba.cpp">
<polygon fill="white" stroke="black" points="-0.5,-1 -0.5,-31 114.5,-31 114.5,-1 -0.5,-1"/>
<text text-anchor="start" x="7.5" y="-19" font-family="Helvetica,sans-Serif" font-size="10.00">GUI/Gui&#45;RoombaV1.0</text>
<text text-anchor="middle" x="57" y="-8" font-family="Helvetica,sans-Serif" font-size="10.00">/controllingroomba.cpp</text>
</a>
</g>
</g>
<!-- Node4&#45;&gt;Node5 -->
<g id="edge4" class="edge"><title>Node4&#45;&gt;Node5</title>
<path fill="none" stroke="midnightblue" d="M314.942,-70.4791C263.149,-60.4049 188.843,-45.7154 124,-32 120.968,-31.3587 117.861,-30.6929 114.725,-30.0142"/>
<polygon fill="midnightblue" stroke="midnightblue" points="314.508,-73.96 324.992,-72.4307 315.842,-67.0884 314.508,-73.96"/>
</g>
<!-- Node6 -->
<g id="node6" class="node"><title>Node6</title>
<g id="a_node6"><a xlink:href="../../d1/d10/displaylogs_8cpp.xhtml" target="_top" xlink:title="GUI/Gui&#45;RoombaV1.0\l/displaylogs.cpp">
<polygon fill="white" stroke="black" points="133,-1 133,-31 243,-31 243,-1 133,-1"/>
<text text-anchor="start" x="141" y="-19" font-family="Helvetica,sans-Serif" font-size="10.00">GUI/Gui&#45;RoombaV1.0</text>
<text text-anchor="middle" x="188" y="-8" font-family="Helvetica,sans-Serif" font-size="10.00">/displaylogs.cpp</text>
</a>
</g>
</g>
<!-- Node4&#45;&gt;Node6 -->
<g id="edge5" class="edge"><title>Node4&#45;&gt;Node6</title>
<path fill="none" stroke="midnightblue" d="M328.951,-65.4519C297.616,-54.6805 258.028,-41.0722 228.791,-31.0218"/>
<polygon fill="midnightblue" stroke="midnightblue" points="328.217,-68.9004 338.811,-68.8413 330.492,-62.2806 328.217,-68.9004"/>
</g>
<!-- Node7 -->
<g id="node7" class="node"><title>Node7</title>
<g id="a_node7"><a xlink:href="../../da/d0b/information_8cpp.xhtml" target="_top" xlink:title="GUI/Gui&#45;RoombaV1.0\l/information.cpp">
<polygon fill="white" stroke="black" points="261,-1 261,-31 371,-31 371,-1 261,-1"/>
<text text-anchor="start" x="269" y="-19" font-family="Helvetica,sans-Serif" font-size="10.00">GUI/Gui&#45;RoombaV1.0</text>
<text text-anchor="middle" x="316" y="-8" font-family="Helvetica,sans-Serif" font-size="10.00">/information.cpp</text>
</a>
</g>
</g>
<!-- Node4&#45;&gt;Node7 -->
<g id="edge6" class="edge"><title>Node4&#45;&gt;Node7</title>
<path fill="none" stroke="midnightblue" d="M359.137,-61.4855C349.537,-51.5852 338.409,-40.1092 329.86,-31.2931"/>
<polygon fill="midnightblue" stroke="midnightblue" points="356.639,-63.9365 366.113,-68.679 361.664,-59.0634 356.639,-63.9365"/>
</g>
<!-- Node8 -->
<g id="node8" class="node"><title>Node8</title>
<g id="a_node8"><a xlink:href="../../df/d0a/main_8cpp.xhtml" target="_top" xlink:title="GUI/Gui&#45;RoombaV1.0\l/main.cpp">
<polygon fill="white" stroke="black" points="389,-1 389,-31 499,-31 499,-1 389,-1"/>
<text text-anchor="start" x="397" y="-19" font-family="Helvetica,sans-Serif" font-size="10.00">GUI/Gui&#45;RoombaV1.0</text>
<text text-anchor="middle" x="444" y="-8" font-family="Helvetica,sans-Serif" font-size="10.00">/main.cpp</text>
</a>
</g>
</g>
<!-- Node4&#45;&gt;Node8 -->
<g id="edge7" class="edge"><title>Node4&#45;&gt;Node8</title>
<path fill="none" stroke="midnightblue" d="M400.863,-61.4855C410.463,-51.5852 421.591,-40.1092 430.14,-31.2931"/>
<polygon fill="midnightblue" stroke="midnightblue" points="398.336,-59.0634 393.887,-68.679 403.361,-63.9365 398.336,-59.0634"/>
</g>
<!-- Node9 -->
<g id="node9" class="node"><title>Node9</title>
<g id="a_node9"><a xlink:href="../../de/d67/roomba_8cpp.xhtml" target="_top" xlink:title="GUI/Gui&#45;RoombaV1.0\l/roomba.cpp">
<polygon fill="white" stroke="black" points="517,-1 517,-31 627,-31 627,-1 517,-1"/>
<text text-anchor="start" x="525" y="-19" font-family="Helvetica,sans-Serif" font-size="10.00">GUI/Gui&#45;RoombaV1.0</text>
<text text-anchor="middle" x="572" y="-8" font-family="Helvetica,sans-Serif" font-size="10.00">/roomba.cpp</text>
</a>
</g>
</g>
<!-- Node4&#45;&gt;Node9 -->
<g id="edge8" class="edge"><title>Node4&#45;&gt;Node9</title>
<path fill="none" stroke="midnightblue" d="M431.049,-65.4519C462.384,-54.6805 501.972,-41.0722 531.209,-31.0218"/>
<polygon fill="midnightblue" stroke="midnightblue" points="429.508,-62.2806 421.189,-68.8413 431.783,-68.9004 429.508,-62.2806"/>
</g>
<!-- Node10 -->
<g id="node10" class="node"><title>Node10</title>
<g id="a_node10"><a xlink:href="../../da/d3b/settingsroomba_8cpp.xhtml" target="_top" xlink:title="GUI/Gui&#45;RoombaV1.0\l/settingsroomba.cpp">
<polygon fill="white" stroke="black" points="645,-1 645,-31 755,-31 755,-1 645,-1"/>
<text text-anchor="start" x="653" y="-19" font-family="Helvetica,sans-Serif" font-size="10.00">GUI/Gui&#45;RoombaV1.0</text>
<text text-anchor="middle" x="700" y="-8" font-family="Helvetica,sans-Serif" font-size="10.00">/settingsroomba.cpp</text>
</a>
</g>
</g>
<!-- Node4&#45;&gt;Node10 -->
<g id="edge9" class="edge"><title>Node4&#45;&gt;Node10</title>
<path fill="none" stroke="midnightblue" d="M445.019,-67.8411C530.632,-50.0536 554.117,-49.2632 636,-32 638.903,-31.3879 641.877,-30.7454 644.877,-30.085"/>
<polygon fill="midnightblue" stroke="midnightblue" points="444.192,-64.4383 435.123,-69.915 445.628,-71.2895 444.192,-64.4383"/>
</g>
</g>
</svg>
