<?xml version="1.0" encoding="UTF-8" standalone="no"?>
<!DOCTYPE svg PUBLIC "-//W3C//DTD SVG 1.1//EN"
 "http://www.w3.org/Graphics/SVG/1.1/DTD/svg11.dtd">
<!-- Generated by graphviz version 2.30.1 (20130214.1330)
 -->
<!-- Title: shared::events::clsEvent Pages: 1 -->
<svg width="312pt" height="263pt"
 viewBox="0.00 0.00 312.00 263.00" xmlns="http://www.w3.org/2000/svg" xmlns:xlink="http://www.w3.org/1999/xlink">
<g id="graph0" class="graph" transform="scale(1 1) rotate(0) translate(4 259)">
<title>shared::events::clsEvent</title>
<polygon fill="white" stroke="white" points="-4,5 -4,-259 309,-259 309,5 -4,5"/>
<!-- Node1 -->
<g id="node1" class="node"><title>Node1</title>
<polygon fill="#bfbfbf" stroke="black" points="0,-117.5 0,-136.5 122,-136.5 122,-117.5 0,-117.5"/>
<text text-anchor="middle" x="61" y="-124.5" font-family="Helvetica,sans-Serif" font-size="10.00">shared::events::clsEvent</text>
</g>
<!-- Node2 -->
<g id="node2" class="node"><title>Node2</title>
<g id="a_node2"><a xlink:href="../../d1/d68/classshared_1_1events_1_1event_chat.xhtml" target="_top" xlink:title="Class containing a chatEvent.">
<polygon fill="white" stroke="black" points="167,-235.5 167,-254.5 295,-254.5 295,-235.5 167,-235.5"/>
<text text-anchor="middle" x="231" y="-242.5" font-family="Helvetica,sans-Serif" font-size="10.00">shared::events::eventChat</text>
</a>
</g>
</g>
<!-- Node1&#45;&gt;Node2 -->
<g id="edge1" class="edge"><title>Node1&#45;&gt;Node2</title>
<path fill="none" stroke="midnightblue" d="M74.7536,-144.9C91.4178,-166.979 122.669,-204.141 158,-225 165.373,-229.353 173.73,-232.791 182.074,-235.496"/>
<polygon fill="midnightblue" stroke="midnightblue" points="77.473,-142.691 68.7239,-136.715 71.8372,-146.843 77.473,-142.691"/>
</g>
<!-- Node3 -->
<g id="node3" class="node"><title>Node3</title>
<g id="a_node3"><a xlink:href="../../d6/dfe/classshared_1_1events_1_1event_server_message.xhtml" target="_top" xlink:title="Class that contains data for when the server wants to say something.">
<polygon fill="white" stroke="black" points="163.5,-186 163.5,-216 298.5,-216 298.5,-186 163.5,-186"/>
<text text-anchor="start" x="171.5" y="-204" font-family="Helvetica,sans-Serif" font-size="10.00">shared::events::eventServer</text>
<text text-anchor="middle" x="231" y="-193" font-family="Helvetica,sans-Serif" font-size="10.00">Message</text>
</a>
</g>
</g>
<!-- Node1&#45;&gt;Node3 -->
<g id="edge2" class="edge"><title>Node1&#45;&gt;Node3</title>
<path fill="none" stroke="midnightblue" d="M87.9582,-141.482C107.015,-151.807 133.704,-165.64 158,-176 166.155,-179.477 174.973,-182.847 183.549,-185.927"/>
<polygon fill="midnightblue" stroke="midnightblue" points="89.4541,-138.311 79.0012,-136.582 86.0946,-144.452 89.4541,-138.311"/>
</g>
<!-- Node4 -->
<g id="node4" class="node"><title>Node4</title>
<g id="a_node4"><a xlink:href="../../d5/de1/classshared_1_1events_1_1event_user_change_nick.xhtml" target="_top" xlink:title="Class containing a user who changes his nick&#45;event (nick|status)">
<polygon fill="white" stroke="black" points="167,-137 167,-167 295,-167 295,-137 167,-137"/>
<text text-anchor="start" x="175" y="-155" font-family="Helvetica,sans-Serif" font-size="10.00">shared::events::eventUser</text>
<text text-anchor="middle" x="231" y="-144" font-family="Helvetica,sans-Serif" font-size="10.00">ChangeNick</text>
</a>
</g>
</g>
<!-- Node1&#45;&gt;Node4 -->
<g id="edge3" class="edge"><title>Node1&#45;&gt;Node4</title>
<path fill="none" stroke="midnightblue" d="M132.169,-137.442C143.668,-139.153 155.523,-140.917 166.84,-142.601"/>
<polygon fill="midnightblue" stroke="midnightblue" points="132.584,-133.965 122.177,-135.955 131.553,-140.889 132.584,-133.965"/>
</g>
<!-- Node5 -->
<g id="node5" class="node"><title>Node5</title>
<g id="a_node5"><a xlink:href="../../d3/dcc/classshared_1_1events_1_1event_user_change_status.xhtml" target="_top" xlink:title="Class containing a user who changes his status&#45;event (nick|status)">
<polygon fill="white" stroke="black" points="167,-88 167,-118 295,-118 295,-88 167,-88"/>
<text text-anchor="start" x="175" y="-106" font-family="Helvetica,sans-Serif" font-size="10.00">shared::events::eventUser</text>
<text text-anchor="middle" x="231" y="-95" font-family="Helvetica,sans-Serif" font-size="10.00">ChangeStatus</text>
</a>
</g>
</g>
<!-- Node1&#45;&gt;Node5 -->
<g id="edge4" class="edge"><title>Node1&#45;&gt;Node5</title>
<path fill="none" stroke="midnightblue" d="M132.169,-116.976C143.668,-115.333 155.523,-113.64 166.84,-112.023"/>
<polygon fill="midnightblue" stroke="midnightblue" points="131.582,-113.524 122.177,-118.403 132.572,-120.454 131.582,-113.524"/>
</g>
<!-- Node6 -->
<g id="node6" class="node"><title>Node6</title>
<g id="a_node6"><a xlink:href="../../dd/d05/classshared_1_1events_1_1event_user_join.xhtml" target="_top" xlink:title="Class containing a user JOIN event.">
<polygon fill="white" stroke="black" points="158,-49.5 158,-68.5 304,-68.5 304,-49.5 158,-49.5"/>
<text text-anchor="middle" x="231" y="-56.5" font-family="Helvetica,sans-Serif" font-size="10.00">shared::events::eventUserJoin</text>
</a>
</g>
</g>
<!-- Node1&#45;&gt;Node6 -->
<g id="edge5" class="edge"><title>Node1&#45;&gt;Node6</title>
<path fill="none" stroke="midnightblue" d="M87.4618,-112.576C106.466,-102.233 133.303,-88.5022 158,-79 168.292,-75.0402 179.687,-71.505 190.318,-68.5491"/>
<polygon fill="midnightblue" stroke="midnightblue" points="85.6148,-109.598 78.5486,-117.492 88.9954,-115.727 85.6148,-109.598"/>
</g>
<!-- Node7 -->
<g id="node7" class="node"><title>Node7</title>
<g id="a_node7"><a xlink:href="../../d9/d9f/classshared_1_1events_1_1event_user_leave.xhtml" target="_top" xlink:title="Class containing a user PART event.">
<polygon fill="white" stroke="black" points="167,-0 167,-30 295,-30 295,-0 167,-0"/>
<text text-anchor="start" x="175" y="-18" font-family="Helvetica,sans-Serif" font-size="10.00">shared::events::eventUser</text>
<text text-anchor="middle" x="231" y="-7" font-family="Helvetica,sans-Serif" font-size="10.00">Leave</text>
</a>
</g>
</g>
<!-- Node1&#45;&gt;Node7 -->
<g id="edge6" class="edge"><title>Node1&#45;&gt;Node7</title>
<path fill="none" stroke="midnightblue" d="M76.9865,-109.756C94.6354,-90.3907 125.666,-59.1726 158,-40 164.374,-36.2206 171.404,-32.8985 178.499,-30.0143"/>
<polygon fill="midnightblue" stroke="midnightblue" points="74.3334,-107.472 70.2772,-117.26 79.5517,-112.138 74.3334,-107.472"/>
</g>
</g>
</svg>
