<?xml version="1.0" encoding="UTF-8" standalone="no"?>
<!DOCTYPE svg PUBLIC "-//W3C//DTD SVG 1.1//EN"
 "http://www.w3.org/Graphics/SVG/1.1/DTD/svg11.dtd">
<!-- Generated by graphviz version 2.30.1 (20130214.1330)
 -->
<!-- Title: shared::events::clsEvent Pages: 1 -->
<!--zoomable 338 -->
<svg id="main" version="1.1" xmlns="http://www.w3.org/2000/svg" xmlns:xlink="http://www.w3.org/1999/xlink" xml:space="preserve" onload="init(evt)">
        <defs>
                <circle id="rim" cx="0" cy="0" r="7"/>
                <circle id="rim2" cx="0" cy="0" r="3.5"/>
                <g id="zoomPlus">
                        <use xlink:href="#rim" fill="#404040">
                                <set attributeName="fill" to="#808080" begin="zoomplus.mouseover" end="zoomplus.mouseout"/>
                        </use>
                        <path d="M-4,0h8M0,-4v8" fill="none" stroke="white" stroke-width="1.5" pointer-events="none"/>
                </g>
                <g id="zoomMin">
                        <use xlink:href="#rim" fill="#404040">
                                <set attributeName="fill" to="#808080" begin="zoomminus.mouseover" end="zoomminus.mouseout"/>
                        </use>
                        <path d="M-4,0h8" fill="none" stroke="white" stroke-width="1.5" pointer-events="none"/>
                </g>
                <g id="dirArrow">
                        <path fill="none" stroke="white" stroke-width="1.5" d="M0,-3.0v7 M-2.5,-0.5L0,-3.0L2.5,-0.5"/>
                </g>
               <g id="resetDef">
                       <use xlink:href="#rim2" fill="#404040">
                               <set attributeName="fill" to="#808080" begin="reset.mouseover" end="reset.mouseout"/>
                       </use>
               </g>
        </defs>

<script type="text/javascript">
var viewWidth = 1529;
var viewHeight = 338;
var sectionId = 'dynsection-0';
</script>
<script xlink:href="../../svgpan.js"/>
<svg id="graph" class="graph">
<g id="viewport">
<title>shared::events::clsEvent</title>
<polygon fill="white" stroke="white" points="-4,5 -4,-334 1526,-334 1526,5 -4,5"/>
<!-- Node1 -->
<g id="node1" class="node"><title>Node1</title>
<polygon fill="#bfbfbf" stroke="black" points="704,-151 704,-329 826,-329 826,-151 704,-151"/>
<text text-anchor="middle" x="765" y="-317" font-family="Helvetica,sans-Serif" font-size="10.00">shared::events::clsEvent</text>
<polyline fill="none" stroke="black" points="704,-310 826,-310 "/>
<text text-anchor="start" x="712" y="-298" font-family="Helvetica,sans-Serif" font-size="10.00"># data</text>
<text text-anchor="start" x="712" y="-287" font-family="Helvetica,sans-Serif" font-size="10.00"># ourType</text>
<text text-anchor="start" x="712" y="-276" font-family="Helvetica,sans-Serif" font-size="10.00"># timeOfEvent</text>
<text text-anchor="start" x="712" y="-265" font-family="Helvetica,sans-Serif" font-size="10.00"># log</text>
<polyline fill="none" stroke="black" points="704,-258 826,-258 "/>
<text text-anchor="start" x="712" y="-246" font-family="Helvetica,sans-Serif" font-size="10.00">+ clsEvent()</text>
<text text-anchor="start" x="712" y="-235" font-family="Helvetica,sans-Serif" font-size="10.00">+ clsEvent()</text>
<text text-anchor="start" x="712" y="-224" font-family="Helvetica,sans-Serif" font-size="10.00">+ addToData()</text>
<text text-anchor="start" x="712" y="-213" font-family="Helvetica,sans-Serif" font-size="10.00">+ toVariant()</text>
<text text-anchor="start" x="712" y="-202" font-family="Helvetica,sans-Serif" font-size="10.00">+ getData()</text>
<text text-anchor="start" x="712" y="-191" font-family="Helvetica,sans-Serif" font-size="10.00">+ getType()</text>
<text text-anchor="start" x="712" y="-180" font-family="Helvetica,sans-Serif" font-size="10.00">+ getTime()</text>
<text text-anchor="start" x="712" y="-169" font-family="Helvetica,sans-Serif" font-size="10.00"># getEventType()</text>
<text text-anchor="start" x="712" y="-158" font-family="Helvetica,sans-Serif" font-size="10.00"># setEventType()</text>
</g>
<!-- Node2 -->
<g id="node2" class="node"><title>Node2</title>
<g id="a_node2"><a xlink:href="../../dd/d16/classshared_1_1events_1_1event_brush_vacuum_data.xhtml" target="_top" xlink:title="{shared::events::eventBrush\lVacuumData\n||+ eventBrushVacuumData()\l+ eventBrushVacuumData()\l+ mainBrush()\l+ sideBrush()\l+ vacuum()\l}">
<polygon fill="white" stroke="black" points="0,-1 0,-113 136,-113 136,-1 0,-1"/>
<text text-anchor="start" x="8" y="-101" font-family="Helvetica,sans-Serif" font-size="10.00">shared::events::eventBrush</text>
<text text-anchor="middle" x="68" y="-90" font-family="Helvetica,sans-Serif" font-size="10.00">VacuumData</text>
<polyline fill="none" stroke="black" points="0,-83 136,-83 "/>
<text text-anchor="middle" x="68" y="-71" font-family="Helvetica,sans-Serif" font-size="10.00"> </text>
<polyline fill="none" stroke="black" points="0,-64 136,-64 "/>
<text text-anchor="start" x="8" y="-52" font-family="Helvetica,sans-Serif" font-size="10.00">+ eventBrushVacuumData()</text>
<text text-anchor="start" x="8" y="-41" font-family="Helvetica,sans-Serif" font-size="10.00">+ eventBrushVacuumData()</text>
<text text-anchor="start" x="8" y="-30" font-family="Helvetica,sans-Serif" font-size="10.00">+ mainBrush()</text>
<text text-anchor="start" x="8" y="-19" font-family="Helvetica,sans-Serif" font-size="10.00">+ sideBrush()</text>
<text text-anchor="start" x="8" y="-8" font-family="Helvetica,sans-Serif" font-size="10.00">+ vacuum()</text>
</a>
</g>
</g>
<!-- Node1&#45;&gt;Node2 -->
<g id="edge1" class="edge"><title>Node1&#45;&gt;Node2</title>
<path fill="none" stroke="midnightblue" d="M693.836,-234.546C575.389,-225.003 332.315,-196.276 145,-114 142.125,-112.737 139.252,-111.353 136.397,-109.873"/>
<polygon fill="none" stroke="midnightblue" points="693.628,-238.04 703.871,-235.332 694.175,-231.061 693.628,-238.04"/>
</g>
<!-- Node3 -->
<g id="node3" class="node"><title>Node3</title>
<g id="a_node3"><a xlink:href="../../d1/d68/classshared_1_1events_1_1event_chat.xhtml" target="_top" xlink:title="Class containing a chatEvent.">
<polygon fill="white" stroke="black" points="154,-12 154,-102 282,-102 282,-12 154,-12"/>
<text text-anchor="middle" x="218" y="-90" font-family="Helvetica,sans-Serif" font-size="10.00">shared::events::eventChat</text>
<polyline fill="none" stroke="black" points="154,-83 282,-83 "/>
<text text-anchor="middle" x="218" y="-71" font-family="Helvetica,sans-Serif" font-size="10.00"> </text>
<polyline fill="none" stroke="black" points="154,-64 282,-64 "/>
<text text-anchor="start" x="162" y="-52" font-family="Helvetica,sans-Serif" font-size="10.00">+ eventChat()</text>
<text text-anchor="start" x="162" y="-41" font-family="Helvetica,sans-Serif" font-size="10.00">+ eventChat()</text>
<text text-anchor="start" x="162" y="-30" font-family="Helvetica,sans-Serif" font-size="10.00">+ getUser()</text>
<text text-anchor="start" x="162" y="-19" font-family="Helvetica,sans-Serif" font-size="10.00">+ getMessage()</text>
</a>
</g>
</g>
<!-- Node1&#45;&gt;Node3 -->
<g id="edge2" class="edge"><title>Node1&#45;&gt;Node3</title>
<path fill="none" stroke="midnightblue" d="M693.811,-229.234C598.299,-214.16 425.169,-179.824 291,-114 284.117,-110.623 277.248,-106.544 270.631,-102.144"/>
<polygon fill="none" stroke="midnightblue" points="693.518,-232.731 703.937,-230.806 694.592,-225.813 693.518,-232.731"/>
</g>
<!-- Node4 -->
<g id="node4" class="node"><title>Node4</title>
<g id="a_node4"><a xlink:href="../../d2/de8/classshared_1_1events_1_1event_current_action_data.xhtml" target="_top" xlink:title="{shared::events::eventCurrent\lActionData\n||+ eventCurrentActionData()\l+ eventCurrentActionData()\l+ currentAction()\l}">
<polygon fill="white" stroke="black" points="300,-12 300,-102 440,-102 440,-12 300,-12"/>
<text text-anchor="start" x="308" y="-90" font-family="Helvetica,sans-Serif" font-size="10.00">shared::events::eventCurrent</text>
<text text-anchor="middle" x="370" y="-79" font-family="Helvetica,sans-Serif" font-size="10.00">ActionData</text>
<polyline fill="none" stroke="black" points="300,-72 440,-72 "/>
<text text-anchor="middle" x="370" y="-60" font-family="Helvetica,sans-Serif" font-size="10.00"> </text>
<polyline fill="none" stroke="black" points="300,-53 440,-53 "/>
<text text-anchor="start" x="308" y="-41" font-family="Helvetica,sans-Serif" font-size="10.00">+ eventCurrentActionData()</text>
<text text-anchor="start" x="308" y="-30" font-family="Helvetica,sans-Serif" font-size="10.00">+ eventCurrentActionData()</text>
<text text-anchor="start" x="308" y="-19" font-family="Helvetica,sans-Serif" font-size="10.00">+ currentAction()</text>
</a>
</g>
</g>
<!-- Node1&#45;&gt;Node4 -->
<g id="edge3" class="edge"><title>Node1&#45;&gt;Node4</title>
<path fill="none" stroke="midnightblue" d="M694.147,-216.449C628.637,-194.338 529.542,-157.652 449,-114 442.349,-110.395 435.595,-106.327 428.98,-102.071"/>
<polygon fill="none" stroke="midnightblue" points="693.369,-219.879 703.963,-219.738 695.593,-213.242 693.369,-219.879"/>
</g>
<!-- Node5 -->
<g id="node5" class="node"><title>Node5</title>
<g id="a_node5"><a xlink:href="../../df/d92/classshared_1_1events_1_1event_logging.xhtml" target="_top" xlink:title="{shared::events::eventLogging\n||+ eventLogging()\l+ eventLogging()\l+ getEntries()\l}">
<polygon fill="white" stroke="black" points="458,-17.5 458,-96.5 600,-96.5 600,-17.5 458,-17.5"/>
<text text-anchor="middle" x="529" y="-84.5" font-family="Helvetica,sans-Serif" font-size="10.00">shared::events::eventLogging</text>
<polyline fill="none" stroke="black" points="458,-77.5 600,-77.5 "/>
<text text-anchor="middle" x="529" y="-65.5" font-family="Helvetica,sans-Serif" font-size="10.00"> </text>
<polyline fill="none" stroke="black" points="458,-58.5 600,-58.5 "/>
<text text-anchor="start" x="466" y="-46.5" font-family="Helvetica,sans-Serif" font-size="10.00">+ eventLogging()</text>
<text text-anchor="start" x="466" y="-35.5" font-family="Helvetica,sans-Serif" font-size="10.00">+ eventLogging()</text>
<text text-anchor="start" x="466" y="-24.5" font-family="Helvetica,sans-Serif" font-size="10.00">+ getEntries()</text>
</a>
</g>
</g>
<!-- Node1&#45;&gt;Node5 -->
<g id="edge4" class="edge"><title>Node1&#45;&gt;Node5</title>
<path fill="none" stroke="midnightblue" d="M695.614,-185.784C658.389,-157.235 613.342,-122.686 579.478,-96.7141"/>
<polygon fill="none" stroke="midnightblue" points="693.852,-188.844 703.917,-192.153 698.112,-183.29 693.852,-188.844"/>
</g>
<!-- Node6 -->
<g id="node6" class="node"><title>Node6</title>
<g id="a_node6"><a xlink:href="../../d6/d35/classshared_1_1events_1_1event_sensor.xhtml" target="_top" xlink:title="{shared::events::eventSensor\n||+ eventSensor()\l+ eventSensor()\l+ getID()\l+ getValue()\l}">
<polygon fill="white" stroke="black" points="618.5,-12 618.5,-102 757.5,-102 757.5,-12 618.5,-12"/>
<text text-anchor="middle" x="688" y="-90" font-family="Helvetica,sans-Serif" font-size="10.00">shared::events::eventSensor</text>
<polyline fill="none" stroke="black" points="618.5,-83 757.5,-83 "/>
<text text-anchor="middle" x="688" y="-71" font-family="Helvetica,sans-Serif" font-size="10.00"> </text>
<polyline fill="none" stroke="black" points="618.5,-64 757.5,-64 "/>
<text text-anchor="start" x="626.5" y="-52" font-family="Helvetica,sans-Serif" font-size="10.00">+ eventSensor()</text>
<text text-anchor="start" x="626.5" y="-41" font-family="Helvetica,sans-Serif" font-size="10.00">+ eventSensor()</text>
<text text-anchor="start" x="626.5" y="-30" font-family="Helvetica,sans-Serif" font-size="10.00">+ getID()</text>
<text text-anchor="start" x="626.5" y="-19" font-family="Helvetica,sans-Serif" font-size="10.00">+ getValue()</text>
</a>
</g>
</g>
<!-- Node1&#45;&gt;Node6 -->
<g id="edge5" class="edge"><title>Node1&#45;&gt;Node6</title>
<path fill="none" stroke="midnightblue" d="M723.472,-141.382C717.644,-127.683 711.909,-114.203 706.806,-102.207"/>
<polygon fill="none" stroke="midnightblue" points="720.38,-143.054 727.515,-150.886 726.821,-140.314 720.38,-143.054"/>
</g>
<!-- Node7 -->
<g id="node7" class="node"><title>Node7</title>
<g id="a_node7"><a xlink:href="../../d6/dfe/classshared_1_1events_1_1event_server_message.xhtml" target="_top" xlink:title="Class that contains data for when the server wants to say something.">
<polygon fill="white" stroke="black" points="775.5,-6.5 775.5,-107.5 910.5,-107.5 910.5,-6.5 775.5,-6.5"/>
<text text-anchor="start" x="783.5" y="-95.5" font-family="Helvetica,sans-Serif" font-size="10.00">shared::events::eventServer</text>
<text text-anchor="middle" x="843" y="-84.5" font-family="Helvetica,sans-Serif" font-size="10.00">Message</text>
<polyline fill="none" stroke="black" points="775.5,-77.5 910.5,-77.5 "/>
<text text-anchor="middle" x="843" y="-65.5" font-family="Helvetica,sans-Serif" font-size="10.00"> </text>
<polyline fill="none" stroke="black" points="775.5,-58.5 910.5,-58.5 "/>
<text text-anchor="start" x="783.5" y="-46.5" font-family="Helvetica,sans-Serif" font-size="10.00">+ eventServerMessage()</text>
<text text-anchor="start" x="783.5" y="-35.5" font-family="Helvetica,sans-Serif" font-size="10.00">+ eventServerMessage()</text>
<text text-anchor="start" x="783.5" y="-24.5" font-family="Helvetica,sans-Serif" font-size="10.00">+ getMessage()</text>
<text text-anchor="start" x="783.5" y="-13.5" font-family="Helvetica,sans-Serif" font-size="10.00">+ getLevel()</text>
</a>
</g>
</g>
<!-- Node1&#45;&gt;Node7 -->
<g id="edge6" class="edge"><title>Node1&#45;&gt;Node7</title>
<path fill="none" stroke="midnightblue" d="M806.991,-141.559C811.993,-129.952 816.929,-118.497 821.468,-107.966"/>
<polygon fill="none" stroke="midnightblue" points="803.715,-140.317 802.972,-150.886 810.144,-143.088 803.715,-140.317"/>
</g>
<!-- Node8 -->
<g id="node8" class="node"><title>Node8</title>
<g id="a_node8"><a xlink:href="../../d5/de1/classshared_1_1events_1_1event_user_change_nick.xhtml" target="_top" xlink:title="Class containing a user who changes his nick&#45;event (nick|status)">
<polygon fill="white" stroke="black" points="929,-1 929,-113 1057,-113 1057,-1 929,-1"/>
<text text-anchor="start" x="937" y="-101" font-family="Helvetica,sans-Serif" font-size="10.00">shared::events::eventUser</text>
<text text-anchor="middle" x="993" y="-90" font-family="Helvetica,sans-Serif" font-size="10.00">ChangeNick</text>
<polyline fill="none" stroke="black" points="929,-83 1057,-83 "/>
<text text-anchor="middle" x="993" y="-71" font-family="Helvetica,sans-Serif" font-size="10.00"> </text>
<polyline fill="none" stroke="black" points="929,-64 1057,-64 "/>
<text text-anchor="start" x="937" y="-52" font-family="Helvetica,sans-Serif" font-size="10.00">+ eventUserChangeNick()</text>
<text text-anchor="start" x="937" y="-41" font-family="Helvetica,sans-Serif" font-size="10.00">+ eventUserChangeNick()</text>
<text text-anchor="start" x="937" y="-30" font-family="Helvetica,sans-Serif" font-size="10.00">+ getUserId()</text>
<text text-anchor="start" x="937" y="-19" font-family="Helvetica,sans-Serif" font-size="10.00">+ getNewNick()</text>
<text text-anchor="start" x="937" y="-8" font-family="Helvetica,sans-Serif" font-size="10.00">+ getOldNick()</text>
</a>
</g>
</g>
<!-- Node1&#45;&gt;Node8 -->
<g id="edge7" class="edge"><title>Node1&#45;&gt;Node8</title>
<path fill="none" stroke="midnightblue" d="M834.058,-184.178C864.217,-160.235 899.373,-132.327 928.942,-108.853"/>
<polygon fill="none" stroke="midnightblue" points="831.756,-181.536 826.1,-190.495 836.108,-187.019 831.756,-181.536"/>
</g>
<!-- Node9 -->
<g id="node9" class="node"><title>Node9</title>
<g id="a_node9"><a xlink:href="../../d3/dcc/classshared_1_1events_1_1event_user_change_status.xhtml" target="_top" xlink:title="Class containing a user who changes his status&#45;event (nick|status)">
<polygon fill="white" stroke="black" points="1075,-1 1075,-113 1211,-113 1211,-1 1075,-1"/>
<text text-anchor="start" x="1083" y="-101" font-family="Helvetica,sans-Serif" font-size="10.00">shared::events::eventUser</text>
<text text-anchor="middle" x="1143" y="-90" font-family="Helvetica,sans-Serif" font-size="10.00">ChangeStatus</text>
<polyline fill="none" stroke="black" points="1075,-83 1211,-83 "/>
<text text-anchor="middle" x="1143" y="-71" font-family="Helvetica,sans-Serif" font-size="10.00"> </text>
<polyline fill="none" stroke="black" points="1075,-64 1211,-64 "/>
<text text-anchor="start" x="1083" y="-52" font-family="Helvetica,sans-Serif" font-size="10.00">+ eventUserChangeStatus()</text>
<text text-anchor="start" x="1083" y="-41" font-family="Helvetica,sans-Serif" font-size="10.00">+ eventUserChangeStatus()</text>
<text text-anchor="start" x="1083" y="-30" font-family="Helvetica,sans-Serif" font-size="10.00">+ getUserId()</text>
<text text-anchor="start" x="1083" y="-19" font-family="Helvetica,sans-Serif" font-size="10.00">+ getNewStatus()</text>
<text text-anchor="start" x="1083" y="-8" font-family="Helvetica,sans-Serif" font-size="10.00">+ getOldStatus()</text>
</a>
</g>
</g>
<!-- Node1&#45;&gt;Node9 -->
<g id="edge8" class="edge"><title>Node1&#45;&gt;Node9</title>
<path fill="none" stroke="midnightblue" d="M835.807,-214.965C898.227,-192.534 990.698,-156.24 1066,-114 1068.88,-112.383 1071.79,-110.676 1074.69,-108.905"/>
<polygon fill="none" stroke="midnightblue" points="834.296,-211.788 826.054,-218.444 836.648,-218.38 834.296,-211.788"/>
</g>
<!-- Node10 -->
<g id="node10" class="node"><title>Node10</title>
<g id="a_node10"><a xlink:href="../../dd/d05/classshared_1_1events_1_1event_user_join.xhtml" target="_top" xlink:title="Class containing a user JOIN event.">
<polygon fill="white" stroke="black" points="1229,-12 1229,-102 1375,-102 1375,-12 1229,-12"/>
<text text-anchor="middle" x="1302" y="-90" font-family="Helvetica,sans-Serif" font-size="10.00">shared::events::eventUserJoin</text>
<polyline fill="none" stroke="black" points="1229,-83 1375,-83 "/>
<text text-anchor="middle" x="1302" y="-71" font-family="Helvetica,sans-Serif" font-size="10.00"> </text>
<polyline fill="none" stroke="black" points="1229,-64 1375,-64 "/>
<text text-anchor="start" x="1237" y="-52" font-family="Helvetica,sans-Serif" font-size="10.00">+ eventUserJoin()</text>
<text text-anchor="start" x="1237" y="-41" font-family="Helvetica,sans-Serif" font-size="10.00">+ eventUserJoin()</text>
<text text-anchor="start" x="1237" y="-30" font-family="Helvetica,sans-Serif" font-size="10.00">+ getUserId()</text>
<text text-anchor="start" x="1237" y="-19" font-family="Helvetica,sans-Serif" font-size="10.00">+ getUser()</text>
</a>
</g>
</g>
<!-- Node1&#45;&gt;Node10 -->
<g id="edge9" class="edge"><title>Node1&#45;&gt;Node10</title>
<path fill="none" stroke="midnightblue" d="M836.127,-227.027C927.886,-209.906 1091.03,-173.719 1220,-114 1227.35,-110.596 1234.77,-106.554 1241.98,-102.223"/>
<polygon fill="none" stroke="midnightblue" points="835.315,-223.618 826.115,-228.873 836.583,-230.502 835.315,-223.618"/>
</g>
<!-- Node11 -->
<g id="node11" class="node"><title>Node11</title>
<g id="a_node11"><a xlink:href="../../d9/d9f/classshared_1_1events_1_1event_user_leave.xhtml" target="_top" xlink:title="Class containing a user PART event.">
<polygon fill="white" stroke="black" points="1393,-12 1393,-102 1521,-102 1521,-12 1393,-12"/>
<text text-anchor="start" x="1401" y="-90" font-family="Helvetica,sans-Serif" font-size="10.00">shared::events::eventUser</text>
<text text-anchor="middle" x="1457" y="-79" font-family="Helvetica,sans-Serif" font-size="10.00">Leave</text>
<polyline fill="none" stroke="black" points="1393,-72 1521,-72 "/>
<text text-anchor="middle" x="1457" y="-60" font-family="Helvetica,sans-Serif" font-size="10.00"> </text>
<polyline fill="none" stroke="black" points="1393,-53 1521,-53 "/>
<text text-anchor="start" x="1401" y="-41" font-family="Helvetica,sans-Serif" font-size="10.00">+ eventUserLeave()</text>
<text text-anchor="start" x="1401" y="-30" font-family="Helvetica,sans-Serif" font-size="10.00">+ eventUserLeave()</text>
<text text-anchor="start" x="1401" y="-19" font-family="Helvetica,sans-Serif" font-size="10.00">+ getUserId()</text>
</a>
</g>
</g>
<!-- Node1&#45;&gt;Node11 -->
<g id="edge10" class="edge"><title>Node1&#45;&gt;Node11</title>
<path fill="none" stroke="midnightblue" d="M836.286,-235.054C954.886,-226.248 1198.05,-198.563 1384,-114 1391.27,-110.694 1398.49,-106.543 1405.39,-102.003"/>
<polygon fill="none" stroke="midnightblue" points="835.961,-231.568 826.238,-235.777 836.463,-238.55 835.961,-231.568"/>
</g>
</g>
</svg>
        <g id="navigator" transform="translate(0 0)" fill="#404254">
                <rect fill="#f2f5e9" fill-opacity="0.5" stroke="#606060" stroke-width=".5" x="0" y="0" width="60" height="60"/>
                <use id="zoomplus" xlink:href="#zoomPlus" x="17" y="9" onmousedown="handleZoom(evt,'in')"/>
                <use id="zoomminus" xlink:href="#zoomMin" x="42" y="9" onmousedown="handleZoom(evt,'out')"/>
                <use id="reset" xlink:href="#resetDef" x="30" y="36" onmousedown="handleReset()"/>
                <g id="arrowUp" xlink:href="#dirArrow" transform="translate(30 24)" onmousedown="handlePan(0,-1)">
                  <use xlink:href="#rim" fill="#404040">
                        <set attributeName="fill" to="#808080" begin="arrowUp.mouseover" end="arrowUp.mouseout"/>
                  </use>
                  <path fill="none" stroke="white" stroke-width="1.5" d="M0,-3.0v7 M-2.5,-0.5L0,-3.0L2.5,-0.5"/>
                </g>
                <g id="arrowRight" xlink:href="#dirArrow" transform="rotate(90) translate(36 -43)" onmousedown="handlePan(1,0)">
                  <use xlink:href="#rim" fill="#404040">
                        <set attributeName="fill" to="#808080" begin="arrowRight.mouseover" end="arrowRight.mouseout"/>
                  </use>
                  <path fill="none" stroke="white" stroke-width="1.5" d="M0,-3.0v7 M-2.5,-0.5L0,-3.0L2.5,-0.5"/>
                </g>
                <g id="arrowDown" xlink:href="#dirArrow" transform="rotate(180) translate(-30 -48)" onmousedown="handlePan(0,1)">
                  <use xlink:href="#rim" fill="#404040">
                        <set attributeName="fill" to="#808080" begin="arrowDown.mouseover" end="arrowDown.mouseout"/>
                  </use>
                  <path fill="none" stroke="white" stroke-width="1.5" d="M0,-3.0v7 M-2.5,-0.5L0,-3.0L2.5,-0.5"/>
                </g>
                <g id="arrowLeft" xlink:href="#dirArrow" transform="rotate(270) translate(-36 17)" onmousedown="handlePan(-1,0)">
                  <use xlink:href="#rim" fill="#404040">
                        <set attributeName="fill" to="#808080" begin="arrowLeft.mouseover" end="arrowLeft.mouseout"/>
                  </use>
                  <path fill="none" stroke="white" stroke-width="1.5" d="M0,-3.0v7 M-2.5,-0.5L0,-3.0L2.5,-0.5"/>
                </g>
        </g>
        <svg viewBox="0 0 15 15" width="100%" height="30px" preserveAspectRatio="xMaxYMin meet">
         <g id="arrow_out" transform="scale(0.3 0.3)">
          <a xlink:href="classshared_1_1events_1_1cls_event__inherit__graph_org.svg" target="_base">
           <rect id="button" ry="5" rx="5" y="6" x="6" height="38" width="38"
                fill="#f2f5e9" fill-opacity="0.5" stroke="#606060" stroke-width="1.0"/>
           <path id="arrow"
             d="M 11.500037,31.436501 C 11.940474,20.09759 22.043105,11.32322 32.158766,21.979434 L 37.068811,17.246167 C 37.068811,17.246167 37.088388,32 37.088388,32 L 22.160133,31.978069 C 22.160133,31.978069 26.997745,27.140456 26.997745,27.140456 C 18.528582,18.264221 13.291696,25.230495 11.500037,31.436501 z"
             style="fill:#404040;"/>
          </a>
         </g>
        </svg>
</svg>
