<?xml version="1.0" encoding="UTF-8" standalone="no"?>
<!DOCTYPE svg PUBLIC "-//W3C//DTD SVG 1.1//EN"
 "http://www.w3.org/Graphics/SVG/1.1/DTD/svg11.dtd">
<!-- Generated by graphviz version 2.30.1 (20130214.1330)
 -->
<!-- Title: GUI/resources/jsoncommand.h Pages: 1 -->
<svg width="586pt" height="140pt"
 viewBox="0.00 0.00 586.00 140.00" xmlns="http://www.w3.org/2000/svg" xmlns:xlink="http://www.w3.org/1999/xlink">
<g id="graph0" class="graph" transform="scale(1 1) rotate(0) translate(4 136)">
<title>GUI/resources/jsoncommand.h</title>
<polygon fill="white" stroke="white" points="-4,5 -4,-136 583,-136 583,5 -4,5"/>
<!-- Node1 -->
<g id="node1" class="node"><title>Node1</title>
<polygon fill="#bfbfbf" stroke="black" points="70.5,-112.5 70.5,-131.5 221.5,-131.5 221.5,-112.5 70.5,-112.5"/>
<text text-anchor="middle" x="146" y="-119.5" font-family="Helvetica,sans-Serif" font-size="10.00">GUI/resources/jsoncommand.h</text>
</g>
<!-- Node2 -->
<g id="node2" class="node"><title>Node2</title>
<polygon fill="white" stroke="#bfbfbf" points="-0.5,-56.5 -0.5,-75.5 52.5,-75.5 52.5,-56.5 -0.5,-56.5"/>
<text text-anchor="middle" x="26" y="-63.5" font-family="Helvetica,sans-Serif" font-size="10.00">QObject</text>
</g>
<!-- Node1&#45;&gt;Node2 -->
<g id="edge1" class="edge"><title>Node1&#45;&gt;Node2</title>
<path fill="none" stroke="midnightblue" d="M126.986,-112.444C107.412,-103.636 76.6924,-89.8116 54.2711,-79.722"/>
<polygon fill="midnightblue" stroke="midnightblue" points="55.4809,-76.4284 44.9254,-75.5164 52.6083,-82.8119 55.4809,-76.4284"/>
</g>
<!-- Node3 -->
<g id="node3" class="node"><title>Node3</title>
<polygon fill="white" stroke="#bfbfbf" points="71,-56.5 71,-75.5 145,-75.5 145,-56.5 71,-56.5"/>
<text text-anchor="middle" x="108" y="-63.5" font-family="Helvetica,sans-Serif" font-size="10.00">QVariantMap</text>
</g>
<!-- Node1&#45;&gt;Node3 -->
<g id="edge2" class="edge"><title>Node1&#45;&gt;Node3</title>
<path fill="none" stroke="midnightblue" d="M139.725,-112.083C134.358,-104.455 126.482,-93.2645 119.921,-83.9408"/>
<polygon fill="midnightblue" stroke="midnightblue" points="122.775,-81.9149 114.158,-75.7511 117.051,-85.9434 122.775,-81.9149"/>
</g>
<!-- Node4 -->
<g id="node4" class="node"><title>Node4</title>
<g id="a_node4"><a xlink:href="../../d4/d05/json_8h.xhtml" target="_top" xlink:title="json.h">
<polygon fill="white" stroke="black" points="163.5,-56.5 163.5,-75.5 206.5,-75.5 206.5,-56.5 163.5,-56.5"/>
<text text-anchor="middle" x="185" y="-63.5" font-family="Helvetica,sans-Serif" font-size="10.00">json.h</text>
</a>
</g>
</g>
<!-- Node1&#45;&gt;Node4 -->
<g id="edge3" class="edge"><title>Node1&#45;&gt;Node4</title>
<path fill="none" stroke="midnightblue" d="M152.44,-112.083C157.949,-104.455 166.031,-93.2645 172.765,-83.9408"/>
<polygon fill="midnightblue" stroke="midnightblue" points="175.662,-85.9071 178.68,-75.7511 169.987,-81.8087 175.662,-85.9071"/>
</g>
<!-- Node7 -->
<g id="node7" class="node"><title>Node7</title>
<g id="a_node7"><a xlink:href="../../d7/d62/clslog_8h.xhtml" target="_top" xlink:title="clslog.h">
<polygon fill="white" stroke="black" points="342,-56.5 342,-75.5 392,-75.5 392,-56.5 342,-56.5"/>
<text text-anchor="middle" x="367" y="-63.5" font-family="Helvetica,sans-Serif" font-size="10.00">clslog.h</text>
</a>
</g>
</g>
<!-- Node1&#45;&gt;Node7 -->
<g id="edge6" class="edge"><title>Node1&#45;&gt;Node7</title>
<path fill="none" stroke="midnightblue" d="M181.018,-112.444C222.309,-102.354 290.534,-85.6841 331.872,-75.5833"/>
<polygon fill="midnightblue" stroke="midnightblue" points="332.886,-78.9386 341.77,-73.1649 331.225,-72.1386 332.886,-78.9386"/>
</g>
<!-- Node5 -->
<g id="node5" class="node"><title>Node5</title>
<polygon fill="white" stroke="#bfbfbf" points="86.5,-0.5 86.5,-19.5 141.5,-19.5 141.5,-0.5 86.5,-0.5"/>
<text text-anchor="middle" x="114" y="-7.5" font-family="Helvetica,sans-Serif" font-size="10.00">QVariant</text>
</g>
<!-- Node4&#45;&gt;Node5 -->
<g id="edge4" class="edge"><title>Node4&#45;&gt;Node5</title>
<path fill="none" stroke="midnightblue" d="M173.593,-56.324C162.891,-48.1849 146.659,-35.8395 133.837,-26.0874"/>
<polygon fill="midnightblue" stroke="midnightblue" points="135.693,-23.1018 125.615,-19.8339 131.456,-28.6734 135.693,-23.1018"/>
</g>
<!-- Node6 -->
<g id="node6" class="node"><title>Node6</title>
<polygon fill="white" stroke="#bfbfbf" points="160,-0.5 160,-19.5 210,-19.5 210,-0.5 160,-0.5"/>
<text text-anchor="middle" x="185" y="-7.5" font-family="Helvetica,sans-Serif" font-size="10.00">QString</text>
</g>
<!-- Node4&#45;&gt;Node6 -->
<g id="edge5" class="edge"><title>Node4&#45;&gt;Node6</title>
<path fill="none" stroke="midnightblue" d="M185,-56.083C185,-49.0059 185,-38.8611 185,-29.9865"/>
<polygon fill="midnightblue" stroke="midnightblue" points="188.5,-29.751 185,-19.7511 181.5,-29.7511 188.5,-29.751"/>
</g>
<!-- Node8 -->
<g id="node8" class="node"><title>Node8</title>
<polygon fill="white" stroke="#bfbfbf" points="228,-0.5 228,-19.5 280,-19.5 280,-0.5 228,-0.5"/>
<text text-anchor="middle" x="254" y="-7.5" font-family="Helvetica,sans-Serif" font-size="10.00">QDebug</text>
</g>
<!-- Node7&#45;&gt;Node8 -->
<g id="edge7" class="edge"><title>Node7&#45;&gt;Node8</title>
<path fill="none" stroke="midnightblue" d="M349.095,-56.4435C330.746,-47.6751 301.995,-33.9355 280.906,-23.8579"/>
<polygon fill="midnightblue" stroke="midnightblue" points="282.353,-20.6703 271.821,-19.5164 279.335,-26.9862 282.353,-20.6703"/>
</g>
<!-- Node9 -->
<g id="node9" class="node"><title>Node9</title>
<polygon fill="white" stroke="#bfbfbf" points="298.5,-0.5 298.5,-19.5 363.5,-19.5 363.5,-0.5 298.5,-0.5"/>
<text text-anchor="middle" x="331" y="-7.5" font-family="Helvetica,sans-Serif" font-size="10.00">QDateTime</text>
</g>
<!-- Node7&#45;&gt;Node9 -->
<g id="edge8" class="edge"><title>Node7&#45;&gt;Node9</title>
<path fill="none" stroke="midnightblue" d="M361.055,-56.083C356.023,-48.5341 348.663,-37.4948 342.487,-28.2298"/>
<polygon fill="midnightblue" stroke="midnightblue" points="345.293,-26.1301 336.834,-19.7511 339.469,-30.0131 345.293,-26.1301"/>
</g>
<!-- Node10 -->
<g id="node10" class="node"><title>Node10</title>
<polygon fill="white" stroke="#bfbfbf" points="381.5,-0.5 381.5,-19.5 422.5,-19.5 422.5,-0.5 381.5,-0.5"/>
<text text-anchor="middle" x="402" y="-7.5" font-family="Helvetica,sans-Serif" font-size="10.00">string</text>
</g>
<!-- Node7&#45;&gt;Node10 -->
<g id="edge9" class="edge"><title>Node7&#45;&gt;Node10</title>
<path fill="none" stroke="midnightblue" d="M372.78,-56.083C377.672,-48.5341 384.827,-37.4948 390.833,-28.2298"/>
<polygon fill="midnightblue" stroke="midnightblue" points="393.826,-30.0463 396.328,-19.7511 387.952,-26.239 393.826,-30.0463"/>
</g>
<!-- Node11 -->
<g id="node11" class="node"><title>Node11</title>
<polygon fill="white" stroke="#bfbfbf" points="441,-0.5 441,-19.5 495,-19.5 495,-0.5 441,-0.5"/>
<text text-anchor="middle" x="468" y="-7.5" font-family="Helvetica,sans-Serif" font-size="10.00">iostream</text>
</g>
<!-- Node7&#45;&gt;Node11 -->
<g id="edge10" class="edge"><title>Node7&#45;&gt;Node11</title>
<path fill="none" stroke="midnightblue" d="M383.227,-56.324C399.351,-47.7034 424.3,-34.3643 442.964,-24.3855"/>
<polygon fill="midnightblue" stroke="midnightblue" points="444.644,-27.456 451.813,-19.6545 441.344,-21.283 444.644,-27.456"/>
</g>
<!-- Node12 -->
<g id="node12" class="node"><title>Node12</title>
<polygon fill="white" stroke="#bfbfbf" points="513.5,-0.5 513.5,-19.5 578.5,-19.5 578.5,-0.5 513.5,-0.5"/>
<text text-anchor="middle" x="546" y="-7.5" font-family="Helvetica,sans-Serif" font-size="10.00">QStringList</text>
</g>
<!-- Node7&#45;&gt;Node12 -->
<g id="edge11" class="edge"><title>Node7&#45;&gt;Node12</title>
<path fill="none" stroke="midnightblue" d="M392.267,-57.3776C422.352,-48.3017 472.903,-33.0515 507.778,-22.5306"/>
<polygon fill="midnightblue" stroke="midnightblue" points="509.05,-25.8028 517.613,-19.5637 507.028,-19.1011 509.05,-25.8028"/>
</g>
</g>
</svg>
