<?xml version="1.0" encoding="UTF-8" standalone="no"?>
<!DOCTYPE svg PUBLIC "-//W3C//DTD SVG 1.1//EN"
 "http://www.w3.org/Graphics/SVG/1.1/DTD/svg11.dtd">
<!-- Generated by graphviz version 2.30.1 (20130214.1330)
 -->
<!-- Title: Hoofdprogramma/ourProgram/src/tcpProtocol.h Pages: 1 -->
<svg width="638pt" height="176pt"
 viewBox="0.00 0.00 638.00 176.00" xmlns="http://www.w3.org/2000/svg" xmlns:xlink="http://www.w3.org/1999/xlink">
<g id="graph0" class="graph" transform="scale(1 1) rotate(0) translate(4 172)">
<title>Hoofdprogramma/ourProgram/src/tcpProtocol.h</title>
<polygon fill="white" stroke="white" points="-4,5 -4,-172 635,-172 635,5 -4,5"/>
<!-- Node1 -->
<g id="node1" class="node"><title>Node1</title>
<polygon fill="#bfbfbf" stroke="black" points="245.5,-137 245.5,-167 388.5,-167 388.5,-137 245.5,-137"/>
<text text-anchor="start" x="253.5" y="-155" font-family="Helvetica,sans-Serif" font-size="10.00">Hoofdprogramma/ourProgram</text>
<text text-anchor="middle" x="317" y="-144" font-family="Helvetica,sans-Serif" font-size="10.00">/src/tcpProtocol.h</text>
</g>
<!-- Node2 -->
<g id="node2" class="node"><title>Node2</title>
<g id="a_node2"><a xlink:href="../../d4/ddd/json_translate_capsule_8h.xhtml" target="_top" xlink:title="Hoofdprogramma/ourProgram\l/src/jsonTranslateCapsule.h">
<polygon fill="white" stroke="black" points="3.5,-69 3.5,-99 146.5,-99 146.5,-69 3.5,-69"/>
<text text-anchor="start" x="11.5" y="-87" font-family="Helvetica,sans-Serif" font-size="10.00">Hoofdprogramma/ourProgram</text>
<text text-anchor="middle" x="75" y="-76" font-family="Helvetica,sans-Serif" font-size="10.00">/src/jsonTranslateCapsule.h</text>
</a>
</g>
</g>
<!-- Node1&#45;&gt;Node2 -->
<g id="edge1" class="edge"><title>Node1&#45;&gt;Node2</title>
<path fill="none" stroke="midnightblue" d="M255.506,-134.229C215.629,-123.353 164.271,-109.347 126.539,-99.0561"/>
<polygon fill="midnightblue" stroke="midnightblue" points="254.813,-137.668 265.382,-136.922 256.655,-130.914 254.813,-137.668"/>
</g>
<!-- Node4 -->
<g id="node4" class="node"><title>Node4</title>
<g id="a_node4"><a xlink:href="../../de/d33/tcp_capsule_8h.xhtml" target="_top" xlink:title="Hoofdprogramma/ourProgram\l/src/tcpCapsule.h">
<polygon fill="white" stroke="black" points="165.5,-69 165.5,-99 308.5,-99 308.5,-69 165.5,-69"/>
<text text-anchor="start" x="173.5" y="-87" font-family="Helvetica,sans-Serif" font-size="10.00">Hoofdprogramma/ourProgram</text>
<text text-anchor="middle" x="237" y="-76" font-family="Helvetica,sans-Serif" font-size="10.00">/src/tcpCapsule.h</text>
</a>
</g>
</g>
<!-- Node1&#45;&gt;Node4 -->
<g id="edge3" class="edge"><title>Node1&#45;&gt;Node4</title>
<path fill="none" stroke="midnightblue" d="M291.92,-130.309C279.597,-120.143 265.068,-108.156 254.05,-99.0663"/>
<polygon fill="midnightblue" stroke="midnightblue" points="289.7,-133.015 299.641,-136.679 294.155,-127.615 289.7,-133.015"/>
</g>
<!-- Node6 -->
<g id="node6" class="node"><title>Node6</title>
<g id="a_node6"><a xlink:href="../../d5/d65/tcp_protocol_8cpp.xhtml" target="_top" xlink:title="Hoofdprogramma/ourProgram\l/src/tcpProtocol.cpp">
<polygon fill="white" stroke="black" points="326.5,-69 326.5,-99 469.5,-99 469.5,-69 326.5,-69"/>
<text text-anchor="start" x="334.5" y="-87" font-family="Helvetica,sans-Serif" font-size="10.00">Hoofdprogramma/ourProgram</text>
<text text-anchor="middle" x="398" y="-76" font-family="Helvetica,sans-Serif" font-size="10.00">/src/tcpProtocol.cpp</text>
</a>
</g>
</g>
<!-- Node1&#45;&gt;Node6 -->
<g id="edge5" class="edge"><title>Node1&#45;&gt;Node6</title>
<path fill="none" stroke="midnightblue" d="M342.393,-130.309C354.87,-120.143 369.581,-108.156 380.737,-99.0663"/>
<polygon fill="midnightblue" stroke="midnightblue" points="340.117,-127.649 334.576,-136.679 344.539,-133.076 340.117,-127.649"/>
</g>
<!-- Node7 -->
<g id="node7" class="node"><title>Node7</title>
<g id="a_node7"><a xlink:href="../../d9/d5c/tcp_top_capsule_8cpp.xhtml" target="_top" xlink:title="Hoofdprogramma/ourProgram\l/src/tcpTopCapsule.cpp">
<polygon fill="white" stroke="black" points="487.5,-69 487.5,-99 630.5,-99 630.5,-69 487.5,-69"/>
<text text-anchor="start" x="495.5" y="-87" font-family="Helvetica,sans-Serif" font-size="10.00">Hoofdprogramma/ourProgram</text>
<text text-anchor="middle" x="559" y="-76" font-family="Helvetica,sans-Serif" font-size="10.00">/src/tcpTopCapsule.cpp</text>
</a>
</g>
</g>
<!-- Node1&#45;&gt;Node7 -->
<g id="edge6" class="edge"><title>Node1&#45;&gt;Node7</title>
<path fill="none" stroke="midnightblue" d="M378.494,-134.229C418.371,-123.353 469.729,-109.347 507.461,-99.0561"/>
<polygon fill="midnightblue" stroke="midnightblue" points="377.345,-130.914 368.618,-136.922 379.187,-137.668 377.345,-130.914"/>
</g>
<!-- Node3 -->
<g id="node3" class="node"><title>Node3</title>
<g id="a_node3"><a xlink:href="../../d0/d63/json_translate_capsule_8cpp.xhtml" target="_top" xlink:title="Hoofdprogramma/ourProgram\l/src/jsonTranslateCapsule.cpp">
<polygon fill="white" stroke="black" points="0,-1 0,-31 148,-31 148,-1 0,-1"/>
<text text-anchor="start" x="8" y="-19" font-family="Helvetica,sans-Serif" font-size="10.00">Hoofdprogramma/ourProgram</text>
<text text-anchor="middle" x="74" y="-8" font-family="Helvetica,sans-Serif" font-size="10.00">/src/jsonTranslateCapsule.cpp</text>
</a>
</g>
</g>
<!-- Node2&#45;&gt;Node3 -->
<g id="edge2" class="edge"><title>Node2&#45;&gt;Node3</title>
<path fill="none" stroke="midnightblue" d="M74.6293,-58.5322C74.4903,-49.3606 74.337,-39.2449 74.2166,-31.2931"/>
<polygon fill="midnightblue" stroke="midnightblue" points="71.1318,-58.7332 74.783,-68.679 78.131,-58.6271 71.1318,-58.7332"/>
</g>
<!-- Node5 -->
<g id="node5" class="node"><title>Node5</title>
<g id="a_node5"><a xlink:href="../../d2/d1d/tcp_capsule_8cpp.xhtml" target="_top" xlink:title="Hoofdprogramma/ourProgram\l/src/tcpCapsule.cpp">
<polygon fill="white" stroke="black" points="166.5,-1 166.5,-31 309.5,-31 309.5,-1 166.5,-1"/>
<text text-anchor="start" x="174.5" y="-19" font-family="Helvetica,sans-Serif" font-size="10.00">Hoofdprogramma/ourProgram</text>
<text text-anchor="middle" x="238" y="-8" font-family="Helvetica,sans-Serif" font-size="10.00">/src/tcpCapsule.cpp</text>
</a>
</g>
</g>
<!-- Node4&#45;&gt;Node5 -->
<g id="edge4" class="edge"><title>Node4&#45;&gt;Node5</title>
<path fill="none" stroke="midnightblue" d="M237.371,-58.5322C237.51,-49.3606 237.663,-39.2449 237.783,-31.2931"/>
<polygon fill="midnightblue" stroke="midnightblue" points="233.869,-58.6271 237.217,-68.679 240.868,-58.7332 233.869,-58.6271"/>
</g>
</g>
</svg>
