<?xml version="1.0" encoding="UTF-8" standalone="no"?>
<!DOCTYPE svg PUBLIC "-//W3C//DTD SVG 1.1//EN"
 "http://www.w3.org/Graphics/SVG/1.1/DTD/svg11.dtd">
<!-- Generated by graphviz version 2.30.1 (20130214.1330)
 -->
<!-- Title: GUI/resources/events/eventuserchangestatus.h Pages: 1 -->
<svg width="763pt" height="312pt"
 viewBox="0.00 0.00 763.00 312.00" xmlns="http://www.w3.org/2000/svg" xmlns:xlink="http://www.w3.org/1999/xlink">
<g id="graph0" class="graph" transform="scale(1 1) rotate(0) translate(4 308)">
<title>GUI/resources/events/eventuserchangestatus.h</title>
<polygon fill="white" stroke="white" points="-4,5 -4,-308 760,-308 760,5 -4,5"/>
<!-- Node1 -->
<g id="node1" class="node"><title>Node1</title>
<polygon fill="#bfbfbf" stroke="black" points="451,-273 451,-303 579,-303 579,-273 451,-273"/>
<text text-anchor="start" x="459" y="-291" font-family="Helvetica,sans-Serif" font-size="10.00">GUI/resources/events</text>
<text text-anchor="middle" x="515" y="-280" font-family="Helvetica,sans-Serif" font-size="10.00">/eventuserchangestatus.h</text>
</g>
<!-- Node2 -->
<g id="node2" class="node"><title>Node2</title>
<g id="a_node2"><a xlink:href="../../db/dd2/events_8h.xhtml" target="_top" xlink:title="GUI/resources/events\l/events.h">
<polygon fill="white" stroke="black" points="389,-205 389,-235 499,-235 499,-205 389,-205"/>
<text text-anchor="start" x="397" y="-223" font-family="Helvetica,sans-Serif" font-size="10.00">GUI/resources/events</text>
<text text-anchor="middle" x="444" y="-212" font-family="Helvetica,sans-Serif" font-size="10.00">/events.h</text>
</a>
</g>
</g>
<!-- Node1&#45;&gt;Node2 -->
<g id="edge1" class="edge"><title>Node1&#45;&gt;Node2</title>
<path fill="none" stroke="midnightblue" d="M492.168,-265.776C481.448,-255.81 468.953,-244.196 459.376,-235.293"/>
<polygon fill="midnightblue" stroke="midnightblue" points="489.887,-268.434 499.594,-272.679 494.653,-263.307 489.887,-268.434"/>
</g>
<!-- Node12 -->
<g id="node12" class="node"><title>Node12</title>
<g id="a_node12"><a xlink:href="../../da/d88/eventuserchangestatus_8cpp.xhtml" target="_top" xlink:title="GUI/resources/events\l/eventuserchangestatus.cpp">
<polygon fill="white" stroke="black" points="517,-205 517,-235 655,-235 655,-205 517,-205"/>
<text text-anchor="start" x="525" y="-223" font-family="Helvetica,sans-Serif" font-size="10.00">GUI/resources/events</text>
<text text-anchor="middle" x="586" y="-212" font-family="Helvetica,sans-Serif" font-size="10.00">/eventuserchangestatus.cpp</text>
</a>
</g>
</g>
<!-- Node1&#45;&gt;Node12 -->
<g id="edge11" class="edge"><title>Node1&#45;&gt;Node12</title>
<path fill="none" stroke="midnightblue" d="M537.832,-265.776C548.552,-255.81 561.047,-244.196 570.624,-235.293"/>
<polygon fill="midnightblue" stroke="midnightblue" points="535.347,-263.307 530.406,-272.679 540.113,-268.434 535.347,-263.307"/>
</g>
<!-- Node3 -->
<g id="node3" class="node"><title>Node3</title>
<g id="a_node3"><a xlink:href="../../d4/dca/_roomba_connect_8h.xhtml" target="_top" xlink:title="GUI/Gui&#45;RoombaV1.0\l/RoombaConnect.h">
<polygon fill="white" stroke="black" points="389,-137 389,-167 499,-167 499,-137 389,-137"/>
<text text-anchor="start" x="397" y="-155" font-family="Helvetica,sans-Serif" font-size="10.00">GUI/Gui&#45;RoombaV1.0</text>
<text text-anchor="middle" x="444" y="-144" font-family="Helvetica,sans-Serif" font-size="10.00">/RoombaConnect.h</text>
</a>
</g>
</g>
<!-- Node2&#45;&gt;Node3 -->
<g id="edge2" class="edge"><title>Node2&#45;&gt;Node3</title>
<path fill="none" stroke="midnightblue" d="M444,-194.532C444,-185.361 444,-175.245 444,-167.293"/>
<polygon fill="midnightblue" stroke="midnightblue" points="440.5,-194.679 444,-204.679 447.5,-194.679 440.5,-194.679"/>
</g>
<!-- Node4 -->
<g id="node4" class="node"><title>Node4</title>
<g id="a_node4"><a xlink:href="../../dd/da1/roomba_8h.xhtml" target="_top" xlink:title="GUI/Gui&#45;RoombaV1.0\l/roomba.h">
<polygon fill="white" stroke="black" points="325,-69 325,-99 435,-99 435,-69 325,-69"/>
<text text-anchor="start" x="333" y="-87" font-family="Helvetica,sans-Serif" font-size="10.00">GUI/Gui&#45;RoombaV1.0</text>
<text text-anchor="middle" x="380" y="-76" font-family="Helvetica,sans-Serif" font-size="10.00">/roomba.h</text>
</a>
</g>
</g>
<!-- Node3&#45;&gt;Node4 -->
<g id="edge3" class="edge"><title>Node3&#45;&gt;Node4</title>
<path fill="none" stroke="midnightblue" d="M423.137,-129.485C413.537,-119.585 402.409,-108.109 393.86,-99.2931"/>
<polygon fill="midnightblue" stroke="midnightblue" points="420.639,-131.936 430.113,-136.679 425.664,-127.063 420.639,-131.936"/>
</g>
<!-- Node11 -->
<g id="node11" class="node"><title>Node11</title>
<g id="a_node11"><a xlink:href="../../d7/da4/_roomba_connect_8cpp.xhtml" target="_top" xlink:title="GUI/Gui&#45;RoombaV1.0\l/RoombaConnect.cpp">
<polygon fill="white" stroke="black" points="453,-69 453,-99 563,-99 563,-69 453,-69"/>
<text text-anchor="start" x="461" y="-87" font-family="Helvetica,sans-Serif" font-size="10.00">GUI/Gui&#45;RoombaV1.0</text>
<text text-anchor="middle" x="508" y="-76" font-family="Helvetica,sans-Serif" font-size="10.00">/RoombaConnect.cpp</text>
</a>
</g>
</g>
<!-- Node3&#45;&gt;Node11 -->
<g id="edge10" class="edge"><title>Node3&#45;&gt;Node11</title>
<path fill="none" stroke="midnightblue" d="M464.863,-129.485C474.463,-119.585 485.591,-108.109 494.14,-99.2931"/>
<polygon fill="midnightblue" stroke="midnightblue" points="462.336,-127.063 457.887,-136.679 467.361,-131.936 462.336,-127.063"/>
</g>
<!-- Node5 -->
<g id="node5" class="node"><title>Node5</title>
<g id="a_node5"><a xlink:href="../../d5/dd2/controllingroomba_8cpp.xhtml" target="_top" xlink:title="GUI/Gui&#45;RoombaV1.0\l/controllingroomba.cpp">
<polygon fill="white" stroke="black" points="-0.5,-1 -0.5,-31 114.5,-31 114.5,-1 -0.5,-1"/>
<text text-anchor="start" x="7.5" y="-19" font-family="Helvetica,sans-Serif" font-size="10.00">GUI/Gui&#45;RoombaV1.0</text>
<text text-anchor="middle" x="57" y="-8" font-family="Helvetica,sans-Serif" font-size="10.00">/controllingroomba.cpp</text>
</a>
</g>
</g>
<!-- Node4&#45;&gt;Node5 -->
<g id="edge4" class="edge"><title>Node4&#45;&gt;Node5</title>
<path fill="none" stroke="midnightblue" d="M314.942,-70.4791C263.149,-60.4049 188.843,-45.7154 124,-32 120.968,-31.3587 117.861,-30.6929 114.725,-30.0142"/>
<polygon fill="midnightblue" stroke="midnightblue" points="314.508,-73.96 324.992,-72.4307 315.842,-67.0884 314.508,-73.96"/>
</g>
<!-- Node6 -->
<g id="node6" class="node"><title>Node6</title>
<g id="a_node6"><a xlink:href="../../d1/d10/displaylogs_8cpp.xhtml" target="_top" xlink:title="GUI/Gui&#45;RoombaV1.0\l/displaylogs.cpp">
<polygon fill="white" stroke="black" points="133,-1 133,-31 243,-31 243,-1 133,-1"/>
<text text-anchor="start" x="141" y="-19" font-family="Helvetica,sans-Serif" font-size="10.00">GUI/Gui&#45;RoombaV1.0</text>
<text text-anchor="middle" x="188" y="-8" font-family="Helvetica,sans-Serif" font-size="10.00">/displaylogs.cpp</text>
</a>
</g>
</g>
<!-- Node4&#45;&gt;Node6 -->
<g id="edge5" class="edge"><title>Node4&#45;&gt;Node6</title>
<path fill="none" stroke="midnightblue" d="M328.951,-65.4519C297.616,-54.6805 258.028,-41.0722 228.791,-31.0218"/>
<polygon fill="midnightblue" stroke="midnightblue" points="328.217,-68.9004 338.811,-68.8413 330.492,-62.2806 328.217,-68.9004"/>
</g>
<!-- Node7 -->
<g id="node7" class="node"><title>Node7</title>
<g id="a_node7"><a xlink:href="../../da/d0b/information_8cpp.xhtml" target="_top" xlink:title="GUI/Gui&#45;RoombaV1.0\l/information.cpp">
<polygon fill="white" stroke="black" points="261,-1 261,-31 371,-31 371,-1 261,-1"/>
<text text-anchor="start" x="269" y="-19" font-family="Helvetica,sans-Serif" font-size="10.00">GUI/Gui&#45;RoombaV1.0</text>
<text text-anchor="middle" x="316" y="-8" font-family="Helvetica,sans-Serif" font-size="10.00">/information.cpp</text>
</a>
</g>
</g>
<!-- Node4&#45;&gt;Node7 -->
<g id="edge6" class="edge"><title>Node4&#45;&gt;Node7</title>
<path fill="none" stroke="midnightblue" d="M359.137,-61.4855C349.537,-51.5852 338.409,-40.1092 329.86,-31.2931"/>
<polygon fill="midnightblue" stroke="midnightblue" points="356.639,-63.9365 366.113,-68.679 361.664,-59.0634 356.639,-63.9365"/>
</g>
<!-- Node8 -->
<g id="node8" class="node"><title>Node8</title>
<g id="a_node8"><a xlink:href="../../df/d0a/main_8cpp.xhtml" target="_top" xlink:title="GUI/Gui&#45;RoombaV1.0\l/main.cpp">
<polygon fill="white" stroke="black" points="389,-1 389,-31 499,-31 499,-1 389,-1"/>
<text text-anchor="start" x="397" y="-19" font-family="Helvetica,sans-Serif" font-size="10.00">GUI/Gui&#45;RoombaV1.0</text>
<text text-anchor="middle" x="444" y="-8" font-family="Helvetica,sans-Serif" font-size="10.00">/main.cpp</text>
</a>
</g>
</g>
<!-- Node4&#45;&gt;Node8 -->
<g id="edge7" class="edge"><title>Node4&#45;&gt;Node8</title>
<path fill="none" stroke="midnightblue" d="M400.863,-61.4855C410.463,-51.5852 421.591,-40.1092 430.14,-31.2931"/>
<polygon fill="midnightblue" stroke="midnightblue" points="398.336,-59.0634 393.887,-68.679 403.361,-63.9365 398.336,-59.0634"/>
</g>
<!-- Node9 -->
<g id="node9" class="node"><title>Node9</title>
<g id="a_node9"><a xlink:href="../../de/d67/roomba_8cpp.xhtml" target="_top" xlink:title="GUI/Gui&#45;RoombaV1.0\l/roomba.cpp">
<polygon fill="white" stroke="black" points="517,-1 517,-31 627,-31 627,-1 517,-1"/>
<text text-anchor="start" x="525" y="-19" font-family="Helvetica,sans-Serif" font-size="10.00">GUI/Gui&#45;RoombaV1.0</text>
<text text-anchor="middle" x="572" y="-8" font-family="Helvetica,sans-Serif" font-size="10.00">/roomba.cpp</text>
</a>
</g>
</g>
<!-- Node4&#45;&gt;Node9 -->
<g id="edge8" class="edge"><title>Node4&#45;&gt;Node9</title>
<path fill="none" stroke="midnightblue" d="M431.049,-65.4519C462.384,-54.6805 501.972,-41.0722 531.209,-31.0218"/>
<polygon fill="midnightblue" stroke="midnightblue" points="429.508,-62.2806 421.189,-68.8413 431.783,-68.9004 429.508,-62.2806"/>
</g>
<!-- Node10 -->
<g id="node10" class="node"><title>Node10</title>
<g id="a_node10"><a xlink:href="../../da/d3b/settingsroomba_8cpp.xhtml" target="_top" xlink:title="GUI/Gui&#45;RoombaV1.0\l/settingsroomba.cpp">
<polygon fill="white" stroke="black" points="645,-1 645,-31 755,-31 755,-1 645,-1"/>
<text text-anchor="start" x="653" y="-19" font-family="Helvetica,sans-Serif" font-size="10.00">GUI/Gui&#45;RoombaV1.0</text>
<text text-anchor="middle" x="700" y="-8" font-family="Helvetica,sans-Serif" font-size="10.00">/settingsroomba.cpp</text>
</a>
</g>
</g>
<!-- Node4&#45;&gt;Node10 -->
<g id="edge9" class="edge"><title>Node4&#45;&gt;Node10</title>
<path fill="none" stroke="midnightblue" d="M445.019,-67.8411C530.632,-50.0536 554.117,-49.2632 636,-32 638.903,-31.3879 641.877,-30.7454 644.877,-30.085"/>
<polygon fill="midnightblue" stroke="midnightblue" points="444.192,-64.4383 435.123,-69.915 445.628,-71.2895 444.192,-64.4383"/>
</g>
</g>
</svg>
