<?xml version="1.0" encoding="UTF-8" standalone="no"?>
<!DOCTYPE svg PUBLIC "-//W3C//DTD SVG 1.1//EN"
 "http://www.w3.org/Graphics/SVG/1.1/DTD/svg11.dtd">
<!-- Generated by graphviz version 2.30.1 (20130214.1330)
 -->
<!-- Title: GUI/resources/events/eventuserchangestatus.h Pages: 1 -->
<svg width="274pt" height="108pt"
 viewBox="0.00 0.00 274.00 108.00" xmlns="http://www.w3.org/2000/svg" xmlns:xlink="http://www.w3.org/1999/xlink">
<g id="graph0" class="graph" transform="scale(1 1) rotate(0) translate(4 104)">
<title>GUI/resources/events/eventuserchangestatus.h</title>
<polygon fill="white" stroke="white" points="-4,5 -4,-104 271,-104 271,5 -4,5"/>
<!-- Node1 -->
<g id="node1" class="node"><title>Node1</title>
<polygon fill="#bfbfbf" stroke="black" points="62,-69 62,-99 190,-99 190,-69 62,-69"/>
<text text-anchor="start" x="70" y="-87" font-family="Helvetica,sans-Serif" font-size="10.00">GUI/resources/events</text>
<text text-anchor="middle" x="126" y="-76" font-family="Helvetica,sans-Serif" font-size="10.00">/eventuserchangestatus.h</text>
</g>
<!-- Node2 -->
<g id="node2" class="node"><title>Node2</title>
<g id="a_node2"><a xlink:href="../../db/dd2/events_8h.xhtml" target="_top" xlink:title="GUI/resources/events\l/events.h">
<polygon fill="white" stroke="black" points="0,-1 0,-31 110,-31 110,-1 0,-1"/>
<text text-anchor="start" x="8" y="-19" font-family="Helvetica,sans-Serif" font-size="10.00">GUI/resources/events</text>
<text text-anchor="middle" x="55" y="-8" font-family="Helvetica,sans-Serif" font-size="10.00">/events.h</text>
</a>
</g>
</g>
<!-- Node1&#45;&gt;Node2 -->
<g id="edge1" class="edge"><title>Node1&#45;&gt;Node2</title>
<path fill="none" stroke="midnightblue" d="M103.168,-61.7762C92.4477,-51.8105 79.9529,-40.1956 70.3759,-31.2931"/>
<polygon fill="midnightblue" stroke="midnightblue" points="100.887,-64.434 110.594,-68.679 105.653,-59.307 100.887,-64.434"/>
</g>
<!-- Node3 -->
<g id="node3" class="node"><title>Node3</title>
<g id="a_node3"><a xlink:href="../../da/d88/eventuserchangestatus_8cpp.xhtml" target="_top" xlink:title="GUI/resources/events\l/eventuserchangestatus.cpp">
<polygon fill="white" stroke="black" points="128,-1 128,-31 266,-31 266,-1 128,-1"/>
<text text-anchor="start" x="136" y="-19" font-family="Helvetica,sans-Serif" font-size="10.00">GUI/resources/events</text>
<text text-anchor="middle" x="197" y="-8" font-family="Helvetica,sans-Serif" font-size="10.00">/eventuserchangestatus.cpp</text>
</a>
</g>
</g>
<!-- Node1&#45;&gt;Node3 -->
<g id="edge2" class="edge"><title>Node1&#45;&gt;Node3</title>
<path fill="none" stroke="midnightblue" d="M148.832,-61.7762C159.552,-51.8105 172.047,-40.1956 181.624,-31.2931"/>
<polygon fill="midnightblue" stroke="midnightblue" points="146.347,-59.307 141.406,-68.679 151.113,-64.434 146.347,-59.307"/>
</g>
</g>
</svg>
