<?xml version="1.0" encoding="UTF-8" standalone="no"?>
<!DOCTYPE svg PUBLIC "-//W3C//DTD SVG 1.1//EN"
 "http://www.w3.org/Graphics/SVG/1.1/DTD/svg11.dtd">
<!-- Generated by graphviz version 2.30.1 (20130214.1330)
 -->
<!-- Title: GUI/roombagui&#45;build&#45;Desktop_Qt_5_0_1_MSVC2010_32bit&#45;Debug/debug/moc_displayLogs.cpp Pages: 1 -->
<svg width="528pt" height="342pt"
 viewBox="0.00 0.00 528.00 342.00" xmlns="http://www.w3.org/2000/svg" xmlns:xlink="http://www.w3.org/1999/xlink">
<g id="graph0" class="graph" transform="scale(1 1) rotate(0) translate(4 338)">
<title>GUI/roombagui&#45;build&#45;Desktop_Qt_5_0_1_MSVC2010_32bit&#45;Debug/debug/moc_displayLogs.cpp</title>
<polygon fill="white" stroke="white" points="-4,5 -4,-338 525,-338 525,5 -4,5"/>
<!-- Node1 -->
<g id="node1" class="node"><title>Node1</title>
<polygon fill="#bfbfbf" stroke="black" points="246,-292.5 246,-333.5 446,-333.5 446,-292.5 246,-292.5"/>
<text text-anchor="start" x="254" y="-321.5" font-family="Helvetica,sans-Serif" font-size="10.00">GUI/roombagui&#45;build</text>
<text text-anchor="start" x="254" y="-310.5" font-family="Helvetica,sans-Serif" font-size="10.00">&#45;Desktop_Qt_5_0_1_MSVC2010</text>
<text text-anchor="middle" x="346" y="-299.5" font-family="Helvetica,sans-Serif" font-size="10.00">_32bit&#45;Debug/debug/moc_displayLogs.cpp</text>
</g>
<!-- Node2 -->
<g id="node2" class="node"><title>Node2</title>
<g id="a_node2"><a xlink:href="../../d7/d82/displaylogs_8h.xhtml" target="_top" xlink:title="../../Gui&#45;RoombaV1.0\l/displayLogs.h">
<polygon fill="white" stroke="black" points="166.5,-225 166.5,-255 275.5,-255 275.5,-225 166.5,-225"/>
<text text-anchor="start" x="174.5" y="-243" font-family="Helvetica,sans-Serif" font-size="10.00">../../Gui&#45;RoombaV1.0</text>
<text text-anchor="middle" x="221" y="-232" font-family="Helvetica,sans-Serif" font-size="10.00">/displayLogs.h</text>
</a>
</g>
</g>
<!-- Node1&#45;&gt;Node2 -->
<g id="edge1" class="edge"><title>Node1&#45;&gt;Node2</title>
<path fill="none" stroke="midnightblue" d="M311.512,-292.411C293.79,-282.344 272.278,-270.126 254.673,-260.126"/>
<polygon fill="midnightblue" stroke="midnightblue" points="256.288,-257.018 245.864,-255.123 252.831,-263.105 256.288,-257.018"/>
</g>
<!-- Node16 -->
<g id="node16" class="node"><title>Node16</title>
<polygon fill="white" stroke="#bfbfbf" points="294,-230.5 294,-249.5 398,-249.5 398,-230.5 294,-230.5"/>
<text text-anchor="middle" x="346" y="-237.5" font-family="Helvetica,sans-Serif" font-size="10.00">QtCore/qbytearray.h</text>
</g>
<!-- Node1&#45;&gt;Node16 -->
<g id="edge17" class="edge"><title>Node1&#45;&gt;Node16</title>
<path fill="none" stroke="midnightblue" d="M346,-292.223C346,-282.086 346,-269.807 346,-259.813"/>
<polygon fill="midnightblue" stroke="midnightblue" points="349.5,-259.735 346,-249.735 342.5,-259.735 349.5,-259.735"/>
</g>
<!-- Node17 -->
<g id="node17" class="node"><title>Node17</title>
<polygon fill="white" stroke="#bfbfbf" points="416,-230.5 416,-249.5 520,-249.5 520,-230.5 416,-230.5"/>
<text text-anchor="middle" x="468" y="-237.5" font-family="Helvetica,sans-Serif" font-size="10.00">QtCore/qmetatype.h</text>
</g>
<!-- Node1&#45;&gt;Node17 -->
<g id="edge18" class="edge"><title>Node1&#45;&gt;Node17</title>
<path fill="none" stroke="midnightblue" d="M379.66,-292.411C400.201,-280.457 425.956,-265.468 444.348,-254.765"/>
<polygon fill="midnightblue" stroke="midnightblue" points="446.346,-257.652 453.228,-249.597 442.825,-251.602 446.346,-257.652"/>
</g>
<!-- Node3 -->
<g id="node3" class="node"><title>Node3</title>
<polygon fill="white" stroke="#bfbfbf" points="152.5,-168.5 152.5,-187.5 207.5,-187.5 207.5,-168.5 152.5,-168.5"/>
<text text-anchor="middle" x="180" y="-175.5" font-family="Helvetica,sans-Serif" font-size="10.00">QWidget</text>
</g>
<!-- Node2&#45;&gt;Node3 -->
<g id="edge2" class="edge"><title>Node2&#45;&gt;Node3</title>
<path fill="none" stroke="midnightblue" d="M211.284,-224.781C205.387,-216.152 197.827,-205.088 191.616,-195.999"/>
<polygon fill="midnightblue" stroke="midnightblue" points="194.498,-194.012 185.966,-187.731 188.718,-197.962 194.498,-194.012"/>
</g>
<!-- Node4 -->
<g id="node4" class="node"><title>Node4</title>
<g id="a_node4"><a xlink:href="../../da/d69/loggingdata_8h.xhtml" target="_top" xlink:title="loggingdata.h">
<polygon fill="white" stroke="black" points="226,-168.5 226,-187.5 300,-187.5 300,-168.5 226,-168.5"/>
<text text-anchor="middle" x="263" y="-175.5" font-family="Helvetica,sans-Serif" font-size="10.00">loggingdata.h</text>
</a>
</g>
</g>
<!-- Node2&#45;&gt;Node4 -->
<g id="edge3" class="edge"><title>Node2&#45;&gt;Node4</title>
<path fill="none" stroke="midnightblue" d="M230.953,-224.781C236.994,-216.152 244.738,-205.088 251.101,-195.999"/>
<polygon fill="midnightblue" stroke="midnightblue" points="254.021,-197.93 256.889,-187.731 248.287,-193.916 254.021,-197.93"/>
</g>
<!-- Node5 -->
<g id="node5" class="node"><title>Node5</title>
<g id="a_node5"><a xlink:href="../../db/d97/clsevent_8h.xhtml" target="_top" xlink:title="../resources/clsevent.h">
<polygon fill="white" stroke="black" points="100.5,-112.5 100.5,-131.5 215.5,-131.5 215.5,-112.5 100.5,-112.5"/>
<text text-anchor="middle" x="158" y="-119.5" font-family="Helvetica,sans-Serif" font-size="10.00">../resources/clsevent.h</text>
</a>
</g>
</g>
<!-- Node4&#45;&gt;Node5 -->
<g id="edge4" class="edge"><title>Node4&#45;&gt;Node5</title>
<path fill="none" stroke="midnightblue" d="M246.13,-168.324C229.291,-159.664 203.193,-146.242 183.762,-136.249"/>
<polygon fill="midnightblue" stroke="midnightblue" points="185.322,-133.116 174.828,-131.655 182.12,-139.341 185.322,-133.116"/>
</g>
<!-- Node8 -->
<g id="node8" class="node"><title>Node8</title>
<polygon fill="white" stroke="#bfbfbf" points="245.5,-56.5 245.5,-75.5 300.5,-75.5 300.5,-56.5 245.5,-56.5"/>
<text text-anchor="middle" x="273" y="-63.5" font-family="Helvetica,sans-Serif" font-size="10.00">QVariant</text>
</g>
<!-- Node4&#45;&gt;Node8 -->
<g id="edge15" class="edge"><title>Node4&#45;&gt;Node8</title>
<path fill="none" stroke="midnightblue" d="M263.785,-168.368C265.398,-150.617 269.121,-109.666 271.309,-85.5974"/>
<polygon fill="midnightblue" stroke="midnightblue" points="274.799,-85.8673 272.219,-75.5914 267.828,-85.2334 274.799,-85.8673"/>
</g>
<!-- Node15 -->
<g id="node15" class="node"><title>Node15</title>
<polygon fill="white" stroke="#bfbfbf" points="291.5,-112.5 291.5,-131.5 344.5,-131.5 344.5,-112.5 291.5,-112.5"/>
<text text-anchor="middle" x="318" y="-119.5" font-family="Helvetica,sans-Serif" font-size="10.00">QVector</text>
</g>
<!-- Node4&#45;&gt;Node15 -->
<g id="edge16" class="edge"><title>Node4&#45;&gt;Node15</title>
<path fill="none" stroke="midnightblue" d="M272.082,-168.083C280.171,-160.141 292.195,-148.335 301.91,-138.797"/>
<polygon fill="midnightblue" stroke="midnightblue" points="304.403,-141.254 309.087,-131.751 299.499,-136.26 304.403,-141.254"/>
</g>
<!-- Node6 -->
<g id="node6" class="node"><title>Node6</title>
<polygon fill="white" stroke="#bfbfbf" points="-0.5,-56.5 -0.5,-75.5 52.5,-75.5 52.5,-56.5 -0.5,-56.5"/>
<text text-anchor="middle" x="26" y="-63.5" font-family="Helvetica,sans-Serif" font-size="10.00">QObject</text>
</g>
<!-- Node5&#45;&gt;Node6 -->
<g id="edge5" class="edge"><title>Node5&#45;&gt;Node6</title>
<path fill="none" stroke="midnightblue" d="M137.084,-112.444C115.264,-103.517 80.8502,-89.4387 56.1078,-79.3168"/>
<polygon fill="midnightblue" stroke="midnightblue" points="57.3987,-76.0634 46.8179,-75.5164 54.7482,-82.5422 57.3987,-76.0634"/>
</g>
<!-- Node7 -->
<g id="node7" class="node"><title>Node7</title>
<polygon fill="white" stroke="#bfbfbf" points="71,-56.5 71,-75.5 121,-75.5 121,-56.5 71,-56.5"/>
<text text-anchor="middle" x="96" y="-63.5" font-family="Helvetica,sans-Serif" font-size="10.00">QString</text>
</g>
<!-- Node5&#45;&gt;Node7 -->
<g id="edge6" class="edge"><title>Node5&#45;&gt;Node7</title>
<path fill="none" stroke="midnightblue" d="M148.039,-112.324C138.873,-104.341 125.063,-92.3128 113.972,-82.6529"/>
<polygon fill="midnightblue" stroke="midnightblue" points="115.982,-79.7624 106.143,-75.8339 111.385,-85.041 115.982,-79.7624"/>
</g>
<!-- Node5&#45;&gt;Node8 -->
<g id="edge7" class="edge"><title>Node5&#45;&gt;Node8</title>
<path fill="none" stroke="midnightblue" d="M176.222,-112.444C194.896,-103.675 224.156,-89.9355 245.617,-79.8579"/>
<polygon fill="midnightblue" stroke="midnightblue" points="247.299,-82.935 254.863,-75.5164 244.324,-76.5988 247.299,-82.935"/>
</g>
<!-- Node9 -->
<g id="node9" class="node"><title>Node9</title>
<polygon fill="white" stroke="#bfbfbf" points="59.5,-0.5 59.5,-19.5 124.5,-19.5 124.5,-0.5 59.5,-0.5"/>
<text text-anchor="middle" x="92" y="-7.5" font-family="Helvetica,sans-Serif" font-size="10.00">QDateTime</text>
</g>
<!-- Node5&#45;&gt;Node9 -->
<g id="edge8" class="edge"><title>Node5&#45;&gt;Node9</title>
<path fill="none" stroke="midnightblue" d="M155.138,-112.188C150.751,-99.3027 141.636,-74.8088 130,-56 123.625,-45.6953 115.01,-35.2885 107.594,-27.082"/>
<polygon fill="midnightblue" stroke="midnightblue" points="110.085,-24.6214 100.706,-19.6943 104.966,-29.3951 110.085,-24.6214"/>
</g>
<!-- Node10 -->
<g id="node10" class="node"><title>Node10</title>
<g id="a_node10"><a xlink:href="../../d7/d62/clslog_8h.xhtml" target="_top" xlink:title="clslog.h">
<polygon fill="white" stroke="black" points="177,-56.5 177,-75.5 227,-75.5 227,-56.5 177,-56.5"/>
<text text-anchor="middle" x="202" y="-63.5" font-family="Helvetica,sans-Serif" font-size="10.00">clslog.h</text>
</a>
</g>
</g>
<!-- Node5&#45;&gt;Node10 -->
<g id="edge9" class="edge"><title>Node5&#45;&gt;Node10</title>
<path fill="none" stroke="midnightblue" d="M165.266,-112.083C171.545,-104.377 180.788,-93.0333 188.431,-83.6531"/>
<polygon fill="midnightblue" stroke="midnightblue" points="191.266,-85.7143 194.869,-75.7511 185.839,-81.2926 191.266,-85.7143"/>
</g>
<!-- Node11 -->
<g id="node11" class="node"><title>Node11</title>
<polygon fill="white" stroke="#bfbfbf" points="143,-0.5 143,-19.5 195,-19.5 195,-0.5 143,-0.5"/>
<text text-anchor="middle" x="169" y="-7.5" font-family="Helvetica,sans-Serif" font-size="10.00">QDebug</text>
</g>
<!-- Node10&#45;&gt;Node11 -->
<g id="edge10" class="edge"><title>Node10&#45;&gt;Node11</title>
<path fill="none" stroke="midnightblue" d="M196.551,-56.083C191.986,-48.6127 185.332,-37.7244 179.707,-28.5199"/>
<polygon fill="midnightblue" stroke="midnightblue" points="182.549,-26.4588 174.348,-19.7511 176.576,-30.109 182.549,-26.4588"/>
</g>
<!-- Node10&#45;&gt;Node9 -->
<g id="edge11" class="edge"><title>Node10&#45;&gt;Node9</title>
<path fill="none" stroke="midnightblue" d="M184.327,-56.324C166.606,-47.6247 139.097,-34.1202 118.712,-24.113"/>
<polygon fill="midnightblue" stroke="midnightblue" points="120.149,-20.9195 109.63,-19.6545 117.064,-27.2031 120.149,-20.9195"/>
</g>
<!-- Node12 -->
<g id="node12" class="node"><title>Node12</title>
<polygon fill="white" stroke="#bfbfbf" points="213.5,-0.5 213.5,-19.5 254.5,-19.5 254.5,-0.5 213.5,-0.5"/>
<text text-anchor="middle" x="234" y="-7.5" font-family="Helvetica,sans-Serif" font-size="10.00">string</text>
</g>
<!-- Node10&#45;&gt;Node12 -->
<g id="edge12" class="edge"><title>Node10&#45;&gt;Node12</title>
<path fill="none" stroke="midnightblue" d="M207.284,-56.083C211.711,-48.6127 218.163,-37.7244 223.618,-28.5199"/>
<polygon fill="midnightblue" stroke="midnightblue" points="226.727,-30.1383 228.814,-19.7511 220.705,-26.5697 226.727,-30.1383"/>
</g>
<!-- Node13 -->
<g id="node13" class="node"><title>Node13</title>
<polygon fill="white" stroke="#bfbfbf" points="273,-0.5 273,-19.5 327,-19.5 327,-0.5 273,-0.5"/>
<text text-anchor="middle" x="300" y="-7.5" font-family="Helvetica,sans-Serif" font-size="10.00">iostream</text>
</g>
<!-- Node10&#45;&gt;Node13 -->
<g id="edge13" class="edge"><title>Node10&#45;&gt;Node13</title>
<path fill="none" stroke="midnightblue" d="M217.745,-56.324C233.319,-47.7428 257.377,-34.486 275.459,-24.5224"/>
<polygon fill="midnightblue" stroke="midnightblue" points="277.224,-27.546 284.294,-19.6545 273.846,-21.4152 277.224,-27.546"/>
</g>
<!-- Node14 -->
<g id="node14" class="node"><title>Node14</title>
<polygon fill="white" stroke="#bfbfbf" points="345.5,-0.5 345.5,-19.5 410.5,-19.5 410.5,-0.5 345.5,-0.5"/>
<text text-anchor="middle" x="378" y="-7.5" font-family="Helvetica,sans-Serif" font-size="10.00">QStringList</text>
</g>
<!-- Node10&#45;&gt;Node14 -->
<g id="edge14" class="edge"><title>Node10&#45;&gt;Node14</title>
<path fill="none" stroke="midnightblue" d="M227.217,-57.2631C256.89,-48.1589 306.435,-32.9575 340.587,-22.479"/>
<polygon fill="midnightblue" stroke="midnightblue" points="341.683,-25.8037 350.217,-19.5243 339.63,-19.1116 341.683,-25.8037"/>
</g>
</g>
</svg>
