<?xml version="1.0" encoding="UTF-8" standalone="no"?>
<!DOCTYPE svg PUBLIC "-//W3C//DTD SVG 1.1//EN"
 "http://www.w3.org/Graphics/SVG/1.1/DTD/svg11.dtd">
<!-- Generated by graphviz version 2.30.1 (20130214.1330)
 -->
<!-- Title: Hoofdprogramma/ourProgram/src/jsonTranslateCapsule.h Pages: 1 -->
<svg width="156pt" height="108pt"
 viewBox="0.00 0.00 156.00 108.00" xmlns="http://www.w3.org/2000/svg" xmlns:xlink="http://www.w3.org/1999/xlink">
<g id="graph0" class="graph" transform="scale(1 1) rotate(0) translate(4 104)">
<title>Hoofdprogramma/ourProgram/src/jsonTranslateCapsule.h</title>
<polygon fill="white" stroke="white" points="-4,5 -4,-104 153,-104 153,5 -4,5"/>
<!-- Node1 -->
<g id="node1" class="node"><title>Node1</title>
<polygon fill="#bfbfbf" stroke="black" points="2.5,-69 2.5,-99 145.5,-99 145.5,-69 2.5,-69"/>
<text text-anchor="start" x="10.5" y="-87" font-family="Helvetica,sans-Serif" font-size="10.00">Hoofdprogramma/ourProgram</text>
<text text-anchor="middle" x="74" y="-76" font-family="Helvetica,sans-Serif" font-size="10.00">/src/jsonTranslateCapsule.h</text>
</g>
<!-- Node2 -->
<g id="node2" class="node"><title>Node2</title>
<g id="a_node2"><a xlink:href="../../d0/d63/json_translate_capsule_8cpp.xhtml" target="_top" xlink:title="Hoofdprogramma/ourProgram\l/src/jsonTranslateCapsule.cpp">
<polygon fill="white" stroke="black" points="0,-1 0,-31 148,-31 148,-1 0,-1"/>
<text text-anchor="start" x="8" y="-19" font-family="Helvetica,sans-Serif" font-size="10.00">Hoofdprogramma/ourProgram</text>
<text text-anchor="middle" x="74" y="-8" font-family="Helvetica,sans-Serif" font-size="10.00">/src/jsonTranslateCapsule.cpp</text>
</a>
</g>
</g>
<!-- Node1&#45;&gt;Node2 -->
<g id="edge1" class="edge"><title>Node1&#45;&gt;Node2</title>
<path fill="none" stroke="midnightblue" d="M74,-58.5322C74,-49.3606 74,-39.2449 74,-31.2931"/>
<polygon fill="midnightblue" stroke="midnightblue" points="70.5001,-58.6789 74,-68.679 77.5001,-58.679 70.5001,-58.6789"/>
</g>
</g>
</svg>
