<?xml version="1.0" encoding="UTF-8" standalone="no"?>
<!DOCTYPE svg PUBLIC "-//W3C//DTD SVG 1.1//EN"
 "http://www.w3.org/Graphics/SVG/1.1/DTD/svg11.dtd">
<!-- Generated by graphviz version 2.30.1 (20130214.1330)
 -->
<!-- Title: GUI/resources/events/eventuserchangenick.h Pages: 1 -->
<svg width="265pt" height="108pt"
 viewBox="0.00 0.00 265.00 108.00" xmlns="http://www.w3.org/2000/svg" xmlns:xlink="http://www.w3.org/1999/xlink">
<g id="graph0" class="graph" transform="scale(1 1) rotate(0) translate(4 104)">
<title>GUI/resources/events/eventuserchangenick.h</title>
<polygon fill="white" stroke="white" points="-4,5 -4,-104 262,-104 262,5 -4,5"/>
<!-- Node1 -->
<g id="node1" class="node"><title>Node1</title>
<polygon fill="#bfbfbf" stroke="black" points="64.5,-69 64.5,-99 183.5,-99 183.5,-69 64.5,-69"/>
<text text-anchor="start" x="72.5" y="-87" font-family="Helvetica,sans-Serif" font-size="10.00">GUI/resources/events</text>
<text text-anchor="middle" x="124" y="-76" font-family="Helvetica,sans-Serif" font-size="10.00">/eventuserchangenick.h</text>
</g>
<!-- Node2 -->
<g id="node2" class="node"><title>Node2</title>
<g id="a_node2"><a xlink:href="../../db/dd2/events_8h.xhtml" target="_top" xlink:title="GUI/resources/events\l/events.h">
<polygon fill="white" stroke="black" points="0,-1 0,-31 110,-31 110,-1 0,-1"/>
<text text-anchor="start" x="8" y="-19" font-family="Helvetica,sans-Serif" font-size="10.00">GUI/resources/events</text>
<text text-anchor="middle" x="55" y="-8" font-family="Helvetica,sans-Serif" font-size="10.00">/events.h</text>
</a>
</g>
</g>
<!-- Node1&#45;&gt;Node2 -->
<g id="edge1" class="edge"><title>Node1&#45;&gt;Node2</title>
<path fill="none" stroke="midnightblue" d="M101.508,-61.4855C91.1573,-51.5852 79.1596,-40.1092 69.9428,-31.2931"/>
<polygon fill="midnightblue" stroke="midnightblue" points="99.3823,-64.296 109.028,-68.679 104.221,-59.2375 99.3823,-64.296"/>
</g>
<!-- Node3 -->
<g id="node3" class="node"><title>Node3</title>
<g id="a_node3"><a xlink:href="../../dd/d4b/eventuserchangenick_8cpp.xhtml" target="_top" xlink:title="GUI/resources/events\l/eventuserchangenick.cpp">
<polygon fill="white" stroke="black" points="128.5,-1 128.5,-31 257.5,-31 257.5,-1 128.5,-1"/>
<text text-anchor="start" x="136.5" y="-19" font-family="Helvetica,sans-Serif" font-size="10.00">GUI/resources/events</text>
<text text-anchor="middle" x="193" y="-8" font-family="Helvetica,sans-Serif" font-size="10.00">/eventuserchangenick.cpp</text>
</a>
</g>
</g>
<!-- Node1&#45;&gt;Node3 -->
<g id="edge2" class="edge"><title>Node1&#45;&gt;Node3</title>
<path fill="none" stroke="midnightblue" d="M146.492,-61.4855C156.843,-51.5852 168.84,-40.1092 178.057,-31.2931"/>
<polygon fill="midnightblue" stroke="midnightblue" points="143.779,-59.2375 138.972,-68.679 148.618,-64.296 143.779,-59.2375"/>
</g>
</g>
</svg>
