<?xml version="1.0" encoding="UTF-8" standalone="no"?>
<!DOCTYPE svg PUBLIC "-//W3C//DTD SVG 1.1//EN"
 "http://www.w3.org/Graphics/SVG/1.1/DTD/svg11.dtd">
<!-- Generated by graphviz version 2.30.1 (20130214.1330)
 -->
<!-- Title: GUI/resources/events/eventuserchangenick.h Pages: 1 -->
<!--zoomable 312 -->
<svg id="main" version="1.1" xmlns="http://www.w3.org/2000/svg" xmlns:xlink="http://www.w3.org/1999/xlink" xml:space="preserve" onload="init(evt)">
        <defs>
                <circle id="rim" cx="0" cy="0" r="7"/>
                <circle id="rim2" cx="0" cy="0" r="3.5"/>
                <g id="zoomPlus">
                        <use xlink:href="#rim" fill="#404040">
                                <set attributeName="fill" to="#808080" begin="zoomplus.mouseover" end="zoomplus.mouseout"/>
                        </use>
                        <path d="M-4,0h8M0,-4v8" fill="none" stroke="white" stroke-width="1.5" pointer-events="none"/>
                </g>
                <g id="zoomMin">
                        <use xlink:href="#rim" fill="#404040">
                                <set attributeName="fill" to="#808080" begin="zoomminus.mouseover" end="zoomminus.mouseout"/>
                        </use>
                        <path d="M-4,0h8" fill="none" stroke="white" stroke-width="1.5" pointer-events="none"/>
                </g>
                <g id="dirArrow">
                        <path fill="none" stroke="white" stroke-width="1.5" d="M0,-3.0v7 M-2.5,-0.5L0,-3.0L2.5,-0.5"/>
                </g>
               <g id="resetDef">
                       <use xlink:href="#rim2" fill="#404040">
                               <set attributeName="fill" to="#808080" begin="reset.mouseover" end="reset.mouseout"/>
                       </use>
               </g>
        </defs>

<script type="text/javascript">
var viewWidth = 763;
var viewHeight = 312;
var sectionId = 'dynsection-1';
</script>
<script xlink:href="../../svgpan.js"/>
<svg id="graph" class="graph">
<g id="viewport">
<title>GUI/resources/events/eventuserchangenick.h</title>
<polygon fill="white" stroke="white" points="-4,5 -4,-308 760,-308 760,5 -4,5"/>
<!-- Node1 -->
<g id="node1" class="node"><title>Node1</title>
<polygon fill="#bfbfbf" stroke="black" points="453.5,-273 453.5,-303 572.5,-303 572.5,-273 453.5,-273"/>
<text text-anchor="start" x="461.5" y="-291" font-family="Helvetica,sans-Serif" font-size="10.00">GUI/resources/events</text>
<text text-anchor="middle" x="513" y="-280" font-family="Helvetica,sans-Serif" font-size="10.00">/eventuserchangenick.h</text>
</g>
<!-- Node2 -->
<g id="node2" class="node"><title>Node2</title>
<g id="a_node2"><a xlink:href="../../db/dd2/events_8h.xhtml" target="_top" xlink:title="GUI/resources/events\l/events.h">
<polygon fill="white" stroke="black" points="389,-205 389,-235 499,-235 499,-205 389,-205"/>
<text text-anchor="start" x="397" y="-223" font-family="Helvetica,sans-Serif" font-size="10.00">GUI/resources/events</text>
<text text-anchor="middle" x="444" y="-212" font-family="Helvetica,sans-Serif" font-size="10.00">/events.h</text>
</a>
</g>
</g>
<!-- Node1&#45;&gt;Node2 -->
<g id="edge1" class="edge"><title>Node1&#45;&gt;Node2</title>
<path fill="none" stroke="midnightblue" d="M490.508,-265.485C480.157,-255.585 468.16,-244.109 458.943,-235.293"/>
<polygon fill="midnightblue" stroke="midnightblue" points="488.382,-268.296 498.028,-272.679 493.221,-263.237 488.382,-268.296"/>
</g>
<!-- Node12 -->
<g id="node12" class="node"><title>Node12</title>
<g id="a_node12"><a xlink:href="../../dd/d4b/eventuserchangenick_8cpp.xhtml" target="_top" xlink:title="GUI/resources/events\l/eventuserchangenick.cpp">
<polygon fill="white" stroke="black" points="517.5,-205 517.5,-235 646.5,-235 646.5,-205 517.5,-205"/>
<text text-anchor="start" x="525.5" y="-223" font-family="Helvetica,sans-Serif" font-size="10.00">GUI/resources/events</text>
<text text-anchor="middle" x="582" y="-212" font-family="Helvetica,sans-Serif" font-size="10.00">/eventuserchangenick.cpp</text>
</a>
</g>
</g>
<!-- Node1&#45;&gt;Node12 -->
<g id="edge11" class="edge"><title>Node1&#45;&gt;Node12</title>
<path fill="none" stroke="midnightblue" d="M535.492,-265.485C545.843,-255.585 557.84,-244.109 567.057,-235.293"/>
<polygon fill="midnightblue" stroke="midnightblue" points="532.779,-263.237 527.972,-272.679 537.618,-268.296 532.779,-263.237"/>
</g>
<!-- Node3 -->
<g id="node3" class="node"><title>Node3</title>
<g id="a_node3"><a xlink:href="../../d4/dca/_roomba_connect_8h.xhtml" target="_top" xlink:title="GUI/Gui&#45;RoombaV1.0\l/RoombaConnect.h">
<polygon fill="white" stroke="black" points="389,-137 389,-167 499,-167 499,-137 389,-137"/>
<text text-anchor="start" x="397" y="-155" font-family="Helvetica,sans-Serif" font-size="10.00">GUI/Gui&#45;RoombaV1.0</text>
<text text-anchor="middle" x="444" y="-144" font-family="Helvetica,sans-Serif" font-size="10.00">/RoombaConnect.h</text>
</a>
</g>
</g>
<!-- Node2&#45;&gt;Node3 -->
<g id="edge2" class="edge"><title>Node2&#45;&gt;Node3</title>
<path fill="none" stroke="midnightblue" d="M444,-194.532C444,-185.361 444,-175.245 444,-167.293"/>
<polygon fill="midnightblue" stroke="midnightblue" points="440.5,-194.679 444,-204.679 447.5,-194.679 440.5,-194.679"/>
</g>
<!-- Node4 -->
<g id="node4" class="node"><title>Node4</title>
<g id="a_node4"><a xlink:href="../../dd/da1/roomba_8h.xhtml" target="_top" xlink:title="GUI/Gui&#45;RoombaV1.0\l/roomba.h">
<polygon fill="white" stroke="black" points="325,-69 325,-99 435,-99 435,-69 325,-69"/>
<text text-anchor="start" x="333" y="-87" font-family="Helvetica,sans-Serif" font-size="10.00">GUI/Gui&#45;RoombaV1.0</text>
<text text-anchor="middle" x="380" y="-76" font-family="Helvetica,sans-Serif" font-size="10.00">/roomba.h</text>
</a>
</g>
</g>
<!-- Node3&#45;&gt;Node4 -->
<g id="edge3" class="edge"><title>Node3&#45;&gt;Node4</title>
<path fill="none" stroke="midnightblue" d="M423.137,-129.485C413.537,-119.585 402.409,-108.109 393.86,-99.2931"/>
<polygon fill="midnightblue" stroke="midnightblue" points="420.639,-131.936 430.113,-136.679 425.664,-127.063 420.639,-131.936"/>
</g>
<!-- Node11 -->
<g id="node11" class="node"><title>Node11</title>
<g id="a_node11"><a xlink:href="../../d7/da4/_roomba_connect_8cpp.xhtml" target="_top" xlink:title="GUI/Gui&#45;RoombaV1.0\l/RoombaConnect.cpp">
<polygon fill="white" stroke="black" points="453,-69 453,-99 563,-99 563,-69 453,-69"/>
<text text-anchor="start" x="461" y="-87" font-family="Helvetica,sans-Serif" font-size="10.00">GUI/Gui&#45;RoombaV1.0</text>
<text text-anchor="middle" x="508" y="-76" font-family="Helvetica,sans-Serif" font-size="10.00">/RoombaConnect.cpp</text>
</a>
</g>
</g>
<!-- Node3&#45;&gt;Node11 -->
<g id="edge10" class="edge"><title>Node3&#45;&gt;Node11</title>
<path fill="none" stroke="midnightblue" d="M464.863,-129.485C474.463,-119.585 485.591,-108.109 494.14,-99.2931"/>
<polygon fill="midnightblue" stroke="midnightblue" points="462.336,-127.063 457.887,-136.679 467.361,-131.936 462.336,-127.063"/>
</g>
<!-- Node5 -->
<g id="node5" class="node"><title>Node5</title>
<g id="a_node5"><a xlink:href="../../d5/dd2/controllingroomba_8cpp.xhtml" target="_top" xlink:title="GUI/Gui&#45;RoombaV1.0\l/controllingroomba.cpp">
<polygon fill="white" stroke="black" points="-0.5,-1 -0.5,-31 114.5,-31 114.5,-1 -0.5,-1"/>
<text text-anchor="start" x="7.5" y="-19" font-family="Helvetica,sans-Serif" font-size="10.00">GUI/Gui&#45;RoombaV1.0</text>
<text text-anchor="middle" x="57" y="-8" font-family="Helvetica,sans-Serif" font-size="10.00">/controllingroomba.cpp</text>
</a>
</g>
</g>
<!-- Node4&#45;&gt;Node5 -->
<g id="edge4" class="edge"><title>Node4&#45;&gt;Node5</title>
<path fill="none" stroke="midnightblue" d="M314.942,-70.4791C263.149,-60.4049 188.843,-45.7154 124,-32 120.968,-31.3587 117.861,-30.6929 114.725,-30.0142"/>
<polygon fill="midnightblue" stroke="midnightblue" points="314.508,-73.96 324.992,-72.4307 315.842,-67.0884 314.508,-73.96"/>
</g>
<!-- Node6 -->
<g id="node6" class="node"><title>Node6</title>
<g id="a_node6"><a xlink:href="../../d1/d10/displaylogs_8cpp.xhtml" target="_top" xlink:title="GUI/Gui&#45;RoombaV1.0\l/displaylogs.cpp">
<polygon fill="white" stroke="black" points="133,-1 133,-31 243,-31 243,-1 133,-1"/>
<text text-anchor="start" x="141" y="-19" font-family="Helvetica,sans-Serif" font-size="10.00">GUI/Gui&#45;RoombaV1.0</text>
<text text-anchor="middle" x="188" y="-8" font-family="Helvetica,sans-Serif" font-size="10.00">/displaylogs.cpp</text>
</a>
</g>
</g>
<!-- Node4&#45;&gt;Node6 -->
<g id="edge5" class="edge"><title>Node4&#45;&gt;Node6</title>
<path fill="none" stroke="midnightblue" d="M328.951,-65.4519C297.616,-54.6805 258.028,-41.0722 228.791,-31.0218"/>
<polygon fill="midnightblue" stroke="midnightblue" points="328.217,-68.9004 338.811,-68.8413 330.492,-62.2806 328.217,-68.9004"/>
</g>
<!-- Node7 -->
<g id="node7" class="node"><title>Node7</title>
<g id="a_node7"><a xlink:href="../../da/d0b/information_8cpp.xhtml" target="_top" xlink:title="GUI/Gui&#45;RoombaV1.0\l/information.cpp">
<polygon fill="white" stroke="black" points="261,-1 261,-31 371,-31 371,-1 261,-1"/>
<text text-anchor="start" x="269" y="-19" font-family="Helvetica,sans-Serif" font-size="10.00">GUI/Gui&#45;RoombaV1.0</text>
<text text-anchor="middle" x="316" y="-8" font-family="Helvetica,sans-Serif" font-size="10.00">/information.cpp</text>
</a>
</g>
</g>
<!-- Node4&#45;&gt;Node7 -->
<g id="edge6" class="edge"><title>Node4&#45;&gt;Node7</title>
<path fill="none" stroke="midnightblue" d="M359.137,-61.4855C349.537,-51.5852 338.409,-40.1092 329.86,-31.2931"/>
<polygon fill="midnightblue" stroke="midnightblue" points="356.639,-63.9365 366.113,-68.679 361.664,-59.0634 356.639,-63.9365"/>
</g>
<!-- Node8 -->
<g id="node8" class="node"><title>Node8</title>
<g id="a_node8"><a xlink:href="../../df/d0a/main_8cpp.xhtml" target="_top" xlink:title="GUI/Gui&#45;RoombaV1.0\l/main.cpp">
<polygon fill="white" stroke="black" points="389,-1 389,-31 499,-31 499,-1 389,-1"/>
<text text-anchor="start" x="397" y="-19" font-family="Helvetica,sans-Serif" font-size="10.00">GUI/Gui&#45;RoombaV1.0</text>
<text text-anchor="middle" x="444" y="-8" font-family="Helvetica,sans-Serif" font-size="10.00">/main.cpp</text>
</a>
</g>
</g>
<!-- Node4&#45;&gt;Node8 -->
<g id="edge7" class="edge"><title>Node4&#45;&gt;Node8</title>
<path fill="none" stroke="midnightblue" d="M400.863,-61.4855C410.463,-51.5852 421.591,-40.1092 430.14,-31.2931"/>
<polygon fill="midnightblue" stroke="midnightblue" points="398.336,-59.0634 393.887,-68.679 403.361,-63.9365 398.336,-59.0634"/>
</g>
<!-- Node9 -->
<g id="node9" class="node"><title>Node9</title>
<g id="a_node9"><a xlink:href="../../de/d67/roomba_8cpp.xhtml" target="_top" xlink:title="GUI/Gui&#45;RoombaV1.0\l/roomba.cpp">
<polygon fill="white" stroke="black" points="517,-1 517,-31 627,-31 627,-1 517,-1"/>
<text text-anchor="start" x="525" y="-19" font-family="Helvetica,sans-Serif" font-size="10.00">GUI/Gui&#45;RoombaV1.0</text>
<text text-anchor="middle" x="572" y="-8" font-family="Helvetica,sans-Serif" font-size="10.00">/roomba.cpp</text>
</a>
</g>
</g>
<!-- Node4&#45;&gt;Node9 -->
<g id="edge8" class="edge"><title>Node4&#45;&gt;Node9</title>
<path fill="none" stroke="midnightblue" d="M431.049,-65.4519C462.384,-54.6805 501.972,-41.0722 531.209,-31.0218"/>
<polygon fill="midnightblue" stroke="midnightblue" points="429.508,-62.2806 421.189,-68.8413 431.783,-68.9004 429.508,-62.2806"/>
</g>
<!-- Node10 -->
<g id="node10" class="node"><title>Node10</title>
<g id="a_node10"><a xlink:href="../../da/d3b/settingsroomba_8cpp.xhtml" target="_top" xlink:title="GUI/Gui&#45;RoombaV1.0\l/settingsroomba.cpp">
<polygon fill="white" stroke="black" points="645,-1 645,-31 755,-31 755,-1 645,-1"/>
<text text-anchor="start" x="653" y="-19" font-family="Helvetica,sans-Serif" font-size="10.00">GUI/Gui&#45;RoombaV1.0</text>
<text text-anchor="middle" x="700" y="-8" font-family="Helvetica,sans-Serif" font-size="10.00">/settingsroomba.cpp</text>
</a>
</g>
</g>
<!-- Node4&#45;&gt;Node10 -->
<g id="edge9" class="edge"><title>Node4&#45;&gt;Node10</title>
<path fill="none" stroke="midnightblue" d="M445.019,-67.8411C530.632,-50.0536 554.117,-49.2632 636,-32 638.903,-31.3879 641.877,-30.7454 644.877,-30.085"/>
<polygon fill="midnightblue" stroke="midnightblue" points="444.192,-64.4383 435.123,-69.915 445.628,-71.2895 444.192,-64.4383"/>
</g>
</g>
</svg>
        <g id="navigator" transform="translate(0 0)" fill="#404254">
                <rect fill="#f2f5e9" fill-opacity="0.5" stroke="#606060" stroke-width=".5" x="0" y="0" width="60" height="60"/>
                <use id="zoomplus" xlink:href="#zoomPlus" x="17" y="9" onmousedown="handleZoom(evt,'in')"/>
                <use id="zoomminus" xlink:href="#zoomMin" x="42" y="9" onmousedown="handleZoom(evt,'out')"/>
                <use id="reset" xlink:href="#resetDef" x="30" y="36" onmousedown="handleReset()"/>
                <g id="arrowUp" xlink:href="#dirArrow" transform="translate(30 24)" onmousedown="handlePan(0,-1)">
                  <use xlink:href="#rim" fill="#404040">
                        <set attributeName="fill" to="#808080" begin="arrowUp.mouseover" end="arrowUp.mouseout"/>
                  </use>
                  <path fill="none" stroke="white" stroke-width="1.5" d="M0,-3.0v7 M-2.5,-0.5L0,-3.0L2.5,-0.5"/>
                </g>
                <g id="arrowRight" xlink:href="#dirArrow" transform="rotate(90) translate(36 -43)" onmousedown="handlePan(1,0)">
                  <use xlink:href="#rim" fill="#404040">
                        <set attributeName="fill" to="#808080" begin="arrowRight.mouseover" end="arrowRight.mouseout"/>
                  </use>
                  <path fill="none" stroke="white" stroke-width="1.5" d="M0,-3.0v7 M-2.5,-0.5L0,-3.0L2.5,-0.5"/>
                </g>
                <g id="arrowDown" xlink:href="#dirArrow" transform="rotate(180) translate(-30 -48)" onmousedown="handlePan(0,1)">
                  <use xlink:href="#rim" fill="#404040">
                        <set attributeName="fill" to="#808080" begin="arrowDown.mouseover" end="arrowDown.mouseout"/>
                  </use>
                  <path fill="none" stroke="white" stroke-width="1.5" d="M0,-3.0v7 M-2.5,-0.5L0,-3.0L2.5,-0.5"/>
                </g>
                <g id="arrowLeft" xlink:href="#dirArrow" transform="rotate(270) translate(-36 17)" onmousedown="handlePan(-1,0)">
                  <use xlink:href="#rim" fill="#404040">
                        <set attributeName="fill" to="#808080" begin="arrowLeft.mouseover" end="arrowLeft.mouseout"/>
                  </use>
                  <path fill="none" stroke="white" stroke-width="1.5" d="M0,-3.0v7 M-2.5,-0.5L0,-3.0L2.5,-0.5"/>
                </g>
        </g>
        <svg viewBox="0 0 15 15" width="100%" height="30px" preserveAspectRatio="xMaxYMin meet">
         <g id="arrow_out" transform="scale(0.3 0.3)">
          <a xlink:href="eventuserchangenick_8h__dep__incl_org.svg" target="_base">
           <rect id="button" ry="5" rx="5" y="6" x="6" height="38" width="38"
                fill="#f2f5e9" fill-opacity="0.5" stroke="#606060" stroke-width="1.0"/>
           <path id="arrow"
             d="M 11.500037,31.436501 C 11.940474,20.09759 22.043105,11.32322 32.158766,21.979434 L 37.068811,17.246167 C 37.068811,17.246167 37.088388,32 37.088388,32 L 22.160133,31.978069 C 22.160133,31.978069 26.997745,27.140456 26.997745,27.140456 C 18.528582,18.264221 13.291696,25.230495 11.500037,31.436501 z"
             style="fill:#404040;"/>
          </a>
         </g>
        </svg>
</svg>
