<?xml version="1.0" encoding="UTF-8" standalone="no"?>
<!DOCTYPE svg PUBLIC "-//W3C//DTD SVG 1.1//EN"
 "http://www.w3.org/Graphics/SVG/1.1/DTD/svg11.dtd">
<!-- Generated by graphviz version 2.30.1 (20130214.1330)
 -->
<!-- Title: GUI/Gui&#45;RoombaV1.0/displaylogs.h Pages: 1 -->
<!--zoomable 274 -->
<svg id="main" version="1.1" xmlns="http://www.w3.org/2000/svg" xmlns:xlink="http://www.w3.org/1999/xlink" xml:space="preserve" onload="init(evt)">
        <defs>
                <circle id="rim" cx="0" cy="0" r="7"/>
                <circle id="rim2" cx="0" cy="0" r="3.5"/>
                <g id="zoomPlus">
                        <use xlink:href="#rim" fill="#404040">
                                <set attributeName="fill" to="#808080" begin="zoomplus.mouseover" end="zoomplus.mouseout"/>
                        </use>
                        <path d="M-4,0h8M0,-4v8" fill="none" stroke="white" stroke-width="1.5" pointer-events="none"/>
                </g>
                <g id="zoomMin">
                        <use xlink:href="#rim" fill="#404040">
                                <set attributeName="fill" to="#808080" begin="zoomminus.mouseover" end="zoomminus.mouseout"/>
                        </use>
                        <path d="M-4,0h8" fill="none" stroke="white" stroke-width="1.5" pointer-events="none"/>
                </g>
                <g id="dirArrow">
                        <path fill="none" stroke="white" stroke-width="1.5" d="M0,-3.0v7 M-2.5,-0.5L0,-3.0L2.5,-0.5"/>
                </g>
               <g id="resetDef">
                       <use xlink:href="#rim2" fill="#404040">
                               <set attributeName="fill" to="#808080" begin="reset.mouseover" end="reset.mouseout"/>
                       </use>
               </g>
        </defs>

<script type="text/javascript">
var viewWidth = 1324;
var viewHeight = 274;
var sectionId = 'dynsection-1';
</script>
<script xlink:href="../../svgpan.js"/>
<svg id="graph" class="graph">
<g id="viewport">
<title>GUI/Gui&#45;RoombaV1.0/displaylogs.h</title>
<polygon fill="white" stroke="white" points="-4,5 -4,-270 1321,-270 1321,5 -4,5"/>
<!-- Node1 -->
<g id="node1" class="node"><title>Node1</title>
<polygon fill="#bfbfbf" stroke="black" points="905,-235 905,-265 1015,-265 1015,-235 905,-235"/>
<text text-anchor="start" x="913" y="-253" font-family="Helvetica,sans-Serif" font-size="10.00">GUI/Gui&#45;RoombaV1.0</text>
<text text-anchor="middle" x="960" y="-242" font-family="Helvetica,sans-Serif" font-size="10.00">/displaylogs.h</text>
</g>
<!-- Node2 -->
<g id="node2" class="node"><title>Node2</title>
<g id="a_node2"><a xlink:href="../../da/d4b/controllingroomba_8h.xhtml" target="_top" xlink:title="GUI/Gui&#45;RoombaV1.0\l/controllingroomba.h">
<polygon fill="white" stroke="black" points="450,-162 450,-192 560,-192 560,-162 450,-162"/>
<text text-anchor="start" x="458" y="-180" font-family="Helvetica,sans-Serif" font-size="10.00">GUI/Gui&#45;RoombaV1.0</text>
<text text-anchor="middle" x="505" y="-169" font-family="Helvetica,sans-Serif" font-size="10.00">/controllingroomba.h</text>
</a>
</g>
</g>
<!-- Node1&#45;&gt;Node2 -->
<g id="edge1" class="edge"><title>Node1&#45;&gt;Node2</title>
<path fill="none" stroke="midnightblue" d="M894.591,-238.793C804.697,-224.766 644.552,-199.776 560.307,-186.63"/>
<polygon fill="midnightblue" stroke="midnightblue" points="894.243,-242.281 904.663,-240.365 895.322,-235.365 894.243,-242.281"/>
</g>
<!-- Node14 -->
<g id="node14" class="node"><title>Node14</title>
<g id="a_node14"><a xlink:href="../../d2/d92/bin_2debug_2debug_2moc__display_logs_8cpp.xhtml" target="_top" xlink:title="GUI/bin/debug/debug\l/moc_displayLogs.cpp">
<polygon fill="white" stroke="black" points="818,-162 818,-192 932,-192 932,-162 818,-162"/>
<text text-anchor="start" x="826" y="-180" font-family="Helvetica,sans-Serif" font-size="10.00">GUI/bin/debug/debug</text>
<text text-anchor="middle" x="875" y="-169" font-family="Helvetica,sans-Serif" font-size="10.00">/moc_displayLogs.cpp</text>
</a>
</g>
</g>
<!-- Node1&#45;&gt;Node14 -->
<g id="edge14" class="edge"><title>Node1&#45;&gt;Node14</title>
<path fill="none" stroke="midnightblue" d="M935.44,-228.485C921.534,-216.87 904.489,-202.632 892.049,-192.241"/>
<polygon fill="midnightblue" stroke="midnightblue" points="933.288,-231.248 943.207,-234.973 937.776,-225.876 933.288,-231.248"/>
</g>
<!-- Node7 -->
<g id="node7" class="node"><title>Node7</title>
<g id="a_node7"><a xlink:href="../../d1/d10/displaylogs_8cpp.xhtml" target="_top" xlink:title="GUI/Gui&#45;RoombaV1.0\l/displaylogs.cpp">
<polygon fill="white" stroke="black" points="970,-6 970,-36 1080,-36 1080,-6 970,-6"/>
<text text-anchor="start" x="978" y="-24" font-family="Helvetica,sans-Serif" font-size="10.00">GUI/Gui&#45;RoombaV1.0</text>
<text text-anchor="middle" x="1025" y="-13" font-family="Helvetica,sans-Serif" font-size="10.00">/displaylogs.cpp</text>
</a>
</g>
</g>
<!-- Node1&#45;&gt;Node7 -->
<g id="edge15" class="edge"><title>Node1&#45;&gt;Node7</title>
<path fill="none" stroke="midnightblue" d="M964.054,-224.826C967.434,-205.936 972.704,-179.101 979,-156 991.096,-111.623 1010.07,-60.578 1019.41,-36.285"/>
<polygon fill="midnightblue" stroke="midnightblue" points="960.605,-224.232 962.332,-234.685 967.5,-225.436 960.605,-224.232"/>
</g>
<!-- Node15 -->
<g id="node15" class="node"><title>Node15</title>
<g id="a_node15"><a xlink:href="../../d7/da4/_roomba_connect_8cpp.xhtml" target="_top" xlink:title="GUI/Gui&#45;RoombaV1.0\l/RoombaConnect.cpp">
<polygon fill="white" stroke="black" points="988,-162 988,-192 1098,-192 1098,-162 988,-162"/>
<text text-anchor="start" x="996" y="-180" font-family="Helvetica,sans-Serif" font-size="10.00">GUI/Gui&#45;RoombaV1.0</text>
<text text-anchor="middle" x="1043" y="-169" font-family="Helvetica,sans-Serif" font-size="10.00">/RoombaConnect.cpp</text>
</a>
</g>
</g>
<!-- Node1&#45;&gt;Node15 -->
<g id="edge16" class="edge"><title>Node1&#45;&gt;Node15</title>
<path fill="none" stroke="midnightblue" d="M984.363,-228.159C997.872,-216.604 1014.32,-202.535 1026.35,-192.241"/>
<polygon fill="midnightblue" stroke="midnightblue" points="981.722,-225.813 976.398,-234.973 986.272,-231.132 981.722,-225.813"/>
</g>
<!-- Node16 -->
<g id="node16" class="node"><title>Node16</title>
<g id="a_node16"><a xlink:href="../../dc/d0b/roombagui-build-_desktop___qt__5__0__1___m_s_v_c2010__32bit-_debug_2debug_2moc__display_logs_8cpp.xhtml" target="_top" xlink:title="GUI/roombagui&#45;build\l&#45;Desktop_Qt_5_0_1_MSVC2010\l_32bit&#45;Debug/debug/moc_displayLogs.cpp">
<polygon fill="white" stroke="black" points="1116,-156.5 1116,-197.5 1316,-197.5 1316,-156.5 1116,-156.5"/>
<text text-anchor="start" x="1124" y="-185.5" font-family="Helvetica,sans-Serif" font-size="10.00">GUI/roombagui&#45;build</text>
<text text-anchor="start" x="1124" y="-174.5" font-family="Helvetica,sans-Serif" font-size="10.00">&#45;Desktop_Qt_5_0_1_MSVC2010</text>
<text text-anchor="middle" x="1216" y="-163.5" font-family="Helvetica,sans-Serif" font-size="10.00">_32bit&#45;Debug/debug/moc_displayLogs.cpp</text>
</a>
</g>
</g>
<!-- Node1&#45;&gt;Node16 -->
<g id="edge17" class="edge"><title>Node1&#45;&gt;Node16</title>
<path fill="none" stroke="midnightblue" d="M1020.37,-232.257C1057.92,-221.841 1106.38,-208.404 1145.66,-197.507"/>
<polygon fill="midnightblue" stroke="midnightblue" points="1019.28,-228.927 1010.58,-234.973 1021.15,-235.673 1019.28,-228.927"/>
</g>
<!-- Node3 -->
<g id="node3" class="node"><title>Node3</title>
<g id="a_node3"><a xlink:href="../../d2/d33/bin_2debug_2debug_2moc__controllingroomba_8cpp.xhtml" target="_top" xlink:title="GUI/bin/debug/debug\l/moc_controllingroomba.cpp">
<polygon fill="white" stroke="black" points="254.5,-84 254.5,-114 393.5,-114 393.5,-84 254.5,-84"/>
<text text-anchor="start" x="262.5" y="-102" font-family="Helvetica,sans-Serif" font-size="10.00">GUI/bin/debug/debug</text>
<text text-anchor="middle" x="324" y="-91" font-family="Helvetica,sans-Serif" font-size="10.00">/moc_controllingroomba.cpp</text>
</a>
</g>
</g>
<!-- Node2&#45;&gt;Node3 -->
<g id="edge2" class="edge"><title>Node2&#45;&gt;Node3</title>
<path fill="none" stroke="midnightblue" d="M461.829,-157.873C429.831,-144.437 386.848,-126.389 357.44,-114.041"/>
<polygon fill="midnightblue" stroke="midnightblue" points="460.804,-161.239 471.379,-161.883 463.514,-154.785 460.804,-161.239"/>
</g>
<!-- Node4 -->
<g id="node4" class="node"><title>Node4</title>
<g id="a_node4"><a xlink:href="../../dd/da1/roomba_8h.xhtml" target="_top" xlink:title="GUI/Gui&#45;RoombaV1.0\l/roomba.h">
<polygon fill="white" stroke="black" points="450,-84 450,-114 560,-114 560,-84 450,-84"/>
<text text-anchor="start" x="458" y="-102" font-family="Helvetica,sans-Serif" font-size="10.00">GUI/Gui&#45;RoombaV1.0</text>
<text text-anchor="middle" x="505" y="-91" font-family="Helvetica,sans-Serif" font-size="10.00">/roomba.h</text>
</a>
</g>
</g>
<!-- Node2&#45;&gt;Node4 -->
<g id="edge3" class="edge"><title>Node2&#45;&gt;Node4</title>
<path fill="none" stroke="midnightblue" d="M505,-151.59C505,-139.257 505,-124.724 505,-114.231"/>
<polygon fill="midnightblue" stroke="midnightblue" points="501.5,-151.705 505,-161.705 508.5,-151.705 501.5,-151.705"/>
</g>
<!-- Node6 -->
<g id="node6" class="node"><title>Node6</title>
<g id="a_node6"><a xlink:href="../../d5/dd2/controllingroomba_8cpp.xhtml" target="_top" xlink:title="GUI/Gui&#45;RoombaV1.0\l/controllingroomba.cpp">
<polygon fill="white" stroke="black" points="-0.5,-6 -0.5,-36 114.5,-36 114.5,-6 -0.5,-6"/>
<text text-anchor="start" x="7.5" y="-24" font-family="Helvetica,sans-Serif" font-size="10.00">GUI/Gui&#45;RoombaV1.0</text>
<text text-anchor="middle" x="57" y="-13" font-family="Helvetica,sans-Serif" font-size="10.00">/controllingroomba.cpp</text>
</a>
</g>
</g>
<!-- Node2&#45;&gt;Node6 -->
<g id="edge12" class="edge"><title>Node2&#45;&gt;Node6</title>
<path fill="none" stroke="midnightblue" d="M480.097,-155.256C468.027,-144.941 453.48,-132.116 441,-120 422.724,-102.256 424.649,-89.6583 402,-78 290.835,-20.7787 245.248,-68.2197 123,-42 115.391,-40.368 107.391,-38.2753 99.6886,-36.0612"/>
<polygon fill="midnightblue" stroke="midnightblue" points="478.109,-158.159 488.001,-161.956 482.636,-152.82 478.109,-158.159"/>
</g>
<!-- Node13 -->
<g id="node13" class="node"><title>Node13</title>
<g id="a_node13"><a xlink:href="../../d5/dc6/roombagui-build-_desktop___qt__5__0__1___m_s_v_c2010__32bit-_debug_2debug_2moc__controllingroomba_8cpp.xhtml" target="_top" xlink:title="GUI/roombagui&#45;build\l&#45;Desktop_Qt_5_0_1_MSVC2010\l_32bit&#45;Debug/debug/moc_controllingroomba.cpp">
<polygon fill="white" stroke="black" points="578.5,-78.5 578.5,-119.5 803.5,-119.5 803.5,-78.5 578.5,-78.5"/>
<text text-anchor="start" x="586.5" y="-107.5" font-family="Helvetica,sans-Serif" font-size="10.00">GUI/roombagui&#45;build</text>
<text text-anchor="start" x="586.5" y="-96.5" font-family="Helvetica,sans-Serif" font-size="10.00">&#45;Desktop_Qt_5_0_1_MSVC2010</text>
<text text-anchor="middle" x="691" y="-85.5" font-family="Helvetica,sans-Serif" font-size="10.00">_32bit&#45;Debug/debug/moc_controllingroomba.cpp</text>
</a>
</g>
</g>
<!-- Node2&#45;&gt;Node13 -->
<g id="edge13" class="edge"><title>Node2&#45;&gt;Node13</title>
<path fill="none" stroke="midnightblue" d="M549.159,-157.956C577.391,-146.421 614.007,-131.46 642.963,-119.628"/>
<polygon fill="midnightblue" stroke="midnightblue" points="547.482,-154.861 539.549,-161.883 550.13,-161.341 547.482,-154.861"/>
</g>
<!-- Node5 -->
<g id="node5" class="node"><title>Node5</title>
<g id="a_node5"><a xlink:href="../../d8/d22/bin_2debug_2debug_2moc__roomba_8cpp.xhtml" target="_top" xlink:title="GUI/bin/debug/debug\l/moc_roomba.cpp">
<polygon fill="white" stroke="black" points="132.5,-6 132.5,-36 239.5,-36 239.5,-6 132.5,-6"/>
<text text-anchor="start" x="140.5" y="-24" font-family="Helvetica,sans-Serif" font-size="10.00">GUI/bin/debug/debug</text>
<text text-anchor="middle" x="186" y="-13" font-family="Helvetica,sans-Serif" font-size="10.00">/moc_roomba.cpp</text>
</a>
</g>
</g>
<!-- Node4&#45;&gt;Node5 -->
<g id="edge4" class="edge"><title>Node4&#45;&gt;Node5</title>
<path fill="none" stroke="midnightblue" d="M449.105,-81.3293C444.684,-80.1542 440.276,-79.0291 436,-78 353.712,-58.1977 331.031,-62.8405 249,-42 242.104,-40.2481 234.853,-38.1717 227.824,-36.0307"/>
<polygon fill="midnightblue" stroke="midnightblue" points="448.193,-84.7082 458.761,-83.9639 450.035,-77.955 448.193,-84.7082"/>
</g>
<!-- Node4&#45;&gt;Node6 -->
<g id="edge5" class="edge"><title>Node4&#45;&gt;Node6</title>
<path fill="none" stroke="midnightblue" d="M451.056,-81.4323C445.994,-80.1597 440.918,-78.9883 436,-78 298.716,-50.4115 260.114,-70.4193 123,-42 115.262,-40.3962 107.128,-38.2901 99.3148,-36.0471"/>
<polygon fill="midnightblue" stroke="midnightblue" points="450.169,-84.8178 460.73,-83.9827 451.953,-78.0491 450.169,-84.8178"/>
</g>
<!-- Node4&#45;&gt;Node7 -->
<g id="edge6" class="edge"><title>Node4&#45;&gt;Node7</title>
<path fill="none" stroke="midnightblue" d="M555.29,-81.1987C559.894,-79.9906 564.512,-78.8973 569,-78 740.125,-43.7832 788.8,-75.8414 960,-42 967.76,-40.466 975.911,-38.365 983.716,-36.0989"/>
<polygon fill="midnightblue" stroke="midnightblue" points="553.981,-77.9305 545.293,-83.9949 555.867,-84.6718 553.981,-77.9305"/>
</g>
<!-- Node8 -->
<g id="node8" class="node"><title>Node8</title>
<g id="a_node8"><a xlink:href="../../da/d0b/information_8cpp.xhtml" target="_top" xlink:title="GUI/Gui&#45;RoombaV1.0\l/information.cpp">
<polygon fill="white" stroke="black" points="258,-6 258,-36 368,-36 368,-6 258,-6"/>
<text text-anchor="start" x="266" y="-24" font-family="Helvetica,sans-Serif" font-size="10.00">GUI/Gui&#45;RoombaV1.0</text>
<text text-anchor="middle" x="313" y="-13" font-family="Helvetica,sans-Serif" font-size="10.00">/information.cpp</text>
</a>
</g>
</g>
<!-- Node4&#45;&gt;Node8 -->
<g id="edge7" class="edge"><title>Node4&#45;&gt;Node8</title>
<path fill="none" stroke="midnightblue" d="M459.643,-80.0464C425.656,-66.5929 379.802,-48.4424 348.473,-36.0413"/>
<polygon fill="midnightblue" stroke="midnightblue" points="458.75,-83.4569 469.336,-83.8831 461.326,-76.9482 458.75,-83.4569"/>
</g>
<!-- Node9 -->
<g id="node9" class="node"><title>Node9</title>
<g id="a_node9"><a xlink:href="../../d8/da8/_gui-_roomba_v1_80_2main_8cpp.xhtml" target="_top" xlink:title="GUI/Gui&#45;RoombaV1.0\l/main.cpp">
<polygon fill="white" stroke="black" points="386,-6 386,-36 496,-36 496,-6 386,-6"/>
<text text-anchor="start" x="394" y="-24" font-family="Helvetica,sans-Serif" font-size="10.00">GUI/Gui&#45;RoombaV1.0</text>
<text text-anchor="middle" x="441" y="-13" font-family="Helvetica,sans-Serif" font-size="10.00">/main.cpp</text>
</a>
</g>
</g>
<!-- Node4&#45;&gt;Node9 -->
<g id="edge8" class="edge"><title>Node4&#45;&gt;Node9</title>
<path fill="none" stroke="midnightblue" d="M486.311,-75.8065C475.554,-63.0329 462.355,-47.3596 452.984,-36.2309"/>
<polygon fill="midnightblue" stroke="midnightblue" points="483.844,-78.3103 492.962,-83.705 489.198,-73.8014 483.844,-78.3103"/>
</g>
<!-- Node10 -->
<g id="node10" class="node"><title>Node10</title>
<g id="a_node10"><a xlink:href="../../de/d67/roomba_8cpp.xhtml" target="_top" xlink:title="GUI/Gui&#45;RoombaV1.0\l/roomba.cpp">
<polygon fill="white" stroke="black" points="514,-6 514,-36 624,-36 624,-6 514,-6"/>
<text text-anchor="start" x="522" y="-24" font-family="Helvetica,sans-Serif" font-size="10.00">GUI/Gui&#45;RoombaV1.0</text>
<text text-anchor="middle" x="569" y="-13" font-family="Helvetica,sans-Serif" font-size="10.00">/roomba.cpp</text>
</a>
</g>
</g>
<!-- Node4&#45;&gt;Node10 -->
<g id="edge9" class="edge"><title>Node4&#45;&gt;Node10</title>
<path fill="none" stroke="midnightblue" d="M523.689,-75.8065C534.446,-63.0329 547.645,-47.3596 557.016,-36.2309"/>
<polygon fill="midnightblue" stroke="midnightblue" points="520.802,-73.8014 517.038,-83.705 526.156,-78.3103 520.802,-73.8014"/>
</g>
<!-- Node11 -->
<g id="node11" class="node"><title>Node11</title>
<g id="a_node11"><a xlink:href="../../da/d3b/settingsroomba_8cpp.xhtml" target="_top" xlink:title="GUI/Gui&#45;RoombaV1.0\l/settingsroomba.cpp">
<polygon fill="white" stroke="black" points="642,-6 642,-36 752,-36 752,-6 642,-6"/>
<text text-anchor="start" x="650" y="-24" font-family="Helvetica,sans-Serif" font-size="10.00">GUI/Gui&#45;RoombaV1.0</text>
<text text-anchor="middle" x="697" y="-13" font-family="Helvetica,sans-Serif" font-size="10.00">/settingsroomba.cpp</text>
</a>
</g>
</g>
<!-- Node4&#45;&gt;Node11 -->
<g id="edge10" class="edge"><title>Node4&#45;&gt;Node11</title>
<path fill="none" stroke="midnightblue" d="M550.357,-80.0464C584.344,-66.5929 630.198,-48.4424 661.527,-36.0413"/>
<polygon fill="midnightblue" stroke="midnightblue" points="548.674,-76.9482 540.664,-83.8831 551.25,-83.4569 548.674,-76.9482"/>
</g>
<!-- Node12 -->
<g id="node12" class="node"><title>Node12</title>
<g id="a_node12"><a xlink:href="../../d9/d13/roombagui-build-_desktop___qt__5__0__1___m_s_v_c2010__32bit-_debug_2debug_2moc__roomba_8cpp.xhtml" target="_top" xlink:title="GUI/roombagui&#45;build\l&#45;Desktop_Qt_5_0_1_MSVC2010\l_32bit&#45;Debug/debug/moc_roomba.cpp">
<polygon fill="white" stroke="black" points="770.5,-0.5 770.5,-41.5 951.5,-41.5 951.5,-0.5 770.5,-0.5"/>
<text text-anchor="start" x="778.5" y="-29.5" font-family="Helvetica,sans-Serif" font-size="10.00">GUI/roombagui&#45;build</text>
<text text-anchor="start" x="778.5" y="-18.5" font-family="Helvetica,sans-Serif" font-size="10.00">&#45;Desktop_Qt_5_0_1_MSVC2010</text>
<text text-anchor="middle" x="861" y="-7.5" font-family="Helvetica,sans-Serif" font-size="10.00">_32bit&#45;Debug/debug/moc_roomba.cpp</text>
</a>
</g>
</g>
<!-- Node4&#45;&gt;Node12 -->
<g id="edge11" class="edge"><title>Node4&#45;&gt;Node12</title>
<path fill="none" stroke="midnightblue" d="M557.281,-81.1137C561.232,-80.0061 565.17,-78.954 569,-78 653.246,-57.0156 675.765,-58.5137 761,-42 764.042,-41.4107 767.135,-40.8085 770.258,-40.1979"/>
<polygon fill="midnightblue" stroke="midnightblue" points="556.118,-77.8068 547.491,-83.9565 558.07,-84.5291 556.118,-77.8068"/>
</g>
</g>
</svg>
        <g id="navigator" transform="translate(0 0)" fill="#404254">
                <rect fill="#f2f5e9" fill-opacity="0.5" stroke="#606060" stroke-width=".5" x="0" y="0" width="60" height="60"/>
                <use id="zoomplus" xlink:href="#zoomPlus" x="17" y="9" onmousedown="handleZoom(evt,'in')"/>
                <use id="zoomminus" xlink:href="#zoomMin" x="42" y="9" onmousedown="handleZoom(evt,'out')"/>
                <use id="reset" xlink:href="#resetDef" x="30" y="36" onmousedown="handleReset()"/>
                <g id="arrowUp" xlink:href="#dirArrow" transform="translate(30 24)" onmousedown="handlePan(0,-1)">
                  <use xlink:href="#rim" fill="#404040">
                        <set attributeName="fill" to="#808080" begin="arrowUp.mouseover" end="arrowUp.mouseout"/>
                  </use>
                  <path fill="none" stroke="white" stroke-width="1.5" d="M0,-3.0v7 M-2.5,-0.5L0,-3.0L2.5,-0.5"/>
                </g>
                <g id="arrowRight" xlink:href="#dirArrow" transform="rotate(90) translate(36 -43)" onmousedown="handlePan(1,0)">
                  <use xlink:href="#rim" fill="#404040">
                        <set attributeName="fill" to="#808080" begin="arrowRight.mouseover" end="arrowRight.mouseout"/>
                  </use>
                  <path fill="none" stroke="white" stroke-width="1.5" d="M0,-3.0v7 M-2.5,-0.5L0,-3.0L2.5,-0.5"/>
                </g>
                <g id="arrowDown" xlink:href="#dirArrow" transform="rotate(180) translate(-30 -48)" onmousedown="handlePan(0,1)">
                  <use xlink:href="#rim" fill="#404040">
                        <set attributeName="fill" to="#808080" begin="arrowDown.mouseover" end="arrowDown.mouseout"/>
                  </use>
                  <path fill="none" stroke="white" stroke-width="1.5" d="M0,-3.0v7 M-2.5,-0.5L0,-3.0L2.5,-0.5"/>
                </g>
                <g id="arrowLeft" xlink:href="#dirArrow" transform="rotate(270) translate(-36 17)" onmousedown="handlePan(-1,0)">
                  <use xlink:href="#rim" fill="#404040">
                        <set attributeName="fill" to="#808080" begin="arrowLeft.mouseover" end="arrowLeft.mouseout"/>
                  </use>
                  <path fill="none" stroke="white" stroke-width="1.5" d="M0,-3.0v7 M-2.5,-0.5L0,-3.0L2.5,-0.5"/>
                </g>
        </g>
        <svg viewBox="0 0 15 15" width="100%" height="30px" preserveAspectRatio="xMaxYMin meet">
         <g id="arrow_out" transform="scale(0.3 0.3)">
          <a xlink:href="displaylogs_8h__dep__incl_org.svg" target="_base">
           <rect id="button" ry="5" rx="5" y="6" x="6" height="38" width="38"
                fill="#f2f5e9" fill-opacity="0.5" stroke="#606060" stroke-width="1.0"/>
           <path id="arrow"
             d="M 11.500037,31.436501 C 11.940474,20.09759 22.043105,11.32322 32.158766,21.979434 L 37.068811,17.246167 C 37.068811,17.246167 37.088388,32 37.088388,32 L 22.160133,31.978069 C 22.160133,31.978069 26.997745,27.140456 26.997745,27.140456 C 18.528582,18.264221 13.291696,25.230495 11.500037,31.436501 z"
             style="fill:#404040;"/>
          </a>
         </g>
        </svg>
</svg>
