<?xml version="1.0" encoding="UTF-8" standalone="no"?>
<!DOCTYPE svg PUBLIC "-//W3C//DTD SVG 1.1//EN"
 "http://www.w3.org/Graphics/SVG/1.1/DTD/svg11.dtd">
<!-- Generated by graphviz version 2.30.1 (20130214.1330)
 -->
<!-- Title: GUI/Gui&#45;RoombaV1.0/displaylogs.h Pages: 1 -->
<svg width="512pt" height="108pt"
 viewBox="0.00 0.00 512.00 108.00" xmlns="http://www.w3.org/2000/svg" xmlns:xlink="http://www.w3.org/1999/xlink">
<g id="graph0" class="graph" transform="scale(1 1) rotate(0) translate(4 104)">
<title>GUI/Gui&#45;RoombaV1.0/displaylogs.h</title>
<polygon fill="white" stroke="white" points="-4,5 -4,-104 509,-104 509,5 -4,5"/>
<!-- Node1 -->
<g id="node1" class="node"><title>Node1</title>
<polygon fill="#bfbfbf" stroke="black" points="200,-69 200,-99 310,-99 310,-69 200,-69"/>
<text text-anchor="start" x="208" y="-87" font-family="Helvetica,sans-Serif" font-size="10.00">GUI/Gui&#45;RoombaV1.0</text>
<text text-anchor="middle" x="255" y="-76" font-family="Helvetica,sans-Serif" font-size="10.00">/displaylogs.h</text>
</g>
<!-- Node2 -->
<g id="node2" class="node"><title>Node2</title>
<g id="a_node2"><a xlink:href="../../d0/dcf/moc__display_logs_8cpp.xhtml" target="_top" xlink:title="GUI/bin/debug/debug\l/moc_displayLogs.cpp">
<polygon fill="white" stroke="black" points="0,-1 0,-31 114,-31 114,-1 0,-1"/>
<text text-anchor="start" x="8" y="-19" font-family="Helvetica,sans-Serif" font-size="10.00">GUI/bin/debug/debug</text>
<text text-anchor="middle" x="57" y="-8" font-family="Helvetica,sans-Serif" font-size="10.00">/moc_displayLogs.cpp</text>
</a>
</g>
</g>
<!-- Node1&#45;&gt;Node2 -->
<g id="edge1" class="edge"><title>Node1&#45;&gt;Node2</title>
<path fill="none" stroke="midnightblue" d="M202.775,-65.5916C170.395,-54.7984 129.347,-41.1157 99.0655,-31.0218"/>
<polygon fill="midnightblue" stroke="midnightblue" points="201.93,-68.9994 212.524,-68.8413 204.144,-62.3586 201.93,-68.9994"/>
</g>
<!-- Node3 -->
<g id="node3" class="node"><title>Node3</title>
<g id="a_node3"><a xlink:href="../../d5/dd2/controllingroomba_8cpp.xhtml" target="_top" xlink:title="GUI/Gui&#45;RoombaV1.0\l/controllingroomba.cpp">
<polygon fill="white" stroke="black" points="132.5,-1 132.5,-31 247.5,-31 247.5,-1 132.5,-1"/>
<text text-anchor="start" x="140.5" y="-19" font-family="Helvetica,sans-Serif" font-size="10.00">GUI/Gui&#45;RoombaV1.0</text>
<text text-anchor="middle" x="190" y="-8" font-family="Helvetica,sans-Serif" font-size="10.00">/controllingroomba.cpp</text>
</a>
</g>
</g>
<!-- Node1&#45;&gt;Node3 -->
<g id="edge2" class="edge"><title>Node1&#45;&gt;Node3</title>
<path fill="none" stroke="midnightblue" d="M233.811,-61.4855C224.061,-51.5852 212.759,-40.1092 204.077,-31.2931"/>
<polygon fill="midnightblue" stroke="midnightblue" points="231.385,-64.01 240.896,-68.679 236.373,-59.0982 231.385,-64.01"/>
</g>
<!-- Node4 -->
<g id="node4" class="node"><title>Node4</title>
<g id="a_node4"><a xlink:href="../../d1/d10/displaylogs_8cpp.xhtml" target="_top" xlink:title="GUI/Gui&#45;RoombaV1.0\l/displaylogs.cpp">
<polygon fill="white" stroke="black" points="266,-1 266,-31 376,-31 376,-1 266,-1"/>
<text text-anchor="start" x="274" y="-19" font-family="Helvetica,sans-Serif" font-size="10.00">GUI/Gui&#45;RoombaV1.0</text>
<text text-anchor="middle" x="321" y="-8" font-family="Helvetica,sans-Serif" font-size="10.00">/displaylogs.cpp</text>
</a>
</g>
</g>
<!-- Node1&#45;&gt;Node4 -->
<g id="edge3" class="edge"><title>Node1&#45;&gt;Node4</title>
<path fill="none" stroke="midnightblue" d="M276.515,-61.4855C286.415,-51.5852 297.891,-40.1092 306.707,-31.2931"/>
<polygon fill="midnightblue" stroke="midnightblue" points="273.917,-59.133 269.321,-68.679 278.867,-64.0828 273.917,-59.133"/>
</g>
<!-- Node5 -->
<g id="node5" class="node"><title>Node5</title>
<g id="a_node5"><a xlink:href="../../de/d67/roomba_8cpp.xhtml" target="_top" xlink:title="GUI/Gui&#45;RoombaV1.0\l/roomba.cpp">
<polygon fill="white" stroke="black" points="394,-1 394,-31 504,-31 504,-1 394,-1"/>
<text text-anchor="start" x="402" y="-19" font-family="Helvetica,sans-Serif" font-size="10.00">GUI/Gui&#45;RoombaV1.0</text>
<text text-anchor="middle" x="449" y="-8" font-family="Helvetica,sans-Serif" font-size="10.00">/roomba.cpp</text>
</a>
</g>
</g>
<!-- Node1&#45;&gt;Node5 -->
<g id="edge4" class="edge"><title>Node1&#45;&gt;Node5</title>
<path fill="none" stroke="midnightblue" d="M306.17,-65.5916C337.896,-54.7984 378.114,-41.1157 407.784,-31.0218"/>
<polygon fill="midnightblue" stroke="midnightblue" points="304.958,-62.307 296.618,-68.8413 307.212,-68.934 304.958,-62.307"/>
</g>
</g>
</svg>
