<?xml version="1.0" encoding="UTF-8" standalone="no"?>
<!DOCTYPE svg PUBLIC "-//W3C//DTD SVG 1.1//EN"
 "http://www.w3.org/Graphics/SVG/1.1/DTD/svg11.dtd">
<!-- Generated by graphviz version 2.30.1 (20130214.1330)
 -->
<!-- Title: GUI/Timer/mytimer.h Pages: 1 -->
<svg width="245pt" height="84pt"
 viewBox="0.00 0.00 245.00 84.00" xmlns="http://www.w3.org/2000/svg" xmlns:xlink="http://www.w3.org/1999/xlink">
<g id="graph0" class="graph" transform="scale(1 1) rotate(0) translate(4 80)">
<title>GUI/Timer/mytimer.h</title>
<polygon fill="white" stroke="white" points="-4,5 -4,-80 242,-80 242,5 -4,5"/>
<!-- Node1 -->
<g id="node1" class="node"><title>Node1</title>
<polygon fill="#bfbfbf" stroke="black" points="61.5,-56.5 61.5,-75.5 168.5,-75.5 168.5,-56.5 61.5,-56.5"/>
<text text-anchor="middle" x="115" y="-63.5" font-family="Helvetica,sans-Serif" font-size="10.00">GUI/Timer/mytimer.h</text>
</g>
<!-- Node2 -->
<g id="node2" class="node"><title>Node2</title>
<g id="a_node2"><a xlink:href="../../d7/dc2/_timer_2main_8cpp.xhtml" target="_top" xlink:title="GUI/Timer/main.cpp">
<polygon fill="white" stroke="black" points="-0.5,-0.5 -0.5,-19.5 102.5,-19.5 102.5,-0.5 -0.5,-0.5"/>
<text text-anchor="middle" x="51" y="-7.5" font-family="Helvetica,sans-Serif" font-size="10.00">GUI/Timer/main.cpp</text>
</a>
</g>
</g>
<!-- Node1&#45;&gt;Node2 -->
<g id="edge1" class="edge"><title>Node1&#45;&gt;Node2</title>
<path fill="none" stroke="midnightblue" d="M97.0085,-49.8197C85.5424,-40.1452 71.0867,-27.9481 61.4698,-19.8339"/>
<polygon fill="midnightblue" stroke="midnightblue" points="94.8173,-52.5502 104.717,-56.324 99.3314,-47.2002 94.8173,-52.5502"/>
</g>
<!-- Node3 -->
<g id="node3" class="node"><title>Node3</title>
<g id="a_node3"><a xlink:href="../../d2/d04/_timer_2mytimer_8cpp.xhtml" target="_top" xlink:title="GUI/Timer/mytimer.cpp">
<polygon fill="white" stroke="black" points="120.5,-0.5 120.5,-19.5 237.5,-19.5 237.5,-0.5 120.5,-0.5"/>
<text text-anchor="middle" x="179" y="-7.5" font-family="Helvetica,sans-Serif" font-size="10.00">GUI/Timer/mytimer.cpp</text>
</a>
</g>
</g>
<!-- Node1&#45;&gt;Node3 -->
<g id="edge2" class="edge"><title>Node1&#45;&gt;Node3</title>
<path fill="none" stroke="midnightblue" d="M132.991,-49.8197C144.458,-40.1452 158.913,-27.9481 168.53,-19.8339"/>
<polygon fill="midnightblue" stroke="midnightblue" points="130.669,-47.2002 125.283,-56.324 135.183,-52.5502 130.669,-47.2002"/>
</g>
</g>
</svg>
