<?xml version="1.0" encoding="UTF-8" standalone="no"?>
<!DOCTYPE svg PUBLIC "-//W3C//DTD SVG 1.1//EN"
 "http://www.w3.org/Graphics/SVG/1.1/DTD/svg11.dtd">
<!-- Generated by graphviz version 2.30.1 (20130214.1330)
 -->
<!-- Title: GUI/Gui&#45;RoombaV1.0/sensordata.h Pages: 1 -->
<svg width="1169pt" height="342pt"
 viewBox="0.00 0.00 1169.00 342.00" xmlns="http://www.w3.org/2000/svg" xmlns:xlink="http://www.w3.org/1999/xlink">
<g id="graph0" class="graph" transform="scale(1 1) rotate(0) translate(4 338)">
<title>GUI/Gui&#45;RoombaV1.0/sensordata.h</title>
<polygon fill="white" stroke="white" points="-4,5 -4,-338 1166,-338 1166,5 -4,5"/>
<!-- Node1 -->
<g id="node1" class="node"><title>Node1</title>
<polygon fill="#bfbfbf" stroke="black" points="823,-303 823,-333 933,-333 933,-303 823,-303"/>
<text text-anchor="start" x="831" y="-321" font-family="Helvetica,sans-Serif" font-size="10.00">GUI/Gui&#45;RoombaV1.0</text>
<text text-anchor="middle" x="878" y="-310" font-family="Helvetica,sans-Serif" font-size="10.00">/sensordata.h</text>
</g>
<!-- Node2 -->
<g id="node2" class="node"><title>Node2</title>
<g id="a_node2"><a xlink:href="../../d4/dca/_roomba_connect_8h.xhtml" target="_top" xlink:title="GUI/Gui&#45;RoombaV1.0\l/RoombaConnect.h">
<polygon fill="white" stroke="black" points="430,-235 430,-265 540,-265 540,-235 430,-235"/>
<text text-anchor="start" x="438" y="-253" font-family="Helvetica,sans-Serif" font-size="10.00">GUI/Gui&#45;RoombaV1.0</text>
<text text-anchor="middle" x="485" y="-242" font-family="Helvetica,sans-Serif" font-size="10.00">/RoombaConnect.h</text>
</a>
</g>
</g>
<!-- Node1&#45;&gt;Node2 -->
<g id="edge1" class="edge"><title>Node1&#45;&gt;Node2</title>
<path fill="none" stroke="midnightblue" d="M812.974,-306.08C736.715,-293.273 611.644,-272.269 540.003,-260.237"/>
<polygon fill="midnightblue" stroke="midnightblue" points="812.5,-309.549 822.941,-307.753 813.659,-302.646 812.5,-309.549"/>
</g>
<!-- Node5 -->
<g id="node5" class="node"><title>Node5</title>
<g id="a_node5"><a xlink:href="../../dd/da1/roomba_8h.xhtml" target="_top" xlink:title="GUI/Gui&#45;RoombaV1.0\l/roomba.h">
<polygon fill="white" stroke="black" points="468,-84 468,-114 578,-114 578,-84 468,-84"/>
<text text-anchor="start" x="476" y="-102" font-family="Helvetica,sans-Serif" font-size="10.00">GUI/Gui&#45;RoombaV1.0</text>
<text text-anchor="middle" x="523" y="-91" font-family="Helvetica,sans-Serif" font-size="10.00">/roomba.h</text>
</a>
</g>
</g>
<!-- Node1&#45;&gt;Node5 -->
<g id="edge19" class="edge"><title>Node1&#45;&gt;Node5</title>
<path fill="none" stroke="midnightblue" d="M883.003,-292.733C888.705,-257.572 893.155,-192.665 858,-156 820.404,-116.789 663.393,-105.012 578.335,-101.491"/>
<polygon fill="midnightblue" stroke="midnightblue" points="879.549,-292.167 881.236,-302.626 886.44,-293.398 879.549,-292.167"/>
</g>
<!-- Node18 -->
<g id="node18" class="node"><title>Node18</title>
<g id="a_node18"><a xlink:href="../../d7/d4e/sensordata_8cpp.xhtml" target="_top" xlink:title="GUI/Gui&#45;RoombaV1.0\l/sensordata.cpp">
<polygon fill="white" stroke="black" points="906,-235 906,-265 1016,-265 1016,-235 906,-235"/>
<text text-anchor="start" x="914" y="-253" font-family="Helvetica,sans-Serif" font-size="10.00">GUI/Gui&#45;RoombaV1.0</text>
<text text-anchor="middle" x="961" y="-242" font-family="Helvetica,sans-Serif" font-size="10.00">/sensordata.cpp</text>
</a>
</g>
</g>
<!-- Node1&#45;&gt;Node18 -->
<g id="edge20" class="edge"><title>Node1&#45;&gt;Node18</title>
<path fill="none" stroke="midnightblue" d="M904.02,-296.309C916.806,-286.143 931.879,-274.156 943.311,-265.066"/>
<polygon fill="midnightblue" stroke="midnightblue" points="901.658,-293.716 896.01,-302.679 906.015,-299.194 901.658,-293.716"/>
</g>
<!-- Node3 -->
<g id="node3" class="node"><title>Node3</title>
<g id="a_node3"><a xlink:href="../../da/d4b/controllingroomba_8h.xhtml" target="_top" xlink:title="GUI/Gui&#45;RoombaV1.0\l/controllingroomba.h">
<polygon fill="white" stroke="black" points="182,-162 182,-192 292,-192 292,-162 182,-162"/>
<text text-anchor="start" x="190" y="-180" font-family="Helvetica,sans-Serif" font-size="10.00">GUI/Gui&#45;RoombaV1.0</text>
<text text-anchor="middle" x="237" y="-169" font-family="Helvetica,sans-Serif" font-size="10.00">/controllingroomba.h</text>
</a>
</g>
</g>
<!-- Node2&#45;&gt;Node3 -->
<g id="edge2" class="edge"><title>Node2&#45;&gt;Node3</title>
<path fill="none" stroke="midnightblue" d="M425.585,-232.145C390.734,-222.24 345.855,-209.454 306,-198 299.287,-196.071 292.21,-194.029 285.248,-192.015"/>
<polygon fill="midnightblue" stroke="midnightblue" points="425.022,-235.623 435.597,-234.99 426.935,-228.89 425.022,-235.623"/>
</g>
<!-- Node2&#45;&gt;Node5 -->
<g id="edge15" class="edge"><title>Node2&#45;&gt;Node5</title>
<path fill="none" stroke="midnightblue" d="M419.899,-243.134C390.12,-236.817 357.433,-223.964 339,-198 328.194,-182.779 327.887,-170.998 339,-156 346.927,-145.302 416.402,-126.196 467.654,-113.312"/>
<polygon fill="midnightblue" stroke="midnightblue" points="419.382,-246.599 429.861,-245.036 420.695,-239.723 419.382,-246.599"/>
</g>
<!-- Node15 -->
<g id="node15" class="node"><title>Node15</title>
<g id="a_node15"><a xlink:href="../../d1/d9b/bin_2debug_2debug_2moc___roomba_connect_8cpp.xhtml" target="_top" xlink:title="GUI/bin/debug/debug\l/moc_RoombaConnect.cpp">
<polygon fill="white" stroke="black" points="348,-162 348,-192 482,-192 482,-162 348,-162"/>
<text text-anchor="start" x="356" y="-180" font-family="Helvetica,sans-Serif" font-size="10.00">GUI/bin/debug/debug</text>
<text text-anchor="middle" x="415" y="-169" font-family="Helvetica,sans-Serif" font-size="10.00">/moc_RoombaConnect.cpp</text>
</a>
</g>
</g>
<!-- Node2&#45;&gt;Node15 -->
<g id="edge16" class="edge"><title>Node2&#45;&gt;Node15</title>
<path fill="none" stroke="midnightblue" d="M463.856,-227.554C452.669,-216.207 439.231,-202.577 429.282,-192.486"/>
<polygon fill="midnightblue" stroke="midnightblue" points="461.657,-230.309 471.17,-234.973 466.642,-225.394 461.657,-230.309"/>
</g>
<!-- Node16 -->
<g id="node16" class="node"><title>Node16</title>
<g id="a_node16"><a xlink:href="../../d7/da4/_roomba_connect_8cpp.xhtml" target="_top" xlink:title="GUI/Gui&#45;RoombaV1.0\l/RoombaConnect.cpp">
<polygon fill="white" stroke="black" points="500,-162 500,-192 610,-192 610,-162 500,-162"/>
<text text-anchor="start" x="508" y="-180" font-family="Helvetica,sans-Serif" font-size="10.00">GUI/Gui&#45;RoombaV1.0</text>
<text text-anchor="middle" x="555" y="-169" font-family="Helvetica,sans-Serif" font-size="10.00">/RoombaConnect.cpp</text>
</a>
</g>
</g>
<!-- Node2&#45;&gt;Node16 -->
<g id="edge17" class="edge"><title>Node2&#45;&gt;Node16</title>
<path fill="none" stroke="midnightblue" d="M506.144,-227.554C517.331,-216.207 530.769,-202.577 540.718,-192.486"/>
<polygon fill="midnightblue" stroke="midnightblue" points="503.358,-225.394 498.83,-234.973 508.343,-230.309 503.358,-225.394"/>
</g>
<!-- Node17 -->
<g id="node17" class="node"><title>Node17</title>
<g id="a_node17"><a xlink:href="../../d2/ddc/roombagui-build-_desktop___qt__5__0__1___m_s_v_c2010__32bit-_debug_2debug_2moc___roomba_connect_8cpp.xhtml" target="_top" xlink:title="GUI/roombagui&#45;build\l&#45;Desktop_Qt_5_0_1_MSVC2010\l_32bit&#45;Debug/debug/moc_RoombaConnect.cpp">
<polygon fill="white" stroke="black" points="628.5,-156.5 628.5,-197.5 849.5,-197.5 849.5,-156.5 628.5,-156.5"/>
<text text-anchor="start" x="636.5" y="-185.5" font-family="Helvetica,sans-Serif" font-size="10.00">GUI/roombagui&#45;build</text>
<text text-anchor="start" x="636.5" y="-174.5" font-family="Helvetica,sans-Serif" font-size="10.00">&#45;Desktop_Qt_5_0_1_MSVC2010</text>
<text text-anchor="middle" x="739" y="-163.5" font-family="Helvetica,sans-Serif" font-size="10.00">_32bit&#45;Debug/debug/moc_RoombaConnect.cpp</text>
</a>
</g>
</g>
<!-- Node2&#45;&gt;Node17 -->
<g id="edge18" class="edge"><title>Node2&#45;&gt;Node17</title>
<path fill="none" stroke="midnightblue" d="M544.898,-232.257C582.159,-221.841 630.232,-208.404 669.213,-197.507"/>
<polygon fill="midnightblue" stroke="midnightblue" points="543.871,-228.91 535.182,-234.973 545.755,-235.651 543.871,-228.91"/>
</g>
<!-- Node4 -->
<g id="node4" class="node"><title>Node4</title>
<g id="a_node4"><a xlink:href="../../d2/d33/bin_2debug_2debug_2moc__controllingroomba_8cpp.xhtml" target="_top" xlink:title="GUI/bin/debug/debug\l/moc_controllingroomba.cpp">
<polygon fill="white" stroke="black" points="-0.5,-84 -0.5,-114 138.5,-114 138.5,-84 -0.5,-84"/>
<text text-anchor="start" x="7.5" y="-102" font-family="Helvetica,sans-Serif" font-size="10.00">GUI/bin/debug/debug</text>
<text text-anchor="middle" x="69" y="-91" font-family="Helvetica,sans-Serif" font-size="10.00">/moc_controllingroomba.cpp</text>
</a>
</g>
</g>
<!-- Node3&#45;&gt;Node4 -->
<g id="edge3" class="edge"><title>Node3&#45;&gt;Node4</title>
<path fill="none" stroke="midnightblue" d="M196.545,-157.699C166.886,-144.282 127.216,-126.336 100.039,-114.041"/>
<polygon fill="midnightblue" stroke="midnightblue" points="195.241,-160.95 205.794,-161.883 198.126,-154.572 195.241,-160.95"/>
</g>
<!-- Node3&#45;&gt;Node5 -->
<g id="edge4" class="edge"><title>Node3&#45;&gt;Node5</title>
<path fill="none" stroke="midnightblue" d="M294.504,-159.194C298.391,-158.1 302.25,-157.027 306,-156 360.788,-140.994 423.664,-124.89 467.582,-113.821"/>
<polygon fill="midnightblue" stroke="midnightblue" points="293.497,-155.841 284.831,-161.937 295.407,-162.576 293.497,-155.841"/>
</g>
<!-- Node7 -->
<g id="node7" class="node"><title>Node7</title>
<g id="a_node7"><a xlink:href="../../d5/dd2/controllingroomba_8cpp.xhtml" target="_top" xlink:title="GUI/Gui&#45;RoombaV1.0\l/controllingroomba.cpp">
<polygon fill="white" stroke="black" points="81.5,-6 81.5,-36 196.5,-36 196.5,-6 81.5,-6"/>
<text text-anchor="start" x="89.5" y="-24" font-family="Helvetica,sans-Serif" font-size="10.00">GUI/Gui&#45;RoombaV1.0</text>
<text text-anchor="middle" x="139" y="-13" font-family="Helvetica,sans-Serif" font-size="10.00">/controllingroomba.cpp</text>
</a>
</g>
</g>
<!-- Node3&#45;&gt;Node7 -->
<g id="edge13" class="edge"><title>Node3&#45;&gt;Node7</title>
<path fill="none" stroke="midnightblue" d="M214.568,-154.383C205.029,-144.469 194.233,-132.219 186,-120 167.337,-92.3024 152.013,-56.0572 144.333,-36.3248"/>
<polygon fill="midnightblue" stroke="midnightblue" points="212.359,-157.128 221.874,-161.788 217.342,-152.211 212.359,-157.128"/>
</g>
<!-- Node14 -->
<g id="node14" class="node"><title>Node14</title>
<g id="a_node14"><a xlink:href="../../d5/dc6/roombagui-build-_desktop___qt__5__0__1___m_s_v_c2010__32bit-_debug_2debug_2moc__controllingroomba_8cpp.xhtml" target="_top" xlink:title="GUI/roombagui&#45;build\l&#45;Desktop_Qt_5_0_1_MSVC2010\l_32bit&#45;Debug/debug/moc_controllingroomba.cpp">
<polygon fill="white" stroke="black" points="195.5,-78.5 195.5,-119.5 420.5,-119.5 420.5,-78.5 195.5,-78.5"/>
<text text-anchor="start" x="203.5" y="-107.5" font-family="Helvetica,sans-Serif" font-size="10.00">GUI/roombagui&#45;build</text>
<text text-anchor="start" x="203.5" y="-96.5" font-family="Helvetica,sans-Serif" font-size="10.00">&#45;Desktop_Qt_5_0_1_MSVC2010</text>
<text text-anchor="middle" x="308" y="-85.5" font-family="Helvetica,sans-Serif" font-size="10.00">_32bit&#45;Debug/debug/moc_controllingroomba.cpp</text>
</a>
</g>
</g>
<!-- Node3&#45;&gt;Node14 -->
<g id="edge14" class="edge"><title>Node3&#45;&gt;Node14</title>
<path fill="none" stroke="midnightblue" d="M257.337,-154.23C267.509,-143.342 279.726,-130.265 289.615,-119.68"/>
<polygon fill="midnightblue" stroke="midnightblue" points="254.624,-152.008 250.355,-161.705 259.739,-156.787 254.624,-152.008"/>
</g>
<!-- Node6 -->
<g id="node6" class="node"><title>Node6</title>
<g id="a_node6"><a xlink:href="../../d8/d22/bin_2debug_2debug_2moc__roomba_8cpp.xhtml" target="_top" xlink:title="GUI/bin/debug/debug\l/moc_roomba.cpp">
<polygon fill="white" stroke="black" points="214.5,-6 214.5,-36 321.5,-36 321.5,-6 214.5,-6"/>
<text text-anchor="start" x="222.5" y="-24" font-family="Helvetica,sans-Serif" font-size="10.00">GUI/bin/debug/debug</text>
<text text-anchor="middle" x="268" y="-13" font-family="Helvetica,sans-Serif" font-size="10.00">/moc_roomba.cpp</text>
</a>
</g>
</g>
<!-- Node5&#45;&gt;Node6 -->
<g id="edge5" class="edge"><title>Node5&#45;&gt;Node6</title>
<path fill="none" stroke="midnightblue" d="M463.7,-81.0953C425.701,-70.1663 375.365,-55.5099 331,-42 324.743,-40.0945 318.149,-38.0461 311.678,-36.0128"/>
<polygon fill="midnightblue" stroke="midnightblue" points="463.001,-84.536 473.578,-83.9325 464.933,-77.8079 463.001,-84.536"/>
</g>
<!-- Node5&#45;&gt;Node7 -->
<g id="edge6" class="edge"><title>Node5&#45;&gt;Node7</title>
<path fill="none" stroke="midnightblue" d="M457.928,-83.7113C448.246,-81.7141 438.373,-79.7492 429,-78 329.878,-59.5021 303.251,-64.6727 205,-42 197.65,-40.3039 189.921,-38.2314 182.444,-36.0704"/>
<polygon fill="midnightblue" stroke="midnightblue" points="457.416,-87.1797 467.92,-85.7965 458.846,-80.3274 457.416,-87.1797"/>
</g>
<!-- Node8 -->
<g id="node8" class="node"><title>Node8</title>
<g id="a_node8"><a xlink:href="../../d1/d10/displaylogs_8cpp.xhtml" target="_top" xlink:title="GUI/Gui&#45;RoombaV1.0\l/displaylogs.cpp">
<polygon fill="white" stroke="black" points="340,-6 340,-36 450,-36 450,-6 340,-6"/>
<text text-anchor="start" x="348" y="-24" font-family="Helvetica,sans-Serif" font-size="10.00">GUI/Gui&#45;RoombaV1.0</text>
<text text-anchor="middle" x="395" y="-13" font-family="Helvetica,sans-Serif" font-size="10.00">/displaylogs.cpp</text>
</a>
</g>
</g>
<!-- Node5&#45;&gt;Node8 -->
<g id="edge7" class="edge"><title>Node5&#45;&gt;Node8</title>
<path fill="none" stroke="midnightblue" d="M490.401,-78.6444C468.016,-65.3533 438.817,-48.0166 418.649,-36.0413"/>
<polygon fill="midnightblue" stroke="midnightblue" points="488.839,-81.7872 499.224,-83.8831 492.413,-75.7682 488.839,-81.7872"/>
</g>
<!-- Node9 -->
<g id="node9" class="node"><title>Node9</title>
<g id="a_node9"><a xlink:href="../../da/d0b/information_8cpp.xhtml" target="_top" xlink:title="GUI/Gui&#45;RoombaV1.0\l/information.cpp">
<polygon fill="white" stroke="black" points="468,-6 468,-36 578,-36 578,-6 468,-6"/>
<text text-anchor="start" x="476" y="-24" font-family="Helvetica,sans-Serif" font-size="10.00">GUI/Gui&#45;RoombaV1.0</text>
<text text-anchor="middle" x="523" y="-13" font-family="Helvetica,sans-Serif" font-size="10.00">/information.cpp</text>
</a>
</g>
</g>
<!-- Node5&#45;&gt;Node9 -->
<g id="edge8" class="edge"><title>Node5&#45;&gt;Node9</title>
<path fill="none" stroke="midnightblue" d="M523,-73.5898C523,-61.2565 523,-46.7237 523,-36.2309"/>
<polygon fill="midnightblue" stroke="midnightblue" points="519.5,-73.7049 523,-83.705 526.5,-73.705 519.5,-73.7049"/>
</g>
<!-- Node10 -->
<g id="node10" class="node"><title>Node10</title>
<g id="a_node10"><a xlink:href="../../d8/da8/_gui-_roomba_v1_80_2main_8cpp.xhtml" target="_top" xlink:title="GUI/Gui&#45;RoombaV1.0\l/main.cpp">
<polygon fill="white" stroke="black" points="596,-6 596,-36 706,-36 706,-6 596,-6"/>
<text text-anchor="start" x="604" y="-24" font-family="Helvetica,sans-Serif" font-size="10.00">GUI/Gui&#45;RoombaV1.0</text>
<text text-anchor="middle" x="651" y="-13" font-family="Helvetica,sans-Serif" font-size="10.00">/main.cpp</text>
</a>
</g>
</g>
<!-- Node5&#45;&gt;Node10 -->
<g id="edge9" class="edge"><title>Node5&#45;&gt;Node10</title>
<path fill="none" stroke="midnightblue" d="M555.599,-78.6444C577.984,-65.3533 607.183,-48.0166 627.351,-36.0413"/>
<polygon fill="midnightblue" stroke="midnightblue" points="553.587,-75.7682 546.776,-83.8831 557.161,-81.7872 553.587,-75.7682"/>
</g>
<!-- Node11 -->
<g id="node11" class="node"><title>Node11</title>
<g id="a_node11"><a xlink:href="../../de/d67/roomba_8cpp.xhtml" target="_top" xlink:title="GUI/Gui&#45;RoombaV1.0\l/roomba.cpp">
<polygon fill="white" stroke="black" points="724,-6 724,-36 834,-36 834,-6 724,-6"/>
<text text-anchor="start" x="732" y="-24" font-family="Helvetica,sans-Serif" font-size="10.00">GUI/Gui&#45;RoombaV1.0</text>
<text text-anchor="middle" x="779" y="-13" font-family="Helvetica,sans-Serif" font-size="10.00">/roomba.cpp</text>
</a>
</g>
</g>
<!-- Node5&#45;&gt;Node11 -->
<g id="edge10" class="edge"><title>Node5&#45;&gt;Node11</title>
<path fill="none" stroke="midnightblue" d="M581.888,-81.1394C619.924,-70.1713 670.452,-55.4559 715,-42 721.24,-40.115 727.813,-38.0977 734.274,-36.0961"/>
<polygon fill="midnightblue" stroke="midnightblue" points="580.644,-77.8554 572.004,-83.9865 582.582,-84.5819 580.644,-77.8554"/>
</g>
<!-- Node12 -->
<g id="node12" class="node"><title>Node12</title>
<g id="a_node12"><a xlink:href="../../da/d3b/settingsroomba_8cpp.xhtml" target="_top" xlink:title="GUI/Gui&#45;RoombaV1.0\l/settingsroomba.cpp">
<polygon fill="white" stroke="black" points="852,-6 852,-36 962,-36 962,-6 852,-6"/>
<text text-anchor="start" x="860" y="-24" font-family="Helvetica,sans-Serif" font-size="10.00">GUI/Gui&#45;RoombaV1.0</text>
<text text-anchor="middle" x="907" y="-13" font-family="Helvetica,sans-Serif" font-size="10.00">/settingsroomba.cpp</text>
</a>
</g>
</g>
<!-- Node5&#45;&gt;Node12 -->
<g id="edge11" class="edge"><title>Node5&#45;&gt;Node12</title>
<path fill="none" stroke="midnightblue" d="M588.193,-89.1227C653.219,-79.6763 755.727,-63.1784 843,-42 850.127,-40.2705 857.622,-38.181 864.873,-36.0134"/>
<polygon fill="midnightblue" stroke="midnightblue" points="587.485,-85.6884 578.086,-90.5779 588.483,-92.6169 587.485,-85.6884"/>
</g>
<!-- Node13 -->
<g id="node13" class="node"><title>Node13</title>
<g id="a_node13"><a xlink:href="../../d9/d13/roombagui-build-_desktop___qt__5__0__1___m_s_v_c2010__32bit-_debug_2debug_2moc__roomba_8cpp.xhtml" target="_top" xlink:title="GUI/roombagui&#45;build\l&#45;Desktop_Qt_5_0_1_MSVC2010\l_32bit&#45;Debug/debug/moc_roomba.cpp">
<polygon fill="white" stroke="black" points="980.5,-0.5 980.5,-41.5 1161.5,-41.5 1161.5,-0.5 980.5,-0.5"/>
<text text-anchor="start" x="988.5" y="-29.5" font-family="Helvetica,sans-Serif" font-size="10.00">GUI/roombagui&#45;build</text>
<text text-anchor="start" x="988.5" y="-18.5" font-family="Helvetica,sans-Serif" font-size="10.00">&#45;Desktop_Qt_5_0_1_MSVC2010</text>
<text text-anchor="middle" x="1071" y="-7.5" font-family="Helvetica,sans-Serif" font-size="10.00">_32bit&#45;Debug/debug/moc_roomba.cpp</text>
</a>
</g>
</g>
<!-- Node5&#45;&gt;Node13 -->
<g id="edge12" class="edge"><title>Node5&#45;&gt;Node13</title>
<path fill="none" stroke="midnightblue" d="M588.042,-91.3768C675.404,-82.137 835.362,-64.011 971,-42 974.058,-41.5037 977.166,-40.9818 980.302,-40.4401"/>
<polygon fill="midnightblue" stroke="midnightblue" points="587.591,-87.9048 578.012,-92.4322 588.324,-94.8664 587.591,-87.9048"/>
</g>
</g>
</svg>
