<?xml version="1.0" encoding="UTF-8" standalone="no"?>
<!DOCTYPE svg PUBLIC "-//W3C//DTD SVG 1.1//EN"
 "http://www.w3.org/Graphics/SVG/1.1/DTD/svg11.dtd">
<!-- Generated by graphviz version 2.30.1 (20130214.1330)
 -->
<!-- Title: GUI/resources/jsoncommand.h Pages: 1 -->
<!--zoomable 330 -->
<svg id="main" version="1.1" xmlns="http://www.w3.org/2000/svg" xmlns:xlink="http://www.w3.org/1999/xlink" xml:space="preserve" onload="init(evt)">
        <defs>
                <circle id="rim" cx="0" cy="0" r="7"/>
                <circle id="rim2" cx="0" cy="0" r="3.5"/>
                <g id="zoomPlus">
                        <use xlink:href="#rim" fill="#404040">
                                <set attributeName="fill" to="#808080" begin="zoomplus.mouseover" end="zoomplus.mouseout"/>
                        </use>
                        <path d="M-4,0h8M0,-4v8" fill="none" stroke="white" stroke-width="1.5" pointer-events="none"/>
                </g>
                <g id="zoomMin">
                        <use xlink:href="#rim" fill="#404040">
                                <set attributeName="fill" to="#808080" begin="zoomminus.mouseover" end="zoomminus.mouseout"/>
                        </use>
                        <path d="M-4,0h8" fill="none" stroke="white" stroke-width="1.5" pointer-events="none"/>
                </g>
                <g id="dirArrow">
                        <path fill="none" stroke="white" stroke-width="1.5" d="M0,-3.0v7 M-2.5,-0.5L0,-3.0L2.5,-0.5"/>
                </g>
               <g id="resetDef">
                       <use xlink:href="#rim2" fill="#404040">
                               <set attributeName="fill" to="#808080" begin="reset.mouseover" end="reset.mouseout"/>
                       </use>
               </g>
        </defs>

<script type="text/javascript">
var viewWidth = 1169;
var viewHeight = 330;
var sectionId = 'dynsection-1';
</script>
<script xlink:href="../../svgpan.js"/>
<svg id="graph" class="graph">
<g id="viewport">
<title>GUI/resources/jsoncommand.h</title>
<polygon fill="white" stroke="white" points="-4,5 -4,-326 1166,-326 1166,5 -4,5"/>
<!-- Node1 -->
<g id="node1" class="node"><title>Node1</title>
<polygon fill="#bfbfbf" stroke="black" points="719.5,-302.5 719.5,-321.5 870.5,-321.5 870.5,-302.5 719.5,-302.5"/>
<text text-anchor="middle" x="795" y="-309.5" font-family="Helvetica,sans-Serif" font-size="10.00">GUI/resources/jsoncommand.h</text>
</g>
<!-- Node2 -->
<g id="node2" class="node"><title>Node2</title>
<g id="a_node2"><a xlink:href="../../da/d4b/controllingroomba_8h.xhtml" target="_top" xlink:title="GUI/Gui&#45;RoombaV1.0\l/controllingroomba.h">
<polygon fill="white" stroke="black" points="182,-162 182,-192 292,-192 292,-162 182,-162"/>
<text text-anchor="start" x="190" y="-180" font-family="Helvetica,sans-Serif" font-size="10.00">GUI/Gui&#45;RoombaV1.0</text>
<text text-anchor="middle" x="237" y="-169" font-family="Helvetica,sans-Serif" font-size="10.00">/controllingroomba.h</text>
</a>
</g>
</g>
<!-- Node1&#45;&gt;Node2 -->
<g id="edge1" class="edge"><title>Node1&#45;&gt;Node2</title>
<path fill="none" stroke="midnightblue" d="M708.966,-304.033C643.764,-297.532 552.332,-285.785 474,-266 398.041,-246.814 312.784,-211.6 268.126,-192.037"/>
<polygon fill="midnightblue" stroke="midnightblue" points="708.906,-307.544 719.199,-305.032 709.586,-300.577 708.906,-307.544"/>
</g>
<!-- Node14 -->
<g id="node14" class="node"><title>Node14</title>
<g id="a_node14"><a xlink:href="../../d4/dca/_roomba_connect_8h.xhtml" target="_top" xlink:title="GUI/Gui&#45;RoombaV1.0\l/RoombaConnect.h">
<polygon fill="white" stroke="black" points="483,-235 483,-265 593,-265 593,-235 483,-235"/>
<text text-anchor="start" x="491" y="-253" font-family="Helvetica,sans-Serif" font-size="10.00">GUI/Gui&#45;RoombaV1.0</text>
<text text-anchor="middle" x="538" y="-242" font-family="Helvetica,sans-Serif" font-size="10.00">/RoombaConnect.h</text>
</a>
</g>
</g>
<!-- Node1&#45;&gt;Node14 -->
<g id="edge14" class="edge"><title>Node1&#45;&gt;Node14</title>
<path fill="none" stroke="midnightblue" d="M748.673,-300.184C705.051,-290 639.664,-274.735 593.323,-263.916"/>
<polygon fill="midnightblue" stroke="midnightblue" points="747.917,-303.602 758.451,-302.467 749.509,-296.785 747.917,-303.602"/>
</g>
<!-- Node4 -->
<g id="node4" class="node"><title>Node4</title>
<g id="a_node4"><a xlink:href="../../dd/da1/roomba_8h.xhtml" target="_top" xlink:title="GUI/Gui&#45;RoombaV1.0\l/roomba.h">
<polygon fill="white" stroke="black" points="468,-84 468,-114 578,-114 578,-84 468,-84"/>
<text text-anchor="start" x="476" y="-102" font-family="Helvetica,sans-Serif" font-size="10.00">GUI/Gui&#45;RoombaV1.0</text>
<text text-anchor="middle" x="523" y="-91" font-family="Helvetica,sans-Serif" font-size="10.00">/roomba.h</text>
</a>
</g>
</g>
<!-- Node1&#45;&gt;Node4 -->
<g id="edge20" class="edge"><title>Node1&#45;&gt;Node4</title>
<path fill="none" stroke="midnightblue" d="M811.422,-295.142C840.628,-265.044 895.276,-198.823 859,-156 823.642,-114.261 663.917,-103.603 578.04,-100.901"/>
<polygon fill="midnightblue" stroke="midnightblue" points="808.865,-292.75 804.284,-302.303 813.823,-297.691 808.865,-292.75"/>
</g>
<!-- Node16 -->
<g id="node16" class="node"><title>Node16</title>
<g id="a_node16"><a xlink:href="../../d7/da4/_roomba_connect_8cpp.xhtml" target="_top" xlink:title="GUI/Gui&#45;RoombaV1.0\l/RoombaConnect.cpp">
<polygon fill="white" stroke="black" points="740,-162 740,-192 850,-192 850,-162 740,-162"/>
<text text-anchor="start" x="748" y="-180" font-family="Helvetica,sans-Serif" font-size="10.00">GUI/Gui&#45;RoombaV1.0</text>
<text text-anchor="middle" x="795" y="-169" font-family="Helvetica,sans-Serif" font-size="10.00">/RoombaConnect.cpp</text>
</a>
</g>
</g>
<!-- Node1&#45;&gt;Node16 -->
<g id="edge21" class="edge"><title>Node1&#45;&gt;Node16</title>
<path fill="none" stroke="midnightblue" d="M795,-292.248C795,-265.402 795,-216.588 795,-192.391"/>
<polygon fill="midnightblue" stroke="midnightblue" points="791.5,-292.273 795,-302.273 798.5,-292.274 791.5,-292.273"/>
</g>
<!-- Node18 -->
<g id="node18" class="node"><title>Node18</title>
<g id="a_node18"><a xlink:href="../../d9/d73/jsoncommand_8cpp.xhtml" target="_top" xlink:title="GUI/resources/jsoncommand.cpp">
<polygon fill="white" stroke="black" points="906.5,-240.5 906.5,-259.5 1067.5,-259.5 1067.5,-240.5 906.5,-240.5"/>
<text text-anchor="middle" x="987" y="-247.5" font-family="Helvetica,sans-Serif" font-size="10.00">GUI/resources/jsoncommand.cpp</text>
</a>
</g>
</g>
<!-- Node1&#45;&gt;Node18 -->
<g id="edge22" class="edge"><title>Node1&#45;&gt;Node18</title>
<path fill="none" stroke="midnightblue" d="M832.495,-299.283C869.815,-287.62 926.203,-269.999 959.542,-259.581"/>
<polygon fill="midnightblue" stroke="midnightblue" points="831.01,-296.08 822.509,-302.403 833.098,-302.761 831.01,-296.08"/>
</g>
<!-- Node3 -->
<g id="node3" class="node"><title>Node3</title>
<g id="a_node3"><a xlink:href="../../d2/d33/bin_2debug_2debug_2moc__controllingroomba_8cpp.xhtml" target="_top" xlink:title="GUI/bin/debug/debug\l/moc_controllingroomba.cpp">
<polygon fill="white" stroke="black" points="-0.5,-84 -0.5,-114 138.5,-114 138.5,-84 -0.5,-84"/>
<text text-anchor="start" x="7.5" y="-102" font-family="Helvetica,sans-Serif" font-size="10.00">GUI/bin/debug/debug</text>
<text text-anchor="middle" x="69" y="-91" font-family="Helvetica,sans-Serif" font-size="10.00">/moc_controllingroomba.cpp</text>
</a>
</g>
</g>
<!-- Node2&#45;&gt;Node3 -->
<g id="edge2" class="edge"><title>Node2&#45;&gt;Node3</title>
<path fill="none" stroke="midnightblue" d="M196.545,-157.699C166.886,-144.282 127.216,-126.336 100.039,-114.041"/>
<polygon fill="midnightblue" stroke="midnightblue" points="195.241,-160.95 205.794,-161.883 198.126,-154.572 195.241,-160.95"/>
</g>
<!-- Node2&#45;&gt;Node4 -->
<g id="edge3" class="edge"><title>Node2&#45;&gt;Node4</title>
<path fill="none" stroke="midnightblue" d="M294.504,-159.194C298.391,-158.1 302.25,-157.027 306,-156 360.788,-140.994 423.664,-124.89 467.582,-113.821"/>
<polygon fill="midnightblue" stroke="midnightblue" points="293.497,-155.841 284.831,-161.937 295.407,-162.576 293.497,-155.841"/>
</g>
<!-- Node6 -->
<g id="node6" class="node"><title>Node6</title>
<g id="a_node6"><a xlink:href="../../d5/dd2/controllingroomba_8cpp.xhtml" target="_top" xlink:title="GUI/Gui&#45;RoombaV1.0\l/controllingroomba.cpp">
<polygon fill="white" stroke="black" points="81.5,-6 81.5,-36 196.5,-36 196.5,-6 81.5,-6"/>
<text text-anchor="start" x="89.5" y="-24" font-family="Helvetica,sans-Serif" font-size="10.00">GUI/Gui&#45;RoombaV1.0</text>
<text text-anchor="middle" x="139" y="-13" font-family="Helvetica,sans-Serif" font-size="10.00">/controllingroomba.cpp</text>
</a>
</g>
</g>
<!-- Node2&#45;&gt;Node6 -->
<g id="edge12" class="edge"><title>Node2&#45;&gt;Node6</title>
<path fill="none" stroke="midnightblue" d="M214.568,-154.383C205.029,-144.469 194.233,-132.219 186,-120 167.337,-92.3024 152.013,-56.0572 144.333,-36.3248"/>
<polygon fill="midnightblue" stroke="midnightblue" points="212.359,-157.128 221.874,-161.788 217.342,-152.211 212.359,-157.128"/>
</g>
<!-- Node13 -->
<g id="node13" class="node"><title>Node13</title>
<g id="a_node13"><a xlink:href="../../d5/dc6/roombagui-build-_desktop___qt__5__0__1___m_s_v_c2010__32bit-_debug_2debug_2moc__controllingroomba_8cpp.xhtml" target="_top" xlink:title="GUI/roombagui&#45;build\l&#45;Desktop_Qt_5_0_1_MSVC2010\l_32bit&#45;Debug/debug/moc_controllingroomba.cpp">
<polygon fill="white" stroke="black" points="195.5,-78.5 195.5,-119.5 420.5,-119.5 420.5,-78.5 195.5,-78.5"/>
<text text-anchor="start" x="203.5" y="-107.5" font-family="Helvetica,sans-Serif" font-size="10.00">GUI/roombagui&#45;build</text>
<text text-anchor="start" x="203.5" y="-96.5" font-family="Helvetica,sans-Serif" font-size="10.00">&#45;Desktop_Qt_5_0_1_MSVC2010</text>
<text text-anchor="middle" x="308" y="-85.5" font-family="Helvetica,sans-Serif" font-size="10.00">_32bit&#45;Debug/debug/moc_controllingroomba.cpp</text>
</a>
</g>
</g>
<!-- Node2&#45;&gt;Node13 -->
<g id="edge13" class="edge"><title>Node2&#45;&gt;Node13</title>
<path fill="none" stroke="midnightblue" d="M257.337,-154.23C267.509,-143.342 279.726,-130.265 289.615,-119.68"/>
<polygon fill="midnightblue" stroke="midnightblue" points="254.624,-152.008 250.355,-161.705 259.739,-156.787 254.624,-152.008"/>
</g>
<!-- Node5 -->
<g id="node5" class="node"><title>Node5</title>
<g id="a_node5"><a xlink:href="../../d8/d22/bin_2debug_2debug_2moc__roomba_8cpp.xhtml" target="_top" xlink:title="GUI/bin/debug/debug\l/moc_roomba.cpp">
<polygon fill="white" stroke="black" points="214.5,-6 214.5,-36 321.5,-36 321.5,-6 214.5,-6"/>
<text text-anchor="start" x="222.5" y="-24" font-family="Helvetica,sans-Serif" font-size="10.00">GUI/bin/debug/debug</text>
<text text-anchor="middle" x="268" y="-13" font-family="Helvetica,sans-Serif" font-size="10.00">/moc_roomba.cpp</text>
</a>
</g>
</g>
<!-- Node4&#45;&gt;Node5 -->
<g id="edge4" class="edge"><title>Node4&#45;&gt;Node5</title>
<path fill="none" stroke="midnightblue" d="M463.7,-81.0953C425.701,-70.1663 375.365,-55.5099 331,-42 324.743,-40.0945 318.149,-38.0461 311.678,-36.0128"/>
<polygon fill="midnightblue" stroke="midnightblue" points="463.001,-84.536 473.578,-83.9325 464.933,-77.8079 463.001,-84.536"/>
</g>
<!-- Node4&#45;&gt;Node6 -->
<g id="edge5" class="edge"><title>Node4&#45;&gt;Node6</title>
<path fill="none" stroke="midnightblue" d="M457.928,-83.7113C448.246,-81.7141 438.373,-79.7492 429,-78 329.878,-59.5021 303.251,-64.6727 205,-42 197.65,-40.3039 189.921,-38.2314 182.444,-36.0704"/>
<polygon fill="midnightblue" stroke="midnightblue" points="457.416,-87.1797 467.92,-85.7965 458.846,-80.3274 457.416,-87.1797"/>
</g>
<!-- Node7 -->
<g id="node7" class="node"><title>Node7</title>
<g id="a_node7"><a xlink:href="../../d1/d10/displaylogs_8cpp.xhtml" target="_top" xlink:title="GUI/Gui&#45;RoombaV1.0\l/displaylogs.cpp">
<polygon fill="white" stroke="black" points="340,-6 340,-36 450,-36 450,-6 340,-6"/>
<text text-anchor="start" x="348" y="-24" font-family="Helvetica,sans-Serif" font-size="10.00">GUI/Gui&#45;RoombaV1.0</text>
<text text-anchor="middle" x="395" y="-13" font-family="Helvetica,sans-Serif" font-size="10.00">/displaylogs.cpp</text>
</a>
</g>
</g>
<!-- Node4&#45;&gt;Node7 -->
<g id="edge6" class="edge"><title>Node4&#45;&gt;Node7</title>
<path fill="none" stroke="midnightblue" d="M490.401,-78.6444C468.016,-65.3533 438.817,-48.0166 418.649,-36.0413"/>
<polygon fill="midnightblue" stroke="midnightblue" points="488.839,-81.7872 499.224,-83.8831 492.413,-75.7682 488.839,-81.7872"/>
</g>
<!-- Node8 -->
<g id="node8" class="node"><title>Node8</title>
<g id="a_node8"><a xlink:href="../../da/d0b/information_8cpp.xhtml" target="_top" xlink:title="GUI/Gui&#45;RoombaV1.0\l/information.cpp">
<polygon fill="white" stroke="black" points="468,-6 468,-36 578,-36 578,-6 468,-6"/>
<text text-anchor="start" x="476" y="-24" font-family="Helvetica,sans-Serif" font-size="10.00">GUI/Gui&#45;RoombaV1.0</text>
<text text-anchor="middle" x="523" y="-13" font-family="Helvetica,sans-Serif" font-size="10.00">/information.cpp</text>
</a>
</g>
</g>
<!-- Node4&#45;&gt;Node8 -->
<g id="edge7" class="edge"><title>Node4&#45;&gt;Node8</title>
<path fill="none" stroke="midnightblue" d="M523,-73.5898C523,-61.2565 523,-46.7237 523,-36.2309"/>
<polygon fill="midnightblue" stroke="midnightblue" points="519.5,-73.7049 523,-83.705 526.5,-73.705 519.5,-73.7049"/>
</g>
<!-- Node9 -->
<g id="node9" class="node"><title>Node9</title>
<g id="a_node9"><a xlink:href="../../d8/da8/_gui-_roomba_v1_80_2main_8cpp.xhtml" target="_top" xlink:title="GUI/Gui&#45;RoombaV1.0\l/main.cpp">
<polygon fill="white" stroke="black" points="596,-6 596,-36 706,-36 706,-6 596,-6"/>
<text text-anchor="start" x="604" y="-24" font-family="Helvetica,sans-Serif" font-size="10.00">GUI/Gui&#45;RoombaV1.0</text>
<text text-anchor="middle" x="651" y="-13" font-family="Helvetica,sans-Serif" font-size="10.00">/main.cpp</text>
</a>
</g>
</g>
<!-- Node4&#45;&gt;Node9 -->
<g id="edge8" class="edge"><title>Node4&#45;&gt;Node9</title>
<path fill="none" stroke="midnightblue" d="M555.599,-78.6444C577.984,-65.3533 607.183,-48.0166 627.351,-36.0413"/>
<polygon fill="midnightblue" stroke="midnightblue" points="553.587,-75.7682 546.776,-83.8831 557.161,-81.7872 553.587,-75.7682"/>
</g>
<!-- Node10 -->
<g id="node10" class="node"><title>Node10</title>
<g id="a_node10"><a xlink:href="../../de/d67/roomba_8cpp.xhtml" target="_top" xlink:title="GUI/Gui&#45;RoombaV1.0\l/roomba.cpp">
<polygon fill="white" stroke="black" points="724,-6 724,-36 834,-36 834,-6 724,-6"/>
<text text-anchor="start" x="732" y="-24" font-family="Helvetica,sans-Serif" font-size="10.00">GUI/Gui&#45;RoombaV1.0</text>
<text text-anchor="middle" x="779" y="-13" font-family="Helvetica,sans-Serif" font-size="10.00">/roomba.cpp</text>
</a>
</g>
</g>
<!-- Node4&#45;&gt;Node10 -->
<g id="edge9" class="edge"><title>Node4&#45;&gt;Node10</title>
<path fill="none" stroke="midnightblue" d="M581.888,-81.1394C619.924,-70.1713 670.452,-55.4559 715,-42 721.24,-40.115 727.813,-38.0977 734.274,-36.0961"/>
<polygon fill="midnightblue" stroke="midnightblue" points="580.644,-77.8554 572.004,-83.9865 582.582,-84.5819 580.644,-77.8554"/>
</g>
<!-- Node11 -->
<g id="node11" class="node"><title>Node11</title>
<g id="a_node11"><a xlink:href="../../da/d3b/settingsroomba_8cpp.xhtml" target="_top" xlink:title="GUI/Gui&#45;RoombaV1.0\l/settingsroomba.cpp">
<polygon fill="white" stroke="black" points="852,-6 852,-36 962,-36 962,-6 852,-6"/>
<text text-anchor="start" x="860" y="-24" font-family="Helvetica,sans-Serif" font-size="10.00">GUI/Gui&#45;RoombaV1.0</text>
<text text-anchor="middle" x="907" y="-13" font-family="Helvetica,sans-Serif" font-size="10.00">/settingsroomba.cpp</text>
</a>
</g>
</g>
<!-- Node4&#45;&gt;Node11 -->
<g id="edge10" class="edge"><title>Node4&#45;&gt;Node11</title>
<path fill="none" stroke="midnightblue" d="M588.193,-89.1227C653.219,-79.6763 755.727,-63.1784 843,-42 850.127,-40.2705 857.622,-38.181 864.873,-36.0134"/>
<polygon fill="midnightblue" stroke="midnightblue" points="587.485,-85.6884 578.086,-90.5779 588.483,-92.6169 587.485,-85.6884"/>
</g>
<!-- Node12 -->
<g id="node12" class="node"><title>Node12</title>
<g id="a_node12"><a xlink:href="../../d9/d13/roombagui-build-_desktop___qt__5__0__1___m_s_v_c2010__32bit-_debug_2debug_2moc__roomba_8cpp.xhtml" target="_top" xlink:title="GUI/roombagui&#45;build\l&#45;Desktop_Qt_5_0_1_MSVC2010\l_32bit&#45;Debug/debug/moc_roomba.cpp">
<polygon fill="white" stroke="black" points="980.5,-0.5 980.5,-41.5 1161.5,-41.5 1161.5,-0.5 980.5,-0.5"/>
<text text-anchor="start" x="988.5" y="-29.5" font-family="Helvetica,sans-Serif" font-size="10.00">GUI/roombagui&#45;build</text>
<text text-anchor="start" x="988.5" y="-18.5" font-family="Helvetica,sans-Serif" font-size="10.00">&#45;Desktop_Qt_5_0_1_MSVC2010</text>
<text text-anchor="middle" x="1071" y="-7.5" font-family="Helvetica,sans-Serif" font-size="10.00">_32bit&#45;Debug/debug/moc_roomba.cpp</text>
</a>
</g>
</g>
<!-- Node4&#45;&gt;Node12 -->
<g id="edge11" class="edge"><title>Node4&#45;&gt;Node12</title>
<path fill="none" stroke="midnightblue" d="M588.042,-91.3768C675.404,-82.137 835.362,-64.011 971,-42 974.058,-41.5037 977.166,-40.9818 980.302,-40.4401"/>
<polygon fill="midnightblue" stroke="midnightblue" points="587.591,-87.9048 578.012,-92.4322 588.324,-94.8664 587.591,-87.9048"/>
</g>
<!-- Node14&#45;&gt;Node2 -->
<g id="edge15" class="edge"><title>Node14&#45;&gt;Node2</title>
<path fill="none" stroke="midnightblue" d="M472.94,-235.892C426.285,-226.202 362.036,-212.264 306,-198 298.869,-196.185 291.36,-194.144 284.026,-192.078"/>
<polygon fill="midnightblue" stroke="midnightblue" points="472.415,-239.357 482.916,-237.955 473.832,-232.502 472.415,-239.357"/>
</g>
<!-- Node14&#45;&gt;Node4 -->
<g id="edge16" class="edge"><title>Node14&#45;&gt;Node4</title>
<path fill="none" stroke="midnightblue" d="M472.816,-240.952C421.312,-233.096 355.451,-219.198 339,-198 327.556,-183.253 327.887,-170.998 339,-156 346.927,-145.302 416.402,-126.196 467.654,-113.312"/>
<polygon fill="midnightblue" stroke="midnightblue" points="472.503,-244.444 482.907,-242.443 473.526,-237.519 472.503,-244.444"/>
</g>
<!-- Node15 -->
<g id="node15" class="node"><title>Node15</title>
<g id="a_node15"><a xlink:href="../../d1/d9b/bin_2debug_2debug_2moc___roomba_connect_8cpp.xhtml" target="_top" xlink:title="GUI/bin/debug/debug\l/moc_RoombaConnect.cpp">
<polygon fill="white" stroke="black" points="348,-162 348,-192 482,-192 482,-162 348,-162"/>
<text text-anchor="start" x="356" y="-180" font-family="Helvetica,sans-Serif" font-size="10.00">GUI/bin/debug/debug</text>
<text text-anchor="middle" x="415" y="-169" font-family="Helvetica,sans-Serif" font-size="10.00">/moc_RoombaConnect.cpp</text>
</a>
</g>
</g>
<!-- Node14&#45;&gt;Node15 -->
<g id="edge17" class="edge"><title>Node14&#45;&gt;Node15</title>
<path fill="none" stroke="midnightblue" d="M504.974,-229.936C484.424,-218.074 458.429,-203.069 439.671,-192.241"/>
<polygon fill="midnightblue" stroke="midnightblue" points="503.289,-233.005 513.699,-234.973 506.788,-226.942 503.289,-233.005"/>
</g>
<!-- Node14&#45;&gt;Node16 -->
<g id="edge18" class="edge"><title>Node14&#45;&gt;Node16</title>
<path fill="none" stroke="midnightblue" d="M602.927,-232.424C640.207,-222.739 687.847,-210.079 730,-198 736.583,-196.114 743.52,-194.055 750.312,-192"/>
<polygon fill="midnightblue" stroke="midnightblue" points="601.995,-229.05 593.193,-234.946 603.751,-235.826 601.995,-229.05"/>
</g>
<!-- Node17 -->
<g id="node17" class="node"><title>Node17</title>
<g id="a_node17"><a xlink:href="../../d2/ddc/roombagui-build-_desktop___qt__5__0__1___m_s_v_c2010__32bit-_debug_2debug_2moc___roomba_connect_8cpp.xhtml" target="_top" xlink:title="GUI/roombagui&#45;build\l&#45;Desktop_Qt_5_0_1_MSVC2010\l_32bit&#45;Debug/debug/moc_RoombaConnect.cpp">
<polygon fill="white" stroke="black" points="500.5,-156.5 500.5,-197.5 721.5,-197.5 721.5,-156.5 500.5,-156.5"/>
<text text-anchor="start" x="508.5" y="-185.5" font-family="Helvetica,sans-Serif" font-size="10.00">GUI/roombagui&#45;build</text>
<text text-anchor="start" x="508.5" y="-174.5" font-family="Helvetica,sans-Serif" font-size="10.00">&#45;Desktop_Qt_5_0_1_MSVC2010</text>
<text text-anchor="middle" x="611" y="-163.5" font-family="Helvetica,sans-Serif" font-size="10.00">_32bit&#45;Debug/debug/moc_RoombaConnect.cpp</text>
</a>
</g>
</g>
<!-- Node14&#45;&gt;Node17 -->
<g id="edge19" class="edge"><title>Node14&#45;&gt;Node17</title>
<path fill="none" stroke="midnightblue" d="M559.864,-227.735C569.682,-218.186 581.193,-206.991 590.805,-197.642"/>
<polygon fill="midnightblue" stroke="midnightblue" points="557.151,-225.491 552.422,-234.973 562.031,-230.509 557.151,-225.491"/>
</g>
</g>
</svg>
        <g id="navigator" transform="translate(0 0)" fill="#404254">
                <rect fill="#f2f5e9" fill-opacity="0.5" stroke="#606060" stroke-width=".5" x="0" y="0" width="60" height="60"/>
                <use id="zoomplus" xlink:href="#zoomPlus" x="17" y="9" onmousedown="handleZoom(evt,'in')"/>
                <use id="zoomminus" xlink:href="#zoomMin" x="42" y="9" onmousedown="handleZoom(evt,'out')"/>
                <use id="reset" xlink:href="#resetDef" x="30" y="36" onmousedown="handleReset()"/>
                <g id="arrowUp" xlink:href="#dirArrow" transform="translate(30 24)" onmousedown="handlePan(0,-1)">
                  <use xlink:href="#rim" fill="#404040">
                        <set attributeName="fill" to="#808080" begin="arrowUp.mouseover" end="arrowUp.mouseout"/>
                  </use>
                  <path fill="none" stroke="white" stroke-width="1.5" d="M0,-3.0v7 M-2.5,-0.5L0,-3.0L2.5,-0.5"/>
                </g>
                <g id="arrowRight" xlink:href="#dirArrow" transform="rotate(90) translate(36 -43)" onmousedown="handlePan(1,0)">
                  <use xlink:href="#rim" fill="#404040">
                        <set attributeName="fill" to="#808080" begin="arrowRight.mouseover" end="arrowRight.mouseout"/>
                  </use>
                  <path fill="none" stroke="white" stroke-width="1.5" d="M0,-3.0v7 M-2.5,-0.5L0,-3.0L2.5,-0.5"/>
                </g>
                <g id="arrowDown" xlink:href="#dirArrow" transform="rotate(180) translate(-30 -48)" onmousedown="handlePan(0,1)">
                  <use xlink:href="#rim" fill="#404040">
                        <set attributeName="fill" to="#808080" begin="arrowDown.mouseover" end="arrowDown.mouseout"/>
                  </use>
                  <path fill="none" stroke="white" stroke-width="1.5" d="M0,-3.0v7 M-2.5,-0.5L0,-3.0L2.5,-0.5"/>
                </g>
                <g id="arrowLeft" xlink:href="#dirArrow" transform="rotate(270) translate(-36 17)" onmousedown="handlePan(-1,0)">
                  <use xlink:href="#rim" fill="#404040">
                        <set attributeName="fill" to="#808080" begin="arrowLeft.mouseover" end="arrowLeft.mouseout"/>
                  </use>
                  <path fill="none" stroke="white" stroke-width="1.5" d="M0,-3.0v7 M-2.5,-0.5L0,-3.0L2.5,-0.5"/>
                </g>
        </g>
        <svg viewBox="0 0 15 15" width="100%" height="30px" preserveAspectRatio="xMaxYMin meet">
         <g id="arrow_out" transform="scale(0.3 0.3)">
          <a xlink:href="jsoncommand_8h__dep__incl_org.svg" target="_base">
           <rect id="button" ry="5" rx="5" y="6" x="6" height="38" width="38"
                fill="#f2f5e9" fill-opacity="0.5" stroke="#606060" stroke-width="1.0"/>
           <path id="arrow"
             d="M 11.500037,31.436501 C 11.940474,20.09759 22.043105,11.32322 32.158766,21.979434 L 37.068811,17.246167 C 37.068811,17.246167 37.088388,32 37.088388,32 L 22.160133,31.978069 C 22.160133,31.978069 26.997745,27.140456 26.997745,27.140456 C 18.528582,18.264221 13.291696,25.230495 11.500037,31.436501 z"
             style="fill:#404040;"/>
          </a>
         </g>
        </svg>
</svg>
