<?xml version="1.0" encoding="UTF-8" standalone="no"?>
<!DOCTYPE svg PUBLIC "-//W3C//DTD SVG 1.1//EN"
 "http://www.w3.org/Graphics/SVG/1.1/DTD/svg11.dtd">
<!-- Generated by graphviz version 2.30.1 (20130214.1330)
 -->
<!-- Title: shared::events::eventUserJoin Pages: 1 -->
<svg width="154pt" height="316pt"
 viewBox="0.00 0.00 154.00 316.00" xmlns="http://www.w3.org/2000/svg" xmlns:xlink="http://www.w3.org/1999/xlink">
<g id="graph0" class="graph" transform="scale(1 1) rotate(0) translate(4 312)">
<title>shared::events::eventUserJoin</title>
<polygon fill="white" stroke="white" points="-4,5 -4,-312 151,-312 151,5 -4,5"/>
<!-- Node1 -->
<g id="node1" class="node"><title>Node1</title>
<polygon fill="#bfbfbf" stroke="black" points="0,-1 0,-91 146,-91 146,-1 0,-1"/>
<text text-anchor="middle" x="73" y="-79" font-family="Helvetica,sans-Serif" font-size="10.00">shared::events::eventUserJoin</text>
<polyline fill="none" stroke="black" points="0,-72 146,-72 "/>
<text text-anchor="middle" x="73" y="-60" font-family="Helvetica,sans-Serif" font-size="10.00"> </text>
<polyline fill="none" stroke="black" points="0,-53 146,-53 "/>
<text text-anchor="start" x="8" y="-41" font-family="Helvetica,sans-Serif" font-size="10.00">+ eventUserJoin()</text>
<text text-anchor="start" x="8" y="-30" font-family="Helvetica,sans-Serif" font-size="10.00">+ eventUserJoin()</text>
<text text-anchor="start" x="8" y="-19" font-family="Helvetica,sans-Serif" font-size="10.00">+ getUserId()</text>
<text text-anchor="start" x="8" y="-8" font-family="Helvetica,sans-Serif" font-size="10.00">+ getUser()</text>
</g>
<!-- Node2 -->
<g id="node2" class="node"><title>Node2</title>
<g id="a_node2"><a xlink:href="../../db/d8b/classshared_1_1events_1_1cls_event.xhtml" target="_top" xlink:title="The main event class.">
<polygon fill="white" stroke="black" points="12,-129 12,-307 134,-307 134,-129 12,-129"/>
<text text-anchor="middle" x="73" y="-295" font-family="Helvetica,sans-Serif" font-size="10.00">shared::events::clsEvent</text>
<polyline fill="none" stroke="black" points="12,-288 134,-288 "/>
<text text-anchor="start" x="20" y="-276" font-family="Helvetica,sans-Serif" font-size="10.00"># data</text>
<text text-anchor="start" x="20" y="-265" font-family="Helvetica,sans-Serif" font-size="10.00"># ourType</text>
<text text-anchor="start" x="20" y="-254" font-family="Helvetica,sans-Serif" font-size="10.00"># timeOfEvent</text>
<text text-anchor="start" x="20" y="-243" font-family="Helvetica,sans-Serif" font-size="10.00"># log</text>
<polyline fill="none" stroke="black" points="12,-236 134,-236 "/>
<text text-anchor="start" x="20" y="-224" font-family="Helvetica,sans-Serif" font-size="10.00">+ clsEvent()</text>
<text text-anchor="start" x="20" y="-213" font-family="Helvetica,sans-Serif" font-size="10.00">+ clsEvent()</text>
<text text-anchor="start" x="20" y="-202" font-family="Helvetica,sans-Serif" font-size="10.00">+ addToData()</text>
<text text-anchor="start" x="20" y="-191" font-family="Helvetica,sans-Serif" font-size="10.00">+ toVariant()</text>
<text text-anchor="start" x="20" y="-180" font-family="Helvetica,sans-Serif" font-size="10.00">+ getData()</text>
<text text-anchor="start" x="20" y="-169" font-family="Helvetica,sans-Serif" font-size="10.00">+ getType()</text>
<text text-anchor="start" x="20" y="-158" font-family="Helvetica,sans-Serif" font-size="10.00">+ getTime()</text>
<text text-anchor="start" x="20" y="-147" font-family="Helvetica,sans-Serif" font-size="10.00"># getEventType()</text>
<text text-anchor="start" x="20" y="-136" font-family="Helvetica,sans-Serif" font-size="10.00"># setEventType()</text>
</a>
</g>
</g>
<!-- Node2&#45;&gt;Node1 -->
<g id="edge1" class="edge"><title>Node2&#45;&gt;Node1</title>
<path fill="none" stroke="midnightblue" d="M73,-118.273C73,-108.897 73,-99.7503 73,-91.3048"/>
<polygon fill="none" stroke="midnightblue" points="69.5001,-118.515 73,-128.515 76.5001,-118.515 69.5001,-118.515"/>
</g>
</g>
</svg>
