<?xml version="1.0" encoding="UTF-8" standalone="no"?>
<!DOCTYPE svg PUBLIC "-//W3C//DTD SVG 1.1//EN"
 "http://www.w3.org/Graphics/SVG/1.1/DTD/svg11.dtd">
<!-- Generated by graphviz version 2.30.1 (20130214.1330)
 -->
<!-- Title: GUI/resources/events/eventservermessage.h Pages: 1 -->
<svg width="262pt" height="108pt"
 viewBox="0.00 0.00 262.00 108.00" xmlns="http://www.w3.org/2000/svg" xmlns:xlink="http://www.w3.org/1999/xlink">
<g id="graph0" class="graph" transform="scale(1 1) rotate(0) translate(4 104)">
<title>GUI/resources/events/eventservermessage.h</title>
<polygon fill="white" stroke="white" points="-4,5 -4,-104 259,-104 259,5 -4,5"/>
<!-- Node1 -->
<g id="node1" class="node"><title>Node1</title>
<polygon fill="#bfbfbf" stroke="black" points="65,-69 65,-99 181,-99 181,-69 65,-69"/>
<text text-anchor="start" x="73" y="-87" font-family="Helvetica,sans-Serif" font-size="10.00">GUI/resources/events</text>
<text text-anchor="middle" x="123" y="-76" font-family="Helvetica,sans-Serif" font-size="10.00">/eventservermessage.h</text>
</g>
<!-- Node2 -->
<g id="node2" class="node"><title>Node2</title>
<g id="a_node2"><a xlink:href="../../db/dd2/events_8h.xhtml" target="_top" xlink:title="GUI/resources/events\l/events.h">
<polygon fill="white" stroke="black" points="0,-1 0,-31 110,-31 110,-1 0,-1"/>
<text text-anchor="start" x="8" y="-19" font-family="Helvetica,sans-Serif" font-size="10.00">GUI/resources/events</text>
<text text-anchor="middle" x="55" y="-8" font-family="Helvetica,sans-Serif" font-size="10.00">/events.h</text>
</a>
</g>
</g>
<!-- Node1&#45;&gt;Node2 -->
<g id="edge1" class="edge"><title>Node1&#45;&gt;Node2</title>
<path fill="none" stroke="midnightblue" d="M100.834,-61.4855C90.6333,-51.5852 78.8095,-40.1092 69.7262,-31.2931"/>
<polygon fill="midnightblue" stroke="midnightblue" points="98.6315,-64.2257 108.245,-68.679 103.507,-59.2027 98.6315,-64.2257"/>
</g>
<!-- Node3 -->
<g id="node3" class="node"><title>Node3</title>
<g id="a_node3"><a xlink:href="../../d3/d54/eventservermessage_8cpp.xhtml" target="_top" xlink:title="GUI/resources/events\l/eventservermessage.cpp">
<polygon fill="white" stroke="black" points="128,-1 128,-31 254,-31 254,-1 128,-1"/>
<text text-anchor="start" x="136" y="-19" font-family="Helvetica,sans-Serif" font-size="10.00">GUI/resources/events</text>
<text text-anchor="middle" x="191" y="-8" font-family="Helvetica,sans-Serif" font-size="10.00">/eventservermessage.cpp</text>
</a>
</g>
</g>
<!-- Node1&#45;&gt;Node3 -->
<g id="edge2" class="edge"><title>Node1&#45;&gt;Node3</title>
<path fill="none" stroke="midnightblue" d="M145.166,-61.4855C155.367,-51.5852 167.191,-40.1092 176.274,-31.2931"/>
<polygon fill="midnightblue" stroke="midnightblue" points="142.493,-59.2027 137.755,-68.679 147.368,-64.2257 142.493,-59.2027"/>
</g>
</g>
</svg>
