<?xml version="1.0" encoding="UTF-8" standalone="no"?>
<!DOCTYPE svg PUBLIC "-//W3C//DTD SVG 1.1//EN"
 "http://www.w3.org/Graphics/SVG/1.1/DTD/svg11.dtd">
<!-- Generated by graphviz version 2.30.1 (20130214.1330)
 -->
<!-- Title: Hoofdprogramma/ourProgram/src/RTSystem/ourProgram.h Pages: 1 -->
<svg width="1568pt" height="312pt"
 viewBox="0.00 0.00 1567.50 312.00" xmlns="http://www.w3.org/2000/svg" xmlns:xlink="http://www.w3.org/1999/xlink">
<g id="graph0" class="graph" transform="scale(1 1) rotate(0) translate(4 308)">
<title>Hoofdprogramma/ourProgram/src/RTSystem/ourProgram.h</title>
<polygon fill="white" stroke="white" points="-4,5 -4,-308 1564.5,-308 1564.5,5 -4,5"/>
<!-- Node1 -->
<g id="node1" class="node"><title>Node1</title>
<polygon fill="#bfbfbf" stroke="black" points="669.003,-273 669.003,-303 812.003,-303 812.003,-273 669.003,-273"/>
<text text-anchor="start" x="677.003" y="-291" font-family="Helvetica,sans-Serif" font-size="10.00">Hoofdprogramma/ourProgram</text>
<text text-anchor="middle" x="740.503" y="-280" font-family="Helvetica,sans-Serif" font-size="10.00">/src/RTSystem/ourProgram.h</text>
</g>
<!-- Node2 -->
<g id="node2" class="node"><title>Node2</title>
<g id="a_node2"><a xlink:href="../../dd/dd2/json_command_8cpp.xhtml" target="_top" xlink:title="Hoofdprogramma/ourProgram\l/src/jsonCommand.cpp">
<polygon fill="white" stroke="black" points="968.003,-137 968.003,-167 1111,-167 1111,-137 968.003,-137"/>
<text text-anchor="start" x="976.003" y="-155" font-family="Helvetica,sans-Serif" font-size="10.00">Hoofdprogramma/ourProgram</text>
<text text-anchor="middle" x="1039.5" y="-144" font-family="Helvetica,sans-Serif" font-size="10.00">/src/jsonCommand.cpp</text>
</a>
</g>
</g>
<!-- Node1&#45;&gt;Node2 -->
<g id="edge1" class="edge"><title>Node1&#45;&gt;Node2</title>
<path fill="none" stroke="midnightblue" d="M822.19,-278.473C886.404,-270.376 969.384,-256.391 996.503,-236 1019.33,-218.835 1031.09,-186.041 1036.22,-167.222"/>
<polygon fill="midnightblue" stroke="midnightblue" points="821.553,-275.025 812.057,-279.722 822.41,-281.973 821.553,-275.025"/>
</g>
<!-- Node3 -->
<g id="node3" class="node"><title>Node3</title>
<g id="a_node3"><a xlink:href="../../d8/d2e/json_command_8h.xhtml" target="_top" xlink:title="Hoofdprogramma/ourProgram\l/src/jsonCommand.h">
<polygon fill="white" stroke="black" points="845.003,-205 845.003,-235 988.003,-235 988.003,-205 845.003,-205"/>
<text text-anchor="start" x="853.003" y="-223" font-family="Helvetica,sans-Serif" font-size="10.00">Hoofdprogramma/ourProgram</text>
<text text-anchor="middle" x="916.503" y="-212" font-family="Helvetica,sans-Serif" font-size="10.00">/src/jsonCommand.h</text>
</a>
</g>
</g>
<!-- Node1&#45;&gt;Node3 -->
<g id="edge2" class="edge"><title>Node1&#45;&gt;Node3</title>
<path fill="none" stroke="midnightblue" d="M787.671,-269.312C816.335,-258.563 852.426,-245.029 879.111,-235.022"/>
<polygon fill="midnightblue" stroke="midnightblue" points="786.393,-266.053 778.259,-272.841 788.851,-272.607 786.393,-266.053"/>
</g>
<!-- Node5 -->
<g id="node5" class="node"><title>Node5</title>
<g id="a_node5"><a xlink:href="../../d8/d25/json_protocol_8cpp.xhtml" target="_top" xlink:title="Hoofdprogramma/ourProgram\l/src/jsonProtocol.cpp">
<polygon fill="white" stroke="black" points="845.003,-69 845.003,-99 988.003,-99 988.003,-69 845.003,-69"/>
<text text-anchor="start" x="853.003" y="-87" font-family="Helvetica,sans-Serif" font-size="10.00">Hoofdprogramma/ourProgram</text>
<text text-anchor="middle" x="916.503" y="-76" font-family="Helvetica,sans-Serif" font-size="10.00">/src/jsonProtocol.cpp</text>
</a>
</g>
</g>
<!-- Node1&#45;&gt;Node5 -->
<g id="edge13" class="edge"><title>Node1&#45;&gt;Node5</title>
<path fill="none" stroke="midnightblue" d="M749.266,-263.433C764.959,-221.277 796.342,-137.213 797.503,-136 814.131,-118.624 837.648,-106.864 859.391,-99.0604"/>
<polygon fill="midnightblue" stroke="midnightblue" points="745.937,-262.343 745.73,-272.936 752.497,-264.784 745.937,-262.343"/>
</g>
<!-- Node4 -->
<g id="node4" class="node"><title>Node4</title>
<g id="a_node4"><a xlink:href="../../d4/d51/json_protocol_8h.xhtml" target="_top" xlink:title="Hoofdprogramma/ourProgram\l/src/jsonProtocol.h">
<polygon fill="white" stroke="black" points="807.003,-137 807.003,-167 950.003,-167 950.003,-137 807.003,-137"/>
<text text-anchor="start" x="815.003" y="-155" font-family="Helvetica,sans-Serif" font-size="10.00">Hoofdprogramma/ourProgram</text>
<text text-anchor="middle" x="878.503" y="-144" font-family="Helvetica,sans-Serif" font-size="10.00">/src/jsonProtocol.h</text>
</a>
</g>
</g>
<!-- Node1&#45;&gt;Node4 -->
<g id="edge14" class="edge"><title>Node1&#45;&gt;Node4</title>
<path fill="none" stroke="midnightblue" d="M762.437,-265.701C790.809,-238.152 839.463,-190.908 863.774,-167.302"/>
<polygon fill="midnightblue" stroke="midnightblue" points="759.746,-263.436 755.01,-272.913 764.623,-268.458 759.746,-263.436"/>
</g>
<!-- Node7 -->
<g id="node7" class="node"><title>Node7</title>
<g id="a_node7"><a xlink:href="../../d0/d63/json_translate_capsule_8cpp.xhtml" target="_top" xlink:title="Hoofdprogramma/ourProgram\l/src/jsonTranslateCapsule.cpp">
<polygon fill="white" stroke="black" points="127.503,-1 127.503,-31 275.503,-31 275.503,-1 127.503,-1"/>
<text text-anchor="start" x="135.503" y="-19" font-family="Helvetica,sans-Serif" font-size="10.00">Hoofdprogramma/ourProgram</text>
<text text-anchor="middle" x="201.503" y="-8" font-family="Helvetica,sans-Serif" font-size="10.00">/src/jsonTranslateCapsule.cpp</text>
</a>
</g>
</g>
<!-- Node1&#45;&gt;Node7 -->
<g id="edge15" class="edge"><title>Node1&#45;&gt;Node7</title>
<path fill="none" stroke="midnightblue" d="M658.679,-285.365C512.031,-281.611 210.508,-269.911 111.503,-236 59.2565,-218.105 33.7783,-216.574 7.50251,-168 -29.1007,-100.334 82.0181,-53.096 150.983,-31.0651"/>
<polygon fill="midnightblue" stroke="midnightblue" points="658.881,-288.871 668.965,-285.622 659.056,-281.874 658.881,-288.871"/>
</g>
<!-- Node6 -->
<g id="node6" class="node"><title>Node6</title>
<g id="a_node6"><a xlink:href="../../d4/ddd/json_translate_capsule_8h.xhtml" target="_top" xlink:title="Hoofdprogramma/ourProgram\l/src/jsonTranslateCapsule.h">
<polygon fill="white" stroke="black" points="343.003,-69 343.003,-99 486.003,-99 486.003,-69 343.003,-69"/>
<text text-anchor="start" x="351.003" y="-87" font-family="Helvetica,sans-Serif" font-size="10.00">Hoofdprogramma/ourProgram</text>
<text text-anchor="middle" x="414.503" y="-76" font-family="Helvetica,sans-Serif" font-size="10.00">/src/jsonTranslateCapsule.h</text>
</a>
</g>
</g>
<!-- Node1&#45;&gt;Node6 -->
<g id="edge16" class="edge"><title>Node1&#45;&gt;Node6</title>
<path fill="none" stroke="midnightblue" d="M658.817,-283.004C582.25,-277.521 475.238,-264.82 445.503,-236 407.452,-199.122 409.717,-128.961 412.696,-99.0617"/>
<polygon fill="midnightblue" stroke="midnightblue" points="658.72,-286.506 668.937,-283.7 659.2,-279.522 658.72,-286.506"/>
</g>
<!-- Node9 -->
<g id="node9" class="node"><title>Node9</title>
<g id="a_node9"><a xlink:href="../../d4/d75/main_capsule_8cpp.xhtml" target="_top" xlink:title="Hoofdprogramma/ourProgram\l/src/mainCapsule.cpp">
<polygon fill="white" stroke="black" points="1056,-1 1056,-31 1199,-31 1199,-1 1056,-1"/>
<text text-anchor="start" x="1064" y="-19" font-family="Helvetica,sans-Serif" font-size="10.00">Hoofdprogramma/ourProgram</text>
<text text-anchor="middle" x="1127.5" y="-8" font-family="Helvetica,sans-Serif" font-size="10.00">/src/mainCapsule.cpp</text>
</a>
</g>
</g>
<!-- Node1&#45;&gt;Node9 -->
<g id="edge17" class="edge"><title>Node1&#45;&gt;Node9</title>
<path fill="none" stroke="midnightblue" d="M822.199,-280.638C906.135,-273.016 1030.31,-258.398 1072.5,-236 1135.46,-202.581 1146.4,-170.408 1157.5,-100 1159.72,-85.9515 1161.24,-81.7225 1157.5,-68 1153.83,-54.5203 1145.59,-40.9692 1138.68,-31.227"/>
<polygon fill="midnightblue" stroke="midnightblue" points="821.82,-277.158 812.171,-281.533 822.442,-284.13 821.82,-277.158"/>
</g>
<!-- Node8 -->
<g id="node8" class="node"><title>Node8</title>
<g id="a_node8"><a xlink:href="../../d6/db7/main_capsule_8h.xhtml" target="_top" xlink:title="Hoofdprogramma/ourProgram\l/src/mainCapsule.h">
<polygon fill="white" stroke="black" points="1006,-69 1006,-99 1149,-99 1149,-69 1006,-69"/>
<text text-anchor="start" x="1014" y="-87" font-family="Helvetica,sans-Serif" font-size="10.00">Hoofdprogramma/ourProgram</text>
<text text-anchor="middle" x="1077.5" y="-76" font-family="Helvetica,sans-Serif" font-size="10.00">/src/mainCapsule.h</text>
</a>
</g>
</g>
<!-- Node1&#45;&gt;Node8 -->
<g id="edge18" class="edge"><title>Node1&#45;&gt;Node8</title>
<path fill="none" stroke="midnightblue" d="M822.354,-281.745C880.359,-275.777 959.013,-263.061 1023.5,-236 1071.72,-215.769 1095.49,-214.444 1119.5,-168 1131.96,-143.9 1109.98,-115.686 1093.4,-99.137"/>
<polygon fill="midnightblue" stroke="midnightblue" points="821.746,-278.287 812.136,-282.748 822.431,-285.254 821.746,-278.287"/>
</g>
<!-- Node13 -->
<g id="node13" class="node"><title>Node13</title>
<g id="a_node13"><a xlink:href="../../d3/dba/our_program_8cpp.xhtml" target="_top" xlink:title="Hoofdprogramma/ourProgram\l/src/RTSystem/ourProgram.cpp">
<polygon fill="white" stroke="black" points="1405.5,-205 1405.5,-235 1559.5,-235 1559.5,-205 1405.5,-205"/>
<text text-anchor="start" x="1413.5" y="-223" font-family="Helvetica,sans-Serif" font-size="10.00">Hoofdprogramma/ourProgram</text>
<text text-anchor="middle" x="1482.5" y="-212" font-family="Helvetica,sans-Serif" font-size="10.00">/src/RTSystem/ourProgram.cpp</text>
</a>
</g>
</g>
<!-- Node1&#45;&gt;Node13 -->
<g id="edge19" class="edge"><title>Node1&#45;&gt;Node13</title>
<path fill="none" stroke="midnightblue" d="M822.645,-283.062C946.966,-276.548 1190.19,-261.636 1395.5,-236 1398.7,-235.601 1401.95,-235.167 1405.24,-234.706"/>
<polygon fill="midnightblue" stroke="midnightblue" points="822.251,-279.578 812.446,-283.592 822.614,-286.569 822.251,-279.578"/>
</g>
<!-- Node14 -->
<g id="node14" class="node"><title>Node14</title>
<g id="a_node14"><a xlink:href="../../d2/d1d/tcp_capsule_8cpp.xhtml" target="_top" xlink:title="Hoofdprogramma/ourProgram\l/src/tcpCapsule.cpp">
<polygon fill="white" stroke="black" points="182.003,-69 182.003,-99 325.003,-99 325.003,-69 182.003,-69"/>
<text text-anchor="start" x="190.003" y="-87" font-family="Helvetica,sans-Serif" font-size="10.00">Hoofdprogramma/ourProgram</text>
<text text-anchor="middle" x="253.503" y="-76" font-family="Helvetica,sans-Serif" font-size="10.00">/src/tcpCapsule.cpp</text>
</a>
</g>
</g>
<!-- Node1&#45;&gt;Node14 -->
<g id="edge20" class="edge"><title>Node1&#45;&gt;Node14</title>
<path fill="none" stroke="midnightblue" d="M658.469,-282.148C576.829,-275.885 458.52,-262.483 421.503,-236 380.593,-206.733 405.292,-170.303 368.503,-136 350.372,-119.095 325.713,-107.155 303.878,-99.1006"/>
<polygon fill="midnightblue" stroke="midnightblue" points="658.501,-285.66 668.733,-282.913 659.021,-278.68 658.501,-285.66"/>
</g>
<!-- Node15 -->
<g id="node15" class="node"><title>Node15</title>
<g id="a_node15"><a xlink:href="../../de/d33/tcp_capsule_8h.xhtml" target="_top" xlink:title="Hoofdprogramma/ourProgram\l/src/tcpCapsule.h">
<polygon fill="white" stroke="black" points="217.003,-137 217.003,-167 360.003,-167 360.003,-137 217.003,-137"/>
<text text-anchor="start" x="225.003" y="-155" font-family="Helvetica,sans-Serif" font-size="10.00">Hoofdprogramma/ourProgram</text>
<text text-anchor="middle" x="288.503" y="-144" font-family="Helvetica,sans-Serif" font-size="10.00">/src/tcpCapsule.h</text>
</a>
</g>
</g>
<!-- Node1&#45;&gt;Node15 -->
<g id="edge21" class="edge"><title>Node1&#45;&gt;Node15</title>
<path fill="none" stroke="midnightblue" d="M658.78,-281.513C566.587,-274.298 423.152,-259.684 374.503,-236 341.48,-219.924 313.01,-186.401 298.583,-167.241"/>
<polygon fill="midnightblue" stroke="midnightblue" points="658.686,-285.016 668.925,-282.293 659.222,-278.037 658.686,-285.016"/>
</g>
<!-- Node16 -->
<g id="node16" class="node"><title>Node16</title>
<g id="a_node16"><a xlink:href="../../d9/dd4/_t_c_p_c_o_n_s_t_a_n_t_s_8cpp.xhtml" target="_top" xlink:title="Hoofdprogramma/ourProgram\l/src/TCPCONSTANTS.cpp">
<polygon fill="white" stroke="black" points="17.0025,-137 17.0025,-167 160.003,-167 160.003,-137 17.0025,-137"/>
<text text-anchor="start" x="25.0025" y="-155" font-family="Helvetica,sans-Serif" font-size="10.00">Hoofdprogramma/ourProgram</text>
<text text-anchor="middle" x="88.5025" y="-144" font-family="Helvetica,sans-Serif" font-size="10.00">/src/TCPCONSTANTS.cpp</text>
</a>
</g>
</g>
<!-- Node1&#45;&gt;Node16 -->
<g id="edge23" class="edge"><title>Node1&#45;&gt;Node16</title>
<path fill="none" stroke="midnightblue" d="M658.588,-283.807C506.017,-277.302 189.803,-260.98 146.503,-236 119.398,-220.363 101.945,-186.344 93.826,-167.066"/>
<polygon fill="midnightblue" stroke="midnightblue" points="658.701,-287.315 668.84,-284.24 658.997,-280.321 658.701,-287.315"/>
</g>
<!-- Node17 -->
<g id="node17" class="node"><title>Node17</title>
<g id="a_node17"><a xlink:href="../../d7/d0a/_t_c_p_c_o_n_s_t_a_n_t_s_8h.xhtml" target="_top" xlink:title="Hoofdprogramma/ourProgram\l/src/TCPCONSTANTS.h">
<polygon fill="white" stroke="black" points="156.003,-205 156.003,-235 299.003,-235 299.003,-205 156.003,-205"/>
<text text-anchor="start" x="164.003" y="-223" font-family="Helvetica,sans-Serif" font-size="10.00">Hoofdprogramma/ourProgram</text>
<text text-anchor="middle" x="227.503" y="-212" font-family="Helvetica,sans-Serif" font-size="10.00">/src/TCPCONSTANTS.h</text>
</a>
</g>
</g>
<!-- Node1&#45;&gt;Node17 -->
<g id="edge24" class="edge"><title>Node1&#45;&gt;Node17</title>
<path fill="none" stroke="midnightblue" d="M658.837,-277.483C575.657,-267.651 442.99,-251.585 328.503,-236 319.017,-234.709 309.04,-233.295 299.2,-231.868"/>
<polygon fill="midnightblue" stroke="midnightblue" points="658.64,-280.984 668.982,-278.68 659.461,-274.032 658.64,-280.984"/>
</g>
<!-- Node18 -->
<g id="node18" class="node"><title>Node18</title>
<g id="a_node18"><a xlink:href="../../d5/d65/tcp_protocol_8cpp.xhtml" target="_top" xlink:title="Hoofdprogramma/ourProgram\l/src/tcpProtocol.cpp">
<polygon fill="white" stroke="black" points="531.003,-137 531.003,-167 674.003,-167 674.003,-137 531.003,-137"/>
<text text-anchor="start" x="539.003" y="-155" font-family="Helvetica,sans-Serif" font-size="10.00">Hoofdprogramma/ourProgram</text>
<text text-anchor="middle" x="602.503" y="-144" font-family="Helvetica,sans-Serif" font-size="10.00">/src/tcpProtocol.cpp</text>
</a>
</g>
</g>
<!-- Node1&#45;&gt;Node18 -->
<g id="edge28" class="edge"><title>Node1&#45;&gt;Node18</title>
<path fill="none" stroke="midnightblue" d="M718.568,-265.701C690.196,-238.152 641.543,-190.908 617.231,-167.302"/>
<polygon fill="midnightblue" stroke="midnightblue" points="716.382,-268.458 725.995,-272.913 721.259,-263.436 716.382,-268.458"/>
</g>
<!-- Node19 -->
<g id="node19" class="node"><title>Node19</title>
<g id="a_node19"><a xlink:href="../../d2/d45/tcp_protocol_8h.xhtml" target="_top" xlink:title="Hoofdprogramma/ourProgram\l/src/tcpProtocol.h">
<polygon fill="white" stroke="black" points="455.003,-205 455.003,-235 598.003,-235 598.003,-205 455.003,-205"/>
<text text-anchor="start" x="463.003" y="-223" font-family="Helvetica,sans-Serif" font-size="10.00">Hoofdprogramma/ourProgram</text>
<text text-anchor="middle" x="526.503" y="-212" font-family="Helvetica,sans-Serif" font-size="10.00">/src/tcpProtocol.h</text>
</a>
</g>
</g>
<!-- Node1&#45;&gt;Node19 -->
<g id="edge29" class="edge"><title>Node1&#45;&gt;Node19</title>
<path fill="none" stroke="midnightblue" d="M685.225,-269.952C650.091,-259.116 605.162,-245.259 572.078,-235.056"/>
<polygon fill="midnightblue" stroke="midnightblue" points="684.269,-273.32 694.857,-272.922 686.332,-266.631 684.269,-273.32"/>
</g>
<!-- Node11 -->
<g id="node11" class="node"><title>Node11</title>
<g id="a_node11"><a xlink:href="../../d9/d5c/tcp_top_capsule_8cpp.xhtml" target="_top" xlink:title="Hoofdprogramma/ourProgram\l/src/tcpTopCapsule.cpp">
<polygon fill="white" stroke="black" points="584.003,-1 584.003,-31 727.003,-31 727.003,-1 584.003,-1"/>
<text text-anchor="start" x="592.003" y="-19" font-family="Helvetica,sans-Serif" font-size="10.00">Hoofdprogramma/ourProgram</text>
<text text-anchor="middle" x="655.503" y="-8" font-family="Helvetica,sans-Serif" font-size="10.00">/src/tcpTopCapsule.cpp</text>
</a>
</g>
</g>
<!-- Node1&#45;&gt;Node11 -->
<g id="edge34" class="edge"><title>Node1&#45;&gt;Node11</title>
<path fill="none" stroke="midnightblue" d="M731.116,-263.203C717.437,-227.95 691.778,-159.59 674.503,-100 667.588,-76.1476 661.566,-47.8563 658.243,-31.2246"/>
<polygon fill="midnightblue" stroke="midnightblue" points="727.901,-264.592 734.797,-272.635 734.422,-262.047 727.901,-264.592"/>
</g>
<!-- Node10 -->
<g id="node10" class="node"><title>Node10</title>
<g id="a_node10"><a xlink:href="../../db/d7e/tcp_top_capsule_8h.xhtml" target="_top" xlink:title="Hoofdprogramma/ourProgram\l/src/tcpTopCapsule.h">
<polygon fill="white" stroke="black" points="684.003,-69 684.003,-99 827.003,-99 827.003,-69 684.003,-69"/>
<text text-anchor="start" x="692.003" y="-87" font-family="Helvetica,sans-Serif" font-size="10.00">Hoofdprogramma/ourProgram</text>
<text text-anchor="middle" x="755.503" y="-76" font-family="Helvetica,sans-Serif" font-size="10.00">/src/tcpTopCapsule.h</text>
</a>
</g>
</g>
<!-- Node1&#45;&gt;Node10 -->
<g id="edge35" class="edge"><title>Node1&#45;&gt;Node10</title>
<path fill="none" stroke="midnightblue" d="M742.303,-262.75C745.464,-220.18 751.917,-133.291 754.449,-99.1886"/>
<polygon fill="midnightblue" stroke="midnightblue" points="738.808,-262.564 741.557,-272.796 745.788,-263.082 738.808,-262.564"/>
</g>
<!-- Node12 -->
<g id="node12" class="node"><title>Node12</title>
<g id="a_node12"><a xlink:href="../../dd/d42/top_cap_8cpp.xhtml" target="_top" xlink:title="Hoofdprogramma/ourProgram\l/src/topCap.cpp">
<polygon fill="white" stroke="black" points="1206,-69 1206,-99 1349,-99 1349,-69 1206,-69"/>
<text text-anchor="start" x="1214" y="-87" font-family="Helvetica,sans-Serif" font-size="10.00">Hoofdprogramma/ourProgram</text>
<text text-anchor="middle" x="1277.5" y="-76" font-family="Helvetica,sans-Serif" font-size="10.00">/src/topCap.cpp</text>
</a>
</g>
</g>
<!-- Node1&#45;&gt;Node12 -->
<g id="edge36" class="edge"><title>Node1&#45;&gt;Node12</title>
<path fill="none" stroke="midnightblue" d="M822.202,-286.472C935.377,-284.295 1132.59,-274.837 1191.5,-236 1241.63,-202.956 1265.79,-130.041 1274.07,-99.2097"/>
<polygon fill="midnightblue" stroke="midnightblue" points="822.127,-282.973 812.191,-286.65 822.252,-289.972 822.127,-282.973"/>
</g>
<!-- Node20 -->
<g id="node20" class="node"><title>Node20</title>
<g id="a_node20"><a xlink:href="../../d0/ddb/top_cap_8h.xhtml" target="_top" xlink:title="Hoofdprogramma/ourProgram\l/src/topCap.h">
<polygon fill="white" stroke="black" points="1244,-205 1244,-235 1387,-235 1387,-205 1244,-205"/>
<text text-anchor="start" x="1252" y="-223" font-family="Helvetica,sans-Serif" font-size="10.00">Hoofdprogramma/ourProgram</text>
<text text-anchor="middle" x="1315.5" y="-212" font-family="Helvetica,sans-Serif" font-size="10.00">/src/topCap.h</text>
</a>
</g>
</g>
<!-- Node1&#45;&gt;Node20 -->
<g id="edge37" class="edge"><title>Node1&#45;&gt;Node20</title>
<path fill="none" stroke="midnightblue" d="M822.427,-280.19C919.724,-271.701 1086.82,-255.86 1229.5,-236 1234.16,-235.352 1238.94,-234.641 1243.76,-233.892"/>
<polygon fill="midnightblue" stroke="midnightblue" points="822.024,-276.711 812.364,-281.063 822.629,-283.685 822.024,-276.711"/>
</g>
<!-- Node3&#45;&gt;Node2 -->
<g id="edge3" class="edge"><title>Node3&#45;&gt;Node2</title>
<path fill="none" stroke="midnightblue" d="M951.81,-200.055C971.36,-189.564 995.254,-176.743 1013.16,-167.135"/>
<polygon fill="midnightblue" stroke="midnightblue" points="950.046,-197.029 942.889,-204.841 953.356,-203.197 950.046,-197.029"/>
</g>
<!-- Node3&#45;&gt;Node4 -->
<g id="edge4" class="edge"><title>Node3&#45;&gt;Node4</title>
<path fill="none" stroke="midnightblue" d="M903.101,-195.723C897.643,-186.244 891.509,-175.591 886.732,-167.293"/>
<polygon fill="midnightblue" stroke="midnightblue" points="900.234,-197.759 908.257,-204.679 906.301,-194.266 900.234,-197.759"/>
</g>
<!-- Node4&#45;&gt;Node5 -->
<g id="edge5" class="edge"><title>Node4&#45;&gt;Node5</title>
<path fill="none" stroke="midnightblue" d="M891.904,-127.723C897.362,-118.244 903.496,-107.591 908.273,-99.2931"/>
<polygon fill="midnightblue" stroke="midnightblue" points="888.704,-126.266 886.748,-136.679 894.771,-129.759 888.704,-126.266"/>
</g>
<!-- Node4&#45;&gt;Node6 -->
<g id="edge6" class="edge"><title>Node4&#45;&gt;Node6</title>
<path fill="none" stroke="midnightblue" d="M796.829,-139.383C708.879,-126.872 570.311,-107.162 486.365,-95.2218"/>
<polygon fill="midnightblue" stroke="midnightblue" points="796.372,-142.853 806.766,-140.796 797.358,-135.923 796.372,-142.853"/>
</g>
<!-- Node4&#45;&gt;Node8 -->
<g id="edge8" class="edge"><title>Node4&#45;&gt;Node8</title>
<path fill="none" stroke="midnightblue" d="M930.991,-133.592C963.535,-122.798 1004.79,-109.116 1035.22,-99.0218"/>
<polygon fill="midnightblue" stroke="midnightblue" points="929.583,-130.371 921.193,-136.841 931.786,-137.015 929.583,-130.371"/>
</g>
<!-- Node4&#45;&gt;Node10 -->
<g id="edge10" class="edge"><title>Node4&#45;&gt;Node10</title>
<path fill="none" stroke="midnightblue" d="M843.195,-132.055C823.645,-121.564 799.752,-108.743 781.845,-99.1352"/>
<polygon fill="midnightblue" stroke="midnightblue" points="841.649,-135.197 852.116,-136.841 844.959,-129.029 841.649,-135.197"/>
</g>
<!-- Node4&#45;&gt;Node12 -->
<g id="edge12" class="edge"><title>Node4&#45;&gt;Node12</title>
<path fill="none" stroke="midnightblue" d="M959.871,-135.785C1050.16,-120.194 1143.39,-105.518 1205.83,-95.8966"/>
<polygon fill="midnightblue" stroke="midnightblue" points="959.27,-132.337 950.015,-137.493 960.465,-139.234 959.27,-132.337"/>
</g>
<!-- Node6&#45;&gt;Node7 -->
<g id="edge7" class="edge"><title>Node6&#45;&gt;Node7</title>
<path fill="none" stroke="midnightblue" d="M359.483,-65.9518C324.514,-55.1162 279.794,-41.2594 246.865,-31.0561"/>
<polygon fill="midnightblue" stroke="midnightblue" points="358.482,-69.3057 369.07,-68.9223 360.554,-62.6193 358.482,-69.3057"/>
</g>
<!-- Node8&#45;&gt;Node9 -->
<g id="edge9" class="edge"><title>Node8&#45;&gt;Node9</title>
<path fill="none" stroke="midnightblue" d="M1094.47,-60.608C1101.81,-50.9125 1110.19,-39.8499 1116.67,-31.2931"/>
<polygon fill="midnightblue" stroke="midnightblue" points="1091.6,-58.5945 1088.35,-68.679 1097.18,-62.8216 1091.6,-58.5945"/>
</g>
<!-- Node10&#45;&gt;Node11 -->
<g id="edge11" class="edge"><title>Node10&#45;&gt;Node11</title>
<path fill="none" stroke="midnightblue" d="M725.03,-62.8884C709.442,-52.6003 690.85,-40.3293 676.815,-31.0663"/>
<polygon fill="midnightblue" stroke="midnightblue" points="723.53,-66.0917 733.804,-68.679 727.386,-60.2494 723.53,-66.0917"/>
</g>
<!-- Node15&#45;&gt;Node14 -->
<g id="edge22" class="edge"><title>Node15&#45;&gt;Node14</title>
<path fill="none" stroke="midnightblue" d="M276.159,-127.723C271.132,-118.244 265.482,-107.591 261.082,-99.2931"/>
<polygon fill="midnightblue" stroke="midnightblue" points="273.131,-129.484 280.908,-136.679 279.315,-126.205 273.131,-129.484"/>
</g>
<!-- Node17&#45;&gt;Node14 -->
<g id="edge25" class="edge"><title>Node17&#45;&gt;Node14</title>
<path fill="none" stroke="midnightblue" d="M214.526,-195.709C206.86,-178.796 199.99,-155.546 207.503,-136 213.064,-121.531 224.839,-108.606 235.083,-99.3872"/>
<polygon fill="midnightblue" stroke="midnightblue" points="211.473,-197.432 219.029,-204.859 217.754,-194.341 211.473,-197.432"/>
</g>
<!-- Node17&#45;&gt;Node15 -->
<g id="edge26" class="edge"><title>Node17&#45;&gt;Node15</title>
<path fill="none" stroke="midnightblue" d="M247.657,-197.194C256.745,-187.36 267.224,-176.023 275.292,-167.293"/>
<polygon fill="midnightblue" stroke="midnightblue" points="244.956,-194.96 240.739,-204.679 250.096,-199.711 244.956,-194.96"/>
</g>
<!-- Node17&#45;&gt;Node16 -->
<g id="edge27" class="edge"><title>Node17&#45;&gt;Node16</title>
<path fill="none" stroke="midnightblue" d="M188.499,-200.48C166.243,-189.913 138.782,-176.874 118.272,-167.135"/>
<polygon fill="midnightblue" stroke="midnightblue" points="187.149,-203.714 197.684,-204.841 190.151,-197.39 187.149,-203.714"/>
</g>
<!-- Node19&#45;&gt;Node6 -->
<g id="edge30" class="edge"><title>Node19&#45;&gt;Node6</title>
<path fill="none" stroke="midnightblue" d="M507.873,-196.711C484.717,-169.007 445.881,-122.542 426.402,-99.2372"/>
<polygon fill="midnightblue" stroke="midnightblue" points="505.418,-199.231 514.517,-204.66 510.789,-194.742 505.418,-199.231"/>
</g>
<!-- Node19&#45;&gt;Node15 -->
<g id="edge31" class="edge"><title>Node19&#45;&gt;Node15</title>
<path fill="none" stroke="midnightblue" d="M466.025,-202.229C426.807,-191.353 376.298,-177.347 339.19,-167.056"/>
<polygon fill="midnightblue" stroke="midnightblue" points="465.166,-205.623 475.737,-204.922 467.036,-198.877 465.166,-205.623"/>
</g>
<!-- Node19&#45;&gt;Node18 -->
<g id="edge32" class="edge"><title>Node19&#45;&gt;Node18</title>
<path fill="none" stroke="midnightblue" d="M550.663,-198.018C562.298,-187.915 575.937,-176.07 586.305,-167.066"/>
<polygon fill="midnightblue" stroke="midnightblue" points="548.249,-195.479 542.993,-204.679 552.839,-200.765 548.249,-195.479"/>
</g>
<!-- Node19&#45;&gt;Node11 -->
<g id="edge33" class="edge"><title>Node19&#45;&gt;Node11</title>
<path fill="none" stroke="midnightblue" d="M519.314,-194.96C515.517,-177.787 513.173,-154.537 521.503,-136 543.5,-87.0449 596.695,-50.0332 629.055,-31.097"/>
<polygon fill="midnightblue" stroke="midnightblue" points="515.948,-195.928 521.783,-204.771 522.736,-194.22 515.948,-195.928"/>
</g>
<!-- Node20&#45;&gt;Node12 -->
<g id="edge38" class="edge"><title>Node20&#45;&gt;Node12</title>
<path fill="none" stroke="midnightblue" d="M1308.67,-194.894C1300.76,-167.015 1288.01,-122.04 1281.54,-99.2372"/>
<polygon fill="midnightblue" stroke="midnightblue" points="1305.34,-195.994 1311.44,-204.66 1312.07,-194.084 1305.34,-195.994"/>
</g>
</g>
</svg>
