<?xml version="1.0" encoding="UTF-8" standalone="no"?>
<!DOCTYPE svg PUBLIC "-//W3C//DTD SVG 1.1//EN"
 "http://www.w3.org/Graphics/SVG/1.1/DTD/svg11.dtd">
<!-- Generated by graphviz version 2.30.1 (20130214.1330)
 -->
<!-- Title: Hoofdprogramma/ourProgram/src/jsonTranslateCapsule.cpp Pages: 1 -->
<svg width="548pt" height="488pt"
 viewBox="0.00 0.00 548.00 488.00" xmlns="http://www.w3.org/2000/svg" xmlns:xlink="http://www.w3.org/1999/xlink">
<g id="graph0" class="graph" transform="scale(1 1) rotate(0) translate(4 484)">
<title>Hoofdprogramma/ourProgram/src/jsonTranslateCapsule.cpp</title>
<polygon fill="white" stroke="white" points="-4,5 -4,-484 545,-484 545,5 -4,5"/>
<!-- Node1 -->
<g id="node1" class="node"><title>Node1</title>
<polygon fill="#bfbfbf" stroke="black" points="0,-449 0,-479 148,-479 148,-449 0,-449"/>
<text text-anchor="start" x="8" y="-467" font-family="Helvetica,sans-Serif" font-size="10.00">Hoofdprogramma/ourProgram</text>
<text text-anchor="middle" x="74" y="-456" font-family="Helvetica,sans-Serif" font-size="10.00">/src/jsonTranslateCapsule.cpp</text>
</g>
<!-- Node2 -->
<g id="node2" class="node"><title>Node2</title>
<g id="a_node2"><a xlink:href="../../dd/d50/our_program_8h.xhtml" target="_top" xlink:title="RTSystem/ourProgram.h">
<polygon fill="white" stroke="black" points="39,-224.5 39,-243.5 163,-243.5 163,-224.5 39,-224.5"/>
<text text-anchor="middle" x="101" y="-231.5" font-family="Helvetica,sans-Serif" font-size="10.00">RTSystem/ourProgram.h</text>
</a>
</g>
</g>
<!-- Node1&#45;&gt;Node2 -->
<g id="edge1" class="edge"><title>Node1&#45;&gt;Node2</title>
<path fill="none" stroke="midnightblue" d="M65.9844,-448.684C55.287,-428.676 36.8911,-390.877 30,-356 28.277,-347.28 29.2156,-344.854 30,-336 32.2309,-310.816 26.6569,-301.475 40,-280 48.1359,-266.906 61.5983,-256.373 73.8091,-248.799"/>
<polygon fill="midnightblue" stroke="midnightblue" points="75.8978,-251.634 82.7939,-243.59 72.3871,-245.578 75.8978,-251.634"/>
</g>
<!-- Node5 -->
<g id="node5" class="node"><title>Node5</title>
<g id="a_node5"><a xlink:href="../../d4/ddd/json_translate_capsule_8h.xhtml" target="_top" xlink:title="jsonTranslateCapsule.h">
<polygon fill="white" stroke="black" points="106,-392.5 106,-411.5 224,-411.5 224,-392.5 106,-392.5"/>
<text text-anchor="middle" x="165" y="-399.5" font-family="Helvetica,sans-Serif" font-size="10.00">jsonTranslateCapsule.h</text>
</a>
</g>
</g>
<!-- Node1&#45;&gt;Node5 -->
<g id="edge4" class="edge"><title>Node1&#45;&gt;Node5</title>
<path fill="none" stroke="midnightblue" d="M95.5657,-448.781C109.966,-439.286 128.837,-426.843 143.271,-417.327"/>
<polygon fill="midnightblue" stroke="midnightblue" points="145.602,-419.982 152.024,-411.556 141.749,-414.138 145.602,-419.982"/>
</g>
<!-- Node3 -->
<g id="node3" class="node"><title>Node3</title>
<polygon fill="white" stroke="#bfbfbf" points="60,-168.5 60,-187.5 142,-187.5 142,-168.5 60,-168.5"/>
<text text-anchor="middle" x="101" y="-175.5" font-family="Helvetica,sans-Serif" font-size="10.00">RTStructures.h</text>
</g>
<!-- Node2&#45;&gt;Node3 -->
<g id="edge2" class="edge"><title>Node2&#45;&gt;Node3</title>
<path fill="none" stroke="midnightblue" d="M101,-224.083C101,-217.006 101,-206.861 101,-197.986"/>
<polygon fill="midnightblue" stroke="midnightblue" points="104.5,-197.751 101,-187.751 97.5001,-197.751 104.5,-197.751"/>
</g>
<!-- Node4 -->
<g id="node4" class="node"><title>Node4</title>
<polygon fill="white" stroke="#bfbfbf" points="87,-112.5 87,-131.5 141,-131.5 141,-112.5 87,-112.5"/>
<text text-anchor="middle" x="114" y="-119.5" font-family="Helvetica,sans-Serif" font-size="10.00">iostream</text>
</g>
<!-- Node2&#45;&gt;Node4 -->
<g id="edge3" class="edge"><title>Node2&#45;&gt;Node4</title>
<path fill="none" stroke="midnightblue" d="M86.0442,-224.452C67.4667,-212.648 39.5342,-190.28 51,-168 58.0773,-154.247 71.521,-143.766 84.1778,-136.394"/>
<polygon fill="midnightblue" stroke="midnightblue" points="85.9994,-139.389 93.1527,-131.573 82.6869,-133.222 85.9994,-139.389"/>
</g>
<!-- Node5&#45;&gt;Node2 -->
<g id="edge5" class="edge"><title>Node5&#45;&gt;Node2</title>
<path fill="none" stroke="midnightblue" d="M105.733,-394.321C81.5252,-388.343 55.7877,-377.098 41,-356 16.4694,-321.002 57.2878,-274.5 82.8333,-250.619"/>
<polygon fill="midnightblue" stroke="midnightblue" points="85.4143,-253.004 90.4884,-243.703 80.7218,-247.809 85.4143,-253.004"/>
</g>
<!-- Node6 -->
<g id="node6" class="node"><title>Node6</title>
<g id="a_node6"><a xlink:href="../../d4/d51/json_protocol_8h.xhtml" target="_top" xlink:title="jsonProtocol.h">
<polygon fill="white" stroke="black" points="253.5,-336.5 253.5,-355.5 332.5,-355.5 332.5,-336.5 253.5,-336.5"/>
<text text-anchor="middle" x="293" y="-343.5" font-family="Helvetica,sans-Serif" font-size="10.00">jsonProtocol.h</text>
</a>
</g>
</g>
<!-- Node5&#45;&gt;Node6 -->
<g id="edge6" class="edge"><title>Node5&#45;&gt;Node6</title>
<path fill="none" stroke="midnightblue" d="M185.282,-392.444C206.347,-383.557 239.517,-369.563 263.486,-359.451"/>
<polygon fill="midnightblue" stroke="midnightblue" points="264.96,-362.628 272.813,-355.516 262.239,-356.179 264.96,-362.628"/>
</g>
<!-- Node22 -->
<g id="node22" class="node"><title>Node22</title>
<g id="a_node22"><a xlink:href="../../d2/d45/tcp_protocol_8h.xhtml" target="_top" xlink:title="tcpProtocol.h">
<polygon fill="white" stroke="black" points="70,-280.5 70,-299.5 144,-299.5 144,-280.5 70,-280.5"/>
<text text-anchor="middle" x="107" y="-287.5" font-family="Helvetica,sans-Serif" font-size="10.00">tcpProtocol.h</text>
</a>
</g>
</g>
<!-- Node5&#45;&gt;Node22 -->
<g id="edge35" class="edge"><title>Node5&#45;&gt;Node22</title>
<path fill="none" stroke="midnightblue" d="M177.154,-392.315C193.145,-379.79 217.802,-355.966 205,-336 193.589,-318.203 173.177,-307.351 153.924,-300.78"/>
<polygon fill="midnightblue" stroke="midnightblue" points="154.903,-297.419 144.315,-297.803 152.831,-304.105 154.903,-297.419"/>
</g>
<!-- Node23 -->
<g id="node23" class="node"><title>Node23</title>
<polygon fill="white" stroke="#bfbfbf" points="50.5,-336.5 50.5,-355.5 115.5,-355.5 115.5,-336.5 50.5,-336.5"/>
<text text-anchor="middle" x="83" y="-343.5" font-family="Helvetica,sans-Serif" font-size="10.00">winsock2.h</text>
</g>
<!-- Node5&#45;&gt;Node23 -->
<g id="edge37" class="edge"><title>Node5&#45;&gt;Node23</title>
<path fill="none" stroke="midnightblue" d="M151.825,-392.324C139.153,-383.979 119.767,-371.212 104.794,-361.352"/>
<polygon fill="midnightblue" stroke="midnightblue" points="106.419,-358.231 96.142,-355.655 102.569,-364.078 106.419,-358.231"/>
</g>
<!-- Node24 -->
<g id="node24" class="node"><title>Node24</title>
<polygon fill="white" stroke="#bfbfbf" points="133.5,-336.5 133.5,-355.5 196.5,-355.5 196.5,-336.5 133.5,-336.5"/>
<text text-anchor="middle" x="165" y="-343.5" font-family="Helvetica,sans-Serif" font-size="10.00">ws2tcpip.h</text>
</g>
<!-- Node5&#45;&gt;Node24 -->
<g id="edge38" class="edge"><title>Node5&#45;&gt;Node24</title>
<path fill="none" stroke="midnightblue" d="M165,-392.083C165,-385.006 165,-374.861 165,-365.986"/>
<polygon fill="midnightblue" stroke="midnightblue" points="168.5,-365.751 165,-355.751 161.5,-365.751 168.5,-365.751"/>
</g>
<!-- Node21 -->
<g id="node21" class="node"><title>Node21</title>
<polygon fill="white" stroke="#bfbfbf" points="350,-224.5 350,-243.5 396,-243.5 396,-224.5 350,-224.5"/>
<text text-anchor="middle" x="373" y="-231.5" font-family="Helvetica,sans-Serif" font-size="10.00">stdio.h</text>
</g>
<!-- Node5&#45;&gt;Node21 -->
<g id="edge39" class="edge"><title>Node5&#45;&gt;Node21</title>
<path fill="none" stroke="midnightblue" d="M224.147,-392.428C268.574,-384.823 324.485,-372.379 341,-356 368.55,-328.675 373.236,-280.595 373.549,-254.011"/>
<polygon fill="midnightblue" stroke="midnightblue" points="377.047,-253.728 373.462,-243.759 370.048,-253.788 377.047,-253.728"/>
</g>
<!-- Node6&#45;&gt;Node2 -->
<g id="edge7" class="edge"><title>Node6&#45;&gt;Node2</title>
<path fill="none" stroke="midnightblue" d="M277.934,-336.368C244.706,-317.332 164.91,-271.615 124.826,-248.65"/>
<polygon fill="midnightblue" stroke="midnightblue" points="126.413,-245.526 115.996,-243.591 122.933,-251.599 126.413,-245.526"/>
</g>
<!-- Node7 -->
<g id="node7" class="node"><title>Node7</title>
<g id="a_node7"><a xlink:href="../../d8/d2e/json_command_8h.xhtml" target="_top" xlink:title="jsonCommand.h">
<polygon fill="white" stroke="black" points="245.5,-280.5 245.5,-299.5 332.5,-299.5 332.5,-280.5 245.5,-280.5"/>
<text text-anchor="middle" x="289" y="-287.5" font-family="Helvetica,sans-Serif" font-size="10.00">jsonCommand.h</text>
</a>
</g>
</g>
<!-- Node6&#45;&gt;Node7 -->
<g id="edge8" class="edge"><title>Node6&#45;&gt;Node7</title>
<path fill="none" stroke="midnightblue" d="M292.339,-336.083C291.815,-329.006 291.064,-318.861 290.406,-309.986"/>
<polygon fill="midnightblue" stroke="midnightblue" points="293.877,-309.465 289.648,-299.751 286.897,-309.982 293.877,-309.465"/>
</g>
<!-- Node7&#45;&gt;Node2 -->
<g id="edge9" class="edge"><title>Node7&#45;&gt;Node2</title>
<path fill="none" stroke="midnightblue" d="M259.211,-280.444C227.171,-271.241 176.067,-256.562 140.647,-246.388"/>
<polygon fill="midnightblue" stroke="midnightblue" points="141.227,-242.913 130.65,-243.516 139.295,-249.641 141.227,-242.913"/>
</g>
<!-- Node8 -->
<g id="node8" class="node"><title>Node8</title>
<g id="a_node8"><a xlink:href="../../d4/d05/json_8h.xhtml" target="_top" xlink:title="../../include/json.h">
<polygon fill="white" stroke="black" points="236.5,-224.5 236.5,-243.5 331.5,-243.5 331.5,-224.5 236.5,-224.5"/>
<text text-anchor="middle" x="284" y="-231.5" font-family="Helvetica,sans-Serif" font-size="10.00">../../include/json.h</text>
</a>
</g>
</g>
<!-- Node7&#45;&gt;Node8 -->
<g id="edge10" class="edge"><title>Node7&#45;&gt;Node8</title>
<path fill="none" stroke="midnightblue" d="M288.174,-280.083C287.519,-273.006 286.58,-262.861 285.758,-253.986"/>
<polygon fill="midnightblue" stroke="midnightblue" points="289.217,-253.386 284.81,-243.751 282.247,-254.031 289.217,-253.386"/>
</g>
<!-- Node7&#45;&gt;Node21 -->
<g id="edge34" class="edge"><title>Node7&#45;&gt;Node21</title>
<path fill="none" stroke="midnightblue" d="M302.496,-280.324C315.6,-271.9 335.712,-258.971 351.107,-249.074"/>
<polygon fill="midnightblue" stroke="midnightblue" points="353.018,-252.006 359.537,-243.655 349.233,-246.118 353.018,-252.006"/>
</g>
<!-- Node9 -->
<g id="node9" class="node"><title>Node9</title>
<g id="a_node9"><a xlink:href="../../d3/dea/autolink_8h.xhtml" target="_top" xlink:title="autolink.h">
<polygon fill="white" stroke="black" points="463.5,-168.5 463.5,-187.5 522.5,-187.5 522.5,-168.5 463.5,-168.5"/>
<text text-anchor="middle" x="493" y="-175.5" font-family="Helvetica,sans-Serif" font-size="10.00">autolink.h</text>
</a>
</g>
</g>
<!-- Node8&#45;&gt;Node9 -->
<g id="edge11" class="edge"><title>Node8&#45;&gt;Node9</title>
<path fill="none" stroke="midnightblue" d="M317.117,-224.444C354.176,-214.868 414.18,-199.365 453.615,-189.176"/>
<polygon fill="midnightblue" stroke="midnightblue" points="454.611,-192.534 463.417,-186.643 452.86,-185.756 454.611,-192.534"/>
</g>
<!-- Node11 -->
<g id="node11" class="node"><title>Node11</title>
<g id="a_node11"><a xlink:href="../../d4/d3f/value_8h.xhtml" target="_top" xlink:title="value.h">
<polygon fill="white" stroke="black" points="197.5,-112.5 197.5,-131.5 244.5,-131.5 244.5,-112.5 197.5,-112.5"/>
<text text-anchor="middle" x="221" y="-119.5" font-family="Helvetica,sans-Serif" font-size="10.00">value.h</text>
</a>
</g>
</g>
<!-- Node8&#45;&gt;Node11 -->
<g id="edge14" class="edge"><title>Node8&#45;&gt;Node11</title>
<path fill="none" stroke="midnightblue" d="M277.981,-224.184C271.939,-215.217 262.482,-200.852 255,-188 245.9,-172.368 236.432,-154.074 229.805,-140.883"/>
<polygon fill="midnightblue" stroke="midnightblue" points="232.748,-138.942 225.161,-131.547 226.481,-142.059 232.748,-138.942"/>
</g>
<!-- Node16 -->
<g id="node16" class="node"><title>Node16</title>
<g id="a_node16"><a xlink:href="../../d6/dda/reader_8h.xhtml" target="_top" xlink:title="reader.h">
<polygon fill="white" stroke="black" points="264,-168.5 264,-187.5 316,-187.5 316,-168.5 264,-168.5"/>
<text text-anchor="middle" x="290" y="-175.5" font-family="Helvetica,sans-Serif" font-size="10.00">reader.h</text>
</a>
</g>
</g>
<!-- Node8&#45;&gt;Node16 -->
<g id="edge20" class="edge"><title>Node8&#45;&gt;Node16</title>
<path fill="none" stroke="midnightblue" d="M284.991,-224.083C285.786,-216.927 286.929,-206.635 287.923,-197.691"/>
<polygon fill="midnightblue" stroke="midnightblue" points="291.402,-198.076 289.028,-187.751 284.445,-197.303 291.402,-198.076"/>
</g>
<!-- Node20 -->
<g id="node20" class="node"><title>Node20</title>
<g id="a_node20"><a xlink:href="../../d9/d53/writer_8h.xhtml" target="_top" xlink:title="writer.h">
<polygon fill="white" stroke="black" points="160,-168.5 160,-187.5 208,-187.5 208,-168.5 160,-168.5"/>
<text text-anchor="middle" x="184" y="-175.5" font-family="Helvetica,sans-Serif" font-size="10.00">writer.h</text>
</a>
</g>
</g>
<!-- Node8&#45;&gt;Node20 -->
<g id="edge28" class="edge"><title>Node8&#45;&gt;Node20</title>
<path fill="none" stroke="midnightblue" d="M267.933,-224.324C252.042,-215.743 227.493,-202.486 209.042,-192.522"/>
<polygon fill="midnightblue" stroke="midnightblue" points="210.489,-189.326 200.027,-187.655 207.163,-195.486 210.489,-189.326"/>
</g>
<!-- Node17 -->
<g id="node17" class="node"><title>Node17</title>
<g id="a_node17"><a xlink:href="../../de/d47/features_8h.xhtml" target="_top" xlink:title="features.h">
<polygon fill="white" stroke="black" points="421.5,-112.5 421.5,-131.5 480.5,-131.5 480.5,-112.5 421.5,-112.5"/>
<text text-anchor="middle" x="451" y="-119.5" font-family="Helvetica,sans-Serif" font-size="10.00">features.h</text>
</a>
</g>
</g>
<!-- Node8&#45;&gt;Node17 -->
<g id="edge33" class="edge"><title>Node8&#45;&gt;Node17</title>
<path fill="none" stroke="midnightblue" d="M297.104,-224.368C325.761,-205.492 394.243,-160.385 429.386,-137.237"/>
<polygon fill="midnightblue" stroke="midnightblue" points="431.531,-140.015 437.957,-131.591 427.68,-134.169 431.531,-140.015"/>
</g>
<!-- Node10 -->
<g id="node10" class="node"><title>Node10</title>
<g id="a_node10"><a xlink:href="../../db/d16/config_8h.xhtml" target="_top" xlink:title="config.h">
<polygon fill="white" stroke="black" points="454,-0.5 454,-19.5 504,-19.5 504,-0.5 454,-0.5"/>
<text text-anchor="middle" x="479" y="-7.5" font-family="Helvetica,sans-Serif" font-size="10.00">config.h</text>
</a>
</g>
</g>
<!-- Node9&#45;&gt;Node10 -->
<g id="edge12" class="edge"><title>Node9&#45;&gt;Node10</title>
<path fill="none" stroke="midnightblue" d="M493.26,-168.448C493.745,-148.602 494.303,-97.9129 489,-56 487.881,-47.1571 485.843,-37.4911 483.897,-29.392"/>
<polygon fill="midnightblue" stroke="midnightblue" points="487.25,-28.3743 481.396,-19.5434 480.465,-30.0973 487.25,-28.3743"/>
</g>
<!-- Node9&#45;&gt;Node9 -->
<g id="edge13" class="edge"><title>Node9&#45;&gt;Node9</title>
<path fill="none" stroke="midnightblue" d="M513.29,-187.575C526.825,-190.27 540,-187.078 540,-178 540,-171.262 532.743,-167.767 523.467,-167.515"/>
<polygon fill="midnightblue" stroke="midnightblue" points="522.938,-164.048 513.29,-168.425 523.562,-171.02 522.938,-164.048"/>
</g>
<!-- Node12 -->
<g id="node12" class="node"><title>Node12</title>
<g id="a_node12"><a xlink:href="../../d2/d84/forwards_8h.xhtml" target="_top" xlink:title="forwards.h">
<polygon fill="white" stroke="black" points="419.5,-56.5 419.5,-75.5 480.5,-75.5 480.5,-56.5 419.5,-56.5"/>
<text text-anchor="middle" x="450" y="-63.5" font-family="Helvetica,sans-Serif" font-size="10.00">forwards.h</text>
</a>
</g>
</g>
<!-- Node11&#45;&gt;Node12 -->
<g id="edge15" class="edge"><title>Node11&#45;&gt;Node12</title>
<path fill="none" stroke="midnightblue" d="M244.645,-115.424C283.504,-106.261 361.329,-87.9093 409.22,-76.6162"/>
<polygon fill="midnightblue" stroke="midnightblue" points="410.322,-79.9525 419.252,-74.2507 408.715,-73.1393 410.322,-79.9525"/>
</g>
<!-- Node13 -->
<g id="node13" class="node"><title>Node13</title>
<polygon fill="white" stroke="#bfbfbf" points="174.5,-56.5 174.5,-75.5 215.5,-75.5 215.5,-56.5 174.5,-56.5"/>
<text text-anchor="middle" x="195" y="-63.5" font-family="Helvetica,sans-Serif" font-size="10.00">string</text>
</g>
<!-- Node11&#45;&gt;Node13 -->
<g id="edge17" class="edge"><title>Node11&#45;&gt;Node13</title>
<path fill="none" stroke="midnightblue" d="M216.707,-112.083C213.148,-104.691 207.978,-93.9533 203.576,-84.8111"/>
<polygon fill="midnightblue" stroke="midnightblue" points="206.705,-83.2427 199.213,-75.7511 200.398,-86.2795 206.705,-83.2427"/>
</g>
<!-- Node14 -->
<g id="node14" class="node"><title>Node14</title>
<polygon fill="white" stroke="#bfbfbf" points="89,-56.5 89,-75.5 131,-75.5 131,-56.5 89,-56.5"/>
<text text-anchor="middle" x="110" y="-63.5" font-family="Helvetica,sans-Serif" font-size="10.00">vector</text>
</g>
<!-- Node11&#45;&gt;Node14 -->
<g id="edge18" class="edge"><title>Node11&#45;&gt;Node14</title>
<path fill="none" stroke="midnightblue" d="M203.166,-112.324C185.284,-103.625 157.525,-90.1202 136.954,-80.113"/>
<polygon fill="midnightblue" stroke="midnightblue" points="138.313,-76.8819 127.79,-75.6545 135.251,-83.1765 138.313,-76.8819"/>
</g>
<!-- Node15 -->
<g id="node15" class="node"><title>Node15</title>
<polygon fill="white" stroke="#bfbfbf" points="233.5,-56.5 233.5,-75.5 268.5,-75.5 268.5,-56.5 233.5,-56.5"/>
<text text-anchor="middle" x="251" y="-63.5" font-family="Helvetica,sans-Serif" font-size="10.00">map</text>
</g>
<!-- Node11&#45;&gt;Node15 -->
<g id="edge19" class="edge"><title>Node11&#45;&gt;Node15</title>
<path fill="none" stroke="midnightblue" d="M225.954,-112.083C230.104,-104.613 236.153,-93.7244 241.267,-84.5199"/>
<polygon fill="midnightblue" stroke="midnightblue" points="244.341,-86.1924 246.138,-75.7511 238.222,-82.7929 244.341,-86.1924"/>
</g>
<!-- Node12&#45;&gt;Node10 -->
<g id="edge16" class="edge"><title>Node12&#45;&gt;Node10</title>
<path fill="none" stroke="midnightblue" d="M454.789,-56.083C458.758,-48.6913 464.525,-37.9533 469.435,-28.8111"/>
<polygon fill="midnightblue" stroke="midnightblue" points="472.653,-30.217 474.3,-19.7511 466.486,-26.9051 472.653,-30.217"/>
</g>
<!-- Node16&#45;&gt;Node17 -->
<g id="edge21" class="edge"><title>Node16&#45;&gt;Node17</title>
<path fill="none" stroke="midnightblue" d="M315.511,-168.444C342.596,-159.359 385.59,-144.939 415.869,-134.783"/>
<polygon fill="midnightblue" stroke="midnightblue" points="417.24,-138.015 425.608,-131.516 415.014,-131.378 417.24,-138.015"/>
</g>
<!-- Node16&#45;&gt;Node11 -->
<g id="edge23" class="edge"><title>Node16&#45;&gt;Node11</title>
<path fill="none" stroke="midnightblue" d="M278.914,-168.324C268.514,-160.185 252.739,-147.839 240.278,-138.087"/>
<polygon fill="midnightblue" stroke="midnightblue" points="242.32,-135.241 232.288,-131.834 238.006,-140.753 242.32,-135.241"/>
</g>
<!-- Node18 -->
<g id="node18" class="node"><title>Node18</title>
<polygon fill="white" stroke="#bfbfbf" points="301.5,-112.5 301.5,-131.5 344.5,-131.5 344.5,-112.5 301.5,-112.5"/>
<text text-anchor="middle" x="323" y="-119.5" font-family="Helvetica,sans-Serif" font-size="10.00">deque</text>
</g>
<!-- Node16&#45;&gt;Node18 -->
<g id="edge24" class="edge"><title>Node16&#45;&gt;Node18</title>
<path fill="none" stroke="midnightblue" d="M295.449,-168.083C300.014,-160.613 306.668,-149.724 312.293,-140.52"/>
<polygon fill="midnightblue" stroke="midnightblue" points="315.424,-142.109 317.652,-131.751 309.451,-138.459 315.424,-142.109"/>
</g>
<!-- Node19 -->
<g id="node19" class="node"><title>Node19</title>
<polygon fill="white" stroke="#bfbfbf" points="362.5,-112.5 362.5,-131.5 403.5,-131.5 403.5,-112.5 362.5,-112.5"/>
<text text-anchor="middle" x="383" y="-119.5" font-family="Helvetica,sans-Serif" font-size="10.00">stack</text>
</g>
<!-- Node16&#45;&gt;Node19 -->
<g id="edge25" class="edge"><title>Node16&#45;&gt;Node19</title>
<path fill="none" stroke="midnightblue" d="M304.942,-168.324C319.585,-159.822 342.134,-146.729 359.238,-136.797"/>
<polygon fill="midnightblue" stroke="midnightblue" points="361.205,-139.703 368.095,-131.655 357.69,-133.649 361.205,-139.703"/>
</g>
<!-- Node16&#45;&gt;Node13 -->
<g id="edge26" class="edge"><title>Node16&#45;&gt;Node13</title>
<path fill="none" stroke="midnightblue" d="M286.393,-168.322C280.65,-155.177 268.48,-129.857 253,-112 242.755,-100.182 229.004,-89.3538 217.463,-81.2819"/>
<polygon fill="midnightblue" stroke="midnightblue" points="219.409,-78.3724 209.163,-75.6758 215.491,-84.1733 219.409,-78.3724"/>
</g>
<!-- Node16&#45;&gt;Node4 -->
<g id="edge27" class="edge"><title>Node16&#45;&gt;Node4</title>
<path fill="none" stroke="midnightblue" d="M263.651,-168.916C233.756,-159.743 184.784,-144.718 151.05,-134.368"/>
<polygon fill="midnightblue" stroke="midnightblue" points="151.695,-130.905 141.108,-131.317 149.642,-137.597 151.695,-130.905"/>
</g>
<!-- Node17&#45;&gt;Node12 -->
<g id="edge22" class="edge"><title>Node17&#45;&gt;Node12</title>
<path fill="none" stroke="midnightblue" d="M450.835,-112.083C450.704,-105.006 450.516,-94.8611 450.352,-85.9865"/>
<polygon fill="midnightblue" stroke="midnightblue" points="453.847,-85.6845 450.162,-75.7511 446.848,-85.8142 453.847,-85.6845"/>
</g>
<!-- Node20&#45;&gt;Node11 -->
<g id="edge29" class="edge"><title>Node20&#45;&gt;Node11</title>
<path fill="none" stroke="midnightblue" d="M190.11,-168.083C195.282,-160.534 202.846,-149.495 209.194,-140.23"/>
<polygon fill="midnightblue" stroke="midnightblue" points="212.239,-141.979 215.004,-131.751 206.464,-138.022 212.239,-141.979"/>
</g>
<!-- Node20&#45;&gt;Node14 -->
<g id="edge30" class="edge"><title>Node20&#45;&gt;Node14</title>
<path fill="none" stroke="midnightblue" d="M159.823,-170.126C131.56,-161.544 87.4342,-146.254 78,-132 67.5543,-116.218 80.443,-96.5323 92.8444,-82.9845"/>
<polygon fill="midnightblue" stroke="midnightblue" points="95.3982,-85.3792 99.9097,-75.7929 90.4048,-80.4735 95.3982,-85.3792"/>
</g>
<!-- Node20&#45;&gt;Node13 -->
<g id="edge31" class="edge"><title>Node20&#45;&gt;Node13</title>
<path fill="none" stroke="midnightblue" d="M184.284,-168.147C184.746,-155.617 185.833,-132.008 188,-112 188.948,-103.245 190.396,-93.5909 191.73,-85.4766"/>
<polygon fill="midnightblue" stroke="midnightblue" points="195.184,-86.0423 193.42,-75.5954 188.284,-84.8623 195.184,-86.0423"/>
</g>
<!-- Node20&#45;&gt;Node4 -->
<g id="edge32" class="edge"><title>Node20&#45;&gt;Node4</title>
<path fill="none" stroke="midnightblue" d="M172.753,-168.324C162.203,-160.185 146.199,-147.839 133.558,-138.087"/>
<polygon fill="midnightblue" stroke="midnightblue" points="135.507,-135.171 125.451,-131.834 131.231,-140.713 135.507,-135.171"/>
</g>
<!-- Node22&#45;&gt;Node2 -->
<g id="edge36" class="edge"><title>Node22&#45;&gt;Node2</title>
<path fill="none" stroke="midnightblue" d="M106.009,-280.083C105.214,-272.927 104.071,-262.635 103.077,-253.691"/>
<polygon fill="midnightblue" stroke="midnightblue" points="106.555,-253.303 101.972,-243.751 99.5982,-254.076 106.555,-253.303"/>
</g>
</g>
</svg>
