<?xml version="1.0" encoding="UTF-8" standalone="no"?>
<!DOCTYPE svg PUBLIC "-//W3C//DTD SVG 1.1//EN"
 "http://www.w3.org/Graphics/SVG/1.1/DTD/svg11.dtd">
<!-- Generated by graphviz version 2.30.1 (20130214.1330)
 -->
<!-- Title: Hoofdprogramma/ourProgram/src/TCPCONSTANTS.h Pages: 1 -->
<svg width="361pt" height="176pt"
 viewBox="0.00 0.00 361.00 176.00" xmlns="http://www.w3.org/2000/svg" xmlns:xlink="http://www.w3.org/1999/xlink">
<g id="graph0" class="graph" transform="scale(1 1) rotate(0) translate(4 172)">
<title>Hoofdprogramma/ourProgram/src/TCPCONSTANTS.h</title>
<polygon fill="white" stroke="white" points="-4,5 -4,-172 358,-172 358,5 -4,5"/>
<!-- Node1 -->
<g id="node1" class="node"><title>Node1</title>
<polygon fill="#bfbfbf" stroke="black" points="49.5,-137 49.5,-167 192.5,-167 192.5,-137 49.5,-137"/>
<text text-anchor="start" x="57.5" y="-155" font-family="Helvetica,sans-Serif" font-size="10.00">Hoofdprogramma/ourProgram</text>
<text text-anchor="middle" x="121" y="-144" font-family="Helvetica,sans-Serif" font-size="10.00">/src/TCPCONSTANTS.h</text>
</g>
<!-- Node2 -->
<g id="node2" class="node"><title>Node2</title>
<g id="a_node2"><a xlink:href="../../d2/d1d/tcp_capsule_8cpp.xhtml" target="_top" xlink:title="Hoofdprogramma/ourProgram\l/src/tcpCapsule.cpp">
<polygon fill="white" stroke="black" points="-0.5,-1 -0.5,-31 142.5,-31 142.5,-1 -0.5,-1"/>
<text text-anchor="start" x="7.5" y="-19" font-family="Helvetica,sans-Serif" font-size="10.00">Hoofdprogramma/ourProgram</text>
<text text-anchor="middle" x="71" y="-8" font-family="Helvetica,sans-Serif" font-size="10.00">/src/tcpCapsule.cpp</text>
</a>
</g>
</g>
<!-- Node1&#45;&gt;Node2 -->
<g id="edge1" class="edge"><title>Node1&#45;&gt;Node2</title>
<path fill="none" stroke="midnightblue" d="M73.9557,-132.091C60.5685,-124.259 47.5767,-113.724 40,-100 27.3616,-77.1076 45.1789,-48.0179 58.5762,-31.0568"/>
<polygon fill="midnightblue" stroke="midnightblue" points="72.2965,-135.173 82.7571,-136.854 75.6282,-129.017 72.2965,-135.173"/>
</g>
<!-- Node3 -->
<g id="node3" class="node"><title>Node3</title>
<g id="a_node3"><a xlink:href="../../de/d33/tcp_capsule_8h.xhtml" target="_top" xlink:title="Hoofdprogramma/ourProgram\l/src/tcpCapsule.h">
<polygon fill="white" stroke="black" points="49.5,-69 49.5,-99 192.5,-99 192.5,-69 49.5,-69"/>
<text text-anchor="start" x="57.5" y="-87" font-family="Helvetica,sans-Serif" font-size="10.00">Hoofdprogramma/ourProgram</text>
<text text-anchor="middle" x="121" y="-76" font-family="Helvetica,sans-Serif" font-size="10.00">/src/tcpCapsule.h</text>
</a>
</g>
</g>
<!-- Node1&#45;&gt;Node3 -->
<g id="edge2" class="edge"><title>Node1&#45;&gt;Node3</title>
<path fill="none" stroke="midnightblue" d="M121,-126.532C121,-117.361 121,-107.245 121,-99.2931"/>
<polygon fill="midnightblue" stroke="midnightblue" points="117.5,-126.679 121,-136.679 124.5,-126.679 117.5,-126.679"/>
</g>
<!-- Node4 -->
<g id="node4" class="node"><title>Node4</title>
<g id="a_node4"><a xlink:href="../../d9/dd4/_t_c_p_c_o_n_s_t_a_n_t_s_8cpp.xhtml" target="_top" xlink:title="Hoofdprogramma/ourProgram\l/src/TCPCONSTANTS.cpp">
<polygon fill="white" stroke="black" points="210.5,-69 210.5,-99 353.5,-99 353.5,-69 210.5,-69"/>
<text text-anchor="start" x="218.5" y="-87" font-family="Helvetica,sans-Serif" font-size="10.00">Hoofdprogramma/ourProgram</text>
<text text-anchor="middle" x="282" y="-76" font-family="Helvetica,sans-Serif" font-size="10.00">/src/TCPCONSTANTS.cpp</text>
</a>
</g>
</g>
<!-- Node1&#45;&gt;Node4 -->
<g id="edge4" class="edge"><title>Node1&#45;&gt;Node4</title>
<path fill="none" stroke="midnightblue" d="M164.834,-133.031C190.943,-122.328 223.597,-108.942 247.795,-99.0218"/>
<polygon fill="midnightblue" stroke="midnightblue" points="163.464,-129.81 155.539,-136.841 166.119,-136.287 163.464,-129.81"/>
</g>
<!-- Node3&#45;&gt;Node2 -->
<g id="edge3" class="edge"><title>Node3&#45;&gt;Node2</title>
<path fill="none" stroke="midnightblue" d="M104.036,-60.608C96.6913,-50.9125 88.3105,-39.8499 81.8281,-31.2931"/>
<polygon fill="midnightblue" stroke="midnightblue" points="101.322,-62.8216 110.151,-68.679 106.902,-58.5945 101.322,-62.8216"/>
</g>
</g>
</svg>
