<?xml version="1.0" encoding="UTF-8" standalone="no"?>
<!DOCTYPE svg PUBLIC "-//W3C//DTD SVG 1.1//EN"
 "http://www.w3.org/Graphics/SVG/1.1/DTD/svg11.dtd">
<!-- Generated by graphviz version 2.30.1 (20130214.1330)
 -->
<!-- Title: GUI/bin/debug/ui_roomba.h Pages: 1 -->
<svg width="1566pt" height="84pt"
 viewBox="0.00 0.00 1566.00 84.00" xmlns="http://www.w3.org/2000/svg" xmlns:xlink="http://www.w3.org/1999/xlink">
<g id="graph0" class="graph" transform="scale(1 1) rotate(0) translate(4 80)">
<title>GUI/bin/debug/ui_roomba.h</title>
<polygon fill="white" stroke="white" points="-4,5 -4,-80 1563,-80 1563,5 -4,5"/>
<!-- Node1 -->
<g id="node1" class="node"><title>Node1</title>
<polygon fill="#bfbfbf" stroke="black" points="719,-56.5 719,-75.5 853,-75.5 853,-56.5 719,-56.5"/>
<text text-anchor="middle" x="786" y="-63.5" font-family="Helvetica,sans-Serif" font-size="10.00">GUI/bin/debug/ui_roomba.h</text>
</g>
<!-- Node2 -->
<g id="node2" class="node"><title>Node2</title>
<polygon fill="white" stroke="#bfbfbf" points="-0.5,-0.5 -0.5,-19.5 88.5,-19.5 88.5,-0.5 -0.5,-0.5"/>
<text text-anchor="middle" x="44" y="-7.5" font-family="Helvetica,sans-Serif" font-size="10.00">QtCore/QVariant</text>
</g>
<!-- Node1&#45;&gt;Node2 -->
<g id="edge1" class="edge"><title>Node1&#45;&gt;Node2</title>
<path fill="none" stroke="midnightblue" d="M718.796,-62.9094C597.05,-58.619 331.753,-46.9631 98.7907,-20.1031"/>
<polygon fill="midnightblue" stroke="midnightblue" points="99.1106,-16.6168 88.7728,-18.9362 98.3007,-23.5698 99.1106,-16.6168"/>
</g>
<!-- Node3 -->
<g id="node3" class="node"><title>Node3</title>
<polygon fill="white" stroke="#bfbfbf" points="106.5,-0.5 106.5,-19.5 207.5,-19.5 207.5,-0.5 106.5,-0.5"/>
<text text-anchor="middle" x="157" y="-7.5" font-family="Helvetica,sans-Serif" font-size="10.00">QtWidgets/QAction</text>
</g>
<!-- Node1&#45;&gt;Node3 -->
<g id="edge2" class="edge"><title>Node1&#45;&gt;Node3</title>
<path fill="none" stroke="midnightblue" d="M718.844,-61.2155C614.133,-54.9772 405.406,-41.1913 217.758,-20.0051"/>
<polygon fill="midnightblue" stroke="midnightblue" points="218.038,-16.5144 207.706,-18.8607 217.246,-23.4695 218.038,-16.5144"/>
</g>
<!-- Node4 -->
<g id="node4" class="node"><title>Node4</title>
<polygon fill="white" stroke="#bfbfbf" points="226,-0.5 226,-19.5 348,-19.5 348,-0.5 226,-0.5"/>
<text text-anchor="middle" x="287" y="-7.5" font-family="Helvetica,sans-Serif" font-size="10.00">QtWidgets/QApplication</text>
</g>
<!-- Node1&#45;&gt;Node4 -->
<g id="edge3" class="edge"><title>Node1&#45;&gt;Node4</title>
<path fill="none" stroke="midnightblue" d="M718.7,-58.4313C636.245,-50.2733 492.01,-35.647 358.105,-20.1059"/>
<polygon fill="midnightblue" stroke="midnightblue" points="358.411,-16.6179 348.073,-18.9376 357.601,-23.5709 358.411,-16.6179"/>
</g>
<!-- Node5 -->
<g id="node5" class="node"><title>Node5</title>
<polygon fill="white" stroke="#bfbfbf" points="366,-0.5 366,-19.5 494,-19.5 494,-0.5 366,-0.5"/>
<text text-anchor="middle" x="430" y="-7.5" font-family="Helvetica,sans-Serif" font-size="10.00">QtWidgets/QButtonGroup</text>
</g>
<!-- Node1&#45;&gt;Node5 -->
<g id="edge4" class="edge"><title>Node1&#45;&gt;Node5</title>
<path fill="none" stroke="midnightblue" d="M729.591,-56.4435C666.185,-46.8259 563.352,-31.2275 496.196,-21.0409"/>
<polygon fill="midnightblue" stroke="midnightblue" points="496.557,-17.5558 486.145,-19.5164 495.507,-24.4766 496.557,-17.5558"/>
</g>
<!-- Node6 -->
<g id="node6" class="node"><title>Node6</title>
<polygon fill="white" stroke="#bfbfbf" points="512.5,-0.5 512.5,-19.5 637.5,-19.5 637.5,-0.5 512.5,-0.5"/>
<text text-anchor="middle" x="575" y="-7.5" font-family="Helvetica,sans-Serif" font-size="10.00">QtWidgets/QHeaderView</text>
</g>
<!-- Node1&#45;&gt;Node6 -->
<g id="edge5" class="edge"><title>Node1&#45;&gt;Node6</title>
<path fill="none" stroke="midnightblue" d="M752.566,-56.4435C716.144,-47.1221 657.77,-32.1828 617.971,-21.9972"/>
<polygon fill="midnightblue" stroke="midnightblue" points="618.833,-18.6051 608.277,-19.5164 617.097,-25.3866 618.833,-18.6051"/>
</g>
<!-- Node7 -->
<g id="node7" class="node"><title>Node7</title>
<polygon fill="white" stroke="#bfbfbf" points="655.5,-0.5 655.5,-19.5 784.5,-19.5 784.5,-0.5 655.5,-0.5"/>
<text text-anchor="middle" x="720" y="-7.5" font-family="Helvetica,sans-Serif" font-size="10.00">QtWidgets/QMainWindow</text>
</g>
<!-- Node1&#45;&gt;Node7 -->
<g id="edge6" class="edge"><title>Node1&#45;&gt;Node7</title>
<path fill="none" stroke="midnightblue" d="M775.396,-56.324C765.544,-48.2631 750.649,-36.0765 738.785,-26.3695"/>
<polygon fill="midnightblue" stroke="midnightblue" points="740.753,-23.4575 730.797,-19.8339 736.32,-28.8752 740.753,-23.4575"/>
</g>
<!-- Node8 -->
<g id="node8" class="node"><title>Node8</title>
<polygon fill="white" stroke="#bfbfbf" points="803,-0.5 803,-19.5 901,-19.5 901,-0.5 803,-0.5"/>
<text text-anchor="middle" x="852" y="-7.5" font-family="Helvetica,sans-Serif" font-size="10.00">QtWidgets/QMenu</text>
</g>
<!-- Node1&#45;&gt;Node8 -->
<g id="edge7" class="edge"><title>Node1&#45;&gt;Node8</title>
<path fill="none" stroke="midnightblue" d="M796.604,-56.324C806.456,-48.2631 821.351,-36.0765 833.215,-26.3695"/>
<polygon fill="midnightblue" stroke="midnightblue" points="835.68,-28.8752 841.203,-19.8339 831.247,-23.4575 835.68,-28.8752"/>
</g>
<!-- Node9 -->
<g id="node9" class="node"><title>Node9</title>
<polygon fill="white" stroke="#bfbfbf" points="919.5,-0.5 919.5,-19.5 1032.5,-19.5 1032.5,-0.5 919.5,-0.5"/>
<text text-anchor="middle" x="976" y="-7.5" font-family="Helvetica,sans-Serif" font-size="10.00">QtWidgets/QMenuBar</text>
</g>
<!-- Node1&#45;&gt;Node9 -->
<g id="edge8" class="edge"><title>Node1&#45;&gt;Node9</title>
<path fill="none" stroke="midnightblue" d="M816.106,-56.4435C848.626,-47.2011 900.579,-32.4356 936.391,-22.2572"/>
<polygon fill="midnightblue" stroke="midnightblue" points="937.373,-25.617 946.035,-19.5164 935.459,-18.8837 937.373,-25.617"/>
</g>
<!-- Node10 -->
<g id="node10" class="node"><title>Node10</title>
<polygon fill="white" stroke="#bfbfbf" points="1050.5,-0.5 1050.5,-19.5 1175.5,-19.5 1175.5,-0.5 1050.5,-0.5"/>
<text text-anchor="middle" x="1113" y="-7.5" font-family="Helvetica,sans-Serif" font-size="10.00">QtWidgets/QPushButton</text>
</g>
<!-- Node1&#45;&gt;Node10 -->
<g id="edge9" class="edge"><title>Node1&#45;&gt;Node10</title>
<path fill="none" stroke="midnightblue" d="M837.814,-56.4435C895.815,-46.8654 989.736,-31.3556 1051.44,-21.1667"/>
<polygon fill="midnightblue" stroke="midnightblue" points="1052.13,-24.5991 1061.43,-19.5164 1050.99,-17.6926 1052.13,-24.5991"/>
</g>
<!-- Node11 -->
<g id="node11" class="node"><title>Node11</title>
<polygon fill="white" stroke="#bfbfbf" points="1193.5,-0.5 1193.5,-19.5 1310.5,-19.5 1310.5,-0.5 1193.5,-0.5"/>
<text text-anchor="middle" x="1252" y="-7.5" font-family="Helvetica,sans-Serif" font-size="10.00">QtWidgets/QStatusBar</text>
</g>
<!-- Node1&#45;&gt;Node11 -->
<g id="edge10" class="edge"><title>Node1&#45;&gt;Node11</title>
<path fill="none" stroke="midnightblue" d="M853.297,-57.7853C930.388,-49.4318 1060.77,-35.0327 1183.45,-20.046"/>
<polygon fill="midnightblue" stroke="midnightblue" points="1183.9,-23.5173 1193.4,-18.8273 1183.05,-16.5692 1183.9,-23.5173"/>
</g>
<!-- Node12 -->
<g id="node12" class="node"><title>Node12</title>
<polygon fill="white" stroke="#bfbfbf" points="1328.5,-0.5 1328.5,-19.5 1435.5,-19.5 1435.5,-0.5 1328.5,-0.5"/>
<text text-anchor="middle" x="1382" y="-7.5" font-family="Helvetica,sans-Serif" font-size="10.00">QtWidgets/QToolBar</text>
</g>
<!-- Node1&#45;&gt;Node12 -->
<g id="edge11" class="edge"><title>Node1&#45;&gt;Node12</title>
<path fill="none" stroke="midnightblue" d="M853.015,-60.5877C952.228,-53.7792 1144.27,-39.5451 1318.3,-20.0135"/>
<polygon fill="midnightblue" stroke="midnightblue" points="1318.87,-23.4714 1328.41,-18.87 1318.08,-16.5157 1318.87,-23.4714"/>
</g>
<!-- Node13 -->
<g id="node13" class="node"><title>Node13</title>
<polygon fill="white" stroke="#bfbfbf" points="1454,-0.5 1454,-19.5 1558,-19.5 1558,-0.5 1454,-0.5"/>
<text text-anchor="middle" x="1506" y="-7.5" font-family="Helvetica,sans-Serif" font-size="10.00">QtWidgets/QWidget</text>
</g>
<!-- Node1&#45;&gt;Node13 -->
<g id="edge12" class="edge"><title>Node1&#45;&gt;Node13</title>
<path fill="none" stroke="midnightblue" d="M853.401,-62.0811C972.712,-56.5372 1228.81,-42.9436 1444,-20 1444.1,-19.9892 1444.2,-19.9783 1444.3,-19.9674"/>
<polygon fill="midnightblue" stroke="midnightblue" points="1444.41,-23.4787 1453.94,-18.8493 1443.6,-16.5253 1444.41,-23.4787"/>
</g>
</g>
</svg>
