<?xml version="1.0" encoding="UTF-8" standalone="no"?>
<!DOCTYPE svg PUBLIC "-//W3C//DTD SVG 1.1//EN"
 "http://www.w3.org/Graphics/SVG/1.1/DTD/svg11.dtd">
<!-- Generated by graphviz version 2.30.1 (20130214.1330)
 -->
<!-- Title: GUI/Gui&#45;RoombaV1.0/displaylogs.cpp Pages: 1 -->
<svg width="1858pt" height="432pt"
 viewBox="0.00 0.00 1858.00 432.00" xmlns="http://www.w3.org/2000/svg" xmlns:xlink="http://www.w3.org/1999/xlink">
<g id="graph0" class="graph" transform="scale(1 1) rotate(0) translate(4 428)">
<title>GUI/Gui&#45;RoombaV1.0/displaylogs.cpp</title>
<polygon fill="white" stroke="white" points="-4,5 -4,-428 1855,-428 1855,5 -4,5"/>
<!-- Node1 -->
<g id="node1" class="node"><title>Node1</title>
<polygon fill="#bfbfbf" stroke="black" points="1623,-393 1623,-423 1733,-423 1733,-393 1623,-393"/>
<text text-anchor="start" x="1631" y="-411" font-family="Helvetica,sans-Serif" font-size="10.00">GUI/Gui&#45;RoombaV1.0</text>
<text text-anchor="middle" x="1678" y="-400" font-family="Helvetica,sans-Serif" font-size="10.00">/displaylogs.cpp</text>
</g>
<!-- Node2 -->
<g id="node2" class="node"><title>Node2</title>
<g id="a_node2"><a xlink:href="../../d7/d82/displaylogs_8h.xhtml" target="_top" xlink:title="displaylogs.h">
<polygon fill="white" stroke="black" points="1384,-224.5 1384,-243.5 1458,-243.5 1458,-224.5 1384,-224.5"/>
<text text-anchor="middle" x="1421" y="-231.5" font-family="Helvetica,sans-Serif" font-size="10.00">displaylogs.h</text>
</a>
</g>
</g>
<!-- Node1&#45;&gt;Node2 -->
<g id="edge1" class="edge"><title>Node1&#45;&gt;Node2</title>
<path fill="none" stroke="midnightblue" d="M1687.45,-392.967C1696.44,-377.692 1706.96,-353.156 1695,-336 1643.64,-262.33 1532.17,-242.253 1468.36,-236.875"/>
<polygon fill="midnightblue" stroke="midnightblue" points="1468.4,-233.369 1458.17,-236.107 1467.88,-240.349 1468.4,-233.369"/>
</g>
<!-- Node16 -->
<g id="node16" class="node"><title>Node16</title>
<polygon fill="white" stroke="#bfbfbf" points="1600,-336.5 1600,-355.5 1686,-355.5 1686,-336.5 1600,-336.5"/>
<text text-anchor="middle" x="1643" y="-343.5" font-family="Helvetica,sans-Serif" font-size="10.00">ui_displaylogs.h</text>
</g>
<!-- Node1&#45;&gt;Node16 -->
<g id="edge17" class="edge"><title>Node1&#45;&gt;Node16</title>
<path fill="none" stroke="midnightblue" d="M1669.71,-392.781C1664.78,-384.332 1658.49,-373.548 1653.25,-364.569"/>
<polygon fill="midnightblue" stroke="midnightblue" points="1656.15,-362.605 1648.09,-355.731 1650.11,-366.132 1656.15,-362.605"/>
</g>
<!-- Node17 -->
<g id="node17" class="node"><title>Node17</title>
<g id="a_node17"><a xlink:href="../../dd/da1/roomba_8h.xhtml" target="_top" xlink:title="roomba.h">
<polygon fill="white" stroke="black" points="551.5,-336.5 551.5,-355.5 608.5,-355.5 608.5,-336.5 551.5,-336.5"/>
<text text-anchor="middle" x="580" y="-343.5" font-family="Helvetica,sans-Serif" font-size="10.00">roomba.h</text>
</a>
</g>
</g>
<!-- Node1&#45;&gt;Node17 -->
<g id="edge18" class="edge"><title>Node1&#45;&gt;Node17</title>
<path fill="none" stroke="midnightblue" d="M1622.8,-403.983C1429.18,-393.403 783.764,-358.135 618.706,-349.115"/>
<polygon fill="midnightblue" stroke="midnightblue" points="618.714,-345.61 608.538,-348.559 618.332,-352.6 618.714,-345.61"/>
</g>
<!-- Node34 -->
<g id="node34" class="node"><title>Node34</title>
<polygon fill="white" stroke="#bfbfbf" points="1742,-336.5 1742,-355.5 1850,-355.5 1850,-336.5 1742,-336.5"/>
<text text-anchor="middle" x="1796" y="-343.5" font-family="Helvetica,sans-Serif" font-size="10.00">QStandardItemModel</text>
</g>
<!-- Node1&#45;&gt;Node34 -->
<g id="edge75" class="edge"><title>Node1&#45;&gt;Node34</title>
<path fill="none" stroke="midnightblue" d="M1705.67,-392.933C1725.13,-383.036 1751,-369.88 1770.07,-360.185"/>
<polygon fill="midnightblue" stroke="midnightblue" points="1771.76,-363.252 1779.09,-355.6 1768.59,-357.013 1771.76,-363.252"/>
</g>
<!-- Node3 -->
<g id="node3" class="node"><title>Node3</title>
<polygon fill="white" stroke="#bfbfbf" points="1440.5,-168.5 1440.5,-187.5 1495.5,-187.5 1495.5,-168.5 1440.5,-168.5"/>
<text text-anchor="middle" x="1468" y="-175.5" font-family="Helvetica,sans-Serif" font-size="10.00">QWidget</text>
</g>
<!-- Node2&#45;&gt;Node3 -->
<g id="edge2" class="edge"><title>Node2&#45;&gt;Node3</title>
<path fill="none" stroke="midnightblue" d="M1428.76,-224.083C1435.54,-216.298 1445.54,-204.801 1453.76,-195.367"/>
<polygon fill="midnightblue" stroke="midnightblue" points="1456.46,-197.592 1460.38,-187.751 1451.18,-192.996 1456.46,-197.592"/>
</g>
<!-- Node4 -->
<g id="node4" class="node"><title>Node4</title>
<g id="a_node4"><a xlink:href="../../da/d69/loggingdata_8h.xhtml" target="_top" xlink:title="loggingdata.h">
<polygon fill="white" stroke="black" points="1272,-168.5 1272,-187.5 1346,-187.5 1346,-168.5 1272,-168.5"/>
<text text-anchor="middle" x="1309" y="-175.5" font-family="Helvetica,sans-Serif" font-size="10.00">loggingdata.h</text>
</a>
</g>
</g>
<!-- Node2&#45;&gt;Node4 -->
<g id="edge3" class="edge"><title>Node2&#45;&gt;Node4</title>
<path fill="none" stroke="midnightblue" d="M1403.01,-224.324C1384.96,-215.625 1356.95,-202.12 1336.2,-192.113"/>
<polygon fill="midnightblue" stroke="midnightblue" points="1337.48,-188.845 1326.95,-187.655 1334.44,-195.15 1337.48,-188.845"/>
</g>
<!-- Node5 -->
<g id="node5" class="node"><title>Node5</title>
<g id="a_node5"><a xlink:href="../../db/d97/clsevent_8h.xhtml" target="_top" xlink:title="../resources/clsevent.h">
<polygon fill="white" stroke="black" points="907.5,-112.5 907.5,-131.5 1022.5,-131.5 1022.5,-112.5 907.5,-112.5"/>
<text text-anchor="middle" x="965" y="-119.5" font-family="Helvetica,sans-Serif" font-size="10.00">../resources/clsevent.h</text>
</a>
</g>
</g>
<!-- Node4&#45;&gt;Node5 -->
<g id="edge4" class="edge"><title>Node4&#45;&gt;Node5</title>
<path fill="none" stroke="midnightblue" d="M1271.82,-169.743C1268.5,-169.137 1265.19,-168.547 1262,-168 1183.53,-154.547 1093.02,-141.136 1032.75,-132.501"/>
<polygon fill="midnightblue" stroke="midnightblue" points="1032.99,-129 1022.6,-131.051 1032,-135.93 1032.99,-129"/>
</g>
<!-- Node8 -->
<g id="node8" class="node"><title>Node8</title>
<polygon fill="white" stroke="#bfbfbf" points="832.5,-56.5 832.5,-75.5 887.5,-75.5 887.5,-56.5 832.5,-56.5"/>
<text text-anchor="middle" x="860" y="-63.5" font-family="Helvetica,sans-Serif" font-size="10.00">QVariant</text>
</g>
<!-- Node4&#45;&gt;Node8 -->
<g id="edge15" class="edge"><title>Node4&#45;&gt;Node8</title>
<path fill="none" stroke="midnightblue" d="M1271.85,-169.564C1268.53,-168.997 1265.21,-168.465 1262,-168 1181.56,-156.344 966.425,-175.875 898,-132 881.353,-121.326 871.111,-100.569 865.517,-85.3727"/>
<polygon fill="midnightblue" stroke="midnightblue" points="868.716,-83.8999 862.24,-75.5144 862.073,-86.1079 868.716,-83.8999"/>
</g>
<!-- Node15 -->
<g id="node15" class="node"><title>Node15</title>
<polygon fill="white" stroke="#bfbfbf" points="386.5,-112.5 386.5,-131.5 439.5,-131.5 439.5,-112.5 386.5,-112.5"/>
<text text-anchor="middle" x="413" y="-119.5" font-family="Helvetica,sans-Serif" font-size="10.00">QVector</text>
</g>
<!-- Node4&#45;&gt;Node15 -->
<g id="edge16" class="edge"><title>Node4&#45;&gt;Node15</title>
<path fill="none" stroke="midnightblue" d="M1271.87,-169.407C1268.54,-168.872 1265.22,-168.391 1262,-168 949.41,-129.967 568.2,-124.072 449.83,-123.164"/>
<polygon fill="midnightblue" stroke="midnightblue" points="449.546,-119.662 439.522,-123.093 449.498,-126.662 449.546,-119.662"/>
</g>
<!-- Node6 -->
<g id="node6" class="node"><title>Node6</title>
<polygon fill="white" stroke="#bfbfbf" points="348.5,-56.5 348.5,-75.5 401.5,-75.5 401.5,-56.5 348.5,-56.5"/>
<text text-anchor="middle" x="375" y="-63.5" font-family="Helvetica,sans-Serif" font-size="10.00">QObject</text>
</g>
<!-- Node5&#45;&gt;Node6 -->
<g id="edge5" class="edge"><title>Node5&#45;&gt;Node6</title>
<path fill="none" stroke="midnightblue" d="M907.354,-115.724C786.915,-104.701 511.526,-79.4956 411.862,-70.3738"/>
<polygon fill="midnightblue" stroke="midnightblue" points="411.961,-66.8683 401.684,-69.4422 411.323,-73.8392 411.961,-66.8683"/>
</g>
<!-- Node7 -->
<g id="node7" class="node"><title>Node7</title>
<polygon fill="white" stroke="#bfbfbf" points="1076,-56.5 1076,-75.5 1126,-75.5 1126,-56.5 1076,-56.5"/>
<text text-anchor="middle" x="1101" y="-63.5" font-family="Helvetica,sans-Serif" font-size="10.00">QString</text>
</g>
<!-- Node5&#45;&gt;Node7 -->
<g id="edge6" class="edge"><title>Node5&#45;&gt;Node7</title>
<path fill="none" stroke="midnightblue" d="M986.55,-112.444C1009.03,-103.517 1044.49,-89.4387 1069.98,-79.3168"/>
<polygon fill="midnightblue" stroke="midnightblue" points="1071.55,-82.4598 1079.55,-75.5164 1068.97,-75.9539 1071.55,-82.4598"/>
</g>
<!-- Node5&#45;&gt;Node8 -->
<g id="edge7" class="edge"><title>Node5&#45;&gt;Node8</title>
<path fill="none" stroke="midnightblue" d="M948.13,-112.324C931.291,-103.664 905.193,-90.2424 885.762,-80.249"/>
<polygon fill="midnightblue" stroke="midnightblue" points="887.322,-77.1155 876.828,-75.6545 884.12,-83.3405 887.322,-77.1155"/>
</g>
<!-- Node9 -->
<g id="node9" class="node"><title>Node9</title>
<polygon fill="white" stroke="#bfbfbf" points="890.5,-0.5 890.5,-19.5 955.5,-19.5 955.5,-0.5 890.5,-0.5"/>
<text text-anchor="middle" x="923" y="-7.5" font-family="Helvetica,sans-Serif" font-size="10.00">QDateTime</text>
</g>
<!-- Node5&#45;&gt;Node9 -->
<g id="edge8" class="edge"><title>Node5&#45;&gt;Node9</title>
<path fill="none" stroke="midnightblue" d="M961.704,-112.368C954.865,-94.4563 939.007,-52.9233 929.853,-28.9482"/>
<polygon fill="midnightblue" stroke="midnightblue" points="933.117,-27.6851 926.28,-19.5914 926.578,-30.1821 933.117,-27.6851"/>
</g>
<!-- Node10 -->
<g id="node10" class="node"><title>Node10</title>
<g id="a_node10"><a xlink:href="../../d7/d62/clslog_8h.xhtml" target="_top" xlink:title="clslog.h">
<polygon fill="white" stroke="black" points="970,-56.5 970,-75.5 1020,-75.5 1020,-56.5 970,-56.5"/>
<text text-anchor="middle" x="995" y="-63.5" font-family="Helvetica,sans-Serif" font-size="10.00">clslog.h</text>
</a>
</g>
</g>
<!-- Node5&#45;&gt;Node10 -->
<g id="edge9" class="edge"><title>Node5&#45;&gt;Node10</title>
<path fill="none" stroke="midnightblue" d="M969.954,-112.083C974.104,-104.613 980.153,-93.7244 985.267,-84.5199"/>
<polygon fill="midnightblue" stroke="midnightblue" points="988.341,-86.1924 990.138,-75.7511 982.222,-82.7929 988.341,-86.1924"/>
</g>
<!-- Node11 -->
<g id="node11" class="node"><title>Node11</title>
<polygon fill="white" stroke="#bfbfbf" points="294,-0.5 294,-19.5 346,-19.5 346,-0.5 294,-0.5"/>
<text text-anchor="middle" x="320" y="-7.5" font-family="Helvetica,sans-Serif" font-size="10.00">QDebug</text>
</g>
<!-- Node10&#45;&gt;Node11 -->
<g id="edge10" class="edge"><title>Node10&#45;&gt;Node11</title>
<path fill="none" stroke="midnightblue" d="M969.78,-62.6183C949.777,-60.7509 921.108,-58.1219 896,-56 691.939,-38.7541 447.003,-20.3942 356.182,-13.6664"/>
<polygon fill="midnightblue" stroke="midnightblue" points="356.362,-10.1702 346.131,-12.9227 355.845,-17.1511 356.362,-10.1702"/>
</g>
<!-- Node10&#45;&gt;Node9 -->
<g id="edge11" class="edge"><title>Node10&#45;&gt;Node9</title>
<path fill="none" stroke="midnightblue" d="M983.432,-56.324C972.58,-48.1849 956.119,-35.8395 943.117,-26.0874"/>
<polygon fill="midnightblue" stroke="midnightblue" points="944.879,-23.0339 934.779,-19.8339 940.679,-28.6339 944.879,-23.0339"/>
</g>
<!-- Node12 -->
<g id="node12" class="node"><title>Node12</title>
<polygon fill="white" stroke="#bfbfbf" points="1056.5,-0.5 1056.5,-19.5 1097.5,-19.5 1097.5,-0.5 1056.5,-0.5"/>
<text text-anchor="middle" x="1077" y="-7.5" font-family="Helvetica,sans-Serif" font-size="10.00">string</text>
</g>
<!-- Node10&#45;&gt;Node12 -->
<g id="edge12" class="edge"><title>Node10&#45;&gt;Node12</title>
<path fill="none" stroke="midnightblue" d="M1008.17,-56.324C1020.85,-47.979 1040.23,-35.2122 1055.21,-25.3524"/>
<polygon fill="midnightblue" stroke="midnightblue" points="1057.43,-28.0776 1063.86,-19.6545 1053.58,-22.2313 1057.43,-28.0776"/>
</g>
<!-- Node13 -->
<g id="node13" class="node"><title>Node13</title>
<polygon fill="white" stroke="#bfbfbf" points="597,-0.5 597,-19.5 651,-19.5 651,-0.5 597,-0.5"/>
<text text-anchor="middle" x="624" y="-7.5" font-family="Helvetica,sans-Serif" font-size="10.00">iostream</text>
</g>
<!-- Node10&#45;&gt;Node13 -->
<g id="edge13" class="edge"><title>Node10&#45;&gt;Node13</title>
<path fill="none" stroke="midnightblue" d="M969.791,-61.3308C905.772,-52.0127 736.664,-27.3986 661.235,-16.4197"/>
<polygon fill="midnightblue" stroke="midnightblue" points="661.634,-12.9409 651.234,-14.964 660.626,-19.8679 661.634,-12.9409"/>
</g>
<!-- Node14 -->
<g id="node14" class="node"><title>Node14</title>
<polygon fill="white" stroke="#bfbfbf" points="973.5,-0.5 973.5,-19.5 1038.5,-19.5 1038.5,-0.5 973.5,-0.5"/>
<text text-anchor="middle" x="1006" y="-7.5" font-family="Helvetica,sans-Serif" font-size="10.00">QStringList</text>
</g>
<!-- Node10&#45;&gt;Node14 -->
<g id="edge14" class="edge"><title>Node10&#45;&gt;Node14</title>
<path fill="none" stroke="midnightblue" d="M996.816,-56.083C998.274,-48.9272 1000.37,-38.6353 1002.19,-29.6911"/>
<polygon fill="midnightblue" stroke="midnightblue" points="1005.65,-30.2485 1004.22,-19.7511 998.792,-28.8512 1005.65,-30.2485"/>
</g>
<!-- Node17&#45;&gt;Node7 -->
<g id="edge19" class="edge"><title>Node17&#45;&gt;Node7</title>
<path fill="none" stroke="midnightblue" d="M608.573,-345.109C777.483,-345.39 1638,-341.59 1638,-235 1638,-235 1638,-235 1638,-177 1638,-74.2306 1255.77,-66.5726 1136.26,-66.6897"/>
<polygon fill="midnightblue" stroke="midnightblue" points="1136.17,-63.1898 1126.18,-66.7191 1136.19,-70.1898 1136.17,-63.1898"/>
</g>
<!-- Node17&#45;&gt;Node11 -->
<g id="edge20" class="edge"><title>Node17&#45;&gt;Node11</title>
<path fill="none" stroke="midnightblue" d="M551.229,-343.949C446.876,-339.948 92.0991,-324.641 48,-300 16.6501,-282.483 0,-270.912 0,-235 0,-235 0,-235 0,-121 0,-61.5647 199.921,-27.3635 283.722,-15.638"/>
<polygon fill="midnightblue" stroke="midnightblue" points="284.38,-19.0807 293.813,-14.2566 283.431,-12.1454 284.38,-19.0807"/>
</g>
<!-- Node18 -->
<g id="node18" class="node"><title>Node18</title>
<polygon fill="white" stroke="#bfbfbf" points="1117.5,-168.5 1117.5,-187.5 1164.5,-187.5 1164.5,-168.5 1117.5,-168.5"/>
<text text-anchor="middle" x="1141" y="-175.5" font-family="Helvetica,sans-Serif" font-size="10.00">QtCore</text>
</g>
<!-- Node17&#45;&gt;Node18 -->
<g id="edge21" class="edge"><title>Node17&#45;&gt;Node18</title>
<path fill="none" stroke="midnightblue" d="M608.591,-336.54C703.25,-308.53 1006.17,-218.896 1107.57,-188.892"/>
<polygon fill="midnightblue" stroke="midnightblue" points="1108.69,-192.21 1117.29,-186.016 1106.71,-185.498 1108.69,-192.21"/>
</g>
<!-- Node19 -->
<g id="node19" class="node"><title>Node19</title>
<polygon fill="white" stroke="#bfbfbf" points="104,-280.5 104,-299.5 146,-299.5 146,-280.5 104,-280.5"/>
<text text-anchor="middle" x="125" y="-287.5" font-family="Helvetica,sans-Serif" font-size="10.00">vector</text>
</g>
<!-- Node17&#45;&gt;Node19 -->
<g id="edge22" class="edge"><title>Node17&#45;&gt;Node19</title>
<path fill="none" stroke="midnightblue" d="M551.278,-343.363C482.994,-339.158 305.762,-326.406 160,-300 158.75,-299.774 157.478,-299.527 156.197,-299.264"/>
<polygon fill="midnightblue" stroke="midnightblue" points="156.891,-295.832 146.363,-297.017 155.332,-302.656 156.891,-295.832"/>
</g>
<!-- Node17&#45;&gt;Node15 -->
<g id="edge23" class="edge"><title>Node17&#45;&gt;Node15</title>
<path fill="none" stroke="midnightblue" d="M551.397,-344.789C503.693,-343.376 405.935,-335.9 333,-300 266.371,-267.204 239.153,-255.867 209,-188 205.391,-179.877 203.433,-174.929 209,-168 229.604,-142.356 323.444,-130.459 376.381,-125.704"/>
<polygon fill="midnightblue" stroke="midnightblue" points="376.725,-129.187 386.389,-124.846 376.127,-122.213 376.725,-129.187"/>
</g>
<!-- Node20 -->
<g id="node20" class="node"><title>Node20</title>
<polygon fill="white" stroke="#bfbfbf" points="218,-112.5 218,-131.5 292,-131.5 292,-112.5 218,-112.5"/>
<text text-anchor="middle" x="255" y="-119.5" font-family="Helvetica,sans-Serif" font-size="10.00">QVariantMap</text>
</g>
<!-- Node17&#45;&gt;Node20 -->
<g id="edge24" class="edge"><title>Node17&#45;&gt;Node20</title>
<path fill="none" stroke="midnightblue" d="M551.34,-345.657C497.532,-345.816 378.814,-341.006 290,-300 232.526,-273.463 214.257,-250.107 202,-188 200.279,-179.279 198.267,-176.067 202,-168 207.92,-155.207 219.468,-144.722 230.278,-137.1"/>
<polygon fill="midnightblue" stroke="midnightblue" points="232.214,-140.016 238.666,-131.613 228.382,-134.158 232.214,-140.016"/>
</g>
<!-- Node17&#45;&gt;Node13 -->
<g id="edge25" class="edge"><title>Node17&#45;&gt;Node13</title>
<path fill="none" stroke="midnightblue" d="M551.274,-343.963C450.395,-340.113 116.241,-325.533 76,-300 47.7445,-282.072 38,-268.463 38,-235 38,-235 38,-235 38,-121 38,-64.9324 457.732,-24.9784 586.736,-14.0226"/>
<polygon fill="midnightblue" stroke="midnightblue" points="587.239,-17.4927 596.911,-13.1676 586.653,-10.5173 587.239,-17.4927"/>
</g>
<!-- Node21 -->
<g id="node21" class="node"><title>Node21</title>
<polygon fill="white" stroke="#bfbfbf" points="365,-280.5 365,-299.5 445,-299.5 445,-280.5 365,-280.5"/>
<text text-anchor="middle" x="405" y="-287.5" font-family="Helvetica,sans-Serif" font-size="10.00">QMainWindow</text>
</g>
<!-- Node17&#45;&gt;Node21 -->
<g id="edge26" class="edge"><title>Node17&#45;&gt;Node21</title>
<path fill="none" stroke="midnightblue" d="M552.271,-336.444C522.574,-327.28 475.284,-312.688 442.331,-302.519"/>
<polygon fill="midnightblue" stroke="midnightblue" points="443.187,-299.121 432.6,-299.516 441.123,-305.809 443.187,-299.121"/>
</g>
<!-- Node17&#45;&gt;Node6 -->
<g id="edge27" class="edge"><title>Node17&#45;&gt;Node6</title>
<path fill="none" stroke="midnightblue" d="M551.446,-344.196C452.777,-341.169 130.315,-329.115 95,-300 71.777,-280.854 76,-265.098 76,-235 76,-235 76,-235 76,-177 76,-121.683 258.531,-85.6557 338.36,-72.5441"/>
<polygon fill="midnightblue" stroke="midnightblue" points="339.149,-75.9622 348.466,-70.917 338.036,-69.0512 339.149,-75.9622"/>
</g>
<!-- Node22 -->
<g id="node22" class="node"><title>Node22</title>
<g id="a_node22"><a xlink:href="../../d4/dca/_roomba_connect_8h.xhtml" target="_top" xlink:title="RoombaConnect.h">
<polygon fill="white" stroke="black" points="766.5,-224.5 766.5,-243.5 863.5,-243.5 863.5,-224.5 766.5,-224.5"/>
<text text-anchor="middle" x="815" y="-231.5" font-family="Helvetica,sans-Serif" font-size="10.00">RoombaConnect.h</text>
</a>
</g>
</g>
<!-- Node17&#45;&gt;Node22 -->
<g id="edge28" class="edge"><title>Node17&#45;&gt;Node22</title>
<path fill="none" stroke="midnightblue" d="M598.44,-336.368C639.538,-317.131 738.843,-270.648 787.374,-247.931"/>
<polygon fill="midnightblue" stroke="midnightblue" points="789.073,-251.001 796.646,-243.591 786.105,-244.661 789.073,-251.001"/>
</g>
<!-- Node32 -->
<g id="node32" class="node"><title>Node32</title>
<g id="a_node32"><a xlink:href="../../da/d4b/controllingroomba_8h.xhtml" target="_top" xlink:title="controllingroomba.h">
<polygon fill="white" stroke="black" points="1191.5,-280.5 1191.5,-299.5 1292.5,-299.5 1292.5,-280.5 1191.5,-280.5"/>
<text text-anchor="middle" x="1242" y="-287.5" font-family="Helvetica,sans-Serif" font-size="10.00">controllingroomba.h</text>
</a>
</g>
</g>
<!-- Node17&#45;&gt;Node32 -->
<g id="edge56" class="edge"><title>Node17&#45;&gt;Node32</title>
<path fill="none" stroke="midnightblue" d="M608.783,-342.919C692.412,-336.832 942.597,-318.33 1150,-300 1160.07,-299.11 1170.76,-298.113 1181.15,-297.115"/>
<polygon fill="midnightblue" stroke="midnightblue" points="1181.79,-300.57 1191.4,-296.122 1181.11,-293.603 1181.79,-300.57"/>
</g>
<!-- Node29 -->
<g id="node29" class="node"><title>Node29</title>
<g id="a_node29"><a xlink:href="../../d4/d25/sensordata_8h.xhtml" target="_top" xlink:title="sensordata.h">
<polygon fill="white" stroke="black" points="452.5,-168.5 452.5,-187.5 525.5,-187.5 525.5,-168.5 452.5,-168.5"/>
<text text-anchor="middle" x="489" y="-175.5" font-family="Helvetica,sans-Serif" font-size="10.00">sensordata.h</text>
</a>
</g>
</g>
<!-- Node17&#45;&gt;Node29 -->
<g id="edge69" class="edge"><title>Node17&#45;&gt;Node29</title>
<path fill="none" stroke="midnightblue" d="M575.107,-336.075C560.659,-309.719 517.987,-231.878 498.681,-196.661"/>
<polygon fill="midnightblue" stroke="midnightblue" points="501.573,-194.654 493.697,-187.568 495.435,-198.019 501.573,-194.654"/>
</g>
<!-- Node27 -->
<g id="node27" class="node"><title>Node27</title>
<g id="a_node27"><a xlink:href="../../dc/d96/jsoncommand_8h.xhtml" target="_top" xlink:title="../resources/jsoncommand.h">
<polygon fill="white" stroke="black" points="218,-168.5 218,-187.5 358,-187.5 358,-168.5 218,-168.5"/>
<text text-anchor="middle" x="288" y="-175.5" font-family="Helvetica,sans-Serif" font-size="10.00">../resources/jsoncommand.h</text>
</a>
</g>
</g>
<!-- Node17&#45;&gt;Node27 -->
<g id="edge70" class="edge"><title>Node17&#45;&gt;Node27</title>
<path fill="none" stroke="midnightblue" d="M551.191,-342.211C497.978,-336.58 386.882,-322.447 356,-300 320.709,-274.348 301.323,-224.457 292.998,-197.444"/>
<polygon fill="midnightblue" stroke="midnightblue" points="296.32,-196.334 290.174,-187.704 289.597,-198.283 296.32,-196.334"/>
</g>
<!-- Node28 -->
<g id="node28" class="node"><title>Node28</title>
<g id="a_node28"><a xlink:href="../../d4/d05/json_8h.xhtml" target="_top" xlink:title="json.h">
<polygon fill="white" stroke="black" points="1079.5,-112.5 1079.5,-131.5 1122.5,-131.5 1122.5,-112.5 1079.5,-112.5"/>
<text text-anchor="middle" x="1101" y="-119.5" font-family="Helvetica,sans-Serif" font-size="10.00">json.h</text>
</a>
</g>
</g>
<!-- Node17&#45;&gt;Node28 -->
<g id="edge71" class="edge"><title>Node17&#45;&gt;Node28</title>
<path fill="none" stroke="midnightblue" d="M608.551,-344.762C733.155,-343.513 1229.83,-336.308 1381,-300 1440.98,-285.594 1467.47,-290.503 1508,-244 1530.68,-217.979 1547.08,-193.667 1524,-168 1497.91,-138.984 1226.57,-127.207 1132.73,-123.981"/>
<polygon fill="midnightblue" stroke="midnightblue" points="1132.8,-120.482 1122.69,-123.646 1132.57,-127.478 1132.8,-120.482"/>
</g>
<!-- Node17&#45;&gt;Node10 -->
<g id="edge72" class="edge"><title>Node17&#45;&gt;Node10</title>
<path fill="none" stroke="midnightblue" d="M608.685,-344.903C775.526,-344.199 1614.85,-338.738 1652,-300 1704.74,-245.005 1804.08,-329.843 1544,-168 1360.69,-53.9283 1281.32,-102.168 1067,-76 1055.13,-74.5505 1042.16,-72.9383 1030.54,-71.4835"/>
<polygon fill="midnightblue" stroke="midnightblue" points="1030.68,-67.9733 1020.32,-70.2008 1029.81,-74.9188 1030.68,-67.9733"/>
</g>
<!-- Node17&#45;&gt;Node5 -->
<g id="edge73" class="edge"><title>Node17&#45;&gt;Node5</title>
<path fill="none" stroke="midnightblue" d="M608.702,-344.102C725.39,-340.315 1164.47,-324.687 1301,-300 1385.12,-284.79 1423.61,-303.48 1485,-244 1510.01,-219.773 1527.58,-193.617 1504,-168 1471.23,-132.398 1118.22,-136.066 1070,-132 1058.04,-130.991 1045.31,-129.908 1032.99,-128.855"/>
<polygon fill="midnightblue" stroke="midnightblue" points="1033.03,-125.346 1022.76,-127.98 1032.43,-132.32 1033.03,-125.346"/>
</g>
<!-- Node17&#45;&gt;Node4 -->
<g id="edge74" class="edge"><title>Node17&#45;&gt;Node4</title>
<path fill="none" stroke="midnightblue" d="M608.578,-338.493C719.652,-313.2 1123.34,-221.276 1261.92,-189.72"/>
<polygon fill="midnightblue" stroke="midnightblue" points="1262.84,-193.1 1271.82,-187.467 1261.29,-186.274 1262.84,-193.1"/>
</g>
<!-- Node22&#45;&gt;Node11 -->
<g id="edge29" class="edge"><title>Node22&#45;&gt;Node11</title>
<path fill="none" stroke="midnightblue" d="M766.369,-229.064C670.193,-221.02 462.407,-202.254 433,-188 374.521,-159.655 366.697,-134.788 339,-76 331.953,-61.0436 326.915,-42.9051 323.805,-29.5936"/>
<polygon fill="midnightblue" stroke="midnightblue" points="327.202,-28.7433 321.645,-19.723 320.364,-30.2402 327.202,-28.7433"/>
</g>
<!-- Node22&#45;&gt;Node18 -->
<g id="edge30" class="edge"><title>Node22&#45;&gt;Node18</title>
<path fill="none" stroke="midnightblue" d="M863.61,-226.577C921.029,-218.72 1019.32,-204.421 1103,-188 1104.46,-187.714 1105.94,-187.412 1107.44,-187.097"/>
<polygon fill="midnightblue" stroke="midnightblue" points="1108.34,-190.483 1117.34,-184.902 1106.82,-183.648 1108.34,-190.483"/>
</g>
<!-- Node22&#45;&gt;Node6 -->
<g id="edge31" class="edge"><title>Node22&#45;&gt;Node6</title>
<path fill="none" stroke="midnightblue" d="M766.149,-228.808C667.644,-220.123 453.612,-199.973 443,-188 420.547,-162.667 464.501,-141.556 448,-112 439.844,-97.3909 424.78,-86.9362 410.446,-79.8038"/>
<polygon fill="midnightblue" stroke="midnightblue" points="411.762,-76.557 401.211,-75.5863 408.854,-82.9244 411.762,-76.557"/>
</g>
<!-- Node23 -->
<g id="node23" class="node"><title>Node23</title>
<polygon fill="white" stroke="#bfbfbf" points="1182.5,-168.5 1182.5,-187.5 1253.5,-187.5 1253.5,-168.5 1182.5,-168.5"/>
<text text-anchor="middle" x="1218" y="-175.5" font-family="Helvetica,sans-Serif" font-size="10.00">QTcpSocket</text>
</g>
<!-- Node22&#45;&gt;Node23 -->
<g id="edge32" class="edge"><title>Node22&#45;&gt;Node23</title>
<path fill="none" stroke="midnightblue" d="M863.51,-228.029C930.537,-220.912 1055.46,-206.755 1172.01,-188.053"/>
<polygon fill="midnightblue" stroke="midnightblue" points="1172.87,-191.46 1182.18,-186.407 1171.75,-184.55 1172.87,-191.46"/>
</g>
<!-- Node24 -->
<g id="node24" class="node"><title>Node24</title>
<polygon fill="white" stroke="#bfbfbf" points="673,-168.5 673,-187.5 747,-187.5 747,-168.5 673,-168.5"/>
<text text-anchor="middle" x="710" y="-175.5" font-family="Helvetica,sans-Serif" font-size="10.00">QTextStream</text>
</g>
<!-- Node22&#45;&gt;Node24 -->
<g id="edge33" class="edge"><title>Node22&#45;&gt;Node24</title>
<path fill="none" stroke="midnightblue" d="M798.13,-224.324C781.291,-215.664 755.193,-202.242 735.762,-192.249"/>
<polygon fill="midnightblue" stroke="midnightblue" points="737.322,-189.116 726.828,-187.655 734.12,-195.341 737.322,-189.116"/>
</g>
<!-- Node25 -->
<g id="node25" class="node"><title>Node25</title>
<polygon fill="white" stroke="#bfbfbf" points="543.5,-168.5 543.5,-187.5 588.5,-187.5 588.5,-168.5 543.5,-168.5"/>
<text text-anchor="middle" x="566" y="-175.5" font-family="Helvetica,sans-Serif" font-size="10.00">QTime</text>
</g>
<!-- Node22&#45;&gt;Node25 -->
<g id="edge34" class="edge"><title>Node22&#45;&gt;Node25</title>
<path fill="none" stroke="midnightblue" d="M769.071,-224.44C727.157,-216.412 663.298,-203.642 598.636,-188.017"/>
<polygon fill="midnightblue" stroke="midnightblue" points="599.219,-184.556 588.674,-185.588 597.56,-191.357 599.219,-184.556"/>
</g>
<!-- Node22&#45;&gt;Node10 -->
<g id="edge35" class="edge"><title>Node22&#45;&gt;Node10</title>
<path fill="none" stroke="midnightblue" d="M863.688,-227.08C914.117,-220.042 988.505,-206.831 1010,-188 1036.36,-164.908 1042.6,-145.068 1031,-112 1027.21,-101.209 1019.63,-91.084 1012.4,-83.1808"/>
<polygon fill="midnightblue" stroke="midnightblue" points="1014.67,-80.4943 1005.16,-75.8145 1009.67,-85.4005 1014.67,-80.4943"/>
</g>
<!-- Node26 -->
<g id="node26" class="node"><title>Node26</title>
<polygon fill="white" stroke="#bfbfbf" points="607,-168.5 607,-187.5 655,-187.5 655,-168.5 607,-168.5"/>
<text text-anchor="middle" x="631" y="-175.5" font-family="Helvetica,sans-Serif" font-size="10.00">QTimer</text>
</g>
<!-- Node22&#45;&gt;Node26 -->
<g id="edge36" class="edge"><title>Node22&#45;&gt;Node26</title>
<path fill="none" stroke="midnightblue" d="M785.845,-224.444C752.919,-214.78 699.421,-199.08 664.723,-188.897"/>
<polygon fill="midnightblue" stroke="midnightblue" points="665.616,-185.511 655.035,-186.054 663.645,-192.228 665.616,-185.511"/>
</g>
<!-- Node22&#45;&gt;Node27 -->
<g id="edge37" class="edge"><title>Node22&#45;&gt;Node27</title>
<path fill="none" stroke="midnightblue" d="M766.483,-228.16C684.975,-220.009 515.396,-202.965 372,-188 370.728,-187.867 369.445,-187.733 368.154,-187.598"/>
<polygon fill="midnightblue" stroke="midnightblue" points="368.435,-184.108 358.123,-186.542 367.702,-191.07 368.435,-184.108"/>
</g>
<!-- Node22&#45;&gt;Node28 -->
<g id="edge44" class="edge"><title>Node22&#45;&gt;Node28</title>
<path fill="none" stroke="midnightblue" d="M863.74,-229.183C927.117,-223.393 1033.45,-210.598 1065,-188 1080.7,-176.757 1090.34,-156.442 1095.65,-141.506"/>
<polygon fill="midnightblue" stroke="midnightblue" points="1099.05,-142.379 1098.77,-131.788 1092.38,-140.239 1099.05,-142.379"/>
</g>
<!-- Node22&#45;&gt;Node5 -->
<g id="edge45" class="edge"><title>Node22&#45;&gt;Node5</title>
<path fill="none" stroke="midnightblue" d="M863.832,-227.373C910.897,-220.825 977.236,-208.246 993,-188 1004.38,-173.388 992.653,-153.451 981.085,-139.524"/>
<polygon fill="midnightblue" stroke="midnightblue" points="983.387,-136.848 974.11,-131.731 978.171,-141.517 983.387,-136.848"/>
</g>
<!-- Node22&#45;&gt;Node29 -->
<g id="edge46" class="edge"><title>Node22&#45;&gt;Node29</title>
<path fill="none" stroke="midnightblue" d="M766.422,-225.803C712.408,-217.671 622.322,-203.722 535.8,-188.276"/>
<polygon fill="midnightblue" stroke="midnightblue" points="536.276,-184.805 525.815,-186.483 535.039,-191.695 536.276,-184.805"/>
</g>
<!-- Node30 -->
<g id="node30" class="node"><title>Node30</title>
<g id="a_node30"><a xlink:href="../../d1/da1/brushvacuumdata_8h.xhtml" target="_top" xlink:title="brushvacuumdata.h">
<polygon fill="white" stroke="black" points="883.5,-168.5 883.5,-187.5 984.5,-187.5 984.5,-168.5 883.5,-168.5"/>
<text text-anchor="middle" x="934" y="-175.5" font-family="Helvetica,sans-Serif" font-size="10.00">brushvacuumdata.h</text>
</a>
</g>
</g>
<!-- Node22&#45;&gt;Node30 -->
<g id="edge49" class="edge"><title>Node22&#45;&gt;Node30</title>
<path fill="none" stroke="midnightblue" d="M833.856,-224.444C853.266,-215.636 883.73,-201.812 905.965,-191.722"/>
<polygon fill="midnightblue" stroke="midnightblue" points="907.572,-194.836 915.232,-187.516 904.68,-188.462 907.572,-194.836"/>
</g>
<!-- Node31 -->
<g id="node31" class="node"><title>Node31</title>
<g id="a_node31"><a xlink:href="../../de/d51/currentactiondata_8h.xhtml" target="_top" xlink:title="currentactiondata.h">
<polygon fill="white" stroke="black" points="765,-168.5 765,-187.5 865,-187.5 865,-168.5 765,-168.5"/>
<text text-anchor="middle" x="815" y="-175.5" font-family="Helvetica,sans-Serif" font-size="10.00">currentactiondata.h</text>
</a>
</g>
</g>
<!-- Node22&#45;&gt;Node31 -->
<g id="edge52" class="edge"><title>Node22&#45;&gt;Node31</title>
<path fill="none" stroke="midnightblue" d="M815,-224.083C815,-217.006 815,-206.861 815,-197.986"/>
<polygon fill="midnightblue" stroke="midnightblue" points="818.5,-197.751 815,-187.751 811.5,-197.751 818.5,-197.751"/>
</g>
<!-- Node22&#45;&gt;Node4 -->
<g id="edge55" class="edge"><title>Node22&#45;&gt;Node4</title>
<path fill="none" stroke="midnightblue" d="M863.79,-229.516C944.377,-223.449 1110.53,-209.624 1261.9,-187.874"/>
<polygon fill="midnightblue" stroke="midnightblue" points="1262.46,-191.33 1271.85,-186.429 1261.45,-184.402 1262.46,-191.33"/>
</g>
<!-- Node27&#45;&gt;Node6 -->
<g id="edge38" class="edge"><title>Node27&#45;&gt;Node6</title>
<path fill="none" stroke="midnightblue" d="M294.827,-168.368C309.248,-150.135 343.027,-107.426 361.811,-83.6752"/>
<polygon fill="midnightblue" stroke="midnightblue" points="364.747,-85.606 368.205,-75.5914 359.256,-81.2636 364.747,-85.606"/>
</g>
<!-- Node27&#45;&gt;Node20 -->
<g id="edge39" class="edge"><title>Node27&#45;&gt;Node20</title>
<path fill="none" stroke="midnightblue" d="M282.551,-168.083C277.986,-160.613 271.332,-149.724 265.707,-140.52"/>
<polygon fill="midnightblue" stroke="midnightblue" points="268.549,-138.459 260.348,-131.751 262.576,-142.109 268.549,-138.459"/>
</g>
<!-- Node27&#45;&gt;Node28 -->
<g id="edge40" class="edge"><title>Node27&#45;&gt;Node28</title>
<path fill="none" stroke="midnightblue" d="M358.167,-172.879C536.95,-162.361 997.871,-135.129 1031,-132 1043.55,-130.815 1057.31,-129.129 1069.29,-127.536"/>
<polygon fill="midnightblue" stroke="midnightblue" points="1069.85,-130.993 1079.29,-126.175 1068.9,-124.057 1069.85,-130.993"/>
</g>
<!-- Node27&#45;&gt;Node10 -->
<g id="edge43" class="edge"><title>Node27&#45;&gt;Node10</title>
<path fill="none" stroke="midnightblue" d="M342.889,-168.46C481.95,-146.824 845.191,-90.3083 959.813,-72.4747"/>
<polygon fill="midnightblue" stroke="midnightblue" points="960.464,-75.9156 969.807,-70.9198 959.387,-68.9988 960.464,-75.9156"/>
</g>
<!-- Node28&#45;&gt;Node8 -->
<g id="edge41" class="edge"><title>Node28&#45;&gt;Node8</title>
<path fill="none" stroke="midnightblue" d="M1079.19,-116.113C1038.1,-106.907 948.803,-86.8978 897.771,-75.4633"/>
<polygon fill="midnightblue" stroke="midnightblue" points="898.321,-71.9997 887.797,-73.2285 896.79,-78.8303 898.321,-71.9997"/>
</g>
<!-- Node28&#45;&gt;Node7 -->
<g id="edge42" class="edge"><title>Node28&#45;&gt;Node7</title>
<path fill="none" stroke="midnightblue" d="M1101,-112.083C1101,-105.006 1101,-94.8611 1101,-85.9865"/>
<polygon fill="midnightblue" stroke="midnightblue" points="1104.5,-85.751 1101,-75.7511 1097.5,-85.7511 1104.5,-85.751"/>
</g>
<!-- Node29&#45;&gt;Node5 -->
<g id="edge47" class="edge"><title>Node29&#45;&gt;Node5</title>
<path fill="none" stroke="midnightblue" d="M525.788,-169.352C528.561,-168.864 531.322,-168.407 534,-168 661.761,-148.598 812.11,-134.973 897.218,-128.108"/>
<polygon fill="midnightblue" stroke="midnightblue" points="897.578,-131.59 907.268,-127.304 897.02,-124.613 897.578,-131.59"/>
</g>
<!-- Node29&#45;&gt;Node8 -->
<g id="edge48" class="edge"><title>Node29&#45;&gt;Node8</title>
<path fill="none" stroke="midnightblue" d="M517.803,-168.46C584.307,-148.742 748.52,-100.053 822.639,-78.0774"/>
<polygon fill="midnightblue" stroke="midnightblue" points="823.887,-81.358 832.48,-75.1596 821.897,-74.6467 823.887,-81.358"/>
</g>
<!-- Node30&#45;&gt;Node5 -->
<g id="edge50" class="edge"><title>Node30&#45;&gt;Node5</title>
<path fill="none" stroke="midnightblue" d="M939.119,-168.083C943.408,-160.613 949.658,-149.724 954.942,-140.52"/>
<polygon fill="midnightblue" stroke="midnightblue" points="958.033,-142.166 959.976,-131.751 951.962,-138.681 958.033,-142.166"/>
</g>
<!-- Node30&#45;&gt;Node8 -->
<g id="edge51" class="edge"><title>Node30&#45;&gt;Node8</title>
<path fill="none" stroke="midnightblue" d="M910.96,-168.419C895.166,-161.238 875.278,-149.349 865,-132 856.798,-118.154 856.164,-99.6371 857.222,-85.9089"/>
<polygon fill="midnightblue" stroke="midnightblue" points="860.73,-86.0422 858.38,-75.7112 853.774,-85.2526 860.73,-86.0422"/>
</g>
<!-- Node31&#45;&gt;Node5 -->
<g id="edge53" class="edge"><title>Node31&#45;&gt;Node5</title>
<path fill="none" stroke="midnightblue" d="M838.768,-168.444C863.893,-159.399 903.711,-145.064 931.9,-134.916"/>
<polygon fill="midnightblue" stroke="midnightblue" points="933.12,-138.197 941.343,-131.516 930.749,-131.611 933.12,-138.197"/>
</g>
<!-- Node31&#45;&gt;Node8 -->
<g id="edge54" class="edge"><title>Node31&#45;&gt;Node8</title>
<path fill="none" stroke="midnightblue" d="M815.38,-168.229C816.205,-155.394 818.811,-130.963 827,-112 831.457,-101.68 838.653,-91.4705 845.189,-83.3915"/>
<polygon fill="midnightblue" stroke="midnightblue" points="848.043,-85.4389 851.863,-75.5566 842.714,-80.9 848.043,-85.4389"/>
</g>
<!-- Node32&#45;&gt;Node28 -->
<g id="edge57" class="edge"><title>Node32&#45;&gt;Node28</title>
<path fill="none" stroke="midnightblue" d="M1263.83,-280.441C1282.77,-272.479 1310.46,-259.526 1332,-244 1366.04,-219.467 1415.27,-199.883 1388,-168 1355.4,-129.892 1200.27,-123.835 1132.64,-123.029"/>
<polygon fill="midnightblue" stroke="midnightblue" points="1132.6,-119.529 1122.57,-122.941 1132.54,-126.529 1132.6,-119.529"/>
</g>
<!-- Node32&#45;&gt;Node27 -->
<g id="edge58" class="edge"><title>Node32&#45;&gt;Node27</title>
<path fill="none" stroke="midnightblue" d="M1191.3,-285.055C1102.96,-278.012 915.136,-262.285 757,-244 612.718,-227.317 444.184,-202.699 353.607,-189.047"/>
<polygon fill="midnightblue" stroke="midnightblue" points="353.898,-185.551 343.487,-187.518 352.853,-192.473 353.898,-185.551"/>
</g>
<!-- Node32&#45;&gt;Node22 -->
<g id="edge59" class="edge"><title>Node32&#45;&gt;Node22</title>
<path fill="none" stroke="midnightblue" d="M1191.34,-282.593C1111.81,-272.536 958.076,-253.094 873.795,-242.435"/>
<polygon fill="midnightblue" stroke="midnightblue" points="873.982,-238.931 863.622,-241.149 873.104,-245.876 873.982,-238.931"/>
</g>
<!-- Node32&#45;&gt;Node10 -->
<g id="edge60" class="edge"><title>Node32&#45;&gt;Node10</title>
<path fill="none" stroke="midnightblue" d="M1292.68,-285.581C1355.25,-280.369 1456.86,-268.357 1485,-244 1511.33,-221.215 1526.09,-194.909 1504,-168 1473.5,-130.859 1140.26,-85.4684 1030.11,-71.3802"/>
<polygon fill="midnightblue" stroke="midnightblue" points="1030.53,-67.905 1020.17,-70.1159 1029.64,-74.8491 1030.53,-67.905"/>
</g>
<!-- Node32&#45;&gt;Node5 -->
<g id="edge61" class="edge"><title>Node32&#45;&gt;Node5</title>
<path fill="none" stroke="midnightblue" d="M1258.24,-280.495C1284.42,-265.748 1335.01,-232.673 1355,-188 1358.63,-179.886 1360.91,-174.636 1355,-168 1349.69,-162.04 1143.16,-140.692 1032.86,-129.678"/>
<polygon fill="midnightblue" stroke="midnightblue" points="1033.12,-126.187 1022.82,-128.678 1032.43,-133.152 1033.12,-126.187"/>
</g>
<!-- Node32&#45;&gt;Node3 -->
<g id="edge62" class="edge"><title>Node32&#45;&gt;Node3</title>
<path fill="none" stroke="midnightblue" d="M1292.73,-286.068C1352.14,-281.459 1445.2,-270.173 1467,-244 1477.59,-231.284 1476.38,-211.811 1473.41,-197.493"/>
<polygon fill="midnightblue" stroke="midnightblue" points="1476.79,-196.593 1470.96,-187.746 1470,-198.297 1476.79,-196.593"/>
</g>
<!-- Node32&#45;&gt;Node23 -->
<g id="edge63" class="edge"><title>Node32&#45;&gt;Node23</title>
<path fill="none" stroke="midnightblue" d="M1240.12,-280.368C1236.24,-262.617 1227.31,-221.666 1222.06,-197.597"/>
<polygon fill="midnightblue" stroke="midnightblue" points="1225.43,-196.615 1219.87,-187.591 1218.59,-198.108 1225.43,-196.615"/>
</g>
<!-- Node33 -->
<g id="node33" class="node"><title>Node33</title>
<polygon fill="white" stroke="#bfbfbf" points="1164.5,-224.5 1164.5,-243.5 1213.5,-243.5 1213.5,-224.5 1164.5,-224.5"/>
<text text-anchor="middle" x="1189" y="-231.5" font-family="Helvetica,sans-Serif" font-size="10.00">QSlider</text>
</g>
<!-- Node32&#45;&gt;Node33 -->
<g id="edge64" class="edge"><title>Node32&#45;&gt;Node33</title>
<path fill="none" stroke="midnightblue" d="M1233.25,-280.083C1225.53,-272.22 1214.1,-260.569 1204.78,-251.081"/>
<polygon fill="midnightblue" stroke="midnightblue" points="1207.09,-248.436 1197.59,-243.751 1202.1,-253.34 1207.09,-248.436"/>
</g>
<!-- Node32&#45;&gt;Node18 -->
<g id="edge65" class="edge"><title>Node32&#45;&gt;Node18</title>
<path fill="none" stroke="midnightblue" d="M1210.99,-280.414C1192.03,-273.582 1168.84,-262.102 1155,-244 1144.92,-230.818 1141.75,-211.945 1140.9,-197.929"/>
<polygon fill="midnightblue" stroke="midnightblue" points="1144.39,-197.437 1140.64,-187.529 1137.39,-197.614 1144.39,-197.437"/>
</g>
<!-- Node32&#45;&gt;Node6 -->
<g id="edge66" class="edge"><title>Node32&#45;&gt;Node6</title>
<path fill="none" stroke="midnightblue" d="M1191.33,-288.036C992.592,-283.729 274.006,-263.034 209,-188 186.883,-162.471 188.477,-138.828 209,-112 224.62,-91.5813 294.332,-78.2715 338.301,-71.7454"/>
<polygon fill="midnightblue" stroke="midnightblue" points="338.936,-75.1903 348.338,-70.3065 337.942,-68.2611 338.936,-75.1903"/>
</g>
<!-- Node32&#45;&gt;Node4 -->
<g id="edge67" class="edge"><title>Node32&#45;&gt;Node4</title>
<path fill="none" stroke="midnightblue" d="M1247.26,-280.368C1258.27,-262.296 1283.92,-220.176 1298.46,-196.307"/>
<polygon fill="midnightblue" stroke="midnightblue" points="1301.55,-197.953 1303.77,-187.591 1295.58,-194.311 1301.55,-197.953"/>
</g>
<!-- Node32&#45;&gt;Node2 -->
<g id="edge68" class="edge"><title>Node32&#45;&gt;Node2</title>
<path fill="none" stroke="midnightblue" d="M1270.36,-280.444C1300.74,-271.28 1349.11,-256.688 1382.82,-246.519"/>
<polygon fill="midnightblue" stroke="midnightblue" points="1384.21,-249.756 1392.77,-243.516 1382.18,-243.054 1384.21,-249.756"/>
</g>
</g>
</svg>
