<?xml version="1.0" encoding="UTF-8" standalone="no"?>
<!DOCTYPE svg PUBLIC "-//W3C//DTD SVG 1.1//EN"
 "http://www.w3.org/Graphics/SVG/1.1/DTD/svg11.dtd">
<!-- Generated by graphviz version 2.30.1 (20130214.1330)
 -->
<!-- Title: GUI/Gui&#45;RoombaV1.0/displaylogs.cpp Pages: 1 -->
<svg width="1255pt" height="444pt"
 viewBox="0.00 0.00 1255.31 444.00" xmlns="http://www.w3.org/2000/svg" xmlns:xlink="http://www.w3.org/1999/xlink">
<g id="graph0" class="graph" transform="scale(1 1) rotate(0) translate(4 440)">
<title>GUI/Gui&#45;RoombaV1.0/displaylogs.cpp</title>
<polygon fill="white" stroke="white" points="-4,5 -4,-440 1252.31,-440 1252.31,5 -4,5"/>
<!-- Node1 -->
<g id="node1" class="node"><title>Node1</title>
<polygon fill="#bfbfbf" stroke="black" points="808.305,-405 808.305,-435 918.305,-435 918.305,-405 808.305,-405"/>
<text text-anchor="start" x="816.305" y="-423" font-family="Helvetica,sans-Serif" font-size="10.00">GUI/Gui&#45;RoombaV1.0</text>
<text text-anchor="middle" x="863.305" y="-412" font-family="Helvetica,sans-Serif" font-size="10.00">/displaylogs.cpp</text>
</g>
<!-- Node2 -->
<g id="node2" class="node"><title>Node2</title>
<g id="a_node2"><a xlink:href="../../d7/d82/displaylogs_8h.xhtml" target="_top" xlink:title="displaylogs.h">
<polygon fill="white" stroke="black" points="728.305,-348.5 728.305,-367.5 802.305,-367.5 802.305,-348.5 728.305,-348.5"/>
<text text-anchor="middle" x="765.305" y="-355.5" font-family="Helvetica,sans-Serif" font-size="10.00">displaylogs.h</text>
</a>
</g>
</g>
<!-- Node1&#45;&gt;Node2 -->
<g id="edge1" class="edge"><title>Node1&#45;&gt;Node2</title>
<path fill="none" stroke="midnightblue" d="M840.081,-404.781C824.278,-395.105 803.474,-382.368 787.823,-372.786"/>
<polygon fill="midnightblue" stroke="midnightblue" points="789.636,-369.792 779.28,-367.556 785.981,-375.762 789.636,-369.792"/>
</g>
<!-- Node4 -->
<g id="node4" class="node"><title>Node4</title>
<polygon fill="white" stroke="#bfbfbf" points="820.305,-348.5 820.305,-367.5 906.305,-367.5 906.305,-348.5 820.305,-348.5"/>
<text text-anchor="middle" x="863.305" y="-355.5" font-family="Helvetica,sans-Serif" font-size="10.00">ui_displaylogs.h</text>
</g>
<!-- Node1&#45;&gt;Node4 -->
<g id="edge3" class="edge"><title>Node1&#45;&gt;Node4</title>
<path fill="none" stroke="midnightblue" d="M863.305,-404.781C863.305,-396.781 863.305,-386.689 863.305,-378.017"/>
<polygon fill="midnightblue" stroke="midnightblue" points="866.806,-377.73 863.305,-367.731 859.806,-377.731 866.806,-377.73"/>
</g>
<!-- Node5 -->
<g id="node5" class="node"><title>Node5</title>
<g id="a_node5"><a xlink:href="../../dd/da1/roomba_8h.xhtml" target="_top" xlink:title="roomba.h">
<polygon fill="white" stroke="black" points="924.805,-348.5 924.805,-367.5 981.805,-367.5 981.805,-348.5 924.805,-348.5"/>
<text text-anchor="middle" x="953.305" y="-355.5" font-family="Helvetica,sans-Serif" font-size="10.00">roomba.h</text>
</a>
</g>
</g>
<!-- Node1&#45;&gt;Node5 -->
<g id="edge4" class="edge"><title>Node1&#45;&gt;Node5</title>
<path fill="none" stroke="midnightblue" d="M884.634,-404.781C898.876,-395.286 917.54,-382.843 931.815,-373.327"/>
<polygon fill="midnightblue" stroke="midnightblue" points="934.093,-376.015 940.472,-367.556 930.21,-370.191 934.093,-376.015"/>
</g>
<!-- Node3 -->
<g id="node3" class="node"><title>Node3</title>
<polygon fill="white" stroke="#bfbfbf" points="737.805,-292.5 737.805,-311.5 792.805,-311.5 792.805,-292.5 737.805,-292.5"/>
<text text-anchor="middle" x="765.305" y="-299.5" font-family="Helvetica,sans-Serif" font-size="10.00">QWidget</text>
</g>
<!-- Node2&#45;&gt;Node3 -->
<g id="edge2" class="edge"><title>Node2&#45;&gt;Node3</title>
<path fill="none" stroke="midnightblue" d="M765.305,-348.083C765.305,-341.006 765.305,-330.861 765.305,-321.986"/>
<polygon fill="midnightblue" stroke="midnightblue" points="768.806,-321.751 765.305,-311.751 761.806,-321.751 768.806,-321.751"/>
</g>
<!-- Node6 -->
<g id="node6" class="node"><title>Node6</title>
<polygon fill="white" stroke="#bfbfbf" points="973.305,-292.5 973.305,-311.5 1053.31,-311.5 1053.31,-292.5 973.305,-292.5"/>
<text text-anchor="middle" x="1013.31" y="-299.5" font-family="Helvetica,sans-Serif" font-size="10.00">QMainWindow</text>
</g>
<!-- Node5&#45;&gt;Node6 -->
<g id="edge5" class="edge"><title>Node5&#45;&gt;Node6</title>
<path fill="none" stroke="midnightblue" d="M962.945,-348.324C971.815,-340.341 985.18,-328.313 995.913,-318.653"/>
<polygon fill="midnightblue" stroke="midnightblue" points="998.398,-321.125 1003.49,-311.834 993.716,-315.922 998.398,-321.125"/>
</g>
<!-- Node7 -->
<g id="node7" class="node"><title>Node7</title>
<g id="a_node7"><a xlink:href="../../d4/dca/_roomba_connect_8h.xhtml" target="_top" xlink:title="RoombaConnect.h">
<polygon fill="white" stroke="black" points="857.805,-292.5 857.805,-311.5 954.805,-311.5 954.805,-292.5 857.805,-292.5"/>
<text text-anchor="middle" x="906.305" y="-299.5" font-family="Helvetica,sans-Serif" font-size="10.00">RoombaConnect.h</text>
</a>
</g>
</g>
<!-- Node5&#45;&gt;Node7 -->
<g id="edge6" class="edge"><title>Node5&#45;&gt;Node7</title>
<path fill="none" stroke="midnightblue" d="M945.544,-348.083C938.769,-340.298 928.762,-328.801 920.55,-319.367"/>
<polygon fill="midnightblue" stroke="midnightblue" points="923.127,-316.996 913.922,-311.751 917.847,-321.592 923.127,-316.996"/>
</g>
<!-- Node8 -->
<g id="node8" class="node"><title>Node8</title>
<polygon fill="white" stroke="#bfbfbf" points="523.805,-56.5 523.805,-75.5 576.805,-75.5 576.805,-56.5 523.805,-56.5"/>
<text text-anchor="middle" x="550.305" y="-63.5" font-family="Helvetica,sans-Serif" font-size="10.00">QObject</text>
</g>
<!-- Node7&#45;&gt;Node8 -->
<g id="edge7" class="edge"><title>Node7&#45;&gt;Node8</title>
<path fill="none" stroke="midnightblue" d="M857.718,-296.453C839.976,-294.893 819.743,-293.232 801.305,-292 718.062,-286.437 124.634,-295.791 51.3054,-256 18.5641,-238.233 13.7474,-223.45 2.30543,-188 -30.1503,-87.4435 385.787,-70.4221 513.592,-67.5685"/>
<polygon fill="midnightblue" stroke="midnightblue" points="513.746,-71.0661 523.672,-67.3598 513.601,-64.0676 513.746,-71.0661"/>
</g>
<!-- Node9 -->
<g id="node9" class="node"><title>Node9</title>
<polygon fill="white" stroke="#bfbfbf" points="953.805,-230.5 953.805,-249.5 1024.81,-249.5 1024.81,-230.5 953.805,-230.5"/>
<text text-anchor="middle" x="989.305" y="-237.5" font-family="Helvetica,sans-Serif" font-size="10.00">QTcpSocket</text>
</g>
<!-- Node7&#45;&gt;Node9 -->
<g id="edge8" class="edge"><title>Node7&#45;&gt;Node9</title>
<path fill="none" stroke="midnightblue" d="M918.197,-292.403C931.51,-282.78 953.305,-267.024 969.262,-255.489"/>
<polygon fill="midnightblue" stroke="midnightblue" points="971.382,-258.276 977.436,-249.581 967.281,-252.603 971.382,-258.276"/>
</g>
<!-- Node10 -->
<g id="node10" class="node"><title>Node10</title>
<polygon fill="white" stroke="#bfbfbf" points="1043.31,-230.5 1043.31,-249.5 1117.31,-249.5 1117.31,-230.5 1043.31,-230.5"/>
<text text-anchor="middle" x="1080.31" y="-237.5" font-family="Helvetica,sans-Serif" font-size="10.00">QTextStream</text>
</g>
<!-- Node7&#45;&gt;Node10 -->
<g id="edge9" class="edge"><title>Node7&#45;&gt;Node10</title>
<path fill="none" stroke="midnightblue" d="M931.235,-292.403C961.341,-282.022 1012.14,-264.506 1045.94,-252.849"/>
<polygon fill="midnightblue" stroke="midnightblue" points="1047.11,-256.149 1055.42,-249.581 1044.83,-249.532 1047.11,-256.149"/>
</g>
<!-- Node11 -->
<g id="node11" class="node"><title>Node11</title>
<polygon fill="white" stroke="#bfbfbf" points="1135.81,-230.5 1135.81,-249.5 1180.81,-249.5 1180.81,-230.5 1135.81,-230.5"/>
<text text-anchor="middle" x="1158.31" y="-237.5" font-family="Helvetica,sans-Serif" font-size="10.00">QTime</text>
</g>
<!-- Node7&#45;&gt;Node11 -->
<g id="edge10" class="edge"><title>Node7&#45;&gt;Node11</title>
<path fill="none" stroke="midnightblue" d="M954.914,-292.444C1009.68,-282.559 1095.13,-266.334 1126.31,-256 1128.43,-255.294 1130.61,-254.484 1132.77,-253.614"/>
<polygon fill="midnightblue" stroke="midnightblue" points="1134.26,-256.783 1142,-249.55 1131.44,-250.376 1134.26,-256.783"/>
</g>
<!-- Node12 -->
<g id="node12" class="node"><title>Node12</title>
<g id="a_node12"><a xlink:href="../../d7/d62/clslog_8h.xhtml" target="_top" xlink:title="../resources/clslog.h">
<polygon fill="white" stroke="black" points="736.805,-56.5 736.805,-75.5 841.805,-75.5 841.805,-56.5 736.805,-56.5"/>
<text text-anchor="middle" x="789.305" y="-63.5" font-family="Helvetica,sans-Serif" font-size="10.00">../resources/clslog.h</text>
</a>
</g>
</g>
<!-- Node7&#45;&gt;Node12 -->
<g id="edge11" class="edge"><title>Node7&#45;&gt;Node12</title>
<path fill="none" stroke="midnightblue" d="M907.548,-292.397C908.786,-283.358 910.601,-268.715 911.305,-256 913.529,-215.852 912.074,-201.807 890.305,-168 867.668,-132.844 831.034,-100.183 808.663,-81.9815"/>
<polygon fill="midnightblue" stroke="midnightblue" points="810.573,-79.0279 800.574,-75.5256 806.206,-84.4991 810.573,-79.0279"/>
</g>
<!-- Node18 -->
<g id="node18" class="node"><title>Node18</title>
<polygon fill="white" stroke="#bfbfbf" points="1199.31,-230.5 1199.31,-249.5 1247.31,-249.5 1247.31,-230.5 1199.31,-230.5"/>
<text text-anchor="middle" x="1223.31" y="-237.5" font-family="Helvetica,sans-Serif" font-size="10.00">QTimer</text>
</g>
<!-- Node7&#45;&gt;Node18 -->
<g id="edge17" class="edge"><title>Node7&#45;&gt;Node18</title>
<path fill="none" stroke="midnightblue" d="M955.048,-293.412C1034.5,-281.022 1183.71,-257.648 1189.31,-256 1191.8,-255.266 1194.34,-254.392 1196.87,-253.44"/>
<polygon fill="midnightblue" stroke="midnightblue" points="1198.44,-256.579 1206.33,-249.515 1195.75,-250.114 1198.44,-256.579"/>
</g>
<!-- Node19 -->
<g id="node19" class="node"><title>Node19</title>
<g id="a_node19"><a xlink:href="../../dc/d96/jsoncommand_8h.xhtml" target="_top" xlink:title="../resources/jsoncommand.h">
<polygon fill="white" stroke="black" points="719.305,-168.5 719.305,-187.5 859.305,-187.5 859.305,-168.5 719.305,-168.5"/>
<text text-anchor="middle" x="789.305" y="-175.5" font-family="Helvetica,sans-Serif" font-size="10.00">../resources/jsoncommand.h</text>
</a>
</g>
</g>
<!-- Node7&#45;&gt;Node19 -->
<g id="edge18" class="edge"><title>Node7&#45;&gt;Node19</title>
<path fill="none" stroke="midnightblue" d="M897.891,-292.226C878.328,-271.826 829.551,-220.966 804.573,-194.92"/>
<polygon fill="midnightblue" stroke="midnightblue" points="807.091,-192.489 797.644,-187.694 802.039,-197.334 807.091,-192.489"/>
</g>
<!-- Node21 -->
<g id="node21" class="node"><title>Node21</title>
<g id="a_node21"><a xlink:href="../../d4/d05/json_8h.xhtml" target="_top" xlink:title="json.h">
<polygon fill="white" stroke="black" points="717.805,-112.5 717.805,-131.5 760.805,-131.5 760.805,-112.5 717.805,-112.5"/>
<text text-anchor="middle" x="739.305" y="-119.5" font-family="Helvetica,sans-Serif" font-size="10.00">json.h</text>
</a>
</g>
</g>
<!-- Node7&#45;&gt;Node21 -->
<g id="edge25" class="edge"><title>Node7&#45;&gt;Node21</title>
<path fill="none" stroke="midnightblue" d="M906.413,-292.22C906.215,-268.795 902.433,-204.143 868.305,-168 842.78,-140.967 800.149,-130.167 770.93,-125.857"/>
<polygon fill="midnightblue" stroke="midnightblue" points="771.196,-122.362 760.828,-124.545 770.294,-129.304 771.196,-122.362"/>
</g>
<!-- Node24 -->
<g id="node24" class="node"><title>Node24</title>
<g id="a_node24"><a xlink:href="../../db/d97/clsevent_8h.xhtml" target="_top" xlink:title="../resources/clsevent.h">
<polygon fill="white" stroke="black" points="445.805,-112.5 445.805,-131.5 560.805,-131.5 560.805,-112.5 445.805,-112.5"/>
<text text-anchor="middle" x="503.305" y="-119.5" font-family="Helvetica,sans-Serif" font-size="10.00">../resources/clsevent.h</text>
</a>
</g>
</g>
<!-- Node7&#45;&gt;Node24 -->
<g id="edge26" class="edge"><title>Node7&#45;&gt;Node24</title>
<path fill="none" stroke="midnightblue" d="M857.699,-296.713C839.955,-295.18 819.726,-293.469 801.305,-292 624.576,-277.908 121.096,-326.41 10.3054,-188 4.75067,-181.06 4.31251,-174.565 10.3054,-168 38.4083,-137.215 307.028,-127.246 435.499,-124.223"/>
<polygon fill="midnightblue" stroke="midnightblue" points="435.703,-127.719 445.621,-123.992 435.544,-120.721 435.703,-127.719"/>
</g>
<!-- Node25 -->
<g id="node25" class="node"><title>Node25</title>
<g id="a_node25"><a xlink:href="../../db/dd2/events_8h.xhtml" target="_top" xlink:title="../resources/events\l/events.h">
<polygon fill="white" stroke="black" points="322.805,-225 322.805,-255 421.805,-255 421.805,-225 322.805,-225"/>
<text text-anchor="start" x="330.805" y="-243" font-family="Helvetica,sans-Serif" font-size="10.00">../resources/events</text>
<text text-anchor="middle" x="372.305" y="-232" font-family="Helvetica,sans-Serif" font-size="10.00">/events.h</text>
</a>
</g>
</g>
<!-- Node7&#45;&gt;Node25 -->
<g id="edge32" class="edge"><title>Node7&#45;&gt;Node25</title>
<path fill="none" stroke="midnightblue" d="M857.501,-295.516C759.353,-284.488 538.393,-259.662 431.905,-247.697"/>
<polygon fill="midnightblue" stroke="midnightblue" points="432.293,-244.218 421.965,-246.58 431.511,-251.174 432.293,-244.218"/>
</g>
<!-- Node13 -->
<g id="node13" class="node"><title>Node13</title>
<polygon fill="white" stroke="#bfbfbf" points="730.305,-0.5 730.305,-19.5 782.305,-19.5 782.305,-0.5 730.305,-0.5"/>
<text text-anchor="middle" x="756.305" y="-7.5" font-family="Helvetica,sans-Serif" font-size="10.00">QDebug</text>
</g>
<!-- Node12&#45;&gt;Node13 -->
<g id="edge12" class="edge"><title>Node12&#45;&gt;Node13</title>
<path fill="none" stroke="midnightblue" d="M783.856,-56.083C779.291,-48.6127 772.637,-37.7244 767.012,-28.5199"/>
<polygon fill="midnightblue" stroke="midnightblue" points="769.854,-26.4588 761.653,-19.7511 763.881,-30.109 769.854,-26.4588"/>
</g>
<!-- Node14 -->
<g id="node14" class="node"><title>Node14</title>
<polygon fill="white" stroke="#bfbfbf" points="529.805,-0.5 529.805,-19.5 594.805,-19.5 594.805,-0.5 529.805,-0.5"/>
<text text-anchor="middle" x="562.305" y="-7.5" font-family="Helvetica,sans-Serif" font-size="10.00">QDateTime</text>
</g>
<!-- Node12&#45;&gt;Node14 -->
<g id="edge13" class="edge"><title>Node12&#45;&gt;Node14</title>
<path fill="none" stroke="midnightblue" d="M753.337,-56.4435C713.06,-46.8624 647.833,-31.3458 605.003,-21.157"/>
<polygon fill="midnightblue" stroke="midnightblue" points="605.696,-17.7245 595.158,-18.8151 604.076,-24.5344 605.696,-17.7245"/>
</g>
<!-- Node15 -->
<g id="node15" class="node"><title>Node15</title>
<polygon fill="white" stroke="#bfbfbf" points="800.805,-0.5 800.805,-19.5 841.805,-19.5 841.805,-0.5 800.805,-0.5"/>
<text text-anchor="middle" x="821.305" y="-7.5" font-family="Helvetica,sans-Serif" font-size="10.00">string</text>
</g>
<!-- Node12&#45;&gt;Node15 -->
<g id="edge14" class="edge"><title>Node12&#45;&gt;Node15</title>
<path fill="none" stroke="midnightblue" d="M794.59,-56.083C799.016,-48.6127 805.469,-37.7244 810.923,-28.5199"/>
<polygon fill="midnightblue" stroke="midnightblue" points="814.033,-30.1383 816.12,-19.7511 808.011,-26.5697 814.033,-30.1383"/>
</g>
<!-- Node16 -->
<g id="node16" class="node"><title>Node16</title>
<polygon fill="white" stroke="#bfbfbf" points="860.305,-0.5 860.305,-19.5 914.305,-19.5 914.305,-0.5 860.305,-0.5"/>
<text text-anchor="middle" x="887.305" y="-7.5" font-family="Helvetica,sans-Serif" font-size="10.00">iostream</text>
</g>
<!-- Node12&#45;&gt;Node16 -->
<g id="edge15" class="edge"><title>Node12&#45;&gt;Node16</title>
<path fill="none" stroke="midnightblue" d="M805.051,-56.324C820.624,-47.7428 844.683,-34.486 862.765,-24.5224"/>
<polygon fill="midnightblue" stroke="midnightblue" points="864.53,-27.546 871.599,-19.6545 861.152,-21.4152 864.53,-27.546"/>
</g>
<!-- Node17 -->
<g id="node17" class="node"><title>Node17</title>
<polygon fill="white" stroke="#bfbfbf" points="646.805,-0.5 646.805,-19.5 711.805,-19.5 711.805,-0.5 646.805,-0.5"/>
<text text-anchor="middle" x="679.305" y="-7.5" font-family="Helvetica,sans-Serif" font-size="10.00">QStringList</text>
</g>
<!-- Node12&#45;&gt;Node17 -->
<g id="edge16" class="edge"><title>Node12&#45;&gt;Node17</title>
<path fill="none" stroke="midnightblue" d="M771.632,-56.324C753.911,-47.6247 726.402,-34.1202 706.017,-24.113"/>
<polygon fill="midnightblue" stroke="midnightblue" points="707.454,-20.9195 696.935,-19.6545 704.369,-27.2031 707.454,-20.9195"/>
</g>
<!-- Node19&#45;&gt;Node8 -->
<g id="edge19" class="edge"><title>Node19&#45;&gt;Node8</title>
<path fill="none" stroke="midnightblue" d="M773.573,-168.245C743.673,-151.63 680.686,-116.753 670.305,-112 642.568,-99.3005 610.12,-87.2961 585.963,-78.885"/>
<polygon fill="midnightblue" stroke="midnightblue" points="587.08,-75.5678 576.485,-75.6206 584.8,-82.1863 587.08,-75.5678"/>
</g>
<!-- Node20 -->
<g id="node20" class="node"><title>Node20</title>
<polygon fill="white" stroke="#bfbfbf" points="587.305,-112.5 587.305,-131.5 661.305,-131.5 661.305,-112.5 587.305,-112.5"/>
<text text-anchor="middle" x="624.305" y="-119.5" font-family="Helvetica,sans-Serif" font-size="10.00">QVariantMap</text>
</g>
<!-- Node19&#45;&gt;Node20 -->
<g id="edge20" class="edge"><title>Node19&#45;&gt;Node20</title>
<path fill="none" stroke="midnightblue" d="M763.161,-168.444C735.282,-159.32 690.957,-144.813 659.905,-134.651"/>
<polygon fill="midnightblue" stroke="midnightblue" points="660.92,-131.3 650.328,-131.516 658.743,-137.953 660.92,-131.3"/>
</g>
<!-- Node19&#45;&gt;Node21 -->
<g id="edge21" class="edge"><title>Node19&#45;&gt;Node21</title>
<path fill="none" stroke="midnightblue" d="M781.049,-168.083C773.841,-160.298 763.196,-148.801 754.46,-139.367"/>
<polygon fill="midnightblue" stroke="midnightblue" points="756.771,-136.711 747.408,-131.751 751.634,-141.467 756.771,-136.711"/>
</g>
<!-- Node19&#45;&gt;Node12 -->
<g id="edge24" class="edge"><title>Node19&#45;&gt;Node12</title>
<path fill="none" stroke="midnightblue" d="M789.305,-168.368C789.305,-150.617 789.305,-109.666 789.305,-85.5974"/>
<polygon fill="midnightblue" stroke="midnightblue" points="792.806,-85.5914 789.305,-75.5914 785.806,-85.5915 792.806,-85.5914"/>
</g>
<!-- Node22 -->
<g id="node22" class="node"><title>Node22</title>
<polygon fill="white" stroke="#bfbfbf" points="663.805,-56.5 663.805,-75.5 718.805,-75.5 718.805,-56.5 663.805,-56.5"/>
<text text-anchor="middle" x="691.305" y="-63.5" font-family="Helvetica,sans-Serif" font-size="10.00">QVariant</text>
</g>
<!-- Node21&#45;&gt;Node22 -->
<g id="edge22" class="edge"><title>Node21&#45;&gt;Node22</title>
<path fill="none" stroke="midnightblue" d="M731.379,-112.083C724.459,-104.298 714.24,-92.8015 705.853,-83.3665"/>
<polygon fill="midnightblue" stroke="midnightblue" points="708.344,-80.8999 699.084,-75.7511 703.112,-85.5505 708.344,-80.8999"/>
</g>
<!-- Node23 -->
<g id="node23" class="node"><title>Node23</title>
<polygon fill="white" stroke="#bfbfbf" points="595.305,-56.5 595.305,-75.5 645.305,-75.5 645.305,-56.5 595.305,-56.5"/>
<text text-anchor="middle" x="620.305" y="-63.5" font-family="Helvetica,sans-Serif" font-size="10.00">QString</text>
</g>
<!-- Node21&#45;&gt;Node23 -->
<g id="edge23" class="edge"><title>Node21&#45;&gt;Node23</title>
<path fill="none" stroke="midnightblue" d="M720.45,-112.444C701.039,-103.636 670.575,-89.8116 648.341,-79.722"/>
<polygon fill="midnightblue" stroke="midnightblue" points="649.626,-76.4615 639.073,-75.5164 646.733,-82.836 649.626,-76.4615"/>
</g>
<!-- Node24&#45;&gt;Node8 -->
<g id="edge27" class="edge"><title>Node24&#45;&gt;Node8</title>
<path fill="none" stroke="midnightblue" d="M511.067,-112.083C517.842,-104.298 527.849,-92.8015 536.06,-83.3665"/>
<polygon fill="midnightblue" stroke="midnightblue" points="538.764,-85.592 542.689,-75.7511 533.483,-80.9963 538.764,-85.592"/>
</g>
<!-- Node24&#45;&gt;Node23 -->
<g id="edge28" class="edge"><title>Node24&#45;&gt;Node23</title>
<path fill="none" stroke="midnightblue" d="M521.844,-112.444C540.928,-103.636 570.88,-89.8116 592.741,-79.722"/>
<polygon fill="midnightblue" stroke="midnightblue" points="594.24,-82.8849 601.853,-75.5164 591.307,-76.5292 594.24,-82.8849"/>
</g>
<!-- Node24&#45;&gt;Node22 -->
<g id="edge29" class="edge"><title>Node24&#45;&gt;Node22</title>
<path fill="none" stroke="midnightblue" d="M533.095,-112.444C565.794,-103.051 618.351,-87.9549 653.826,-77.7654"/>
<polygon fill="midnightblue" stroke="midnightblue" points="655.151,-81.0263 663.796,-74.9015 653.219,-74.2983 655.151,-81.0263"/>
</g>
<!-- Node24&#45;&gt;Node14 -->
<g id="edge30" class="edge"><title>Node24&#45;&gt;Node14</title>
<path fill="none" stroke="midnightblue" d="M503.062,-112.447C503.05,-99.4635 504.454,-74.3532 514.305,-56 520.657,-44.168 531.297,-33.7131 540.948,-25.8657"/>
<polygon fill="midnightblue" stroke="midnightblue" points="543.228,-28.5287 549.042,-19.6718 538.974,-22.9697 543.228,-28.5287"/>
</g>
<!-- Node24&#45;&gt;Node12 -->
<g id="edge31" class="edge"><title>Node24&#45;&gt;Node12</title>
<path fill="none" stroke="midnightblue" d="M548.623,-112.444C598.933,-102.944 680.144,-87.611 734.119,-77.4198"/>
<polygon fill="midnightblue" stroke="midnightblue" points="735.023,-80.8111 744.2,-75.5164 733.724,-73.9326 735.023,-80.8111"/>
</g>
<!-- Node26 -->
<g id="node26" class="node"><title>Node26</title>
<g id="a_node26"><a xlink:href="../../db/d70/eventchat_8h.xhtml" target="_top" xlink:title="eventchat.h">
<polygon fill="white" stroke="black" points="19.3054,-168.5 19.3054,-187.5 85.3054,-187.5 85.3054,-168.5 19.3054,-168.5"/>
<text text-anchor="middle" x="52.3054" y="-175.5" font-family="Helvetica,sans-Serif" font-size="10.00">eventchat.h</text>
</a>
</g>
</g>
<!-- Node25&#45;&gt;Node26 -->
<g id="edge33" class="edge"><title>Node25&#45;&gt;Node26</title>
<path fill="none" stroke="midnightblue" d="M322.757,-230.367C269.155,-220.926 180.928,-205.09 95.6072,-188.217"/>
<polygon fill="midnightblue" stroke="midnightblue" points="96.2477,-184.776 85.7575,-186.262 94.8847,-191.642 96.2477,-184.776"/>
</g>
<!-- Node27 -->
<g id="node27" class="node"><title>Node27</title>
<g id="a_node27"><a xlink:href="../../d5/d02/eventuserjoin_8h.xhtml" target="_top" xlink:title="eventuserjoin.h">
<polygon fill="white" stroke="black" points="103.805,-168.5 103.805,-187.5 184.805,-187.5 184.805,-168.5 103.805,-168.5"/>
<text text-anchor="middle" x="144.305" y="-175.5" font-family="Helvetica,sans-Serif" font-size="10.00">eventuserjoin.h</text>
</a>
</g>
</g>
<!-- Node25&#45;&gt;Node27 -->
<g id="edge35" class="edge"><title>Node25&#45;&gt;Node27</title>
<path fill="none" stroke="midnightblue" d="M322.552,-225.907C281.897,-215.208 225.057,-200.25 186.578,-190.124"/>
<polygon fill="midnightblue" stroke="midnightblue" points="187.289,-186.692 176.727,-187.532 185.507,-193.462 187.289,-186.692"/>
</g>
<!-- Node28 -->
<g id="node28" class="node"><title>Node28</title>
<g id="a_node28"><a xlink:href="../../d7/d56/eventuserleave_8h.xhtml" target="_top" xlink:title="eventuserleave.h">
<polygon fill="white" stroke="black" points="203.305,-168.5 203.305,-187.5 291.305,-187.5 291.305,-168.5 203.305,-168.5"/>
<text text-anchor="middle" x="247.305" y="-175.5" font-family="Helvetica,sans-Serif" font-size="10.00">eventuserleave.h</text>
</a>
</g>
</g>
<!-- Node25&#45;&gt;Node28 -->
<g id="edge37" class="edge"><title>Node25&#45;&gt;Node28</title>
<path fill="none" stroke="midnightblue" d="M342.998,-224.933C322.286,-214.991 294.722,-201.76 274.498,-192.053"/>
<polygon fill="midnightblue" stroke="midnightblue" points="275.752,-188.772 265.222,-187.6 272.723,-195.083 275.752,-188.772"/>
</g>
<!-- Node29 -->
<g id="node29" class="node"><title>Node29</title>
<g id="a_node29"><a xlink:href="../../db/db0/eventuserchangestatus_8h.xhtml" target="_top" xlink:title="eventuserchangestatus.h">
<polygon fill="white" stroke="black" points="309.805,-168.5 309.805,-187.5 434.805,-187.5 434.805,-168.5 309.805,-168.5"/>
<text text-anchor="middle" x="372.305" y="-175.5" font-family="Helvetica,sans-Serif" font-size="10.00">eventuserchangestatus.h</text>
</a>
</g>
</g>
<!-- Node25&#45;&gt;Node29 -->
<g id="edge39" class="edge"><title>Node25&#45;&gt;Node29</title>
<path fill="none" stroke="midnightblue" d="M372.305,-224.781C372.305,-216.781 372.305,-206.689 372.305,-198.017"/>
<polygon fill="midnightblue" stroke="midnightblue" points="375.806,-197.73 372.305,-187.731 368.806,-197.731 375.806,-197.73"/>
</g>
<!-- Node30 -->
<g id="node30" class="node"><title>Node30</title>
<g id="a_node30"><a xlink:href="../../d8/d44/eventuserchangenick_8h.xhtml" target="_top" xlink:title="eventuserchangenick.h">
<polygon fill="white" stroke="black" points="453.305,-168.5 453.305,-187.5 569.305,-187.5 569.305,-168.5 453.305,-168.5"/>
<text text-anchor="middle" x="511.305" y="-175.5" font-family="Helvetica,sans-Serif" font-size="10.00">eventuserchangenick.h</text>
</a>
</g>
</g>
<!-- Node25&#45;&gt;Node30 -->
<g id="edge41" class="edge"><title>Node25&#45;&gt;Node30</title>
<path fill="none" stroke="midnightblue" d="M404.895,-224.933C428.241,-214.855 459.415,-201.399 481.982,-191.657"/>
<polygon fill="midnightblue" stroke="midnightblue" points="483.588,-194.777 491.382,-187.6 480.814,-188.35 483.588,-194.777"/>
</g>
<!-- Node31 -->
<g id="node31" class="node"><title>Node31</title>
<g id="a_node31"><a xlink:href="../../da/d66/eventservermessage_8h.xhtml" target="_top" xlink:title="eventservermessage.h">
<polygon fill="white" stroke="black" points="587.805,-168.5 587.805,-187.5 700.805,-187.5 700.805,-168.5 587.805,-168.5"/>
<text text-anchor="middle" x="644.305" y="-175.5" font-family="Helvetica,sans-Serif" font-size="10.00">eventservermessage.h</text>
</a>
</g>
</g>
<!-- Node25&#45;&gt;Node31 -->
<g id="edge43" class="edge"><title>Node25&#45;&gt;Node31</title>
<path fill="none" stroke="midnightblue" d="M421.878,-228.065C471.232,-217.178 546.515,-200.571 595.572,-189.75"/>
<polygon fill="midnightblue" stroke="midnightblue" points="596.613,-193.105 605.624,-187.533 595.105,-186.269 596.613,-193.105"/>
</g>
<!-- Node26&#45;&gt;Node24 -->
<g id="edge34" class="edge"><title>Node26&#45;&gt;Node24</title>
<path fill="none" stroke="midnightblue" d="M85.7183,-169.52C88.6157,-168.969 91.508,-168.452 94.3054,-168 213.667,-148.696 353.986,-135.247 435.37,-128.349"/>
<polygon fill="midnightblue" stroke="midnightblue" points="435.811,-131.825 445.483,-127.5 435.225,-124.849 435.811,-131.825"/>
</g>
<!-- Node27&#45;&gt;Node24 -->
<g id="edge36" class="edge"><title>Node27&#45;&gt;Node24</title>
<path fill="none" stroke="midnightblue" d="M184.945,-169.567C188.11,-169.025 191.259,-168.496 194.305,-168 277.177,-154.511 372.874,-140.873 435.546,-132.203"/>
<polygon fill="midnightblue" stroke="midnightblue" points="436.27,-135.636 445.697,-130.802 435.313,-128.702 436.27,-135.636"/>
</g>
<!-- Node28&#45;&gt;Node24 -->
<g id="edge38" class="edge"><title>Node28&#45;&gt;Node24</title>
<path fill="none" stroke="midnightblue" d="M287.869,-168.444C332.622,-159.004 404.688,-143.802 453.001,-133.611"/>
<polygon fill="midnightblue" stroke="midnightblue" points="453.869,-137.005 462.931,-131.516 452.424,-130.156 453.869,-137.005"/>
</g>
<!-- Node29&#45;&gt;Node24 -->
<g id="edge40" class="edge"><title>Node29&#45;&gt;Node24</title>
<path fill="none" stroke="midnightblue" d="M393.063,-168.444C414.622,-159.557 448.569,-145.563 473.099,-135.451"/>
<polygon fill="midnightblue" stroke="midnightblue" points="474.734,-138.563 482.645,-131.516 472.066,-132.092 474.734,-138.563"/>
</g>
<!-- Node30&#45;&gt;Node24 -->
<g id="edge42" class="edge"><title>Node30&#45;&gt;Node24</title>
<path fill="none" stroke="midnightblue" d="M509.984,-168.083C508.924,-160.927 507.4,-150.635 506.074,-141.691"/>
<polygon fill="midnightblue" stroke="midnightblue" points="509.53,-141.13 504.602,-131.751 502.605,-142.156 509.53,-141.13"/>
</g>
<!-- Node31&#45;&gt;Node24 -->
<g id="edge44" class="edge"><title>Node31&#45;&gt;Node24</title>
<path fill="none" stroke="midnightblue" d="M621.964,-168.444C598.552,-159.478 561.57,-145.314 535.116,-135.183"/>
<polygon fill="midnightblue" stroke="midnightblue" points="536.133,-131.824 525.543,-131.516 533.63,-138.361 536.133,-131.824"/>
</g>
</g>
</svg>
