<?xml version="1.0" encoding="UTF-8" standalone="no"?>
<!DOCTYPE svg PUBLIC "-//W3C//DTD SVG 1.1//EN"
 "http://www.w3.org/Graphics/SVG/1.1/DTD/svg11.dtd">
<!-- Generated by graphviz version 2.30.1 (20130214.1330)
 -->
<!-- Title: GUI/Gui&#45;RoombaV1.0/displaylogs.cpp Pages: 1 -->
<svg width="2439pt" height="432pt"
 viewBox="0.00 0.00 2439.00 432.00" xmlns="http://www.w3.org/2000/svg" xmlns:xlink="http://www.w3.org/1999/xlink">
<g id="graph0" class="graph" transform="scale(1 1) rotate(0) translate(4 428)">
<title>GUI/Gui&#45;RoombaV1.0/displaylogs.cpp</title>
<polygon fill="white" stroke="white" points="-4,5 -4,-428 2436,-428 2436,5 -4,5"/>
<!-- Node1 -->
<g id="node1" class="node"><title>Node1</title>
<polygon fill="#bfbfbf" stroke="black" points="1006,-393 1006,-423 1116,-423 1116,-393 1006,-393"/>
<text text-anchor="start" x="1014" y="-411" font-family="Helvetica,sans-Serif" font-size="10.00">GUI/Gui&#45;RoombaV1.0</text>
<text text-anchor="middle" x="1061" y="-400" font-family="Helvetica,sans-Serif" font-size="10.00">/displaylogs.cpp</text>
</g>
<!-- Node2 -->
<g id="node2" class="node"><title>Node2</title>
<g id="a_node2"><a xlink:href="../../d7/d82/displaylogs_8h.xhtml" target="_top" xlink:title="displaylogs.h">
<polygon fill="white" stroke="black" points="1024,-336.5 1024,-355.5 1098,-355.5 1098,-336.5 1024,-336.5"/>
<text text-anchor="middle" x="1061" y="-343.5" font-family="Helvetica,sans-Serif" font-size="10.00">displaylogs.h</text>
</a>
</g>
</g>
<!-- Node1&#45;&gt;Node2 -->
<g id="edge1" class="edge"><title>Node1&#45;&gt;Node2</title>
<path fill="none" stroke="midnightblue" d="M1061,-392.781C1061,-384.781 1061,-374.689 1061,-366.017"/>
<polygon fill="midnightblue" stroke="midnightblue" points="1064.5,-365.73 1061,-355.731 1057.5,-365.731 1064.5,-365.73"/>
</g>
<!-- Node4 -->
<g id="node4" class="node"><title>Node4</title>
<g id="a_node4"><a xlink:href="../../d0/dd0/ui__displaylogs_8h.xhtml" target="_top" xlink:title="ui_displaylogs.h">
<polygon fill="white" stroke="black" points="571,-336.5 571,-355.5 657,-355.5 657,-336.5 571,-336.5"/>
<text text-anchor="middle" x="614" y="-343.5" font-family="Helvetica,sans-Serif" font-size="10.00">ui_displaylogs.h</text>
</a>
</g>
</g>
<!-- Node1&#45;&gt;Node4 -->
<g id="edge3" class="edge"><title>Node1&#45;&gt;Node4</title>
<path fill="none" stroke="midnightblue" d="M1005.74,-399.583C919.099,-387.953 752.393,-365.576 667.102,-354.128"/>
<polygon fill="midnightblue" stroke="midnightblue" points="667.492,-350.649 657.115,-352.787 666.561,-357.587 667.492,-350.649"/>
</g>
<!-- Node13 -->
<g id="node13" class="node"><title>Node13</title>
<g id="a_node13"><a xlink:href="../../dd/da1/roomba_8h.xhtml" target="_top" xlink:title="roomba.h">
<polygon fill="white" stroke="black" points="1982.5,-336.5 1982.5,-355.5 2039.5,-355.5 2039.5,-336.5 1982.5,-336.5"/>
<text text-anchor="middle" x="2011" y="-343.5" font-family="Helvetica,sans-Serif" font-size="10.00">roomba.h</text>
</a>
</g>
</g>
<!-- Node1&#45;&gt;Node13 -->
<g id="edge12" class="edge"><title>Node1&#45;&gt;Node13</title>
<path fill="none" stroke="midnightblue" d="M1116.18,-403.515C1290.01,-392.536 1823.52,-358.841 1972.18,-349.452"/>
<polygon fill="midnightblue" stroke="midnightblue" points="1972.45,-352.942 1982.21,-348.818 1972.01,-345.956 1972.45,-352.942"/>
</g>
<!-- Node3 -->
<g id="node3" class="node"><title>Node3</title>
<polygon fill="white" stroke="#bfbfbf" points="1127.5,-224.5 1127.5,-243.5 1182.5,-243.5 1182.5,-224.5 1127.5,-224.5"/>
<text text-anchor="middle" x="1155" y="-231.5" font-family="Helvetica,sans-Serif" font-size="10.00">QWidget</text>
</g>
<!-- Node2&#45;&gt;Node3 -->
<g id="edge2" class="edge"><title>Node2&#45;&gt;Node3</title>
<path fill="none" stroke="midnightblue" d="M1068.38,-336.368C1084.03,-318.055 1120.78,-275.049 1141.02,-251.362"/>
<polygon fill="midnightblue" stroke="midnightblue" points="1143.82,-253.468 1147.66,-243.591 1138.5,-248.92 1143.82,-253.468"/>
</g>
<!-- Node5 -->
<g id="node5" class="node"><title>Node5</title>
<polygon fill="white" stroke="#bfbfbf" points="684.5,-280.5 684.5,-299.5 773.5,-299.5 773.5,-280.5 684.5,-280.5"/>
<text text-anchor="middle" x="729" y="-287.5" font-family="Helvetica,sans-Serif" font-size="10.00">QtCore/QVariant</text>
</g>
<!-- Node4&#45;&gt;Node5 -->
<g id="edge4" class="edge"><title>Node4&#45;&gt;Node5</title>
<path fill="none" stroke="midnightblue" d="M632.222,-336.444C650.896,-327.675 680.156,-313.935 701.617,-303.858"/>
<polygon fill="midnightblue" stroke="midnightblue" points="703.299,-306.935 710.863,-299.516 700.324,-300.599 703.299,-306.935"/>
</g>
<!-- Node6 -->
<g id="node6" class="node"><title>Node6</title>
<polygon fill="white" stroke="#bfbfbf" points="791.5,-280.5 791.5,-299.5 892.5,-299.5 892.5,-280.5 791.5,-280.5"/>
<text text-anchor="middle" x="842" y="-287.5" font-family="Helvetica,sans-Serif" font-size="10.00">QtWidgets/QAction</text>
</g>
<!-- Node4&#45;&gt;Node6 -->
<g id="edge5" class="edge"><title>Node4&#45;&gt;Node6</title>
<path fill="none" stroke="midnightblue" d="M650.127,-336.444C689.651,-327.083 753.097,-312.056 796.113,-301.868"/>
<polygon fill="midnightblue" stroke="midnightblue" points="797.118,-305.227 806.042,-299.516 795.504,-298.415 797.118,-305.227"/>
</g>
<!-- Node7 -->
<g id="node7" class="node"><title>Node7</title>
<polygon fill="white" stroke="#bfbfbf" points="911,-280.5 911,-299.5 1033,-299.5 1033,-280.5 911,-280.5"/>
<text text-anchor="middle" x="972" y="-287.5" font-family="Helvetica,sans-Serif" font-size="10.00">QtWidgets/QApplication</text>
</g>
<!-- Node4&#45;&gt;Node7 -->
<g id="edge6" class="edge"><title>Node4&#45;&gt;Node7</title>
<path fill="none" stroke="midnightblue" d="M657.183,-338.486C718.905,-329.176 832.891,-311.983 905.449,-301.038"/>
<polygon fill="midnightblue" stroke="midnightblue" points="906.037,-304.489 915.403,-299.537 904.993,-297.568 906.037,-304.489"/>
</g>
<!-- Node8 -->
<g id="node8" class="node"><title>Node8</title>
<polygon fill="white" stroke="#bfbfbf" points="0,-280.5 0,-299.5 128,-299.5 128,-280.5 0,-280.5"/>
<text text-anchor="middle" x="64" y="-287.5" font-family="Helvetica,sans-Serif" font-size="10.00">QtWidgets/QButtonGroup</text>
</g>
<!-- Node4&#45;&gt;Node8 -->
<g id="edge7" class="edge"><title>Node4&#45;&gt;Node8</title>
<path fill="none" stroke="midnightblue" d="M570.876,-341.348C488.875,-334.313 304.566,-318.069 138.489,-300.134"/>
<polygon fill="midnightblue" stroke="midnightblue" points="138.401,-296.604 128.082,-299.006 137.646,-303.564 138.401,-296.604"/>
</g>
<!-- Node9 -->
<g id="node9" class="node"><title>Node9</title>
<polygon fill="white" stroke="#bfbfbf" points="146.5,-280.5 146.5,-299.5 271.5,-299.5 271.5,-280.5 146.5,-280.5"/>
<text text-anchor="middle" x="209" y="-287.5" font-family="Helvetica,sans-Serif" font-size="10.00">QtWidgets/QHeaderView</text>
</g>
<!-- Node4&#45;&gt;Node9 -->
<g id="edge8" class="edge"><title>Node4&#45;&gt;Node9</title>
<path fill="none" stroke="midnightblue" d="M570.658,-339.221C501.634,-330.018 365.965,-311.929 281.833,-300.711"/>
<polygon fill="midnightblue" stroke="midnightblue" points="282.212,-297.231 271.837,-299.378 281.287,-304.169 282.212,-297.231"/>
</g>
<!-- Node10 -->
<g id="node10" class="node"><title>Node10</title>
<polygon fill="white" stroke="#bfbfbf" points="290,-280.5 290,-299.5 400,-299.5 400,-280.5 290,-280.5"/>
<text text-anchor="middle" x="345" y="-287.5" font-family="Helvetica,sans-Serif" font-size="10.00">QtWidgets/QListView</text>
</g>
<!-- Node4&#45;&gt;Node10 -->
<g id="edge9" class="edge"><title>Node4&#45;&gt;Node10</title>
<path fill="none" stroke="midnightblue" d="M571.376,-336.444C524.253,-326.984 448.308,-311.738 397.541,-301.547"/>
<polygon fill="midnightblue" stroke="midnightblue" points="397.918,-298.053 387.424,-299.516 396.54,-304.916 397.918,-298.053"/>
</g>
<!-- Node11 -->
<g id="node11" class="node"><title>Node11</title>
<polygon fill="white" stroke="#bfbfbf" points="418.5,-280.5 418.5,-299.5 543.5,-299.5 543.5,-280.5 418.5,-280.5"/>
<text text-anchor="middle" x="481" y="-287.5" font-family="Helvetica,sans-Serif" font-size="10.00">QtWidgets/QPushButton</text>
</g>
<!-- Node4&#45;&gt;Node11 -->
<g id="edge10" class="edge"><title>Node4&#45;&gt;Node11</title>
<path fill="none" stroke="midnightblue" d="M592.926,-336.444C570.94,-327.517 536.266,-313.439 511.336,-303.317"/>
<polygon fill="midnightblue" stroke="midnightblue" points="512.558,-300.035 501.976,-299.516 509.924,-306.521 512.558,-300.035"/>
</g>
<!-- Node12 -->
<g id="node12" class="node"><title>Node12</title>
<polygon fill="white" stroke="#bfbfbf" points="562,-280.5 562,-299.5 666,-299.5 666,-280.5 562,-280.5"/>
<text text-anchor="middle" x="614" y="-287.5" font-family="Helvetica,sans-Serif" font-size="10.00">QtWidgets/QWidget</text>
</g>
<!-- Node4&#45;&gt;Node12 -->
<g id="edge11" class="edge"><title>Node4&#45;&gt;Node12</title>
<path fill="none" stroke="midnightblue" d="M614,-336.083C614,-329.006 614,-318.861 614,-309.986"/>
<polygon fill="midnightblue" stroke="midnightblue" points="617.5,-309.751 614,-299.751 610.5,-309.751 617.5,-309.751"/>
</g>
<!-- Node14 -->
<g id="node14" class="node"><title>Node14</title>
<polygon fill="white" stroke="#bfbfbf" points="1832,-56.5 1832,-75.5 1882,-75.5 1882,-56.5 1832,-56.5"/>
<text text-anchor="middle" x="1857" y="-63.5" font-family="Helvetica,sans-Serif" font-size="10.00">QString</text>
</g>
<!-- Node13&#45;&gt;Node14 -->
<g id="edge13" class="edge"><title>Node13&#45;&gt;Node14</title>
<path fill="none" stroke="midnightblue" d="M2039.62,-341.635C2086.35,-335.586 2176.12,-321.472 2199,-300 2221.04,-279.317 2219,-265.225 2219,-235 2219,-235 2219,-235 2219,-177 2219,-143.044 1982.82,-92.1748 1892,-73.8694"/>
<polygon fill="midnightblue" stroke="midnightblue" points="1892.66,-70.4325 1882.17,-71.9009 1891.29,-77.2962 1892.66,-70.4325"/>
</g>
<!-- Node15 -->
<g id="node15" class="node"><title>Node15</title>
<polygon fill="white" stroke="#bfbfbf" points="1445,-0.5 1445,-19.5 1497,-19.5 1497,-0.5 1445,-0.5"/>
<text text-anchor="middle" x="1471" y="-7.5" font-family="Helvetica,sans-Serif" font-size="10.00">QDebug</text>
</g>
<!-- Node13&#45;&gt;Node15 -->
<g id="edge14" class="edge"><title>Node13&#45;&gt;Node15</title>
<path fill="none" stroke="midnightblue" d="M1982.45,-344.63C1827.97,-342.262 1099,-326.253 1099,-235 1099,-235 1099,-235 1099,-121 1099,-51.45 1341.14,-22.5241 1434.71,-13.9431"/>
<polygon fill="midnightblue" stroke="midnightblue" points="1435.19,-17.414 1444.84,-13.0405 1434.57,-10.4416 1435.19,-17.414"/>
</g>
<!-- Node16 -->
<g id="node16" class="node"><title>Node16</title>
<polygon fill="white" stroke="#bfbfbf" points="1909.5,-168.5 1909.5,-187.5 1956.5,-187.5 1956.5,-168.5 1909.5,-168.5"/>
<text text-anchor="middle" x="1933" y="-175.5" font-family="Helvetica,sans-Serif" font-size="10.00">QtCore</text>
</g>
<!-- Node13&#45;&gt;Node16 -->
<g id="edge15" class="edge"><title>Node13&#45;&gt;Node16</title>
<path fill="none" stroke="midnightblue" d="M2006.81,-336.075C1994.42,-309.719 1957.85,-231.878 1941.3,-196.661"/>
<polygon fill="midnightblue" stroke="midnightblue" points="1944.45,-195.13 1937.03,-187.568 1938.11,-198.107 1944.45,-195.13"/>
</g>
<!-- Node17 -->
<g id="node17" class="node"><title>Node17</title>
<polygon fill="white" stroke="#bfbfbf" points="2077,-280.5 2077,-299.5 2119,-299.5 2119,-280.5 2077,-280.5"/>
<text text-anchor="middle" x="2098" y="-287.5" font-family="Helvetica,sans-Serif" font-size="10.00">vector</text>
</g>
<!-- Node13&#45;&gt;Node17 -->
<g id="edge16" class="edge"><title>Node13&#45;&gt;Node17</title>
<path fill="none" stroke="midnightblue" d="M2024.98,-336.324C2038.55,-327.9 2059.38,-314.971 2075.32,-305.074"/>
<polygon fill="midnightblue" stroke="midnightblue" points="2077.41,-307.902 2084.06,-299.655 2073.71,-301.954 2077.41,-307.902"/>
</g>
<!-- Node18 -->
<g id="node18" class="node"><title>Node18</title>
<polygon fill="white" stroke="#bfbfbf" points="2137.5,-280.5 2137.5,-299.5 2190.5,-299.5 2190.5,-280.5 2137.5,-280.5"/>
<text text-anchor="middle" x="2164" y="-287.5" font-family="Helvetica,sans-Serif" font-size="10.00">QVector</text>
</g>
<!-- Node13&#45;&gt;Node18 -->
<g id="edge17" class="edge"><title>Node13&#45;&gt;Node18</title>
<path fill="none" stroke="midnightblue" d="M2035.24,-336.444C2060.87,-327.399 2101.49,-313.064 2130.24,-302.916"/>
<polygon fill="midnightblue" stroke="midnightblue" points="2131.61,-306.145 2139.87,-299.516 2129.28,-299.544 2131.61,-306.145"/>
</g>
<!-- Node19 -->
<g id="node19" class="node"><title>Node19</title>
<polygon fill="white" stroke="#bfbfbf" points="2288,-112.5 2288,-131.5 2362,-131.5 2362,-112.5 2288,-112.5"/>
<text text-anchor="middle" x="2325" y="-119.5" font-family="Helvetica,sans-Serif" font-size="10.00">QVariantMap</text>
</g>
<!-- Node13&#45;&gt;Node19 -->
<g id="edge18" class="edge"><title>Node13&#45;&gt;Node19</title>
<path fill="none" stroke="midnightblue" d="M2039.73,-345.593C2111.86,-346.403 2297.6,-344.079 2336,-300 2375.22,-254.976 2348.7,-176.587 2333.54,-141.226"/>
<polygon fill="midnightblue" stroke="midnightblue" points="2336.57,-139.415 2329.29,-131.718 2330.18,-142.275 2336.57,-139.415"/>
</g>
<!-- Node20 -->
<g id="node20" class="node"><title>Node20</title>
<polygon fill="white" stroke="#bfbfbf" points="2241,-0.5 2241,-19.5 2295,-19.5 2295,-0.5 2241,-0.5"/>
<text text-anchor="middle" x="2268" y="-7.5" font-family="Helvetica,sans-Serif" font-size="10.00">iostream</text>
</g>
<!-- Node13&#45;&gt;Node20 -->
<g id="edge19" class="edge"><title>Node13&#45;&gt;Node20</title>
<path fill="none" stroke="midnightblue" d="M2039.72,-344.425C2116.5,-342.439 2324.68,-333.978 2383,-300 2414.03,-281.921 2431,-270.912 2431,-235 2431,-235 2431,-235 2431,-121 2431,-60.6015 2353.15,-31.1484 2305.06,-18.7149"/>
<polygon fill="midnightblue" stroke="midnightblue" points="2305.83,-15.3008 2295.28,-16.3151 2304.16,-22.0989 2305.83,-15.3008"/>
</g>
<!-- Node21 -->
<g id="node21" class="node"><title>Node21</title>
<polygon fill="white" stroke="#bfbfbf" points="2247,-280.5 2247,-299.5 2327,-299.5 2327,-280.5 2247,-280.5"/>
<text text-anchor="middle" x="2287" y="-287.5" font-family="Helvetica,sans-Serif" font-size="10.00">QMainWindow</text>
</g>
<!-- Node13&#45;&gt;Node21 -->
<g id="edge20" class="edge"><title>Node13&#45;&gt;Node21</title>
<path fill="none" stroke="midnightblue" d="M2039.76,-339.374C2086.38,-330.251 2179.07,-312.116 2236.77,-300.828"/>
<polygon fill="midnightblue" stroke="midnightblue" points="2237.63,-304.227 2246.77,-298.872 2236.28,-297.357 2237.63,-304.227"/>
</g>
<!-- Node22 -->
<g id="node22" class="node"><title>Node22</title>
<polygon fill="white" stroke="#bfbfbf" points="1544.5,-56.5 1544.5,-75.5 1597.5,-75.5 1597.5,-56.5 1544.5,-56.5"/>
<text text-anchor="middle" x="1571" y="-63.5" font-family="Helvetica,sans-Serif" font-size="10.00">QObject</text>
</g>
<!-- Node13&#45;&gt;Node22 -->
<g id="edge21" class="edge"><title>Node13&#45;&gt;Node22</title>
<path fill="none" stroke="midnightblue" d="M1982.47,-345.155C1901.33,-345.059 1662.66,-341.03 1470,-300 1366.54,-277.967 1297.7,-286.831 1260,-188 1217.59,-76.8321 1443.37,-66.1561 1534.34,-66.2816"/>
<polygon fill="midnightblue" stroke="midnightblue" points="1534.47,-69.7823 1544.49,-66.3417 1534.51,-62.7824 1534.47,-69.7823"/>
</g>
<!-- Node23 -->
<g id="node23" class="node"><title>Node23</title>
<g id="a_node23"><a xlink:href="../../d4/dca/_roomba_connect_8h.xhtml" target="_top" xlink:title="RoombaConnect.h">
<polygon fill="white" stroke="black" points="1606.5,-224.5 1606.5,-243.5 1703.5,-243.5 1703.5,-224.5 1606.5,-224.5"/>
<text text-anchor="middle" x="1655" y="-231.5" font-family="Helvetica,sans-Serif" font-size="10.00">RoombaConnect.h</text>
</a>
</g>
</g>
<!-- Node13&#45;&gt;Node23 -->
<g id="edge22" class="edge"><title>Node13&#45;&gt;Node23</title>
<path fill="none" stroke="midnightblue" d="M1982.31,-342.667C1918.99,-337.173 1769.29,-322.189 1724,-300 1701.02,-288.742 1680.5,-267.182 1667.93,-251.987"/>
<polygon fill="midnightblue" stroke="midnightblue" points="1670.46,-249.542 1661.49,-243.901 1664.98,-253.904 1670.46,-249.542"/>
</g>
<!-- Node37 -->
<g id="node37" class="node"><title>Node37</title>
<g id="a_node37"><a xlink:href="../../da/d4b/controllingroomba_8h.xhtml" target="_top" xlink:title="controllingroomba.h">
<polygon fill="white" stroke="black" points="1843.5,-280.5 1843.5,-299.5 1944.5,-299.5 1944.5,-280.5 1843.5,-280.5"/>
<text text-anchor="middle" x="1894" y="-287.5" font-family="Helvetica,sans-Serif" font-size="10.00">controllingroomba.h</text>
</a>
</g>
</g>
<!-- Node13&#45;&gt;Node37 -->
<g id="edge53" class="edge"><title>Node13&#45;&gt;Node37</title>
<path fill="none" stroke="midnightblue" d="M1992.46,-336.444C1973.38,-327.636 1943.43,-313.812 1921.56,-303.722"/>
<polygon fill="midnightblue" stroke="midnightblue" points="1923,-300.529 1912.45,-299.516 1920.07,-306.885 1923,-300.529"/>
</g>
<!-- Node36 -->
<g id="node36" class="node"><title>Node36</title>
<g id="a_node36"><a xlink:href="../../d4/d25/sensordata_8h.xhtml" target="_top" xlink:title="sensordata.h">
<polygon fill="white" stroke="black" points="1613.5,-168.5 1613.5,-187.5 1686.5,-187.5 1686.5,-168.5 1613.5,-168.5"/>
<text text-anchor="middle" x="1650" y="-175.5" font-family="Helvetica,sans-Serif" font-size="10.00">sensordata.h</text>
</a>
</g>
</g>
<!-- Node13&#45;&gt;Node36 -->
<g id="edge63" class="edge"><title>Node13&#45;&gt;Node36</title>
<path fill="none" stroke="midnightblue" d="M1982.45,-340.752C1946.65,-334.754 1883.9,-322.005 1834,-300 1799.85,-284.941 1710.77,-222.476 1670.41,-193.67"/>
<polygon fill="midnightblue" stroke="midnightblue" points="1672.3,-190.72 1662.13,-187.747 1668.23,-196.413 1672.3,-190.72"/>
</g>
<!-- Node32 -->
<g id="node32" class="node"><title>Node32</title>
<g id="a_node32"><a xlink:href="../../dc/d96/jsoncommand_8h.xhtml" target="_top" xlink:title="../resources/jsoncommand.h">
<polygon fill="white" stroke="black" points="2013,-168.5 2013,-187.5 2153,-187.5 2153,-168.5 2013,-168.5"/>
<text text-anchor="middle" x="2083" y="-175.5" font-family="Helvetica,sans-Serif" font-size="10.00">../resources/jsoncommand.h</text>
</a>
</g>
</g>
<!-- Node13&#45;&gt;Node32 -->
<g id="edge64" class="edge"><title>Node13&#45;&gt;Node32</title>
<path fill="none" stroke="midnightblue" d="M2013.87,-336.491C2018.14,-323.983 2026.59,-299.955 2035,-280 2047.51,-250.29 2063.99,-216.627 2074.02,-196.64"/>
<polygon fill="midnightblue" stroke="midnightblue" points="2077.24,-198.032 2078.63,-187.528 2070.99,-194.875 2077.24,-198.032"/>
</g>
<!-- Node33 -->
<g id="node33" class="node"><title>Node33</title>
<g id="a_node33"><a xlink:href="../../d4/d05/json_8h.xhtml" target="_top" xlink:title="json.h">
<polygon fill="white" stroke="black" points="1646.5,-112.5 1646.5,-131.5 1689.5,-131.5 1689.5,-112.5 1646.5,-112.5"/>
<text text-anchor="middle" x="1668" y="-119.5" font-family="Helvetica,sans-Serif" font-size="10.00">json.h</text>
</a>
</g>
</g>
<!-- Node13&#45;&gt;Node33 -->
<g id="edge65" class="edge"><title>Node13&#45;&gt;Node33</title>
<path fill="none" stroke="midnightblue" d="M1982.46,-343.694C1857.16,-337.298 1357.93,-304.702 1268,-188 1262.57,-180.959 1262.08,-174.627 1268,-168 1280.28,-154.264 1543.8,-132.619 1636.27,-125.419"/>
<polygon fill="midnightblue" stroke="midnightblue" points="1636.73,-128.894 1646.43,-124.633 1636.19,-121.915 1636.73,-128.894"/>
</g>
<!-- Node27 -->
<g id="node27" class="node"><title>Node27</title>
<g id="a_node27"><a xlink:href="../../d7/d62/clslog_8h.xhtml" target="_top" xlink:title="../resources/clslog.h">
<polygon fill="white" stroke="black" points="1943.5,-56.5 1943.5,-75.5 2048.5,-75.5 2048.5,-56.5 1943.5,-56.5"/>
<text text-anchor="middle" x="1996" y="-63.5" font-family="Helvetica,sans-Serif" font-size="10.00">../resources/clslog.h</text>
</a>
</g>
</g>
<!-- Node13&#45;&gt;Node27 -->
<g id="edge66" class="edge"><title>Node13&#45;&gt;Node27</title>
<path fill="none" stroke="midnightblue" d="M2039.54,-344.536C2112.8,-342.843 2305.41,-335.084 2357,-300 2384.31,-281.431 2393,-268.024 2393,-235 2393,-235 2393,-235 2393,-177 2393,-146.501 2394.68,-131.223 2371,-112 2324.45,-74.2057 2153.01,-67.4457 2058.89,-66.6669"/>
<polygon fill="midnightblue" stroke="midnightblue" points="2058.66,-63.1655 2048.64,-66.6032 2058.62,-70.1654 2058.66,-63.1655"/>
</g>
<!-- Node35 -->
<g id="node35" class="node"><title>Node35</title>
<g id="a_node35"><a xlink:href="../../db/d97/clsevent_8h.xhtml" target="_top" xlink:title="../resources/clsevent.h">
<polygon fill="white" stroke="black" points="1746.5,-112.5 1746.5,-131.5 1861.5,-131.5 1861.5,-112.5 1746.5,-112.5"/>
<text text-anchor="middle" x="1804" y="-119.5" font-family="Helvetica,sans-Serif" font-size="10.00">../resources/clsevent.h</text>
</a>
</g>
</g>
<!-- Node13&#45;&gt;Node35 -->
<g id="edge67" class="edge"><title>Node13&#45;&gt;Node35</title>
<path fill="none" stroke="midnightblue" d="M2018.18,-336.403C2028.79,-323.784 2049.43,-299.619 2068,-280 2112.68,-232.808 2204.99,-216.734 2162,-168 2143.16,-146.648 1970.5,-132.927 1872.02,-126.767"/>
<polygon fill="midnightblue" stroke="midnightblue" points="1872.05,-123.263 1861.85,-126.142 1871.62,-130.249 1872.05,-123.263"/>
</g>
<!-- Node23&#45;&gt;Node15 -->
<g id="edge23" class="edge"><title>Node23&#45;&gt;Node15</title>
<path fill="none" stroke="midnightblue" d="M1637.42,-224.439C1622.3,-216.475 1600.53,-203.521 1585,-188 1535.09,-138.131 1495.63,-62.8325 1479.24,-28.807"/>
<polygon fill="midnightblue" stroke="midnightblue" points="1482.35,-27.1898 1474.91,-19.6462 1476.02,-30.1826 1482.35,-27.1898"/>
</g>
<!-- Node23&#45;&gt;Node16 -->
<g id="edge24" class="edge"><title>Node23&#45;&gt;Node16</title>
<path fill="none" stroke="midnightblue" d="M1699.05,-224.444C1754.65,-213.643 1849.08,-195.301 1899.28,-185.55"/>
<polygon fill="midnightblue" stroke="midnightblue" points="1900.14,-188.948 1909.29,-183.605 1898.81,-182.076 1900.14,-188.948"/>
</g>
<!-- Node23&#45;&gt;Node22 -->
<g id="edge25" class="edge"><title>Node23&#45;&gt;Node22</title>
<path fill="none" stroke="midnightblue" d="M1638.95,-224.48C1625.9,-216.71 1608.06,-204.013 1598,-188 1577.84,-155.918 1572.64,-110.742 1571.36,-85.6504"/>
<polygon fill="midnightblue" stroke="midnightblue" points="1574.85,-85.5245 1571,-75.6544 1567.86,-85.7718 1574.85,-85.5245"/>
</g>
<!-- Node24 -->
<g id="node24" class="node"><title>Node24</title>
<polygon fill="white" stroke="#bfbfbf" points="1781.5,-168.5 1781.5,-187.5 1852.5,-187.5 1852.5,-168.5 1781.5,-168.5"/>
<text text-anchor="middle" x="1817" y="-175.5" font-family="Helvetica,sans-Serif" font-size="10.00">QTcpSocket</text>
</g>
<!-- Node23&#45;&gt;Node24 -->
<g id="edge26" class="edge"><title>Node23&#45;&gt;Node24</title>
<path fill="none" stroke="midnightblue" d="M1680.67,-224.444C1707.92,-215.359 1751.18,-200.939 1781.65,-190.783"/>
<polygon fill="midnightblue" stroke="midnightblue" points="1783.07,-193.999 1791.45,-187.516 1780.86,-187.358 1783.07,-193.999"/>
</g>
<!-- Node25 -->
<g id="node25" class="node"><title>Node25</title>
<polygon fill="white" stroke="#bfbfbf" points="1277,-168.5 1277,-187.5 1351,-187.5 1351,-168.5 1277,-168.5"/>
<text text-anchor="middle" x="1314" y="-175.5" font-family="Helvetica,sans-Serif" font-size="10.00">QTextStream</text>
</g>
<!-- Node23&#45;&gt;Node25 -->
<g id="edge27" class="edge"><title>Node23&#45;&gt;Node25</title>
<path fill="none" stroke="midnightblue" d="M1606.35,-226.215C1549.85,-218.194 1453.58,-204.091 1361.21,-188.153"/>
<polygon fill="midnightblue" stroke="midnightblue" points="1361.58,-184.665 1351.13,-186.403 1360.39,-191.562 1361.58,-184.665"/>
</g>
<!-- Node26 -->
<g id="node26" class="node"><title>Node26</title>
<polygon fill="white" stroke="#bfbfbf" points="1369.5,-168.5 1369.5,-187.5 1414.5,-187.5 1414.5,-168.5 1369.5,-168.5"/>
<text text-anchor="middle" x="1392" y="-175.5" font-family="Helvetica,sans-Serif" font-size="10.00">QTime</text>
</g>
<!-- Node23&#45;&gt;Node26 -->
<g id="edge28" class="edge"><title>Node23&#45;&gt;Node26</title>
<path fill="none" stroke="midnightblue" d="M1606.08,-224.669C1561.35,-216.782 1493.17,-204.089 1424.76,-188.018"/>
<polygon fill="midnightblue" stroke="midnightblue" points="1425.2,-184.526 1414.67,-185.622 1423.59,-191.337 1425.2,-184.526"/>
</g>
<!-- Node23&#45;&gt;Node27 -->
<g id="edge29" class="edge"><title>Node23&#45;&gt;Node27</title>
<path fill="none" stroke="midnightblue" d="M1671.56,-224.46C1688.6,-215.593 1715.86,-201.196 1739,-188 1753.9,-179.503 1756.55,-175.436 1772,-168 1813.81,-147.882 1827.52,-150.673 1870,-132 1906.36,-116.015 1946.95,-94.3524 1971.99,-80.5232"/>
<polygon fill="midnightblue" stroke="midnightblue" points="1973.74,-83.5531 1980.78,-75.6348 1970.34,-77.4351 1973.74,-83.5531"/>
</g>
<!-- Node31 -->
<g id="node31" class="node"><title>Node31</title>
<polygon fill="white" stroke="#bfbfbf" points="1433,-168.5 1433,-187.5 1481,-187.5 1481,-168.5 1433,-168.5"/>
<text text-anchor="middle" x="1457" y="-175.5" font-family="Helvetica,sans-Serif" font-size="10.00">QTimer</text>
</g>
<!-- Node23&#45;&gt;Node31 -->
<g id="edge35" class="edge"><title>Node23&#45;&gt;Node31</title>
<path fill="none" stroke="midnightblue" d="M1623.63,-224.444C1587.44,-214.576 1528.18,-198.413 1490.94,-188.258"/>
<polygon fill="midnightblue" stroke="midnightblue" points="1491.63,-184.818 1481.06,-185.563 1489.79,-191.571 1491.63,-184.818"/>
</g>
<!-- Node23&#45;&gt;Node32 -->
<g id="edge36" class="edge"><title>Node23&#45;&gt;Node32</title>
<path fill="none" stroke="midnightblue" d="M1703.68,-226.858C1777.23,-217.578 1917.41,-199.893 2005.22,-188.814"/>
<polygon fill="midnightblue" stroke="midnightblue" points="2005.91,-192.254 2015.39,-187.53 2005.03,-185.309 2005.91,-192.254"/>
</g>
<!-- Node23&#45;&gt;Node33 -->
<g id="edge43" class="edge"><title>Node23&#45;&gt;Node33</title>
<path fill="none" stroke="midnightblue" d="M1639.76,-224.488C1620.83,-212.725 1592.37,-190.404 1604,-168 1611.15,-154.226 1624.67,-143.783 1637.45,-136.441"/>
<polygon fill="midnightblue" stroke="midnightblue" points="1639.32,-139.412 1646.52,-131.64 1636.04,-133.225 1639.32,-139.412"/>
</g>
<!-- Node23&#45;&gt;Node35 -->
<g id="edge44" class="edge"><title>Node23&#45;&gt;Node35</title>
<path fill="none" stroke="midnightblue" d="M1665.73,-224.4C1681.57,-211.778 1712.22,-187.61 1739,-168 1753.26,-157.56 1769.61,-146.239 1782.35,-137.564"/>
<polygon fill="midnightblue" stroke="midnightblue" points="1784.59,-140.273 1790.91,-131.765 1780.67,-134.479 1784.59,-140.273"/>
</g>
<!-- Node23&#45;&gt;Node36 -->
<g id="edge50" class="edge"><title>Node23&#45;&gt;Node36</title>
<path fill="none" stroke="midnightblue" d="M1654.17,-224.083C1653.52,-217.006 1652.58,-206.861 1651.76,-197.986"/>
<polygon fill="midnightblue" stroke="midnightblue" points="1655.22,-197.386 1650.81,-187.751 1648.25,-198.031 1655.22,-197.386"/>
</g>
<!-- Node27&#45;&gt;Node15 -->
<g id="edge30" class="edge"><title>Node27&#45;&gt;Node15</title>
<path fill="none" stroke="midnightblue" d="M1943.26,-59.575C1836.71,-48.6154 1598.21,-24.084 1507.22,-14.7252"/>
<polygon fill="midnightblue" stroke="midnightblue" points="1507.43,-11.2283 1497.12,-13.6867 1506.71,-18.1916 1507.43,-11.2283"/>
</g>
<!-- Node28 -->
<g id="node28" class="node"><title>Node28</title>
<polygon fill="white" stroke="#bfbfbf" points="1796.5,-0.5 1796.5,-19.5 1861.5,-19.5 1861.5,-0.5 1796.5,-0.5"/>
<text text-anchor="middle" x="1829" y="-7.5" font-family="Helvetica,sans-Serif" font-size="10.00">QDateTime</text>
</g>
<!-- Node27&#45;&gt;Node28 -->
<g id="edge31" class="edge"><title>Node27&#45;&gt;Node28</title>
<path fill="none" stroke="midnightblue" d="M1969.54,-56.4435C1941.32,-47.3196 1896.46,-32.8133 1865.03,-22.6509"/>
<polygon fill="midnightblue" stroke="midnightblue" points="1865.93,-19.263 1855.34,-19.5164 1863.78,-25.9234 1865.93,-19.263"/>
</g>
<!-- Node29 -->
<g id="node29" class="node"><title>Node29</title>
<polygon fill="white" stroke="#bfbfbf" points="1993.5,-0.5 1993.5,-19.5 2034.5,-19.5 2034.5,-0.5 1993.5,-0.5"/>
<text text-anchor="middle" x="2014" y="-7.5" font-family="Helvetica,sans-Serif" font-size="10.00">string</text>
</g>
<!-- Node27&#45;&gt;Node29 -->
<g id="edge32" class="edge"><title>Node27&#45;&gt;Node29</title>
<path fill="none" stroke="midnightblue" d="M1998.97,-56.083C2001.38,-48.8486 2004.86,-38.4087 2007.87,-29.3968"/>
<polygon fill="midnightblue" stroke="midnightblue" points="2011.24,-30.3447 2011.08,-19.7511 2004.6,-28.1311 2011.24,-30.3447"/>
</g>
<!-- Node27&#45;&gt;Node20 -->
<g id="edge33" class="edge"><title>Node27&#45;&gt;Node20</title>
<path fill="none" stroke="midnightblue" d="M2039.1,-56.4435C2091.96,-45.9486 2180.7,-28.3321 2230.74,-18.397"/>
<polygon fill="midnightblue" stroke="midnightblue" points="2231.68,-21.7792 2240.81,-16.3989 2230.32,-14.9132 2231.68,-21.7792"/>
</g>
<!-- Node30 -->
<g id="node30" class="node"><title>Node30</title>
<polygon fill="white" stroke="#bfbfbf" points="1910.5,-0.5 1910.5,-19.5 1975.5,-19.5 1975.5,-0.5 1910.5,-0.5"/>
<text text-anchor="middle" x="1943" y="-7.5" font-family="Helvetica,sans-Serif" font-size="10.00">QStringList</text>
</g>
<!-- Node27&#45;&gt;Node30 -->
<g id="edge34" class="edge"><title>Node27&#45;&gt;Node30</title>
<path fill="none" stroke="midnightblue" d="M1987.25,-56.083C1979.53,-48.2195 1968.1,-36.5688 1958.78,-27.0813"/>
<polygon fill="midnightblue" stroke="midnightblue" points="1961.09,-24.4363 1951.59,-19.7511 1956.1,-29.3396 1961.09,-24.4363"/>
</g>
<!-- Node32&#45;&gt;Node22 -->
<g id="edge37" class="edge"><title>Node32&#45;&gt;Node22</title>
<path fill="none" stroke="midnightblue" d="M2012.88,-170.749C1927.05,-162.599 1786.96,-147.542 1737,-132 1718.4,-126.214 1715.89,-119.715 1698,-112 1668.04,-99.0784 1633.02,-86.8784 1607.36,-78.4498"/>
<polygon fill="midnightblue" stroke="midnightblue" points="1608.26,-75.0617 1597.66,-75.2998 1606.09,-81.719 1608.26,-75.0617"/>
</g>
<!-- Node32&#45;&gt;Node19 -->
<g id="edge38" class="edge"><title>Node32&#45;&gt;Node19</title>
<path fill="none" stroke="midnightblue" d="M2121.35,-168.444C2163.72,-158.988 2232,-143.751 2277.68,-133.56"/>
<polygon fill="midnightblue" stroke="midnightblue" points="2278.63,-136.933 2287.63,-131.339 2277.11,-130.101 2278.63,-136.933"/>
</g>
<!-- Node32&#45;&gt;Node33 -->
<g id="edge39" class="edge"><title>Node32&#45;&gt;Node33</title>
<path fill="none" stroke="midnightblue" d="M2012.75,-171.345C1936.36,-164.572 1810.88,-151.624 1704,-132 1702.53,-131.731 1701.04,-131.437 1699.53,-131.125"/>
<polygon fill="midnightblue" stroke="midnightblue" points="1700.13,-127.672 1689.61,-128.873 1698.58,-134.498 1700.13,-127.672"/>
</g>
<!-- Node32&#45;&gt;Node27 -->
<g id="edge42" class="edge"><title>Node32&#45;&gt;Node27</title>
<path fill="none" stroke="midnightblue" d="M2076.17,-168.368C2061.75,-150.135 2027.97,-107.426 2009.19,-83.6752"/>
<polygon fill="midnightblue" stroke="midnightblue" points="2011.74,-81.2636 2002.8,-75.5914 2006.25,-85.606 2011.74,-81.2636"/>
</g>
<!-- Node34 -->
<g id="node34" class="node"><title>Node34</title>
<polygon fill="white" stroke="#bfbfbf" points="1640.5,-56.5 1640.5,-75.5 1695.5,-75.5 1695.5,-56.5 1640.5,-56.5"/>
<text text-anchor="middle" x="1668" y="-63.5" font-family="Helvetica,sans-Serif" font-size="10.00">QVariant</text>
</g>
<!-- Node33&#45;&gt;Node34 -->
<g id="edge40" class="edge"><title>Node33&#45;&gt;Node34</title>
<path fill="none" stroke="midnightblue" d="M1668,-112.083C1668,-105.006 1668,-94.8611 1668,-85.9865"/>
<polygon fill="midnightblue" stroke="midnightblue" points="1671.5,-85.751 1668,-75.7511 1664.5,-85.7511 1671.5,-85.751"/>
</g>
<!-- Node33&#45;&gt;Node14 -->
<g id="edge41" class="edge"><title>Node33&#45;&gt;Node14</title>
<path fill="none" stroke="midnightblue" d="M1689.68,-114.806C1722.08,-105.549 1783.45,-88.0134 1822.18,-76.9475"/>
<polygon fill="midnightblue" stroke="midnightblue" points="1823.33,-80.259 1831.99,-74.1464 1821.41,-73.5283 1823.33,-80.259"/>
</g>
<!-- Node35&#45;&gt;Node22 -->
<g id="edge45" class="edge"><title>Node35&#45;&gt;Node22</title>
<path fill="none" stroke="midnightblue" d="M1767.08,-112.444C1723.36,-102.312 1651.01,-85.5427 1607.48,-75.4553"/>
<polygon fill="midnightblue" stroke="midnightblue" points="1608.13,-72.0131 1597.6,-73.1649 1606.55,-78.8324 1608.13,-72.0131"/>
</g>
<!-- Node35&#45;&gt;Node14 -->
<g id="edge46" class="edge"><title>Node35&#45;&gt;Node14</title>
<path fill="none" stroke="midnightblue" d="M1812.75,-112.083C1820.47,-104.22 1831.9,-92.5688 1841.22,-83.0813"/>
<polygon fill="midnightblue" stroke="midnightblue" points="1843.9,-85.3396 1848.41,-75.7511 1838.91,-80.4363 1843.9,-85.3396"/>
</g>
<!-- Node35&#45;&gt;Node34 -->
<g id="edge47" class="edge"><title>Node35&#45;&gt;Node34</title>
<path fill="none" stroke="midnightblue" d="M1782.45,-112.444C1759.97,-103.517 1724.51,-89.4387 1699.02,-79.3168"/>
<polygon fill="midnightblue" stroke="midnightblue" points="1700.03,-75.9539 1689.45,-75.5164 1697.45,-82.4598 1700.03,-75.9539"/>
</g>
<!-- Node35&#45;&gt;Node28 -->
<g id="edge48" class="edge"><title>Node35&#45;&gt;Node28</title>
<path fill="none" stroke="midnightblue" d="M1805.96,-112.368C1810,-94.617 1819.3,-53.6664 1824.77,-29.5974"/>
<polygon fill="midnightblue" stroke="midnightblue" points="1828.24,-30.1185 1827.05,-19.5914 1821.42,-28.567 1828.24,-30.1185"/>
</g>
<!-- Node35&#45;&gt;Node27 -->
<g id="edge49" class="edge"><title>Node35&#45;&gt;Node27</title>
<path fill="none" stroke="midnightblue" d="M1834.42,-112.444C1867.28,-103.201 1919.78,-88.4356 1955.97,-78.2572"/>
<polygon fill="midnightblue" stroke="midnightblue" points="1957.04,-81.5932 1965.72,-75.5164 1955.15,-74.8547 1957.04,-81.5932"/>
</g>
<!-- Node36&#45;&gt;Node35 -->
<g id="edge51" class="edge"><title>Node36&#45;&gt;Node35</title>
<path fill="none" stroke="midnightblue" d="M1674.4,-168.444C1700.2,-159.399 1741.08,-145.064 1770.02,-134.916"/>
<polygon fill="midnightblue" stroke="midnightblue" points="1771.43,-138.128 1779.71,-131.516 1769.12,-131.523 1771.43,-138.128"/>
</g>
<!-- Node36&#45;&gt;Node34 -->
<g id="edge52" class="edge"><title>Node36&#45;&gt;Node34</title>
<path fill="none" stroke="midnightblue" d="M1645.62,-168.445C1639.77,-155.879 1630.85,-131.78 1637,-112 1640.23,-101.622 1646.78,-91.5209 1653.02,-83.5268"/>
<polygon fill="midnightblue" stroke="midnightblue" points="1655.79,-85.6818 1659.52,-75.7661 1650.42,-81.1902 1655.79,-85.6818"/>
</g>
<!-- Node37&#45;&gt;Node33 -->
<g id="edge54" class="edge"><title>Node37&#45;&gt;Node33</title>
<path fill="none" stroke="midnightblue" d="M1858.15,-280.397C1839.12,-273.81 1817.37,-262.589 1806,-244 1801.36,-236.418 1801.77,-231.819 1806,-224 1819.89,-198.3 1847.11,-213.7 1861,-188 1865.23,-180.181 1866.58,-174.916 1861,-168 1815.35,-111.463 1771.09,-148.904 1699.34,-133.128"/>
<polygon fill="midnightblue" stroke="midnightblue" points="1700.05,-129.699 1689.5,-130.667 1698.35,-136.49 1700.05,-129.699"/>
</g>
<!-- Node37&#45;&gt;Node32 -->
<g id="edge55" class="edge"><title>Node37&#45;&gt;Node32</title>
<path fill="none" stroke="midnightblue" d="M1912.37,-280.429C1930.59,-271.766 1959.14,-257.733 1983,-244 2011.17,-227.787 2042.39,-207.02 2062.33,-193.379"/>
<polygon fill="midnightblue" stroke="midnightblue" points="2064.39,-196.207 2070.64,-187.654 2060.42,-190.441 2064.39,-196.207"/>
</g>
<!-- Node37&#45;&gt;Node23 -->
<g id="edge56" class="edge"><title>Node37&#45;&gt;Node23</title>
<path fill="none" stroke="midnightblue" d="M1856.13,-280.444C1814.52,-271.043 1747.63,-255.929 1702.53,-245.739"/>
<polygon fill="midnightblue" stroke="midnightblue" points="1703.22,-242.306 1692.69,-243.516 1701.68,-249.134 1703.22,-242.306"/>
</g>
<!-- Node37&#45;&gt;Node27 -->
<g id="edge57" class="edge"><title>Node37&#45;&gt;Node27</title>
<path fill="none" stroke="midnightblue" d="M1944.54,-286.37C2007.57,-280.058 2112.99,-258.844 2162,-188 2198.71,-134.936 2100.61,-96.4389 2039.92,-78.4238"/>
<polygon fill="midnightblue" stroke="midnightblue" points="2040.74,-75.0177 2030.17,-75.6065 2038.8,-81.743 2040.74,-75.0177"/>
</g>
<!-- Node37&#45;&gt;Node35 -->
<g id="edge58" class="edge"><title>Node37&#45;&gt;Node35</title>
<path fill="none" stroke="midnightblue" d="M1906.11,-280.351C1933.34,-259.872 1994.74,-207.193 1965,-168 1953.28,-152.56 1909.97,-140.982 1871.21,-133.439"/>
<polygon fill="midnightblue" stroke="midnightblue" points="1871.43,-129.919 1860.96,-131.513 1870.14,-136.799 1871.43,-129.919"/>
</g>
<!-- Node37&#45;&gt;Node3 -->
<g id="edge59" class="edge"><title>Node37&#45;&gt;Node3</title>
<path fill="none" stroke="midnightblue" d="M1843.5,-285.31C1704.02,-275.118 1315.75,-246.746 1192.83,-237.764"/>
<polygon fill="midnightblue" stroke="midnightblue" points="1193,-234.267 1182.77,-237.029 1192.48,-241.249 1193,-234.267"/>
</g>
<!-- Node37&#45;&gt;Node24 -->
<g id="edge60" class="edge"><title>Node37&#45;&gt;Node24</title>
<path fill="none" stroke="midnightblue" d="M1892.82,-280.302C1890.69,-267.129 1885.24,-241.775 1873,-224 1864.51,-211.681 1851.69,-201.028 1840.45,-193.183"/>
<polygon fill="midnightblue" stroke="midnightblue" points="1842.16,-190.119 1831.89,-187.516 1838.3,-195.955 1842.16,-190.119"/>
</g>
<!-- Node38 -->
<g id="node38" class="node"><title>Node38</title>
<polygon fill="white" stroke="#bfbfbf" points="1815.5,-224.5 1815.5,-243.5 1864.5,-243.5 1864.5,-224.5 1815.5,-224.5"/>
<text text-anchor="middle" x="1840" y="-231.5" font-family="Helvetica,sans-Serif" font-size="10.00">QSlider</text>
</g>
<!-- Node37&#45;&gt;Node38 -->
<g id="edge61" class="edge"><title>Node37&#45;&gt;Node38</title>
<path fill="none" stroke="midnightblue" d="M1885.08,-280.083C1877.22,-272.22 1865.57,-260.569 1856.08,-251.081"/>
<polygon fill="midnightblue" stroke="midnightblue" points="1858.3,-248.347 1848.75,-243.751 1853.35,-253.297 1858.3,-248.347"/>
</g>
<!-- Node37&#45;&gt;Node16 -->
<g id="edge62" class="edge"><title>Node37&#45;&gt;Node16</title>
<path fill="none" stroke="midnightblue" d="M1897.06,-280.368C1903.38,-262.537 1918,-221.295 1926.52,-197.272"/>
<polygon fill="midnightblue" stroke="midnightblue" points="1929.91,-198.186 1929.95,-187.591 1923.31,-195.847 1929.91,-198.186"/>
</g>
</g>
</svg>
