<?xml version="1.0" encoding="UTF-8" standalone="no"?>
<!DOCTYPE svg PUBLIC "-//W3C//DTD SVG 1.1//EN"
 "http://www.w3.org/Graphics/SVG/1.1/DTD/svg11.dtd">
<!-- Generated by graphviz version 2.30.1 (20130214.1330)
 -->
<!-- Title: shared::events::eventServerMessage Pages: 1 -->
<svg width="142pt" height="532pt"
 viewBox="0.00 0.00 142.00 532.00" xmlns="http://www.w3.org/2000/svg" xmlns:xlink="http://www.w3.org/1999/xlink">
<g id="graph0" class="graph" transform="scale(1 1) rotate(0) translate(4 528)">
<title>shared::events::eventServerMessage</title>
<polygon fill="white" stroke="white" points="-4,5 -4,-528 139,-528 139,5 -4,5"/>
<!-- Node1 -->
<g id="node1" class="node"><title>Node1</title>
<polygon fill="#bfbfbf" stroke="black" points="-0.5,-0.5 -0.5,-101.5 134.5,-101.5 134.5,-0.5 -0.5,-0.5"/>
<text text-anchor="start" x="7.5" y="-89.5" font-family="Helvetica,sans-Serif" font-size="10.00">shared::events::eventServer</text>
<text text-anchor="middle" x="67" y="-78.5" font-family="Helvetica,sans-Serif" font-size="10.00">Message</text>
<polyline fill="none" stroke="black" points="-0.5,-71.5 134.5,-71.5 "/>
<text text-anchor="middle" x="67" y="-59.5" font-family="Helvetica,sans-Serif" font-size="10.00"> </text>
<polyline fill="none" stroke="black" points="-0.5,-52.5 134.5,-52.5 "/>
<text text-anchor="start" x="7.5" y="-40.5" font-family="Helvetica,sans-Serif" font-size="10.00">+ eventServerMessage()</text>
<text text-anchor="start" x="7.5" y="-29.5" font-family="Helvetica,sans-Serif" font-size="10.00">+ eventServerMessage()</text>
<text text-anchor="start" x="7.5" y="-18.5" font-family="Helvetica,sans-Serif" font-size="10.00">+ getMessage()</text>
<text text-anchor="start" x="7.5" y="-7.5" font-family="Helvetica,sans-Serif" font-size="10.00">+ getLevel()</text>
</g>
<!-- Node2 -->
<g id="node2" class="node"><title>Node2</title>
<g id="a_node2"><a xlink:href="../../db/d8b/classshared_1_1events_1_1cls_event.xhtml" target="_top" xlink:title="The main event class.">
<polygon fill="white" stroke="black" points="6,-140.5 6,-307.5 128,-307.5 128,-140.5 6,-140.5"/>
<text text-anchor="middle" x="67" y="-295.5" font-family="Helvetica,sans-Serif" font-size="10.00">shared::events::clsEvent</text>
<polyline fill="none" stroke="black" points="6,-288.5 128,-288.5 "/>
<text text-anchor="start" x="14" y="-276.5" font-family="Helvetica,sans-Serif" font-size="10.00"># data</text>
<text text-anchor="start" x="14" y="-265.5" font-family="Helvetica,sans-Serif" font-size="10.00"># ourType</text>
<text text-anchor="start" x="14" y="-254.5" font-family="Helvetica,sans-Serif" font-size="10.00"># timeOfEvent</text>
<polyline fill="none" stroke="black" points="6,-247.5 128,-247.5 "/>
<text text-anchor="start" x="14" y="-235.5" font-family="Helvetica,sans-Serif" font-size="10.00">+ clsEvent()</text>
<text text-anchor="start" x="14" y="-224.5" font-family="Helvetica,sans-Serif" font-size="10.00">+ clsEvent()</text>
<text text-anchor="start" x="14" y="-213.5" font-family="Helvetica,sans-Serif" font-size="10.00">+ addToData()</text>
<text text-anchor="start" x="14" y="-202.5" font-family="Helvetica,sans-Serif" font-size="10.00">+ toVariant()</text>
<text text-anchor="start" x="14" y="-191.5" font-family="Helvetica,sans-Serif" font-size="10.00">+ getData()</text>
<text text-anchor="start" x="14" y="-180.5" font-family="Helvetica,sans-Serif" font-size="10.00">+ getType()</text>
<text text-anchor="start" x="14" y="-169.5" font-family="Helvetica,sans-Serif" font-size="10.00">+ getTime()</text>
<text text-anchor="start" x="14" y="-158.5" font-family="Helvetica,sans-Serif" font-size="10.00"># getEventType()</text>
<text text-anchor="start" x="14" y="-147.5" font-family="Helvetica,sans-Serif" font-size="10.00"># setEventType()</text>
</a>
</g>
</g>
<!-- Node2&#45;&gt;Node1 -->
<g id="edge1" class="edge"><title>Node2&#45;&gt;Node1</title>
<path fill="none" stroke="midnightblue" d="M67,-130.105C67,-120.389 67,-110.801 67,-101.849"/>
<polygon fill="none" stroke="midnightblue" points="63.5001,-130.255 67,-140.255 70.5001,-130.255 63.5001,-130.255"/>
</g>
<!-- Node3 -->
<g id="node3" class="node"><title>Node3</title>
<g id="a_node3"><a xlink:href="../../da/d64/class_k4_u_1_1cls_log.xhtml" target="_top" xlink:title="Custom logging class.">
<polygon fill="white" stroke="black" points="27.5,-356.5 27.5,-523.5 106.5,-523.5 106.5,-356.5 27.5,-356.5"/>
<text text-anchor="middle" x="67" y="-511.5" font-family="Helvetica,sans-Serif" font-size="10.00">K4U::clsLog</text>
<polyline fill="none" stroke="black" points="27.5,-504.5 106.5,-504.5 "/>
<text text-anchor="middle" x="67" y="-492.5" font-family="Helvetica,sans-Serif" font-size="10.00"> </text>
<polyline fill="none" stroke="black" points="27.5,-485.5 106.5,-485.5 "/>
<text text-anchor="start" x="35.5" y="-473.5" font-family="Helvetica,sans-Serif" font-size="10.00">+ clsLog()</text>
<text text-anchor="start" x="35.5" y="-462.5" font-family="Helvetica,sans-Serif" font-size="10.00">+ operator&lt;&lt;()</text>
<text text-anchor="start" x="35.5" y="-451.5" font-family="Helvetica,sans-Serif" font-size="10.00">+ operator&lt;&lt;()</text>
<text text-anchor="start" x="35.5" y="-440.5" font-family="Helvetica,sans-Serif" font-size="10.00">+ operator&lt;&lt;()</text>
<text text-anchor="start" x="35.5" y="-429.5" font-family="Helvetica,sans-Serif" font-size="10.00">+ operator&lt;&lt;()</text>
<text text-anchor="start" x="35.5" y="-418.5" font-family="Helvetica,sans-Serif" font-size="10.00">+ operator&lt;&lt;()</text>
<text text-anchor="start" x="35.5" y="-407.5" font-family="Helvetica,sans-Serif" font-size="10.00">+ operator&lt;&lt;()</text>
<text text-anchor="start" x="35.5" y="-396.5" font-family="Helvetica,sans-Serif" font-size="10.00">+ operator&lt;&lt;()</text>
<text text-anchor="start" x="35.5" y="-385.5" font-family="Helvetica,sans-Serif" font-size="10.00">+ operator&lt;&lt;()</text>
<text text-anchor="start" x="35.5" y="-374.5" font-family="Helvetica,sans-Serif" font-size="10.00">+ operator&lt;&lt;()</text>
<text text-anchor="start" x="35.5" y="-363.5" font-family="Helvetica,sans-Serif" font-size="10.00">and 6 more...</text>
</a>
</g>
</g>
<!-- Node3&#45;&gt;Node2 -->
<g id="edge2" class="edge"><title>Node3&#45;&gt;Node2</title>
<path fill="none" stroke="#404040" d="M67,-356.262C67,-344.265 67,-331.839 67,-319.63"/>
<polygon fill="none" stroke="#404040" points="67.0001,-319.518 63,-313.518 67,-307.518 71,-313.518 67.0001,-319.518"/>
<text text-anchor="middle" x="78" y="-329.5" font-family="Helvetica,sans-Serif" font-size="10.00"> #log</text>
</g>
</g>
</svg>
