<?xml version="1.0" encoding="UTF-8" standalone="no"?>
<!DOCTYPE svg PUBLIC "-//W3C//DTD SVG 1.1//EN"
 "http://www.w3.org/Graphics/SVG/1.1/DTD/svg11.dtd">
<!-- Generated by graphviz version 2.30.1 (20130214.1330)
 -->
<!-- Title: GUI/Gui&#45;RoombaV1.0/main.cpp Pages: 1 -->
<!--zoomable 432 -->
<svg id="main" version="1.1" xmlns="http://www.w3.org/2000/svg" xmlns:xlink="http://www.w3.org/1999/xlink" xml:space="preserve" onload="init(evt)">
        <defs>
                <circle id="rim" cx="0" cy="0" r="7"/>
                <circle id="rim2" cx="0" cy="0" r="3.5"/>
                <g id="zoomPlus">
                        <use xlink:href="#rim" fill="#404040">
                                <set attributeName="fill" to="#808080" begin="zoomplus.mouseover" end="zoomplus.mouseout"/>
                        </use>
                        <path d="M-4,0h8M0,-4v8" fill="none" stroke="white" stroke-width="1.5" pointer-events="none"/>
                </g>
                <g id="zoomMin">
                        <use xlink:href="#rim" fill="#404040">
                                <set attributeName="fill" to="#808080" begin="zoomminus.mouseover" end="zoomminus.mouseout"/>
                        </use>
                        <path d="M-4,0h8" fill="none" stroke="white" stroke-width="1.5" pointer-events="none"/>
                </g>
                <g id="dirArrow">
                        <path fill="none" stroke="white" stroke-width="1.5" d="M0,-3.0v7 M-2.5,-0.5L0,-3.0L2.5,-0.5"/>
                </g>
               <g id="resetDef">
                       <use xlink:href="#rim2" fill="#404040">
                               <set attributeName="fill" to="#808080" begin="reset.mouseover" end="reset.mouseout"/>
                       </use>
               </g>
        </defs>

<script type="text/javascript">
var viewWidth = 1854;
var viewHeight = 432;
var sectionId = 'dynsection-0';
</script>
<script xlink:href="../../svgpan.js"/>
<svg id="graph" class="graph">
<g id="viewport">
<title>GUI/Gui&#45;RoombaV1.0/main.cpp</title>
<polygon fill="white" stroke="white" points="-4,5 -4,-428 1851,-428 1851,5 -4,5"/>
<!-- Node1 -->
<g id="node1" class="node"><title>Node1</title>
<polygon fill="#bfbfbf" stroke="black" points="1279,-393 1279,-423 1389,-423 1389,-393 1279,-393"/>
<text text-anchor="start" x="1287" y="-411" font-family="Helvetica,sans-Serif" font-size="10.00">GUI/Gui&#45;RoombaV1.0</text>
<text text-anchor="middle" x="1334" y="-400" font-family="Helvetica,sans-Serif" font-size="10.00">/main.cpp</text>
</g>
<!-- Node2 -->
<g id="node2" class="node"><title>Node2</title>
<g id="a_node2"><a xlink:href="../../dd/da1/roomba_8h.xhtml" target="_top" xlink:title="roomba.h">
<polygon fill="white" stroke="black" points="1264.5,-336.5 1264.5,-355.5 1321.5,-355.5 1321.5,-336.5 1264.5,-336.5"/>
<text text-anchor="middle" x="1293" y="-343.5" font-family="Helvetica,sans-Serif" font-size="10.00">roomba.h</text>
</a>
</g>
</g>
<!-- Node1&#45;&gt;Node2 -->
<g id="edge1" class="edge"><title>Node1&#45;&gt;Node2</title>
<path fill="none" stroke="midnightblue" d="M1324.28,-392.781C1318.39,-384.152 1310.83,-373.088 1304.62,-363.999"/>
<polygon fill="midnightblue" stroke="midnightblue" points="1307.5,-362.012 1298.97,-355.731 1301.72,-365.962 1307.5,-362.012"/>
</g>
<!-- Node33 -->
<g id="node33" class="node"><title>Node33</title>
<polygon fill="white" stroke="#bfbfbf" points="1340,-336.5 1340,-355.5 1412,-355.5 1412,-336.5 1340,-336.5"/>
<text text-anchor="middle" x="1376" y="-343.5" font-family="Helvetica,sans-Serif" font-size="10.00">QApplication</text>
</g>
<!-- Node1&#45;&gt;Node33 -->
<g id="edge73" class="edge"><title>Node1&#45;&gt;Node33</title>
<path fill="none" stroke="midnightblue" d="M1343.95,-392.781C1349.99,-384.152 1357.74,-373.088 1364.1,-363.999"/>
<polygon fill="midnightblue" stroke="midnightblue" points="1367.02,-365.93 1369.89,-355.731 1361.29,-361.916 1367.02,-365.93"/>
</g>
<!-- Node3 -->
<g id="node3" class="node"><title>Node3</title>
<polygon fill="white" stroke="#bfbfbf" points="165,-56.5 165,-75.5 215,-75.5 215,-56.5 165,-56.5"/>
<text text-anchor="middle" x="190" y="-63.5" font-family="Helvetica,sans-Serif" font-size="10.00">QString</text>
</g>
<!-- Node2&#45;&gt;Node3 -->
<g id="edge2" class="edge"><title>Node2&#45;&gt;Node3</title>
<path fill="none" stroke="midnightblue" d="M1264.19,-344.464C1121.91,-341.701 493.409,-328.091 300,-300 181.271,-282.756 38,-354.974 38,-235 38,-235 38,-235 38,-177 38,-119.461 110.368,-88.9546 155.235,-75.5703"/>
<polygon fill="midnightblue" stroke="midnightblue" points="156.238,-78.924 164.9,-72.8231 154.324,-72.1907 156.238,-78.924"/>
</g>
<!-- Node4 -->
<g id="node4" class="node"><title>Node4</title>
<polygon fill="white" stroke="#bfbfbf" points="88,-0.5 88,-19.5 140,-19.5 140,-0.5 88,-0.5"/>
<text text-anchor="middle" x="114" y="-7.5" font-family="Helvetica,sans-Serif" font-size="10.00">QDebug</text>
</g>
<!-- Node2&#45;&gt;Node4 -->
<g id="edge3" class="edge"><title>Node2&#45;&gt;Node4</title>
<path fill="none" stroke="midnightblue" d="M1264.25,-344.674C1082.82,-342.53 102.434,-329.598 47,-300 15.5521,-283.209 0,-270.65 0,-235 0,-235 0,-235 0,-121 0,-74.1149 50.5515,-40.8944 84.3292,-23.9302"/>
<polygon fill="midnightblue" stroke="midnightblue" points="85.8676,-27.0742 93.3555,-19.5787 82.8277,-20.7687 85.8676,-27.0742"/>
</g>
<!-- Node5 -->
<g id="node5" class="node"><title>Node5</title>
<polygon fill="white" stroke="#bfbfbf" points="1254.5,-168.5 1254.5,-187.5 1301.5,-187.5 1301.5,-168.5 1254.5,-168.5"/>
<text text-anchor="middle" x="1278" y="-175.5" font-family="Helvetica,sans-Serif" font-size="10.00">QtCore</text>
</g>
<!-- Node2&#45;&gt;Node5 -->
<g id="edge4" class="edge"><title>Node2&#45;&gt;Node5</title>
<path fill="none" stroke="midnightblue" d="M1292.19,-336.075C1289.83,-309.945 1282.9,-233.211 1279.68,-197.577"/>
<polygon fill="midnightblue" stroke="midnightblue" points="1283.16,-197.213 1278.77,-187.568 1276.19,-197.843 1283.16,-197.213"/>
</g>
<!-- Node6 -->
<g id="node6" class="node"><title>Node6</title>
<polygon fill="white" stroke="#bfbfbf" points="1706,-280.5 1706,-299.5 1748,-299.5 1748,-280.5 1706,-280.5"/>
<text text-anchor="middle" x="1727" y="-287.5" font-family="Helvetica,sans-Serif" font-size="10.00">vector</text>
</g>
<!-- Node2&#45;&gt;Node6 -->
<g id="edge5" class="edge"><title>Node2&#45;&gt;Node6</title>
<path fill="none" stroke="midnightblue" d="M1321.55,-337.807C1324.73,-337.136 1327.92,-336.515 1331,-336 1490.02,-309.361 1533.24,-328.159 1692,-300 1693.25,-299.778 1694.52,-299.535 1695.81,-299.275"/>
<polygon fill="midnightblue" stroke="midnightblue" points="1696.66,-302.669 1705.64,-297.042 1695.11,-295.843 1696.66,-302.669"/>
</g>
<!-- Node7 -->
<g id="node7" class="node"><title>Node7</title>
<polygon fill="white" stroke="#bfbfbf" points="1279.5,-112.5 1279.5,-131.5 1332.5,-131.5 1332.5,-112.5 1279.5,-112.5"/>
<text text-anchor="middle" x="1306" y="-119.5" font-family="Helvetica,sans-Serif" font-size="10.00">QVector</text>
</g>
<!-- Node2&#45;&gt;Node7 -->
<g id="edge6" class="edge"><title>Node2&#45;&gt;Node7</title>
<path fill="none" stroke="midnightblue" d="M1295.05,-336.428C1297.13,-327.413 1300.27,-312.791 1302,-300 1309.87,-241.755 1312.6,-226.717 1310,-168 1309.62,-159.372 1308.82,-149.841 1308.04,-141.78"/>
<polygon fill="midnightblue" stroke="midnightblue" points="1311.5,-141.199 1306.99,-131.612 1304.54,-141.918 1311.5,-141.199"/>
</g>
<!-- Node8 -->
<g id="node8" class="node"><title>Node8</title>
<polygon fill="white" stroke="#bfbfbf" points="1452,-112.5 1452,-131.5 1526,-131.5 1526,-112.5 1452,-112.5"/>
<text text-anchor="middle" x="1489" y="-119.5" font-family="Helvetica,sans-Serif" font-size="10.00">QVariantMap</text>
</g>
<!-- Node2&#45;&gt;Node8 -->
<g id="edge7" class="edge"><title>Node2&#45;&gt;Node8</title>
<path fill="none" stroke="midnightblue" d="M1321.81,-337.009C1345.05,-329.703 1377.89,-317.378 1403,-300 1458.86,-261.344 1482.17,-251.228 1507,-188 1513.14,-172.366 1506.75,-153.846 1499.94,-140.582"/>
<polygon fill="midnightblue" stroke="midnightblue" points="1502.83,-138.575 1494.85,-131.598 1496.74,-142.024 1502.83,-138.575"/>
</g>
<!-- Node9 -->
<g id="node9" class="node"><title>Node9</title>
<polygon fill="white" stroke="#bfbfbf" points="1592,-0.5 1592,-19.5 1646,-19.5 1646,-0.5 1592,-0.5"/>
<text text-anchor="middle" x="1619" y="-7.5" font-family="Helvetica,sans-Serif" font-size="10.00">iostream</text>
</g>
<!-- Node2&#45;&gt;Node9 -->
<g id="edge8" class="edge"><title>Node2&#45;&gt;Node9</title>
<path fill="none" stroke="midnightblue" d="M1321.58,-337.987C1324.75,-337.282 1327.94,-336.604 1331,-336 1488.58,-304.89 1678,-395.622 1678,-235 1678,-235 1678,-235 1678,-121 1678,-84.0242 1651.79,-47.4724 1634.31,-27.2051"/>
<polygon fill="midnightblue" stroke="midnightblue" points="1636.74,-24.6691 1627.45,-19.5623 1631.53,-29.3434 1636.74,-24.6691"/>
</g>
<!-- Node10 -->
<g id="node10" class="node"><title>Node10</title>
<polygon fill="white" stroke="#bfbfbf" points="1766,-280.5 1766,-299.5 1846,-299.5 1846,-280.5 1766,-280.5"/>
<text text-anchor="middle" x="1806" y="-287.5" font-family="Helvetica,sans-Serif" font-size="10.00">QMainWindow</text>
</g>
<!-- Node2&#45;&gt;Node10 -->
<g id="edge9" class="edge"><title>Node2&#45;&gt;Node10</title>
<path fill="none" stroke="midnightblue" d="M1321.54,-337.761C1324.72,-337.098 1327.92,-336.492 1331,-336 1515.42,-306.535 1566.92,-324.552 1755.95,-300.006"/>
<polygon fill="midnightblue" stroke="midnightblue" points="1756.48,-303.466 1765.94,-298.686 1755.57,-296.526 1756.48,-303.466"/>
</g>
<!-- Node11 -->
<g id="node11" class="node"><title>Node11</title>
<polygon fill="white" stroke="#bfbfbf" points="1199.5,-56.5 1199.5,-75.5 1252.5,-75.5 1252.5,-56.5 1199.5,-56.5"/>
<text text-anchor="middle" x="1226" y="-63.5" font-family="Helvetica,sans-Serif" font-size="10.00">QObject</text>
</g>
<!-- Node2&#45;&gt;Node11 -->
<g id="edge10" class="edge"><title>Node2&#45;&gt;Node11</title>
<path fill="none" stroke="midnightblue" d="M1321.75,-336.511C1391.49,-315.505 1564,-260.928 1564,-235 1564,-235 1564,-235 1564,-177 1564,-145.366 1560.22,-131.091 1535,-112 1524.21,-103.83 1342.07,-81.006 1262.6,-71.3755"/>
<polygon fill="midnightblue" stroke="midnightblue" points="1262.89,-67.8849 1252.54,-70.1606 1262.05,-74.8344 1262.89,-67.8849"/>
</g>
<!-- Node12 -->
<g id="node12" class="node"><title>Node12</title>
<g id="a_node12"><a xlink:href="../../d4/dca/_roomba_connect_8h.xhtml" target="_top" xlink:title="RoombaConnect.h">
<polygon fill="white" stroke="black" points="730.5,-224.5 730.5,-243.5 827.5,-243.5 827.5,-224.5 730.5,-224.5"/>
<text text-anchor="middle" x="779" y="-231.5" font-family="Helvetica,sans-Serif" font-size="10.00">RoombaConnect.h</text>
</a>
</g>
</g>
<!-- Node2&#45;&gt;Node12 -->
<g id="edge11" class="edge"><title>Node2&#45;&gt;Node12</title>
<path fill="none" stroke="midnightblue" d="M1264.37,-345.778C1197.27,-346.756 1025.38,-344.334 891,-300 855.879,-288.413 819.649,-264.878 798.236,-249.535"/>
<polygon fill="midnightblue" stroke="midnightblue" points="800.15,-246.599 790.013,-243.519 796.017,-252.248 800.15,-246.599"/>
</g>
<!-- Node29 -->
<g id="node29" class="node"><title>Node29</title>
<g id="a_node29"><a xlink:href="../../da/d4b/controllingroomba_8h.xhtml" target="_top" xlink:title="controllingroomba.h">
<polygon fill="white" stroke="black" points="1063.5,-280.5 1063.5,-299.5 1164.5,-299.5 1164.5,-280.5 1063.5,-280.5"/>
<text text-anchor="middle" x="1114" y="-287.5" font-family="Helvetica,sans-Serif" font-size="10.00">controllingroomba.h</text>
</a>
</g>
</g>
<!-- Node2&#45;&gt;Node29 -->
<g id="edge52" class="edge"><title>Node2&#45;&gt;Node29</title>
<path fill="none" stroke="midnightblue" d="M1264.64,-336.444C1234.26,-327.28 1185.89,-312.688 1152.18,-302.519"/>
<polygon fill="midnightblue" stroke="midnightblue" points="1152.82,-299.054 1142.23,-299.516 1150.79,-305.756 1152.82,-299.054"/>
</g>
<!-- Node25 -->
<g id="node25" class="node"><title>Node25</title>
<g id="a_node25"><a xlink:href="../../d4/d25/sensordata_8h.xhtml" target="_top" xlink:title="sensordata.h">
<polygon fill="white" stroke="black" points="218.5,-168.5 218.5,-187.5 291.5,-187.5 291.5,-168.5 218.5,-168.5"/>
<text text-anchor="middle" x="255" y="-175.5" font-family="Helvetica,sans-Serif" font-size="10.00">sensordata.h</text>
</a>
</g>
</g>
<!-- Node2&#45;&gt;Node25 -->
<g id="edge67" class="edge"><title>Node2&#45;&gt;Node25</title>
<path fill="none" stroke="midnightblue" d="M1264.26,-344.47C1122.87,-341.737 504.744,-328.249 424,-300 359.519,-277.44 297.986,-222.076 270.303,-194.762"/>
<polygon fill="midnightblue" stroke="midnightblue" points="272.66,-192.169 263.124,-187.552 267.699,-197.108 272.66,-192.169"/>
</g>
<!-- Node21 -->
<g id="node21" class="node"><title>Node21</title>
<g id="a_node21"><a xlink:href="../../dc/d96/jsoncommand_8h.xhtml" target="_top" xlink:title="../resources/jsoncommand.h">
<polygon fill="white" stroke="black" points="1358,-168.5 1358,-187.5 1498,-187.5 1498,-168.5 1358,-168.5"/>
<text text-anchor="middle" x="1428" y="-175.5" font-family="Helvetica,sans-Serif" font-size="10.00">../resources/jsoncommand.h</text>
</a>
</g>
</g>
<!-- Node2&#45;&gt;Node21 -->
<g id="edge68" class="edge"><title>Node2&#45;&gt;Node21</title>
<path fill="none" stroke="midnightblue" d="M1321.63,-336.865C1341.28,-329.951 1366.66,-318.199 1383,-300 1409.61,-270.364 1420.96,-223.568 1425.41,-197.716"/>
<polygon fill="midnightblue" stroke="midnightblue" points="1428.89,-198.157 1426.97,-187.738 1421.97,-197.081 1428.89,-198.157"/>
</g>
<!-- Node22 -->
<g id="node22" class="node"><title>Node22</title>
<g id="a_node22"><a xlink:href="../../d4/d05/json_8h.xhtml" target="_top" xlink:title="json.h">
<polygon fill="white" stroke="black" points="168.5,-112.5 168.5,-131.5 211.5,-131.5 211.5,-112.5 168.5,-112.5"/>
<text text-anchor="middle" x="190" y="-119.5" font-family="Helvetica,sans-Serif" font-size="10.00">json.h</text>
</a>
</g>
</g>
<!-- Node2&#45;&gt;Node22 -->
<g id="edge69" class="edge"><title>Node2&#45;&gt;Node22</title>
<path fill="none" stroke="midnightblue" d="M1264.08,-345.345C1128.11,-346.7 551.781,-349.372 380,-300 282.086,-271.858 231.516,-275.893 180,-188 171.627,-173.714 175.95,-154.753 181.272,-140.999"/>
<polygon fill="midnightblue" stroke="midnightblue" points="184.555,-142.225 185.342,-131.66 178.138,-139.429 184.555,-142.225"/>
</g>
<!-- Node16 -->
<g id="node16" class="node"><title>Node16</title>
<g id="a_node16"><a xlink:href="../../d7/d62/clslog_8h.xhtml" target="_top" xlink:title="../resources/clslog.h">
<polygon fill="white" stroke="black" points="1315.5,-56.5 1315.5,-75.5 1420.5,-75.5 1420.5,-56.5 1315.5,-56.5"/>
<text text-anchor="middle" x="1368" y="-63.5" font-family="Helvetica,sans-Serif" font-size="10.00">../resources/clslog.h</text>
</a>
</g>
</g>
<!-- Node2&#45;&gt;Node16 -->
<g id="edge70" class="edge"><title>Node2&#45;&gt;Node16</title>
<path fill="none" stroke="midnightblue" d="M1321.84,-338.048C1369.16,-326.606 1459.54,-304.608 1474,-300 1549.49,-275.947 1640,-314.232 1640,-235 1640,-235 1640,-235 1640,-177 1640,-128.733 1596.67,-132.565 1553,-112 1514.32,-93.7847 1467.5,-82.4886 1430.64,-75.7698"/>
<polygon fill="midnightblue" stroke="midnightblue" points="1430.98,-72.2755 1420.53,-73.9942 1429.77,-79.1702 1430.98,-72.2755"/>
</g>
<!-- Node24 -->
<g id="node24" class="node"><title>Node24</title>
<g id="a_node24"><a xlink:href="../../db/d97/clsevent_8h.xhtml" target="_top" xlink:title="../resources/clsevent.h">
<polygon fill="white" stroke="black" points="716.5,-112.5 716.5,-131.5 831.5,-131.5 831.5,-112.5 716.5,-112.5"/>
<text text-anchor="middle" x="774" y="-119.5" font-family="Helvetica,sans-Serif" font-size="10.00">../resources/clsevent.h</text>
</a>
</g>
</g>
<!-- Node2&#45;&gt;Node24 -->
<g id="edge71" class="edge"><title>Node2&#45;&gt;Node24</title>
<path fill="none" stroke="midnightblue" d="M1264.49,-344.512C1129.51,-341.525 557.088,-321.065 457,-188 451.657,-180.896 451.173,-174.713 457,-168 488.613,-131.582 623,-123.859 706.321,-122.662"/>
<polygon fill="midnightblue" stroke="midnightblue" points="706.51,-126.16 716.469,-122.545 706.429,-119.161 706.51,-126.16"/>
</g>
<!-- Node28 -->
<g id="node28" class="node"><title>Node28</title>
<g id="a_node28"><a xlink:href="../../da/d69/loggingdata_8h.xhtml" target="_top" xlink:title="loggingdata.h">
<polygon fill="white" stroke="black" points="1050,-168.5 1050,-187.5 1124,-187.5 1124,-168.5 1050,-168.5"/>
<text text-anchor="middle" x="1087" y="-175.5" font-family="Helvetica,sans-Serif" font-size="10.00">loggingdata.h</text>
</a>
</g>
</g>
<!-- Node2&#45;&gt;Node28 -->
<g id="edge72" class="edge"><title>Node2&#45;&gt;Node28</title>
<path fill="none" stroke="midnightblue" d="M1264.4,-341.933C1184.49,-332.681 962.2,-302.049 924,-244 919.114,-236.575 918.615,-231.072 924,-224 931.192,-214.554 994.38,-199.077 1039.92,-188.964"/>
<polygon fill="midnightblue" stroke="midnightblue" points="1040.91,-192.331 1049.92,-186.766 1039.41,-185.494 1040.91,-192.331"/>
</g>
<!-- Node12&#45;&gt;Node4 -->
<g id="edge12" class="edge"><title>Node12&#45;&gt;Node4</title>
<path fill="none" stroke="midnightblue" d="M730.065,-231.825C597.29,-228.279 237.158,-216.148 192,-188 136.216,-153.228 120.137,-68.143 115.658,-30.0193"/>
<polygon fill="midnightblue" stroke="midnightblue" points="119.112,-29.3935 114.609,-19.8032 112.149,-30.1083 119.112,-29.3935"/>
</g>
<!-- Node12&#45;&gt;Node5 -->
<g id="edge13" class="edge"><title>Node12&#45;&gt;Node5</title>
<path fill="none" stroke="midnightblue" d="M827.702,-228.177C907.016,-220.253 1069,-203.78 1206,-188 1218.49,-186.562 1232.18,-184.878 1244.24,-183.358"/>
<polygon fill="midnightblue" stroke="midnightblue" points="1244.86,-186.806 1254.34,-182.074 1243.98,-179.862 1244.86,-186.806"/>
</g>
<!-- Node12&#45;&gt;Node11 -->
<g id="edge14" class="edge"><title>Node12&#45;&gt;Node11</title>
<path fill="none" stroke="midnightblue" d="M788.477,-224.23C813.599,-201.527 884.858,-140.613 956,-112 1035.15,-80.1647 1136.08,-70.8496 1189.31,-68.1252"/>
<polygon fill="midnightblue" stroke="midnightblue" points="1189.47,-71.6215 1199.3,-67.6635 1189.15,-64.629 1189.47,-71.6215"/>
</g>
<!-- Node13 -->
<g id="node13" class="node"><title>Node13</title>
<polygon fill="white" stroke="#bfbfbf" points="960.5,-168.5 960.5,-187.5 1031.5,-187.5 1031.5,-168.5 960.5,-168.5"/>
<text text-anchor="middle" x="996" y="-175.5" font-family="Helvetica,sans-Serif" font-size="10.00">QTcpSocket</text>
</g>
<!-- Node12&#45;&gt;Node13 -->
<g id="edge15" class="edge"><title>Node12&#45;&gt;Node13</title>
<path fill="none" stroke="midnightblue" d="M813.384,-224.444C850.922,-215.102 911.131,-200.119 952.067,-189.933"/>
<polygon fill="midnightblue" stroke="midnightblue" points="952.918,-193.328 961.777,-187.516 951.227,-186.535 952.918,-193.328"/>
</g>
<!-- Node14 -->
<g id="node14" class="node"><title>Node14</title>
<polygon fill="white" stroke="#bfbfbf" points="466,-168.5 466,-187.5 540,-187.5 540,-168.5 466,-168.5"/>
<text text-anchor="middle" x="503" y="-175.5" font-family="Helvetica,sans-Serif" font-size="10.00">QTextStream</text>
</g>
<!-- Node12&#45;&gt;Node14 -->
<g id="edge16" class="edge"><title>Node12&#45;&gt;Node14</title>
<path fill="none" stroke="midnightblue" d="M735.267,-224.444C684.822,-214.574 602.185,-198.406 550.284,-188.251"/>
<polygon fill="midnightblue" stroke="midnightblue" points="550.818,-184.789 540.332,-186.304 549.474,-191.659 550.818,-184.789"/>
</g>
<!-- Node15 -->
<g id="node15" class="node"><title>Node15</title>
<polygon fill="white" stroke="#bfbfbf" points="558.5,-168.5 558.5,-187.5 603.5,-187.5 603.5,-168.5 558.5,-168.5"/>
<text text-anchor="middle" x="581" y="-175.5" font-family="Helvetica,sans-Serif" font-size="10.00">QTime</text>
</g>
<!-- Node12&#45;&gt;Node15 -->
<g id="edge17" class="edge"><title>Node12&#45;&gt;Node15</title>
<path fill="none" stroke="midnightblue" d="M747.152,-224.462C715.676,-216.003 665.895,-202.568 613.523,-188.126"/>
<polygon fill="midnightblue" stroke="midnightblue" points="614.289,-184.706 603.718,-185.418 612.426,-191.454 614.289,-184.706"/>
</g>
<!-- Node12&#45;&gt;Node16 -->
<g id="edge18" class="edge"><title>Node12&#45;&gt;Node16</title>
<path fill="none" stroke="midnightblue" d="M799.105,-224.471C830.925,-211.185 895.03,-185.281 951,-168 1079.91,-128.198 1235.14,-94.1603 1314.92,-77.653"/>
<polygon fill="midnightblue" stroke="midnightblue" points="1316.12,-80.9811 1325.21,-75.5366 1314.71,-74.1248 1316.12,-80.9811"/>
</g>
<!-- Node20 -->
<g id="node20" class="node"><title>Node20</title>
<polygon fill="white" stroke="#bfbfbf" points="622,-168.5 622,-187.5 670,-187.5 670,-168.5 622,-168.5"/>
<text text-anchor="middle" x="646" y="-175.5" font-family="Helvetica,sans-Serif" font-size="10.00">QTimer</text>
</g>
<!-- Node12&#45;&gt;Node20 -->
<g id="edge24" class="edge"><title>Node12&#45;&gt;Node20</title>
<path fill="none" stroke="midnightblue" d="M757.926,-224.444C735.94,-215.517 701.266,-201.439 676.336,-191.317"/>
<polygon fill="midnightblue" stroke="midnightblue" points="677.558,-188.035 666.976,-187.516 674.924,-194.521 677.558,-188.035"/>
</g>
<!-- Node12&#45;&gt;Node21 -->
<g id="edge25" class="edge"><title>Node12&#45;&gt;Node21</title>
<path fill="none" stroke="midnightblue" d="M827.515,-228.963C938.477,-219.731 1211.68,-196.999 1347.98,-185.658"/>
<polygon fill="midnightblue" stroke="midnightblue" points="1348.28,-189.146 1357.95,-184.828 1347.7,-182.17 1348.28,-189.146"/>
</g>
<!-- Node12&#45;&gt;Node22 -->
<g id="edge32" class="edge"><title>Node12&#45;&gt;Node22</title>
<path fill="none" stroke="midnightblue" d="M730.151,-232.273C599.465,-229.895 249.005,-220.522 209,-188 195.479,-177.007 191.245,-156.955 190.077,-142.018"/>
<polygon fill="midnightblue" stroke="midnightblue" points="193.567,-141.683 189.679,-131.828 186.572,-141.957 193.567,-141.683"/>
</g>
<!-- Node12&#45;&gt;Node24 -->
<g id="edge33" class="edge"><title>Node12&#45;&gt;Node24</title>
<path fill="none" stroke="midnightblue" d="M784.63,-224.229C791.907,-211.797 803.076,-188.303 798,-168 795.561,-158.245 790.563,-148.29 785.757,-140.231"/>
<polygon fill="midnightblue" stroke="midnightblue" points="788.691,-138.322 780.367,-131.768 782.787,-142.083 788.691,-138.322"/>
</g>
<!-- Node12&#45;&gt;Node25 -->
<g id="edge39" class="edge"><title>Node12&#45;&gt;Node25</title>
<path fill="none" stroke="midnightblue" d="M730.297,-230.02C645.421,-224.476 464.732,-211.127 301.811,-187.969"/>
<polygon fill="midnightblue" stroke="midnightblue" points="301.999,-184.46 291.602,-186.502 301.003,-191.389 301.999,-184.46"/>
</g>
<!-- Node26 -->
<g id="node26" class="node"><title>Node26</title>
<g id="a_node26"><a xlink:href="../../d1/da1/brushvacuumdata_8h.xhtml" target="_top" xlink:title="brushvacuumdata.h">
<polygon fill="white" stroke="black" points="688.5,-168.5 688.5,-187.5 789.5,-187.5 789.5,-168.5 688.5,-168.5"/>
<text text-anchor="middle" x="739" y="-175.5" font-family="Helvetica,sans-Serif" font-size="10.00">brushvacuumdata.h</text>
</a>
</g>
</g>
<!-- Node12&#45;&gt;Node26 -->
<g id="edge42" class="edge"><title>Node12&#45;&gt;Node26</title>
<path fill="none" stroke="midnightblue" d="M772.395,-224.083C766.745,-216.455 758.455,-205.264 751.549,-195.941"/>
<polygon fill="midnightblue" stroke="midnightblue" points="754.247,-193.703 745.482,-187.751 748.622,-197.87 754.247,-193.703"/>
</g>
<!-- Node27 -->
<g id="node27" class="node"><title>Node27</title>
<g id="a_node27"><a xlink:href="../../de/d51/currentactiondata_8h.xhtml" target="_top" xlink:title="currentactiondata.h">
<polygon fill="white" stroke="black" points="310,-168.5 310,-187.5 410,-187.5 410,-168.5 310,-168.5"/>
<text text-anchor="middle" x="360" y="-175.5" font-family="Helvetica,sans-Serif" font-size="10.00">currentactiondata.h</text>
</a>
</g>
</g>
<!-- Node12&#45;&gt;Node27 -->
<g id="edge45" class="edge"><title>Node12&#45;&gt;Node27</title>
<path fill="none" stroke="midnightblue" d="M730.115,-226.7C653.129,-216.778 503.825,-197.536 420.297,-186.771"/>
<polygon fill="midnightblue" stroke="midnightblue" points="420.564,-183.277 410.199,-185.47 419.669,-190.219 420.564,-183.277"/>
</g>
<!-- Node12&#45;&gt;Node28 -->
<g id="edge48" class="edge"><title>Node12&#45;&gt;Node28</title>
<path fill="none" stroke="midnightblue" d="M827.632,-224.891C877.935,-216.442 959.041,-202.647 1039.49,-188.062"/>
<polygon fill="midnightblue" stroke="midnightblue" points="1040.6,-191.419 1049.81,-186.187 1039.35,-184.532 1040.6,-191.419"/>
</g>
<!-- Node16&#45;&gt;Node4 -->
<g id="edge19" class="edge"><title>Node16&#45;&gt;Node4</title>
<path fill="none" stroke="midnightblue" d="M1315.24,-60.0912C1297.97,-58.6099 1278.68,-57.0896 1261,-56 824.337,-29.0834 293.109,-15.239 150.615,-11.8408"/>
<polygon fill="midnightblue" stroke="midnightblue" points="150.358,-8.33382 140.278,-11.5964 150.193,-15.3319 150.358,-8.33382"/>
</g>
<!-- Node17 -->
<g id="node17" class="node"><title>Node17</title>
<polygon fill="white" stroke="#bfbfbf" points="1092.5,-0.5 1092.5,-19.5 1157.5,-19.5 1157.5,-0.5 1092.5,-0.5"/>
<text text-anchor="middle" x="1125" y="-7.5" font-family="Helvetica,sans-Serif" font-size="10.00">QDateTime</text>
</g>
<!-- Node16&#45;&gt;Node17 -->
<g id="edge20" class="edge"><title>Node16&#45;&gt;Node17</title>
<path fill="none" stroke="midnightblue" d="M1329.5,-56.4435C1285.45,-46.656 1213.54,-30.6748 1167.78,-20.5064"/>
<polygon fill="midnightblue" stroke="midnightblue" points="1168.39,-17.0569 1157.87,-18.3042 1166.87,-23.8902 1168.39,-17.0569"/>
</g>
<!-- Node18 -->
<g id="node18" class="node"><title>Node18</title>
<polygon fill="white" stroke="#bfbfbf" points="1311.5,-0.5 1311.5,-19.5 1352.5,-19.5 1352.5,-0.5 1311.5,-0.5"/>
<text text-anchor="middle" x="1332" y="-7.5" font-family="Helvetica,sans-Serif" font-size="10.00">string</text>
</g>
<!-- Node16&#45;&gt;Node18 -->
<g id="edge21" class="edge"><title>Node16&#45;&gt;Node18</title>
<path fill="none" stroke="midnightblue" d="M1362.06,-56.083C1357.02,-48.5341 1349.66,-37.4948 1343.49,-28.2298"/>
<polygon fill="midnightblue" stroke="midnightblue" points="1346.29,-26.1301 1337.83,-19.7511 1340.47,-30.0131 1346.29,-26.1301"/>
</g>
<!-- Node16&#45;&gt;Node9 -->
<g id="edge22" class="edge"><title>Node16&#45;&gt;Node9</title>
<path fill="none" stroke="midnightblue" d="M1407.77,-56.4435C1455.58,-46.1584 1535.18,-29.0335 1581.81,-19.0019"/>
<polygon fill="midnightblue" stroke="midnightblue" points="1582.75,-22.3786 1591.79,-16.8536 1581.28,-15.5352 1582.75,-22.3786"/>
</g>
<!-- Node19 -->
<g id="node19" class="node"><title>Node19</title>
<polygon fill="white" stroke="#bfbfbf" points="1370.5,-0.5 1370.5,-19.5 1435.5,-19.5 1435.5,-0.5 1370.5,-0.5"/>
<text text-anchor="middle" x="1403" y="-7.5" font-family="Helvetica,sans-Serif" font-size="10.00">QStringList</text>
</g>
<!-- Node16&#45;&gt;Node19 -->
<g id="edge23" class="edge"><title>Node16&#45;&gt;Node19</title>
<path fill="none" stroke="midnightblue" d="M1373.78,-56.083C1378.67,-48.5341 1385.83,-37.4948 1391.83,-28.2298"/>
<polygon fill="midnightblue" stroke="midnightblue" points="1394.83,-30.0463 1397.33,-19.7511 1388.95,-26.239 1394.83,-30.0463"/>
</g>
<!-- Node21&#45;&gt;Node11 -->
<g id="edge26" class="edge"><title>Node21&#45;&gt;Node11</title>
<path fill="none" stroke="midnightblue" d="M1418.42,-168.467C1403,-155.06 1371.32,-128.855 1341,-112 1316.03,-98.1177 1285.89,-86.4933 1262.73,-78.5384"/>
<polygon fill="midnightblue" stroke="midnightblue" points="1263.54,-75.1188 1252.94,-75.2525 1261.31,-81.7545 1263.54,-75.1188"/>
</g>
<!-- Node21&#45;&gt;Node8 -->
<g id="edge27" class="edge"><title>Node21&#45;&gt;Node8</title>
<path fill="none" stroke="midnightblue" d="M1437.8,-168.324C1446.82,-160.341 1460.41,-148.313 1471.32,-138.653"/>
<polygon fill="midnightblue" stroke="midnightblue" points="1473.85,-141.083 1479.02,-131.834 1469.21,-135.842 1473.85,-141.083"/>
</g>
<!-- Node21&#45;&gt;Node22 -->
<g id="edge28" class="edge"><title>Node21&#45;&gt;Node22</title>
<path fill="none" stroke="midnightblue" d="M1357.83,-171.231C1342.1,-170.054 1325.49,-168.901 1310,-168 879.643,-142.951 355.445,-127.558 222.055,-123.866"/>
<polygon fill="midnightblue" stroke="midnightblue" points="221.835,-120.358 211.742,-123.582 221.642,-127.356 221.835,-120.358"/>
</g>
<!-- Node21&#45;&gt;Node16 -->
<g id="edge31" class="edge"><title>Node21&#45;&gt;Node16</title>
<path fill="none" stroke="midnightblue" d="M1423.29,-168.368C1413.48,-150.376 1390.66,-108.55 1377.61,-84.6267"/>
<polygon fill="midnightblue" stroke="midnightblue" points="1380.55,-82.6944 1372.69,-75.5914 1374.4,-86.0464 1380.55,-82.6944"/>
</g>
<!-- Node23 -->
<g id="node23" class="node"><title>Node23</title>
<polygon fill="white" stroke="#bfbfbf" points="455.5,-56.5 455.5,-75.5 510.5,-75.5 510.5,-56.5 455.5,-56.5"/>
<text text-anchor="middle" x="483" y="-63.5" font-family="Helvetica,sans-Serif" font-size="10.00">QVariant</text>
</g>
<!-- Node22&#45;&gt;Node23 -->
<g id="edge29" class="edge"><title>Node22&#45;&gt;Node23</title>
<path fill="none" stroke="midnightblue" d="M211.545,-117.029C260.892,-107.934 382.641,-85.4962 444.941,-74.0143"/>
<polygon fill="midnightblue" stroke="midnightblue" points="445.931,-77.3909 455.131,-72.1363 444.662,-70.5068 445.931,-77.3909"/>
</g>
<!-- Node22&#45;&gt;Node3 -->
<g id="edge30" class="edge"><title>Node22&#45;&gt;Node3</title>
<path fill="none" stroke="midnightblue" d="M190,-112.083C190,-105.006 190,-94.8611 190,-85.9865"/>
<polygon fill="midnightblue" stroke="midnightblue" points="193.5,-85.751 190,-75.7511 186.5,-85.7511 193.5,-85.751"/>
</g>
<!-- Node24&#45;&gt;Node11 -->
<g id="edge34" class="edge"><title>Node24&#45;&gt;Node11</title>
<path fill="none" stroke="midnightblue" d="M831.705,-114.106C925.923,-102.85 1110.17,-80.8383 1188.89,-71.433"/>
<polygon fill="midnightblue" stroke="midnightblue" points="1189.77,-74.8536 1199.28,-70.1919 1188.94,-67.903 1189.77,-74.8536"/>
</g>
<!-- Node24&#45;&gt;Node3 -->
<g id="edge35" class="edge"><title>Node24&#45;&gt;Node3</title>
<path fill="none" stroke="midnightblue" d="M716.406,-115.674C596.445,-104.582 322.86,-79.285 225.339,-70.2677"/>
<polygon fill="midnightblue" stroke="midnightblue" points="225.411,-66.7595 215.131,-69.3238 224.767,-73.7297 225.411,-66.7595"/>
</g>
<!-- Node24&#45;&gt;Node23 -->
<g id="edge36" class="edge"><title>Node24&#45;&gt;Node23</title>
<path fill="none" stroke="midnightblue" d="M727.89,-112.444C670.496,-101.793 573.58,-83.8087 520.51,-73.9607"/>
<polygon fill="midnightblue" stroke="midnightblue" points="520.976,-70.4875 510.506,-72.1041 519.699,-77.37 520.976,-70.4875"/>
</g>
<!-- Node24&#45;&gt;Node17 -->
<g id="edge37" class="edge"><title>Node24&#45;&gt;Node17</title>
<path fill="none" stroke="midnightblue" d="M801.25,-112.46C863.58,-92.9264 1016.63,-44.9626 1087.66,-22.7018"/>
<polygon fill="midnightblue" stroke="midnightblue" points="1089.03,-25.9408 1097.53,-19.6104 1086.94,-19.2611 1089.03,-25.9408"/>
</g>
<!-- Node24&#45;&gt;Node16 -->
<g id="edge38" class="edge"><title>Node24&#45;&gt;Node16</title>
<path fill="none" stroke="midnightblue" d="M831.766,-115.749C943.692,-105.573 1189.26,-83.2489 1305.13,-72.7159"/>
<polygon fill="midnightblue" stroke="midnightblue" points="1305.61,-76.1861 1315.25,-71.795 1304.98,-69.2149 1305.61,-76.1861"/>
</g>
<!-- Node25&#45;&gt;Node24 -->
<g id="edge40" class="edge"><title>Node25&#45;&gt;Node24</title>
<path fill="none" stroke="midnightblue" d="M291.603,-169.502C294.774,-168.954 297.94,-168.444 301,-168 444.6,-147.173 614.183,-133.721 706.24,-127.342"/>
<polygon fill="midnightblue" stroke="midnightblue" points="706.524,-130.831 716.261,-126.655 706.045,-123.848 706.524,-130.831"/>
</g>
<!-- Node25&#45;&gt;Node23 -->
<g id="edge41" class="edge"><title>Node25&#45;&gt;Node23</title>
<path fill="none" stroke="midnightblue" d="M272.891,-168.368C312.682,-149.171 408.71,-102.842 455.901,-80.074"/>
<polygon fill="midnightblue" stroke="midnightblue" points="457.707,-83.0891 465.192,-75.5914 454.665,-76.7844 457.707,-83.0891"/>
</g>
<!-- Node26&#45;&gt;Node24 -->
<g id="edge43" class="edge"><title>Node26&#45;&gt;Node24</title>
<path fill="none" stroke="midnightblue" d="M744.78,-168.083C749.672,-160.534 756.827,-149.495 762.833,-140.23"/>
<polygon fill="midnightblue" stroke="midnightblue" points="765.826,-142.046 768.328,-131.751 759.952,-138.239 765.826,-142.046"/>
</g>
<!-- Node26&#45;&gt;Node23 -->
<g id="edge44" class="edge"><title>Node26&#45;&gt;Node23</title>
<path fill="none" stroke="midnightblue" d="M718.912,-168.368C673.954,-149.051 565.058,-102.259 512.436,-79.6481"/>
<polygon fill="midnightblue" stroke="midnightblue" points="513.564,-76.3236 502.995,-75.5914 510.801,-82.755 513.564,-76.3236"/>
</g>
<!-- Node27&#45;&gt;Node24 -->
<g id="edge46" class="edge"><title>Node27&#45;&gt;Node24</title>
<path fill="none" stroke="midnightblue" d="M410.301,-169.869C414.931,-169.23 419.552,-168.599 424,-168 522.09,-154.798 635.765,-140.337 706.289,-131.464"/>
<polygon fill="midnightblue" stroke="midnightblue" points="706.889,-134.917 716.375,-130.197 706.016,-127.971 706.889,-134.917"/>
</g>
<!-- Node27&#45;&gt;Node23 -->
<g id="edge47" class="edge"><title>Node27&#45;&gt;Node23</title>
<path fill="none" stroke="midnightblue" d="M369.652,-168.368C390.399,-149.814 439.488,-105.913 465.738,-82.4376"/>
<polygon fill="midnightblue" stroke="midnightblue" points="468.272,-84.8665 473.393,-75.5914 463.606,-79.6487 468.272,-84.8665"/>
</g>
<!-- Node28&#45;&gt;Node24 -->
<g id="edge49" class="edge"><title>Node28&#45;&gt;Node24</title>
<path fill="none" stroke="midnightblue" d="M1049.81,-169.802C1046.5,-169.184 1043.19,-168.575 1040,-168 970.391,-155.449 890.342,-142.046 836.393,-133.164"/>
<polygon fill="midnightblue" stroke="midnightblue" points="836.733,-129.673 826.298,-131.505 835.597,-136.58 836.733,-129.673"/>
</g>
<!-- Node28&#45;&gt;Node23 -->
<g id="edge50" class="edge"><title>Node28&#45;&gt;Node23</title>
<path fill="none" stroke="midnightblue" d="M1059.49,-168.486C1014.17,-154.745 920.753,-127.644 840,-112 724.681,-89.6596 586.167,-75.8602 520.746,-70.1075"/>
<polygon fill="midnightblue" stroke="midnightblue" points="520.78,-66.5975 510.516,-69.2214 520.176,-73.5714 520.78,-66.5975"/>
</g>
<!-- Node28&#45;&gt;Node7 -->
<g id="edge51" class="edge"><title>Node28&#45;&gt;Node7</title>
<path fill="none" stroke="midnightblue" d="M1121.7,-168.444C1162.06,-158.492 1228.39,-142.136 1269.51,-131.999"/>
<polygon fill="midnightblue" stroke="midnightblue" points="1270.51,-135.355 1279.38,-129.563 1268.84,-128.559 1270.51,-135.355"/>
</g>
<!-- Node29&#45;&gt;Node22 -->
<g id="edge53" class="edge"><title>Node29&#45;&gt;Node22</title>
<path fill="none" stroke="midnightblue" d="M1063.34,-287.256C879.002,-280.403 251.612,-252.475 192,-188 180.762,-175.845 181.741,-156.291 184.629,-141.8"/>
<polygon fill="midnightblue" stroke="midnightblue" points="188.071,-142.457 187.039,-131.913 181.27,-140.8 188.071,-142.457"/>
</g>
<!-- Node29&#45;&gt;Node21 -->
<g id="edge54" class="edge"><title>Node29&#45;&gt;Node21</title>
<path fill="none" stroke="midnightblue" d="M1141.75,-280.497C1170.09,-271.718 1215.29,-257.443 1254,-244 1304.18,-226.572 1361.83,-204.657 1396.56,-191.248"/>
<polygon fill="midnightblue" stroke="midnightblue" points="1398.08,-194.411 1406.14,-187.537 1395.56,-187.883 1398.08,-194.411"/>
</g>
<!-- Node29&#45;&gt;Node12 -->
<g id="edge55" class="edge"><title>Node29&#45;&gt;Node12</title>
<path fill="none" stroke="midnightblue" d="M1063.48,-280.857C1002.93,-271.097 901.64,-254.769 837.678,-244.459"/>
<polygon fill="midnightblue" stroke="midnightblue" points="838.174,-240.993 827.745,-242.857 837.06,-247.904 838.174,-240.993"/>
</g>
<!-- Node29&#45;&gt;Node16 -->
<g id="edge56" class="edge"><title>Node29&#45;&gt;Node16</title>
<path fill="none" stroke="midnightblue" d="M1164.58,-288.962C1245.65,-286.32 1405.84,-270.163 1507,-188 1534.94,-165.306 1556.89,-140.574 1535,-112 1522.07,-95.1195 1472.32,-83.1426 1430.46,-75.8108"/>
<polygon fill="midnightblue" stroke="midnightblue" points="1431.01,-72.3543 1420.56,-74.1369 1429.84,-79.2562 1431.01,-72.3543"/>
</g>
<!-- Node29&#45;&gt;Node24 -->
<g id="edge57" class="edge"><title>Node29&#45;&gt;Node24</title>
<path fill="none" stroke="midnightblue" d="M1063.12,-283.217C1023.61,-277.274 968.29,-265.705 924,-244 868.153,-216.631 814.323,-165.213 789.025,-139.1"/>
<polygon fill="midnightblue" stroke="midnightblue" points="791.282,-136.395 781.848,-131.573 786.216,-141.226 791.282,-136.395"/>
</g>
<!-- Node30 -->
<g id="node30" class="node"><title>Node30</title>
<polygon fill="white" stroke="#bfbfbf" points="1142.5,-168.5 1142.5,-187.5 1197.5,-187.5 1197.5,-168.5 1142.5,-168.5"/>
<text text-anchor="middle" x="1170" y="-175.5" font-family="Helvetica,sans-Serif" font-size="10.00">QWidget</text>
</g>
<!-- Node29&#45;&gt;Node30 -->
<g id="edge58" class="edge"><title>Node29&#45;&gt;Node30</title>
<path fill="none" stroke="midnightblue" d="M1126.77,-280.233C1137.48,-272.137 1152.24,-259.105 1160,-244 1167.42,-229.559 1169.68,-211.108 1170.23,-197.556"/>
<polygon fill="midnightblue" stroke="midnightblue" points="1173.73,-197.565 1170.36,-187.52 1166.73,-197.474 1173.73,-197.565"/>
</g>
<!-- Node29&#45;&gt;Node13 -->
<g id="edge59" class="edge"><title>Node29&#45;&gt;Node13</title>
<path fill="none" stroke="midnightblue" d="M1103.47,-280.229C1092.84,-271.297 1076.03,-256.959 1062,-244 1044.39,-227.737 1024.91,-208.375 1011.71,-195.037"/>
<polygon fill="midnightblue" stroke="midnightblue" points="1013.88,-192.26 1004.37,-187.592 1008.9,-197.172 1013.88,-192.26"/>
</g>
<!-- Node31 -->
<g id="node31" class="node"><title>Node31</title>
<polygon fill="white" stroke="#bfbfbf" points="933.5,-224.5 933.5,-243.5 982.5,-243.5 982.5,-224.5 933.5,-224.5"/>
<text text-anchor="middle" x="958" y="-231.5" font-family="Helvetica,sans-Serif" font-size="10.00">QSlider</text>
</g>
<!-- Node29&#45;&gt;Node31 -->
<g id="edge60" class="edge"><title>Node29&#45;&gt;Node31</title>
<path fill="none" stroke="midnightblue" d="M1089.28,-280.444C1063.15,-271.399 1021.74,-257.064 992.424,-246.916"/>
<polygon fill="midnightblue" stroke="midnightblue" points="993.198,-243.48 982.603,-243.516 990.908,-250.095 993.198,-243.48"/>
</g>
<!-- Node29&#45;&gt;Node5 -->
<g id="edge61" class="edge"><title>Node29&#45;&gt;Node5</title>
<path fill="none" stroke="midnightblue" d="M1151.83,-280.43C1176.22,-273.539 1207.63,-261.986 1231,-244 1247.5,-231.302 1260.76,-211.267 1268.93,-196.796"/>
<polygon fill="midnightblue" stroke="midnightblue" points="1272.1,-198.289 1273.76,-187.824 1265.94,-194.973 1272.1,-198.289"/>
</g>
<!-- Node29&#45;&gt;Node11 -->
<g id="edge62" class="edge"><title>Node29&#45;&gt;Node11</title>
<path fill="none" stroke="midnightblue" d="M1130.12,-280.397C1143.92,-272.407 1163.62,-259.438 1177,-244 1217.15,-197.677 1224.63,-121.097 1225.87,-85.8364"/>
<polygon fill="midnightblue" stroke="midnightblue" points="1229.37,-85.638 1226.09,-75.566 1222.37,-85.4896 1229.37,-85.638"/>
</g>
<!-- Node29&#45;&gt;Node28 -->
<g id="edge63" class="edge"><title>Node29&#45;&gt;Node28</title>
<path fill="none" stroke="midnightblue" d="M1100.21,-280.189C1089.17,-272.241 1074.5,-259.447 1068,-244 1061.4,-228.303 1068.35,-209.561 1075.63,-196.244"/>
<polygon fill="midnightblue" stroke="midnightblue" points="1078.66,-198.003 1080.8,-187.627 1072.65,-194.4 1078.66,-198.003"/>
</g>
<!-- Node32 -->
<g id="node32" class="node"><title>Node32</title>
<g id="a_node32"><a xlink:href="../../d7/d82/displaylogs_8h.xhtml" target="_top" xlink:title="displaylogs.h">
<polygon fill="white" stroke="black" points="1077,-224.5 1077,-243.5 1151,-243.5 1151,-224.5 1077,-224.5"/>
<text text-anchor="middle" x="1114" y="-231.5" font-family="Helvetica,sans-Serif" font-size="10.00">displaylogs.h</text>
</a>
</g>
</g>
<!-- Node29&#45;&gt;Node32 -->
<g id="edge64" class="edge"><title>Node29&#45;&gt;Node32</title>
<path fill="none" stroke="midnightblue" d="M1114,-280.083C1114,-273.006 1114,-262.861 1114,-253.986"/>
<polygon fill="midnightblue" stroke="midnightblue" points="1117.5,-253.751 1114,-243.751 1110.5,-253.751 1117.5,-253.751"/>
</g>
<!-- Node32&#45;&gt;Node30 -->
<g id="edge65" class="edge"><title>Node32&#45;&gt;Node30</title>
<path fill="none" stroke="midnightblue" d="M1123,-224.324C1131.19,-216.42 1143.51,-204.548 1153.47,-194.938"/>
<polygon fill="midnightblue" stroke="midnightblue" points="1156.07,-197.295 1160.84,-187.834 1151.21,-192.256 1156.07,-197.295"/>
</g>
<!-- Node32&#45;&gt;Node28 -->
<g id="edge66" class="edge"><title>Node32&#45;&gt;Node28</title>
<path fill="none" stroke="midnightblue" d="M1109.54,-224.083C1105.85,-216.691 1100.48,-205.953 1095.91,-196.811"/>
<polygon fill="midnightblue" stroke="midnightblue" points="1098.98,-195.13 1091.38,-187.751 1092.72,-198.261 1098.98,-195.13"/>
</g>
</g>
</svg>
        <g id="navigator" transform="translate(0 0)" fill="#404254">
                <rect fill="#f2f5e9" fill-opacity="0.5" stroke="#606060" stroke-width=".5" x="0" y="0" width="60" height="60"/>
                <use id="zoomplus" xlink:href="#zoomPlus" x="17" y="9" onmousedown="handleZoom(evt,'in')"/>
                <use id="zoomminus" xlink:href="#zoomMin" x="42" y="9" onmousedown="handleZoom(evt,'out')"/>
                <use id="reset" xlink:href="#resetDef" x="30" y="36" onmousedown="handleReset()"/>
                <g id="arrowUp" xlink:href="#dirArrow" transform="translate(30 24)" onmousedown="handlePan(0,-1)">
                  <use xlink:href="#rim" fill="#404040">
                        <set attributeName="fill" to="#808080" begin="arrowUp.mouseover" end="arrowUp.mouseout"/>
                  </use>
                  <path fill="none" stroke="white" stroke-width="1.5" d="M0,-3.0v7 M-2.5,-0.5L0,-3.0L2.5,-0.5"/>
                </g>
                <g id="arrowRight" xlink:href="#dirArrow" transform="rotate(90) translate(36 -43)" onmousedown="handlePan(1,0)">
                  <use xlink:href="#rim" fill="#404040">
                        <set attributeName="fill" to="#808080" begin="arrowRight.mouseover" end="arrowRight.mouseout"/>
                  </use>
                  <path fill="none" stroke="white" stroke-width="1.5" d="M0,-3.0v7 M-2.5,-0.5L0,-3.0L2.5,-0.5"/>
                </g>
                <g id="arrowDown" xlink:href="#dirArrow" transform="rotate(180) translate(-30 -48)" onmousedown="handlePan(0,1)">
                  <use xlink:href="#rim" fill="#404040">
                        <set attributeName="fill" to="#808080" begin="arrowDown.mouseover" end="arrowDown.mouseout"/>
                  </use>
                  <path fill="none" stroke="white" stroke-width="1.5" d="M0,-3.0v7 M-2.5,-0.5L0,-3.0L2.5,-0.5"/>
                </g>
                <g id="arrowLeft" xlink:href="#dirArrow" transform="rotate(270) translate(-36 17)" onmousedown="handlePan(-1,0)">
                  <use xlink:href="#rim" fill="#404040">
                        <set attributeName="fill" to="#808080" begin="arrowLeft.mouseover" end="arrowLeft.mouseout"/>
                  </use>
                  <path fill="none" stroke="white" stroke-width="1.5" d="M0,-3.0v7 M-2.5,-0.5L0,-3.0L2.5,-0.5"/>
                </g>
        </g>
        <svg viewBox="0 0 15 15" width="100%" height="30px" preserveAspectRatio="xMaxYMin meet">
         <g id="arrow_out" transform="scale(0.3 0.3)">
          <a xlink:href="_gui-_roomba_v1_80_2main_8cpp__incl_org.svg" target="_base">
           <rect id="button" ry="5" rx="5" y="6" x="6" height="38" width="38"
                fill="#f2f5e9" fill-opacity="0.5" stroke="#606060" stroke-width="1.0"/>
           <path id="arrow"
             d="M 11.500037,31.436501 C 11.940474,20.09759 22.043105,11.32322 32.158766,21.979434 L 37.068811,17.246167 C 37.068811,17.246167 37.088388,32 37.088388,32 L 22.160133,31.978069 C 22.160133,31.978069 26.997745,27.140456 26.997745,27.140456 C 18.528582,18.264221 13.291696,25.230495 11.500037,31.436501 z"
             style="fill:#404040;"/>
          </a>
         </g>
        </svg>
</svg>
