<?xml version="1.0" encoding="UTF-8" standalone="no"?>
<!DOCTYPE svg PUBLIC "-//W3C//DTD SVG 1.1//EN"
 "http://www.w3.org/Graphics/SVG/1.1/DTD/svg11.dtd">
<!-- Generated by graphviz version 2.30.1 (20130214.1330)
 -->
<!-- Title: GUI/Gui&#45;RoombaV1.0/main.cpp Pages: 1 -->
<svg width="1446pt" height="432pt"
 viewBox="0.00 0.00 1446.00 432.00" xmlns="http://www.w3.org/2000/svg" xmlns:xlink="http://www.w3.org/1999/xlink">
<g id="graph0" class="graph" transform="scale(1 1) rotate(0) translate(4 428)">
<title>GUI/Gui&#45;RoombaV1.0/main.cpp</title>
<polygon fill="white" stroke="white" points="-4,5 -4,-428 1443,-428 1443,5 -4,5"/>
<!-- Node1 -->
<g id="node1" class="node"><title>Node1</title>
<polygon fill="#bfbfbf" stroke="black" points="907,-393 907,-423 1017,-423 1017,-393 907,-393"/>
<text text-anchor="start" x="915" y="-411" font-family="Helvetica,sans-Serif" font-size="10.00">GUI/Gui&#45;RoombaV1.0</text>
<text text-anchor="middle" x="962" y="-400" font-family="Helvetica,sans-Serif" font-size="10.00">/main.cpp</text>
</g>
<!-- Node2 -->
<g id="node2" class="node"><title>Node2</title>
<g id="a_node2"><a xlink:href="../../dd/da1/roomba_8h.xhtml" target="_top" xlink:title="roomba.h">
<polygon fill="white" stroke="black" points="892.5,-336.5 892.5,-355.5 949.5,-355.5 949.5,-336.5 892.5,-336.5"/>
<text text-anchor="middle" x="921" y="-343.5" font-family="Helvetica,sans-Serif" font-size="10.00">roomba.h</text>
</a>
</g>
</g>
<!-- Node1&#45;&gt;Node2 -->
<g id="edge1" class="edge"><title>Node1&#45;&gt;Node2</title>
<path fill="none" stroke="midnightblue" d="M952.284,-392.781C946.387,-384.152 938.827,-373.088 932.616,-363.999"/>
<polygon fill="midnightblue" stroke="midnightblue" points="935.498,-362.012 926.966,-355.731 929.718,-365.962 935.498,-362.012"/>
</g>
<!-- Node29 -->
<g id="node29" class="node"><title>Node29</title>
<polygon fill="white" stroke="#bfbfbf" points="968,-336.5 968,-355.5 1040,-355.5 1040,-336.5 968,-336.5"/>
<text text-anchor="middle" x="1004" y="-343.5" font-family="Helvetica,sans-Serif" font-size="10.00">QApplication</text>
</g>
<!-- Node1&#45;&gt;Node29 -->
<g id="edge57" class="edge"><title>Node1&#45;&gt;Node29</title>
<path fill="none" stroke="midnightblue" d="M971.953,-392.781C977.994,-384.152 985.738,-373.088 992.101,-363.999"/>
<polygon fill="midnightblue" stroke="midnightblue" points="995.021,-365.93 997.889,-355.731 989.287,-361.916 995.021,-365.93"/>
</g>
<!-- Node3 -->
<g id="node3" class="node"><title>Node3</title>
<polygon fill="white" stroke="#bfbfbf" points="112,-56.5 112,-75.5 162,-75.5 162,-56.5 112,-56.5"/>
<text text-anchor="middle" x="137" y="-63.5" font-family="Helvetica,sans-Serif" font-size="10.00">QString</text>
</g>
<!-- Node2&#45;&gt;Node3 -->
<g id="edge2" class="edge"><title>Node2&#45;&gt;Node3</title>
<path fill="none" stroke="midnightblue" d="M892.123,-344.51C739.944,-341.556 38,-323.152 38,-235 38,-235 38,-235 38,-177 38,-133.183 81.9362,-98.9282 111.27,-80.9413"/>
<polygon fill="midnightblue" stroke="midnightblue" points="113.363,-83.7703 120.206,-75.6816 109.813,-77.7377 113.363,-83.7703"/>
</g>
<!-- Node4 -->
<g id="node4" class="node"><title>Node4</title>
<polygon fill="white" stroke="#bfbfbf" points="164,-0.5 164,-19.5 216,-19.5 216,-0.5 164,-0.5"/>
<text text-anchor="middle" x="190" y="-7.5" font-family="Helvetica,sans-Serif" font-size="10.00">QDebug</text>
</g>
<!-- Node2&#45;&gt;Node4 -->
<g id="edge3" class="edge"><title>Node2&#45;&gt;Node4</title>
<path fill="none" stroke="midnightblue" d="M892.397,-345.22C766.441,-345.916 260.797,-345.751 110,-300 55.6596,-283.513 0,-291.786 0,-235 0,-235 0,-235 0,-121 0,-50.6379 98.7982,-24.5536 153.907,-15.4769"/>
<polygon fill="midnightblue" stroke="midnightblue" points="154.629,-18.9072 163.98,-13.9266 153.564,-11.9887 154.629,-18.9072"/>
</g>
<!-- Node5 -->
<g id="node5" class="node"><title>Node5</title>
<polygon fill="white" stroke="#bfbfbf" points="812.5,-168.5 812.5,-187.5 859.5,-187.5 859.5,-168.5 812.5,-168.5"/>
<text text-anchor="middle" x="836" y="-175.5" font-family="Helvetica,sans-Serif" font-size="10.00">QtCore</text>
</g>
<!-- Node2&#45;&gt;Node5 -->
<g id="edge4" class="edge"><title>Node2&#45;&gt;Node5</title>
<path fill="none" stroke="midnightblue" d="M916.917,-336.422C907.407,-316.521 882.919,-265.723 861,-224 856.16,-214.788 850.551,-204.646 845.874,-196.327"/>
<polygon fill="midnightblue" stroke="midnightblue" points="848.885,-194.54 840.913,-187.562 842.793,-197.988 848.885,-194.54"/>
</g>
<!-- Node6 -->
<g id="node6" class="node"><title>Node6</title>
<polygon fill="white" stroke="#bfbfbf" points="1226,-280.5 1226,-299.5 1268,-299.5 1268,-280.5 1226,-280.5"/>
<text text-anchor="middle" x="1247" y="-287.5" font-family="Helvetica,sans-Serif" font-size="10.00">vector</text>
</g>
<!-- Node2&#45;&gt;Node6 -->
<g id="edge5" class="edge"><title>Node2&#45;&gt;Node6</title>
<path fill="none" stroke="midnightblue" d="M949.574,-337.937C952.746,-337.242 955.936,-336.58 959,-336 1070.6,-314.89 1100.61,-322.176 1212,-300 1213.28,-299.745 1214.58,-299.472 1215.9,-299.186"/>
<polygon fill="midnightblue" stroke="midnightblue" points="1217.06,-302.508 1225.99,-296.804 1215.45,-295.695 1217.06,-302.508"/>
</g>
<!-- Node7 -->
<g id="node7" class="node"><title>Node7</title>
<polygon fill="white" stroke="#bfbfbf" points="1286.5,-280.5 1286.5,-299.5 1339.5,-299.5 1339.5,-280.5 1286.5,-280.5"/>
<text text-anchor="middle" x="1313" y="-287.5" font-family="Helvetica,sans-Serif" font-size="10.00">QVector</text>
</g>
<!-- Node2&#45;&gt;Node7 -->
<g id="edge6" class="edge"><title>Node2&#45;&gt;Node7</title>
<path fill="none" stroke="midnightblue" d="M949.558,-337.849C952.733,-337.17 955.928,-336.536 959,-336 1095.97,-312.115 1135.28,-324.706 1276.45,-299.853"/>
<polygon fill="midnightblue" stroke="midnightblue" points="1277.12,-303.289 1286.35,-298.08 1275.89,-296.399 1277.12,-303.289"/>
</g>
<!-- Node8 -->
<g id="node8" class="node"><title>Node8</title>
<polygon fill="white" stroke="#bfbfbf" points="982,-112.5 982,-131.5 1056,-131.5 1056,-112.5 982,-112.5"/>
<text text-anchor="middle" x="1019" y="-119.5" font-family="Helvetica,sans-Serif" font-size="10.00">QVariantMap</text>
</g>
<!-- Node2&#45;&gt;Node8 -->
<g id="edge7" class="edge"><title>Node2&#45;&gt;Node8</title>
<path fill="none" stroke="midnightblue" d="M934.107,-336.361C964.561,-315.369 1039.44,-258.204 1065,-188 1068.04,-179.647 1068.45,-176.193 1065,-168 1059.97,-156.053 1050.06,-145.692 1040.71,-137.934"/>
<polygon fill="midnightblue" stroke="midnightblue" points="1042.84,-135.155 1032.79,-131.811 1038.56,-140.694 1042.84,-135.155"/>
</g>
<!-- Node9 -->
<g id="node9" class="node"><title>Node9</title>
<polygon fill="white" stroke="#bfbfbf" points="1123,-0.5 1123,-19.5 1177,-19.5 1177,-0.5 1123,-0.5"/>
<text text-anchor="middle" x="1150" y="-7.5" font-family="Helvetica,sans-Serif" font-size="10.00">iostream</text>
</g>
<!-- Node2&#45;&gt;Node9 -->
<g id="edge8" class="edge"><title>Node2&#45;&gt;Node9</title>
<path fill="none" stroke="midnightblue" d="M949.625,-338.224C1001.79,-325.865 1107.17,-300.847 1109,-300 1153.46,-279.453 1198,-283.982 1198,-235 1198,-235 1198,-235 1198,-121 1198,-85.5849 1176.84,-48.707 1162.62,-27.9203"/>
<polygon fill="midnightblue" stroke="midnightblue" points="1165.32,-25.6838 1156.67,-19.565 1159.62,-29.7421 1165.32,-25.6838"/>
</g>
<!-- Node10 -->
<g id="node10" class="node"><title>Node10</title>
<polygon fill="white" stroke="#bfbfbf" points="1358,-280.5 1358,-299.5 1438,-299.5 1438,-280.5 1358,-280.5"/>
<text text-anchor="middle" x="1398" y="-287.5" font-family="Helvetica,sans-Serif" font-size="10.00">QMainWindow</text>
</g>
<!-- Node2&#45;&gt;Node10 -->
<g id="edge9" class="edge"><title>Node2&#45;&gt;Node10</title>
<path fill="none" stroke="midnightblue" d="M949.547,-337.785C952.724,-337.118 955.922,-336.504 959,-336 1130.34,-307.923 1175.96,-323.401 1348,-300 1348.1,-299.986 1348.2,-299.972 1348.3,-299.959"/>
<polygon fill="midnightblue" stroke="midnightblue" points="1348.56,-303.46 1357.93,-298.525 1347.52,-296.536 1348.56,-303.46"/>
</g>
<!-- Node11 -->
<g id="node11" class="node"><title>Node11</title>
<polygon fill="white" stroke="#bfbfbf" points="710.5,-56.5 710.5,-75.5 763.5,-75.5 763.5,-56.5 710.5,-56.5"/>
<text text-anchor="middle" x="737" y="-63.5" font-family="Helvetica,sans-Serif" font-size="10.00">QObject</text>
</g>
<!-- Node2&#45;&gt;Node11 -->
<g id="edge10" class="edge"><title>Node2&#45;&gt;Node11</title>
<path fill="none" stroke="midnightblue" d="M920.416,-336.374C918.185,-309.099 908.171,-223.268 868,-168 839.51,-128.802 791.663,-97.3973 762.355,-80.5421"/>
<polygon fill="midnightblue" stroke="midnightblue" points="763.972,-77.4358 753.539,-75.5894 760.543,-83.5387 763.972,-77.4358"/>
</g>
<!-- Node12 -->
<g id="node12" class="node"><title>Node12</title>
<g id="a_node12"><a xlink:href="../../d4/dca/_roomba_connect_8h.xhtml" target="_top" xlink:title="RoombaConnect.h">
<polygon fill="white" stroke="black" points="518.5,-224.5 518.5,-243.5 615.5,-243.5 615.5,-224.5 518.5,-224.5"/>
<text text-anchor="middle" x="567" y="-231.5" font-family="Helvetica,sans-Serif" font-size="10.00">RoombaConnect.h</text>
</a>
</g>
</g>
<!-- Node2&#45;&gt;Node12 -->
<g id="edge11" class="edge"><title>Node2&#45;&gt;Node12</title>
<path fill="none" stroke="midnightblue" d="M892.271,-340.264C852.865,-333.386 780.088,-319.314 720,-300 674.579,-285.401 624.019,-262.552 593.898,-248.195"/>
<polygon fill="midnightblue" stroke="midnightblue" points="595.032,-244.857 584.503,-243.677 591.997,-251.165 595.032,-244.857"/>
</g>
<!-- Node26 -->
<g id="node26" class="node"><title>Node26</title>
<g id="a_node26"><a xlink:href="../../da/d4b/controllingroomba_8h.xhtml" target="_top" xlink:title="controllingroomba.h">
<polygon fill="white" stroke="black" points="729.5,-280.5 729.5,-299.5 830.5,-299.5 830.5,-280.5 729.5,-280.5"/>
<text text-anchor="middle" x="780" y="-287.5" font-family="Helvetica,sans-Serif" font-size="10.00">controllingroomba.h</text>
</a>
</g>
</g>
<!-- Node2&#45;&gt;Node26 -->
<g id="edge42" class="edge"><title>Node2&#45;&gt;Node26</title>
<path fill="none" stroke="midnightblue" d="M898.658,-336.444C875.247,-327.478 838.264,-313.314 811.81,-303.183"/>
<polygon fill="midnightblue" stroke="midnightblue" points="812.828,-299.824 802.237,-299.516 810.324,-306.361 812.828,-299.824"/>
</g>
<!-- Node25 -->
<g id="node25" class="node"><title>Node25</title>
<g id="a_node25"><a xlink:href="../../d4/d25/sensordata_8h.xhtml" target="_top" xlink:title="sensordata.h">
<polygon fill="white" stroke="black" points="218.5,-168.5 218.5,-187.5 291.5,-187.5 291.5,-168.5 218.5,-168.5"/>
<text text-anchor="middle" x="255" y="-175.5" font-family="Helvetica,sans-Serif" font-size="10.00">sensordata.h</text>
</a>
</g>
</g>
<!-- Node2&#45;&gt;Node25 -->
<g id="edge52" class="edge"><title>Node2&#45;&gt;Node25</title>
<path fill="none" stroke="midnightblue" d="M892.351,-344.64C777.471,-342.966 354.055,-334.486 306,-300 272.454,-275.926 260.847,-225.347 256.927,-197.82"/>
<polygon fill="midnightblue" stroke="midnightblue" points="260.363,-197.08 255.676,-187.578 253.415,-197.929 260.363,-197.08"/>
</g>
<!-- Node21 -->
<g id="node21" class="node"><title>Node21</title>
<g id="a_node21"><a xlink:href="../../dc/d96/jsoncommand_8h.xhtml" target="_top" xlink:title="../resources/jsoncommand.h">
<polygon fill="white" stroke="black" points="916,-168.5 916,-187.5 1056,-187.5 1056,-168.5 916,-168.5"/>
<text text-anchor="middle" x="986" y="-175.5" font-family="Helvetica,sans-Serif" font-size="10.00">../resources/jsoncommand.h</text>
</a>
</g>
</g>
<!-- Node2&#45;&gt;Node21 -->
<g id="edge53" class="edge"><title>Node2&#45;&gt;Node21</title>
<path fill="none" stroke="midnightblue" d="M928.905,-336.338C936.378,-327.716 947.402,-313.812 954,-300 970.333,-265.809 979.263,-222.053 983.297,-197.629"/>
<polygon fill="midnightblue" stroke="midnightblue" points="986.779,-198.012 984.855,-187.593 979.862,-196.938 986.779,-198.012"/>
</g>
<!-- Node22 -->
<g id="node22" class="node"><title>Node22</title>
<g id="a_node22"><a xlink:href="../../d4/d05/json_8h.xhtml" target="_top" xlink:title="json.h">
<polygon fill="white" stroke="black" points="117.5,-112.5 117.5,-131.5 160.5,-131.5 160.5,-112.5 117.5,-112.5"/>
<text text-anchor="middle" x="139" y="-119.5" font-family="Helvetica,sans-Serif" font-size="10.00">json.h</text>
</a>
</g>
</g>
<!-- Node2&#45;&gt;Node22 -->
<g id="edge54" class="edge"><title>Node2&#45;&gt;Node22</title>
<path fill="none" stroke="midnightblue" d="M892.359,-345.176C783.61,-345.506 396.676,-343.533 283,-300 207.283,-271.004 174.622,-260.835 139,-188 131.95,-173.586 132.732,-155.132 134.82,-141.572"/>
<polygon fill="midnightblue" stroke="midnightblue" points="138.3,-142.008 136.738,-131.529 131.424,-140.695 138.3,-142.008"/>
</g>
<!-- Node16 -->
<g id="node16" class="node"><title>Node16</title>
<g id="a_node16"><a xlink:href="../../d7/d62/clslog_8h.xhtml" target="_top" xlink:title="../resources/clslog.h">
<polygon fill="white" stroke="black" points="841.5,-56.5 841.5,-75.5 946.5,-75.5 946.5,-56.5 841.5,-56.5"/>
<text text-anchor="middle" x="894" y="-63.5" font-family="Helvetica,sans-Serif" font-size="10.00">../resources/clslog.h</text>
</a>
</g>
</g>
<!-- Node2&#45;&gt;Node16 -->
<g id="edge55" class="edge"><title>Node2&#45;&gt;Node16</title>
<path fill="none" stroke="midnightblue" d="M949.829,-338.188C1013.4,-322.33 1160,-280.791 1160,-235 1160,-235 1160,-235 1160,-177 1160,-89.4781 1035.5,-70.2251 956.854,-66.7947"/>
<polygon fill="midnightblue" stroke="midnightblue" points="956.673,-63.286 946.553,-66.4236 956.421,-70.2815 956.673,-63.286"/>
</g>
<!-- Node24 -->
<g id="node24" class="node"><title>Node24</title>
<g id="a_node24"><a xlink:href="../../db/d97/clsevent_8h.xhtml" target="_top" xlink:title="../resources/clsevent.h">
<polygon fill="white" stroke="black" points="300.5,-112.5 300.5,-131.5 415.5,-131.5 415.5,-112.5 300.5,-112.5"/>
<text text-anchor="middle" x="358" y="-119.5" font-family="Helvetica,sans-Serif" font-size="10.00">../resources/clsevent.h</text>
</a>
</g>
</g>
<!-- Node2&#45;&gt;Node24 -->
<g id="edge56" class="edge"><title>Node2&#45;&gt;Node24</title>
<path fill="none" stroke="midnightblue" d="M892.243,-341.574C844.507,-335.526 746.128,-321.523 665,-300 525.826,-263.077 445.55,-304.551 361,-188 351.369,-174.724 351.697,-155.6 353.786,-141.531"/>
<polygon fill="midnightblue" stroke="midnightblue" points="357.256,-142.017 355.682,-131.54 350.379,-140.712 357.256,-142.017"/>
</g>
<!-- Node12&#45;&gt;Node4 -->
<g id="edge12" class="edge"><title>Node12&#45;&gt;Node4</title>
<path fill="none" stroke="midnightblue" d="M518.281,-230.197C425.405,-224.38 230.315,-209.704 209,-188 166.989,-145.221 177.74,-65.6286 185.412,-29.5874"/>
<polygon fill="midnightblue" stroke="midnightblue" points="188.897,-30.0474 187.723,-19.5178 182.074,-28.4811 188.897,-30.0474"/>
</g>
<!-- Node12&#45;&gt;Node5 -->
<g id="edge13" class="edge"><title>Node12&#45;&gt;Node5</title>
<path fill="none" stroke="midnightblue" d="M609.624,-224.444C663.037,-213.721 753.48,-195.565 802.314,-185.762"/>
<polygon fill="midnightblue" stroke="midnightblue" points="803.246,-189.145 812.361,-183.745 801.868,-182.282 803.246,-189.145"/>
</g>
<!-- Node12&#45;&gt;Node11 -->
<g id="edge14" class="edge"><title>Node12&#45;&gt;Node11</title>
<path fill="none" stroke="midnightblue" d="M573.652,-224.222C580.326,-215.285 590.768,-200.942 599,-188 619.829,-155.253 613.581,-138.43 642,-112 658.615,-96.5481 681.499,-85.491 700.643,-78.2045"/>
<polygon fill="midnightblue" stroke="midnightblue" points="702.042,-81.4207 710.261,-74.7346 699.666,-74.8362 702.042,-81.4207"/>
</g>
<!-- Node13 -->
<g id="node13" class="node"><title>Node13</title>
<polygon fill="white" stroke="#bfbfbf" points="684.5,-168.5 684.5,-187.5 755.5,-187.5 755.5,-168.5 684.5,-168.5"/>
<text text-anchor="middle" x="720" y="-175.5" font-family="Helvetica,sans-Serif" font-size="10.00">QTcpSocket</text>
</g>
<!-- Node12&#45;&gt;Node13 -->
<g id="edge15" class="edge"><title>Node12&#45;&gt;Node13</title>
<path fill="none" stroke="midnightblue" d="M591.243,-224.444C616.871,-215.399 657.485,-201.064 686.238,-190.916"/>
<polygon fill="midnightblue" stroke="midnightblue" points="687.605,-194.145 695.87,-187.516 685.275,-187.544 687.605,-194.145"/>
</g>
<!-- Node14 -->
<g id="node14" class="node"><title>Node14</title>
<polygon fill="white" stroke="#bfbfbf" points="386,-168.5 386,-187.5 460,-187.5 460,-168.5 386,-168.5"/>
<text text-anchor="middle" x="423" y="-175.5" font-family="Helvetica,sans-Serif" font-size="10.00">QTextStream</text>
</g>
<!-- Node12&#45;&gt;Node14 -->
<g id="edge16" class="edge"><title>Node12&#45;&gt;Node14</title>
<path fill="none" stroke="midnightblue" d="M544.183,-224.444C520.168,-215.438 482.171,-201.189 455.131,-191.049"/>
<polygon fill="midnightblue" stroke="midnightblue" points="456.303,-187.751 445.71,-187.516 453.845,-194.305 456.303,-187.751"/>
</g>
<!-- Node15 -->
<g id="node15" class="node"><title>Node15</title>
<polygon fill="white" stroke="#bfbfbf" points="478.5,-168.5 478.5,-187.5 523.5,-187.5 523.5,-168.5 478.5,-168.5"/>
<text text-anchor="middle" x="501" y="-175.5" font-family="Helvetica,sans-Serif" font-size="10.00">QTime</text>
</g>
<!-- Node12&#45;&gt;Node15 -->
<g id="edge17" class="edge"><title>Node12&#45;&gt;Node15</title>
<path fill="none" stroke="midnightblue" d="M556.396,-224.324C546.544,-216.263 531.649,-204.077 519.785,-194.369"/>
<polygon fill="midnightblue" stroke="midnightblue" points="521.753,-191.457 511.797,-187.834 517.32,-196.875 521.753,-191.457"/>
</g>
<!-- Node12&#45;&gt;Node16 -->
<g id="edge18" class="edge"><title>Node12&#45;&gt;Node16</title>
<path fill="none" stroke="midnightblue" d="M580.364,-224.305C600.5,-211.353 639.994,-186.535 675,-168 741.083,-133.011 821.544,-97.6864 864.163,-79.5225"/>
<polygon fill="midnightblue" stroke="midnightblue" points="865.571,-82.7272 873.409,-75.5985 862.836,-76.2835 865.571,-82.7272"/>
</g>
<!-- Node20 -->
<g id="node20" class="node"><title>Node20</title>
<polygon fill="white" stroke="#bfbfbf" points="542,-168.5 542,-187.5 590,-187.5 590,-168.5 542,-168.5"/>
<text text-anchor="middle" x="566" y="-175.5" font-family="Helvetica,sans-Serif" font-size="10.00">QTimer</text>
</g>
<!-- Node12&#45;&gt;Node20 -->
<g id="edge24" class="edge"><title>Node12&#45;&gt;Node20</title>
<path fill="none" stroke="midnightblue" d="M566.835,-224.083C566.704,-217.006 566.516,-206.861 566.352,-197.986"/>
<polygon fill="midnightblue" stroke="midnightblue" points="569.847,-197.685 566.162,-187.751 562.848,-197.814 569.847,-197.685"/>
</g>
<!-- Node12&#45;&gt;Node21 -->
<g id="edge25" class="edge"><title>Node12&#45;&gt;Node21</title>
<path fill="none" stroke="midnightblue" d="M615.777,-225.583C619.573,-225.036 623.348,-224.503 627,-224 722.685,-210.829 832.945,-197.245 905.749,-188.496"/>
<polygon fill="midnightblue" stroke="midnightblue" points="906.256,-191.96 915.768,-187.294 905.422,-185.01 906.256,-191.96"/>
</g>
<!-- Node12&#45;&gt;Node22 -->
<g id="edge32" class="edge"><title>Node12&#45;&gt;Node22</title>
<path fill="none" stroke="midnightblue" d="M518.326,-232.78C426.318,-231.506 231.155,-224.447 176,-188 159.786,-177.285 149.884,-156.881 144.455,-141.78"/>
<polygon fill="midnightblue" stroke="midnightblue" points="147.678,-140.37 141.267,-131.935 141.018,-142.527 147.678,-140.37"/>
</g>
<!-- Node12&#45;&gt;Node24 -->
<g id="edge33" class="edge"><title>Node12&#45;&gt;Node24</title>
<path fill="none" stroke="midnightblue" d="M518.379,-227.094C469.024,-220.145 397.097,-207.081 377,-188 364.487,-176.119 360.076,-156.497 358.591,-141.915"/>
<polygon fill="midnightblue" stroke="midnightblue" points="362.059,-141.301 357.928,-131.545 355.073,-141.748 362.059,-141.301"/>
</g>
<!-- Node12&#45;&gt;Node25 -->
<g id="edge39" class="edge"><title>Node12&#45;&gt;Node25</title>
<path fill="none" stroke="midnightblue" d="M518.25,-224.563C459.075,-214.321 359.996,-197.172 301.742,-187.09"/>
<polygon fill="midnightblue" stroke="midnightblue" points="302.158,-183.61 291.708,-185.353 300.964,-190.508 302.158,-183.61"/>
</g>
<!-- Node16&#45;&gt;Node4 -->
<g id="edge19" class="edge"><title>Node16&#45;&gt;Node4</title>
<path fill="none" stroke="midnightblue" d="M841.373,-60.9633C705.015,-50.504 342.787,-22.7195 226.492,-13.7991"/>
<polygon fill="midnightblue" stroke="midnightblue" points="226.573,-10.2951 216.334,-13.0199 226.037,-17.2746 226.573,-10.2951"/>
</g>
<!-- Node17 -->
<g id="node17" class="node"><title>Node17</title>
<polygon fill="white" stroke="#bfbfbf" points="650.5,-0.5 650.5,-19.5 715.5,-19.5 715.5,-0.5 650.5,-0.5"/>
<text text-anchor="middle" x="683" y="-7.5" font-family="Helvetica,sans-Serif" font-size="10.00">QDateTime</text>
</g>
<!-- Node16&#45;&gt;Node17 -->
<g id="edge20" class="edge"><title>Node16&#45;&gt;Node17</title>
<path fill="none" stroke="midnightblue" d="M860.566,-56.4435C824.007,-47.0872 765.331,-32.0706 725.524,-21.8828"/>
<polygon fill="midnightblue" stroke="midnightblue" points="726.139,-18.4277 715.584,-19.339 724.404,-25.2091 726.139,-18.4277"/>
</g>
<!-- Node18 -->
<g id="node18" class="node"><title>Node18</title>
<polygon fill="white" stroke="#bfbfbf" points="837.5,-0.5 837.5,-19.5 878.5,-19.5 878.5,-0.5 837.5,-0.5"/>
<text text-anchor="middle" x="858" y="-7.5" font-family="Helvetica,sans-Serif" font-size="10.00">string</text>
</g>
<!-- Node16&#45;&gt;Node18 -->
<g id="edge21" class="edge"><title>Node16&#45;&gt;Node18</title>
<path fill="none" stroke="midnightblue" d="M888.055,-56.083C883.023,-48.5341 875.663,-37.4948 869.487,-28.2298"/>
<polygon fill="midnightblue" stroke="midnightblue" points="872.293,-26.1301 863.834,-19.7511 866.469,-30.0131 872.293,-26.1301"/>
</g>
<!-- Node16&#45;&gt;Node9 -->
<g id="edge22" class="edge"><title>Node16&#45;&gt;Node9</title>
<path fill="none" stroke="midnightblue" d="M934.564,-56.4435C983.688,-46.0814 1065.73,-28.7767 1113.13,-18.7777"/>
<polygon fill="midnightblue" stroke="midnightblue" points="1113.91,-22.189 1122.98,-16.7003 1112.47,-15.3397 1113.91,-22.189"/>
</g>
<!-- Node19 -->
<g id="node19" class="node"><title>Node19</title>
<polygon fill="white" stroke="#bfbfbf" points="896.5,-0.5 896.5,-19.5 961.5,-19.5 961.5,-0.5 896.5,-0.5"/>
<text text-anchor="middle" x="929" y="-7.5" font-family="Helvetica,sans-Serif" font-size="10.00">QStringList</text>
</g>
<!-- Node16&#45;&gt;Node19 -->
<g id="edge23" class="edge"><title>Node16&#45;&gt;Node19</title>
<path fill="none" stroke="midnightblue" d="M899.78,-56.083C904.672,-48.5341 911.827,-37.4948 917.833,-28.2298"/>
<polygon fill="midnightblue" stroke="midnightblue" points="920.826,-30.0463 923.328,-19.7511 914.952,-26.239 920.826,-30.0463"/>
</g>
<!-- Node21&#45;&gt;Node11 -->
<g id="edge26" class="edge"><title>Node21&#45;&gt;Node11</title>
<path fill="none" stroke="midnightblue" d="M975.969,-168.411C959.478,-154.687 925.151,-127.76 892,-112 853.408,-93.6536 805.793,-81.1966 773.599,-74.1227"/>
<polygon fill="midnightblue" stroke="midnightblue" points="774.229,-70.6785 763.719,-72.0145 772.768,-77.5244 774.229,-70.6785"/>
</g>
<!-- Node21&#45;&gt;Node8 -->
<g id="edge27" class="edge"><title>Node21&#45;&gt;Node8</title>
<path fill="none" stroke="midnightblue" d="M991.449,-168.083C996.014,-160.613 1002.67,-149.724 1008.29,-140.52"/>
<polygon fill="midnightblue" stroke="midnightblue" points="1011.42,-142.109 1013.65,-131.751 1005.45,-138.459 1011.42,-142.109"/>
</g>
<!-- Node21&#45;&gt;Node22 -->
<g id="edge28" class="edge"><title>Node21&#45;&gt;Node22</title>
<path fill="none" stroke="midnightblue" d="M915.816,-171.479C900.086,-170.288 883.475,-169.068 868,-168 729.24,-158.426 292.951,-132.215 170.967,-124.911"/>
<polygon fill="midnightblue" stroke="midnightblue" points="170.989,-121.407 160.798,-124.303 170.571,-128.394 170.989,-121.407"/>
</g>
<!-- Node21&#45;&gt;Node16 -->
<g id="edge31" class="edge"><title>Node21&#45;&gt;Node16</title>
<path fill="none" stroke="midnightblue" d="M978.781,-168.368C963.464,-150.055 927.495,-107.049 907.685,-83.3624"/>
<polygon fill="midnightblue" stroke="midnightblue" points="910.286,-81.0168 901.186,-75.5914 904.916,-85.5077 910.286,-81.0168"/>
</g>
<!-- Node23 -->
<g id="node23" class="node"><title>Node23</title>
<polygon fill="white" stroke="#bfbfbf" points="227.5,-56.5 227.5,-75.5 282.5,-75.5 282.5,-56.5 227.5,-56.5"/>
<text text-anchor="middle" x="255" y="-63.5" font-family="Helvetica,sans-Serif" font-size="10.00">QVariant</text>
</g>
<!-- Node22&#45;&gt;Node23 -->
<g id="edge29" class="edge"><title>Node22&#45;&gt;Node23</title>
<path fill="none" stroke="midnightblue" d="M157.381,-112.444C176.216,-103.675 205.731,-89.9355 227.379,-79.8579"/>
<polygon fill="midnightblue" stroke="midnightblue" points="229.117,-82.9098 236.705,-75.5164 226.162,-76.5637 229.117,-82.9098"/>
</g>
<!-- Node22&#45;&gt;Node3 -->
<g id="edge30" class="edge"><title>Node22&#45;&gt;Node3</title>
<path fill="none" stroke="midnightblue" d="M138.67,-112.083C138.408,-105.006 138.032,-94.8611 137.703,-85.9865"/>
<polygon fill="midnightblue" stroke="midnightblue" points="141.192,-85.6147 137.324,-75.7511 134.197,-85.8738 141.192,-85.6147"/>
</g>
<!-- Node24&#45;&gt;Node11 -->
<g id="edge34" class="edge"><title>Node24&#45;&gt;Node11</title>
<path fill="none" stroke="midnightblue" d="M415.562,-112.799C494.58,-101.54 634.359,-81.6243 700.44,-72.2091"/>
<polygon fill="midnightblue" stroke="midnightblue" points="700.986,-75.6668 710.392,-70.7911 699.998,-68.7368 700.986,-75.6668"/>
</g>
<!-- Node24&#45;&gt;Node3 -->
<g id="edge35" class="edge"><title>Node24&#45;&gt;Node3</title>
<path fill="none" stroke="midnightblue" d="M322.982,-112.444C281.691,-102.354 213.466,-85.6841 172.128,-75.5833"/>
<polygon fill="midnightblue" stroke="midnightblue" points="172.775,-72.1386 162.23,-73.1649 171.114,-78.9386 172.775,-72.1386"/>
</g>
<!-- Node24&#45;&gt;Node23 -->
<g id="edge36" class="edge"><title>Node24&#45;&gt;Node23</title>
<path fill="none" stroke="midnightblue" d="M341.451,-112.324C325.008,-103.703 299.565,-90.3643 280.532,-80.3855"/>
<polygon fill="midnightblue" stroke="midnightblue" points="281.989,-77.198 271.508,-75.6545 278.739,-83.3977 281.989,-77.198"/>
</g>
<!-- Node24&#45;&gt;Node17 -->
<g id="edge37" class="edge"><title>Node24&#45;&gt;Node17</title>
<path fill="none" stroke="midnightblue" d="M383.232,-112.46C440.826,-92.9664 582.075,-45.1591 648.021,-22.839"/>
<polygon fill="midnightblue" stroke="midnightblue" points="649.21,-26.1317 657.56,-19.6104 646.966,-19.5012 649.21,-26.1317"/>
</g>
<!-- Node24&#45;&gt;Node16 -->
<g id="edge38" class="edge"><title>Node24&#45;&gt;Node16</title>
<path fill="none" stroke="midnightblue" d="M415.616,-115.195C517.013,-104.98 726.516,-83.8734 831.365,-73.3103"/>
<polygon fill="midnightblue" stroke="midnightblue" points="831.884,-76.7757 841.483,-72.2909 831.182,-69.811 831.884,-76.7757"/>
</g>
<!-- Node25&#45;&gt;Node24 -->
<g id="edge40" class="edge"><title>Node25&#45;&gt;Node24</title>
<path fill="none" stroke="midnightblue" d="M271.549,-168.324C287.992,-159.703 313.435,-146.364 332.468,-136.386"/>
<polygon fill="midnightblue" stroke="midnightblue" points="334.261,-139.398 341.492,-131.655 331.011,-133.198 334.261,-139.398"/>
</g>
<!-- Node25&#45;&gt;Node23 -->
<g id="edge41" class="edge"><title>Node25&#45;&gt;Node23</title>
<path fill="none" stroke="midnightblue" d="M255,-168.368C255,-150.617 255,-109.666 255,-85.5974"/>
<polygon fill="midnightblue" stroke="midnightblue" points="258.5,-85.5914 255,-75.5914 251.5,-85.5915 258.5,-85.5914"/>
</g>
<!-- Node26&#45;&gt;Node22 -->
<g id="edge43" class="edge"><title>Node26&#45;&gt;Node22</title>
<path fill="none" stroke="midnightblue" d="M729.122,-287.87C595.149,-283.831 237.214,-265.83 154,-188 141.463,-176.274 138.415,-156.337 138.071,-141.628"/>
<polygon fill="midnightblue" stroke="midnightblue" points="141.571,-141.673 138.222,-131.621 134.571,-141.567 141.571,-141.673"/>
</g>
<!-- Node26&#45;&gt;Node21 -->
<g id="edge44" class="edge"><title>Node26&#45;&gt;Node21</title>
<path fill="none" stroke="midnightblue" d="M796.164,-280.368C831.965,-261.251 918.153,-215.229 960.979,-192.361"/>
<polygon fill="midnightblue" stroke="midnightblue" points="962.738,-195.389 969.911,-187.591 959.441,-189.214 962.738,-195.389"/>
</g>
<!-- Node26&#45;&gt;Node12 -->
<g id="edge45" class="edge"><title>Node26&#45;&gt;Node12</title>
<path fill="none" stroke="midnightblue" d="M746.25,-280.444C709.482,-271.122 650.554,-256.183 610.378,-245.997"/>
<polygon fill="midnightblue" stroke="midnightblue" points="611.146,-242.581 600.593,-243.516 609.426,-249.367 611.146,-242.581"/>
</g>
<!-- Node26&#45;&gt;Node16 -->
<g id="edge46" class="edge"><title>Node26&#45;&gt;Node16</title>
<path fill="none" stroke="midnightblue" d="M830.766,-287.66C897.298,-282.843 1011.76,-263.349 1065,-188 1084.49,-160.413 1085.62,-138.752 1065,-112 1051.61,-94.6321 999.906,-82.634 956.823,-75.4215"/>
<polygon fill="midnightblue" stroke="midnightblue" points="957.365,-71.9637 946.934,-73.8229 956.248,-78.874 957.365,-71.9637"/>
</g>
<!-- Node26&#45;&gt;Node24 -->
<g id="edge47" class="edge"><title>Node26&#45;&gt;Node24</title>
<path fill="none" stroke="midnightblue" d="M778.003,-280.42C775.97,-271.4 772.86,-256.772 771,-244 766.111,-210.433 787.762,-192.207 764,-168 740.809,-144.375 535.447,-131.273 426.003,-125.912"/>
<polygon fill="midnightblue" stroke="midnightblue" points="425.877,-122.402 415.721,-125.417 425.541,-129.394 425.877,-122.402"/>
</g>
<!-- Node27 -->
<g id="node27" class="node"><title>Node27</title>
<polygon fill="white" stroke="#bfbfbf" points="780.5,-224.5 780.5,-243.5 835.5,-243.5 835.5,-224.5 780.5,-224.5"/>
<text text-anchor="middle" x="808" y="-231.5" font-family="Helvetica,sans-Serif" font-size="10.00">QWidget</text>
</g>
<!-- Node26&#45;&gt;Node27 -->
<g id="edge48" class="edge"><title>Node26&#45;&gt;Node27</title>
<path fill="none" stroke="midnightblue" d="M784.624,-280.083C788.456,-272.691 794.024,-261.953 798.765,-252.811"/>
<polygon fill="midnightblue" stroke="midnightblue" points="801.966,-254.24 803.462,-243.751 795.752,-251.018 801.966,-254.24"/>
</g>
<!-- Node26&#45;&gt;Node13 -->
<g id="edge49" class="edge"><title>Node26&#45;&gt;Node13</title>
<path fill="none" stroke="midnightblue" d="M769.51,-280.423C759.961,-272.074 746.146,-258.545 738,-244 729.954,-229.633 725.316,-211.437 722.77,-197.953"/>
<polygon fill="midnightblue" stroke="midnightblue" points="726.194,-197.209 721.094,-187.923 719.29,-198.363 726.194,-197.209"/>
</g>
<!-- Node28 -->
<g id="node28" class="node"><title>Node28</title>
<polygon fill="white" stroke="#bfbfbf" points="636.5,-224.5 636.5,-243.5 685.5,-243.5 685.5,-224.5 636.5,-224.5"/>
<text text-anchor="middle" x="661" y="-231.5" font-family="Helvetica,sans-Serif" font-size="10.00">QSlider</text>
</g>
<!-- Node26&#45;&gt;Node28 -->
<g id="edge50" class="edge"><title>Node26&#45;&gt;Node28</title>
<path fill="none" stroke="midnightblue" d="M761.144,-280.444C741.734,-271.636 711.27,-257.812 689.035,-247.722"/>
<polygon fill="midnightblue" stroke="midnightblue" points="690.32,-244.462 679.768,-243.516 687.428,-250.836 690.32,-244.462"/>
</g>
<!-- Node26&#45;&gt;Node5 -->
<g id="edge51" class="edge"><title>Node26&#45;&gt;Node5</title>
<path fill="none" stroke="midnightblue" d="M801.483,-280.36C816.392,-273.09 835.111,-261.117 844,-244 851.525,-229.509 848.09,-210.821 843.623,-197.206"/>
<polygon fill="midnightblue" stroke="midnightblue" points="846.793,-195.689 840.01,-187.55 840.237,-198.143 846.793,-195.689"/>
</g>
</g>
</svg>
