<?xml version="1.0" encoding="UTF-8" standalone="no"?>
<!DOCTYPE svg PUBLIC "-//W3C//DTD SVG 1.1//EN"
 "http://www.w3.org/Graphics/SVG/1.1/DTD/svg11.dtd">
<!-- Generated by graphviz version 2.30.1 (20130214.1330)
 -->
<!-- Title: Hoofdprogramma/include/autolink.h Pages: 1 -->
<svg width="150pt" height="96pt"
 viewBox="0.00 0.00 150.00 96.00" xmlns="http://www.w3.org/2000/svg" xmlns:xlink="http://www.w3.org/1999/xlink">
<g id="graph0" class="graph" transform="scale(1 1) rotate(0) translate(4 92)">
<title>Hoofdprogramma/include/autolink.h</title>
<polygon fill="white" stroke="white" points="-4,5 -4,-92 147,-92 147,5 -4,5"/>
<!-- Node1 -->
<g id="node1" class="node"><title>Node1</title>
<polygon fill="#bfbfbf" stroke="black" points="0,-57 0,-87 124,-87 124,-57 0,-57"/>
<text text-anchor="start" x="8" y="-75" font-family="Helvetica,sans-Serif" font-size="10.00">Hoofdprogramma/include</text>
<text text-anchor="middle" x="62" y="-64" font-family="Helvetica,sans-Serif" font-size="10.00">/autolink.h</text>
</g>
<!-- Node2 -->
<g id="node2" class="node"><title>Node2</title>
<g id="a_node2"><a xlink:href="../../db/d16/config_8h.xhtml" target="_top" xlink:title="config.h">
<polygon fill="white" stroke="black" points="37,-0.5 37,-19.5 87,-19.5 87,-0.5 37,-0.5"/>
<text text-anchor="middle" x="62" y="-7.5" font-family="Helvetica,sans-Serif" font-size="10.00">config.h</text>
</a>
</g>
</g>
<!-- Node1&#45;&gt;Node2 -->
<g id="edge1" class="edge"><title>Node1&#45;&gt;Node2</title>
<path fill="none" stroke="midnightblue" d="M62,-56.7808C62,-48.7812 62,-38.6887 62,-30.0168"/>
<polygon fill="midnightblue" stroke="midnightblue" points="65.5001,-29.7305 62,-19.7305 58.5001,-29.7306 65.5001,-29.7305"/>
</g>
<!-- Node1&#45;&gt;Node1 -->
<g id="edge2" class="edge"><title>Node1&#45;&gt;Node1</title>
<path fill="none" stroke="midnightblue" d="M124.055,-82.8523C134.655,-81.3694 142,-77.752 142,-72 142,-68.3152 138.986,-65.5063 134.032,-63.5735"/>
<polygon fill="midnightblue" stroke="midnightblue" points="134.598,-60.1092 124.055,-61.1477 132.945,-66.9111 134.598,-60.1092"/>
</g>
</g>
</svg>
