<?xml version="1.0" encoding="UTF-8" standalone="no"?>
<!DOCTYPE svg PUBLIC "-//W3C//DTD SVG 1.1//EN"
 "http://www.w3.org/Graphics/SVG/1.1/DTD/svg11.dtd">
<!-- Generated by graphviz version 2.30.1 (20130214.1330)
 -->
<!-- Title: shared::events::eventUserJoin Pages: 1 -->
<svg width="154pt" height="522pt"
 viewBox="0.00 0.00 154.00 522.00" xmlns="http://www.w3.org/2000/svg" xmlns:xlink="http://www.w3.org/1999/xlink">
<g id="graph0" class="graph" transform="scale(1 1) rotate(0) translate(4 518)">
<title>shared::events::eventUserJoin</title>
<polygon fill="white" stroke="white" points="-4,5 -4,-518 151,-518 151,5 -4,5"/>
<!-- Node1 -->
<g id="node1" class="node"><title>Node1</title>
<polygon fill="#bfbfbf" stroke="black" points="0,-1 0,-91 146,-91 146,-1 0,-1"/>
<text text-anchor="middle" x="73" y="-79" font-family="Helvetica,sans-Serif" font-size="10.00">shared::events::eventUserJoin</text>
<polyline fill="none" stroke="black" points="0,-72 146,-72 "/>
<text text-anchor="middle" x="73" y="-60" font-family="Helvetica,sans-Serif" font-size="10.00"> </text>
<polyline fill="none" stroke="black" points="0,-53 146,-53 "/>
<text text-anchor="start" x="8" y="-41" font-family="Helvetica,sans-Serif" font-size="10.00">+ eventUserJoin()</text>
<text text-anchor="start" x="8" y="-30" font-family="Helvetica,sans-Serif" font-size="10.00">+ eventUserJoin()</text>
<text text-anchor="start" x="8" y="-19" font-family="Helvetica,sans-Serif" font-size="10.00">+ getUserId()</text>
<text text-anchor="start" x="8" y="-8" font-family="Helvetica,sans-Serif" font-size="10.00">+ getUser()</text>
</g>
<!-- Node2 -->
<g id="node2" class="node"><title>Node2</title>
<g id="a_node2"><a xlink:href="../../db/d8b/classshared_1_1events_1_1cls_event.xhtml" target="_top" xlink:title="The main event class.">
<polygon fill="white" stroke="black" points="12,-130.5 12,-297.5 134,-297.5 134,-130.5 12,-130.5"/>
<text text-anchor="middle" x="73" y="-285.5" font-family="Helvetica,sans-Serif" font-size="10.00">shared::events::clsEvent</text>
<polyline fill="none" stroke="black" points="12,-278.5 134,-278.5 "/>
<text text-anchor="start" x="20" y="-266.5" font-family="Helvetica,sans-Serif" font-size="10.00"># data</text>
<text text-anchor="start" x="20" y="-255.5" font-family="Helvetica,sans-Serif" font-size="10.00"># ourType</text>
<text text-anchor="start" x="20" y="-244.5" font-family="Helvetica,sans-Serif" font-size="10.00"># timeOfEvent</text>
<polyline fill="none" stroke="black" points="12,-237.5 134,-237.5 "/>
<text text-anchor="start" x="20" y="-225.5" font-family="Helvetica,sans-Serif" font-size="10.00">+ clsEvent()</text>
<text text-anchor="start" x="20" y="-214.5" font-family="Helvetica,sans-Serif" font-size="10.00">+ clsEvent()</text>
<text text-anchor="start" x="20" y="-203.5" font-family="Helvetica,sans-Serif" font-size="10.00">+ addToData()</text>
<text text-anchor="start" x="20" y="-192.5" font-family="Helvetica,sans-Serif" font-size="10.00">+ toVariant()</text>
<text text-anchor="start" x="20" y="-181.5" font-family="Helvetica,sans-Serif" font-size="10.00">+ getData()</text>
<text text-anchor="start" x="20" y="-170.5" font-family="Helvetica,sans-Serif" font-size="10.00">+ getType()</text>
<text text-anchor="start" x="20" y="-159.5" font-family="Helvetica,sans-Serif" font-size="10.00">+ getTime()</text>
<text text-anchor="start" x="20" y="-148.5" font-family="Helvetica,sans-Serif" font-size="10.00"># getEventType()</text>
<text text-anchor="start" x="20" y="-137.5" font-family="Helvetica,sans-Serif" font-size="10.00"># setEventType()</text>
</a>
</g>
</g>
<!-- Node2&#45;&gt;Node1 -->
<g id="edge1" class="edge"><title>Node2&#45;&gt;Node1</title>
<path fill="none" stroke="midnightblue" d="M73,-120.375C73,-110.305 73,-100.427 73,-91.3435"/>
<polygon fill="none" stroke="midnightblue" points="69.5001,-120.486 73,-130.486 76.5001,-120.486 69.5001,-120.486"/>
</g>
<!-- Node3 -->
<g id="node3" class="node"><title>Node3</title>
<g id="a_node3"><a xlink:href="../../da/d64/class_k4_u_1_1cls_log.xhtml" target="_top" xlink:title="Custom logging class.">
<polygon fill="white" stroke="black" points="33.5,-346.5 33.5,-513.5 112.5,-513.5 112.5,-346.5 33.5,-346.5"/>
<text text-anchor="middle" x="73" y="-501.5" font-family="Helvetica,sans-Serif" font-size="10.00">K4U::clsLog</text>
<polyline fill="none" stroke="black" points="33.5,-494.5 112.5,-494.5 "/>
<text text-anchor="middle" x="73" y="-482.5" font-family="Helvetica,sans-Serif" font-size="10.00"> </text>
<polyline fill="none" stroke="black" points="33.5,-475.5 112.5,-475.5 "/>
<text text-anchor="start" x="41.5" y="-463.5" font-family="Helvetica,sans-Serif" font-size="10.00">+ clsLog()</text>
<text text-anchor="start" x="41.5" y="-452.5" font-family="Helvetica,sans-Serif" font-size="10.00">+ operator&lt;&lt;()</text>
<text text-anchor="start" x="41.5" y="-441.5" font-family="Helvetica,sans-Serif" font-size="10.00">+ operator&lt;&lt;()</text>
<text text-anchor="start" x="41.5" y="-430.5" font-family="Helvetica,sans-Serif" font-size="10.00">+ operator&lt;&lt;()</text>
<text text-anchor="start" x="41.5" y="-419.5" font-family="Helvetica,sans-Serif" font-size="10.00">+ operator&lt;&lt;()</text>
<text text-anchor="start" x="41.5" y="-408.5" font-family="Helvetica,sans-Serif" font-size="10.00">+ operator&lt;&lt;()</text>
<text text-anchor="start" x="41.5" y="-397.5" font-family="Helvetica,sans-Serif" font-size="10.00">+ operator&lt;&lt;()</text>
<text text-anchor="start" x="41.5" y="-386.5" font-family="Helvetica,sans-Serif" font-size="10.00">+ operator&lt;&lt;()</text>
<text text-anchor="start" x="41.5" y="-375.5" font-family="Helvetica,sans-Serif" font-size="10.00">+ operator&lt;&lt;()</text>
<text text-anchor="start" x="41.5" y="-364.5" font-family="Helvetica,sans-Serif" font-size="10.00">+ operator&lt;&lt;()</text>
<text text-anchor="start" x="41.5" y="-353.5" font-family="Helvetica,sans-Serif" font-size="10.00">and 6 more...</text>
</a>
</g>
</g>
<!-- Node3&#45;&gt;Node2 -->
<g id="edge2" class="edge"><title>Node3&#45;&gt;Node2</title>
<path fill="none" stroke="#404040" d="M73,-346.262C73,-334.265 73,-321.839 73,-309.63"/>
<polygon fill="none" stroke="#404040" points="73.0001,-309.518 69,-303.518 73,-297.518 77,-303.518 73.0001,-309.518"/>
<text text-anchor="middle" x="84" y="-319.5" font-family="Helvetica,sans-Serif" font-size="10.00"> #log</text>
</g>
</g>
</svg>
