<?xml version="1.0" encoding="UTF-8" standalone="no"?>
<!DOCTYPE svg PUBLIC "-//W3C//DTD SVG 1.1//EN"
 "http://www.w3.org/Graphics/SVG/1.1/DTD/svg11.dtd">
<!-- Generated by graphviz version 2.30.1 (20130214.1330)
 -->
<!-- Title: shared::events::eventUserJoin Pages: 1 -->
<svg width="154pt" height="154pt"
 viewBox="0.00 0.00 154.00 154.00" xmlns="http://www.w3.org/2000/svg" xmlns:xlink="http://www.w3.org/1999/xlink">
<g id="graph0" class="graph" transform="scale(1 1) rotate(0) translate(4 150)">
<title>shared::events::eventUserJoin</title>
<polygon fill="white" stroke="white" points="-4,5 -4,-150 151,-150 151,5 -4,5"/>
<!-- Node1 -->
<g id="node1" class="node"><title>Node1</title>
<polygon fill="#bfbfbf" stroke="black" points="0,-0.5 0,-19.5 146,-19.5 146,-0.5 0,-0.5"/>
<text text-anchor="middle" x="73" y="-7.5" font-family="Helvetica,sans-Serif" font-size="10.00">shared::events::eventUserJoin</text>
</g>
<!-- Node2 -->
<g id="node2" class="node"><title>Node2</title>
<g id="a_node2"><a xlink:href="../../db/d8b/classshared_1_1events_1_1cls_event.xhtml" target="_top" xlink:title="The main event class.">
<polygon fill="white" stroke="black" points="12,-58.5 12,-77.5 134,-77.5 134,-58.5 12,-58.5"/>
<text text-anchor="middle" x="73" y="-65.5" font-family="Helvetica,sans-Serif" font-size="10.00">shared::events::clsEvent</text>
</a>
</g>
</g>
<!-- Node2&#45;&gt;Node1 -->
<g id="edge1" class="edge"><title>Node2&#45;&gt;Node1</title>
<path fill="none" stroke="midnightblue" d="M73,-47.953C73,-38.2875 73,-27.0312 73,-19.5052"/>
<polygon fill="midnightblue" stroke="midnightblue" points="69.5001,-48.25 73,-58.25 76.5001,-48.25 69.5001,-48.25"/>
</g>
<!-- Node3 -->
<g id="node3" class="node"><title>Node3</title>
<g id="a_node3"><a xlink:href="../../da/d64/class_k4_u_1_1cls_log.xhtml" target="_top" xlink:title="Custom logging class.">
<polygon fill="white" stroke="black" points="38,-126.5 38,-145.5 108,-145.5 108,-126.5 38,-126.5"/>
<text text-anchor="middle" x="73" y="-133.5" font-family="Helvetica,sans-Serif" font-size="10.00">K4U::clsLog</text>
</a>
</g>
</g>
<!-- Node3&#45;&gt;Node2 -->
<g id="edge2" class="edge"><title>Node3&#45;&gt;Node2</title>
<path fill="none" stroke="#9a32cd" stroke-dasharray="5,2" d="M73,-116.041C73,-103.472 73,-87.5631 73,-77.8411"/>
<polygon fill="#9a32cd" stroke="#9a32cd" points="69.5001,-116.372 73,-126.372 76.5001,-116.372 69.5001,-116.372"/>
<text text-anchor="middle" x="81" y="-99.5" font-family="Helvetica,sans-Serif" font-size="10.00"> log</text>
</g>
</g>
</svg>
