<?xml version="1.0" encoding="UTF-8" standalone="no"?>
<!DOCTYPE svg PUBLIC "-//W3C//DTD SVG 1.1//EN"
 "http://www.w3.org/Graphics/SVG/1.1/DTD/svg11.dtd">
<!-- Generated by graphviz version 2.30.1 (20130214.1330)
 -->
<!-- Title: Hoofdprogramma/ourProgram/src/jsonProtocol.cpp Pages: 1 -->
<svg width="553pt" height="432pt"
 viewBox="0.00 0.00 552.58 432.00" xmlns="http://www.w3.org/2000/svg" xmlns:xlink="http://www.w3.org/1999/xlink">
<g id="graph0" class="graph" transform="scale(1 1) rotate(0) translate(4 428)">
<title>Hoofdprogramma/ourProgram/src/jsonProtocol.cpp</title>
<polygon fill="white" stroke="white" points="-4,5 -4,-428 549.575,-428 549.575,5 -4,5"/>
<!-- Node1 -->
<g id="node1" class="node"><title>Node1</title>
<polygon fill="#bfbfbf" stroke="black" points="30.075,-393 30.075,-423 173.075,-423 173.075,-393 30.075,-393"/>
<text text-anchor="start" x="38.075" y="-411" font-family="Helvetica,sans-Serif" font-size="10.00">Hoofdprogramma/ourProgram</text>
<text text-anchor="middle" x="101.575" y="-400" font-family="Helvetica,sans-Serif" font-size="10.00">/src/jsonProtocol.cpp</text>
</g>
<!-- Node2 -->
<g id="node2" class="node"><title>Node2</title>
<g id="a_node2"><a xlink:href="../../dd/d50/our_program_8h.xhtml" target="_top" xlink:title="RTSystem/ourProgram.h">
<polygon fill="white" stroke="black" points="5.57504,-224.5 5.57504,-243.5 129.575,-243.5 129.575,-224.5 5.57504,-224.5"/>
<text text-anchor="middle" x="67.575" y="-231.5" font-family="Helvetica,sans-Serif" font-size="10.00">RTSystem/ourProgram.h</text>
</a>
</g>
</g>
<!-- Node1&#45;&gt;Node2 -->
<g id="edge1" class="edge"><title>Node1&#45;&gt;Node2</title>
<path fill="none" stroke="midnightblue" d="M96.8705,-392.841C93.6268,-382.678 89.4061,-368.607 86.575,-356 78.5269,-320.162 72.6893,-277.598 69.7433,-253.701"/>
<polygon fill="midnightblue" stroke="midnightblue" points="73.1958,-253.094 68.5324,-243.581 66.2453,-253.926 73.1958,-253.094"/>
</g>
<!-- Node5 -->
<g id="node5" class="node"><title>Node5</title>
<g id="a_node5"><a xlink:href="../../d4/d51/json_protocol_8h.xhtml" target="_top" xlink:title="jsonProtocol.h">
<polygon fill="white" stroke="black" points="96.075,-336.5 96.075,-355.5 175.075,-355.5 175.075,-336.5 96.075,-336.5"/>
<text text-anchor="middle" x="135.575" y="-343.5" font-family="Helvetica,sans-Serif" font-size="10.00">jsonProtocol.h</text>
</a>
</g>
</g>
<!-- Node1&#45;&gt;Node5 -->
<g id="edge4" class="edge"><title>Node1&#45;&gt;Node5</title>
<path fill="none" stroke="midnightblue" d="M109.633,-392.781C114.42,-384.332 120.531,-373.548 125.619,-364.569"/>
<polygon fill="midnightblue" stroke="midnightblue" points="128.743,-366.156 130.628,-355.731 122.652,-362.705 128.743,-366.156"/>
</g>
<!-- Node3 -->
<g id="node3" class="node"><title>Node3</title>
<polygon fill="white" stroke="#bfbfbf" points="13.575,-168.5 13.575,-187.5 95.575,-187.5 95.575,-168.5 13.575,-168.5"/>
<text text-anchor="middle" x="54.575" y="-175.5" font-family="Helvetica,sans-Serif" font-size="10.00">RTStructures.h</text>
</g>
<!-- Node2&#45;&gt;Node3 -->
<g id="edge2" class="edge"><title>Node2&#45;&gt;Node3</title>
<path fill="none" stroke="midnightblue" d="M65.4284,-224.083C63.7057,-216.927 61.228,-206.635 59.0748,-197.691"/>
<polygon fill="midnightblue" stroke="midnightblue" points="62.4252,-196.654 56.6818,-187.751 55.6196,-198.293 62.4252,-196.654"/>
</g>
<!-- Node4 -->
<g id="node4" class="node"><title>Node4</title>
<polygon fill="white" stroke="#bfbfbf" points="151.575,-112.5 151.575,-131.5 205.575,-131.5 205.575,-112.5 151.575,-112.5"/>
<text text-anchor="middle" x="178.575" y="-119.5" font-family="Helvetica,sans-Serif" font-size="10.00">iostream</text>
</g>
<!-- Node2&#45;&gt;Node4 -->
<g id="edge3" class="edge"><title>Node2&#45;&gt;Node4</title>
<path fill="none" stroke="midnightblue" d="M48.0023,-224.331C23.769,-212.391 -12.3583,-189.87 4.57504,-168 21.1452,-146.599 95.1665,-133.538 141.162,-127.341"/>
<polygon fill="midnightblue" stroke="midnightblue" points="141.894,-130.776 151.36,-126.018 140.993,-123.834 141.894,-130.776"/>
</g>
<!-- Node5&#45;&gt;Node2 -->
<g id="edge5" class="edge"><title>Node5&#45;&gt;Node2</title>
<path fill="none" stroke="midnightblue" d="M130.239,-336.368C119.067,-318.296 93.0295,-276.176 78.2741,-252.307"/>
<polygon fill="midnightblue" stroke="midnightblue" points="81.1215,-250.257 72.8861,-243.591 75.1673,-253.938 81.1215,-250.257"/>
</g>
<!-- Node6 -->
<g id="node6" class="node"><title>Node6</title>
<g id="a_node6"><a xlink:href="../../d8/d2e/json_command_8h.xhtml" target="_top" xlink:title="jsonCommand.h">
<polygon fill="white" stroke="black" points="176.075,-280.5 176.075,-299.5 263.075,-299.5 263.075,-280.5 176.075,-280.5"/>
<text text-anchor="middle" x="219.575" y="-287.5" font-family="Helvetica,sans-Serif" font-size="10.00">jsonCommand.h</text>
</a>
</g>
</g>
<!-- Node5&#45;&gt;Node6 -->
<g id="edge6" class="edge"><title>Node5&#45;&gt;Node6</title>
<path fill="none" stroke="midnightblue" d="M149.071,-336.324C162.175,-327.9 182.287,-314.971 197.682,-305.074"/>
<polygon fill="midnightblue" stroke="midnightblue" points="199.593,-308.006 206.112,-299.655 195.808,-302.118 199.593,-308.006"/>
</g>
<!-- Node6&#45;&gt;Node2 -->
<g id="edge7" class="edge"><title>Node6&#45;&gt;Node2</title>
<path fill="none" stroke="midnightblue" d="M195.49,-280.444C170.03,-271.399 129.681,-257.064 101.116,-246.916"/>
<polygon fill="midnightblue" stroke="midnightblue" points="102.142,-243.566 91.5472,-243.516 99.7985,-250.162 102.142,-243.566"/>
</g>
<!-- Node7 -->
<g id="node7" class="node"><title>Node7</title>
<g id="a_node7"><a xlink:href="../../d4/d05/json_8h.xhtml" target="_top" xlink:title="../../include/json.h">
<polygon fill="white" stroke="black" points="186.075,-224.5 186.075,-243.5 281.075,-243.5 281.075,-224.5 186.075,-224.5"/>
<text text-anchor="middle" x="233.575" y="-231.5" font-family="Helvetica,sans-Serif" font-size="10.00">../../include/json.h</text>
</a>
</g>
</g>
<!-- Node6&#45;&gt;Node7 -->
<g id="edge8" class="edge"><title>Node6&#45;&gt;Node7</title>
<path fill="none" stroke="midnightblue" d="M221.887,-280.083C223.742,-272.927 226.41,-262.635 228.729,-253.691"/>
<polygon fill="midnightblue" stroke="midnightblue" points="232.185,-254.309 231.306,-243.751 225.409,-252.553 232.185,-254.309"/>
</g>
<!-- Node20 -->
<g id="node20" class="node"><title>Node20</title>
<polygon fill="white" stroke="#bfbfbf" points="299.575,-224.5 299.575,-243.5 345.575,-243.5 345.575,-224.5 299.575,-224.5"/>
<text text-anchor="middle" x="322.575" y="-231.5" font-family="Helvetica,sans-Serif" font-size="10.00">stdio.h</text>
</g>
<!-- Node6&#45;&gt;Node20 -->
<g id="edge32" class="edge"><title>Node6&#45;&gt;Node20</title>
<path fill="none" stroke="midnightblue" d="M236.124,-280.324C252.567,-271.703 278.01,-258.364 297.043,-248.386"/>
<polygon fill="midnightblue" stroke="midnightblue" points="298.836,-251.398 306.067,-243.655 295.586,-245.198 298.836,-251.398"/>
</g>
<!-- Node8 -->
<g id="node8" class="node"><title>Node8</title>
<g id="a_node8"><a xlink:href="../../d3/dea/autolink_8h.xhtml" target="_top" xlink:title="autolink.h">
<polygon fill="white" stroke="black" points="114.075,-168.5 114.075,-187.5 173.075,-187.5 173.075,-168.5 114.075,-168.5"/>
<text text-anchor="middle" x="143.575" y="-175.5" font-family="Helvetica,sans-Serif" font-size="10.00">autolink.h</text>
</a>
</g>
</g>
<!-- Node7&#45;&gt;Node8 -->
<g id="edge9" class="edge"><title>Node7&#45;&gt;Node8</title>
<path fill="none" stroke="midnightblue" d="M219.115,-224.324C205.075,-215.9 183.527,-202.971 167.032,-193.074"/>
<polygon fill="midnightblue" stroke="midnightblue" points="168.375,-189.798 157.999,-187.655 164.773,-195.801 168.375,-189.798"/>
</g>
<!-- Node10 -->
<g id="node10" class="node"><title>Node10</title>
<g id="a_node10"><a xlink:href="../../d4/d3f/value_8h.xhtml" target="_top" xlink:title="value.h">
<polygon fill="white" stroke="black" points="262.075,-112.5 262.075,-131.5 309.075,-131.5 309.075,-112.5 262.075,-112.5"/>
<text text-anchor="middle" x="285.575" y="-119.5" font-family="Helvetica,sans-Serif" font-size="10.00">value.h</text>
</a>
</g>
</g>
<!-- Node7&#45;&gt;Node10 -->
<g id="edge12" class="edge"><title>Node7&#45;&gt;Node10</title>
<path fill="none" stroke="midnightblue" d="M241.402,-224.3C248.817,-215.65 259.799,-201.726 266.575,-188 273.894,-173.175 278.905,-155.023 281.936,-141.674"/>
<polygon fill="midnightblue" stroke="midnightblue" points="285.386,-142.274 284.023,-131.767 278.536,-140.831 285.386,-142.274"/>
</g>
<!-- Node15 -->
<g id="node15" class="node"><title>Node15</title>
<g id="a_node15"><a xlink:href="../../d6/dda/reader_8h.xhtml" target="_top" xlink:title="reader.h">
<polygon fill="white" stroke="black" points="313.575,-168.5 313.575,-187.5 365.575,-187.5 365.575,-168.5 313.575,-168.5"/>
<text text-anchor="middle" x="339.575" y="-175.5" font-family="Helvetica,sans-Serif" font-size="10.00">reader.h</text>
</a>
</g>
</g>
<!-- Node7&#45;&gt;Node15 -->
<g id="edge18" class="edge"><title>Node7&#45;&gt;Node15</title>
<path fill="none" stroke="midnightblue" d="M250.606,-224.324C267.605,-215.664 293.951,-202.242 313.568,-192.249"/>
<polygon fill="midnightblue" stroke="midnightblue" points="315.265,-195.312 322.587,-187.655 312.087,-189.075 315.265,-195.312"/>
</g>
<!-- Node19 -->
<g id="node19" class="node"><title>Node19</title>
<g id="a_node19"><a xlink:href="../../d9/d53/writer_8h.xhtml" target="_top" xlink:title="writer.h">
<polygon fill="white" stroke="black" points="209.575,-168.5 209.575,-187.5 257.575,-187.5 257.575,-168.5 209.575,-168.5"/>
<text text-anchor="middle" x="233.575" y="-175.5" font-family="Helvetica,sans-Serif" font-size="10.00">writer.h</text>
</a>
</g>
</g>
<!-- Node7&#45;&gt;Node19 -->
<g id="edge26" class="edge"><title>Node7&#45;&gt;Node19</title>
<path fill="none" stroke="midnightblue" d="M233.575,-224.083C233.575,-217.006 233.575,-206.861 233.575,-197.986"/>
<polygon fill="midnightblue" stroke="midnightblue" points="237.075,-197.751 233.575,-187.751 230.075,-197.751 237.075,-197.751"/>
</g>
<!-- Node16 -->
<g id="node16" class="node"><title>Node16</title>
<g id="a_node16"><a xlink:href="../../de/d47/features_8h.xhtml" target="_top" xlink:title="features.h">
<polygon fill="white" stroke="black" points="486.075,-112.5 486.075,-131.5 545.075,-131.5 545.075,-112.5 486.075,-112.5"/>
<text text-anchor="middle" x="515.575" y="-119.5" font-family="Helvetica,sans-Serif" font-size="10.00">features.h</text>
</a>
</g>
</g>
<!-- Node7&#45;&gt;Node16 -->
<g id="edge31" class="edge"><title>Node7&#45;&gt;Node16</title>
<path fill="none" stroke="midnightblue" d="M263.93,-224.488C292.741,-216.134 337.089,-202.559 374.575,-188 415.482,-172.113 461.385,-150.144 489.385,-136.254"/>
<polygon fill="midnightblue" stroke="midnightblue" points="491.121,-139.3 498.505,-131.702 487.995,-133.037 491.121,-139.3"/>
</g>
<!-- Node9 -->
<g id="node9" class="node"><title>Node9</title>
<g id="a_node9"><a xlink:href="../../db/d16/config_8h.xhtml" target="_top" xlink:title="config.h">
<polygon fill="white" stroke="black" points="195.575,-0.5 195.575,-19.5 245.575,-19.5 245.575,-0.5 195.575,-0.5"/>
<text text-anchor="middle" x="220.575" y="-7.5" font-family="Helvetica,sans-Serif" font-size="10.00">config.h</text>
</a>
</g>
</g>
<!-- Node8&#45;&gt;Node9 -->
<g id="edge10" class="edge"><title>Node8&#45;&gt;Node9</title>
<path fill="none" stroke="midnightblue" d="M138.491,-168.273C126.934,-147.169 101.418,-92.4296 124.575,-56 137.958,-34.9458 164.079,-23.5717 185.699,-17.5293"/>
<polygon fill="midnightblue" stroke="midnightblue" points="186.723,-20.8808 195.564,-15.0423 185.012,-14.0932 186.723,-20.8808"/>
</g>
<!-- Node8&#45;&gt;Node8 -->
<g id="edge11" class="edge"><title>Node8&#45;&gt;Node8</title>
<path fill="none" stroke="midnightblue" d="M163.865,-187.575C177.4,-190.27 190.575,-187.078 190.575,-178 190.575,-171.262 183.318,-167.767 174.042,-167.515"/>
<polygon fill="midnightblue" stroke="midnightblue" points="173.513,-164.048 163.865,-168.425 174.137,-171.02 173.513,-164.048"/>
</g>
<!-- Node11 -->
<g id="node11" class="node"><title>Node11</title>
<g id="a_node11"><a xlink:href="../../d2/d84/forwards_8h.xhtml" target="_top" xlink:title="forwards.h">
<polygon fill="white" stroke="black" points="325.075,-56.5 325.075,-75.5 386.075,-75.5 386.075,-56.5 325.075,-56.5"/>
<text text-anchor="middle" x="355.575" y="-63.5" font-family="Helvetica,sans-Serif" font-size="10.00">forwards.h</text>
</a>
</g>
</g>
<!-- Node10&#45;&gt;Node11 -->
<g id="edge13" class="edge"><title>Node10&#45;&gt;Node11</title>
<path fill="none" stroke="midnightblue" d="M296.822,-112.324C307.372,-104.185 323.376,-91.8395 336.017,-82.0874"/>
<polygon fill="midnightblue" stroke="midnightblue" points="338.344,-84.7132 344.124,-75.8339 334.068,-79.1707 338.344,-84.7132"/>
</g>
<!-- Node12 -->
<g id="node12" class="node"><title>Node12</title>
<polygon fill="white" stroke="#bfbfbf" points="213.075,-56.5 213.075,-75.5 254.075,-75.5 254.075,-56.5 213.075,-56.5"/>
<text text-anchor="middle" x="233.575" y="-63.5" font-family="Helvetica,sans-Serif" font-size="10.00">string</text>
</g>
<!-- Node10&#45;&gt;Node12 -->
<g id="edge15" class="edge"><title>Node10&#45;&gt;Node12</title>
<path fill="none" stroke="midnightblue" d="M276.988,-112.083C269.416,-104.22 258.197,-92.5688 249.061,-83.0813"/>
<polygon fill="midnightblue" stroke="midnightblue" points="251.46,-80.5266 242.002,-75.7511 246.417,-85.3821 251.46,-80.5266"/>
</g>
<!-- Node13 -->
<g id="node13" class="node"><title>Node13</title>
<polygon fill="white" stroke="#bfbfbf" points="133.575,-56.5 133.575,-75.5 175.575,-75.5 175.575,-56.5 133.575,-56.5"/>
<text text-anchor="middle" x="154.575" y="-63.5" font-family="Helvetica,sans-Serif" font-size="10.00">vector</text>
</g>
<!-- Node10&#45;&gt;Node13 -->
<g id="edge16" class="edge"><title>Node10&#45;&gt;Node13</title>
<path fill="none" stroke="midnightblue" d="M264.818,-112.444C243.259,-103.557 209.312,-89.5632 184.781,-79.4514"/>
<polygon fill="midnightblue" stroke="midnightblue" points="185.814,-76.0917 175.235,-75.5164 183.147,-82.5634 185.814,-76.0917"/>
</g>
<!-- Node14 -->
<g id="node14" class="node"><title>Node14</title>
<polygon fill="white" stroke="#bfbfbf" points="272.075,-56.5 272.075,-75.5 307.075,-75.5 307.075,-56.5 272.075,-56.5"/>
<text text-anchor="middle" x="289.575" y="-63.5" font-family="Helvetica,sans-Serif" font-size="10.00">map</text>
</g>
<!-- Node10&#45;&gt;Node14 -->
<g id="edge17" class="edge"><title>Node10&#45;&gt;Node14</title>
<path fill="none" stroke="midnightblue" d="M286.236,-112.083C286.76,-105.006 287.511,-94.8611 288.169,-85.9865"/>
<polygon fill="midnightblue" stroke="midnightblue" points="291.678,-85.9823 288.927,-75.7511 284.698,-85.4652 291.678,-85.9823"/>
</g>
<!-- Node11&#45;&gt;Node9 -->
<g id="edge14" class="edge"><title>Node11&#45;&gt;Node9</title>
<path fill="none" stroke="midnightblue" d="M334.184,-56.4435C311.868,-47.5171 276.672,-33.4387 251.367,-23.3168"/>
<polygon fill="midnightblue" stroke="midnightblue" points="252.451,-19.9807 241.866,-19.5164 249.851,-26.4801 252.451,-19.9807"/>
</g>
<!-- Node15&#45;&gt;Node16 -->
<g id="edge19" class="edge"><title>Node15&#45;&gt;Node16</title>
<path fill="none" stroke="midnightblue" d="M365.924,-168.916C395.558,-159.823 443.938,-144.979 477.639,-134.64"/>
<polygon fill="midnightblue" stroke="midnightblue" points="479.056,-137.866 487.589,-131.587 477.003,-131.174 479.056,-137.866"/>
</g>
<!-- Node15&#45;&gt;Node10 -->
<g id="edge21" class="edge"><title>Node15&#45;&gt;Node10</title>
<path fill="none" stroke="midnightblue" d="M330.658,-168.083C322.795,-160.22 311.144,-148.569 301.656,-139.081"/>
<polygon fill="midnightblue" stroke="midnightblue" points="303.872,-136.347 294.326,-131.751 298.922,-141.297 303.872,-136.347"/>
</g>
<!-- Node17 -->
<g id="node17" class="node"><title>Node17</title>
<polygon fill="white" stroke="#bfbfbf" points="366.075,-112.5 366.075,-131.5 409.075,-131.5 409.075,-112.5 366.075,-112.5"/>
<text text-anchor="middle" x="387.575" y="-119.5" font-family="Helvetica,sans-Serif" font-size="10.00">deque</text>
</g>
<!-- Node15&#45;&gt;Node17 -->
<g id="edge22" class="edge"><title>Node15&#45;&gt;Node17</title>
<path fill="none" stroke="midnightblue" d="M347.501,-168.083C354.421,-160.298 364.64,-148.801 373.027,-139.367"/>
<polygon fill="midnightblue" stroke="midnightblue" points="375.769,-141.55 379.796,-131.751 370.537,-136.9 375.769,-141.55"/>
</g>
<!-- Node18 -->
<g id="node18" class="node"><title>Node18</title>
<polygon fill="white" stroke="#bfbfbf" points="427.075,-112.5 427.075,-131.5 468.075,-131.5 468.075,-112.5 427.075,-112.5"/>
<text text-anchor="middle" x="447.575" y="-119.5" font-family="Helvetica,sans-Serif" font-size="10.00">stack</text>
</g>
<!-- Node15&#45;&gt;Node18 -->
<g id="edge23" class="edge"><title>Node15&#45;&gt;Node18</title>
<path fill="none" stroke="midnightblue" d="M356.927,-168.324C374.247,-159.664 401.09,-146.242 421.077,-136.249"/>
<polygon fill="midnightblue" stroke="midnightblue" points="422.887,-139.257 430.266,-131.655 419.756,-132.996 422.887,-139.257"/>
</g>
<!-- Node15&#45;&gt;Node12 -->
<g id="edge24" class="edge"><title>Node15&#45;&gt;Node12</title>
<path fill="none" stroke="midnightblue" d="M338.695,-168.437C336.909,-154.989 331.742,-128.728 317.575,-112 303.502,-95.3822 281.694,-83.9566 263.826,-76.777"/>
<polygon fill="midnightblue" stroke="midnightblue" points="264.97,-73.4681 254.378,-73.2192 262.503,-80.019 264.97,-73.4681"/>
</g>
<!-- Node15&#45;&gt;Node4 -->
<g id="edge25" class="edge"><title>Node15&#45;&gt;Node4</title>
<path fill="none" stroke="midnightblue" d="M314.064,-168.444C286.979,-159.359 243.985,-144.939 213.706,-134.783"/>
<polygon fill="midnightblue" stroke="midnightblue" points="214.561,-131.378 203.967,-131.516 212.335,-138.015 214.561,-131.378"/>
</g>
<!-- Node16&#45;&gt;Node11 -->
<g id="edge20" class="edge"><title>Node16&#45;&gt;Node11</title>
<path fill="none" stroke="midnightblue" d="M490.223,-112.444C463.306,-103.359 420.579,-88.9388 390.488,-78.7831"/>
<polygon fill="midnightblue" stroke="midnightblue" points="391.403,-75.3981 380.809,-75.5164 389.165,-82.0305 391.403,-75.3981"/>
</g>
<!-- Node19&#45;&gt;Node10 -->
<g id="edge27" class="edge"><title>Node19&#45;&gt;Node10</title>
<path fill="none" stroke="midnightblue" d="M242.162,-168.083C249.734,-160.22 260.953,-148.569 270.089,-139.081"/>
<polygon fill="midnightblue" stroke="midnightblue" points="272.733,-141.382 277.148,-131.751 267.69,-136.527 272.733,-141.382"/>
</g>
<!-- Node19&#45;&gt;Node13 -->
<g id="edge28" class="edge"><title>Node19&#45;&gt;Node13</title>
<path fill="none" stroke="midnightblue" d="M209.719,-168.499C185.402,-159.292 150.2,-144.277 142.575,-132 133.794,-117.862 138.814,-98.8811 144.816,-85.0823"/>
<polygon fill="midnightblue" stroke="midnightblue" points="148.15,-86.2291 149.384,-75.7063 141.858,-83.1627 148.15,-86.2291"/>
</g>
<!-- Node19&#45;&gt;Node12 -->
<g id="edge29" class="edge"><title>Node19&#45;&gt;Node12</title>
<path fill="none" stroke="midnightblue" d="M233.575,-168.368C233.575,-150.617 233.575,-109.666 233.575,-85.5974"/>
<polygon fill="midnightblue" stroke="midnightblue" points="237.075,-85.5914 233.575,-75.5914 230.075,-85.5915 237.075,-85.5914"/>
</g>
<!-- Node19&#45;&gt;Node4 -->
<g id="edge30" class="edge"><title>Node19&#45;&gt;Node4</title>
<path fill="none" stroke="midnightblue" d="M224.493,-168.083C216.404,-160.141 204.38,-148.335 194.665,-138.797"/>
<polygon fill="midnightblue" stroke="midnightblue" points="197.076,-136.26 187.488,-131.751 192.172,-141.254 197.076,-136.26"/>
</g>
</g>
</svg>
