<?xml version="1.0" encoding="UTF-8" standalone="no"?>
<!DOCTYPE svg PUBLIC "-//W3C//DTD SVG 1.1//EN"
 "http://www.w3.org/Graphics/SVG/1.1/DTD/svg11.dtd">
<!-- Generated by graphviz version 2.30.1 (20130214.1330)
 -->
<!-- Title: GUI/Gui&#45;RoombaV1.0/brushvacuumdata.h Pages: 1 -->
<svg width="1289pt" height="342pt"
 viewBox="0.00 0.00 1289.00 342.00" xmlns="http://www.w3.org/2000/svg" xmlns:xlink="http://www.w3.org/1999/xlink">
<g id="graph0" class="graph" transform="scale(1 1) rotate(0) translate(4 338)">
<title>GUI/Gui&#45;RoombaV1.0/brushvacuumdata.h</title>
<polygon fill="white" stroke="white" points="-4,5 -4,-338 1286,-338 1286,5 -4,5"/>
<!-- Node1 -->
<g id="node1" class="node"><title>Node1</title>
<polygon fill="#bfbfbf" stroke="black" points="857,-303 857,-333 967,-333 967,-303 857,-303"/>
<text text-anchor="start" x="865" y="-321" font-family="Helvetica,sans-Serif" font-size="10.00">GUI/Gui&#45;RoombaV1.0</text>
<text text-anchor="middle" x="912" y="-310" font-family="Helvetica,sans-Serif" font-size="10.00">/brushvacuumdata.h</text>
</g>
<!-- Node2 -->
<g id="node2" class="node"><title>Node2</title>
<g id="a_node2"><a xlink:href="../../d4/dca/_roomba_connect_8h.xhtml" target="_top" xlink:title="GUI/Gui&#45;RoombaV1.0\l/RoombaConnect.h">
<polygon fill="white" stroke="black" points="792,-235 792,-265 902,-265 902,-235 792,-235"/>
<text text-anchor="start" x="800" y="-253" font-family="Helvetica,sans-Serif" font-size="10.00">GUI/Gui&#45;RoombaV1.0</text>
<text text-anchor="middle" x="847" y="-242" font-family="Helvetica,sans-Serif" font-size="10.00">/RoombaConnect.h</text>
</a>
</g>
</g>
<!-- Node1&#45;&gt;Node2 -->
<g id="edge1" class="edge"><title>Node1&#45;&gt;Node2</title>
<path fill="none" stroke="midnightblue" d="M890.811,-295.485C881.061,-285.585 869.759,-274.109 861.077,-265.293"/>
<polygon fill="midnightblue" stroke="midnightblue" points="888.385,-298.01 897.896,-302.679 893.373,-293.098 888.385,-298.01"/>
</g>
<!-- Node18 -->
<g id="node18" class="node"><title>Node18</title>
<g id="a_node18"><a xlink:href="../../d8/da8/brushvacuumdata_8cpp.xhtml" target="_top" xlink:title="GUI/Gui&#45;RoombaV1.0\l/brushvacuumdata.cpp">
<polygon fill="white" stroke="black" points="920,-235 920,-265 1034,-265 1034,-235 920,-235"/>
<text text-anchor="start" x="928" y="-253" font-family="Helvetica,sans-Serif" font-size="10.00">GUI/Gui&#45;RoombaV1.0</text>
<text text-anchor="middle" x="977" y="-242" font-family="Helvetica,sans-Serif" font-size="10.00">/brushvacuumdata.cpp</text>
</a>
</g>
</g>
<!-- Node1&#45;&gt;Node18 -->
<g id="edge19" class="edge"><title>Node1&#45;&gt;Node18</title>
<path fill="none" stroke="midnightblue" d="M933.189,-295.485C942.939,-285.585 954.241,-274.109 962.923,-265.293"/>
<polygon fill="midnightblue" stroke="midnightblue" points="930.627,-293.098 926.104,-302.679 935.615,-298.01 930.627,-293.098"/>
</g>
<!-- Node3 -->
<g id="node3" class="node"><title>Node3</title>
<g id="a_node3"><a xlink:href="../../da/d4b/controllingroomba_8h.xhtml" target="_top" xlink:title="GUI/Gui&#45;RoombaV1.0\l/controllingroomba.h">
<polygon fill="white" stroke="black" points="652,-162 652,-192 762,-192 762,-162 652,-162"/>
<text text-anchor="start" x="660" y="-180" font-family="Helvetica,sans-Serif" font-size="10.00">GUI/Gui&#45;RoombaV1.0</text>
<text text-anchor="middle" x="707" y="-169" font-family="Helvetica,sans-Serif" font-size="10.00">/controllingroomba.h</text>
</a>
</g>
</g>
<!-- Node2&#45;&gt;Node3 -->
<g id="edge2" class="edge"><title>Node2&#45;&gt;Node3</title>
<path fill="none" stroke="midnightblue" d="M810.351,-230.414C786.816,-218.478 756.719,-203.215 735.081,-192.241"/>
<polygon fill="midnightblue" stroke="midnightblue" points="808.839,-233.571 819.341,-234.973 812.005,-227.328 808.839,-233.571"/>
</g>
<!-- Node5 -->
<g id="node5" class="node"><title>Node5</title>
<g id="a_node5"><a xlink:href="../../dd/da1/roomba_8h.xhtml" target="_top" xlink:title="GUI/Gui&#45;RoombaV1.0\l/roomba.h">
<polygon fill="white" stroke="black" points="509,-84 509,-114 619,-114 619,-84 509,-84"/>
<text text-anchor="start" x="517" y="-102" font-family="Helvetica,sans-Serif" font-size="10.00">GUI/Gui&#45;RoombaV1.0</text>
<text text-anchor="middle" x="564" y="-91" font-family="Helvetica,sans-Serif" font-size="10.00">/roomba.h</text>
</a>
</g>
</g>
<!-- Node2&#45;&gt;Node5 -->
<g id="edge15" class="edge"><title>Node2&#45;&gt;Node5</title>
<path fill="none" stroke="midnightblue" d="M781.779,-243.461C739.494,-237.389 684.721,-224.663 643,-198 609.302,-176.464 583.412,-135.64 571.387,-114.108"/>
<polygon fill="midnightblue" stroke="midnightblue" points="781.317,-246.931 791.694,-244.797 782.251,-239.993 781.317,-246.931"/>
</g>
<!-- Node15 -->
<g id="node15" class="node"><title>Node15</title>
<g id="a_node15"><a xlink:href="../../d1/d9b/bin_2debug_2debug_2moc___roomba_connect_8cpp.xhtml" target="_top" xlink:title="GUI/bin/debug/debug\l/moc_RoombaConnect.cpp">
<polygon fill="white" stroke="black" points="780,-162 780,-192 914,-192 914,-162 780,-162"/>
<text text-anchor="start" x="788" y="-180" font-family="Helvetica,sans-Serif" font-size="10.00">GUI/bin/debug/debug</text>
<text text-anchor="middle" x="847" y="-169" font-family="Helvetica,sans-Serif" font-size="10.00">/moc_RoombaConnect.cpp</text>
</a>
</g>
</g>
<!-- Node2&#45;&gt;Node15 -->
<g id="edge16" class="edge"><title>Node2&#45;&gt;Node15</title>
<path fill="none" stroke="midnightblue" d="M847,-224.898C847,-214.131 847,-201.801 847,-192.486"/>
<polygon fill="midnightblue" stroke="midnightblue" points="843.5,-224.973 847,-234.973 850.5,-224.973 843.5,-224.973"/>
</g>
<!-- Node16 -->
<g id="node16" class="node"><title>Node16</title>
<g id="a_node16"><a xlink:href="../../d7/da4/_roomba_connect_8cpp.xhtml" target="_top" xlink:title="GUI/Gui&#45;RoombaV1.0\l/RoombaConnect.cpp">
<polygon fill="white" stroke="black" points="932,-162 932,-192 1042,-192 1042,-162 932,-162"/>
<text text-anchor="start" x="940" y="-180" font-family="Helvetica,sans-Serif" font-size="10.00">GUI/Gui&#45;RoombaV1.0</text>
<text text-anchor="middle" x="987" y="-169" font-family="Helvetica,sans-Serif" font-size="10.00">/RoombaConnect.cpp</text>
</a>
</g>
</g>
<!-- Node2&#45;&gt;Node16 -->
<g id="edge17" class="edge"><title>Node2&#45;&gt;Node16</title>
<path fill="none" stroke="midnightblue" d="M883.649,-230.414C907.184,-218.478 937.281,-203.215 958.919,-192.241"/>
<polygon fill="midnightblue" stroke="midnightblue" points="881.995,-227.328 874.659,-234.973 885.161,-233.571 881.995,-227.328"/>
</g>
<!-- Node17 -->
<g id="node17" class="node"><title>Node17</title>
<g id="a_node17"><a xlink:href="../../d2/ddc/roombagui-build-_desktop___qt__5__0__1___m_s_v_c2010__32bit-_debug_2debug_2moc___roomba_connect_8cpp.xhtml" target="_top" xlink:title="GUI/roombagui&#45;build\l&#45;Desktop_Qt_5_0_1_MSVC2010\l_32bit&#45;Debug/debug/moc_RoombaConnect.cpp">
<polygon fill="white" stroke="black" points="1060.5,-156.5 1060.5,-197.5 1281.5,-197.5 1281.5,-156.5 1060.5,-156.5"/>
<text text-anchor="start" x="1068.5" y="-185.5" font-family="Helvetica,sans-Serif" font-size="10.00">GUI/roombagui&#45;build</text>
<text text-anchor="start" x="1068.5" y="-174.5" font-family="Helvetica,sans-Serif" font-size="10.00">&#45;Desktop_Qt_5_0_1_MSVC2010</text>
<text text-anchor="middle" x="1171" y="-163.5" font-family="Helvetica,sans-Serif" font-size="10.00">_32bit&#45;Debug/debug/moc_RoombaConnect.cpp</text>
</a>
</g>
</g>
<!-- Node2&#45;&gt;Node17 -->
<g id="edge18" class="edge"><title>Node2&#45;&gt;Node17</title>
<path fill="none" stroke="midnightblue" d="M911.917,-233.813C972.694,-220.185 1031.12,-207.589 1078.25,-197.551"/>
<polygon fill="midnightblue" stroke="midnightblue" points="911.133,-230.402 902.143,-236.009 912.667,-237.232 911.133,-230.402"/>
</g>
<!-- Node4 -->
<g id="node4" class="node"><title>Node4</title>
<g id="a_node4"><a xlink:href="../../d2/d33/bin_2debug_2debug_2moc__controllingroomba_8cpp.xhtml" target="_top" xlink:title="GUI/bin/debug/debug\l/moc_controllingroomba.cpp">
<polygon fill="white" stroke="black" points="637.5,-84 637.5,-114 776.5,-114 776.5,-84 637.5,-84"/>
<text text-anchor="start" x="645.5" y="-102" font-family="Helvetica,sans-Serif" font-size="10.00">GUI/bin/debug/debug</text>
<text text-anchor="middle" x="707" y="-91" font-family="Helvetica,sans-Serif" font-size="10.00">/moc_controllingroomba.cpp</text>
</a>
</g>
</g>
<!-- Node3&#45;&gt;Node4 -->
<g id="edge3" class="edge"><title>Node3&#45;&gt;Node4</title>
<path fill="none" stroke="midnightblue" d="M707,-151.59C707,-139.257 707,-124.724 707,-114.231"/>
<polygon fill="midnightblue" stroke="midnightblue" points="703.5,-151.705 707,-161.705 710.5,-151.705 703.5,-151.705"/>
</g>
<!-- Node3&#45;&gt;Node5 -->
<g id="edge4" class="edge"><title>Node3&#45;&gt;Node5</title>
<path fill="none" stroke="midnightblue" d="M671.577,-157.174C646.444,-143.817 613.253,-126.176 590.42,-114.041"/>
<polygon fill="midnightblue" stroke="midnightblue" points="669.965,-160.281 680.438,-161.883 673.25,-154.099 669.965,-160.281"/>
</g>
<!-- Node7 -->
<g id="node7" class="node"><title>Node7</title>
<g id="a_node7"><a xlink:href="../../d5/dd2/controllingroomba_8cpp.xhtml" target="_top" xlink:title="GUI/Gui&#45;RoombaV1.0\l/controllingroomba.cpp">
<polygon fill="white" stroke="black" points="964.5,-6 964.5,-36 1079.5,-36 1079.5,-6 964.5,-6"/>
<text text-anchor="start" x="972.5" y="-24" font-family="Helvetica,sans-Serif" font-size="10.00">GUI/Gui&#45;RoombaV1.0</text>
<text text-anchor="middle" x="1022" y="-13" font-family="Helvetica,sans-Serif" font-size="10.00">/controllingroomba.cpp</text>
</a>
</g>
</g>
<!-- Node3&#45;&gt;Node7 -->
<g id="edge13" class="edge"><title>Node3&#45;&gt;Node7</title>
<path fill="none" stroke="midnightblue" d="M737.362,-156.165C752.22,-145.976 770.074,-132.992 785,-120 804.444,-103.076 802.89,-91.2526 825,-78 876.423,-47.178 897.385,-58.5751 955,-42 961.533,-40.1206 968.414,-38.1064 975.178,-36.1063"/>
<polygon fill="midnightblue" stroke="midnightblue" points="735.325,-153.318 729.005,-161.821 739.248,-159.115 735.325,-153.318"/>
</g>
<!-- Node14 -->
<g id="node14" class="node"><title>Node14</title>
<g id="a_node14"><a xlink:href="../../d5/dc6/roombagui-build-_desktop___qt__5__0__1___m_s_v_c2010__32bit-_debug_2debug_2moc__controllingroomba_8cpp.xhtml" target="_top" xlink:title="GUI/roombagui&#45;build\l&#45;Desktop_Qt_5_0_1_MSVC2010\l_32bit&#45;Debug/debug/moc_controllingroomba.cpp">
<polygon fill="white" stroke="black" points="833.5,-78.5 833.5,-119.5 1058.5,-119.5 1058.5,-78.5 833.5,-78.5"/>
<text text-anchor="start" x="841.5" y="-107.5" font-family="Helvetica,sans-Serif" font-size="10.00">GUI/roombagui&#45;build</text>
<text text-anchor="start" x="841.5" y="-96.5" font-family="Helvetica,sans-Serif" font-size="10.00">&#45;Desktop_Qt_5_0_1_MSVC2010</text>
<text text-anchor="middle" x="946" y="-85.5" font-family="Helvetica,sans-Serif" font-size="10.00">_32bit&#45;Debug/debug/moc_controllingroomba.cpp</text>
</a>
</g>
</g>
<!-- Node3&#45;&gt;Node14 -->
<g id="edge14" class="edge"><title>Node3&#45;&gt;Node14</title>
<path fill="none" stroke="midnightblue" d="M760.664,-158.935C797.424,-147.246 846.268,-131.714 884.584,-119.53"/>
<polygon fill="midnightblue" stroke="midnightblue" points="759.584,-155.606 751.115,-161.972 761.705,-162.277 759.584,-155.606"/>
</g>
<!-- Node6 -->
<g id="node6" class="node"><title>Node6</title>
<g id="a_node6"><a xlink:href="../../d8/d22/bin_2debug_2debug_2moc__roomba_8cpp.xhtml" target="_top" xlink:title="GUI/bin/debug/debug\l/moc_roomba.cpp">
<polygon fill="white" stroke="black" points="-0.5,-6 -0.5,-36 106.5,-36 106.5,-6 -0.5,-6"/>
<text text-anchor="start" x="7.5" y="-24" font-family="Helvetica,sans-Serif" font-size="10.00">GUI/bin/debug/debug</text>
<text text-anchor="middle" x="53" y="-13" font-family="Helvetica,sans-Serif" font-size="10.00">/moc_roomba.cpp</text>
</a>
</g>
</g>
<!-- Node5&#45;&gt;Node6 -->
<g id="edge5" class="edge"><title>Node5&#45;&gt;Node6</title>
<path fill="none" stroke="midnightblue" d="M498.898,-93.6171C411.145,-86.8588 250.407,-71.4746 116,-42 108.602,-40.3777 100.831,-38.2625 93.3715,-36.0165"/>
<polygon fill="midnightblue" stroke="midnightblue" points="498.736,-97.1148 508.972,-94.3797 499.264,-90.1348 498.736,-97.1148"/>
</g>
<!-- Node5&#45;&gt;Node7 -->
<g id="edge6" class="edge"><title>Node5&#45;&gt;Node7</title>
<path fill="none" stroke="midnightblue" d="M614.714,-81.1767C619.179,-79.9925 623.652,-78.9097 628,-78 771.112,-48.0547 811.699,-71.0289 955,-42 962.852,-40.4093 971.109,-38.3095 979.04,-36.0688"/>
<polygon fill="midnightblue" stroke="midnightblue" points="613.686,-77.8299 605.004,-83.9029 615.578,-84.5693 613.686,-77.8299"/>
</g>
<!-- Node8 -->
<g id="node8" class="node"><title>Node8</title>
<g id="a_node8"><a xlink:href="../../d1/d10/displaylogs_8cpp.xhtml" target="_top" xlink:title="GUI/Gui&#45;RoombaV1.0\l/displaylogs.cpp">
<polygon fill="white" stroke="black" points="125,-6 125,-36 235,-36 235,-6 125,-6"/>
<text text-anchor="start" x="133" y="-24" font-family="Helvetica,sans-Serif" font-size="10.00">GUI/Gui&#45;RoombaV1.0</text>
<text text-anchor="middle" x="180" y="-13" font-family="Helvetica,sans-Serif" font-size="10.00">/displaylogs.cpp</text>
</a>
</g>
</g>
<!-- Node5&#45;&gt;Node8 -->
<g id="edge7" class="edge"><title>Node5&#45;&gt;Node8</title>
<path fill="none" stroke="midnightblue" d="M498.807,-89.1227C433.781,-79.6763 331.273,-63.1784 244,-42 236.873,-40.2705 229.378,-38.181 222.127,-36.0134"/>
<polygon fill="midnightblue" stroke="midnightblue" points="498.517,-92.6169 508.914,-90.5779 499.515,-85.6884 498.517,-92.6169"/>
</g>
<!-- Node9 -->
<g id="node9" class="node"><title>Node9</title>
<g id="a_node9"><a xlink:href="../../da/d0b/information_8cpp.xhtml" target="_top" xlink:title="GUI/Gui&#45;RoombaV1.0\l/information.cpp">
<polygon fill="white" stroke="black" points="253,-6 253,-36 363,-36 363,-6 253,-6"/>
<text text-anchor="start" x="261" y="-24" font-family="Helvetica,sans-Serif" font-size="10.00">GUI/Gui&#45;RoombaV1.0</text>
<text text-anchor="middle" x="308" y="-13" font-family="Helvetica,sans-Serif" font-size="10.00">/information.cpp</text>
</a>
</g>
</g>
<!-- Node5&#45;&gt;Node9 -->
<g id="edge8" class="edge"><title>Node5&#45;&gt;Node9</title>
<path fill="none" stroke="midnightblue" d="M505.112,-81.1394C467.076,-70.1713 416.548,-55.4559 372,-42 365.76,-40.115 359.187,-38.0977 352.726,-36.0961"/>
<polygon fill="midnightblue" stroke="midnightblue" points="504.418,-84.5819 514.996,-83.9865 506.356,-77.8554 504.418,-84.5819"/>
</g>
<!-- Node10 -->
<g id="node10" class="node"><title>Node10</title>
<g id="a_node10"><a xlink:href="../../d8/da8/_gui-_roomba_v1_80_2main_8cpp.xhtml" target="_top" xlink:title="GUI/Gui&#45;RoombaV1.0\l/main.cpp">
<polygon fill="white" stroke="black" points="381,-6 381,-36 491,-36 491,-6 381,-6"/>
<text text-anchor="start" x="389" y="-24" font-family="Helvetica,sans-Serif" font-size="10.00">GUI/Gui&#45;RoombaV1.0</text>
<text text-anchor="middle" x="436" y="-13" font-family="Helvetica,sans-Serif" font-size="10.00">/main.cpp</text>
</a>
</g>
</g>
<!-- Node5&#45;&gt;Node10 -->
<g id="edge9" class="edge"><title>Node5&#45;&gt;Node10</title>
<path fill="none" stroke="midnightblue" d="M531.401,-78.6444C509.016,-65.3533 479.817,-48.0166 459.649,-36.0413"/>
<polygon fill="midnightblue" stroke="midnightblue" points="529.839,-81.7872 540.224,-83.8831 533.413,-75.7682 529.839,-81.7872"/>
</g>
<!-- Node11 -->
<g id="node11" class="node"><title>Node11</title>
<g id="a_node11"><a xlink:href="../../de/d67/roomba_8cpp.xhtml" target="_top" xlink:title="GUI/Gui&#45;RoombaV1.0\l/roomba.cpp">
<polygon fill="white" stroke="black" points="509,-6 509,-36 619,-36 619,-6 509,-6"/>
<text text-anchor="start" x="517" y="-24" font-family="Helvetica,sans-Serif" font-size="10.00">GUI/Gui&#45;RoombaV1.0</text>
<text text-anchor="middle" x="564" y="-13" font-family="Helvetica,sans-Serif" font-size="10.00">/roomba.cpp</text>
</a>
</g>
</g>
<!-- Node5&#45;&gt;Node11 -->
<g id="edge10" class="edge"><title>Node5&#45;&gt;Node11</title>
<path fill="none" stroke="midnightblue" d="M564,-73.5898C564,-61.2565 564,-46.7237 564,-36.2309"/>
<polygon fill="midnightblue" stroke="midnightblue" points="560.5,-73.7049 564,-83.705 567.5,-73.705 560.5,-73.7049"/>
</g>
<!-- Node12 -->
<g id="node12" class="node"><title>Node12</title>
<g id="a_node12"><a xlink:href="../../da/d3b/settingsroomba_8cpp.xhtml" target="_top" xlink:title="GUI/Gui&#45;RoombaV1.0\l/settingsroomba.cpp">
<polygon fill="white" stroke="black" points="637,-6 637,-36 747,-36 747,-6 637,-6"/>
<text text-anchor="start" x="645" y="-24" font-family="Helvetica,sans-Serif" font-size="10.00">GUI/Gui&#45;RoombaV1.0</text>
<text text-anchor="middle" x="692" y="-13" font-family="Helvetica,sans-Serif" font-size="10.00">/settingsroomba.cpp</text>
</a>
</g>
</g>
<!-- Node5&#45;&gt;Node12 -->
<g id="edge11" class="edge"><title>Node5&#45;&gt;Node12</title>
<path fill="none" stroke="midnightblue" d="M596.599,-78.6444C618.984,-65.3533 648.183,-48.0166 668.351,-36.0413"/>
<polygon fill="midnightblue" stroke="midnightblue" points="594.587,-75.7682 587.776,-83.8831 598.161,-81.7872 594.587,-75.7682"/>
</g>
<!-- Node13 -->
<g id="node13" class="node"><title>Node13</title>
<g id="a_node13"><a xlink:href="../../d9/d13/roombagui-build-_desktop___qt__5__0__1___m_s_v_c2010__32bit-_debug_2debug_2moc__roomba_8cpp.xhtml" target="_top" xlink:title="GUI/roombagui&#45;build\l&#45;Desktop_Qt_5_0_1_MSVC2010\l_32bit&#45;Debug/debug/moc_roomba.cpp">
<polygon fill="white" stroke="black" points="765.5,-0.5 765.5,-41.5 946.5,-41.5 946.5,-0.5 765.5,-0.5"/>
<text text-anchor="start" x="773.5" y="-29.5" font-family="Helvetica,sans-Serif" font-size="10.00">GUI/roombagui&#45;build</text>
<text text-anchor="start" x="773.5" y="-18.5" font-family="Helvetica,sans-Serif" font-size="10.00">&#45;Desktop_Qt_5_0_1_MSVC2010</text>
<text text-anchor="middle" x="856" y="-7.5" font-family="Helvetica,sans-Serif" font-size="10.00">_32bit&#45;Debug/debug/moc_roomba.cpp</text>
</a>
</g>
</g>
<!-- Node5&#45;&gt;Node13 -->
<g id="edge12" class="edge"><title>Node5&#45;&gt;Node13</title>
<path fill="none" stroke="midnightblue" d="M617.236,-81.0897C620.872,-80.0195 624.485,-78.9798 628,-78 675.115,-64.8658 728.158,-51.7402 771.218,-41.5011"/>
<polygon fill="midnightblue" stroke="midnightblue" points="616.189,-77.7497 607.615,-83.9738 618.199,-84.4549 616.189,-77.7497"/>
</g>
</g>
</svg>
