<?xml version="1.0" encoding="UTF-8" standalone="no"?>
<!DOCTYPE svg PUBLIC "-//W3C//DTD SVG 1.1//EN"
 "http://www.w3.org/Graphics/SVG/1.1/DTD/svg11.dtd">
<!-- Generated by graphviz version 2.30.1 (20130214.1330)
 -->
<!-- Title: GUI/Gui&#45;RoombaV1.0/RoombaConnect.cpp Pages: 1 -->
<svg width="1007pt" height="388pt"
 viewBox="0.00 0.00 1006.96 388.00" xmlns="http://www.w3.org/2000/svg" xmlns:xlink="http://www.w3.org/1999/xlink">
<g id="graph0" class="graph" transform="scale(1 1) rotate(0) translate(4 384)">
<title>GUI/Gui&#45;RoombaV1.0/RoombaConnect.cpp</title>
<polygon fill="white" stroke="white" points="-4,5 -4,-384 1003.96,-384 1003.96,5 -4,5"/>
<!-- Node1 -->
<g id="node1" class="node"><title>Node1</title>
<polygon fill="#bfbfbf" stroke="black" points="808.548,-349 808.548,-379 918.548,-379 918.548,-349 808.548,-349"/>
<text text-anchor="start" x="816.548" y="-367" font-family="Helvetica,sans-Serif" font-size="10.00">GUI/Gui&#45;RoombaV1.0</text>
<text text-anchor="middle" x="863.548" y="-356" font-family="Helvetica,sans-Serif" font-size="10.00">/RoombaConnect.cpp</text>
</g>
<!-- Node2 -->
<g id="node2" class="node"><title>Node2</title>
<g id="a_node2"><a xlink:href="../../d4/dca/_roomba_connect_8h.xhtml" target="_top" xlink:title="RoombaConnect.h">
<polygon fill="white" stroke="black" points="672.048,-292.5 672.048,-311.5 769.048,-311.5 769.048,-292.5 672.048,-292.5"/>
<text text-anchor="middle" x="720.548" y="-299.5" font-family="Helvetica,sans-Serif" font-size="10.00">RoombaConnect.h</text>
</a>
</g>
</g>
<!-- Node1&#45;&gt;Node2 -->
<g id="edge1" class="edge"><title>Node1&#45;&gt;Node2</title>
<path fill="none" stroke="midnightblue" d="M830.021,-348.933C805.895,-338.81 773.644,-325.278 750.403,-315.527"/>
<polygon fill="midnightblue" stroke="midnightblue" points="751.62,-312.242 741.045,-311.6 748.912,-318.697 751.62,-312.242"/>
</g>
<!-- Node14 -->
<g id="node14" class="node"><title>Node14</title>
<g id="a_node14"><a xlink:href="../../dc/d96/jsoncommand_8h.xhtml" target="_top" xlink:title="../resources/jsoncommand.h">
<polygon fill="white" stroke="black" points="796.548,-168.5 796.548,-187.5 936.548,-187.5 936.548,-168.5 796.548,-168.5"/>
<text text-anchor="middle" x="866.548" y="-175.5" font-family="Helvetica,sans-Serif" font-size="10.00">../resources/jsoncommand.h</text>
</a>
</g>
</g>
<!-- Node1&#45;&gt;Node14 -->
<g id="edge40" class="edge"><title>Node1&#45;&gt;Node14</title>
<path fill="none" stroke="midnightblue" d="M893.239,-348.972C939.988,-324.937 1022.06,-273.658 987.548,-224 976.168,-207.626 958.084,-197.198 939.329,-190.561"/>
<polygon fill="midnightblue" stroke="midnightblue" points="940.386,-187.224 929.795,-187.511 938.253,-193.891 940.386,-187.224"/>
</g>
<!-- Node3 -->
<g id="node3" class="node"><title>Node3</title>
<polygon fill="white" stroke="#bfbfbf" points="704.048,-56.5 704.048,-75.5 757.048,-75.5 757.048,-56.5 704.048,-56.5"/>
<text text-anchor="middle" x="730.548" y="-63.5" font-family="Helvetica,sans-Serif" font-size="10.00">QObject</text>
</g>
<!-- Node2&#45;&gt;Node3 -->
<g id="edge2" class="edge"><title>Node2&#45;&gt;Node3</title>
<path fill="none" stroke="midnightblue" d="M703.915,-292.464C691.06,-284.841 674.209,-272.356 666.548,-256 660.516,-243.121 660.458,-236.852 666.548,-224 677.368,-201.167 697.896,-209.871 710.548,-188 729.232,-155.701 731.708,-110.921 731.411,-85.8828"/>
<polygon fill="midnightblue" stroke="midnightblue" points="734.901,-85.4955 731.114,-75.6005 727.904,-85.6973 734.901,-85.4955"/>
</g>
<!-- Node4 -->
<g id="node4" class="node"><title>Node4</title>
<polygon fill="white" stroke="#bfbfbf" points="685.048,-230.5 685.048,-249.5 756.048,-249.5 756.048,-230.5 685.048,-230.5"/>
<text text-anchor="middle" x="720.548" y="-237.5" font-family="Helvetica,sans-Serif" font-size="10.00">QTcpSocket</text>
</g>
<!-- Node2&#45;&gt;Node4 -->
<g id="edge3" class="edge"><title>Node2&#45;&gt;Node4</title>
<path fill="none" stroke="midnightblue" d="M720.548,-292.403C720.548,-283.938 720.548,-270.728 720.548,-259.82"/>
<polygon fill="midnightblue" stroke="midnightblue" points="724.048,-259.581 720.548,-249.581 717.048,-259.581 724.048,-259.581"/>
</g>
<!-- Node5 -->
<g id="node5" class="node"><title>Node5</title>
<polygon fill="white" stroke="#bfbfbf" points="774.548,-230.5 774.548,-249.5 848.548,-249.5 848.548,-230.5 774.548,-230.5"/>
<text text-anchor="middle" x="811.548" y="-237.5" font-family="Helvetica,sans-Serif" font-size="10.00">QTextStream</text>
</g>
<!-- Node2&#45;&gt;Node5 -->
<g id="edge4" class="edge"><title>Node2&#45;&gt;Node5</title>
<path fill="none" stroke="midnightblue" d="M733.586,-292.403C748.318,-282.691 772.522,-266.732 790.057,-255.17"/>
<polygon fill="midnightblue" stroke="midnightblue" points="792.112,-258.007 798.534,-249.581 788.259,-252.163 792.112,-258.007"/>
</g>
<!-- Node6 -->
<g id="node6" class="node"><title>Node6</title>
<polygon fill="white" stroke="#bfbfbf" points="867.048,-230.5 867.048,-249.5 912.048,-249.5 912.048,-230.5 867.048,-230.5"/>
<text text-anchor="middle" x="889.548" y="-237.5" font-family="Helvetica,sans-Serif" font-size="10.00">QTime</text>
</g>
<!-- Node2&#45;&gt;Node6 -->
<g id="edge5" class="edge"><title>Node2&#45;&gt;Node6</title>
<path fill="none" stroke="midnightblue" d="M750.045,-292.441C778.041,-284.053 821.132,-270.454 857.548,-256 859.195,-255.346 860.877,-254.649 862.566,-253.927"/>
<polygon fill="midnightblue" stroke="midnightblue" points="864.423,-256.93 872.111,-249.64 861.554,-250.545 864.423,-256.93"/>
</g>
<!-- Node7 -->
<g id="node7" class="node"><title>Node7</title>
<g id="a_node7"><a xlink:href="../../d7/d62/clslog_8h.xhtml" target="_top" xlink:title="../resources/clslog.h">
<polygon fill="white" stroke="black" points="404.048,-56.5 404.048,-75.5 509.048,-75.5 509.048,-56.5 404.048,-56.5"/>
<text text-anchor="middle" x="456.548" y="-63.5" font-family="Helvetica,sans-Serif" font-size="10.00">../resources/clslog.h</text>
</a>
</g>
</g>
<!-- Node2&#45;&gt;Node7 -->
<g id="edge6" class="edge"><title>Node2&#45;&gt;Node7</title>
<path fill="none" stroke="midnightblue" d="M671.883,-299.845C528.715,-296.148 115.611,-283.217 61.5483,-256 26.0682,-238.138 17.2846,-225.272 3.54826,-188 0.47441,-179.66 -2.01133,-174.936 3.54826,-168 51.7477,-107.871 280.821,-81.21 393.568,-71.5728"/>
<polygon fill="midnightblue" stroke="midnightblue" points="394.104,-75.0402 403.778,-70.7195 393.521,-68.0646 394.104,-75.0402"/>
</g>
<!-- Node13 -->
<g id="node13" class="node"><title>Node13</title>
<polygon fill="white" stroke="#bfbfbf" points="930.548,-230.5 930.548,-249.5 978.548,-249.5 978.548,-230.5 930.548,-230.5"/>
<text text-anchor="middle" x="954.548" y="-237.5" font-family="Helvetica,sans-Serif" font-size="10.00">QTimer</text>
</g>
<!-- Node2&#45;&gt;Node13 -->
<g id="edge12" class="edge"><title>Node2&#45;&gt;Node13</title>
<path fill="none" stroke="midnightblue" d="M769.353,-292.764C810.296,-285.206 870.015,-272.657 920.548,-256 922.823,-255.25 925.153,-254.402 927.475,-253.501"/>
<polygon fill="midnightblue" stroke="midnightblue" points="928.926,-256.688 936.805,-249.605 926.229,-250.228 928.926,-256.688"/>
</g>
<!-- Node2&#45;&gt;Node14 -->
<g id="edge13" class="edge"><title>Node2&#45;&gt;Node14</title>
<path fill="none" stroke="midnightblue" d="M708.885,-292.418C690.218,-277.651 657.479,-246.822 675.548,-224 689.611,-206.24 740.609,-194.788 786.372,-187.883"/>
<polygon fill="midnightblue" stroke="midnightblue" points="786.951,-191.336 796.344,-186.436 785.945,-184.408 786.951,-191.336"/>
</g>
<!-- Node16 -->
<g id="node16" class="node"><title>Node16</title>
<g id="a_node16"><a xlink:href="../../d4/d05/json_8h.xhtml" target="_top" xlink:title="json.h">
<polygon fill="white" stroke="black" points="927.048,-112.5 927.048,-131.5 970.048,-131.5 970.048,-112.5 927.048,-112.5"/>
<text text-anchor="middle" x="948.548" y="-119.5" font-family="Helvetica,sans-Serif" font-size="10.00">json.h</text>
</a>
</g>
</g>
<!-- Node2&#45;&gt;Node16 -->
<g id="edge20" class="edge"><title>Node2&#45;&gt;Node16</title>
<path fill="none" stroke="midnightblue" d="M769.085,-300.03C838.319,-297.505 960.118,-288.441 987.548,-256 1016.44,-221.828 982.773,-167.114 962.191,-139.739"/>
<polygon fill="midnightblue" stroke="midnightblue" points="964.732,-137.305 955.823,-131.572 959.212,-141.61 964.732,-137.305"/>
</g>
<!-- Node19 -->
<g id="node19" class="node"><title>Node19</title>
<g id="a_node19"><a xlink:href="../../db/d97/clsevent_8h.xhtml" target="_top" xlink:title="../resources/clsevent.h">
<polygon fill="white" stroke="black" points="458.048,-112.5 458.048,-131.5 573.048,-131.5 573.048,-112.5 458.048,-112.5"/>
<text text-anchor="middle" x="515.548" y="-119.5" font-family="Helvetica,sans-Serif" font-size="10.00">../resources/clsevent.h</text>
</a>
</g>
</g>
<!-- Node2&#45;&gt;Node19 -->
<g id="edge21" class="edge"><title>Node2&#45;&gt;Node19</title>
<path fill="none" stroke="midnightblue" d="M671.935,-301.091C525.994,-300.225 96.4931,-288.993 11.5483,-188 5.82662,-181.197 5.54886,-174.559 11.5483,-168 40.4123,-136.444 316.975,-126.858 447.711,-124.076"/>
<polygon fill="midnightblue" stroke="midnightblue" points="448.078,-127.57 458.004,-123.865 447.934,-120.571 448.078,-127.57"/>
</g>
<!-- Node20 -->
<g id="node20" class="node"><title>Node20</title>
<g id="a_node20"><a xlink:href="../../db/dd2/events_8h.xhtml" target="_top" xlink:title="../resources/events\l/events.h">
<polygon fill="white" stroke="black" points="412.048,-225 412.048,-255 511.048,-255 511.048,-225 412.048,-225"/>
<text text-anchor="start" x="420.048" y="-243" font-family="Helvetica,sans-Serif" font-size="10.00">../resources/events</text>
<text text-anchor="middle" x="461.548" y="-232" font-family="Helvetica,sans-Serif" font-size="10.00">/events.h</text>
</a>
</g>
</g>
<!-- Node2&#45;&gt;Node20 -->
<g id="edge27" class="edge"><title>Node2&#45;&gt;Node20</title>
<path fill="none" stroke="midnightblue" d="M683.715,-292.467C641.294,-282.64 571.012,-266.359 520.858,-254.74"/>
<polygon fill="midnightblue" stroke="midnightblue" points="521.642,-251.329 511.11,-252.482 520.062,-258.148 521.642,-251.329"/>
</g>
<!-- Node8 -->
<g id="node8" class="node"><title>Node8</title>
<polygon fill="white" stroke="#bfbfbf" points="489.548,-0.5 489.548,-19.5 541.548,-19.5 541.548,-0.5 489.548,-0.5"/>
<text text-anchor="middle" x="515.548" y="-7.5" font-family="Helvetica,sans-Serif" font-size="10.00">QDebug</text>
</g>
<!-- Node7&#45;&gt;Node8 -->
<g id="edge7" class="edge"><title>Node7&#45;&gt;Node8</title>
<path fill="none" stroke="midnightblue" d="M466.028,-56.324C474.749,-48.3414 487.892,-36.3128 498.446,-26.6529"/>
<polygon fill="midnightblue" stroke="midnightblue" points="500.883,-29.1674 505.896,-19.8339 496.157,-24.0036 500.883,-29.1674"/>
</g>
<!-- Node9 -->
<g id="node9" class="node"><title>Node9</title>
<polygon fill="white" stroke="#bfbfbf" points="560.048,-0.5 560.048,-19.5 625.048,-19.5 625.048,-0.5 560.048,-0.5"/>
<text text-anchor="middle" x="592.548" y="-7.5" font-family="Helvetica,sans-Serif" font-size="10.00">QDateTime</text>
</g>
<!-- Node7&#45;&gt;Node9 -->
<g id="edge8" class="edge"><title>Node7&#45;&gt;Node9</title>
<path fill="none" stroke="midnightblue" d="M478.098,-56.4435C500.579,-47.5171 536.036,-33.4387 561.528,-23.3168"/>
<polygon fill="midnightblue" stroke="midnightblue" points="563.097,-26.4598 571.099,-19.5164 560.514,-19.9539 563.097,-26.4598"/>
</g>
<!-- Node10 -->
<g id="node10" class="node"><title>Node10</title>
<polygon fill="white" stroke="#bfbfbf" points="274.048,-0.5 274.048,-19.5 315.048,-19.5 315.048,-0.5 274.048,-0.5"/>
<text text-anchor="middle" x="294.548" y="-7.5" font-family="Helvetica,sans-Serif" font-size="10.00">string</text>
</g>
<!-- Node7&#45;&gt;Node10 -->
<g id="edge9" class="edge"><title>Node7&#45;&gt;Node10</title>
<path fill="none" stroke="midnightblue" d="M430.879,-56.4435C402.183,-46.8782 355.739,-31.3969 325.171,-21.2075"/>
<polygon fill="midnightblue" stroke="midnightblue" points="326.055,-17.8129 315.461,-17.971 323.841,-24.4537 326.055,-17.8129"/>
</g>
<!-- Node11 -->
<g id="node11" class="node"><title>Node11</title>
<polygon fill="white" stroke="#bfbfbf" points="333.548,-0.5 333.548,-19.5 387.548,-19.5 387.548,-0.5 333.548,-0.5"/>
<text text-anchor="middle" x="360.548" y="-7.5" font-family="Helvetica,sans-Serif" font-size="10.00">iostream</text>
</g>
<!-- Node7&#45;&gt;Node11 -->
<g id="edge10" class="edge"><title>Node7&#45;&gt;Node11</title>
<path fill="none" stroke="midnightblue" d="M441.124,-56.324C426.009,-47.8215 402.733,-34.7288 385.077,-24.7975"/>
<polygon fill="midnightblue" stroke="midnightblue" points="386.366,-21.5066 375.934,-19.6545 382.934,-27.6077 386.366,-21.5066"/>
</g>
<!-- Node12 -->
<g id="node12" class="node"><title>Node12</title>
<polygon fill="white" stroke="#bfbfbf" points="406.048,-0.5 406.048,-19.5 471.048,-19.5 471.048,-0.5 406.048,-0.5"/>
<text text-anchor="middle" x="438.548" y="-7.5" font-family="Helvetica,sans-Serif" font-size="10.00">QStringList</text>
</g>
<!-- Node7&#45;&gt;Node12 -->
<g id="edge11" class="edge"><title>Node7&#45;&gt;Node12</title>
<path fill="none" stroke="midnightblue" d="M453.576,-56.083C451.164,-48.8486 447.684,-38.4087 444.681,-29.3968"/>
<polygon fill="midnightblue" stroke="midnightblue" points="447.948,-28.1311 441.465,-19.7511 441.307,-30.3447 447.948,-28.1311"/>
</g>
<!-- Node14&#45;&gt;Node3 -->
<g id="edge14" class="edge"><title>Node14&#45;&gt;Node3</title>
<path fill="none" stroke="midnightblue" d="M872.309,-168.061C880.197,-154.575 892.035,-128.816 879.548,-112 866.099,-93.8888 806.812,-80.2602 767.2,-72.9711"/>
<polygon fill="midnightblue" stroke="midnightblue" points="767.805,-69.5239 757.346,-71.2129 766.575,-76.4151 767.805,-69.5239"/>
</g>
<!-- Node15 -->
<g id="node15" class="node"><title>Node15</title>
<polygon fill="white" stroke="#bfbfbf" points="796.548,-112.5 796.548,-131.5 870.548,-131.5 870.548,-112.5 796.548,-112.5"/>
<text text-anchor="middle" x="833.548" y="-119.5" font-family="Helvetica,sans-Serif" font-size="10.00">QVariantMap</text>
</g>
<!-- Node14&#45;&gt;Node15 -->
<g id="edge15" class="edge"><title>Node14&#45;&gt;Node15</title>
<path fill="none" stroke="midnightblue" d="M861.099,-168.083C856.534,-160.613 849.88,-149.724 844.255,-140.52"/>
<polygon fill="midnightblue" stroke="midnightblue" points="847.097,-138.459 838.896,-131.751 841.124,-142.109 847.097,-138.459"/>
</g>
<!-- Node14&#45;&gt;Node16 -->
<g id="edge16" class="edge"><title>Node14&#45;&gt;Node16</title>
<path fill="none" stroke="midnightblue" d="M879.723,-168.324C892.395,-159.979 911.782,-147.212 926.754,-137.352"/>
<polygon fill="midnightblue" stroke="midnightblue" points="928.979,-140.078 935.406,-131.655 925.13,-134.231 928.979,-140.078"/>
</g>
<!-- Node14&#45;&gt;Node7 -->
<g id="edge19" class="edge"><title>Node14&#45;&gt;Node7</title>
<path fill="none" stroke="midnightblue" d="M834.717,-168.46C761.298,-148.762 580.121,-100.154 498.091,-78.1455"/>
<polygon fill="midnightblue" stroke="midnightblue" points="498.924,-74.7455 488.359,-75.5345 497.11,-81.5064 498.924,-74.7455"/>
</g>
<!-- Node17 -->
<g id="node17" class="node"><title>Node17</title>
<polygon fill="white" stroke="#bfbfbf" points="812.048,-56.5 812.048,-75.5 867.048,-75.5 867.048,-56.5 812.048,-56.5"/>
<text text-anchor="middle" x="839.548" y="-63.5" font-family="Helvetica,sans-Serif" font-size="10.00">QVariant</text>
</g>
<!-- Node16&#45;&gt;Node17 -->
<g id="edge17" class="edge"><title>Node16&#45;&gt;Node17</title>
<path fill="none" stroke="midnightblue" d="M931.036,-112.324C913.476,-103.625 886.217,-90.1202 866.017,-80.113"/>
<polygon fill="midnightblue" stroke="midnightblue" points="867.532,-76.9575 857.018,-75.6545 864.424,-83.23 867.532,-76.9575"/>
</g>
<!-- Node18 -->
<g id="node18" class="node"><title>Node18</title>
<polygon fill="white" stroke="#bfbfbf" points="904.548,-56.5 904.548,-75.5 954.548,-75.5 954.548,-56.5 904.548,-56.5"/>
<text text-anchor="middle" x="929.548" y="-63.5" font-family="Helvetica,sans-Serif" font-size="10.00">QString</text>
</g>
<!-- Node16&#45;&gt;Node18 -->
<g id="edge18" class="edge"><title>Node16&#45;&gt;Node18</title>
<path fill="none" stroke="midnightblue" d="M945.411,-112.083C942.865,-104.849 939.192,-94.4087 936.021,-85.3968"/>
<polygon fill="midnightblue" stroke="midnightblue" points="939.248,-84.0225 932.627,-75.7511 932.645,-86.3459 939.248,-84.0225"/>
</g>
<!-- Node19&#45;&gt;Node3 -->
<g id="edge22" class="edge"><title>Node19&#45;&gt;Node3</title>
<path fill="none" stroke="midnightblue" d="M549.616,-112.444C589.021,-102.546 653.642,-86.3159 694.051,-76.1668"/>
<polygon fill="midnightblue" stroke="midnightblue" points="694.926,-79.5557 703.773,-73.7251 693.221,-72.7665 694.926,-79.5557"/>
</g>
<!-- Node19&#45;&gt;Node18 -->
<g id="edge23" class="edge"><title>Node19&#45;&gt;Node18</title>
<path fill="none" stroke="midnightblue" d="M573.32,-114.514C644.512,-106.352 769.124,-91.5136 875.548,-76 881.573,-75.1217 887.964,-74.1194 894.161,-73.1102"/>
<polygon fill="midnightblue" stroke="midnightblue" points="895.016,-76.5163 904.307,-71.4257 893.869,-69.6108 895.016,-76.5163"/>
</g>
<!-- Node19&#45;&gt;Node17 -->
<g id="edge24" class="edge"><title>Node19&#45;&gt;Node17</title>
<path fill="none" stroke="midnightblue" d="M566.887,-112.444C632.232,-101.553 743.589,-82.9932 801.709,-73.3065"/>
<polygon fill="midnightblue" stroke="midnightblue" points="802.63,-76.7014 811.919,-71.6049 801.479,-69.7966 802.63,-76.7014"/>
</g>
<!-- Node19&#45;&gt;Node9 -->
<g id="edge25" class="edge"><title>Node19&#45;&gt;Node9</title>
<path fill="none" stroke="midnightblue" d="M521.59,-112.368C534.298,-94.2153 563.987,-51.8015 580.655,-27.9902"/>
<polygon fill="midnightblue" stroke="midnightblue" points="583.667,-29.7909 586.534,-19.5914 577.932,-25.7766 583.667,-29.7909"/>
</g>
<!-- Node19&#45;&gt;Node7 -->
<g id="edge26" class="edge"><title>Node19&#45;&gt;Node7</title>
<path fill="none" stroke="midnightblue" d="M506.069,-112.324C497.347,-104.341 484.205,-92.3128 473.65,-82.6529"/>
<polygon fill="midnightblue" stroke="midnightblue" points="475.94,-80.0036 466.2,-75.8339 471.214,-85.1674 475.94,-80.0036"/>
</g>
<!-- Node21 -->
<g id="node21" class="node"><title>Node21</title>
<g id="a_node21"><a xlink:href="../../db/d70/eventchat_8h.xhtml" target="_top" xlink:title="eventchat.h">
<polygon fill="white" stroke="black" points="536.548,-168.5 536.548,-187.5 602.548,-187.5 602.548,-168.5 536.548,-168.5"/>
<text text-anchor="middle" x="569.548" y="-175.5" font-family="Helvetica,sans-Serif" font-size="10.00">eventchat.h</text>
</a>
</g>
</g>
<!-- Node20&#45;&gt;Node21 -->
<g id="edge28" class="edge"><title>Node20&#45;&gt;Node21</title>
<path fill="none" stroke="midnightblue" d="M486.869,-224.933C504.44,-215.171 527.716,-202.24 545.094,-192.586"/>
<polygon fill="midnightblue" stroke="midnightblue" points="547.026,-195.516 554.068,-187.6 543.627,-189.397 547.026,-195.516"/>
</g>
<!-- Node22 -->
<g id="node22" class="node"><title>Node22</title>
<g id="a_node22"><a xlink:href="../../d5/d02/eventuserjoin_8h.xhtml" target="_top" xlink:title="eventuserjoin.h">
<polygon fill="white" stroke="black" points="621.048,-168.5 621.048,-187.5 702.048,-187.5 702.048,-168.5 621.048,-168.5"/>
<text text-anchor="middle" x="661.548" y="-175.5" font-family="Helvetica,sans-Serif" font-size="10.00">eventuserjoin.h</text>
</a>
</g>
</g>
<!-- Node20&#45;&gt;Node22 -->
<g id="edge30" class="edge"><title>Node20&#45;&gt;Node22</title>
<path fill="none" stroke="midnightblue" d="M508.439,-224.933C543.491,-214.417 590.807,-200.222 623.519,-190.409"/>
<polygon fill="midnightblue" stroke="midnightblue" points="624.6,-193.739 633.173,-187.513 622.589,-187.034 624.6,-193.739"/>
</g>
<!-- Node23 -->
<g id="node23" class="node"><title>Node23</title>
<g id="a_node23"><a xlink:href="../../d7/d56/eventuserleave_8h.xhtml" target="_top" xlink:title="eventuserleave.h">
<polygon fill="white" stroke="black" points="20.5483,-168.5 20.5483,-187.5 108.548,-187.5 108.548,-168.5 20.5483,-168.5"/>
<text text-anchor="middle" x="64.5483" y="-175.5" font-family="Helvetica,sans-Serif" font-size="10.00">eventuserleave.h</text>
</a>
</g>
</g>
<!-- Node20&#45;&gt;Node23 -->
<g id="edge32" class="edge"><title>Node20&#45;&gt;Node23</title>
<path fill="none" stroke="midnightblue" d="M411.937,-231.979C346.991,-222.713 229.341,-205.675 118.773,-188.169"/>
<polygon fill="midnightblue" stroke="midnightblue" points="119.208,-184.695 108.783,-186.583 118.111,-191.608 119.208,-184.695"/>
</g>
<!-- Node24 -->
<g id="node24" class="node"><title>Node24</title>
<g id="a_node24"><a xlink:href="../../db/db0/eventuserchangestatus_8h.xhtml" target="_top" xlink:title="eventuserchangestatus.h">
<polygon fill="white" stroke="black" points="127.048,-168.5 127.048,-187.5 252.048,-187.5 252.048,-168.5 127.048,-168.5"/>
<text text-anchor="middle" x="189.548" y="-175.5" font-family="Helvetica,sans-Serif" font-size="10.00">eventuserchangestatus.h</text>
</a>
</g>
</g>
<!-- Node20&#45;&gt;Node24 -->
<g id="edge34" class="edge"><title>Node20&#45;&gt;Node24</title>
<path fill="none" stroke="midnightblue" d="M411.976,-228.065C362.621,-217.178 287.339,-200.571 238.281,-189.75"/>
<polygon fill="midnightblue" stroke="midnightblue" points="238.749,-186.269 228.23,-187.533 237.241,-193.105 238.749,-186.269"/>
</g>
<!-- Node25 -->
<g id="node25" class="node"><title>Node25</title>
<g id="a_node25"><a xlink:href="../../d8/d44/eventuserchangenick_8h.xhtml" target="_top" xlink:title="eventuserchangenick.h">
<polygon fill="white" stroke="black" points="270.548,-168.5 270.548,-187.5 386.548,-187.5 386.548,-168.5 270.548,-168.5"/>
<text text-anchor="middle" x="328.548" y="-175.5" font-family="Helvetica,sans-Serif" font-size="10.00">eventuserchangenick.h</text>
</a>
</g>
</g>
<!-- Node20&#45;&gt;Node25 -->
<g id="edge36" class="edge"><title>Node20&#45;&gt;Node25</title>
<path fill="none" stroke="midnightblue" d="M430.366,-224.933C408.127,-214.9 378.466,-201.519 356.897,-191.789"/>
<polygon fill="midnightblue" stroke="midnightblue" points="358.166,-188.522 347.612,-187.6 355.288,-194.903 358.166,-188.522"/>
</g>
<!-- Node26 -->
<g id="node26" class="node"><title>Node26</title>
<g id="a_node26"><a xlink:href="../../da/d66/eventservermessage_8h.xhtml" target="_top" xlink:title="eventservermessage.h">
<polygon fill="white" stroke="black" points="405.048,-168.5 405.048,-187.5 518.048,-187.5 518.048,-168.5 405.048,-168.5"/>
<text text-anchor="middle" x="461.548" y="-175.5" font-family="Helvetica,sans-Serif" font-size="10.00">eventservermessage.h</text>
</a>
</g>
</g>
<!-- Node20&#45;&gt;Node26 -->
<g id="edge38" class="edge"><title>Node20&#45;&gt;Node26</title>
<path fill="none" stroke="midnightblue" d="M461.548,-224.781C461.548,-216.781 461.548,-206.689 461.548,-198.017"/>
<polygon fill="midnightblue" stroke="midnightblue" points="465.048,-197.73 461.548,-187.731 458.048,-197.731 465.048,-197.73"/>
</g>
<!-- Node21&#45;&gt;Node19 -->
<g id="edge29" class="edge"><title>Node21&#45;&gt;Node19</title>
<path fill="none" stroke="midnightblue" d="M560.631,-168.083C552.768,-160.22 541.117,-148.569 531.63,-139.081"/>
<polygon fill="midnightblue" stroke="midnightblue" points="533.845,-136.347 524.299,-131.751 528.896,-141.297 533.845,-136.347"/>
</g>
<!-- Node22&#45;&gt;Node19 -->
<g id="edge31" class="edge"><title>Node22&#45;&gt;Node19</title>
<path fill="none" stroke="midnightblue" d="M638.414,-168.444C614.066,-159.438 575.541,-145.189 548.125,-135.049"/>
<polygon fill="midnightblue" stroke="midnightblue" points="549.167,-131.703 538.574,-131.516 546.739,-138.268 549.167,-131.703"/>
</g>
<!-- Node23&#45;&gt;Node19 -->
<g id="edge33" class="edge"><title>Node23&#45;&gt;Node19</title>
<path fill="none" stroke="midnightblue" d="M108.766,-169.302C111.735,-168.844 114.683,-168.405 117.548,-168 233.029,-151.68 368.027,-137.429 447.401,-129.541"/>
<polygon fill="midnightblue" stroke="midnightblue" points="448.142,-132.985 457.749,-128.517 447.453,-126.019 448.142,-132.985"/>
</g>
<!-- Node24&#45;&gt;Node19 -->
<g id="edge35" class="edge"><title>Node24&#45;&gt;Node19</title>
<path fill="none" stroke="midnightblue" d="M241.204,-168.444C299.028,-158.865 392.661,-143.356 454.172,-133.167"/>
<polygon fill="midnightblue" stroke="midnightblue" points="454.841,-136.604 464.134,-131.516 453.697,-129.698 454.841,-136.604"/>
</g>
<!-- Node25&#45;&gt;Node19 -->
<g id="edge37" class="edge"><title>Node25&#45;&gt;Node19</title>
<path fill="none" stroke="midnightblue" d="M358.179,-168.444C390.048,-159.241 440.881,-144.562 476.112,-134.388"/>
<polygon fill="midnightblue" stroke="midnightblue" points="477.42,-137.653 486.056,-131.516 475.478,-130.928 477.42,-137.653"/>
</g>
<!-- Node26&#45;&gt;Node19 -->
<g id="edge39" class="edge"><title>Node26&#45;&gt;Node19</title>
<path fill="none" stroke="midnightblue" d="M470.465,-168.083C478.329,-160.22 489.979,-148.569 499.467,-139.081"/>
<polygon fill="midnightblue" stroke="midnightblue" points="502.201,-141.297 506.797,-131.751 497.251,-136.347 502.201,-141.297"/>
</g>
</g>
</svg>
