<?xml version="1.0" encoding="UTF-8" standalone="no"?>
<!DOCTYPE svg PUBLIC "-//W3C//DTD SVG 1.1//EN"
 "http://www.w3.org/Graphics/SVG/1.1/DTD/svg11.dtd">
<!-- Generated by graphviz version 2.30.1 (20130214.1330)
 -->
<!-- Title: GUI/Gui&#45;RoombaV1.0/RoombaConnect.cpp Pages: 1 -->
<!--zoomable 320 -->
<svg id="main" version="1.1" xmlns="http://www.w3.org/2000/svg" xmlns:xlink="http://www.w3.org/1999/xlink" xml:space="preserve" onload="init(evt)">
        <defs>
                <circle id="rim" cx="0" cy="0" r="7"/>
                <circle id="rim2" cx="0" cy="0" r="3.5"/>
                <g id="zoomPlus">
                        <use xlink:href="#rim" fill="#404040">
                                <set attributeName="fill" to="#808080" begin="zoomplus.mouseover" end="zoomplus.mouseout"/>
                        </use>
                        <path d="M-4,0h8M0,-4v8" fill="none" stroke="white" stroke-width="1.5" pointer-events="none"/>
                </g>
                <g id="zoomMin">
                        <use xlink:href="#rim" fill="#404040">
                                <set attributeName="fill" to="#808080" begin="zoomminus.mouseover" end="zoomminus.mouseout"/>
                        </use>
                        <path d="M-4,0h8" fill="none" stroke="white" stroke-width="1.5" pointer-events="none"/>
                </g>
                <g id="dirArrow">
                        <path fill="none" stroke="white" stroke-width="1.5" d="M0,-3.0v7 M-2.5,-0.5L0,-3.0L2.5,-0.5"/>
                </g>
               <g id="resetDef">
                       <use xlink:href="#rim2" fill="#404040">
                               <set attributeName="fill" to="#808080" begin="reset.mouseover" end="reset.mouseout"/>
                       </use>
               </g>
        </defs>

<script type="text/javascript">
var viewWidth = 757;
var viewHeight = 320;
var sectionId = 'dynsection-0';
</script>
<script xlink:href="../../svgpan.js"/>
<svg id="graph" class="graph">
<g id="viewport">
<title>GUI/Gui&#45;RoombaV1.0/RoombaConnect.cpp</title>
<polygon fill="white" stroke="white" points="-4,5 -4,-316 753.623,-316 753.623,5 -4,5"/>
<!-- Node1 -->
<g id="node1" class="node"><title>Node1</title>
<polygon fill="#bfbfbf" stroke="black" points="250,-281 250,-311 360,-311 360,-281 250,-281"/>
<text text-anchor="start" x="258" y="-299" font-family="Helvetica,sans-Serif" font-size="10.00">GUI/Gui&#45;RoombaV1.0</text>
<text text-anchor="middle" x="305" y="-288" font-family="Helvetica,sans-Serif" font-size="10.00">/RoombaConnect.cpp</text>
</g>
<!-- Node2 -->
<g id="node2" class="node"><title>Node2</title>
<g id="a_node2"><a xlink:href="../../d4/dca/_roomba_connect_8h.xhtml" target="_top" xlink:title="RoombaConnect.h">
<polygon fill="white" stroke="black" points="326.5,-224.5 326.5,-243.5 423.5,-243.5 423.5,-224.5 326.5,-224.5"/>
<text text-anchor="middle" x="375" y="-231.5" font-family="Helvetica,sans-Serif" font-size="10.00">RoombaConnect.h</text>
</a>
</g>
</g>
<!-- Node1&#45;&gt;Node2 -->
<g id="edge1" class="edge"><title>Node1&#45;&gt;Node2</title>
<path fill="none" stroke="midnightblue" d="M321.589,-280.781C332.285,-271.613 346.188,-259.696 357.128,-250.319"/>
<polygon fill="midnightblue" stroke="midnightblue" points="359.5,-252.896 364.814,-243.731 354.944,-247.581 359.5,-252.896"/>
</g>
<!-- Node15 -->
<g id="node15" class="node"><title>Node15</title>
<g id="a_node15"><a xlink:href="../../dc/d96/jsoncommand_8h.xhtml" target="_top" xlink:title="../resources/jsoncommand.h">
<polygon fill="white" stroke="black" points="26,-168.5 26,-187.5 166,-187.5 166,-168.5 26,-168.5"/>
<text text-anchor="middle" x="96" y="-175.5" font-family="Helvetica,sans-Serif" font-size="10.00">../resources/jsoncommand.h</text>
</a>
</g>
</g>
<!-- Node1&#45;&gt;Node15 -->
<g id="edge32" class="edge"><title>Node1&#45;&gt;Node15</title>
<path fill="none" stroke="midnightblue" d="M279.372,-280.776C238.705,-258.205 159.936,-214.486 120.189,-192.425"/>
<polygon fill="midnightblue" stroke="midnightblue" points="121.863,-189.352 111.421,-187.559 118.466,-195.472 121.863,-189.352"/>
</g>
<!-- Node3 -->
<g id="node3" class="node"><title>Node3</title>
<polygon fill="white" stroke="#bfbfbf" points="539,-0.5 539,-19.5 591,-19.5 591,-0.5 539,-0.5"/>
<text text-anchor="middle" x="565" y="-7.5" font-family="Helvetica,sans-Serif" font-size="10.00">QDebug</text>
</g>
<!-- Node2&#45;&gt;Node3 -->
<g id="edge2" class="edge"><title>Node2&#45;&gt;Node3</title>
<path fill="none" stroke="midnightblue" d="M423.838,-230.432C517.454,-225.008 714.731,-210.96 735,-188 791.208,-124.329 656.811,-52.4977 594.561,-23.8182"/>
<polygon fill="midnightblue" stroke="midnightblue" points="595.783,-20.5296 585.23,-19.5936 592.896,-26.9065 595.783,-20.5296"/>
</g>
<!-- Node4 -->
<g id="node4" class="node"><title>Node4</title>
<polygon fill="white" stroke="#bfbfbf" points="351.5,-168.5 351.5,-187.5 398.5,-187.5 398.5,-168.5 351.5,-168.5"/>
<text text-anchor="middle" x="375" y="-175.5" font-family="Helvetica,sans-Serif" font-size="10.00">QtCore</text>
</g>
<!-- Node2&#45;&gt;Node4 -->
<g id="edge3" class="edge"><title>Node2&#45;&gt;Node4</title>
<path fill="none" stroke="midnightblue" d="M375,-224.083C375,-217.006 375,-206.861 375,-197.986"/>
<polygon fill="midnightblue" stroke="midnightblue" points="378.5,-197.751 375,-187.751 371.5,-197.751 378.5,-197.751"/>
</g>
<!-- Node5 -->
<g id="node5" class="node"><title>Node5</title>
<polygon fill="white" stroke="#bfbfbf" points="-0.5,-56.5 -0.5,-75.5 52.5,-75.5 52.5,-56.5 -0.5,-56.5"/>
<text text-anchor="middle" x="26" y="-63.5" font-family="Helvetica,sans-Serif" font-size="10.00">QObject</text>
</g>
<!-- Node2&#45;&gt;Node5 -->
<g id="edge4" class="edge"><title>Node2&#45;&gt;Node5</title>
<path fill="none" stroke="midnightblue" d="M326.433,-230.411C233.335,-224.951 37.1504,-210.842 17,-188 -8.10826,-159.538 6.58461,-111.202 17.491,-85.0663"/>
<polygon fill="midnightblue" stroke="midnightblue" points="20.8176,-86.1982 21.6694,-75.6377 14.4179,-83.3621 20.8176,-86.1982"/>
</g>
<!-- Node6 -->
<g id="node6" class="node"><title>Node6</title>
<polygon fill="white" stroke="#bfbfbf" points="416.5,-168.5 416.5,-187.5 487.5,-187.5 487.5,-168.5 416.5,-168.5"/>
<text text-anchor="middle" x="452" y="-175.5" font-family="Helvetica,sans-Serif" font-size="10.00">QTcpSocket</text>
</g>
<!-- Node2&#45;&gt;Node6 -->
<g id="edge5" class="edge"><title>Node2&#45;&gt;Node6</title>
<path fill="none" stroke="midnightblue" d="M387.371,-224.324C399.158,-216.058 417.132,-203.453 431.136,-193.632"/>
<polygon fill="midnightblue" stroke="midnightblue" points="433.482,-196.262 439.659,-187.655 429.462,-190.531 433.482,-196.262"/>
</g>
<!-- Node7 -->
<g id="node7" class="node"><title>Node7</title>
<polygon fill="white" stroke="#bfbfbf" points="506,-168.5 506,-187.5 580,-187.5 580,-168.5 506,-168.5"/>
<text text-anchor="middle" x="543" y="-175.5" font-family="Helvetica,sans-Serif" font-size="10.00">QTextStream</text>
</g>
<!-- Node2&#45;&gt;Node7 -->
<g id="edge6" class="edge"><title>Node2&#45;&gt;Node7</title>
<path fill="none" stroke="midnightblue" d="M401.62,-224.444C430.006,-215.32 475.137,-200.813 506.753,-190.651"/>
<polygon fill="midnightblue" stroke="midnightblue" points="508.055,-193.909 516.504,-187.516 505.913,-187.244 508.055,-193.909"/>
</g>
<!-- Node8 -->
<g id="node8" class="node"><title>Node8</title>
<polygon fill="white" stroke="#bfbfbf" points="598.5,-168.5 598.5,-187.5 643.5,-187.5 643.5,-168.5 598.5,-168.5"/>
<text text-anchor="middle" x="621" y="-175.5" font-family="Helvetica,sans-Serif" font-size="10.00">QTime</text>
</g>
<!-- Node2&#45;&gt;Node8 -->
<g id="edge7" class="edge"><title>Node2&#45;&gt;Node8</title>
<path fill="none" stroke="midnightblue" d="M419.873,-224.472C461.189,-216.416 524.383,-203.585 588.453,-188.001"/>
<polygon fill="midnightblue" stroke="midnightblue" points="589.446,-191.362 598.324,-185.58 587.778,-184.563 589.446,-191.362"/>
</g>
<!-- Node9 -->
<g id="node9" class="node"><title>Node9</title>
<g id="a_node9"><a xlink:href="../../d7/d62/clslog_8h.xhtml" target="_top" xlink:title="../resources/clslog.h">
<polygon fill="white" stroke="black" points="142.5,-56.5 142.5,-75.5 247.5,-75.5 247.5,-56.5 142.5,-56.5"/>
<text text-anchor="middle" x="195" y="-63.5" font-family="Helvetica,sans-Serif" font-size="10.00">../resources/clslog.h</text>
</a>
</g>
</g>
<!-- Node2&#45;&gt;Node9 -->
<g id="edge8" class="edge"><title>Node2&#45;&gt;Node9</title>
<path fill="none" stroke="midnightblue" d="M326.403,-225.467C299.37,-219.216 266.536,-207.976 243,-188 211.943,-161.64 200.824,-112.413 196.963,-85.5893"/>
<polygon fill="midnightblue" stroke="midnightblue" points="200.428,-85.0862 195.716,-75.5967 193.482,-85.9532 200.428,-85.0862"/>
</g>
<!-- Node14 -->
<g id="node14" class="node"><title>Node14</title>
<polygon fill="white" stroke="#bfbfbf" points="662,-168.5 662,-187.5 710,-187.5 710,-168.5 662,-168.5"/>
<text text-anchor="middle" x="686" y="-175.5" font-family="Helvetica,sans-Serif" font-size="10.00">QTimer</text>
</g>
<!-- Node2&#45;&gt;Node14 -->
<g id="edge14" class="edge"><title>Node2&#45;&gt;Node14</title>
<path fill="none" stroke="midnightblue" d="M423.805,-226.543C479.351,-218.854 572.661,-204.903 652,-188 652.101,-187.979 652.202,-187.957 652.303,-187.935"/>
<polygon fill="midnightblue" stroke="midnightblue" points="652.984,-191.37 661.924,-185.684 651.389,-184.554 652.984,-191.37"/>
</g>
<!-- Node2&#45;&gt;Node15 -->
<g id="edge15" class="edge"><title>Node2&#45;&gt;Node15</title>
<path fill="none" stroke="midnightblue" d="M330.792,-224.444C281.713,-214.944 202.49,-199.611 149.836,-189.42"/>
<polygon fill="midnightblue" stroke="midnightblue" points="150.484,-185.98 140.002,-187.516 149.154,-192.853 150.484,-185.98"/>
</g>
<!-- Node17 -->
<g id="node17" class="node"><title>Node17</title>
<g id="a_node17"><a xlink:href="../../d4/d05/json_8h.xhtml" target="_top" xlink:title="json.h">
<polygon fill="white" stroke="black" points="355.5,-112.5 355.5,-131.5 398.5,-131.5 398.5,-112.5 355.5,-112.5"/>
<text text-anchor="middle" x="377" y="-119.5" font-family="Helvetica,sans-Serif" font-size="10.00">json.h</text>
</a>
</g>
</g>
<!-- Node2&#45;&gt;Node17 -->
<g id="edge22" class="edge"><title>Node2&#45;&gt;Node17</title>
<path fill="none" stroke="midnightblue" d="M423.763,-230.134C514.044,-224.327 699.829,-209.842 719,-188 724.864,-181.319 724.861,-174.683 719,-168 698.664,-144.813 489.602,-129.804 408.714,-124.826"/>
<polygon fill="midnightblue" stroke="midnightblue" points="408.816,-121.325 398.623,-124.216 408.394,-128.313 408.816,-121.325"/>
</g>
<!-- Node20 -->
<g id="node20" class="node"><title>Node20</title>
<g id="a_node20"><a xlink:href="../../db/d97/clsevent_8h.xhtml" target="_top" xlink:title="../resources/clsevent.h">
<polygon fill="white" stroke="black" points="222.5,-112.5 222.5,-131.5 337.5,-131.5 337.5,-112.5 222.5,-112.5"/>
<text text-anchor="middle" x="280" y="-119.5" font-family="Helvetica,sans-Serif" font-size="10.00">../resources/clsevent.h</text>
</a>
</g>
</g>
<!-- Node2&#45;&gt;Node20 -->
<g id="edge23" class="edge"><title>Node2&#45;&gt;Node20</title>
<path fill="none" stroke="midnightblue" d="M326.246,-228.625C299.31,-223.43 267.957,-212.192 251,-188 240.31,-172.749 252.26,-152.926 263.896,-139.2"/>
<polygon fill="midnightblue" stroke="midnightblue" points="266.735,-141.281 270.896,-131.537 261.567,-136.56 266.735,-141.281"/>
</g>
<!-- Node21 -->
<g id="node21" class="node"><title>Node21</title>
<g id="a_node21"><a xlink:href="../../d4/d25/sensordata_8h.xhtml" target="_top" xlink:title="sensordata.h">
<polygon fill="white" stroke="black" points="260.5,-168.5 260.5,-187.5 333.5,-187.5 333.5,-168.5 260.5,-168.5"/>
<text text-anchor="middle" x="297" y="-175.5" font-family="Helvetica,sans-Serif" font-size="10.00">sensordata.h</text>
</a>
</g>
</g>
<!-- Node2&#45;&gt;Node21 -->
<g id="edge29" class="edge"><title>Node2&#45;&gt;Node21</title>
<path fill="none" stroke="midnightblue" d="M362.468,-224.324C350.414,-215.979 331.973,-203.212 317.731,-193.352"/>
<polygon fill="midnightblue" stroke="midnightblue" points="319.715,-190.469 309.501,-187.655 315.731,-196.224 319.715,-190.469"/>
</g>
<!-- Node9&#45;&gt;Node3 -->
<g id="edge9" class="edge"><title>Node9&#45;&gt;Node3</title>
<path fill="none" stroke="midnightblue" d="M247.619,-57.3205C323.783,-46.2047 462.81,-25.9142 528.617,-16.3099"/>
<polygon fill="midnightblue" stroke="midnightblue" points="529.514,-19.7162 538.903,-14.8087 528.503,-12.7896 529.514,-19.7162"/>
</g>
<!-- Node10 -->
<g id="node10" class="node"><title>Node10</title>
<polygon fill="white" stroke="#bfbfbf" points="246.5,-0.5 246.5,-19.5 311.5,-19.5 311.5,-0.5 246.5,-0.5"/>
<text text-anchor="middle" x="279" y="-7.5" font-family="Helvetica,sans-Serif" font-size="10.00">QDateTime</text>
</g>
<!-- Node9&#45;&gt;Node10 -->
<g id="edge10" class="edge"><title>Node9&#45;&gt;Node10</title>
<path fill="none" stroke="midnightblue" d="M208.496,-56.324C221.6,-47.9002 241.712,-34.9709 257.107,-25.0741"/>
<polygon fill="midnightblue" stroke="midnightblue" points="259.018,-28.0063 265.537,-19.6545 255.233,-22.118 259.018,-28.0063"/>
</g>
<!-- Node11 -->
<g id="node11" class="node"><title>Node11</title>
<polygon fill="white" stroke="#bfbfbf" points="31.5,-0.5 31.5,-19.5 72.5,-19.5 72.5,-0.5 31.5,-0.5"/>
<text text-anchor="middle" x="52" y="-7.5" font-family="Helvetica,sans-Serif" font-size="10.00">string</text>
</g>
<!-- Node9&#45;&gt;Node11 -->
<g id="edge11" class="edge"><title>Node9&#45;&gt;Node11</title>
<path fill="none" stroke="midnightblue" d="M172.341,-56.4435C148.039,-47.2666 109.318,-32.6446 82.3858,-22.4744"/>
<polygon fill="midnightblue" stroke="midnightblue" points="83.2872,-19.0736 72.6955,-18.8151 80.8143,-25.6222 83.2872,-19.0736"/>
</g>
<!-- Node12 -->
<g id="node12" class="node"><title>Node12</title>
<polygon fill="white" stroke="#bfbfbf" points="91,-0.5 91,-19.5 145,-19.5 145,-0.5 91,-0.5"/>
<text text-anchor="middle" x="118" y="-7.5" font-family="Helvetica,sans-Serif" font-size="10.00">iostream</text>
</g>
<!-- Node9&#45;&gt;Node12 -->
<g id="edge12" class="edge"><title>Node9&#45;&gt;Node12</title>
<path fill="none" stroke="midnightblue" d="M182.629,-56.324C170.842,-48.0577 152.868,-35.4527 138.864,-25.6322"/>
<polygon fill="midnightblue" stroke="midnightblue" points="140.538,-22.5307 130.341,-19.6545 136.518,-28.2619 140.538,-22.5307"/>
</g>
<!-- Node13 -->
<g id="node13" class="node"><title>Node13</title>
<polygon fill="white" stroke="#bfbfbf" points="163.5,-0.5 163.5,-19.5 228.5,-19.5 228.5,-0.5 163.5,-0.5"/>
<text text-anchor="middle" x="196" y="-7.5" font-family="Helvetica,sans-Serif" font-size="10.00">QStringList</text>
</g>
<!-- Node9&#45;&gt;Node13 -->
<g id="edge13" class="edge"><title>Node9&#45;&gt;Node13</title>
<path fill="none" stroke="midnightblue" d="M195.165,-56.083C195.296,-49.0059 195.484,-38.8611 195.648,-29.9865"/>
<polygon fill="midnightblue" stroke="midnightblue" points="199.152,-29.8142 195.838,-19.7511 192.153,-29.6845 199.152,-29.8142"/>
</g>
<!-- Node15&#45;&gt;Node5 -->
<g id="edge16" class="edge"><title>Node15&#45;&gt;Node5</title>
<path fill="none" stroke="midnightblue" d="M82.3541,-168.254C70.801,-160.172 54.6265,-147.148 45,-132 36.034,-117.891 31.1664,-99.4029 28.6106,-85.7527"/>
<polygon fill="midnightblue" stroke="midnightblue" points="32.0241,-84.9373 26.9681,-75.6267 25.1144,-86.0581 32.0241,-84.9373"/>
</g>
<!-- Node16 -->
<g id="node16" class="node"><title>Node16</title>
<polygon fill="white" stroke="#bfbfbf" points="54,-112.5 54,-131.5 128,-131.5 128,-112.5 54,-112.5"/>
<text text-anchor="middle" x="91" y="-119.5" font-family="Helvetica,sans-Serif" font-size="10.00">QVariantMap</text>
</g>
<!-- Node15&#45;&gt;Node16 -->
<g id="edge17" class="edge"><title>Node15&#45;&gt;Node16</title>
<path fill="none" stroke="midnightblue" d="M95.1744,-168.083C94.5191,-161.006 93.5797,-150.861 92.758,-141.986"/>
<polygon fill="midnightblue" stroke="midnightblue" points="96.2174,-141.386 91.8103,-131.751 89.2473,-142.031 96.2174,-141.386"/>
</g>
<!-- Node15&#45;&gt;Node17 -->
<g id="edge18" class="edge"><title>Node15&#45;&gt;Node17</title>
<path fill="none" stroke="midnightblue" d="M152.942,-168.489C201.554,-160.829 273.49,-148.567 345.271,-131.957"/>
<polygon fill="midnightblue" stroke="midnightblue" points="346.458,-135.274 355.396,-129.585 344.861,-128.458 346.458,-135.274"/>
</g>
<!-- Node15&#45;&gt;Node9 -->
<g id="edge21" class="edge"><title>Node15&#45;&gt;Node9</title>
<path fill="none" stroke="midnightblue" d="M103.887,-168.397C112.162,-159.359 125.535,-144.716 137,-132 151.788,-115.599 168.576,-96.7612 180.271,-83.6021"/>
<polygon fill="midnightblue" stroke="midnightblue" points="183.125,-85.6586 187.149,-75.8573 177.891,-81.0104 183.125,-85.6586"/>
</g>
<!-- Node18 -->
<g id="node18" class="node"><title>Node18</title>
<polygon fill="white" stroke="#bfbfbf" points="375.5,-56.5 375.5,-75.5 430.5,-75.5 430.5,-56.5 375.5,-56.5"/>
<text text-anchor="middle" x="403" y="-63.5" font-family="Helvetica,sans-Serif" font-size="10.00">QVariant</text>
</g>
<!-- Node17&#45;&gt;Node18 -->
<g id="edge19" class="edge"><title>Node17&#45;&gt;Node18</title>
<path fill="none" stroke="midnightblue" d="M381.293,-112.083C384.852,-104.691 390.022,-93.9533 394.424,-84.8111"/>
<polygon fill="midnightblue" stroke="midnightblue" points="397.602,-86.2795 398.787,-75.7511 391.295,-83.2427 397.602,-86.2795"/>
</g>
<!-- Node19 -->
<g id="node19" class="node"><title>Node19</title>
<polygon fill="white" stroke="#bfbfbf" points="307,-56.5 307,-75.5 357,-75.5 357,-56.5 307,-56.5"/>
<text text-anchor="middle" x="332" y="-63.5" font-family="Helvetica,sans-Serif" font-size="10.00">QString</text>
</g>
<!-- Node17&#45;&gt;Node19 -->
<g id="edge20" class="edge"><title>Node17&#45;&gt;Node19</title>
<path fill="none" stroke="midnightblue" d="M369.569,-112.083C363.147,-104.377 353.694,-93.0333 345.878,-83.6531"/>
<polygon fill="midnightblue" stroke="midnightblue" points="348.383,-81.1927 339.293,-75.7511 343.006,-85.674 348.383,-81.1927"/>
</g>
<!-- Node20&#45;&gt;Node5 -->
<g id="edge24" class="edge"><title>Node20&#45;&gt;Node5</title>
<path fill="none" stroke="midnightblue" d="M239.753,-112.444C191.114,-102.103 109.957,-84.8492 62.8804,-74.8407"/>
<polygon fill="midnightblue" stroke="midnightblue" points="63.322,-71.3564 52.8127,-72.7003 61.8663,-78.2034 63.322,-71.3564"/>
</g>
<!-- Node20&#45;&gt;Node19 -->
<g id="edge25" class="edge"><title>Node20&#45;&gt;Node19</title>
<path fill="none" stroke="midnightblue" d="M288.587,-112.083C296.159,-104.22 307.378,-92.5688 316.514,-83.0813"/>
<polygon fill="midnightblue" stroke="midnightblue" points="319.158,-85.3821 323.573,-75.7511 314.115,-80.5266 319.158,-85.3821"/>
</g>
<!-- Node20&#45;&gt;Node18 -->
<g id="edge26" class="edge"><title>Node20&#45;&gt;Node18</title>
<path fill="none" stroke="midnightblue" d="M299.49,-112.444C319.642,-103.596 351.323,-89.6875 374.331,-79.5865"/>
<polygon fill="midnightblue" stroke="midnightblue" points="375.852,-82.7411 383.601,-75.5164 373.038,-76.3316 375.852,-82.7411"/>
</g>
<!-- Node20&#45;&gt;Node10 -->
<g id="edge27" class="edge"><title>Node20&#45;&gt;Node10</title>
<path fill="none" stroke="midnightblue" d="M279.922,-112.368C279.76,-94.617 279.388,-53.6664 279.169,-29.5974"/>
<polygon fill="midnightblue" stroke="midnightblue" points="282.669,-29.5592 279.078,-19.5914 275.669,-29.6229 282.669,-29.5592"/>
</g>
<!-- Node20&#45;&gt;Node9 -->
<g id="edge28" class="edge"><title>Node20&#45;&gt;Node9</title>
<path fill="none" stroke="midnightblue" d="M266.343,-112.324C253.084,-103.9 232.732,-90.9709 217.154,-81.0741"/>
<polygon fill="midnightblue" stroke="midnightblue" points="218.94,-78.0626 208.623,-75.6545 215.187,-83.9711 218.94,-78.0626"/>
</g>
<!-- Node21&#45;&gt;Node20 -->
<g id="edge30" class="edge"><title>Node21&#45;&gt;Node20</title>
<path fill="none" stroke="midnightblue" d="M294.193,-168.083C291.915,-160.849 288.629,-150.409 285.792,-141.397"/>
<polygon fill="midnightblue" stroke="midnightblue" points="289.096,-140.239 282.755,-131.751 282.419,-142.341 289.096,-140.239"/>
</g>
<!-- Node21&#45;&gt;Node18 -->
<g id="edge31" class="edge"><title>Node21&#45;&gt;Node18</title>
<path fill="none" stroke="midnightblue" d="M328.197,-168.462C357.385,-159.768 397.828,-145.662 407,-132 416.05,-118.52 413.688,-99.7085 409.869,-85.7897"/>
<polygon fill="midnightblue" stroke="midnightblue" points="413.074,-84.3225 406.685,-75.8712 406.409,-86.4625 413.074,-84.3225"/>
</g>
</g>
</svg>
        <g id="navigator" transform="translate(0 0)" fill="#404254">
                <rect fill="#f2f5e9" fill-opacity="0.5" stroke="#606060" stroke-width=".5" x="0" y="0" width="60" height="60"/>
                <use id="zoomplus" xlink:href="#zoomPlus" x="17" y="9" onmousedown="handleZoom(evt,'in')"/>
                <use id="zoomminus" xlink:href="#zoomMin" x="42" y="9" onmousedown="handleZoom(evt,'out')"/>
                <use id="reset" xlink:href="#resetDef" x="30" y="36" onmousedown="handleReset()"/>
                <g id="arrowUp" xlink:href="#dirArrow" transform="translate(30 24)" onmousedown="handlePan(0,-1)">
                  <use xlink:href="#rim" fill="#404040">
                        <set attributeName="fill" to="#808080" begin="arrowUp.mouseover" end="arrowUp.mouseout"/>
                  </use>
                  <path fill="none" stroke="white" stroke-width="1.5" d="M0,-3.0v7 M-2.5,-0.5L0,-3.0L2.5,-0.5"/>
                </g>
                <g id="arrowRight" xlink:href="#dirArrow" transform="rotate(90) translate(36 -43)" onmousedown="handlePan(1,0)">
                  <use xlink:href="#rim" fill="#404040">
                        <set attributeName="fill" to="#808080" begin="arrowRight.mouseover" end="arrowRight.mouseout"/>
                  </use>
                  <path fill="none" stroke="white" stroke-width="1.5" d="M0,-3.0v7 M-2.5,-0.5L0,-3.0L2.5,-0.5"/>
                </g>
                <g id="arrowDown" xlink:href="#dirArrow" transform="rotate(180) translate(-30 -48)" onmousedown="handlePan(0,1)">
                  <use xlink:href="#rim" fill="#404040">
                        <set attributeName="fill" to="#808080" begin="arrowDown.mouseover" end="arrowDown.mouseout"/>
                  </use>
                  <path fill="none" stroke="white" stroke-width="1.5" d="M0,-3.0v7 M-2.5,-0.5L0,-3.0L2.5,-0.5"/>
                </g>
                <g id="arrowLeft" xlink:href="#dirArrow" transform="rotate(270) translate(-36 17)" onmousedown="handlePan(-1,0)">
                  <use xlink:href="#rim" fill="#404040">
                        <set attributeName="fill" to="#808080" begin="arrowLeft.mouseover" end="arrowLeft.mouseout"/>
                  </use>
                  <path fill="none" stroke="white" stroke-width="1.5" d="M0,-3.0v7 M-2.5,-0.5L0,-3.0L2.5,-0.5"/>
                </g>
        </g>
        <svg viewBox="0 0 15 15" width="100%" height="30px" preserveAspectRatio="xMaxYMin meet">
         <g id="arrow_out" transform="scale(0.3 0.3)">
          <a xlink:href="_roomba_connect_8cpp__incl_org.svg" target="_base">
           <rect id="button" ry="5" rx="5" y="6" x="6" height="38" width="38"
                fill="#f2f5e9" fill-opacity="0.5" stroke="#606060" stroke-width="1.0"/>
           <path id="arrow"
             d="M 11.500037,31.436501 C 11.940474,20.09759 22.043105,11.32322 32.158766,21.979434 L 37.068811,17.246167 C 37.068811,17.246167 37.088388,32 37.088388,32 L 22.160133,31.978069 C 22.160133,31.978069 26.997745,27.140456 26.997745,27.140456 C 18.528582,18.264221 13.291696,25.230495 11.500037,31.436501 z"
             style="fill:#404040;"/>
          </a>
         </g>
        </svg>
</svg>
