<?xml version="1.0" encoding="UTF-8" standalone="no"?>
<!DOCTYPE svg PUBLIC "-//W3C//DTD SVG 1.1//EN"
 "http://www.w3.org/Graphics/SVG/1.1/DTD/svg11.dtd">
<!-- Generated by graphviz version 2.30.1 (20130214.1330)
 -->
<!-- Title: SettingsRoomba Pages: 1 -->
<svg width="118pt" height="172pt"
 viewBox="0.00 0.00 118.00 172.00" xmlns="http://www.w3.org/2000/svg" xmlns:xlink="http://www.w3.org/1999/xlink">
<g id="graph0" class="graph" transform="scale(1 1) rotate(0) translate(4 168)">
<title>SettingsRoomba</title>
<polygon fill="white" stroke="white" points="-4,5 -4,-168 115,-168 115,5 -4,5"/>
<!-- Node1 -->
<g id="node1" class="node"><title>Node1</title>
<polygon fill="#bfbfbf" stroke="black" points="0,-1 0,-69 110,-69 110,-1 0,-1"/>
<text text-anchor="middle" x="55" y="-57" font-family="Helvetica,sans-Serif" font-size="10.00">SettingsRoomba</text>
<polyline fill="none" stroke="black" points="0,-50 110,-50 "/>
<text text-anchor="middle" x="55" y="-38" font-family="Helvetica,sans-Serif" font-size="10.00"> </text>
<polyline fill="none" stroke="black" points="0,-31 110,-31 "/>
<text text-anchor="start" x="8" y="-19" font-family="Helvetica,sans-Serif" font-size="10.00">+ SettingsRoomba()</text>
<text text-anchor="start" x="8" y="-8" font-family="Helvetica,sans-Serif" font-size="10.00">+ ~SettingsRoomba()</text>
</g>
<!-- Node2 -->
<g id="node2" class="node"><title>Node2</title>
<polygon fill="white" stroke="#bfbfbf" points="27.5,-106.5 27.5,-163.5 82.5,-163.5 82.5,-106.5 27.5,-106.5"/>
<text text-anchor="middle" x="55" y="-151.5" font-family="Helvetica,sans-Serif" font-size="10.00">QWidget</text>
<polyline fill="none" stroke="#bfbfbf" points="27.5,-144.5 82.5,-144.5 "/>
<text text-anchor="middle" x="55" y="-132.5" font-family="Helvetica,sans-Serif" font-size="10.00"> </text>
<polyline fill="none" stroke="#bfbfbf" points="27.5,-125.5 82.5,-125.5 "/>
<text text-anchor="middle" x="55" y="-113.5" font-family="Helvetica,sans-Serif" font-size="10.00"> </text>
</g>
<!-- Node2&#45;&gt;Node1 -->
<g id="edge1" class="edge"><title>Node2&#45;&gt;Node1</title>
<path fill="none" stroke="midnightblue" d="M55,-96.3023C55,-87.3951 55,-77.9608 55,-69.2659"/>
<polygon fill="none" stroke="midnightblue" points="51.5001,-96.4407 55,-106.441 58.5001,-96.4408 51.5001,-96.4407"/>
</g>
</g>
</svg>
