<?xml version="1.0" encoding="UTF-8" standalone="no"?>
<!DOCTYPE svg PUBLIC "-//W3C//DTD SVG 1.1//EN"
 "http://www.w3.org/Graphics/SVG/1.1/DTD/svg11.dtd">
<!-- Generated by graphviz version 2.30.1 (20130214.1330)
 -->
<!-- Title: GUI/Gui&#45;RoombaV1.0/roomba.h Pages: 1 -->
<svg width="1255pt" height="388pt"
 viewBox="0.00 0.00 1255.42 388.00" xmlns="http://www.w3.org/2000/svg" xmlns:xlink="http://www.w3.org/1999/xlink">
<g id="graph0" class="graph" transform="scale(1 1) rotate(0) translate(4 384)">
<title>GUI/Gui&#45;RoombaV1.0/roomba.h</title>
<polygon fill="white" stroke="white" points="-4,5 -4,-384 1252.42,-384 1252.42,5 -4,5"/>
<!-- Node1 -->
<g id="node1" class="node"><title>Node1</title>
<polygon fill="#bfbfbf" stroke="black" points="797.419,-349 797.419,-379 907.419,-379 907.419,-349 797.419,-349"/>
<text text-anchor="start" x="805.419" y="-367" font-family="Helvetica,sans-Serif" font-size="10.00">GUI/Gui&#45;RoombaV1.0</text>
<text text-anchor="middle" x="852.419" y="-356" font-family="Helvetica,sans-Serif" font-size="10.00">/roomba.h</text>
</g>
<!-- Node2 -->
<g id="node2" class="node"><title>Node2</title>
<polygon fill="white" stroke="#bfbfbf" points="759.419,-292.5 759.419,-311.5 839.419,-311.5 839.419,-292.5 759.419,-292.5"/>
<text text-anchor="middle" x="799.419" y="-299.5" font-family="Helvetica,sans-Serif" font-size="10.00">QMainWindow</text>
</g>
<!-- Node1&#45;&gt;Node2 -->
<g id="edge1" class="edge"><title>Node1&#45;&gt;Node2</title>
<path fill="none" stroke="midnightblue" d="M839.859,-348.781C832.078,-339.972 822.055,-328.626 813.935,-319.433"/>
<polygon fill="midnightblue" stroke="midnightblue" points="816.374,-316.908 807.131,-311.731 811.128,-321.542 816.374,-316.908"/>
</g>
<!-- Node3 -->
<g id="node3" class="node"><title>Node3</title>
<g id="a_node3"><a xlink:href="../../d4/dca/_roomba_connect_8h.xhtml" target="_top" xlink:title="RoombaConnect.h">
<polygon fill="white" stroke="black" points="857.919,-292.5 857.919,-311.5 954.919,-311.5 954.919,-292.5 857.919,-292.5"/>
<text text-anchor="middle" x="906.419" y="-299.5" font-family="Helvetica,sans-Serif" font-size="10.00">RoombaConnect.h</text>
</a>
</g>
</g>
<!-- Node1&#45;&gt;Node3 -->
<g id="edge2" class="edge"><title>Node1&#45;&gt;Node3</title>
<path fill="none" stroke="midnightblue" d="M865.216,-348.781C873.144,-339.972 883.355,-328.626 891.629,-319.433"/>
<polygon fill="midnightblue" stroke="midnightblue" points="894.473,-321.505 898.561,-311.731 889.27,-316.822 894.473,-321.505"/>
</g>
<!-- Node4 -->
<g id="node4" class="node"><title>Node4</title>
<polygon fill="white" stroke="#bfbfbf" points="523.919,-56.5 523.919,-75.5 576.919,-75.5 576.919,-56.5 523.919,-56.5"/>
<text text-anchor="middle" x="550.419" y="-63.5" font-family="Helvetica,sans-Serif" font-size="10.00">QObject</text>
</g>
<!-- Node3&#45;&gt;Node4 -->
<g id="edge3" class="edge"><title>Node3&#45;&gt;Node4</title>
<path fill="none" stroke="midnightblue" d="M857.734,-293.053C854.586,-292.66 851.461,-292.304 848.419,-292 760.433,-283.208 131.593,-297.324 53.4189,-256 20.0203,-238.345 14.3653,-223.839 2.41888,-188 -30.9952,-87.7578 385.608,-70.5182 513.639,-67.5904"/>
<polygon fill="midnightblue" stroke="midnightblue" points="513.813,-71.0876 523.736,-67.3759 513.664,-64.0892 513.813,-71.0876"/>
</g>
<!-- Node5 -->
<g id="node5" class="node"><title>Node5</title>
<polygon fill="white" stroke="#bfbfbf" points="953.919,-230.5 953.919,-249.5 1024.92,-249.5 1024.92,-230.5 953.919,-230.5"/>
<text text-anchor="middle" x="989.419" y="-237.5" font-family="Helvetica,sans-Serif" font-size="10.00">QTcpSocket</text>
</g>
<!-- Node3&#45;&gt;Node5 -->
<g id="edge4" class="edge"><title>Node3&#45;&gt;Node5</title>
<path fill="none" stroke="midnightblue" d="M918.311,-292.403C931.624,-282.78 953.419,-267.024 969.376,-255.489"/>
<polygon fill="midnightblue" stroke="midnightblue" points="971.495,-258.276 977.549,-249.581 967.394,-252.603 971.495,-258.276"/>
</g>
<!-- Node6 -->
<g id="node6" class="node"><title>Node6</title>
<polygon fill="white" stroke="#bfbfbf" points="1043.42,-230.5 1043.42,-249.5 1117.42,-249.5 1117.42,-230.5 1043.42,-230.5"/>
<text text-anchor="middle" x="1080.42" y="-237.5" font-family="Helvetica,sans-Serif" font-size="10.00">QTextStream</text>
</g>
<!-- Node3&#45;&gt;Node6 -->
<g id="edge5" class="edge"><title>Node3&#45;&gt;Node6</title>
<path fill="none" stroke="midnightblue" d="M931.349,-292.403C961.454,-282.022 1012.25,-264.506 1046.06,-252.849"/>
<polygon fill="midnightblue" stroke="midnightblue" points="1047.22,-256.149 1055.54,-249.581 1044.94,-249.532 1047.22,-256.149"/>
</g>
<!-- Node7 -->
<g id="node7" class="node"><title>Node7</title>
<polygon fill="white" stroke="#bfbfbf" points="1135.92,-230.5 1135.92,-249.5 1180.92,-249.5 1180.92,-230.5 1135.92,-230.5"/>
<text text-anchor="middle" x="1158.42" y="-237.5" font-family="Helvetica,sans-Serif" font-size="10.00">QTime</text>
</g>
<!-- Node3&#45;&gt;Node7 -->
<g id="edge6" class="edge"><title>Node3&#45;&gt;Node7</title>
<path fill="none" stroke="midnightblue" d="M955.346,-294.391C1000.51,-287.498 1069.06,-275.011 1126.42,-256 1128.55,-255.294 1130.72,-254.484 1132.88,-253.614"/>
<polygon fill="midnightblue" stroke="midnightblue" points="1134.37,-256.783 1142.12,-249.55 1131.55,-250.376 1134.37,-256.783"/>
</g>
<!-- Node8 -->
<g id="node8" class="node"><title>Node8</title>
<g id="a_node8"><a xlink:href="../../d7/d62/clslog_8h.xhtml" target="_top" xlink:title="../resources/clslog.h">
<polygon fill="white" stroke="black" points="736.919,-56.5 736.919,-75.5 841.919,-75.5 841.919,-56.5 736.919,-56.5"/>
<text text-anchor="middle" x="789.419" y="-63.5" font-family="Helvetica,sans-Serif" font-size="10.00">../resources/clslog.h</text>
</a>
</g>
</g>
<!-- Node3&#45;&gt;Node8 -->
<g id="edge7" class="edge"><title>Node3&#45;&gt;Node8</title>
<path fill="none" stroke="midnightblue" d="M907.661,-292.397C908.899,-283.358 910.715,-268.715 911.419,-256 913.642,-215.852 912.188,-201.807 890.419,-168 867.782,-132.844 831.148,-100.183 808.776,-81.9815"/>
<polygon fill="midnightblue" stroke="midnightblue" points="810.686,-79.0279 800.687,-75.5256 806.32,-84.4991 810.686,-79.0279"/>
</g>
<!-- Node14 -->
<g id="node14" class="node"><title>Node14</title>
<polygon fill="white" stroke="#bfbfbf" points="1199.42,-230.5 1199.42,-249.5 1247.42,-249.5 1247.42,-230.5 1199.42,-230.5"/>
<text text-anchor="middle" x="1223.42" y="-237.5" font-family="Helvetica,sans-Serif" font-size="10.00">QTimer</text>
</g>
<!-- Node3&#45;&gt;Node14 -->
<g id="edge13" class="edge"><title>Node3&#45;&gt;Node14</title>
<path fill="none" stroke="midnightblue" d="M955.076,-297.103C1012.14,-291.659 1109.13,-279.662 1189.42,-256 1191.91,-255.266 1194.46,-254.392 1196.98,-253.44"/>
<polygon fill="midnightblue" stroke="midnightblue" points="1198.55,-256.579 1206.45,-249.515 1195.87,-250.114 1198.55,-256.579"/>
</g>
<!-- Node15 -->
<g id="node15" class="node"><title>Node15</title>
<g id="a_node15"><a xlink:href="../../dc/d96/jsoncommand_8h.xhtml" target="_top" xlink:title="../resources/jsoncommand.h">
<polygon fill="white" stroke="black" points="719.419,-168.5 719.419,-187.5 859.419,-187.5 859.419,-168.5 719.419,-168.5"/>
<text text-anchor="middle" x="789.419" y="-175.5" font-family="Helvetica,sans-Serif" font-size="10.00">../resources/jsoncommand.h</text>
</a>
</g>
</g>
<!-- Node3&#45;&gt;Node15 -->
<g id="edge14" class="edge"><title>Node3&#45;&gt;Node15</title>
<path fill="none" stroke="midnightblue" d="M898.005,-292.226C878.441,-271.826 829.665,-220.966 804.686,-194.92"/>
<polygon fill="midnightblue" stroke="midnightblue" points="807.205,-192.489 797.757,-187.694 802.153,-197.334 807.205,-192.489"/>
</g>
<!-- Node17 -->
<g id="node17" class="node"><title>Node17</title>
<g id="a_node17"><a xlink:href="../../d4/d05/json_8h.xhtml" target="_top" xlink:title="json.h">
<polygon fill="white" stroke="black" points="717.919,-112.5 717.919,-131.5 760.919,-131.5 760.919,-112.5 717.919,-112.5"/>
<text text-anchor="middle" x="739.419" y="-119.5" font-family="Helvetica,sans-Serif" font-size="10.00">json.h</text>
</a>
</g>
</g>
<!-- Node3&#45;&gt;Node17 -->
<g id="edge21" class="edge"><title>Node3&#45;&gt;Node17</title>
<path fill="none" stroke="midnightblue" d="M906.526,-292.22C906.329,-268.795 902.547,-204.143 868.419,-168 842.893,-140.967 800.262,-130.167 771.043,-125.857"/>
<polygon fill="midnightblue" stroke="midnightblue" points="771.309,-122.362 760.942,-124.545 770.407,-129.304 771.309,-122.362"/>
</g>
<!-- Node20 -->
<g id="node20" class="node"><title>Node20</title>
<g id="a_node20"><a xlink:href="../../db/d97/clsevent_8h.xhtml" target="_top" xlink:title="../resources/clsevent.h">
<polygon fill="white" stroke="black" points="445.919,-112.5 445.919,-131.5 560.919,-131.5 560.919,-112.5 445.919,-112.5"/>
<text text-anchor="middle" x="503.419" y="-119.5" font-family="Helvetica,sans-Serif" font-size="10.00">../resources/clsevent.h</text>
</a>
</g>
</g>
<!-- Node3&#45;&gt;Node20 -->
<g id="edge22" class="edge"><title>Node3&#45;&gt;Node20</title>
<path fill="none" stroke="midnightblue" d="M857.726,-293.13C854.58,-292.719 851.457,-292.337 848.419,-292 661.914,-271.294 127.684,-334.498 10.4189,-188 4.86412,-181.06 4.42596,-174.565 10.4189,-168 38.5217,-137.215 307.141,-127.246 435.613,-124.223"/>
<polygon fill="midnightblue" stroke="midnightblue" points="435.817,-127.719 445.735,-123.992 435.657,-120.721 435.817,-127.719"/>
</g>
<!-- Node21 -->
<g id="node21" class="node"><title>Node21</title>
<g id="a_node21"><a xlink:href="../../db/dd2/events_8h.xhtml" target="_top" xlink:title="../resources/events\l/events.h">
<polygon fill="white" stroke="black" points="322.919,-225 322.919,-255 421.919,-255 421.919,-225 322.919,-225"/>
<text text-anchor="start" x="330.919" y="-243" font-family="Helvetica,sans-Serif" font-size="10.00">../resources/events</text>
<text text-anchor="middle" x="372.419" y="-232" font-family="Helvetica,sans-Serif" font-size="10.00">/events.h</text>
</a>
</g>
</g>
<!-- Node3&#45;&gt;Node21 -->
<g id="edge28" class="edge"><title>Node3&#45;&gt;Node21</title>
<path fill="none" stroke="midnightblue" d="M857.709,-293.271C854.567,-292.825 851.45,-292.397 848.419,-292 699.045,-272.42 522.559,-254.998 432.244,-246.496"/>
<polygon fill="midnightblue" stroke="midnightblue" points="432.476,-243.002 422.193,-245.553 431.822,-249.971 432.476,-243.002"/>
</g>
<!-- Node9 -->
<g id="node9" class="node"><title>Node9</title>
<polygon fill="white" stroke="#bfbfbf" points="730.419,-0.5 730.419,-19.5 782.419,-19.5 782.419,-0.5 730.419,-0.5"/>
<text text-anchor="middle" x="756.419" y="-7.5" font-family="Helvetica,sans-Serif" font-size="10.00">QDebug</text>
</g>
<!-- Node8&#45;&gt;Node9 -->
<g id="edge8" class="edge"><title>Node8&#45;&gt;Node9</title>
<path fill="none" stroke="midnightblue" d="M783.97,-56.083C779.404,-48.6127 772.75,-37.7244 767.125,-28.5199"/>
<polygon fill="midnightblue" stroke="midnightblue" points="769.968,-26.4588 761.767,-19.7511 763.995,-30.109 769.968,-26.4588"/>
</g>
<!-- Node10 -->
<g id="node10" class="node"><title>Node10</title>
<polygon fill="white" stroke="#bfbfbf" points="529.919,-0.5 529.919,-19.5 594.919,-19.5 594.919,-0.5 529.919,-0.5"/>
<text text-anchor="middle" x="562.419" y="-7.5" font-family="Helvetica,sans-Serif" font-size="10.00">QDateTime</text>
</g>
<!-- Node8&#45;&gt;Node10 -->
<g id="edge9" class="edge"><title>Node8&#45;&gt;Node10</title>
<path fill="none" stroke="midnightblue" d="M753.45,-56.4435C713.174,-46.8624 647.947,-31.3458 605.116,-21.157"/>
<polygon fill="midnightblue" stroke="midnightblue" points="605.81,-17.7245 595.271,-18.8151 604.19,-24.5344 605.81,-17.7245"/>
</g>
<!-- Node11 -->
<g id="node11" class="node"><title>Node11</title>
<polygon fill="white" stroke="#bfbfbf" points="800.919,-0.5 800.919,-19.5 841.919,-19.5 841.919,-0.5 800.919,-0.5"/>
<text text-anchor="middle" x="821.419" y="-7.5" font-family="Helvetica,sans-Serif" font-size="10.00">string</text>
</g>
<!-- Node8&#45;&gt;Node11 -->
<g id="edge10" class="edge"><title>Node8&#45;&gt;Node11</title>
<path fill="none" stroke="midnightblue" d="M794.703,-56.083C799.13,-48.6127 805.582,-37.7244 811.037,-28.5199"/>
<polygon fill="midnightblue" stroke="midnightblue" points="814.146,-30.1383 816.233,-19.7511 808.124,-26.5697 814.146,-30.1383"/>
</g>
<!-- Node12 -->
<g id="node12" class="node"><title>Node12</title>
<polygon fill="white" stroke="#bfbfbf" points="860.419,-0.5 860.419,-19.5 914.419,-19.5 914.419,-0.5 860.419,-0.5"/>
<text text-anchor="middle" x="887.419" y="-7.5" font-family="Helvetica,sans-Serif" font-size="10.00">iostream</text>
</g>
<!-- Node8&#45;&gt;Node12 -->
<g id="edge11" class="edge"><title>Node8&#45;&gt;Node12</title>
<path fill="none" stroke="midnightblue" d="M805.164,-56.324C820.738,-47.7428 844.796,-34.486 862.878,-24.5224"/>
<polygon fill="midnightblue" stroke="midnightblue" points="864.643,-27.546 871.713,-19.6545 861.265,-21.4152 864.643,-27.546"/>
</g>
<!-- Node13 -->
<g id="node13" class="node"><title>Node13</title>
<polygon fill="white" stroke="#bfbfbf" points="646.919,-0.5 646.919,-19.5 711.919,-19.5 711.919,-0.5 646.919,-0.5"/>
<text text-anchor="middle" x="679.419" y="-7.5" font-family="Helvetica,sans-Serif" font-size="10.00">QStringList</text>
</g>
<!-- Node8&#45;&gt;Node13 -->
<g id="edge12" class="edge"><title>Node8&#45;&gt;Node13</title>
<path fill="none" stroke="midnightblue" d="M771.745,-56.324C754.025,-47.6247 726.516,-34.1202 706.13,-24.113"/>
<polygon fill="midnightblue" stroke="midnightblue" points="707.567,-20.9195 697.048,-19.6545 704.483,-27.2031 707.567,-20.9195"/>
</g>
<!-- Node15&#45;&gt;Node4 -->
<g id="edge15" class="edge"><title>Node15&#45;&gt;Node4</title>
<path fill="none" stroke="midnightblue" d="M773.687,-168.245C743.786,-151.63 680.8,-116.753 670.419,-112 642.681,-99.3005 610.233,-87.2961 586.077,-78.885"/>
<polygon fill="midnightblue" stroke="midnightblue" points="587.193,-75.5678 576.599,-75.6206 584.914,-82.1863 587.193,-75.5678"/>
</g>
<!-- Node16 -->
<g id="node16" class="node"><title>Node16</title>
<polygon fill="white" stroke="#bfbfbf" points="587.419,-112.5 587.419,-131.5 661.419,-131.5 661.419,-112.5 587.419,-112.5"/>
<text text-anchor="middle" x="624.419" y="-119.5" font-family="Helvetica,sans-Serif" font-size="10.00">QVariantMap</text>
</g>
<!-- Node15&#45;&gt;Node16 -->
<g id="edge16" class="edge"><title>Node15&#45;&gt;Node16</title>
<path fill="none" stroke="midnightblue" d="M763.274,-168.444C735.395,-159.32 691.071,-144.813 660.019,-134.651"/>
<polygon fill="midnightblue" stroke="midnightblue" points="661.034,-131.3 650.441,-131.516 658.857,-137.953 661.034,-131.3"/>
</g>
<!-- Node15&#45;&gt;Node17 -->
<g id="edge17" class="edge"><title>Node15&#45;&gt;Node17</title>
<path fill="none" stroke="midnightblue" d="M781.162,-168.083C773.954,-160.298 763.309,-148.801 754.573,-139.367"/>
<polygon fill="midnightblue" stroke="midnightblue" points="756.884,-136.711 747.522,-131.751 751.748,-141.467 756.884,-136.711"/>
</g>
<!-- Node15&#45;&gt;Node8 -->
<g id="edge20" class="edge"><title>Node15&#45;&gt;Node8</title>
<path fill="none" stroke="midnightblue" d="M789.419,-168.368C789.419,-150.617 789.419,-109.666 789.419,-85.5974"/>
<polygon fill="midnightblue" stroke="midnightblue" points="792.919,-85.5914 789.419,-75.5914 785.919,-85.5915 792.919,-85.5914"/>
</g>
<!-- Node18 -->
<g id="node18" class="node"><title>Node18</title>
<polygon fill="white" stroke="#bfbfbf" points="663.919,-56.5 663.919,-75.5 718.919,-75.5 718.919,-56.5 663.919,-56.5"/>
<text text-anchor="middle" x="691.419" y="-63.5" font-family="Helvetica,sans-Serif" font-size="10.00">QVariant</text>
</g>
<!-- Node17&#45;&gt;Node18 -->
<g id="edge18" class="edge"><title>Node17&#45;&gt;Node18</title>
<path fill="none" stroke="midnightblue" d="M731.493,-112.083C724.573,-104.298 714.354,-92.8015 705.967,-83.3665"/>
<polygon fill="midnightblue" stroke="midnightblue" points="708.457,-80.8999 699.198,-75.7511 703.225,-85.5505 708.457,-80.8999"/>
</g>
<!-- Node19 -->
<g id="node19" class="node"><title>Node19</title>
<polygon fill="white" stroke="#bfbfbf" points="595.419,-56.5 595.419,-75.5 645.419,-75.5 645.419,-56.5 595.419,-56.5"/>
<text text-anchor="middle" x="620.419" y="-63.5" font-family="Helvetica,sans-Serif" font-size="10.00">QString</text>
</g>
<!-- Node17&#45;&gt;Node19 -->
<g id="edge19" class="edge"><title>Node17&#45;&gt;Node19</title>
<path fill="none" stroke="midnightblue" d="M720.563,-112.444C701.153,-103.636 670.689,-89.8116 648.454,-79.722"/>
<polygon fill="midnightblue" stroke="midnightblue" points="649.739,-76.4615 639.187,-75.5164 646.847,-82.836 649.739,-76.4615"/>
</g>
<!-- Node20&#45;&gt;Node4 -->
<g id="edge23" class="edge"><title>Node20&#45;&gt;Node4</title>
<path fill="none" stroke="midnightblue" d="M511.18,-112.083C517.956,-104.298 527.962,-92.8015 536.174,-83.3665"/>
<polygon fill="midnightblue" stroke="midnightblue" points="538.877,-85.592 542.802,-75.7511 533.597,-80.9963 538.877,-85.592"/>
</g>
<!-- Node20&#45;&gt;Node19 -->
<g id="edge24" class="edge"><title>Node20&#45;&gt;Node19</title>
<path fill="none" stroke="midnightblue" d="M521.958,-112.444C541.042,-103.636 570.994,-89.8116 592.855,-79.722"/>
<polygon fill="midnightblue" stroke="midnightblue" points="594.354,-82.8849 601.967,-75.5164 591.42,-76.5292 594.354,-82.8849"/>
</g>
<!-- Node20&#45;&gt;Node18 -->
<g id="edge25" class="edge"><title>Node20&#45;&gt;Node18</title>
<path fill="none" stroke="midnightblue" d="M533.208,-112.444C565.908,-103.051 618.465,-87.9549 653.939,-77.7654"/>
<polygon fill="midnightblue" stroke="midnightblue" points="655.265,-81.0263 663.91,-74.9015 653.332,-74.2983 655.265,-81.0263"/>
</g>
<!-- Node20&#45;&gt;Node10 -->
<g id="edge26" class="edge"><title>Node20&#45;&gt;Node10</title>
<path fill="none" stroke="midnightblue" d="M503.175,-112.447C503.164,-99.4635 504.567,-74.3532 514.419,-56 520.77,-44.168 531.411,-33.7131 541.062,-25.8657"/>
<polygon fill="midnightblue" stroke="midnightblue" points="543.341,-28.5287 549.156,-19.6718 539.087,-22.9697 543.341,-28.5287"/>
</g>
<!-- Node20&#45;&gt;Node8 -->
<g id="edge27" class="edge"><title>Node20&#45;&gt;Node8</title>
<path fill="none" stroke="midnightblue" d="M548.736,-112.444C599.047,-102.944 680.257,-87.611 734.232,-77.4198"/>
<polygon fill="midnightblue" stroke="midnightblue" points="735.136,-80.8111 744.313,-75.5164 733.838,-73.9326 735.136,-80.8111"/>
</g>
<!-- Node22 -->
<g id="node22" class="node"><title>Node22</title>
<g id="a_node22"><a xlink:href="../../db/d70/eventchat_8h.xhtml" target="_top" xlink:title="eventchat.h">
<polygon fill="white" stroke="black" points="19.4189,-168.5 19.4189,-187.5 85.4189,-187.5 85.4189,-168.5 19.4189,-168.5"/>
<text text-anchor="middle" x="52.4189" y="-175.5" font-family="Helvetica,sans-Serif" font-size="10.00">eventchat.h</text>
</a>
</g>
</g>
<!-- Node21&#45;&gt;Node22 -->
<g id="edge29" class="edge"><title>Node21&#45;&gt;Node22</title>
<path fill="none" stroke="midnightblue" d="M322.87,-230.367C269.269,-220.926 181.042,-205.09 95.7206,-188.217"/>
<polygon fill="midnightblue" stroke="midnightblue" points="96.3611,-184.776 85.871,-186.262 94.9981,-191.642 96.3611,-184.776"/>
</g>
<!-- Node23 -->
<g id="node23" class="node"><title>Node23</title>
<g id="a_node23"><a xlink:href="../../d5/d02/eventuserjoin_8h.xhtml" target="_top" xlink:title="eventuserjoin.h">
<polygon fill="white" stroke="black" points="103.919,-168.5 103.919,-187.5 184.919,-187.5 184.919,-168.5 103.919,-168.5"/>
<text text-anchor="middle" x="144.419" y="-175.5" font-family="Helvetica,sans-Serif" font-size="10.00">eventuserjoin.h</text>
</a>
</g>
</g>
<!-- Node21&#45;&gt;Node23 -->
<g id="edge31" class="edge"><title>Node21&#45;&gt;Node23</title>
<path fill="none" stroke="midnightblue" d="M322.665,-225.907C282.01,-215.208 225.17,-200.25 186.692,-190.124"/>
<polygon fill="midnightblue" stroke="midnightblue" points="187.402,-186.692 176.841,-187.532 185.621,-193.462 187.402,-186.692"/>
</g>
<!-- Node24 -->
<g id="node24" class="node"><title>Node24</title>
<g id="a_node24"><a xlink:href="../../d7/d56/eventuserleave_8h.xhtml" target="_top" xlink:title="eventuserleave.h">
<polygon fill="white" stroke="black" points="203.419,-168.5 203.419,-187.5 291.419,-187.5 291.419,-168.5 203.419,-168.5"/>
<text text-anchor="middle" x="247.419" y="-175.5" font-family="Helvetica,sans-Serif" font-size="10.00">eventuserleave.h</text>
</a>
</g>
</g>
<!-- Node21&#45;&gt;Node24 -->
<g id="edge33" class="edge"><title>Node21&#45;&gt;Node24</title>
<path fill="none" stroke="midnightblue" d="M343.112,-224.933C322.4,-214.991 294.836,-201.76 274.612,-192.053"/>
<polygon fill="midnightblue" stroke="midnightblue" points="275.865,-188.772 265.336,-187.6 272.836,-195.083 275.865,-188.772"/>
</g>
<!-- Node25 -->
<g id="node25" class="node"><title>Node25</title>
<g id="a_node25"><a xlink:href="../../db/db0/eventuserchangestatus_8h.xhtml" target="_top" xlink:title="eventuserchangestatus.h">
<polygon fill="white" stroke="black" points="309.919,-168.5 309.919,-187.5 434.919,-187.5 434.919,-168.5 309.919,-168.5"/>
<text text-anchor="middle" x="372.419" y="-175.5" font-family="Helvetica,sans-Serif" font-size="10.00">eventuserchangestatus.h</text>
</a>
</g>
</g>
<!-- Node21&#45;&gt;Node25 -->
<g id="edge35" class="edge"><title>Node21&#45;&gt;Node25</title>
<path fill="none" stroke="midnightblue" d="M372.419,-224.781C372.419,-216.781 372.419,-206.689 372.419,-198.017"/>
<polygon fill="midnightblue" stroke="midnightblue" points="375.919,-197.73 372.419,-187.731 368.919,-197.731 375.919,-197.73"/>
</g>
<!-- Node26 -->
<g id="node26" class="node"><title>Node26</title>
<g id="a_node26"><a xlink:href="../../d8/d44/eventuserchangenick_8h.xhtml" target="_top" xlink:title="eventuserchangenick.h">
<polygon fill="white" stroke="black" points="453.419,-168.5 453.419,-187.5 569.419,-187.5 569.419,-168.5 453.419,-168.5"/>
<text text-anchor="middle" x="511.419" y="-175.5" font-family="Helvetica,sans-Serif" font-size="10.00">eventuserchangenick.h</text>
</a>
</g>
</g>
<!-- Node21&#45;&gt;Node26 -->
<g id="edge37" class="edge"><title>Node21&#45;&gt;Node26</title>
<path fill="none" stroke="midnightblue" d="M405.008,-224.933C428.354,-214.855 459.529,-201.399 482.096,-191.657"/>
<polygon fill="midnightblue" stroke="midnightblue" points="483.701,-194.777 491.495,-187.6 480.927,-188.35 483.701,-194.777"/>
</g>
<!-- Node27 -->
<g id="node27" class="node"><title>Node27</title>
<g id="a_node27"><a xlink:href="../../da/d66/eventservermessage_8h.xhtml" target="_top" xlink:title="eventservermessage.h">
<polygon fill="white" stroke="black" points="587.919,-168.5 587.919,-187.5 700.919,-187.5 700.919,-168.5 587.919,-168.5"/>
<text text-anchor="middle" x="644.419" y="-175.5" font-family="Helvetica,sans-Serif" font-size="10.00">eventservermessage.h</text>
</a>
</g>
</g>
<!-- Node21&#45;&gt;Node27 -->
<g id="edge39" class="edge"><title>Node21&#45;&gt;Node27</title>
<path fill="none" stroke="midnightblue" d="M421.992,-228.065C471.346,-217.178 546.628,-200.571 595.686,-189.75"/>
<polygon fill="midnightblue" stroke="midnightblue" points="596.726,-193.105 605.737,-187.533 595.218,-186.269 596.726,-193.105"/>
</g>
<!-- Node22&#45;&gt;Node20 -->
<g id="edge30" class="edge"><title>Node22&#45;&gt;Node20</title>
<path fill="none" stroke="midnightblue" d="M85.8317,-169.52C88.7292,-168.969 91.6215,-168.452 94.4189,-168 213.78,-148.696 354.099,-135.247 435.484,-128.349"/>
<polygon fill="midnightblue" stroke="midnightblue" points="435.924,-131.825 445.596,-127.5 435.339,-124.849 435.924,-131.825"/>
</g>
<!-- Node23&#45;&gt;Node20 -->
<g id="edge32" class="edge"><title>Node23&#45;&gt;Node20</title>
<path fill="none" stroke="midnightblue" d="M185.058,-169.567C188.224,-169.025 191.372,-168.496 194.419,-168 277.29,-154.511 372.987,-140.873 435.659,-132.203"/>
<polygon fill="midnightblue" stroke="midnightblue" points="436.383,-135.636 445.811,-130.802 435.426,-128.702 436.383,-135.636"/>
</g>
<!-- Node24&#45;&gt;Node20 -->
<g id="edge34" class="edge"><title>Node24&#45;&gt;Node20</title>
<path fill="none" stroke="midnightblue" d="M287.983,-168.444C332.735,-159.004 404.802,-143.802 453.114,-133.611"/>
<polygon fill="midnightblue" stroke="midnightblue" points="453.982,-137.005 463.045,-131.516 452.538,-130.156 453.982,-137.005"/>
</g>
<!-- Node25&#45;&gt;Node20 -->
<g id="edge36" class="edge"><title>Node25&#45;&gt;Node20</title>
<path fill="none" stroke="midnightblue" d="M393.176,-168.444C414.735,-159.557 448.682,-145.563 473.213,-135.451"/>
<polygon fill="midnightblue" stroke="midnightblue" points="474.847,-138.563 482.759,-131.516 472.179,-132.092 474.847,-138.563"/>
</g>
<!-- Node26&#45;&gt;Node20 -->
<g id="edge38" class="edge"><title>Node26&#45;&gt;Node20</title>
<path fill="none" stroke="midnightblue" d="M510.098,-168.083C509.038,-160.927 507.513,-150.635 506.188,-141.691"/>
<polygon fill="midnightblue" stroke="midnightblue" points="509.643,-141.13 504.715,-131.751 502.719,-142.156 509.643,-141.13"/>
</g>
<!-- Node27&#45;&gt;Node20 -->
<g id="edge40" class="edge"><title>Node27&#45;&gt;Node20</title>
<path fill="none" stroke="midnightblue" d="M622.077,-168.444C598.666,-159.478 561.683,-145.314 535.229,-135.183"/>
<polygon fill="midnightblue" stroke="midnightblue" points="536.247,-131.824 525.656,-131.516 533.743,-138.361 536.247,-131.824"/>
</g>
</g>
</svg>
