<?xml version="1.0" encoding="UTF-8" standalone="no"?>
<!DOCTYPE svg PUBLIC "-//W3C//DTD SVG 1.1//EN"
 "http://www.w3.org/Graphics/SVG/1.1/DTD/svg11.dtd">
<!-- Generated by graphviz version 2.30.1 (20130214.1330)
 -->
<!-- Title: GUI/Gui&#45;RoombaV1.0/roomba.h Pages: 1 -->
<svg width="1446pt" height="376pt"
 viewBox="0.00 0.00 1446.00 376.00" xmlns="http://www.w3.org/2000/svg" xmlns:xlink="http://www.w3.org/1999/xlink">
<g id="graph0" class="graph" transform="scale(1 1) rotate(0) translate(4 372)">
<title>GUI/Gui&#45;RoombaV1.0/roomba.h</title>
<polygon fill="white" stroke="white" points="-4,5 -4,-372 1443,-372 1443,5 -4,5"/>
<!-- Node1 -->
<g id="node1" class="node"><title>Node1</title>
<polygon fill="#bfbfbf" stroke="black" points="866,-337 866,-367 976,-367 976,-337 866,-337"/>
<text text-anchor="start" x="874" y="-355" font-family="Helvetica,sans-Serif" font-size="10.00">GUI/Gui&#45;RoombaV1.0</text>
<text text-anchor="middle" x="921" y="-344" font-family="Helvetica,sans-Serif" font-size="10.00">/roomba.h</text>
</g>
<!-- Node2 -->
<g id="node2" class="node"><title>Node2</title>
<polygon fill="white" stroke="#bfbfbf" points="112,-56.5 112,-75.5 162,-75.5 162,-56.5 112,-56.5"/>
<text text-anchor="middle" x="137" y="-63.5" font-family="Helvetica,sans-Serif" font-size="10.00">QString</text>
</g>
<!-- Node1&#45;&gt;Node2 -->
<g id="edge1" class="edge"><title>Node1&#45;&gt;Node2</title>
<path fill="none" stroke="midnightblue" d="M865.764,-349.584C672.454,-343.905 38,-318.879 38,-235 38,-235 38,-235 38,-177 38,-133.183 81.9362,-98.9282 111.27,-80.9413"/>
<polygon fill="midnightblue" stroke="midnightblue" points="113.363,-83.7703 120.206,-75.6816 109.813,-77.7377 113.363,-83.7703"/>
</g>
<!-- Node3 -->
<g id="node3" class="node"><title>Node3</title>
<polygon fill="white" stroke="#bfbfbf" points="164,-0.5 164,-19.5 216,-19.5 216,-0.5 164,-0.5"/>
<text text-anchor="middle" x="190" y="-7.5" font-family="Helvetica,sans-Serif" font-size="10.00">QDebug</text>
</g>
<!-- Node1&#45;&gt;Node3 -->
<g id="edge2" class="edge"><title>Node1&#45;&gt;Node3</title>
<path fill="none" stroke="midnightblue" d="M865.853,-350.87C707.158,-349.969 251.675,-343.555 110,-300 55.7207,-283.313 0,-291.786 0,-235 0,-235 0,-235 0,-121 0,-50.6379 98.7982,-24.5536 153.907,-15.4769"/>
<polygon fill="midnightblue" stroke="midnightblue" points="154.629,-18.9072 163.98,-13.9266 153.564,-11.9887 154.629,-18.9072"/>
</g>
<!-- Node4 -->
<g id="node4" class="node"><title>Node4</title>
<polygon fill="white" stroke="#bfbfbf" points="812.5,-168.5 812.5,-187.5 859.5,-187.5 859.5,-168.5 812.5,-168.5"/>
<text text-anchor="middle" x="836" y="-175.5" font-family="Helvetica,sans-Serif" font-size="10.00">QtCore</text>
</g>
<!-- Node1&#45;&gt;Node4 -->
<g id="edge3" class="edge"><title>Node1&#45;&gt;Node4</title>
<path fill="none" stroke="midnightblue" d="M914.641,-336.757C904.001,-313.11 881.712,-264.352 861,-224 856.248,-214.742 850.647,-204.597 845.952,-196.286"/>
<polygon fill="midnightblue" stroke="midnightblue" points="848.957,-194.489 840.962,-187.536 842.876,-197.957 848.957,-194.489"/>
</g>
<!-- Node5 -->
<g id="node5" class="node"><title>Node5</title>
<polygon fill="white" stroke="#bfbfbf" points="1226,-280.5 1226,-299.5 1268,-299.5 1268,-280.5 1226,-280.5"/>
<text text-anchor="middle" x="1247" y="-287.5" font-family="Helvetica,sans-Serif" font-size="10.00">vector</text>
</g>
<!-- Node1&#45;&gt;Node5 -->
<g id="edge4" class="edge"><title>Node1&#45;&gt;Node5</title>
<path fill="none" stroke="midnightblue" d="M976.225,-342.64C1034.94,-333.444 1130.4,-317.613 1212,-300 1213.28,-299.724 1214.58,-299.434 1215.89,-299.134"/>
<polygon fill="midnightblue" stroke="midnightblue" points="1217.07,-302.449 1225.96,-296.693 1215.42,-295.646 1217.07,-302.449"/>
</g>
<!-- Node6 -->
<g id="node6" class="node"><title>Node6</title>
<polygon fill="white" stroke="#bfbfbf" points="1286.5,-280.5 1286.5,-299.5 1339.5,-299.5 1339.5,-280.5 1286.5,-280.5"/>
<text text-anchor="middle" x="1313" y="-287.5" font-family="Helvetica,sans-Serif" font-size="10.00">QVector</text>
</g>
<!-- Node1&#45;&gt;Node6 -->
<g id="edge5" class="edge"><title>Node1&#45;&gt;Node6</title>
<path fill="none" stroke="midnightblue" d="M976.183,-344.877C1044.36,-336.916 1164.04,-321.653 1276.2,-299.972"/>
<polygon fill="midnightblue" stroke="midnightblue" points="1277.19,-303.344 1286.33,-297.991 1275.85,-296.474 1277.19,-303.344"/>
</g>
<!-- Node7 -->
<g id="node7" class="node"><title>Node7</title>
<polygon fill="white" stroke="#bfbfbf" points="982,-112.5 982,-131.5 1056,-131.5 1056,-112.5 982,-112.5"/>
<text text-anchor="middle" x="1019" y="-119.5" font-family="Helvetica,sans-Serif" font-size="10.00">QVariantMap</text>
</g>
<!-- Node1&#45;&gt;Node7 -->
<g id="edge6" class="edge"><title>Node1&#45;&gt;Node7</title>
<path fill="none" stroke="midnightblue" d="M940.676,-336.929C974.087,-311.646 1040.65,-254.884 1065,-188 1068.04,-179.647 1068.45,-176.193 1065,-168 1059.97,-156.053 1050.06,-145.692 1040.71,-137.934"/>
<polygon fill="midnightblue" stroke="midnightblue" points="1042.84,-135.155 1032.79,-131.811 1038.56,-140.694 1042.84,-135.155"/>
</g>
<!-- Node8 -->
<g id="node8" class="node"><title>Node8</title>
<polygon fill="white" stroke="#bfbfbf" points="1123,-0.5 1123,-19.5 1177,-19.5 1177,-0.5 1123,-0.5"/>
<text text-anchor="middle" x="1150" y="-7.5" font-family="Helvetica,sans-Serif" font-size="10.00">iostream</text>
</g>
<!-- Node1&#45;&gt;Node8 -->
<g id="edge7" class="edge"><title>Node1&#45;&gt;Node8</title>
<path fill="none" stroke="midnightblue" d="M976.057,-351.346C1056.84,-348.64 1198,-330.28 1198,-235 1198,-235 1198,-235 1198,-121 1198,-85.5849 1176.84,-48.707 1162.62,-27.9203"/>
<polygon fill="midnightblue" stroke="midnightblue" points="1165.32,-25.6838 1156.67,-19.565 1159.62,-29.7421 1165.32,-25.6838"/>
</g>
<!-- Node9 -->
<g id="node9" class="node"><title>Node9</title>
<polygon fill="white" stroke="#bfbfbf" points="1358,-280.5 1358,-299.5 1438,-299.5 1438,-280.5 1358,-280.5"/>
<text text-anchor="middle" x="1398" y="-287.5" font-family="Helvetica,sans-Serif" font-size="10.00">QMainWindow</text>
</g>
<!-- Node1&#45;&gt;Node9 -->
<g id="edge8" class="edge"><title>Node1&#45;&gt;Node9</title>
<path fill="none" stroke="midnightblue" d="M976.075,-345.476C1057.55,-337.066 1214.91,-319.909 1348,-300 1348.1,-299.985 1348.2,-299.97 1348.3,-299.955"/>
<polygon fill="midnightblue" stroke="midnightblue" points="1348.59,-303.453 1357.92,-298.43 1347.49,-296.539 1348.59,-303.453"/>
</g>
<!-- Node10 -->
<g id="node10" class="node"><title>Node10</title>
<polygon fill="white" stroke="#bfbfbf" points="710.5,-56.5 710.5,-75.5 763.5,-75.5 763.5,-56.5 710.5,-56.5"/>
<text text-anchor="middle" x="737" y="-63.5" font-family="Helvetica,sans-Serif" font-size="10.00">QObject</text>
</g>
<!-- Node1&#45;&gt;Node10 -->
<g id="edge9" class="edge"><title>Node1&#45;&gt;Node10</title>
<path fill="none" stroke="midnightblue" d="M920.095,-336.757C917.377,-303.989 906.875,-221.934 868,-168 839.666,-128.689 791.77,-97.3204 762.409,-80.5028"/>
<polygon fill="midnightblue" stroke="midnightblue" points="764.013,-77.3892 753.577,-75.5621 760.596,-83.4985 764.013,-77.3892"/>
</g>
<!-- Node11 -->
<g id="node11" class="node"><title>Node11</title>
<g id="a_node11"><a xlink:href="../../d4/dca/_roomba_connect_8h.xhtml" target="_top" xlink:title="RoombaConnect.h">
<polygon fill="white" stroke="black" points="518.5,-224.5 518.5,-243.5 615.5,-243.5 615.5,-224.5 518.5,-224.5"/>
<text text-anchor="middle" x="567" y="-231.5" font-family="Helvetica,sans-Serif" font-size="10.00">RoombaConnect.h</text>
</a>
</g>
</g>
<!-- Node1&#45;&gt;Node11 -->
<g id="edge10" class="edge"><title>Node1&#45;&gt;Node11</title>
<path fill="none" stroke="midnightblue" d="M865.742,-339.381C824.989,-330.235 768.444,-316.329 720,-300 674.79,-284.761 624.168,-262.098 593.977,-247.955"/>
<polygon fill="midnightblue" stroke="midnightblue" points="595.096,-244.612 584.559,-243.508 592.107,-250.942 595.096,-244.612"/>
</g>
<!-- Node25 -->
<g id="node25" class="node"><title>Node25</title>
<g id="a_node25"><a xlink:href="../../da/d4b/controllingroomba_8h.xhtml" target="_top" xlink:title="controllingroomba.h">
<polygon fill="white" stroke="black" points="729.5,-280.5 729.5,-299.5 830.5,-299.5 830.5,-280.5 729.5,-280.5"/>
<text text-anchor="middle" x="780" y="-287.5" font-family="Helvetica,sans-Serif" font-size="10.00">controllingroomba.h</text>
</a>
</g>
</g>
<!-- Node1&#45;&gt;Node25 -->
<g id="edge41" class="edge"><title>Node1&#45;&gt;Node25</title>
<path fill="none" stroke="midnightblue" d="M887.942,-336.933C864.153,-326.81 832.353,-313.278 809.438,-303.527"/>
<polygon fill="midnightblue" stroke="midnightblue" points="810.782,-300.295 800.21,-299.6 808.041,-306.736 810.782,-300.295"/>
</g>
<!-- Node24 -->
<g id="node24" class="node"><title>Node24</title>
<g id="a_node24"><a xlink:href="../../d4/d25/sensordata_8h.xhtml" target="_top" xlink:title="sensordata.h">
<polygon fill="white" stroke="black" points="218.5,-168.5 218.5,-187.5 291.5,-187.5 291.5,-168.5 218.5,-168.5"/>
<text text-anchor="middle" x="255" y="-175.5" font-family="Helvetica,sans-Serif" font-size="10.00">sensordata.h</text>
</a>
</g>
</g>
<!-- Node1&#45;&gt;Node24 -->
<g id="edge51" class="edge"><title>Node1&#45;&gt;Node24</title>
<path fill="none" stroke="midnightblue" d="M865.934,-349.658C723.478,-345.739 350.779,-332.466 306,-300 272.571,-275.763 260.916,-225.252 256.957,-197.778"/>
<polygon fill="midnightblue" stroke="midnightblue" points="260.394,-197.051 255.691,-187.558 253.447,-197.912 260.394,-197.051"/>
</g>
<!-- Node20 -->
<g id="node20" class="node"><title>Node20</title>
<g id="a_node20"><a xlink:href="../../dc/d96/jsoncommand_8h.xhtml" target="_top" xlink:title="../resources/jsoncommand.h">
<polygon fill="white" stroke="black" points="916,-168.5 916,-187.5 1056,-187.5 1056,-168.5 916,-168.5"/>
<text text-anchor="middle" x="986" y="-175.5" font-family="Helvetica,sans-Serif" font-size="10.00">../resources/jsoncommand.h</text>
</a>
</g>
</g>
<!-- Node1&#45;&gt;Node20 -->
<g id="edge52" class="edge"><title>Node1&#45;&gt;Node20</title>
<path fill="none" stroke="midnightblue" d="M931.818,-336.966C938.984,-327.09 948.113,-313.31 954,-300 969.327,-265.346 978.621,-221.758 982.99,-197.488"/>
<polygon fill="midnightblue" stroke="midnightblue" points="986.458,-197.97 984.699,-187.522 979.559,-196.786 986.458,-197.97"/>
</g>
<!-- Node21 -->
<g id="node21" class="node"><title>Node21</title>
<g id="a_node21"><a xlink:href="../../d4/d05/json_8h.xhtml" target="_top" xlink:title="json.h">
<polygon fill="white" stroke="black" points="117.5,-112.5 117.5,-131.5 160.5,-131.5 160.5,-112.5 117.5,-112.5"/>
<text text-anchor="middle" x="139" y="-119.5" font-family="Helvetica,sans-Serif" font-size="10.00">json.h</text>
</a>
</g>
</g>
<!-- Node1&#45;&gt;Node21 -->
<g id="edge53" class="edge"><title>Node1&#45;&gt;Node21</title>
<path fill="none" stroke="midnightblue" d="M865.8,-350.621C731.058,-349.053 388.653,-341.028 283,-300 207.42,-270.65 174.622,-260.835 139,-188 131.95,-173.586 132.732,-155.132 134.82,-141.572"/>
<polygon fill="midnightblue" stroke="midnightblue" points="138.3,-142.008 136.738,-131.529 131.424,-140.695 138.3,-142.008"/>
</g>
<!-- Node15 -->
<g id="node15" class="node"><title>Node15</title>
<g id="a_node15"><a xlink:href="../../d7/d62/clslog_8h.xhtml" target="_top" xlink:title="../resources/clslog.h">
<polygon fill="white" stroke="black" points="841.5,-56.5 841.5,-75.5 946.5,-75.5 946.5,-56.5 841.5,-56.5"/>
<text text-anchor="middle" x="894" y="-63.5" font-family="Helvetica,sans-Serif" font-size="10.00">../resources/clslog.h</text>
</a>
</g>
</g>
<!-- Node1&#45;&gt;Node15 -->
<g id="edge54" class="edge"><title>Node1&#45;&gt;Node15</title>
<path fill="none" stroke="midnightblue" d="M976.132,-347.908C1046.71,-340.632 1160,-316.29 1160,-235 1160,-235 1160,-235 1160,-177 1160,-89.4781 1035.5,-70.2251 956.854,-66.7947"/>
<polygon fill="midnightblue" stroke="midnightblue" points="956.673,-63.286 946.553,-66.4236 956.421,-70.2815 956.673,-63.286"/>
</g>
<!-- Node23 -->
<g id="node23" class="node"><title>Node23</title>
<g id="a_node23"><a xlink:href="../../db/d97/clsevent_8h.xhtml" target="_top" xlink:title="../resources/clsevent.h">
<polygon fill="white" stroke="black" points="300.5,-112.5 300.5,-131.5 415.5,-131.5 415.5,-112.5 300.5,-112.5"/>
<text text-anchor="middle" x="358" y="-119.5" font-family="Helvetica,sans-Serif" font-size="10.00">../resources/clsevent.h</text>
</a>
</g>
</g>
<!-- Node1&#45;&gt;Node23 -->
<g id="edge55" class="edge"><title>Node1&#45;&gt;Node23</title>
<path fill="none" stroke="midnightblue" d="M865.514,-342.386C813.283,-333.704 733.122,-318.901 665,-300 526.252,-261.504 445.55,-304.551 361,-188 351.369,-174.724 351.697,-155.6 353.786,-141.531"/>
<polygon fill="midnightblue" stroke="midnightblue" points="357.256,-142.017 355.682,-131.54 350.379,-140.712 357.256,-142.017"/>
</g>
<!-- Node11&#45;&gt;Node3 -->
<g id="edge11" class="edge"><title>Node11&#45;&gt;Node3</title>
<path fill="none" stroke="midnightblue" d="M518.281,-230.197C425.405,-224.38 230.315,-209.704 209,-188 166.989,-145.221 177.74,-65.6286 185.412,-29.5874"/>
<polygon fill="midnightblue" stroke="midnightblue" points="188.897,-30.0474 187.723,-19.5178 182.074,-28.4811 188.897,-30.0474"/>
</g>
<!-- Node11&#45;&gt;Node4 -->
<g id="edge12" class="edge"><title>Node11&#45;&gt;Node4</title>
<path fill="none" stroke="midnightblue" d="M609.624,-224.444C663.037,-213.721 753.48,-195.565 802.314,-185.762"/>
<polygon fill="midnightblue" stroke="midnightblue" points="803.246,-189.145 812.361,-183.745 801.868,-182.282 803.246,-189.145"/>
</g>
<!-- Node11&#45;&gt;Node10 -->
<g id="edge13" class="edge"><title>Node11&#45;&gt;Node10</title>
<path fill="none" stroke="midnightblue" d="M573.652,-224.222C580.326,-215.285 590.768,-200.942 599,-188 619.829,-155.253 613.581,-138.43 642,-112 658.615,-96.5481 681.499,-85.491 700.643,-78.2045"/>
<polygon fill="midnightblue" stroke="midnightblue" points="702.042,-81.4207 710.261,-74.7346 699.666,-74.8362 702.042,-81.4207"/>
</g>
<!-- Node12 -->
<g id="node12" class="node"><title>Node12</title>
<polygon fill="white" stroke="#bfbfbf" points="684.5,-168.5 684.5,-187.5 755.5,-187.5 755.5,-168.5 684.5,-168.5"/>
<text text-anchor="middle" x="720" y="-175.5" font-family="Helvetica,sans-Serif" font-size="10.00">QTcpSocket</text>
</g>
<!-- Node11&#45;&gt;Node12 -->
<g id="edge14" class="edge"><title>Node11&#45;&gt;Node12</title>
<path fill="none" stroke="midnightblue" d="M591.243,-224.444C616.871,-215.399 657.485,-201.064 686.238,-190.916"/>
<polygon fill="midnightblue" stroke="midnightblue" points="687.605,-194.145 695.87,-187.516 685.275,-187.544 687.605,-194.145"/>
</g>
<!-- Node13 -->
<g id="node13" class="node"><title>Node13</title>
<polygon fill="white" stroke="#bfbfbf" points="386,-168.5 386,-187.5 460,-187.5 460,-168.5 386,-168.5"/>
<text text-anchor="middle" x="423" y="-175.5" font-family="Helvetica,sans-Serif" font-size="10.00">QTextStream</text>
</g>
<!-- Node11&#45;&gt;Node13 -->
<g id="edge15" class="edge"><title>Node11&#45;&gt;Node13</title>
<path fill="none" stroke="midnightblue" d="M544.183,-224.444C520.168,-215.438 482.171,-201.189 455.131,-191.049"/>
<polygon fill="midnightblue" stroke="midnightblue" points="456.303,-187.751 445.71,-187.516 453.845,-194.305 456.303,-187.751"/>
</g>
<!-- Node14 -->
<g id="node14" class="node"><title>Node14</title>
<polygon fill="white" stroke="#bfbfbf" points="478.5,-168.5 478.5,-187.5 523.5,-187.5 523.5,-168.5 478.5,-168.5"/>
<text text-anchor="middle" x="501" y="-175.5" font-family="Helvetica,sans-Serif" font-size="10.00">QTime</text>
</g>
<!-- Node11&#45;&gt;Node14 -->
<g id="edge16" class="edge"><title>Node11&#45;&gt;Node14</title>
<path fill="none" stroke="midnightblue" d="M556.396,-224.324C546.544,-216.263 531.649,-204.077 519.785,-194.369"/>
<polygon fill="midnightblue" stroke="midnightblue" points="521.753,-191.457 511.797,-187.834 517.32,-196.875 521.753,-191.457"/>
</g>
<!-- Node11&#45;&gt;Node15 -->
<g id="edge17" class="edge"><title>Node11&#45;&gt;Node15</title>
<path fill="none" stroke="midnightblue" d="M580.364,-224.305C600.5,-211.353 639.994,-186.535 675,-168 741.083,-133.011 821.544,-97.6864 864.163,-79.5225"/>
<polygon fill="midnightblue" stroke="midnightblue" points="865.571,-82.7272 873.409,-75.5985 862.836,-76.2835 865.571,-82.7272"/>
</g>
<!-- Node19 -->
<g id="node19" class="node"><title>Node19</title>
<polygon fill="white" stroke="#bfbfbf" points="542,-168.5 542,-187.5 590,-187.5 590,-168.5 542,-168.5"/>
<text text-anchor="middle" x="566" y="-175.5" font-family="Helvetica,sans-Serif" font-size="10.00">QTimer</text>
</g>
<!-- Node11&#45;&gt;Node19 -->
<g id="edge23" class="edge"><title>Node11&#45;&gt;Node19</title>
<path fill="none" stroke="midnightblue" d="M566.835,-224.083C566.704,-217.006 566.516,-206.861 566.352,-197.986"/>
<polygon fill="midnightblue" stroke="midnightblue" points="569.847,-197.685 566.162,-187.751 562.848,-197.814 569.847,-197.685"/>
</g>
<!-- Node11&#45;&gt;Node20 -->
<g id="edge24" class="edge"><title>Node11&#45;&gt;Node20</title>
<path fill="none" stroke="midnightblue" d="M615.777,-225.583C619.573,-225.036 623.348,-224.503 627,-224 722.685,-210.829 832.945,-197.245 905.749,-188.496"/>
<polygon fill="midnightblue" stroke="midnightblue" points="906.256,-191.96 915.768,-187.294 905.422,-185.01 906.256,-191.96"/>
</g>
<!-- Node11&#45;&gt;Node21 -->
<g id="edge31" class="edge"><title>Node11&#45;&gt;Node21</title>
<path fill="none" stroke="midnightblue" d="M518.326,-232.78C426.318,-231.506 231.155,-224.447 176,-188 159.786,-177.285 149.884,-156.881 144.455,-141.78"/>
<polygon fill="midnightblue" stroke="midnightblue" points="147.678,-140.37 141.267,-131.935 141.018,-142.527 147.678,-140.37"/>
</g>
<!-- Node11&#45;&gt;Node23 -->
<g id="edge32" class="edge"><title>Node11&#45;&gt;Node23</title>
<path fill="none" stroke="midnightblue" d="M518.379,-227.094C469.024,-220.145 397.097,-207.081 377,-188 364.487,-176.119 360.076,-156.497 358.591,-141.915"/>
<polygon fill="midnightblue" stroke="midnightblue" points="362.059,-141.301 357.928,-131.545 355.073,-141.748 362.059,-141.301"/>
</g>
<!-- Node11&#45;&gt;Node24 -->
<g id="edge38" class="edge"><title>Node11&#45;&gt;Node24</title>
<path fill="none" stroke="midnightblue" d="M518.25,-224.563C459.075,-214.321 359.996,-197.172 301.742,-187.09"/>
<polygon fill="midnightblue" stroke="midnightblue" points="302.158,-183.61 291.708,-185.353 300.964,-190.508 302.158,-183.61"/>
</g>
<!-- Node15&#45;&gt;Node3 -->
<g id="edge18" class="edge"><title>Node15&#45;&gt;Node3</title>
<path fill="none" stroke="midnightblue" d="M841.373,-60.9633C705.015,-50.504 342.787,-22.7195 226.492,-13.7991"/>
<polygon fill="midnightblue" stroke="midnightblue" points="226.573,-10.2951 216.334,-13.0199 226.037,-17.2746 226.573,-10.2951"/>
</g>
<!-- Node16 -->
<g id="node16" class="node"><title>Node16</title>
<polygon fill="white" stroke="#bfbfbf" points="650.5,-0.5 650.5,-19.5 715.5,-19.5 715.5,-0.5 650.5,-0.5"/>
<text text-anchor="middle" x="683" y="-7.5" font-family="Helvetica,sans-Serif" font-size="10.00">QDateTime</text>
</g>
<!-- Node15&#45;&gt;Node16 -->
<g id="edge19" class="edge"><title>Node15&#45;&gt;Node16</title>
<path fill="none" stroke="midnightblue" d="M860.566,-56.4435C824.007,-47.0872 765.331,-32.0706 725.524,-21.8828"/>
<polygon fill="midnightblue" stroke="midnightblue" points="726.139,-18.4277 715.584,-19.339 724.404,-25.2091 726.139,-18.4277"/>
</g>
<!-- Node17 -->
<g id="node17" class="node"><title>Node17</title>
<polygon fill="white" stroke="#bfbfbf" points="837.5,-0.5 837.5,-19.5 878.5,-19.5 878.5,-0.5 837.5,-0.5"/>
<text text-anchor="middle" x="858" y="-7.5" font-family="Helvetica,sans-Serif" font-size="10.00">string</text>
</g>
<!-- Node15&#45;&gt;Node17 -->
<g id="edge20" class="edge"><title>Node15&#45;&gt;Node17</title>
<path fill="none" stroke="midnightblue" d="M888.055,-56.083C883.023,-48.5341 875.663,-37.4948 869.487,-28.2298"/>
<polygon fill="midnightblue" stroke="midnightblue" points="872.293,-26.1301 863.834,-19.7511 866.469,-30.0131 872.293,-26.1301"/>
</g>
<!-- Node15&#45;&gt;Node8 -->
<g id="edge21" class="edge"><title>Node15&#45;&gt;Node8</title>
<path fill="none" stroke="midnightblue" d="M934.564,-56.4435C983.688,-46.0814 1065.73,-28.7767 1113.13,-18.7777"/>
<polygon fill="midnightblue" stroke="midnightblue" points="1113.91,-22.189 1122.98,-16.7003 1112.47,-15.3397 1113.91,-22.189"/>
</g>
<!-- Node18 -->
<g id="node18" class="node"><title>Node18</title>
<polygon fill="white" stroke="#bfbfbf" points="896.5,-0.5 896.5,-19.5 961.5,-19.5 961.5,-0.5 896.5,-0.5"/>
<text text-anchor="middle" x="929" y="-7.5" font-family="Helvetica,sans-Serif" font-size="10.00">QStringList</text>
</g>
<!-- Node15&#45;&gt;Node18 -->
<g id="edge22" class="edge"><title>Node15&#45;&gt;Node18</title>
<path fill="none" stroke="midnightblue" d="M899.78,-56.083C904.672,-48.5341 911.827,-37.4948 917.833,-28.2298"/>
<polygon fill="midnightblue" stroke="midnightblue" points="920.826,-30.0463 923.328,-19.7511 914.952,-26.239 920.826,-30.0463"/>
</g>
<!-- Node20&#45;&gt;Node10 -->
<g id="edge25" class="edge"><title>Node20&#45;&gt;Node10</title>
<path fill="none" stroke="midnightblue" d="M975.969,-168.411C959.478,-154.687 925.151,-127.76 892,-112 853.408,-93.6536 805.793,-81.1966 773.599,-74.1227"/>
<polygon fill="midnightblue" stroke="midnightblue" points="774.229,-70.6785 763.719,-72.0145 772.768,-77.5244 774.229,-70.6785"/>
</g>
<!-- Node20&#45;&gt;Node7 -->
<g id="edge26" class="edge"><title>Node20&#45;&gt;Node7</title>
<path fill="none" stroke="midnightblue" d="M991.449,-168.083C996.014,-160.613 1002.67,-149.724 1008.29,-140.52"/>
<polygon fill="midnightblue" stroke="midnightblue" points="1011.42,-142.109 1013.65,-131.751 1005.45,-138.459 1011.42,-142.109"/>
</g>
<!-- Node20&#45;&gt;Node21 -->
<g id="edge27" class="edge"><title>Node20&#45;&gt;Node21</title>
<path fill="none" stroke="midnightblue" d="M915.816,-171.479C900.086,-170.288 883.475,-169.068 868,-168 729.24,-158.426 292.951,-132.215 170.967,-124.911"/>
<polygon fill="midnightblue" stroke="midnightblue" points="170.989,-121.407 160.798,-124.303 170.571,-128.394 170.989,-121.407"/>
</g>
<!-- Node20&#45;&gt;Node15 -->
<g id="edge30" class="edge"><title>Node20&#45;&gt;Node15</title>
<path fill="none" stroke="midnightblue" d="M978.781,-168.368C963.464,-150.055 927.495,-107.049 907.685,-83.3624"/>
<polygon fill="midnightblue" stroke="midnightblue" points="910.286,-81.0168 901.186,-75.5914 904.916,-85.5077 910.286,-81.0168"/>
</g>
<!-- Node22 -->
<g id="node22" class="node"><title>Node22</title>
<polygon fill="white" stroke="#bfbfbf" points="227.5,-56.5 227.5,-75.5 282.5,-75.5 282.5,-56.5 227.5,-56.5"/>
<text text-anchor="middle" x="255" y="-63.5" font-family="Helvetica,sans-Serif" font-size="10.00">QVariant</text>
</g>
<!-- Node21&#45;&gt;Node22 -->
<g id="edge28" class="edge"><title>Node21&#45;&gt;Node22</title>
<path fill="none" stroke="midnightblue" d="M157.381,-112.444C176.216,-103.675 205.731,-89.9355 227.379,-79.8579"/>
<polygon fill="midnightblue" stroke="midnightblue" points="229.117,-82.9098 236.705,-75.5164 226.162,-76.5637 229.117,-82.9098"/>
</g>
<!-- Node21&#45;&gt;Node2 -->
<g id="edge29" class="edge"><title>Node21&#45;&gt;Node2</title>
<path fill="none" stroke="midnightblue" d="M138.67,-112.083C138.408,-105.006 138.032,-94.8611 137.703,-85.9865"/>
<polygon fill="midnightblue" stroke="midnightblue" points="141.192,-85.6147 137.324,-75.7511 134.197,-85.8738 141.192,-85.6147"/>
</g>
<!-- Node23&#45;&gt;Node10 -->
<g id="edge33" class="edge"><title>Node23&#45;&gt;Node10</title>
<path fill="none" stroke="midnightblue" d="M415.562,-112.799C494.58,-101.54 634.359,-81.6243 700.44,-72.2091"/>
<polygon fill="midnightblue" stroke="midnightblue" points="700.986,-75.6668 710.392,-70.7911 699.998,-68.7368 700.986,-75.6668"/>
</g>
<!-- Node23&#45;&gt;Node2 -->
<g id="edge34" class="edge"><title>Node23&#45;&gt;Node2</title>
<path fill="none" stroke="midnightblue" d="M322.982,-112.444C281.691,-102.354 213.466,-85.6841 172.128,-75.5833"/>
<polygon fill="midnightblue" stroke="midnightblue" points="172.775,-72.1386 162.23,-73.1649 171.114,-78.9386 172.775,-72.1386"/>
</g>
<!-- Node23&#45;&gt;Node22 -->
<g id="edge35" class="edge"><title>Node23&#45;&gt;Node22</title>
<path fill="none" stroke="midnightblue" d="M341.451,-112.324C325.008,-103.703 299.565,-90.3643 280.532,-80.3855"/>
<polygon fill="midnightblue" stroke="midnightblue" points="281.989,-77.198 271.508,-75.6545 278.739,-83.3977 281.989,-77.198"/>
</g>
<!-- Node23&#45;&gt;Node16 -->
<g id="edge36" class="edge"><title>Node23&#45;&gt;Node16</title>
<path fill="none" stroke="midnightblue" d="M383.232,-112.46C440.826,-92.9664 582.075,-45.1591 648.021,-22.839"/>
<polygon fill="midnightblue" stroke="midnightblue" points="649.21,-26.1317 657.56,-19.6104 646.966,-19.5012 649.21,-26.1317"/>
</g>
<!-- Node23&#45;&gt;Node15 -->
<g id="edge37" class="edge"><title>Node23&#45;&gt;Node15</title>
<path fill="none" stroke="midnightblue" d="M415.616,-115.195C517.013,-104.98 726.516,-83.8734 831.365,-73.3103"/>
<polygon fill="midnightblue" stroke="midnightblue" points="831.884,-76.7757 841.483,-72.2909 831.182,-69.811 831.884,-76.7757"/>
</g>
<!-- Node24&#45;&gt;Node23 -->
<g id="edge39" class="edge"><title>Node24&#45;&gt;Node23</title>
<path fill="none" stroke="midnightblue" d="M271.549,-168.324C287.992,-159.703 313.435,-146.364 332.468,-136.386"/>
<polygon fill="midnightblue" stroke="midnightblue" points="334.261,-139.398 341.492,-131.655 331.011,-133.198 334.261,-139.398"/>
</g>
<!-- Node24&#45;&gt;Node22 -->
<g id="edge40" class="edge"><title>Node24&#45;&gt;Node22</title>
<path fill="none" stroke="midnightblue" d="M255,-168.368C255,-150.617 255,-109.666 255,-85.5974"/>
<polygon fill="midnightblue" stroke="midnightblue" points="258.5,-85.5914 255,-75.5914 251.5,-85.5915 258.5,-85.5914"/>
</g>
<!-- Node25&#45;&gt;Node21 -->
<g id="edge42" class="edge"><title>Node25&#45;&gt;Node21</title>
<path fill="none" stroke="midnightblue" d="M729.122,-287.87C595.149,-283.831 237.214,-265.83 154,-188 141.463,-176.274 138.415,-156.337 138.071,-141.628"/>
<polygon fill="midnightblue" stroke="midnightblue" points="141.571,-141.673 138.222,-131.621 134.571,-141.567 141.571,-141.673"/>
</g>
<!-- Node25&#45;&gt;Node20 -->
<g id="edge43" class="edge"><title>Node25&#45;&gt;Node20</title>
<path fill="none" stroke="midnightblue" d="M796.164,-280.368C831.965,-261.251 918.153,-215.229 960.979,-192.361"/>
<polygon fill="midnightblue" stroke="midnightblue" points="962.738,-195.389 969.911,-187.591 959.441,-189.214 962.738,-195.389"/>
</g>
<!-- Node25&#45;&gt;Node11 -->
<g id="edge44" class="edge"><title>Node25&#45;&gt;Node11</title>
<path fill="none" stroke="midnightblue" d="M746.25,-280.444C709.482,-271.122 650.554,-256.183 610.378,-245.997"/>
<polygon fill="midnightblue" stroke="midnightblue" points="611.146,-242.581 600.593,-243.516 609.426,-249.367 611.146,-242.581"/>
</g>
<!-- Node25&#45;&gt;Node15 -->
<g id="edge45" class="edge"><title>Node25&#45;&gt;Node15</title>
<path fill="none" stroke="midnightblue" d="M830.766,-287.66C897.298,-282.843 1011.76,-263.349 1065,-188 1084.49,-160.413 1085.62,-138.752 1065,-112 1051.61,-94.6321 999.906,-82.634 956.823,-75.4215"/>
<polygon fill="midnightblue" stroke="midnightblue" points="957.365,-71.9637 946.934,-73.8229 956.248,-78.874 957.365,-71.9637"/>
</g>
<!-- Node25&#45;&gt;Node23 -->
<g id="edge46" class="edge"><title>Node25&#45;&gt;Node23</title>
<path fill="none" stroke="midnightblue" d="M778.003,-280.42C775.97,-271.4 772.86,-256.772 771,-244 766.111,-210.433 787.762,-192.207 764,-168 740.809,-144.375 535.447,-131.273 426.003,-125.912"/>
<polygon fill="midnightblue" stroke="midnightblue" points="425.877,-122.402 415.721,-125.417 425.541,-129.394 425.877,-122.402"/>
</g>
<!-- Node26 -->
<g id="node26" class="node"><title>Node26</title>
<polygon fill="white" stroke="#bfbfbf" points="780.5,-224.5 780.5,-243.5 835.5,-243.5 835.5,-224.5 780.5,-224.5"/>
<text text-anchor="middle" x="808" y="-231.5" font-family="Helvetica,sans-Serif" font-size="10.00">QWidget</text>
</g>
<!-- Node25&#45;&gt;Node26 -->
<g id="edge47" class="edge"><title>Node25&#45;&gt;Node26</title>
<path fill="none" stroke="midnightblue" d="M784.624,-280.083C788.456,-272.691 794.024,-261.953 798.765,-252.811"/>
<polygon fill="midnightblue" stroke="midnightblue" points="801.966,-254.24 803.462,-243.751 795.752,-251.018 801.966,-254.24"/>
</g>
<!-- Node25&#45;&gt;Node12 -->
<g id="edge48" class="edge"><title>Node25&#45;&gt;Node12</title>
<path fill="none" stroke="midnightblue" d="M769.51,-280.423C759.961,-272.074 746.146,-258.545 738,-244 729.954,-229.633 725.316,-211.437 722.77,-197.953"/>
<polygon fill="midnightblue" stroke="midnightblue" points="726.194,-197.209 721.094,-187.923 719.29,-198.363 726.194,-197.209"/>
</g>
<!-- Node27 -->
<g id="node27" class="node"><title>Node27</title>
<polygon fill="white" stroke="#bfbfbf" points="636.5,-224.5 636.5,-243.5 685.5,-243.5 685.5,-224.5 636.5,-224.5"/>
<text text-anchor="middle" x="661" y="-231.5" font-family="Helvetica,sans-Serif" font-size="10.00">QSlider</text>
</g>
<!-- Node25&#45;&gt;Node27 -->
<g id="edge49" class="edge"><title>Node25&#45;&gt;Node27</title>
<path fill="none" stroke="midnightblue" d="M761.144,-280.444C741.734,-271.636 711.27,-257.812 689.035,-247.722"/>
<polygon fill="midnightblue" stroke="midnightblue" points="690.32,-244.462 679.768,-243.516 687.428,-250.836 690.32,-244.462"/>
</g>
<!-- Node25&#45;&gt;Node4 -->
<g id="edge50" class="edge"><title>Node25&#45;&gt;Node4</title>
<path fill="none" stroke="midnightblue" d="M801.483,-280.36C816.392,-273.09 835.111,-261.117 844,-244 851.525,-229.509 848.09,-210.821 843.623,-197.206"/>
<polygon fill="midnightblue" stroke="midnightblue" points="846.793,-195.689 840.01,-187.55 840.237,-198.143 846.793,-195.689"/>
</g>
</g>
</svg>
