<?xml version="1.0" encoding="UTF-8" standalone="no"?>
<!DOCTYPE svg PUBLIC "-//W3C//DTD SVG 1.1//EN"
 "http://www.w3.org/Graphics/SVG/1.1/DTD/svg11.dtd">
<!-- Generated by graphviz version 2.30.1 (20130214.1330)
 -->
<!-- Title: GUI/bin/debug/ui_information.h Pages: 1 -->
<!--zoomable 84 -->
<svg id="main" version="1.1" xmlns="http://www.w3.org/2000/svg" xmlns:xlink="http://www.w3.org/1999/xlink" xml:space="preserve" onload="init(evt)">
        <defs>
                <circle id="rim" cx="0" cy="0" r="7"/>
                <circle id="rim2" cx="0" cy="0" r="3.5"/>
                <g id="zoomPlus">
                        <use xlink:href="#rim" fill="#404040">
                                <set attributeName="fill" to="#808080" begin="zoomplus.mouseover" end="zoomplus.mouseout"/>
                        </use>
                        <path d="M-4,0h8M0,-4v8" fill="none" stroke="white" stroke-width="1.5" pointer-events="none"/>
                </g>
                <g id="zoomMin">
                        <use xlink:href="#rim" fill="#404040">
                                <set attributeName="fill" to="#808080" begin="zoomminus.mouseover" end="zoomminus.mouseout"/>
                        </use>
                        <path d="M-4,0h8" fill="none" stroke="white" stroke-width="1.5" pointer-events="none"/>
                </g>
                <g id="dirArrow">
                        <path fill="none" stroke="white" stroke-width="1.5" d="M0,-3.0v7 M-2.5,-0.5L0,-3.0L2.5,-0.5"/>
                </g>
               <g id="resetDef">
                       <use xlink:href="#rim2" fill="#404040">
                               <set attributeName="fill" to="#808080" begin="reset.mouseover" end="reset.mouseout"/>
                       </use>
               </g>
        </defs>

<script type="text/javascript">
var viewWidth = 1437;
var viewHeight = 84;
var sectionId = 'dynsection-0';
</script>
<script xlink:href="../../svgpan.js"/>
<svg id="graph" class="graph">
<g id="viewport">
<title>GUI/bin/debug/ui_information.h</title>
<polygon fill="white" stroke="white" points="-4,5 -4,-80 1434,-80 1434,5 -4,5"/>
<!-- Node1 -->
<g id="node1" class="node"><title>Node1</title>
<polygon fill="#bfbfbf" stroke="black" points="637.5,-56.5 637.5,-75.5 786.5,-75.5 786.5,-56.5 637.5,-56.5"/>
<text text-anchor="middle" x="712" y="-63.5" font-family="Helvetica,sans-Serif" font-size="10.00">GUI/bin/debug/ui_information.h</text>
</g>
<!-- Node2 -->
<g id="node2" class="node"><title>Node2</title>
<polygon fill="white" stroke="#bfbfbf" points="-0.5,-0.5 -0.5,-19.5 88.5,-19.5 88.5,-0.5 -0.5,-0.5"/>
<text text-anchor="middle" x="44" y="-7.5" font-family="Helvetica,sans-Serif" font-size="10.00">QtCore/QVariant</text>
</g>
<!-- Node1&#45;&gt;Node2 -->
<g id="edge1" class="edge"><title>Node1&#45;&gt;Node2</title>
<path fill="none" stroke="midnightblue" d="M637.465,-61.838C523.48,-56.4949 298.84,-43.9673 98.881,-20.1285"/>
<polygon fill="midnightblue" stroke="midnightblue" points="99.1225,-16.6323 88.7757,-18.9114 98.2855,-23.5821 99.1225,-16.6323"/>
</g>
<!-- Node3 -->
<g id="node3" class="node"><title>Node3</title>
<polygon fill="white" stroke="#bfbfbf" points="106.5,-0.5 106.5,-19.5 207.5,-19.5 207.5,-0.5 106.5,-0.5"/>
<text text-anchor="middle" x="157" y="-7.5" font-family="Helvetica,sans-Serif" font-size="10.00">QtWidgets/QAction</text>
</g>
<!-- Node1&#45;&gt;Node3 -->
<g id="edge2" class="edge"><title>Node1&#45;&gt;Node3</title>
<path fill="none" stroke="midnightblue" d="M637.222,-59.5655C542.256,-52.3581 373.107,-38.5011 217.912,-20.0413"/>
<polygon fill="midnightblue" stroke="midnightblue" points="218.056,-16.5336 207.711,-18.8187 217.223,-23.4839 218.056,-16.5336"/>
</g>
<!-- Node4 -->
<g id="node4" class="node"><title>Node4</title>
<polygon fill="white" stroke="#bfbfbf" points="226,-0.5 226,-19.5 348,-19.5 348,-0.5 226,-0.5"/>
<text text-anchor="middle" x="287" y="-7.5" font-family="Helvetica,sans-Serif" font-size="10.00">QtWidgets/QApplication</text>
</g>
<!-- Node1&#45;&gt;Node4 -->
<g id="edge3" class="edge"><title>Node1&#45;&gt;Node4</title>
<path fill="none" stroke="midnightblue" d="M644.6,-56.4926C575.351,-47.7436 464.126,-33.6685 358.005,-20.1265"/>
<polygon fill="midnightblue" stroke="midnightblue" points="358.445,-16.6544 348.083,-18.86 357.559,-23.5981 358.445,-16.6544"/>
</g>
<!-- Node5 -->
<g id="node5" class="node"><title>Node5</title>
<polygon fill="white" stroke="#bfbfbf" points="366,-0.5 366,-19.5 494,-19.5 494,-0.5 366,-0.5"/>
<text text-anchor="middle" x="430" y="-7.5" font-family="Helvetica,sans-Serif" font-size="10.00">QtWidgets/QButtonGroup</text>
</g>
<!-- Node1&#45;&gt;Node5 -->
<g id="edge4" class="edge"><title>Node1&#45;&gt;Node5</title>
<path fill="none" stroke="midnightblue" d="M667.316,-56.4435C617.71,-46.9444 537.635,-31.611 484.415,-21.4198"/>
<polygon fill="midnightblue" stroke="midnightblue" points="484.955,-17.9597 474.475,-19.5164 483.638,-24.8348 484.955,-17.9597"/>
</g>
<!-- Node6 -->
<g id="node6" class="node"><title>Node6</title>
<polygon fill="white" stroke="#bfbfbf" points="512.5,-0.5 512.5,-19.5 631.5,-19.5 631.5,-0.5 512.5,-0.5"/>
<text text-anchor="middle" x="572" y="-7.5" font-family="Helvetica,sans-Serif" font-size="10.00">QtWidgets/QCheckBox</text>
</g>
<!-- Node1&#45;&gt;Node6 -->
<g id="edge5" class="edge"><title>Node1&#45;&gt;Node6</title>
<path fill="none" stroke="midnightblue" d="M689.817,-56.4435C666.572,-47.4776 629.851,-33.314 603.585,-23.1827"/>
<polygon fill="midnightblue" stroke="midnightblue" points="604.669,-19.8497 594.08,-19.5164 602.15,-26.3807 604.669,-19.8497"/>
</g>
<!-- Node7 -->
<g id="node7" class="node"><title>Node7</title>
<polygon fill="white" stroke="#bfbfbf" points="649.5,-0.5 649.5,-19.5 774.5,-19.5 774.5,-0.5 649.5,-0.5"/>
<text text-anchor="middle" x="712" y="-7.5" font-family="Helvetica,sans-Serif" font-size="10.00">QtWidgets/QHeaderView</text>
</g>
<!-- Node1&#45;&gt;Node7 -->
<g id="edge6" class="edge"><title>Node1&#45;&gt;Node7</title>
<path fill="none" stroke="midnightblue" d="M712,-56.083C712,-49.0059 712,-38.8611 712,-29.9865"/>
<polygon fill="midnightblue" stroke="midnightblue" points="715.5,-29.751 712,-19.7511 708.5,-29.7511 715.5,-29.751"/>
</g>
<!-- Node8 -->
<g id="node8" class="node"><title>Node8</title>
<polygon fill="white" stroke="#bfbfbf" points="792.5,-0.5 792.5,-19.5 889.5,-19.5 889.5,-0.5 792.5,-0.5"/>
<text text-anchor="middle" x="841" y="-7.5" font-family="Helvetica,sans-Serif" font-size="10.00">QtWidgets/QLabel</text>
</g>
<!-- Node1&#45;&gt;Node8 -->
<g id="edge7" class="edge"><title>Node1&#45;&gt;Node8</title>
<path fill="none" stroke="midnightblue" d="M732.44,-56.4435C753.67,-47.5566 787.099,-33.5632 811.255,-23.4514"/>
<polygon fill="midnightblue" stroke="midnightblue" points="812.782,-26.6064 820.655,-19.5164 810.079,-20.1493 812.782,-26.6064"/>
</g>
<!-- Node9 -->
<g id="node9" class="node"><title>Node9</title>
<polygon fill="white" stroke="#bfbfbf" points="907.5,-0.5 907.5,-19.5 1016.5,-19.5 1016.5,-0.5 907.5,-0.5"/>
<text text-anchor="middle" x="962" y="-7.5" font-family="Helvetica,sans-Serif" font-size="10.00">QtWidgets/QLineEdit</text>
</g>
<!-- Node1&#45;&gt;Node9 -->
<g id="edge8" class="edge"><title>Node1&#45;&gt;Node9</title>
<path fill="none" stroke="midnightblue" d="M751.613,-56.4435C795.225,-47.0234 865.4,-31.8656 912.578,-21.6752"/>
<polygon fill="midnightblue" stroke="midnightblue" points="913.536,-25.0489 922.572,-19.5164 912.059,-18.2067 913.536,-25.0489"/>
</g>
<!-- Node10 -->
<g id="node10" class="node"><title>Node10</title>
<polygon fill="white" stroke="#bfbfbf" points="1035,-0.5 1035,-19.5 1163,-19.5 1163,-0.5 1035,-0.5"/>
<text text-anchor="middle" x="1099" y="-7.5" font-family="Helvetica,sans-Serif" font-size="10.00">QtWidgets/QProgressBar</text>
</g>
<!-- Node1&#45;&gt;Node10 -->
<g id="edge9" class="edge"><title>Node1&#45;&gt;Node10</title>
<path fill="none" stroke="midnightblue" d="M773.321,-56.4435C842.531,-46.7864 954.955,-31.0993 1027.94,-20.9157"/>
<polygon fill="midnightblue" stroke="midnightblue" points="1028.55,-24.3649 1037.97,-19.5164 1027.58,-17.4321 1028.55,-24.3649"/>
</g>
<!-- Node11 -->
<g id="node11" class="node"><title>Node11</title>
<polygon fill="white" stroke="#bfbfbf" points="1181.5,-0.5 1181.5,-19.5 1306.5,-19.5 1306.5,-0.5 1181.5,-0.5"/>
<text text-anchor="middle" x="1244" y="-7.5" font-family="Helvetica,sans-Serif" font-size="10.00">QtWidgets/QPushButton</text>
</g>
<!-- Node1&#45;&gt;Node11 -->
<g id="edge10" class="edge"><title>Node1&#45;&gt;Node11</title>
<path fill="none" stroke="midnightblue" d="M786.558,-58.3263C875.462,-50.2288 1028.83,-35.8194 1170.97,-20.0877"/>
<polygon fill="midnightblue" stroke="midnightblue" points="1171.63,-23.5359 1181.18,-18.9528 1170.86,-16.5787 1171.63,-23.5359"/>
</g>
<!-- Node12 -->
<g id="node12" class="node"><title>Node12</title>
<polygon fill="white" stroke="#bfbfbf" points="1325,-0.5 1325,-19.5 1429,-19.5 1429,-0.5 1325,-0.5"/>
<text text-anchor="middle" x="1377" y="-7.5" font-family="Helvetica,sans-Serif" font-size="10.00">QtWidgets/QWidget</text>
</g>
<!-- Node1&#45;&gt;Node12 -->
<g id="edge11" class="edge"><title>Node1&#45;&gt;Node12</title>
<path fill="none" stroke="midnightblue" d="M786.889,-61.0929C901.044,-54.7574 1125.34,-40.8169 1315,-20 1315.1,-19.9889 1315.2,-19.9777 1315.3,-19.9665"/>
<polygon fill="midnightblue" stroke="midnightblue" points="1315.42,-23.4774 1324.94,-18.8258 1314.6,-16.526 1315.42,-23.4774"/>
</g>
</g>
</svg>
        <g id="navigator" transform="translate(0 0)" fill="#404254">
                <rect fill="#f2f5e9" fill-opacity="0.5" stroke="#606060" stroke-width=".5" x="0" y="0" width="60" height="60"/>
                <use id="zoomplus" xlink:href="#zoomPlus" x="17" y="9" onmousedown="handleZoom(evt,'in')"/>
                <use id="zoomminus" xlink:href="#zoomMin" x="42" y="9" onmousedown="handleZoom(evt,'out')"/>
                <use id="reset" xlink:href="#resetDef" x="30" y="36" onmousedown="handleReset()"/>
                <g id="arrowUp" xlink:href="#dirArrow" transform="translate(30 24)" onmousedown="handlePan(0,-1)">
                  <use xlink:href="#rim" fill="#404040">
                        <set attributeName="fill" to="#808080" begin="arrowUp.mouseover" end="arrowUp.mouseout"/>
                  </use>
                  <path fill="none" stroke="white" stroke-width="1.5" d="M0,-3.0v7 M-2.5,-0.5L0,-3.0L2.5,-0.5"/>
                </g>
                <g id="arrowRight" xlink:href="#dirArrow" transform="rotate(90) translate(36 -43)" onmousedown="handlePan(1,0)">
                  <use xlink:href="#rim" fill="#404040">
                        <set attributeName="fill" to="#808080" begin="arrowRight.mouseover" end="arrowRight.mouseout"/>
                  </use>
                  <path fill="none" stroke="white" stroke-width="1.5" d="M0,-3.0v7 M-2.5,-0.5L0,-3.0L2.5,-0.5"/>
                </g>
                <g id="arrowDown" xlink:href="#dirArrow" transform="rotate(180) translate(-30 -48)" onmousedown="handlePan(0,1)">
                  <use xlink:href="#rim" fill="#404040">
                        <set attributeName="fill" to="#808080" begin="arrowDown.mouseover" end="arrowDown.mouseout"/>
                  </use>
                  <path fill="none" stroke="white" stroke-width="1.5" d="M0,-3.0v7 M-2.5,-0.5L0,-3.0L2.5,-0.5"/>
                </g>
                <g id="arrowLeft" xlink:href="#dirArrow" transform="rotate(270) translate(-36 17)" onmousedown="handlePan(-1,0)">
                  <use xlink:href="#rim" fill="#404040">
                        <set attributeName="fill" to="#808080" begin="arrowLeft.mouseover" end="arrowLeft.mouseout"/>
                  </use>
                  <path fill="none" stroke="white" stroke-width="1.5" d="M0,-3.0v7 M-2.5,-0.5L0,-3.0L2.5,-0.5"/>
                </g>
        </g>
        <svg viewBox="0 0 15 15" width="100%" height="30px" preserveAspectRatio="xMaxYMin meet">
         <g id="arrow_out" transform="scale(0.3 0.3)">
          <a xlink:href="bin_2debug_2ui__information_8h__incl_org.svg" target="_base">
           <rect id="button" ry="5" rx="5" y="6" x="6" height="38" width="38"
                fill="#f2f5e9" fill-opacity="0.5" stroke="#606060" stroke-width="1.0"/>
           <path id="arrow"
             d="M 11.500037,31.436501 C 11.940474,20.09759 22.043105,11.32322 32.158766,21.979434 L 37.068811,17.246167 C 37.068811,17.246167 37.088388,32 37.088388,32 L 22.160133,31.978069 C 22.160133,31.978069 26.997745,27.140456 26.997745,27.140456 C 18.528582,18.264221 13.291696,25.230495 11.500037,31.436501 z"
             style="fill:#404040;"/>
          </a>
         </g>
        </svg>
</svg>
