<?xml version="1.0" encoding="UTF-8" standalone="no"?>
<!DOCTYPE svg PUBLIC "-//W3C//DTD SVG 1.1//EN"
 "http://www.w3.org/Graphics/SVG/1.1/DTD/svg11.dtd">
<!-- Generated by graphviz version 2.30.1 (20130214.1330)
 -->
<!-- Title: GUI/resources/clslog.cpp Pages: 1 -->
<svg width="358pt" height="140pt"
 viewBox="0.00 0.00 358.00 140.00" xmlns="http://www.w3.org/2000/svg" xmlns:xlink="http://www.w3.org/1999/xlink">
<g id="graph0" class="graph" transform="scale(1 1) rotate(0) translate(4 136)">
<title>GUI/resources/clslog.cpp</title>
<polygon fill="white" stroke="white" points="-4,5 -4,-136 355,-136 355,5 -4,5"/>
<!-- Node1 -->
<g id="node1" class="node"><title>Node1</title>
<polygon fill="#bfbfbf" stroke="black" points="111,-112.5 111,-131.5 237,-131.5 237,-112.5 111,-112.5"/>
<text text-anchor="middle" x="174" y="-119.5" font-family="Helvetica,sans-Serif" font-size="10.00">GUI/resources/clslog.cpp</text>
</g>
<!-- Node2 -->
<g id="node2" class="node"><title>Node2</title>
<g id="a_node2"><a xlink:href="../../d7/d62/clslog_8h.xhtml" target="_top" xlink:title="clslog.h">
<polygon fill="white" stroke="black" points="149,-56.5 149,-75.5 199,-75.5 199,-56.5 149,-56.5"/>
<text text-anchor="middle" x="174" y="-63.5" font-family="Helvetica,sans-Serif" font-size="10.00">clslog.h</text>
</a>
</g>
</g>
<!-- Node1&#45;&gt;Node2 -->
<g id="edge1" class="edge"><title>Node1&#45;&gt;Node2</title>
<path fill="none" stroke="midnightblue" d="M174,-112.083C174,-105.006 174,-94.8611 174,-85.9865"/>
<polygon fill="midnightblue" stroke="midnightblue" points="177.5,-85.751 174,-75.7511 170.5,-85.7511 177.5,-85.751"/>
</g>
<!-- Node3 -->
<g id="node3" class="node"><title>Node3</title>
<polygon fill="white" stroke="#bfbfbf" points="0,-0.5 0,-19.5 52,-19.5 52,-0.5 0,-0.5"/>
<text text-anchor="middle" x="26" y="-7.5" font-family="Helvetica,sans-Serif" font-size="10.00">QDebug</text>
</g>
<!-- Node2&#45;&gt;Node3 -->
<g id="edge2" class="edge"><title>Node2&#45;&gt;Node3</title>
<path fill="none" stroke="midnightblue" d="M150.549,-56.4435C125.867,-47.4381 86.8147,-33.1891 59.0233,-23.049"/>
<polygon fill="midnightblue" stroke="midnightblue" points="59.9352,-19.6561 49.3413,-19.5164 57.5359,-26.2321 59.9352,-19.6561"/>
</g>
<!-- Node4 -->
<g id="node4" class="node"><title>Node4</title>
<polygon fill="white" stroke="#bfbfbf" points="70.5,-0.5 70.5,-19.5 135.5,-19.5 135.5,-0.5 70.5,-0.5"/>
<text text-anchor="middle" x="103" y="-7.5" font-family="Helvetica,sans-Serif" font-size="10.00">QDateTime</text>
</g>
<!-- Node2&#45;&gt;Node4 -->
<g id="edge3" class="edge"><title>Node2&#45;&gt;Node4</title>
<path fill="none" stroke="midnightblue" d="M162.593,-56.324C151.891,-48.1849 135.659,-35.8395 122.837,-26.0874"/>
<polygon fill="midnightblue" stroke="midnightblue" points="124.693,-23.1018 114.615,-19.8339 120.456,-28.6734 124.693,-23.1018"/>
</g>
<!-- Node5 -->
<g id="node5" class="node"><title>Node5</title>
<polygon fill="white" stroke="#bfbfbf" points="153.5,-0.5 153.5,-19.5 194.5,-19.5 194.5,-0.5 153.5,-0.5"/>
<text text-anchor="middle" x="174" y="-7.5" font-family="Helvetica,sans-Serif" font-size="10.00">string</text>
</g>
<!-- Node2&#45;&gt;Node5 -->
<g id="edge4" class="edge"><title>Node2&#45;&gt;Node5</title>
<path fill="none" stroke="midnightblue" d="M174,-56.083C174,-49.0059 174,-38.8611 174,-29.9865"/>
<polygon fill="midnightblue" stroke="midnightblue" points="177.5,-29.751 174,-19.7511 170.5,-29.7511 177.5,-29.751"/>
</g>
<!-- Node6 -->
<g id="node6" class="node"><title>Node6</title>
<polygon fill="white" stroke="#bfbfbf" points="213,-0.5 213,-19.5 267,-19.5 267,-0.5 213,-0.5"/>
<text text-anchor="middle" x="240" y="-7.5" font-family="Helvetica,sans-Serif" font-size="10.00">iostream</text>
</g>
<!-- Node2&#45;&gt;Node6 -->
<g id="edge5" class="edge"><title>Node2&#45;&gt;Node6</title>
<path fill="none" stroke="midnightblue" d="M184.604,-56.324C194.456,-48.2631 209.351,-36.0765 221.215,-26.3695"/>
<polygon fill="midnightblue" stroke="midnightblue" points="223.68,-28.8752 229.203,-19.8339 219.247,-23.4575 223.68,-28.8752"/>
</g>
<!-- Node7 -->
<g id="node7" class="node"><title>Node7</title>
<polygon fill="white" stroke="#bfbfbf" points="285.5,-0.5 285.5,-19.5 350.5,-19.5 350.5,-0.5 285.5,-0.5"/>
<text text-anchor="middle" x="318" y="-7.5" font-family="Helvetica,sans-Serif" font-size="10.00">QStringList</text>
</g>
<!-- Node2&#45;&gt;Node7 -->
<g id="edge6" class="edge"><title>Node2&#45;&gt;Node7</title>
<path fill="none" stroke="midnightblue" d="M196.817,-56.4435C220.832,-47.4381 258.829,-33.1891 285.869,-23.049"/>
<polygon fill="midnightblue" stroke="midnightblue" points="287.155,-26.3049 295.29,-19.5164 284.697,-19.7506 287.155,-26.3049"/>
</g>
</g>
</svg>
