<?xml version="1.0" encoding="UTF-8" standalone="no"?>
<!DOCTYPE svg PUBLIC "-//W3C//DTD SVG 1.1//EN"
 "http://www.w3.org/Graphics/SVG/1.1/DTD/svg11.dtd">
<!-- Generated by graphviz version 2.30.1 (20130214.1330)
 -->
<!-- Title: GUI/roombagui&#45;build&#45;Desktop_Qt_5_0_1_MSVC2010_32bit&#45;Debug/ui_roomba.h Pages: 1 -->
<svg width="2098pt" height="106pt"
 viewBox="0.00 0.00 2098.00 106.00" xmlns="http://www.w3.org/2000/svg" xmlns:xlink="http://www.w3.org/1999/xlink">
<g id="graph0" class="graph" transform="scale(1 1) rotate(0) translate(4 102)">
<title>GUI/roombagui&#45;build&#45;Desktop_Qt_5_0_1_MSVC2010_32bit&#45;Debug/ui_roomba.h</title>
<polygon fill="white" stroke="white" points="-4,5 -4,-102 2095,-102 2095,5 -4,5"/>
<!-- Node1 -->
<g id="node1" class="node"><title>Node1</title>
<polygon fill="#bfbfbf" stroke="black" points="959,-56.5 959,-97.5 1117,-97.5 1117,-56.5 959,-56.5"/>
<text text-anchor="start" x="967" y="-85.5" font-family="Helvetica,sans-Serif" font-size="10.00">GUI/roombagui&#45;build</text>
<text text-anchor="start" x="967" y="-74.5" font-family="Helvetica,sans-Serif" font-size="10.00">&#45;Desktop_Qt_5_0_1_MSVC2010</text>
<text text-anchor="middle" x="1038" y="-63.5" font-family="Helvetica,sans-Serif" font-size="10.00">_32bit&#45;Debug/ui_roomba.h</text>
</g>
<!-- Node2 -->
<g id="node2" class="node"><title>Node2</title>
<polygon fill="white" stroke="#bfbfbf" points="-0.5,-0.5 -0.5,-19.5 88.5,-19.5 88.5,-0.5 -0.5,-0.5"/>
<text text-anchor="middle" x="44" y="-7.5" font-family="Helvetica,sans-Serif" font-size="10.00">QtCore/QVariant</text>
</g>
<!-- Node1&#45;&gt;Node2 -->
<g id="edge1" class="edge"><title>Node1&#45;&gt;Node2</title>
<path fill="none" stroke="midnightblue" d="M958.746,-74.1924C798.185,-69.8967 422.882,-56.6382 98.8257,-20.0978"/>
<polygon fill="midnightblue" stroke="midnightblue" points="99.1021,-16.6067 88.7707,-18.9546 98.3112,-23.5619 99.1021,-16.6067"/>
</g>
<!-- Node3 -->
<g id="node3" class="node"><title>Node3</title>
<polygon fill="white" stroke="#bfbfbf" points="106.5,-0.5 106.5,-19.5 207.5,-19.5 207.5,-0.5 106.5,-0.5"/>
<text text-anchor="middle" x="157" y="-7.5" font-family="Helvetica,sans-Serif" font-size="10.00">QtWidgets/QAction</text>
</g>
<!-- Node1&#45;&gt;Node3 -->
<g id="edge2" class="edge"><title>Node1&#45;&gt;Node3</title>
<path fill="none" stroke="midnightblue" d="M958.845,-72.7302C813.982,-66.279 496.324,-49.9718 218.002,-20.0163"/>
<polygon fill="midnightblue" stroke="midnightblue" points="218.021,-16.4979 207.702,-18.8995 217.266,-23.4571 218.021,-16.4979"/>
</g>
<!-- Node4 -->
<g id="node4" class="node"><title>Node4</title>
<polygon fill="white" stroke="#bfbfbf" points="226,-0.5 226,-19.5 348,-19.5 348,-0.5 226,-0.5"/>
<text text-anchor="middle" x="287" y="-7.5" font-family="Helvetica,sans-Serif" font-size="10.00">QtWidgets/QApplication</text>
</g>
<!-- Node1&#45;&gt;Node4 -->
<g id="edge3" class="edge"><title>Node1&#45;&gt;Node4</title>
<path fill="none" stroke="midnightblue" d="M958.986,-70.6832C833.818,-61.9991 582.031,-43.4677 358.035,-20.0654"/>
<polygon fill="midnightblue" stroke="midnightblue" points="358.375,-16.5819 348.064,-19.0185 357.644,-23.5436 358.375,-16.5819"/>
</g>
<!-- Node5 -->
<g id="node5" class="node"><title>Node5</title>
<polygon fill="white" stroke="#bfbfbf" points="366,-0.5 366,-19.5 494,-19.5 494,-0.5 366,-0.5"/>
<text text-anchor="middle" x="430" y="-7.5" font-family="Helvetica,sans-Serif" font-size="10.00">QtWidgets/QButtonGroup</text>
</g>
<!-- Node1&#45;&gt;Node5 -->
<g id="edge4" class="edge"><title>Node1&#45;&gt;Node5</title>
<path fill="none" stroke="midnightblue" d="M958.637,-68.1527C856.172,-57.9178 672.052,-39.1773 504.103,-20.1085"/>
<polygon fill="midnightblue" stroke="midnightblue" points="504.418,-16.6218 494.086,-18.9686 503.626,-23.5769 504.418,-16.6218"/>
</g>
<!-- Node6 -->
<g id="node6" class="node"><title>Node6</title>
<polygon fill="white" stroke="#bfbfbf" points="512.5,-0.5 512.5,-19.5 639.5,-19.5 639.5,-0.5 512.5,-0.5"/>
<text text-anchor="middle" x="576" y="-7.5" font-family="Helvetica,sans-Serif" font-size="10.00">QtWidgets/QHBoxLayout</text>
</g>
<!-- Node1&#45;&gt;Node6 -->
<g id="edge5" class="edge"><title>Node1&#45;&gt;Node6</title>
<path fill="none" stroke="midnightblue" d="M958.842,-64.8631C871.002,-52.5047 730.575,-32.7475 646.421,-20.9077"/>
<polygon fill="midnightblue" stroke="midnightblue" points="646.835,-17.4315 636.445,-19.5041 645.859,-24.3633 646.835,-17.4315"/>
</g>
<!-- Node7 -->
<g id="node7" class="node"><title>Node7</title>
<polygon fill="white" stroke="#bfbfbf" points="657.5,-0.5 657.5,-19.5 782.5,-19.5 782.5,-0.5 657.5,-0.5"/>
<text text-anchor="middle" x="720" y="-7.5" font-family="Helvetica,sans-Serif" font-size="10.00">QtWidgets/QHeaderView</text>
</g>
<!-- Node1&#45;&gt;Node7 -->
<g id="edge6" class="edge"><title>Node1&#45;&gt;Node7</title>
<path fill="none" stroke="midnightblue" d="M958.985,-59.8491C900.474,-47.8894 822.425,-31.9358 771.696,-21.5669"/>
<polygon fill="midnightblue" stroke="midnightblue" points="772.115,-18.0801 761.616,-19.5065 770.713,-24.9383 772.115,-18.0801"/>
</g>
<!-- Node8 -->
<g id="node8" class="node"><title>Node8</title>
<polygon fill="white" stroke="#bfbfbf" points="800.5,-0.5 800.5,-19.5 897.5,-19.5 897.5,-0.5 800.5,-0.5"/>
<text text-anchor="middle" x="849" y="-7.5" font-family="Helvetica,sans-Serif" font-size="10.00">QtWidgets/QLabel</text>
</g>
<!-- Node1&#45;&gt;Node8 -->
<g id="edge7" class="edge"><title>Node1&#45;&gt;Node8</title>
<path fill="none" stroke="midnightblue" d="M981.294,-56.4979C949.53,-45.5739 910.946,-32.3043 883.665,-22.9218"/>
<polygon fill="midnightblue" stroke="midnightblue" points="884.753,-19.595 874.159,-19.6525 882.477,-26.2145 884.753,-19.595"/>
</g>
<!-- Node9 -->
<g id="node9" class="node"><title>Node9</title>
<polygon fill="white" stroke="#bfbfbf" points="915.5,-0.5 915.5,-19.5 1024.5,-19.5 1024.5,-0.5 915.5,-0.5"/>
<text text-anchor="middle" x="970" y="-7.5" font-family="Helvetica,sans-Serif" font-size="10.00">QtWidgets/QLineEdit</text>
</g>
<!-- Node1&#45;&gt;Node9 -->
<g id="edge8" class="edge"><title>Node1&#45;&gt;Node9</title>
<path fill="none" stroke="midnightblue" d="M1017.6,-56.4979C1007.67,-47.0113 995.898,-35.7557 986.543,-26.8131"/>
<polygon fill="midnightblue" stroke="midnightblue" points="988.699,-24.0323 979.052,-19.6525 983.862,-29.0924 988.699,-24.0323"/>
</g>
<!-- Node10 -->
<g id="node10" class="node"><title>Node10</title>
<polygon fill="white" stroke="#bfbfbf" points="1042.5,-0.5 1042.5,-19.5 1171.5,-19.5 1171.5,-0.5 1042.5,-0.5"/>
<text text-anchor="middle" x="1107" y="-7.5" font-family="Helvetica,sans-Serif" font-size="10.00">QtWidgets/QMainWindow</text>
</g>
<!-- Node1&#45;&gt;Node10 -->
<g id="edge9" class="edge"><title>Node1&#45;&gt;Node10</title>
<path fill="none" stroke="midnightblue" d="M1058.7,-56.4979C1068.87,-46.9154 1080.96,-35.5281 1090.5,-26.5428"/>
<polygon fill="midnightblue" stroke="midnightblue" points="1092.94,-29.0571 1097.82,-19.6525 1088.14,-23.9618 1092.94,-29.0571"/>
</g>
<!-- Node11 -->
<g id="node11" class="node"><title>Node11</title>
<polygon fill="white" stroke="#bfbfbf" points="1190,-0.5 1190,-19.5 1288,-19.5 1288,-0.5 1190,-0.5"/>
<text text-anchor="middle" x="1239" y="-7.5" font-family="Helvetica,sans-Serif" font-size="10.00">QtWidgets/QMenu</text>
</g>
<!-- Node1&#45;&gt;Node11 -->
<g id="edge10" class="edge"><title>Node1&#45;&gt;Node11</title>
<path fill="none" stroke="midnightblue" d="M1098.31,-56.4979C1132.34,-45.4925 1173.73,-32.1065 1202.78,-22.7128"/>
<polygon fill="midnightblue" stroke="midnightblue" points="1204.07,-25.9743 1212.51,-19.5671 1201.92,-19.3139 1204.07,-25.9743"/>
</g>
<!-- Node12 -->
<g id="node12" class="node"><title>Node12</title>
<polygon fill="white" stroke="#bfbfbf" points="1306.5,-0.5 1306.5,-19.5 1419.5,-19.5 1419.5,-0.5 1306.5,-0.5"/>
<text text-anchor="middle" x="1363" y="-7.5" font-family="Helvetica,sans-Serif" font-size="10.00">QtWidgets/QMenuBar</text>
</g>
<!-- Node1&#45;&gt;Node12 -->
<g id="edge11" class="edge"><title>Node1&#45;&gt;Node12</title>
<path fill="none" stroke="midnightblue" d="M1117.09,-60.1823C1177.16,-48.169 1258.08,-31.9833 1310.4,-21.5192"/>
<polygon fill="midnightblue" stroke="midnightblue" points="1311.35,-24.8988 1320.47,-19.5056 1309.98,-18.0348 1311.35,-24.8988"/>
</g>
<!-- Node13 -->
<g id="node13" class="node"><title>Node13</title>
<polygon fill="white" stroke="#bfbfbf" points="1437.5,-0.5 1437.5,-19.5 1562.5,-19.5 1562.5,-0.5 1437.5,-0.5"/>
<text text-anchor="middle" x="1500" y="-7.5" font-family="Helvetica,sans-Serif" font-size="10.00">QtWidgets/QPushButton</text>
</g>
<!-- Node1&#45;&gt;Node13 -->
<g id="edge12" class="edge"><title>Node1&#45;&gt;Node13</title>
<path fill="none" stroke="midnightblue" d="M1117.16,-64.8631C1205,-52.5047 1345.43,-32.7475 1429.58,-20.9077"/>
<polygon fill="midnightblue" stroke="midnightblue" points="1430.14,-24.3633 1439.56,-19.5041 1429.17,-17.4315 1430.14,-24.3633"/>
</g>
<!-- Node14 -->
<g id="node14" class="node"><title>Node14</title>
<polygon fill="white" stroke="#bfbfbf" points="1580.5,-0.5 1580.5,-19.5 1697.5,-19.5 1697.5,-0.5 1580.5,-0.5"/>
<text text-anchor="middle" x="1639" y="-7.5" font-family="Helvetica,sans-Serif" font-size="10.00">QtWidgets/QStatusBar</text>
</g>
<!-- Node1&#45;&gt;Node14 -->
<g id="edge13" class="edge"><title>Node1&#45;&gt;Node14</title>
<path fill="none" stroke="midnightblue" d="M1117.09,-68.3612C1219.2,-58.3486 1402.66,-39.849 1570.4,-20.0419"/>
<polygon fill="midnightblue" stroke="midnightblue" points="1570.89,-23.5088 1580.41,-18.8567 1570.06,-16.5574 1570.89,-23.5088"/>
</g>
<!-- Node15 -->
<g id="node15" class="node"><title>Node15</title>
<polygon fill="white" stroke="#bfbfbf" points="1715.5,-0.5 1715.5,-19.5 1822.5,-19.5 1822.5,-0.5 1715.5,-0.5"/>
<text text-anchor="middle" x="1769" y="-7.5" font-family="Helvetica,sans-Serif" font-size="10.00">QtWidgets/QToolBar</text>
</g>
<!-- Node1&#45;&gt;Node15 -->
<g id="edge14" class="edge"><title>Node1&#45;&gt;Node15</title>
<path fill="none" stroke="midnightblue" d="M1117.07,-70.8691C1240.36,-62.537 1486.07,-44.601 1705.32,-20.0107"/>
<polygon fill="midnightblue" stroke="midnightblue" points="1705.87,-23.4715 1715.41,-18.8722 1705.08,-16.5156 1705.87,-23.4715"/>
</g>
<!-- Node16 -->
<g id="node16" class="node"><title>Node16</title>
<polygon fill="white" stroke="#bfbfbf" points="1840.5,-0.5 1840.5,-19.5 1967.5,-19.5 1967.5,-0.5 1840.5,-0.5"/>
<text text-anchor="middle" x="1904" y="-7.5" font-family="Helvetica,sans-Serif" font-size="10.00">QtWidgets/QVBoxLayout</text>
</g>
<!-- Node1&#45;&gt;Node16 -->
<g id="edge15" class="edge"><title>Node1&#45;&gt;Node16</title>
<path fill="none" stroke="midnightblue" d="M1117.18,-71.7796C1258.19,-63.9624 1562.31,-45.7419 1830.01,-20.0443"/>
<polygon fill="midnightblue" stroke="midnightblue" points="1830.7,-23.494 1840.32,-19.0493 1830.03,-16.5264 1830.7,-23.494"/>
</g>
<!-- Node17 -->
<g id="node17" class="node"><title>Node17</title>
<polygon fill="white" stroke="#bfbfbf" points="1986,-0.5 1986,-19.5 2090,-19.5 2090,-0.5 1986,-0.5"/>
<text text-anchor="middle" x="2038" y="-7.5" font-family="Helvetica,sans-Serif" font-size="10.00">QtWidgets/QWidget</text>
</g>
<!-- Node1&#45;&gt;Node17 -->
<g id="edge16" class="edge"><title>Node1&#45;&gt;Node17</title>
<path fill="none" stroke="midnightblue" d="M1117.24,-73.5309C1279,-67.9922 1658.72,-52.4407 1976,-20 1976.1,-19.9896 1976.2,-19.9792 1976.3,-19.9688"/>
<polygon fill="midnightblue" stroke="midnightblue" points="1976.4,-23.4803 1985.94,-18.8822 1975.62,-16.5244 1976.4,-23.4803"/>
</g>
</g>
</svg>
