<?xml version="1.0" encoding="UTF-8" standalone="no"?>
<!DOCTYPE svg PUBLIC "-//W3C//DTD SVG 1.1//EN"
 "http://www.w3.org/Graphics/SVG/1.1/DTD/svg11.dtd">
<!-- Generated by graphviz version 2.30.1 (20130214.1330)
 -->
<!-- Title: GUI/roombagui&#45;build&#45;Desktop_Qt_5_0_1_MSVC2010_32bit&#45;Debug/ui_roomba.h Pages: 1 -->
<svg width="1981pt" height="106pt"
 viewBox="0.00 0.00 1981.00 106.00" xmlns="http://www.w3.org/2000/svg" xmlns:xlink="http://www.w3.org/1999/xlink">
<g id="graph0" class="graph" transform="scale(1 1) rotate(0) translate(4 102)">
<title>GUI/roombagui&#45;build&#45;Desktop_Qt_5_0_1_MSVC2010_32bit&#45;Debug/ui_roomba.h</title>
<polygon fill="white" stroke="white" points="-4,5 -4,-102 1978,-102 1978,5 -4,5"/>
<!-- Node1 -->
<g id="node1" class="node"><title>Node1</title>
<polygon fill="#bfbfbf" stroke="black" points="891,-56.5 891,-97.5 1049,-97.5 1049,-56.5 891,-56.5"/>
<text text-anchor="start" x="899" y="-85.5" font-family="Helvetica,sans-Serif" font-size="10.00">GUI/roombagui&#45;build</text>
<text text-anchor="start" x="899" y="-74.5" font-family="Helvetica,sans-Serif" font-size="10.00">&#45;Desktop_Qt_5_0_1_MSVC2010</text>
<text text-anchor="middle" x="970" y="-63.5" font-family="Helvetica,sans-Serif" font-size="10.00">_32bit&#45;Debug/ui_roomba.h</text>
</g>
<!-- Node2 -->
<g id="node2" class="node"><title>Node2</title>
<polygon fill="white" stroke="#bfbfbf" points="-0.5,-0.5 -0.5,-19.5 88.5,-19.5 88.5,-0.5 -0.5,-0.5"/>
<text text-anchor="middle" x="44" y="-7.5" font-family="Helvetica,sans-Serif" font-size="10.00">QtCore/QVariant</text>
</g>
<!-- Node1&#45;&gt;Node2 -->
<g id="edge1" class="edge"><title>Node1&#45;&gt;Node2</title>
<path fill="none" stroke="midnightblue" d="M890.903,-73.6855C739.114,-68.6407 396.331,-54.3342 98.8895,-20.1137"/>
<polygon fill="midnightblue" stroke="midnightblue" points="99.1091,-16.6158 88.7723,-18.9399 98.3023,-23.5691 99.1091,-16.6158"/>
</g>
<!-- Node3 -->
<g id="node3" class="node"><title>Node3</title>
<polygon fill="white" stroke="#bfbfbf" points="106.5,-0.5 106.5,-19.5 207.5,-19.5 207.5,-0.5 106.5,-0.5"/>
<text text-anchor="middle" x="157" y="-7.5" font-family="Helvetica,sans-Serif" font-size="10.00">QtWidgets/QAction</text>
</g>
<!-- Node1&#45;&gt;Node3 -->
<g id="edge2" class="edge"><title>Node1&#45;&gt;Node3</title>
<path fill="none" stroke="midnightblue" d="M890.953,-72.0677C755.409,-64.8961 469.74,-47.911 217.784,-20.0019"/>
<polygon fill="midnightblue" stroke="midnightblue" points="218.03,-16.5078 207.704,-18.8775 217.254,-23.4647 218.03,-16.5078"/>
</g>
<!-- Node4 -->
<g id="node4" class="node"><title>Node4</title>
<polygon fill="white" stroke="#bfbfbf" points="226,-0.5 226,-19.5 348,-19.5 348,-0.5 226,-0.5"/>
<text text-anchor="middle" x="287" y="-7.5" font-family="Helvetica,sans-Serif" font-size="10.00">QtWidgets/QApplication</text>
</g>
<!-- Node1&#45;&gt;Node4 -->
<g id="edge3" class="edge"><title>Node1&#45;&gt;Node4</title>
<path fill="none" stroke="midnightblue" d="M890.555,-69.6812C775.53,-60.3233 555.662,-41.6517 358.056,-20.0808"/>
<polygon fill="midnightblue" stroke="midnightblue" points="358.389,-16.5965 348.068,-18.9858 357.627,-23.5548 358.389,-16.5965"/>
</g>
<!-- Node5 -->
<g id="node5" class="node"><title>Node5</title>
<polygon fill="white" stroke="#bfbfbf" points="366,-0.5 366,-19.5 494,-19.5 494,-0.5 366,-0.5"/>
<text text-anchor="middle" x="430" y="-7.5" font-family="Helvetica,sans-Serif" font-size="10.00">QtWidgets/QButtonGroup</text>
</g>
<!-- Node1&#45;&gt;Node5 -->
<g id="edge4" class="edge"><title>Node1&#45;&gt;Node5</title>
<path fill="none" stroke="midnightblue" d="M890.665,-66.568C799.922,-55.7613 646.578,-37.4433 504.315,-20.1568"/>
<polygon fill="midnightblue" stroke="midnightblue" points="504.442,-16.6465 494.093,-18.9141 503.597,-23.5953 504.442,-16.6465"/>
</g>
<!-- Node6 -->
<g id="node6" class="node"><title>Node6</title>
<polygon fill="white" stroke="#bfbfbf" points="512.5,-0.5 512.5,-19.5 639.5,-19.5 639.5,-0.5 512.5,-0.5"/>
<text text-anchor="middle" x="576" y="-7.5" font-family="Helvetica,sans-Serif" font-size="10.00">QtWidgets/QHBoxLayout</text>
</g>
<!-- Node1&#45;&gt;Node6 -->
<g id="edge5" class="edge"><title>Node1&#45;&gt;Node6</title>
<path fill="none" stroke="midnightblue" d="M890.742,-62.9245C816.146,-50.618 705.972,-32.4421 637.713,-21.1811"/>
<polygon fill="midnightblue" stroke="midnightblue" points="637.979,-17.6777 627.543,-19.5032 636.839,-24.5844 637.979,-17.6777"/>
</g>
<!-- Node7 -->
<g id="node7" class="node"><title>Node7</title>
<polygon fill="white" stroke="#bfbfbf" points="657.5,-0.5 657.5,-19.5 782.5,-19.5 782.5,-0.5 657.5,-0.5"/>
<text text-anchor="middle" x="720" y="-7.5" font-family="Helvetica,sans-Serif" font-size="10.00">QtWidgets/QHeaderView</text>
</g>
<!-- Node1&#45;&gt;Node7 -->
<g id="edge6" class="edge"><title>Node1&#45;&gt;Node7</title>
<path fill="none" stroke="midnightblue" d="M894.992,-56.4979C851.739,-45.2522 798.926,-31.5208 762.705,-22.1033"/>
<polygon fill="midnightblue" stroke="midnightblue" points="763.509,-18.6961 752.95,-19.5671 761.748,-25.4709 763.509,-18.6961"/>
</g>
<!-- Node8 -->
<g id="node8" class="node"><title>Node8</title>
<polygon fill="white" stroke="#bfbfbf" points="800.5,-0.5 800.5,-19.5 897.5,-19.5 897.5,-0.5 800.5,-0.5"/>
<text text-anchor="middle" x="849" y="-7.5" font-family="Helvetica,sans-Serif" font-size="10.00">QtWidgets/QLabel</text>
</g>
<!-- Node1&#45;&gt;Node8 -->
<g id="edge7" class="edge"><title>Node1&#45;&gt;Node8</title>
<path fill="none" stroke="midnightblue" d="M933.696,-56.4979C914.431,-46.1488 891.247,-33.6946 874.009,-24.4346"/>
<polygon fill="midnightblue" stroke="midnightblue" points="875.573,-21.3016 865.107,-19.6525 872.26,-27.4681 875.573,-21.3016"/>
</g>
<!-- Node9 -->
<g id="node9" class="node"><title>Node9</title>
<polygon fill="white" stroke="#bfbfbf" points="915.5,-0.5 915.5,-19.5 1024.5,-19.5 1024.5,-0.5 915.5,-0.5"/>
<text text-anchor="middle" x="970" y="-7.5" font-family="Helvetica,sans-Serif" font-size="10.00">QtWidgets/QLineEdit</text>
</g>
<!-- Node1&#45;&gt;Node9 -->
<g id="edge8" class="edge"><title>Node1&#45;&gt;Node9</title>
<path fill="none" stroke="midnightblue" d="M970,-56.4979C970,-48.0653 970,-38.2351 970,-29.874"/>
<polygon fill="midnightblue" stroke="midnightblue" points="973.5,-29.6525 970,-19.6525 966.5,-29.6525 973.5,-29.6525"/>
</g>
<!-- Node10 -->
<g id="node10" class="node"><title>Node10</title>
<polygon fill="white" stroke="#bfbfbf" points="1042.5,-0.5 1042.5,-19.5 1171.5,-19.5 1171.5,-0.5 1042.5,-0.5"/>
<text text-anchor="middle" x="1107" y="-7.5" font-family="Helvetica,sans-Serif" font-size="10.00">QtWidgets/QMainWindow</text>
</g>
<!-- Node1&#45;&gt;Node10 -->
<g id="edge9" class="edge"><title>Node1&#45;&gt;Node10</title>
<path fill="none" stroke="midnightblue" d="M1011.1,-56.4979C1033.22,-46.0051 1059.9,-33.3482 1079.49,-24.0507"/>
<polygon fill="midnightblue" stroke="midnightblue" points="1081.23,-27.1012 1088.76,-19.6525 1078.23,-20.7769 1081.23,-27.1012"/>
</g>
<!-- Node11 -->
<g id="node11" class="node"><title>Node11</title>
<polygon fill="white" stroke="#bfbfbf" points="1189.5,-0.5 1189.5,-19.5 1302.5,-19.5 1302.5,-0.5 1189.5,-0.5"/>
<text text-anchor="middle" x="1246" y="-7.5" font-family="Helvetica,sans-Serif" font-size="10.00">QtWidgets/QMenuBar</text>
</g>
<!-- Node1&#45;&gt;Node11 -->
<g id="edge10" class="edge"><title>Node1&#45;&gt;Node11</title>
<path fill="none" stroke="midnightblue" d="M1049.09,-57.3736C1097.84,-45.8919 1158.67,-31.5661 1199.72,-21.8994"/>
<polygon fill="midnightblue" stroke="midnightblue" points="1200.78,-25.2459 1209.71,-19.5467 1199.17,-18.4323 1200.78,-25.2459"/>
</g>
<!-- Node12 -->
<g id="node12" class="node"><title>Node12</title>
<polygon fill="white" stroke="#bfbfbf" points="1320.5,-0.5 1320.5,-19.5 1445.5,-19.5 1445.5,-0.5 1320.5,-0.5"/>
<text text-anchor="middle" x="1383" y="-7.5" font-family="Helvetica,sans-Serif" font-size="10.00">QtWidgets/QPushButton</text>
</g>
<!-- Node1&#45;&gt;Node12 -->
<g id="edge11" class="edge"><title>Node1&#45;&gt;Node12</title>
<path fill="none" stroke="midnightblue" d="M1049.14,-63.5443C1127.55,-51.2042 1246.14,-32.5389 1318.86,-21.0946"/>
<polygon fill="midnightblue" stroke="midnightblue" points="1319.47,-24.5414 1328.81,-19.5291 1318.38,-17.6265 1319.47,-24.5414"/>
</g>
<!-- Node13 -->
<g id="node13" class="node"><title>Node13</title>
<polygon fill="white" stroke="#bfbfbf" points="1463.5,-0.5 1463.5,-19.5 1580.5,-19.5 1580.5,-0.5 1463.5,-0.5"/>
<text text-anchor="middle" x="1522" y="-7.5" font-family="Helvetica,sans-Serif" font-size="10.00">QtWidgets/QStatusBar</text>
</g>
<!-- Node1&#45;&gt;Node13 -->
<g id="edge12" class="edge"><title>Node1&#45;&gt;Node13</title>
<path fill="none" stroke="midnightblue" d="M1049.27,-67.2314C1143.02,-56.7707 1304.07,-38.5154 1453.15,-20.088"/>
<polygon fill="midnightblue" stroke="midnightblue" points="1453.91,-23.5204 1463.4,-18.8176 1453.05,-16.5735 1453.91,-23.5204"/>
</g>
<!-- Node14 -->
<g id="node14" class="node"><title>Node14</title>
<polygon fill="white" stroke="#bfbfbf" points="1598.5,-0.5 1598.5,-19.5 1705.5,-19.5 1705.5,-0.5 1598.5,-0.5"/>
<text text-anchor="middle" x="1652" y="-7.5" font-family="Helvetica,sans-Serif" font-size="10.00">QtWidgets/QToolBar</text>
</g>
<!-- Node1&#45;&gt;Node14 -->
<g id="edge13" class="edge"><title>Node1&#45;&gt;Node14</title>
<path fill="none" stroke="midnightblue" d="M1049.28,-70.1457C1165.21,-61.2923 1387.99,-43.1685 1588.28,-20.0245"/>
<polygon fill="midnightblue" stroke="midnightblue" points="1588.88,-23.479 1598.41,-18.8481 1588.07,-16.5258 1588.88,-23.479"/>
</g>
<!-- Node15 -->
<g id="node15" class="node"><title>Node15</title>
<polygon fill="white" stroke="#bfbfbf" points="1723.5,-0.5 1723.5,-19.5 1850.5,-19.5 1850.5,-0.5 1723.5,-0.5"/>
<text text-anchor="middle" x="1787" y="-7.5" font-family="Helvetica,sans-Serif" font-size="10.00">QtWidgets/QVBoxLayout</text>
</g>
<!-- Node1&#45;&gt;Node15 -->
<g id="edge14" class="edge"><title>Node1&#45;&gt;Node15</title>
<path fill="none" stroke="midnightblue" d="M1049.11,-71.2849C1183.37,-63.0098 1464.61,-44.493 1713.37,-20.0162"/>
<polygon fill="midnightblue" stroke="midnightblue" points="1713.71,-23.4992 1723.32,-19.032 1713.02,-16.5332 1713.71,-23.4992"/>
</g>
<!-- Node16 -->
<g id="node16" class="node"><title>Node16</title>
<polygon fill="white" stroke="#bfbfbf" points="1869,-0.5 1869,-19.5 1973,-19.5 1973,-0.5 1869,-0.5"/>
<text text-anchor="middle" x="1921" y="-7.5" font-family="Helvetica,sans-Serif" font-size="10.00">QtWidgets/QWidget</text>
</g>
<!-- Node1&#45;&gt;Node16 -->
<g id="edge15" class="edge"><title>Node1&#45;&gt;Node16</title>
<path fill="none" stroke="midnightblue" d="M1049.27,-73.1696C1204.84,-67.1362 1560.98,-50.9655 1859,-20 1859.1,-19.9895 1859.2,-19.9789 1859.3,-19.9683"/>
<polygon fill="midnightblue" stroke="midnightblue" points="1859.4,-23.4797 1868.94,-18.8697 1858.61,-16.5247 1859.4,-23.4797"/>
</g>
</g>
</svg>
