<?xml version="1.0" encoding="UTF-8" standalone="no"?>
<!DOCTYPE svg PUBLIC "-//W3C//DTD SVG 1.1//EN"
 "http://www.w3.org/Graphics/SVG/1.1/DTD/svg11.dtd">
<!-- Generated by graphviz version 2.30.1 (20130214.1330)
 -->
<!-- Title: shared::events::eventLogging Pages: 1 -->
<!--zoomable 510 -->
<svg id="main" version="1.1" xmlns="http://www.w3.org/2000/svg" xmlns:xlink="http://www.w3.org/1999/xlink" xml:space="preserve" onload="init(evt)">
        <defs>
                <circle id="rim" cx="0" cy="0" r="7"/>
                <circle id="rim2" cx="0" cy="0" r="3.5"/>
                <g id="zoomPlus">
                        <use xlink:href="#rim" fill="#404040">
                                <set attributeName="fill" to="#808080" begin="zoomplus.mouseover" end="zoomplus.mouseout"/>
                        </use>
                        <path d="M-4,0h8M0,-4v8" fill="none" stroke="white" stroke-width="1.5" pointer-events="none"/>
                </g>
                <g id="zoomMin">
                        <use xlink:href="#rim" fill="#404040">
                                <set attributeName="fill" to="#808080" begin="zoomminus.mouseover" end="zoomminus.mouseout"/>
                        </use>
                        <path d="M-4,0h8" fill="none" stroke="white" stroke-width="1.5" pointer-events="none"/>
                </g>
                <g id="dirArrow">
                        <path fill="none" stroke="white" stroke-width="1.5" d="M0,-3.0v7 M-2.5,-0.5L0,-3.0L2.5,-0.5"/>
                </g>
               <g id="resetDef">
                       <use xlink:href="#rim2" fill="#404040">
                               <set attributeName="fill" to="#808080" begin="reset.mouseover" end="reset.mouseout"/>
                       </use>
               </g>
        </defs>

<script type="text/javascript">
var viewWidth = 150;
var viewHeight = 510;
var sectionId = 'dynsection-1';
</script>
<script xlink:href="../../svgpan.js"/>
<svg id="graph" class="graph">
<g id="viewport">
<title>shared::events::eventLogging</title>
<polygon fill="white" stroke="white" points="-4,5 -4,-506 147,-506 147,5 -4,5"/>
<!-- Node1 -->
<g id="node1" class="node"><title>Node1</title>
<polygon fill="#bfbfbf" stroke="black" points="0,-0.5 0,-79.5 142,-79.5 142,-0.5 0,-0.5"/>
<text text-anchor="middle" x="71" y="-67.5" font-family="Helvetica,sans-Serif" font-size="10.00">shared::events::eventLogging</text>
<polyline fill="none" stroke="black" points="0,-60.5 142,-60.5 "/>
<text text-anchor="middle" x="71" y="-48.5" font-family="Helvetica,sans-Serif" font-size="10.00"> </text>
<polyline fill="none" stroke="black" points="0,-41.5 142,-41.5 "/>
<text text-anchor="start" x="8" y="-29.5" font-family="Helvetica,sans-Serif" font-size="10.00">+ eventLogging()</text>
<text text-anchor="start" x="8" y="-18.5" font-family="Helvetica,sans-Serif" font-size="10.00">+ eventLogging()</text>
<text text-anchor="start" x="8" y="-7.5" font-family="Helvetica,sans-Serif" font-size="10.00">+ getEntries()</text>
</g>
<!-- Node2 -->
<g id="node2" class="node"><title>Node2</title>
<g id="a_node2"><a xlink:href="../../db/d8b/classshared_1_1events_1_1cls_event.xhtml" target="_top" xlink:title="The main event class.">
<polygon fill="white" stroke="black" points="10,-118.5 10,-285.5 132,-285.5 132,-118.5 10,-118.5"/>
<text text-anchor="middle" x="71" y="-273.5" font-family="Helvetica,sans-Serif" font-size="10.00">shared::events::clsEvent</text>
<polyline fill="none" stroke="black" points="10,-266.5 132,-266.5 "/>
<text text-anchor="start" x="18" y="-254.5" font-family="Helvetica,sans-Serif" font-size="10.00"># data</text>
<text text-anchor="start" x="18" y="-243.5" font-family="Helvetica,sans-Serif" font-size="10.00"># ourType</text>
<text text-anchor="start" x="18" y="-232.5" font-family="Helvetica,sans-Serif" font-size="10.00"># timeOfEvent</text>
<polyline fill="none" stroke="black" points="10,-225.5 132,-225.5 "/>
<text text-anchor="start" x="18" y="-213.5" font-family="Helvetica,sans-Serif" font-size="10.00">+ clsEvent()</text>
<text text-anchor="start" x="18" y="-202.5" font-family="Helvetica,sans-Serif" font-size="10.00">+ clsEvent()</text>
<text text-anchor="start" x="18" y="-191.5" font-family="Helvetica,sans-Serif" font-size="10.00">+ addToData()</text>
<text text-anchor="start" x="18" y="-180.5" font-family="Helvetica,sans-Serif" font-size="10.00">+ toVariant()</text>
<text text-anchor="start" x="18" y="-169.5" font-family="Helvetica,sans-Serif" font-size="10.00">+ getData()</text>
<text text-anchor="start" x="18" y="-158.5" font-family="Helvetica,sans-Serif" font-size="10.00">+ getType()</text>
<text text-anchor="start" x="18" y="-147.5" font-family="Helvetica,sans-Serif" font-size="10.00">+ getTime()</text>
<text text-anchor="start" x="18" y="-136.5" font-family="Helvetica,sans-Serif" font-size="10.00"># getEventType()</text>
<text text-anchor="start" x="18" y="-125.5" font-family="Helvetica,sans-Serif" font-size="10.00"># setEventType()</text>
</a>
</g>
</g>
<!-- Node2&#45;&gt;Node1 -->
<g id="edge1" class="edge"><title>Node2&#45;&gt;Node1</title>
<path fill="none" stroke="midnightblue" d="M71,-108.166C71,-98.2115 71,-88.529 71,-79.7571"/>
<polygon fill="none" stroke="midnightblue" points="67.5001,-108.188 71,-118.188 74.5001,-108.188 67.5001,-108.188"/>
</g>
<!-- Node3 -->
<g id="node3" class="node"><title>Node3</title>
<g id="a_node3"><a xlink:href="../../da/d64/class_k4_u_1_1cls_log.xhtml" target="_top" xlink:title="Custom logging class.">
<polygon fill="white" stroke="black" points="31.5,-334.5 31.5,-501.5 110.5,-501.5 110.5,-334.5 31.5,-334.5"/>
<text text-anchor="middle" x="71" y="-489.5" font-family="Helvetica,sans-Serif" font-size="10.00">K4U::clsLog</text>
<polyline fill="none" stroke="black" points="31.5,-482.5 110.5,-482.5 "/>
<text text-anchor="middle" x="71" y="-470.5" font-family="Helvetica,sans-Serif" font-size="10.00"> </text>
<polyline fill="none" stroke="black" points="31.5,-463.5 110.5,-463.5 "/>
<text text-anchor="start" x="39.5" y="-451.5" font-family="Helvetica,sans-Serif" font-size="10.00">+ clsLog()</text>
<text text-anchor="start" x="39.5" y="-440.5" font-family="Helvetica,sans-Serif" font-size="10.00">+ operator&lt;&lt;()</text>
<text text-anchor="start" x="39.5" y="-429.5" font-family="Helvetica,sans-Serif" font-size="10.00">+ operator&lt;&lt;()</text>
<text text-anchor="start" x="39.5" y="-418.5" font-family="Helvetica,sans-Serif" font-size="10.00">+ operator&lt;&lt;()</text>
<text text-anchor="start" x="39.5" y="-407.5" font-family="Helvetica,sans-Serif" font-size="10.00">+ operator&lt;&lt;()</text>
<text text-anchor="start" x="39.5" y="-396.5" font-family="Helvetica,sans-Serif" font-size="10.00">+ operator&lt;&lt;()</text>
<text text-anchor="start" x="39.5" y="-385.5" font-family="Helvetica,sans-Serif" font-size="10.00">+ operator&lt;&lt;()</text>
<text text-anchor="start" x="39.5" y="-374.5" font-family="Helvetica,sans-Serif" font-size="10.00">+ operator&lt;&lt;()</text>
<text text-anchor="start" x="39.5" y="-363.5" font-family="Helvetica,sans-Serif" font-size="10.00">+ operator&lt;&lt;()</text>
<text text-anchor="start" x="39.5" y="-352.5" font-family="Helvetica,sans-Serif" font-size="10.00">+ operator&lt;&lt;()</text>
<text text-anchor="start" x="39.5" y="-341.5" font-family="Helvetica,sans-Serif" font-size="10.00">and 6 more...</text>
</a>
</g>
</g>
<!-- Node3&#45;&gt;Node2 -->
<g id="edge2" class="edge"><title>Node3&#45;&gt;Node2</title>
<path fill="none" stroke="#404040" d="M71,-334.262C71,-322.265 71,-309.839 71,-297.63"/>
<polygon fill="none" stroke="#404040" points="71.0001,-297.518 67,-291.518 71,-285.518 75,-291.518 71.0001,-297.518"/>
<text text-anchor="middle" x="82" y="-307.5" font-family="Helvetica,sans-Serif" font-size="10.00"> #log</text>
</g>
</g>
</svg>
        <g id="navigator" transform="translate(0 0)" fill="#404254">
                <rect fill="#f2f5e9" fill-opacity="0.5" stroke="#606060" stroke-width=".5" x="0" y="0" width="60" height="60"/>
                <use id="zoomplus" xlink:href="#zoomPlus" x="17" y="9" onmousedown="handleZoom(evt,'in')"/>
                <use id="zoomminus" xlink:href="#zoomMin" x="42" y="9" onmousedown="handleZoom(evt,'out')"/>
                <use id="reset" xlink:href="#resetDef" x="30" y="36" onmousedown="handleReset()"/>
                <g id="arrowUp" xlink:href="#dirArrow" transform="translate(30 24)" onmousedown="handlePan(0,-1)">
                  <use xlink:href="#rim" fill="#404040">
                        <set attributeName="fill" to="#808080" begin="arrowUp.mouseover" end="arrowUp.mouseout"/>
                  </use>
                  <path fill="none" stroke="white" stroke-width="1.5" d="M0,-3.0v7 M-2.5,-0.5L0,-3.0L2.5,-0.5"/>
                </g>
                <g id="arrowRight" xlink:href="#dirArrow" transform="rotate(90) translate(36 -43)" onmousedown="handlePan(1,0)">
                  <use xlink:href="#rim" fill="#404040">
                        <set attributeName="fill" to="#808080" begin="arrowRight.mouseover" end="arrowRight.mouseout"/>
                  </use>
                  <path fill="none" stroke="white" stroke-width="1.5" d="M0,-3.0v7 M-2.5,-0.5L0,-3.0L2.5,-0.5"/>
                </g>
                <g id="arrowDown" xlink:href="#dirArrow" transform="rotate(180) translate(-30 -48)" onmousedown="handlePan(0,1)">
                  <use xlink:href="#rim" fill="#404040">
                        <set attributeName="fill" to="#808080" begin="arrowDown.mouseover" end="arrowDown.mouseout"/>
                  </use>
                  <path fill="none" stroke="white" stroke-width="1.5" d="M0,-3.0v7 M-2.5,-0.5L0,-3.0L2.5,-0.5"/>
                </g>
                <g id="arrowLeft" xlink:href="#dirArrow" transform="rotate(270) translate(-36 17)" onmousedown="handlePan(-1,0)">
                  <use xlink:href="#rim" fill="#404040">
                        <set attributeName="fill" to="#808080" begin="arrowLeft.mouseover" end="arrowLeft.mouseout"/>
                  </use>
                  <path fill="none" stroke="white" stroke-width="1.5" d="M0,-3.0v7 M-2.5,-0.5L0,-3.0L2.5,-0.5"/>
                </g>
        </g>
        <svg viewBox="0 0 15 15" width="100%" height="30px" preserveAspectRatio="xMaxYMin meet">
         <g id="arrow_out" transform="scale(0.3 0.3)">
          <a xlink:href="classshared_1_1events_1_1event_logging__coll__graph_org.svg" target="_base">
           <rect id="button" ry="5" rx="5" y="6" x="6" height="38" width="38"
                fill="#f2f5e9" fill-opacity="0.5" stroke="#606060" stroke-width="1.0"/>
           <path id="arrow"
             d="M 11.500037,31.436501 C 11.940474,20.09759 22.043105,11.32322 32.158766,21.979434 L 37.068811,17.246167 C 37.068811,17.246167 37.088388,32 37.088388,32 L 22.160133,31.978069 C 22.160133,31.978069 26.997745,27.140456 26.997745,27.140456 C 18.528582,18.264221 13.291696,25.230495 11.500037,31.436501 z"
             style="fill:#404040;"/>
          </a>
         </g>
        </svg>
</svg>
