<?xml version="1.0" encoding="UTF-8" standalone="no"?>
<!DOCTYPE svg PUBLIC "-//W3C//DTD SVG 1.1//EN"
 "http://www.w3.org/Graphics/SVG/1.1/DTD/svg11.dtd">
<!-- Generated by graphviz version 2.30.1 (20130214.1330)
 -->
<!-- Title: GUI/Gui&#45;RoombaV1.0/mytimer.cpp Pages: 1 -->
<svg width="122pt" height="152pt"
 viewBox="0.00 0.00 122.00 152.00" xmlns="http://www.w3.org/2000/svg" xmlns:xlink="http://www.w3.org/1999/xlink">
<g id="graph0" class="graph" transform="scale(1 1) rotate(0) translate(4 148)">
<title>GUI/Gui&#45;RoombaV1.0/mytimer.cpp</title>
<polygon fill="white" stroke="white" points="-4,5 -4,-148 119,-148 119,5 -4,5"/>
<!-- Node1 -->
<g id="node1" class="node"><title>Node1</title>
<polygon fill="#bfbfbf" stroke="black" points="4,-113 4,-143 114,-143 114,-113 4,-113"/>
<text text-anchor="start" x="12" y="-131" font-family="Helvetica,sans-Serif" font-size="10.00">GUI/Gui&#45;RoombaV1.0</text>
<text text-anchor="middle" x="59" y="-120" font-family="Helvetica,sans-Serif" font-size="10.00">/mytimer.cpp</text>
</g>
<!-- Node2 -->
<g id="node2" class="node"><title>Node2</title>
<g id="a_node2"><a xlink:href="../../df/dd0/_gui-_roomba_v1_80_2mytimer_8h.xhtml" target="_top" xlink:title="mytimer.h">
<polygon fill="white" stroke="black" points="0,-56.5 0,-75.5 60,-75.5 60,-56.5 0,-56.5"/>
<text text-anchor="middle" x="30" y="-63.5" font-family="Helvetica,sans-Serif" font-size="10.00">mytimer.h</text>
</a>
</g>
</g>
<!-- Node1&#45;&gt;Node2 -->
<g id="edge1" class="edge"><title>Node1&#45;&gt;Node2</title>
<path fill="none" stroke="midnightblue" d="M52.1274,-112.781C48.0871,-104.422 42.9424,-93.7773 38.6306,-84.8565"/>
<polygon fill="midnightblue" stroke="midnightblue" points="41.7227,-83.2109 34.2198,-75.7305 35.4203,-86.2571 41.7227,-83.2109"/>
</g>
<!-- Node3 -->
<g id="node3" class="node"><title>Node3</title>
<polygon fill="white" stroke="#bfbfbf" points="35.5,-0.5 35.5,-19.5 82.5,-19.5 82.5,-0.5 35.5,-0.5"/>
<text text-anchor="middle" x="59" y="-7.5" font-family="Helvetica,sans-Serif" font-size="10.00">QtCore</text>
</g>
<!-- Node1&#45;&gt;Node3 -->
<g id="edge3" class="edge"><title>Node1&#45;&gt;Node3</title>
<path fill="none" stroke="midnightblue" d="M63.0809,-112.887C66.7237,-98.5828 71.1733,-75.798 69,-56 68.0274,-47.1398 66.0083,-37.4716 64.0374,-29.3755"/>
<polygon fill="midnightblue" stroke="midnightblue" points="67.3829,-28.333 61.4824,-19.5332 60.6074,-30.0919 67.3829,-28.333"/>
</g>
<!-- Node2&#45;&gt;Node3 -->
<g id="edge2" class="edge"><title>Node2&#45;&gt;Node3</title>
<path fill="none" stroke="midnightblue" d="M34.7888,-56.083C38.7584,-48.6913 44.5251,-37.9533 49.4348,-28.8111"/>
<polygon fill="midnightblue" stroke="midnightblue" points="52.6525,-30.217 54.3003,-19.7511 46.4855,-26.9051 52.6525,-30.217"/>
</g>
</g>
</svg>
