<?xml version="1.0" encoding="UTF-8" standalone="no"?>
<!DOCTYPE svg PUBLIC "-//W3C//DTD SVG 1.1//EN"
 "http://www.w3.org/Graphics/SVG/1.1/DTD/svg11.dtd">
<!-- Generated by graphviz version 2.30.1 (20130214.1330)
 -->
<!-- Title: Hoofdprogramma Pages: 1 -->
<svg width="216pt" height="148pt"
 viewBox="0.00 0.00 216.00 148.00" xmlns="http://www.w3.org/2000/svg" xmlns:xlink="http://www.w3.org/1999/xlink">
<g id="graph0" class="graph" transform="scale(1 1) rotate(0) translate(4 144)">
<title>Hoofdprogramma</title>
<polygon fill="white" stroke="white" points="-4,5 -4,-144 213,-144 213,5 -4,5"/>
<g id="clust1" class="cluster"><title>clusterdir_3c35434c1fdd3b49f1262f4a4bc629e8</title>
<g id="a_clust1"><a xlink:href="dir_3c35434c1fdd3b49f1262f4a4bc629e8.xhtml" target="_top">
<polygon fill="#eeeeff" stroke="black" points="8,-8 8,-132 200,-132 200,-8 8,-8"/>
</a>
</g>
</g>
<!-- dir_3c35434c1fdd3b49f1262f4a4bc629e8 -->
<g id="node1" class="node"><title>dir_3c35434c1fdd3b49f1262f4a4bc629e8</title>
<text text-anchor="middle" x="147" y="-103.5" font-family="Helvetica,sans-Serif" font-size="10.00">Hoofdprogramma</text>
</g>
<!-- dir_b651f124b104a7d2c730c7a5f67e1c7a -->
<g id="node2" class="node"><title>dir_b651f124b104a7d2c730c7a5f67e1c7a</title>
<g id="a_node2"><a xlink:href="dir_b651f124b104a7d2c730c7a5f67e1c7a.xhtml" target="_top" xlink:title="include">
<polygon fill="white" stroke="black" points="77,-52 23,-52 23,-16 77,-16 77,-52"/>
<text text-anchor="middle" x="50" y="-31.5" font-family="Helvetica,sans-Serif" font-size="10.00">include</text>
</a>
</g>
</g>
<!-- dir_006907cc7934051ccae931870c595c88 -->
<g id="node3" class="node"><title>dir_006907cc7934051ccae931870c595c88</title>
<g id="a_node3"><a xlink:href="dir_006907cc7934051ccae931870c595c88.xhtml" target="_top" xlink:title="ourProgram">
<polygon fill="white" stroke="red" points="83.25,-124 16.75,-124 16.75,-88 83.25,-88 83.25,-124"/>
<text text-anchor="middle" x="50" y="-103.5" font-family="Helvetica,sans-Serif" font-size="10.00">ourProgram</text>
</a>
</g>
</g>
<!-- dir_006907cc7934051ccae931870c595c88&#45;&gt;dir_b651f124b104a7d2c730c7a5f67e1c7a -->
<g id="edge1" class="edge"><title>dir_006907cc7934051ccae931870c595c88&#45;&gt;dir_b651f124b104a7d2c730c7a5f67e1c7a</title>
<path fill="none" stroke="black" d="M50,-87.6966C50,-79.9827 50,-70.7125 50,-62.1124"/>
<polygon fill="black" stroke="black" points="53.5001,-62.1043 50,-52.1043 46.5001,-62.1044 53.5001,-62.1043"/>
<g id="a_edge1&#45;headlabel"><a xlink:href="dir_000002_000001.xhtml" target="_top" xlink:title="1">
<text text-anchor="middle" x="56.3393" y="-63.199" font-family="Helvetica,sans-Serif" font-size="10.00">1</text>
</a>
</g>
</g>
</g>
</svg>
