<?xml version="1.0" encoding="UTF-8" standalone="no"?>
<!DOCTYPE svg PUBLIC "-//W3C//DTD SVG 1.1//EN"
 "http://www.w3.org/Graphics/SVG/1.1/DTD/svg11.dtd">
<!-- Generated by graphviz version 2.30.1 (20130214.1330)
 -->
<!-- Title: Hoofdprogramma/ourProgram/src Pages: 1 -->
<svg width="172pt" height="183pt"
 viewBox="0.00 0.00 172.00 183.00" xmlns="http://www.w3.org/2000/svg" xmlns:xlink="http://www.w3.org/1999/xlink">
<g id="graph0" class="graph" transform="scale(1 1) rotate(0) translate(4 179)">
<title>Hoofdprogramma/ourProgram/src</title>
<polygon fill="white" stroke="white" points="-4,5 -4,-179 169,-179 169,5 -4,5"/>
<g id="clust1" class="cluster"><title>clusterdir_006907cc7934051ccae931870c595c88</title>
<g id="a_clust1"><a xlink:href="dir_006907cc7934051ccae931870c595c88.xhtml" target="_top" xlink:title="ourProgram">
<polygon fill="#ddddee" stroke="black" points="8,-8 8,-167 102,-167 102,-8 8,-8"/>
<text text-anchor="middle" x="55" y="-155" font-family="Helvetica,sans-Serif" font-size="10.00">ourProgram</text>
</a>
</g>
</g>
<g id="clust2" class="cluster"><title>clusterdir_c1d2a9c665ffbf5658567705c451b12a</title>
<g id="a_clust2"><a xlink:href="dir_c1d2a9c665ffbf5658567705c451b12a.xhtml" target="_top">
<polygon fill="#eeeeff" stroke="black" points="16,-16 16,-140 94,-140 94,-16 16,-16"/>
</a>
</g>
</g>
<!-- dir_c1d2a9c665ffbf5658567705c451b12a -->
<g id="node1" class="node"><title>dir_c1d2a9c665ffbf5658567705c451b12a</title>
<text text-anchor="middle" x="57" y="-111.5" font-family="Helvetica,sans-Serif" font-size="10.00">src</text>
</g>
<!-- dir_b651f124b104a7d2c730c7a5f67e1c7a -->
<g id="node3" class="node"><title>dir_b651f124b104a7d2c730c7a5f67e1c7a</title>
<g id="a_node3"><a xlink:href="dir_b651f124b104a7d2c730c7a5f67e1c7a.xhtml" target="_top" xlink:title="include">
<polygon fill="none" stroke="black" points="164,-60 110,-60 110,-24 164,-24 164,-60"/>
<text text-anchor="middle" x="137" y="-39.5" font-family="Helvetica,sans-Serif" font-size="10.00">include</text>
</a>
</g>
</g>
<!-- dir_c1d2a9c665ffbf5658567705c451b12a&#45;&gt;dir_b651f124b104a7d2c730c7a5f67e1c7a -->
<g id="edge1" class="edge"><title>dir_c1d2a9c665ffbf5658567705c451b12a&#45;&gt;dir_b651f124b104a7d2c730c7a5f67e1c7a</title>
<path fill="none" stroke="black" d="M76.7753,-95.6966C86.7537,-86.9655 99.0109,-76.2405 109.857,-66.7503"/>
<polygon fill="black" stroke="black" points="112.231,-69.3234 117.452,-60.1043 107.622,-64.0554 112.231,-69.3234"/>
<g id="a_edge1&#45;headlabel"><a xlink:href="dir_000003_000001.xhtml" target="_top" xlink:title="1">
<text text-anchor="middle" x="111.396" y="-71.3272" font-family="Helvetica,sans-Serif" font-size="10.00">1</text>
</a>
</g>
</g>
<!-- dir_9910911f00a5d3a782681f3f9547e911 -->
<g id="node2" class="node"><title>dir_9910911f00a5d3a782681f3f9547e911</title>
<g id="a_node2"><a xlink:href="dir_9910911f00a5d3a782681f3f9547e911.xhtml" target="_top" xlink:title="RTSystem">
<polygon fill="white" stroke="black" points="86,-60 24,-60 24,-24 86,-24 86,-60"/>
<text text-anchor="middle" x="55" y="-39.5" font-family="Helvetica,sans-Serif" font-size="10.00">RTSystem</text>
</a>
</g>
</g>
<!-- dir_c1d2a9c665ffbf5658567705c451b12a&#45;&gt;dir_9910911f00a5d3a782681f3f9547e911 -->
<g id="edge2" class="edge"><title>dir_c1d2a9c665ffbf5658567705c451b12a&#45;&gt;dir_9910911f00a5d3a782681f3f9547e911</title>
<path fill="none" stroke="black" d="M56.5056,-95.6966C56.2852,-87.9827 56.0204,-78.7125 55.7746,-70.1124"/>
<polygon fill="black" stroke="black" points="59.273,-70.0003 55.4887,-60.1043 52.2758,-70.2002 59.273,-70.0003"/>
<g id="a_edge2&#45;headlabel"><a xlink:href="dir_000003_000004.xhtml" target="_top" xlink:title="18">
<text text-anchor="middle" x="62.2136" y="-71.0124" font-family="Helvetica,sans-Serif" font-size="10.00">18</text>
</a>
</g>
</g>
</g>
</svg>
