<?xml version="1.0" encoding="UTF-8" standalone="no"?>
<!DOCTYPE svg PUBLIC "-//W3C//DTD SVG 1.1//EN"
 "http://www.w3.org/Graphics/SVG/1.1/DTD/svg11.dtd">
<!-- Generated by graphviz version 2.30.1 (20130214.1330)
 -->
<!-- Title: Hoofdprogramma/ourProgram Pages: 1 -->
<svg width="196pt" height="159pt"
 viewBox="0.00 0.00 196.00 159.00" xmlns="http://www.w3.org/2000/svg" xmlns:xlink="http://www.w3.org/1999/xlink">
<g id="graph0" class="graph" transform="scale(1 1) rotate(0) translate(4 155)">
<title>Hoofdprogramma/ourProgram</title>
<polygon fill="white" stroke="white" points="-4,5 -4,-155 193,-155 193,5 -4,5"/>
<g id="clust1" class="cluster"><title>clusterdir_3c35434c1fdd3b49f1262f4a4bc629e8</title>
<g id="a_clust1"><a xlink:href="dir_3c35434c1fdd3b49f1262f4a4bc629e8.xhtml" target="_top" xlink:title="Hoofdprogramma">
<polygon fill="#ddddee" stroke="black" points="8,-56 8,-143 180,-143 180,-56 8,-56"/>
<text text-anchor="middle" x="94" y="-131" font-family="Helvetica,sans-Serif" font-size="10.00">Hoofdprogramma</text>
</a>
</g>
</g>
<g id="clust2" class="cluster"><title>clusterdir_006907cc7934051ccae931870c595c88</title>
<g id="a_clust2"><a xlink:href="dir_006907cc7934051ccae931870c595c88.xhtml" target="_top">
<polygon fill="#eeeeff" stroke="black" points="16,-64 16,-116 172,-116 172,-64 16,-64"/>
</a>
</g>
</g>
<!-- dir_006907cc7934051ccae931870c595c88 -->
<g id="node1" class="node"><title>dir_006907cc7934051ccae931870c595c88</title>
<text text-anchor="middle" x="130" y="-87.5" font-family="Helvetica,sans-Serif" font-size="10.00">ourProgram</text>
</g>
<!-- dir_c1d2a9c665ffbf5658567705c451b12a -->
<g id="node2" class="node"><title>dir_c1d2a9c665ffbf5658567705c451b12a</title>
<g id="a_node2"><a xlink:href="dir_c1d2a9c665ffbf5658567705c451b12a.xhtml" target="_top" xlink:title="src">
<polygon fill="white" stroke="red" points="78,-108 24,-108 24,-72 78,-72 78,-108"/>
<text text-anchor="middle" x="51" y="-87.5" font-family="Helvetica,sans-Serif" font-size="10.00">src</text>
</a>
</g>
</g>
<!-- dir_b651f124b104a7d2c730c7a5f67e1c7a -->
<g id="node3" class="node"><title>dir_b651f124b104a7d2c730c7a5f67e1c7a</title>
<g id="a_node3"><a xlink:href="dir_b651f124b104a7d2c730c7a5f67e1c7a.xhtml" target="_top" xlink:title="include">
<polygon fill="none" stroke="black" points="78,-36 24,-36 24,-0 78,-0 78,-36"/>
<text text-anchor="middle" x="51" y="-15.5" font-family="Helvetica,sans-Serif" font-size="10.00">include</text>
</a>
</g>
</g>
<!-- dir_c1d2a9c665ffbf5658567705c451b12a&#45;&gt;dir_b651f124b104a7d2c730c7a5f67e1c7a -->
<g id="edge1" class="edge"><title>dir_c1d2a9c665ffbf5658567705c451b12a&#45;&gt;dir_b651f124b104a7d2c730c7a5f67e1c7a</title>
<path fill="none" stroke="black" d="M51,-71.6966C51,-63.9827 51,-54.7125 51,-46.1124"/>
<polygon fill="black" stroke="black" points="54.5001,-46.1043 51,-36.1043 47.5001,-46.1044 54.5001,-46.1043"/>
<g id="a_edge1&#45;headlabel"><a xlink:href="dir_000003_000001.xhtml" target="_top" xlink:title="1">
<text text-anchor="middle" x="57.3393" y="-47.199" font-family="Helvetica,sans-Serif" font-size="10.00">1</text>
</a>
</g>
</g>
</g>
</svg>
