<?xml version="1.0" encoding="UTF-8" standalone="no"?>
<!DOCTYPE svg PUBLIC "-//W3C//DTD SVG 1.1//EN"
 "http://www.w3.org/Graphics/SVG/1.1/DTD/svg11.dtd">
<!-- Generated by graphviz version 2.30.1 (20130214.1330)
 -->
<!-- Title: Graphical Class Hierarchy Pages: 1 -->
<svg width="206pt" height="191pt"
 viewBox="0.00 0.00 206.00 191.00" xmlns="http://www.w3.org/2000/svg" xmlns:xlink="http://www.w3.org/1999/xlink">
<g id="graph0" class="graph" transform="scale(1 1) rotate(0) translate(4 187)">
<title>Graphical Class Hierarchy</title>
<polygon fill="white" stroke="white" points="-4,5 -4,-187 203,-187 203,5 -4,5"/>
<!-- Node1 -->
<g id="node1" class="node"><title>Node1</title>
<polygon fill="white" stroke="#bfbfbf" points="0,-76.5 0,-95.5 52,-95.5 52,-76.5 0,-76.5"/>
<text text-anchor="middle" x="26" y="-83.5" font-family="Helvetica,sans-Serif" font-size="10.00">RTActor</text>
</g>
<!-- Node2 -->
<g id="node2" class="node"><title>Node2</title>
<g id="a_node2"><a xlink:href="d9/d92/classjson_translate_capsule___actor.xhtml" target="_top" xlink:title="jsonTranslateCapsule\l_Actor">
<polygon fill="white" stroke="black" points="88,-153 88,-183 198,-183 198,-153 88,-153"/>
<text text-anchor="start" x="96" y="-171" font-family="Helvetica,sans-Serif" font-size="10.00">jsonTranslateCapsule</text>
<text text-anchor="middle" x="143" y="-160" font-family="Helvetica,sans-Serif" font-size="10.00">_Actor</text>
</a>
</g>
</g>
<!-- Node1&#45;&gt;Node2 -->
<g id="edge1" class="edge"><title>Node1&#45;&gt;Node2</title>
<path fill="none" stroke="midnightblue" d="M42.5832,-103.239C54.2417,-115.433 71.036,-131.579 88,-143 93.3989,-146.635 99.4109,-149.995 105.407,-152.995"/>
<polygon fill="midnightblue" stroke="midnightblue" points="45.0978,-100.804 35.7133,-95.8865 39.983,-105.583 45.0978,-100.804"/>
</g>
<!-- Node3 -->
<g id="node3" class="node"><title>Node3</title>
<g id="a_node3"><a xlink:href="da/de2/classmain_capsule___actor.xhtml" target="_top" xlink:title="mainCapsule_Actor">
<polygon fill="white" stroke="black" points="92.5,-114.5 92.5,-133.5 193.5,-133.5 193.5,-114.5 92.5,-114.5"/>
<text text-anchor="middle" x="143" y="-121.5" font-family="Helvetica,sans-Serif" font-size="10.00">mainCapsule_Actor</text>
</a>
</g>
</g>
<!-- Node1&#45;&gt;Node3 -->
<g id="edge2" class="edge"><title>Node1&#45;&gt;Node3</title>
<path fill="none" stroke="midnightblue" d="M62.0026,-97.5661C78.3817,-102.978 97.6524,-109.346 113.175,-114.475"/>
<polygon fill="midnightblue" stroke="midnightblue" points="62.8304,-94.1536 52.2372,-94.3393 60.6342,-100.8 62.8304,-94.1536"/>
</g>
<!-- Node4 -->
<g id="node4" class="node"><title>Node4</title>
<g id="a_node4"><a xlink:href="d5/de4/classtcp_capsule___actor.xhtml" target="_top" xlink:title="tcpCapsule_Actor">
<polygon fill="white" stroke="black" points="96,-76.5 96,-95.5 190,-95.5 190,-76.5 96,-76.5"/>
<text text-anchor="middle" x="143" y="-83.5" font-family="Helvetica,sans-Serif" font-size="10.00">tcpCapsule_Actor</text>
</a>
</g>
</g>
<!-- Node1&#45;&gt;Node4 -->
<g id="edge3" class="edge"><title>Node1&#45;&gt;Node4</title>
<path fill="none" stroke="midnightblue" d="M62.3849,-86C72.9937,-86 84.7875,-86 95.9769,-86"/>
<polygon fill="midnightblue" stroke="midnightblue" points="62.2373,-82.5001 52.2372,-86 62.2372,-89.5001 62.2373,-82.5001"/>
</g>
<!-- Node5 -->
<g id="node5" class="node"><title>Node5</title>
<g id="a_node5"><a xlink:href="d8/d7f/classtcp_top_capsule___actor.xhtml" target="_top" xlink:title="tcpTopCapsule_Actor">
<polygon fill="white" stroke="black" points="88,-38.5 88,-57.5 198,-57.5 198,-38.5 88,-38.5"/>
<text text-anchor="middle" x="143" y="-45.5" font-family="Helvetica,sans-Serif" font-size="10.00">tcpTopCapsule_Actor</text>
</a>
</g>
</g>
<!-- Node1&#45;&gt;Node5 -->
<g id="edge4" class="edge"><title>Node1&#45;&gt;Node5</title>
<path fill="none" stroke="midnightblue" d="M62.0026,-74.4339C78.3817,-69.0217 97.6524,-62.654 113.175,-57.5246"/>
<polygon fill="midnightblue" stroke="midnightblue" points="60.6342,-71.1999 52.2372,-77.6607 62.8304,-77.8464 60.6342,-71.1999"/>
</g>
<!-- Node6 -->
<g id="node6" class="node"><title>Node6</title>
<g id="a_node6"><a xlink:href="d4/dcc/classtop_cap___actor.xhtml" target="_top" xlink:title="topCap_Actor">
<polygon fill="white" stroke="black" points="105,-0.5 105,-19.5 181,-19.5 181,-0.5 105,-0.5"/>
<text text-anchor="middle" x="143" y="-7.5" font-family="Helvetica,sans-Serif" font-size="10.00">topCap_Actor</text>
</a>
</g>
</g>
<!-- Node1&#45;&gt;Node6 -->
<g id="edge5" class="edge"><title>Node1&#45;&gt;Node6</title>
<path fill="none" stroke="midnightblue" d="M41.8669,-68.697C53.3816,-56.2088 70.3081,-39.7237 88,-29 94.1193,-25.2909 101.068,-22.1652 107.895,-19.5882"/>
<polygon fill="midnightblue" stroke="midnightblue" points="39.1896,-66.4403 35.128,-76.2257 44.4054,-71.1089 39.1896,-66.4403"/>
</g>
</g>
</svg>
