<?xml version="1.0" encoding="UTF-8" standalone="no"?>
<!DOCTYPE svg PUBLIC "-//W3C//DTD SVG 1.1//EN"
 "http://www.w3.org/Graphics/SVG/1.1/DTD/svg11.dtd">
<!-- Generated by graphviz version 2.30.1 (20130214.1330)
 -->
<!-- Title: Graphical Class Hierarchy Pages: 1 -->
<svg width="212pt" height="66pt"
 viewBox="0.00 0.00 212.00 66.00" xmlns="http://www.w3.org/2000/svg" xmlns:xlink="http://www.w3.org/1999/xlink">
<g id="graph0" class="graph" transform="scale(1 1) rotate(0) translate(4 62)">
<title>Graphical Class Hierarchy</title>
<polygon fill="white" stroke="white" points="-4,5 -4,-62 209,-62 209,5 -4,5"/>
<!-- Node1 -->
<g id="node1" class="node"><title>Node1</title>
<g id="a_node1"><a xlink:href="d8/d03/class_json_1_1_writer.xhtml" target="_top" xlink:title="Abstract class for writers.">
<polygon fill="white" stroke="black" points="0.5,-19.5 0.5,-38.5 69.5,-38.5 69.5,-19.5 0.5,-19.5"/>
<text text-anchor="middle" x="35" y="-26.5" font-family="Helvetica,sans-Serif" font-size="10.00">Json::Writer</text>
</a>
</g>
</g>
<!-- Node2 -->
<g id="node2" class="node"><title>Node2</title>
<g id="a_node2"><a xlink:href="d8/d1b/class_json_1_1_fast_writer.xhtml" target="_top" xlink:title="Outputs a Value in JSON format without formatting (not human friendly).">
<polygon fill="white" stroke="black" points="110.5,-38.5 110.5,-57.5 199.5,-57.5 199.5,-38.5 110.5,-38.5"/>
<text text-anchor="middle" x="155" y="-45.5" font-family="Helvetica,sans-Serif" font-size="10.00">Json::FastWriter</text>
</a>
</g>
</g>
<!-- Node1&#45;&gt;Node2 -->
<g id="edge1" class="edge"><title>Node1&#45;&gt;Node2</title>
<path fill="none" stroke="midnightblue" d="M79.9392,-36.0749C89.9195,-37.682 100.516,-39.3882 110.479,-40.9924"/>
<polygon fill="midnightblue" stroke="midnightblue" points="80.2433,-32.5789 69.8141,-34.4446 79.1305,-39.4899 80.2433,-32.5789"/>
</g>
<!-- Node3 -->
<g id="node3" class="node"><title>Node3</title>
<g id="a_node3"><a xlink:href="d7/d16/class_json_1_1_styled_writer.xhtml" target="_top" xlink:title="Writes a Value in JSON format in a human friendly way.">
<polygon fill="white" stroke="black" points="106.5,-0.5 106.5,-19.5 203.5,-19.5 203.5,-0.5 106.5,-0.5"/>
<text text-anchor="middle" x="155" y="-7.5" font-family="Helvetica,sans-Serif" font-size="10.00">Json::StyledWriter</text>
</a>
</g>
</g>
<!-- Node1&#45;&gt;Node3 -->
<g id="edge2" class="edge"><title>Node1&#45;&gt;Node3</title>
<path fill="none" stroke="midnightblue" d="M79.9459,-21.924C88.4783,-20.5501 97.4608,-19.1038 106.113,-17.7107"/>
<polygon fill="midnightblue" stroke="midnightblue" points="79.1305,-18.5101 69.8141,-23.5554 80.2433,-25.4211 79.1305,-18.5101"/>
</g>
</g>
</svg>
