<?xml version="1.0" encoding="UTF-8" standalone="no"?>
<!DOCTYPE svg PUBLIC "-//W3C//DTD SVG 1.1//EN"
 "http://www.w3.org/Graphics/SVG/1.1/DTD/svg11.dtd">
<!-- Generated by graphviz version 2.30.1 (20130214.1330)
 -->
<!-- Title: Graphical Class Hierarchy Pages: 1 -->
<svg width="250pt" height="142pt"
 viewBox="0.00 0.00 250.00 142.00" xmlns="http://www.w3.org/2000/svg" xmlns:xlink="http://www.w3.org/1999/xlink">
<g id="graph0" class="graph" transform="scale(1 1) rotate(0) translate(4 138)">
<title>Graphical Class Hierarchy</title>
<polygon fill="white" stroke="white" points="-4,5 -4,-138 247,-138 247,5 -4,5"/>
<!-- Node1 -->
<g id="node1" class="node"><title>Node1</title>
<polygon fill="white" stroke="#bfbfbf" points="0.5,-57.5 0.5,-76.5 85.5,-76.5 85.5,-57.5 0.5,-57.5"/>
<text text-anchor="middle" x="43" y="-64.5" font-family="Helvetica,sans-Serif" font-size="10.00">RTRootProtocol</text>
</g>
<!-- Node2 -->
<g id="node2" class="node"><title>Node2</title>
<g id="a_node2"><a xlink:href="da/d9e/classjson_protocol_1_1_base.xhtml" target="_top" xlink:title="jsonProtocol::Base">
<polygon fill="white" stroke="black" points="132.5,-114.5 132.5,-133.5 231.5,-133.5 231.5,-114.5 132.5,-114.5"/>
<text text-anchor="middle" x="182" y="-121.5" font-family="Helvetica,sans-Serif" font-size="10.00">jsonProtocol::Base</text>
</a>
</g>
</g>
<!-- Node1&#45;&gt;Node2 -->
<g id="edge1" class="edge"><title>Node1&#45;&gt;Node2</title>
<path fill="none" stroke="midnightblue" d="M71.0535,-81.3549C85.8696,-88.9157 104.69,-98.0369 122,-105 130.486,-108.414 139.841,-111.655 148.553,-114.462"/>
<polygon fill="midnightblue" stroke="midnightblue" points="72.442,-78.1328 61.9515,-76.6501 69.2277,-84.3512 72.442,-78.1328"/>
</g>
<!-- Node3 -->
<g id="node3" class="node"><title>Node3</title>
<g id="a_node3"><a xlink:href="de/d4e/classjson_protocol_1_1_conjugate.xhtml" target="_top" xlink:title="jsonProtocol::Conjugate">
<polygon fill="white" stroke="black" points="122,-76.5 122,-95.5 242,-95.5 242,-76.5 122,-76.5"/>
<text text-anchor="middle" x="182" y="-83.5" font-family="Helvetica,sans-Serif" font-size="10.00">jsonProtocol::Conjugate</text>
</a>
</g>
</g>
<!-- Node1&#45;&gt;Node3 -->
<g id="edge2" class="edge"><title>Node1&#45;&gt;Node3</title>
<path fill="none" stroke="midnightblue" d="M95.927,-74.2016C104.365,-75.3718 113.16,-76.5915 121.756,-77.7837"/>
<polygon fill="midnightblue" stroke="midnightblue" points="96.235,-70.7108 85.8489,-72.8039 95.2733,-77.6445 96.235,-70.7108"/>
</g>
<!-- Node4 -->
<g id="node4" class="node"><title>Node4</title>
<g id="a_node4"><a xlink:href="d3/df1/classtcp_protocol_1_1_base.xhtml" target="_top" xlink:title="tcpProtocol::Base">
<polygon fill="white" stroke="black" points="134.5,-38.5 134.5,-57.5 229.5,-57.5 229.5,-38.5 134.5,-38.5"/>
<text text-anchor="middle" x="182" y="-45.5" font-family="Helvetica,sans-Serif" font-size="10.00">tcpProtocol::Base</text>
</a>
</g>
</g>
<!-- Node1&#45;&gt;Node4 -->
<g id="edge3" class="edge"><title>Node1&#45;&gt;Node4</title>
<path fill="none" stroke="midnightblue" d="M96.1279,-59.7706C108.628,-58.037 121.901,-56.1962 134.146,-54.498"/>
<polygon fill="midnightblue" stroke="midnightblue" points="95.2733,-56.3555 85.8489,-61.1961 96.235,-63.2892 95.2733,-56.3555"/>
</g>
<!-- Node5 -->
<g id="node5" class="node"><title>Node5</title>
<g id="a_node5"><a xlink:href="d8/d77/classtcp_protocol_1_1_conjugate.xhtml" target="_top" xlink:title="tcpProtocol::Conjugate">
<polygon fill="white" stroke="black" points="124,-0.5 124,-19.5 240,-19.5 240,-0.5 124,-0.5"/>
<text text-anchor="middle" x="182" y="-7.5" font-family="Helvetica,sans-Serif" font-size="10.00">tcpProtocol::Conjugate</text>
</a>
</g>
</g>
<!-- Node1&#45;&gt;Node5 -->
<g id="edge4" class="edge"><title>Node1&#45;&gt;Node5</title>
<path fill="none" stroke="midnightblue" d="M71.0535,-52.6451C85.8696,-45.0843 104.69,-35.9631 122,-29 130.486,-25.5865 139.841,-22.3451 148.553,-19.5379"/>
<polygon fill="midnightblue" stroke="midnightblue" points="69.2277,-49.6488 61.9515,-57.3499 72.442,-55.8672 69.2277,-49.6488"/>
</g>
</g>
</svg>
