<?xml version="1.0" encoding="UTF-8" standalone="no"?>
<!DOCTYPE svg PUBLIC "-//W3C//DTD SVG 1.1//EN"
 "http://www.w3.org/Graphics/SVG/1.1/DTD/svg11.dtd">
<!-- Generated by graphviz version 2.30.1 (20130214.1330)
 -->
<!-- Title: Graphical Class Hierarchy Pages: 1 -->
<svg width="288pt" height="66pt"
 viewBox="0.00 0.00 288.00 66.00" xmlns="http://www.w3.org/2000/svg" xmlns:xlink="http://www.w3.org/1999/xlink">
<g id="graph0" class="graph" transform="scale(1 1) rotate(0) translate(4 62)">
<title>Graphical Class Hierarchy</title>
<polygon fill="white" stroke="white" points="-4,5 -4,-62 285,-62 285,5 -4,5"/>
<!-- Node1 -->
<g id="node1" class="node"><title>Node1</title>
<g id="a_node1"><a xlink:href="df/d7a/class_json_1_1_value_iterator_base.xhtml" target="_top" xlink:title="base class for Value iterators.">
<polygon fill="white" stroke="black" points="0,-19.5 0,-38.5 120,-38.5 120,-19.5 0,-19.5"/>
<text text-anchor="middle" x="60" y="-26.5" font-family="Helvetica,sans-Serif" font-size="10.00">Json::ValueIteratorBase</text>
</a>
</g>
</g>
<!-- Node2 -->
<g id="node2" class="node"><title>Node2</title>
<g id="a_node2"><a xlink:href="d1/d4a/class_json_1_1_value_const_iterator.xhtml" target="_top" xlink:title="const iterator for object and array value.">
<polygon fill="white" stroke="black" points="156.5,-38.5 156.5,-57.5 279.5,-57.5 279.5,-38.5 156.5,-38.5"/>
<text text-anchor="middle" x="218" y="-45.5" font-family="Helvetica,sans-Serif" font-size="10.00">Json::ValueConstIterator</text>
</a>
</g>
</g>
<!-- Node1&#45;&gt;Node2 -->
<g id="edge1" class="edge"><title>Node1&#45;&gt;Node2</title>
<path fill="none" stroke="midnightblue" d="M130.492,-37.4638C139.148,-38.518 147.945,-39.5894 156.45,-40.6253"/>
<polygon fill="midnightblue" stroke="midnightblue" points="130.772,-33.9721 120.422,-36.2373 129.925,-40.9207 130.772,-33.9721"/>
</g>
<!-- Node3 -->
<g id="node3" class="node"><title>Node3</title>
<g id="a_node3"><a xlink:href="d5/dda/class_json_1_1_value_iterator.xhtml" target="_top" xlink:title="Iterator for object and array value.">
<polygon fill="white" stroke="black" points="169,-0.5 169,-19.5 267,-19.5 267,-0.5 169,-0.5"/>
<text text-anchor="middle" x="218" y="-7.5" font-family="Helvetica,sans-Serif" font-size="10.00">Json::ValueIterator</text>
</a>
</g>
</g>
<!-- Node1&#45;&gt;Node3 -->
<g id="edge2" class="edge"><title>Node1&#45;&gt;Node3</title>
<path fill="none" stroke="midnightblue" d="M130.677,-20.5136C143.581,-18.942 156.793,-17.3329 168.877,-15.8611"/>
<polygon fill="midnightblue" stroke="midnightblue" points="129.925,-17.0793 120.422,-21.7627 130.772,-24.0279 129.925,-17.0793"/>
</g>
</g>
</svg>
