<?xml version="1.0" encoding="UTF-8" standalone="no"?>
<!DOCTYPE svg PUBLIC "-//W3C//DTD SVG 1.1//EN"
 "http://www.w3.org/Graphics/SVG/1.1/DTD/svg11.dtd">
<!-- Generated by graphviz version 2.30.1 (20130214.1330)
 -->
<!-- Title: GUI/roombagui&#45;build&#45;Desktop_Qt_5_0_1_MSVC2010_32bit&#45;Debug Pages: 1 -->
<svg width="412pt" height="159pt"
 viewBox="0.00 0.00 412.00 159.00" xmlns="http://www.w3.org/2000/svg" xmlns:xlink="http://www.w3.org/1999/xlink">
<g id="graph0" class="graph" transform="scale(1 1) rotate(0) translate(4 155)">
<title>GUI/roombagui&#45;build&#45;Desktop_Qt_5_0_1_MSVC2010_32bit&#45;Debug</title>
<polygon fill="white" stroke="white" points="-4,5 -4,-155 409,-155 409,5 -4,5"/>
<g id="clust1" class="cluster"><title>clusterdir_171b764decf33d63a7df2fab4f4bc6d8</title>
<g id="a_clust1"><a xlink:href="dir_171b764decf33d63a7df2fab4f4bc6d8.xhtml" target="_top" xlink:title="GUI">
<polygon fill="#ddddee" stroke="black" points="8,-56 8,-143 396,-143 396,-56 8,-56"/>
<text text-anchor="middle" x="202" y="-131" font-family="Helvetica,sans-Serif" font-size="10.00">GUI</text>
</a>
</g>
</g>
<g id="clust2" class="cluster"><title>clusterdir_40131678f6d36998d4bc60f4aa59337c</title>
<g id="a_clust2"><a xlink:href="dir_40131678f6d36998d4bc60f4aa59337c.xhtml" target="_top">
<polygon fill="#eeeeff" stroke="black" points="16,-64 16,-116 388,-116 388,-64 16,-64"/>
</a>
</g>
</g>
<!-- dir_40131678f6d36998d4bc60f4aa59337c -->
<g id="node1" class="node"><title>dir_40131678f6d36998d4bc60f4aa59337c</title>
<text text-anchor="middle" x="238" y="-87.5" font-family="Helvetica,sans-Serif" font-size="10.00">roombagui&#45;build&#45;Desktop_Qt_5_0_1_MSVC2010_32bit&#45;Debug</text>
</g>
<!-- dir_60a558aad8e96214c0a80b8cf8e42d93 -->
<g id="node2" class="node"><title>dir_60a558aad8e96214c0a80b8cf8e42d93</title>
<g id="a_node2"><a xlink:href="dir_60a558aad8e96214c0a80b8cf8e42d93.xhtml" target="_top" xlink:title="debug">
<polygon fill="white" stroke="black" points="78,-108 24,-108 24,-72 78,-72 78,-108"/>
<text text-anchor="middle" x="51" y="-87.5" font-family="Helvetica,sans-Serif" font-size="10.00">debug</text>
</a>
</g>
</g>
<!-- dir_737cf77e168c1785336c935ecc5b9559 -->
<g id="node3" class="node"><title>dir_737cf77e168c1785336c935ecc5b9559</title>
<g id="a_node3"><a xlink:href="dir_737cf77e168c1785336c935ecc5b9559.xhtml" target="_top" xlink:title="Gui&#45;RoombaV1.0">
<polygon fill="none" stroke="black" points="96.25,-36 5.75,-36 5.75,-0 96.25,-0 96.25,-36"/>
<text text-anchor="middle" x="51" y="-15.5" font-family="Helvetica,sans-Serif" font-size="10.00">Gui&#45;RoombaV1.0</text>
</a>
</g>
</g>
<!-- dir_60a558aad8e96214c0a80b8cf8e42d93&#45;&gt;dir_737cf77e168c1785336c935ecc5b9559 -->
<g id="edge1" class="edge"><title>dir_60a558aad8e96214c0a80b8cf8e42d93&#45;&gt;dir_737cf77e168c1785336c935ecc5b9559</title>
<path fill="none" stroke="black" d="M51,-71.6966C51,-63.9827 51,-54.7125 51,-46.1124"/>
<polygon fill="black" stroke="black" points="54.5001,-46.1043 51,-36.1043 47.5001,-46.1044 54.5001,-46.1043"/>
<g id="a_edge1&#45;headlabel"><a xlink:href="dir_000005_000006.xhtml" target="_top" xlink:title="4">
<text text-anchor="middle" x="57.3393" y="-47.199" font-family="Helvetica,sans-Serif" font-size="10.00">4</text>
</a>
</g>
</g>
</g>
</svg>
