<?xml version="1.0" encoding="UTF-8" standalone="no"?>
<!DOCTYPE svg PUBLIC "-//W3C//DTD SVG 1.1//EN"
 "http://www.w3.org/Graphics/SVG/1.1/DTD/svg11.dtd">
<!-- Generated by graphviz version 2.30.1 (20130214.1330)
 -->
<!-- Title: GUI/bin/debug/debug Pages: 1 -->
<svg width="98pt" height="151pt"
 viewBox="0.00 0.00 98.00 151.00" xmlns="http://www.w3.org/2000/svg" xmlns:xlink="http://www.w3.org/1999/xlink">
<g id="graph0" class="graph" transform="scale(1 1) rotate(0) translate(4 147)">
<title>GUI/bin/debug/debug</title>
<polygon fill="white" stroke="white" points="-4,5 -4,-147 95,-147 95,5 -4,5"/>
<g id="clust1" class="cluster"><title>clusterdir_3d831d3b89eeabf927b4e15ea210db60</title>
<g id="a_clust1"><a xlink:href="dir_3d831d3b89eeabf927b4e15ea210db60.xhtml" target="_top" xlink:title="debug">
<polygon fill="#ddddee" stroke="black" points="10,-64 10,-135 80,-135 80,-64 10,-64"/>
<text text-anchor="middle" x="45" y="-123" font-family="Helvetica,sans-Serif" font-size="10.00">debug</text>
</a>
</g>
</g>
<!-- dir_7757c18d8107444ed994f00dc37b1e71 -->
<g id="node1" class="node"><title>dir_7757c18d8107444ed994f00dc37b1e71</title>
<g id="a_node1"><a xlink:href="dir_7757c18d8107444ed994f00dc37b1e71.xhtml" target="_top" xlink:title="debug">
<polygon fill="#eeeeff" stroke="black" points="72,-108 18,-108 18,-72 72,-72 72,-108"/>
<text text-anchor="middle" x="45" y="-87.5" font-family="Helvetica,sans-Serif" font-size="10.00">debug</text>
</a>
</g>
</g>
<!-- dir_737cf77e168c1785336c935ecc5b9559 -->
<g id="node2" class="node"><title>dir_737cf77e168c1785336c935ecc5b9559</title>
<g id="a_node2"><a xlink:href="dir_737cf77e168c1785336c935ecc5b9559.xhtml" target="_top" xlink:title="Gui&#45;RoombaV1.0">
<polygon fill="none" stroke="black" points="90.25,-36 -0.25,-36 -0.25,-0 90.25,-0 90.25,-36"/>
<text text-anchor="middle" x="45" y="-15.5" font-family="Helvetica,sans-Serif" font-size="10.00">Gui&#45;RoombaV1.0</text>
</a>
</g>
</g>
<!-- dir_7757c18d8107444ed994f00dc37b1e71&#45;&gt;dir_737cf77e168c1785336c935ecc5b9559 -->
<g id="edge1" class="edge"><title>dir_7757c18d8107444ed994f00dc37b1e71&#45;&gt;dir_737cf77e168c1785336c935ecc5b9559</title>
<path fill="none" stroke="black" d="M45,-71.6966C45,-63.9827 45,-54.7125 45,-46.1124"/>
<polygon fill="black" stroke="black" points="48.5001,-46.1043 45,-36.1043 41.5001,-46.1044 48.5001,-46.1043"/>
<g id="a_edge1&#45;headlabel"><a xlink:href="dir_000003_000006.xhtml" target="_top" xlink:title="6">
<text text-anchor="middle" x="51.3393" y="-47.199" font-family="Helvetica,sans-Serif" font-size="10.00">6</text>
</a>
</g>
</g>
</g>
</svg>
