<?xml version="1.0" encoding="UTF-8" standalone="no"?>
<!DOCTYPE svg PUBLIC "-//W3C//DTD SVG 1.1//EN"
 "http://www.w3.org/Graphics/SVG/1.1/DTD/svg11.dtd">
<!-- Generated by graphviz version 2.30.1 (20130214.1330)
 -->
<!-- Title: GUI Pages: 1 -->
<svg width="238pt" height="220pt"
 viewBox="0.00 0.00 238.00 220.00" xmlns="http://www.w3.org/2000/svg" xmlns:xlink="http://www.w3.org/1999/xlink">
<g id="graph0" class="graph" transform="scale(1 1) rotate(0) translate(4 216)">
<title>GUI</title>
<polygon fill="white" stroke="white" points="-4,5 -4,-216 235,-216 235,5 -4,5"/>
<g id="clust1" class="cluster"><title>clusterdir_171b764decf33d63a7df2fab4f4bc6d8</title>
<g id="a_clust1"><a xlink:href="dir_171b764decf33d63a7df2fab4f4bc6d8.xhtml" target="_top">
<polygon fill="#eeeeff" stroke="black" points="8,-8 8,-204 222,-204 222,-8 8,-8"/>
</a>
</g>
</g>
<!-- dir_171b764decf33d63a7df2fab4f4bc6d8 -->
<g id="node1" class="node"><title>dir_171b764decf33d63a7df2fab4f4bc6d8</title>
<text text-anchor="middle" x="187" y="-175.5" font-family="Helvetica,sans-Serif" font-size="10.00">GUI</text>
</g>
<!-- dir_573f865f6f1f7d0a85c2a452c2e4bd52 -->
<g id="node2" class="node"><title>dir_573f865f6f1f7d0a85c2a452c2e4bd52</title>
<g id="a_node2"><a xlink:href="dir_573f865f6f1f7d0a85c2a452c2e4bd52.xhtml" target="_top" xlink:title="bin">
<polygon fill="white" stroke="red" points="142,-196 88,-196 88,-160 142,-160 142,-196"/>
<text text-anchor="middle" x="115" y="-175.5" font-family="Helvetica,sans-Serif" font-size="10.00">bin</text>
</a>
</g>
</g>
<!-- dir_737cf77e168c1785336c935ecc5b9559 -->
<g id="node3" class="node"><title>dir_737cf77e168c1785336c935ecc5b9559</title>
<g id="a_node3"><a xlink:href="dir_737cf77e168c1785336c935ecc5b9559.xhtml" target="_top" xlink:title="Gui&#45;RoombaV1.0">
<polygon fill="white" stroke="black" points="160.25,-124 69.75,-124 69.75,-88 160.25,-88 160.25,-124"/>
<text text-anchor="middle" x="115" y="-103.5" font-family="Helvetica,sans-Serif" font-size="10.00">Gui&#45;RoombaV1.0</text>
</a>
</g>
</g>
<!-- dir_573f865f6f1f7d0a85c2a452c2e4bd52&#45;&gt;dir_737cf77e168c1785336c935ecc5b9559 -->
<g id="edge1" class="edge"><title>dir_573f865f6f1f7d0a85c2a452c2e4bd52&#45;&gt;dir_737cf77e168c1785336c935ecc5b9559</title>
<path fill="none" stroke="black" d="M109.084,-159.697C108.289,-151.983 108.062,-142.712 108.405,-134.112"/>
<polygon fill="black" stroke="black" points="111.898,-134.324 109.105,-124.104 104.915,-133.836 111.898,-134.324"/>
<g id="a_edge1&#45;headlabel"><a xlink:href="dir_000001_000004.xhtml" target="_top" xlink:title="6">
<text text-anchor="middle" x="114.48" y="-135.608" font-family="Helvetica,sans-Serif" font-size="10.00">6</text>
</a>
</g>
</g>
<!-- dir_72fe4748df5ceeef868c14aebde08ad3 -->
<g id="node4" class="node"><title>dir_72fe4748df5ceeef868c14aebde08ad3</title>
<g id="a_node4"><a xlink:href="dir_72fe4748df5ceeef868c14aebde08ad3.xhtml" target="_top" xlink:title="resources">
<polygon fill="white" stroke="red" points="144.25,-52 85.75,-52 85.75,-16 144.25,-16 144.25,-52"/>
<text text-anchor="middle" x="115" y="-31.5" font-family="Helvetica,sans-Serif" font-size="10.00">resources</text>
</a>
</g>
</g>
<!-- dir_737cf77e168c1785336c935ecc5b9559&#45;&gt;dir_72fe4748df5ceeef868c14aebde08ad3 -->
<g id="edge2" class="edge"><title>dir_737cf77e168c1785336c935ecc5b9559&#45;&gt;dir_72fe4748df5ceeef868c14aebde08ad3</title>
<path fill="none" stroke="black" d="M115,-87.6966C115,-79.9827 115,-70.7125 115,-62.1124"/>
<polygon fill="black" stroke="black" points="118.5,-62.1043 115,-52.1043 111.5,-62.1044 118.5,-62.1043"/>
<g id="a_edge2&#45;headlabel"><a xlink:href="dir_000004_000006.xhtml" target="_top" xlink:title="14">
<text text-anchor="middle" x="121.339" y="-63.199" font-family="Helvetica,sans-Serif" font-size="10.00">14</text>
</a>
</g>
</g>
<!-- dir_737cf77e168c1785336c935ecc5b9559&#45;&gt;dir_573f865f6f1f7d0a85c2a452c2e4bd52 -->
<g id="edge3" class="edge"><title>dir_737cf77e168c1785336c935ecc5b9559&#45;&gt;dir_573f865f6f1f7d0a85c2a452c2e4bd52</title>
<path fill="none" stroke="black" d="M120.895,-124.104C121.701,-131.791 121.937,-141.054 121.604,-149.665"/>
<polygon fill="black" stroke="black" points="118.109,-149.48 120.916,-159.697 125.092,-149.96 118.109,-149.48"/>
<g id="a_edge3&#45;headlabel"><a xlink:href="dir_000004_000001.xhtml" target="_top" xlink:title="5">
<text text-anchor="middle" x="115.522" y="-143.2" font-family="Helvetica,sans-Serif" font-size="10.00">5</text>
</a>
</g>
</g>
<!-- dir_8e3afead0498fee9acd075e30db5d8fd -->
<g id="node5" class="node"><title>dir_8e3afead0498fee9acd075e30db5d8fd</title>
<g id="a_node5"><a xlink:href="dir_8e3afead0498fee9acd075e30db5d8fd.xhtml" target="_top" xlink:title="Timer">
<polygon fill="white" stroke="black" points="70,-196 16,-196 16,-160 70,-160 70,-196"/>
<text text-anchor="middle" x="43" y="-175.5" font-family="Helvetica,sans-Serif" font-size="10.00">Timer</text>
</a>
</g>
</g>
</g>
</svg>
