<?xml version="1.0" encoding="UTF-8" standalone="no"?>
<!DOCTYPE svg PUBLIC "-//W3C//DTD SVG 1.1//EN"
 "http://www.w3.org/Graphics/SVG/1.1/DTD/svg11.dtd">
<!-- Generated by graphviz version 2.30.1 (20130214.1330)
 -->
<!-- Title: GUI/bin Pages: 1 -->
<svg width="182pt" height="147pt"
 viewBox="0.00 0.00 182.00 147.00" xmlns="http://www.w3.org/2000/svg" xmlns:xlink="http://www.w3.org/1999/xlink">
<g id="graph0" class="graph" transform="scale(1 1) rotate(0) translate(4 143)">
<title>GUI/bin</title>
<polygon fill="white" stroke="white" points="-4,5 -4,-143 179,-143 179,5 -4,5"/>
<g id="clust1" class="cluster"><title>clusterdir_171b764decf33d63a7df2fab4f4bc6d8</title>
<g id="a_clust1"><a xlink:href="dir_171b764decf33d63a7df2fab4f4bc6d8.xhtml" target="_top" xlink:title="GUI">
<polygon fill="#ddddee" stroke="black" points="8,-8 8,-95 166,-95 166,-8 8,-8"/>
<text text-anchor="middle" x="87" y="-83" font-family="Helvetica,sans-Serif" font-size="10.00">GUI</text>
</a>
</g>
</g>
<g id="clust2" class="cluster"><title>clusterdir_573f865f6f1f7d0a85c2a452c2e4bd52</title>
<g id="a_clust2"><a xlink:href="dir_573f865f6f1f7d0a85c2a452c2e4bd52.xhtml" target="_top">
<polygon fill="#eeeeff" stroke="black" points="16,-16 16,-68 158,-68 158,-16 16,-16"/>
</a>
</g>
</g>
<!-- dir_573f865f6f1f7d0a85c2a452c2e4bd52 -->
<g id="node1" class="node"><title>dir_573f865f6f1f7d0a85c2a452c2e4bd52</title>
<text text-anchor="middle" x="123" y="-39.5" font-family="Helvetica,sans-Serif" font-size="10.00">bin</text>
</g>
<!-- dir_3d831d3b89eeabf927b4e15ea210db60 -->
<g id="node2" class="node"><title>dir_3d831d3b89eeabf927b4e15ea210db60</title>
<g id="a_node2"><a xlink:href="dir_3d831d3b89eeabf927b4e15ea210db60.xhtml" target="_top" xlink:title="debug">
<polygon fill="white" stroke="red" points="78,-60 24,-60 24,-24 78,-24 78,-60"/>
<text text-anchor="middle" x="51" y="-39.5" font-family="Helvetica,sans-Serif" font-size="10.00">debug</text>
</a>
</g>
</g>
<!-- dir_737cf77e168c1785336c935ecc5b9559 -->
<g id="node3" class="node"><title>dir_737cf77e168c1785336c935ecc5b9559</title>
<g id="a_node3"><a xlink:href="dir_737cf77e168c1785336c935ecc5b9559.xhtml" target="_top" xlink:title="Gui&#45;RoombaV1.0">
<polygon fill="none" stroke="black" points="132.25,-139 41.75,-139 41.75,-103 132.25,-103 132.25,-139"/>
<text text-anchor="middle" x="87" y="-118.5" font-family="Helvetica,sans-Serif" font-size="10.00">Gui&#45;RoombaV1.0</text>
</a>
</g>
</g>
<!-- dir_3d831d3b89eeabf927b4e15ea210db60&#45;&gt;dir_737cf77e168c1785336c935ecc5b9559 -->
<g id="edge1" class="edge"><title>dir_3d831d3b89eeabf927b4e15ea210db60&#45;&gt;dir_737cf77e168c1785336c935ecc5b9559</title>
<path fill="none" stroke="black" d="M53.2524,-60.041C56.832,-70.001 62.5682,-82.7762 68.4069,-93.9733"/>
<polygon fill="black" stroke="black" points="65.4241,-95.8138 73.2904,-102.911 71.567,-92.4575 65.4241,-95.8138"/>
<g id="a_edge1&#45;headlabel"><a xlink:href="dir_000002_000004.xhtml" target="_top" xlink:title="6">
<text text-anchor="middle" x="61.209" y="-91.5207" font-family="Helvetica,sans-Serif" font-size="10.00">6</text>
</a>
</g>
</g>
<!-- dir_737cf77e168c1785336c935ecc5b9559&#45;&gt;dir_573f865f6f1f7d0a85c2a452c2e4bd52 -->
<g id="edge2" class="edge"><title>dir_737cf77e168c1785336c935ecc5b9559&#45;&gt;dir_573f865f6f1f7d0a85c2a452c2e4bd52</title>
<path fill="none" stroke="black" d="M94.9896,-102.911C99.6038,-93.042 105.505,-80.4204 110.7,-69.3093"/>
<polygon fill="black" stroke="black" points="113.968,-70.5822 115.033,-60.041 107.627,-67.6175 113.968,-70.5822"/>
<g id="a_edge2&#45;headlabel"><a xlink:href="dir_000004_000001.xhtml" target="_top" xlink:title="5">
<text text-anchor="middle" x="115.018" y="-72.541" font-family="Helvetica,sans-Serif" font-size="10.00">5</text>
</a>
</g>
</g>
<!-- dir_737cf77e168c1785336c935ecc5b9559&#45;&gt;dir_3d831d3b89eeabf927b4e15ea210db60 -->
<g id="edge3" class="edge"><title>dir_737cf77e168c1785336c935ecc5b9559&#45;&gt;dir_3d831d3b89eeabf927b4e15ea210db60</title>
<path fill="none" stroke="black" d="M84.7305,-102.911C81.1439,-92.9423 75.4041,-80.1651 69.5651,-68.9731"/>
<polygon fill="black" stroke="black" points="72.55,-67.1366 64.6821,-60.041 66.4079,-70.4944 72.55,-67.1366"/>
<g id="a_edge3&#45;headlabel"><a xlink:href="dir_000004_000002.xhtml" target="_top" xlink:title="5">
<text text-anchor="middle" x="76.7656" y="-66.4287" font-family="Helvetica,sans-Serif" font-size="10.00">5</text>
</a>
</g>
</g>
</g>
</svg>
