<?xml version="1.0" encoding="UTF-8" standalone="no"?>
<!DOCTYPE svg PUBLIC "-//W3C//DTD SVG 1.1//EN"
 "http://www.w3.org/Graphics/SVG/1.1/DTD/svg11.dtd">
<!-- Generated by graphviz version 2.30.1 (20130214.1330)
 -->
<!-- Title: GUI/Gui&#45;RoombaV1.0 Pages: 1 -->
<svg width="139pt" height="151pt"
 viewBox="0.00 0.00 139.00 151.00" xmlns="http://www.w3.org/2000/svg" xmlns:xlink="http://www.w3.org/1999/xlink">
<g id="graph0" class="graph" transform="scale(1 1) rotate(0) translate(4 147)">
<title>GUI/Gui&#45;RoombaV1.0</title>
<polygon fill="white" stroke="white" points="-4,5 -4,-147 136,-147 136,5 -4,5"/>
<g id="clust1" class="cluster"><title>clusterdir_171b764decf33d63a7df2fab4f4bc6d8</title>
<g id="a_clust1"><a xlink:href="dir_171b764decf33d63a7df2fab4f4bc6d8.xhtml" target="_top" xlink:title="GUI">
<polygon fill="#ddddee" stroke="black" points="12,-64 12,-135 120,-135 120,-64 12,-64"/>
<text text-anchor="middle" x="66" y="-123" font-family="Helvetica,sans-Serif" font-size="10.00">GUI</text>
</a>
</g>
</g>
<!-- dir_737cf77e168c1785336c935ecc5b9559 -->
<g id="node1" class="node"><title>dir_737cf77e168c1785336c935ecc5b9559</title>
<g id="a_node1"><a xlink:href="dir_737cf77e168c1785336c935ecc5b9559.xhtml" target="_top" xlink:title="Gui&#45;RoombaV1.0">
<polygon fill="#eeeeff" stroke="black" points="111.25,-108 20.75,-108 20.75,-72 111.25,-72 111.25,-108"/>
<text text-anchor="middle" x="66" y="-87.5" font-family="Helvetica,sans-Serif" font-size="10.00">Gui&#45;RoombaV1.0</text>
</a>
</g>
</g>
<!-- dir_72fe4748df5ceeef868c14aebde08ad3 -->
<g id="node2" class="node"><title>dir_72fe4748df5ceeef868c14aebde08ad3</title>
<g id="a_node2"><a xlink:href="dir_72fe4748df5ceeef868c14aebde08ad3.xhtml" target="_top" xlink:title="resources">
<polygon fill="white" stroke="red" points="58.25,-36 -0.25,-36 -0.25,-0 58.25,-0 58.25,-36"/>
<text text-anchor="middle" x="29" y="-15.5" font-family="Helvetica,sans-Serif" font-size="10.00">resources</text>
</a>
</g>
</g>
<!-- dir_737cf77e168c1785336c935ecc5b9559&#45;&gt;dir_72fe4748df5ceeef868c14aebde08ad3 -->
<g id="edge1" class="edge"><title>dir_737cf77e168c1785336c935ecc5b9559&#45;&gt;dir_72fe4748df5ceeef868c14aebde08ad3</title>
<path fill="none" stroke="black" d="M56.8539,-71.6966C52.5974,-63.6436 47.4442,-53.8945 42.7336,-44.9824"/>
<polygon fill="black" stroke="black" points="45.8083,-43.3097 38.0409,-36.1043 39.6197,-46.5809 45.8083,-43.3097"/>
<g id="a_edge1&#45;headlabel"><a xlink:href="dir_000006_000008.xhtml" target="_top" xlink:title="17">
<text text-anchor="middle" x="49.9982" y="-42.6609" font-family="Helvetica,sans-Serif" font-size="10.00">17</text>
</a>
</g>
</g>
<!-- dir_573f865f6f1f7d0a85c2a452c2e4bd52 -->
<g id="node3" class="node"><title>dir_573f865f6f1f7d0a85c2a452c2e4bd52</title>
<g id="a_node3"><a xlink:href="dir_573f865f6f1f7d0a85c2a452c2e4bd52.xhtml" target="_top" xlink:title="bin">
<polygon fill="white" stroke="red" points="131,-36 77,-36 77,-0 131,-0 131,-36"/>
<text text-anchor="middle" x="104" y="-15.5" font-family="Helvetica,sans-Serif" font-size="10.00">bin</text>
</a>
</g>
</g>
<!-- dir_737cf77e168c1785336c935ecc5b9559&#45;&gt;dir_573f865f6f1f7d0a85c2a452c2e4bd52 -->
<g id="edge2" class="edge"><title>dir_737cf77e168c1785336c935ecc5b9559&#45;&gt;dir_573f865f6f1f7d0a85c2a452c2e4bd52</title>
<path fill="none" stroke="black" d="M75.3933,-71.6966C79.7649,-63.6436 85.0573,-53.8945 89.8953,-44.9824"/>
<polygon fill="black" stroke="black" points="93.0198,-46.5627 94.7148,-36.1043 86.8678,-43.223 93.0198,-46.5627"/>
<g id="a_edge2&#45;headlabel"><a xlink:href="dir_000006_000001.xhtml" target="_top" xlink:title="2">
<text text-anchor="middle" x="93.8002" y="-48.5764" font-family="Helvetica,sans-Serif" font-size="10.00">2</text>
</a>
</g>
</g>
</g>
</svg>
