<?xml version="1.0" encoding="UTF-8" standalone="no"?>
<!DOCTYPE svg PUBLIC "-//W3C//DTD SVG 1.1//EN"
 "http://www.w3.org/Graphics/SVG/1.1/DTD/svg11.dtd">
<!-- Generated by graphviz version 2.30.1 (20130214.1330)
 -->
<!-- Title: GUI/Gui&#45;RoombaV1.0 Pages: 1 -->
<svg width="132pt" height="151pt"
 viewBox="0.00 0.00 132.00 151.00" xmlns="http://www.w3.org/2000/svg" xmlns:xlink="http://www.w3.org/1999/xlink">
<g id="graph0" class="graph" transform="scale(1 1) rotate(0) translate(4 147)">
<title>GUI/Gui&#45;RoombaV1.0</title>
<polygon fill="white" stroke="white" points="-4,5 -4,-147 129,-147 129,5 -4,5"/>
<g id="clust1" class="cluster"><title>clusterdir_713f85d3cb573ec9d5959296a71ef3d8</title>
<g id="a_clust1"><a xlink:href="dir_713f85d3cb573ec9d5959296a71ef3d8.xhtml" target="_top" xlink:title="GUI">
<polygon fill="#ddddee" stroke="black" points="8,-64 8,-135 116,-135 116,-64 8,-64"/>
<text text-anchor="middle" x="62" y="-123" font-family="Helvetica,sans-Serif" font-size="10.00">GUI</text>
</a>
</g>
</g>
<!-- dir_363bf6cd8c10418d3eb556232d62176b -->
<g id="node1" class="node"><title>dir_363bf6cd8c10418d3eb556232d62176b</title>
<g id="a_node1"><a xlink:href="dir_363bf6cd8c10418d3eb556232d62176b.xhtml" target="_top" xlink:title="Gui&#45;RoombaV1.0">
<polygon fill="#eeeeff" stroke="black" points="107.25,-108 16.75,-108 16.75,-72 107.25,-72 107.25,-108"/>
<text text-anchor="middle" x="62" y="-87.5" font-family="Helvetica,sans-Serif" font-size="10.00">Gui&#45;RoombaV1.0</text>
</a>
</g>
</g>
<!-- dir_f6de5e0530bb0222b7015a007cba93b7 -->
<g id="node2" class="node"><title>dir_f6de5e0530bb0222b7015a007cba93b7</title>
<g id="a_node2"><a xlink:href="dir_f6de5e0530bb0222b7015a007cba93b7.xhtml" target="_top" xlink:title="resources">
<polygon fill="white" stroke="red" points="91.25,-36 32.75,-36 32.75,-0 91.25,-0 91.25,-36"/>
<text text-anchor="middle" x="62" y="-15.5" font-family="Helvetica,sans-Serif" font-size="10.00">resources</text>
</a>
</g>
</g>
<!-- dir_363bf6cd8c10418d3eb556232d62176b&#45;&gt;dir_f6de5e0530bb0222b7015a007cba93b7 -->
<g id="edge1" class="edge"><title>dir_363bf6cd8c10418d3eb556232d62176b&#45;&gt;dir_f6de5e0530bb0222b7015a007cba93b7</title>
<path fill="none" stroke="black" d="M62,-71.6966C62,-63.9827 62,-54.7125 62,-46.1124"/>
<polygon fill="black" stroke="black" points="65.5001,-46.1043 62,-36.1043 58.5001,-46.1044 65.5001,-46.1043"/>
<g id="a_edge1&#45;headlabel"><a xlink:href="dir_000001_000002.xhtml" target="_top" xlink:title="7">
<text text-anchor="middle" x="68.3393" y="-47.199" font-family="Helvetica,sans-Serif" font-size="10.00">7</text>
</a>
</g>
</g>
</g>
</svg>
