<?xml version="1.0" encoding="UTF-8" standalone="no"?>
<!DOCTYPE svg PUBLIC "-//W3C//DTD SVG 1.1//EN"
 "http://www.w3.org/Graphics/SVG/1.1/DTD/svg11.dtd">
<!-- Generated by graphviz version 2.30.1 (20130214.1330)
 -->
<!-- Title: GUI/bin/debug Pages: 1 -->
<svg width="182pt" height="159pt"
 viewBox="0.00 0.00 182.00 159.00" xmlns="http://www.w3.org/2000/svg" xmlns:xlink="http://www.w3.org/1999/xlink">
<g id="graph0" class="graph" transform="scale(1 1) rotate(0) translate(4 155)">
<title>GUI/bin/debug</title>
<polygon fill="white" stroke="white" points="-4,5 -4,-155 179,-155 179,5 -4,5"/>
<g id="clust1" class="cluster"><title>clusterdir_573f865f6f1f7d0a85c2a452c2e4bd52</title>
<g id="a_clust1"><a xlink:href="dir_573f865f6f1f7d0a85c2a452c2e4bd52.xhtml" target="_top" xlink:title="bin">
<polygon fill="#ddddee" stroke="black" points="8,-56 8,-143 166,-143 166,-56 8,-56"/>
<text text-anchor="middle" x="87" y="-131" font-family="Helvetica,sans-Serif" font-size="10.00">bin</text>
</a>
</g>
</g>
<g id="clust2" class="cluster"><title>clusterdir_3d831d3b89eeabf927b4e15ea210db60</title>
<g id="a_clust2"><a xlink:href="dir_3d831d3b89eeabf927b4e15ea210db60.xhtml" target="_top">
<polygon fill="#eeeeff" stroke="black" points="16,-64 16,-116 158,-116 158,-64 16,-64"/>
</a>
</g>
</g>
<!-- dir_3d831d3b89eeabf927b4e15ea210db60 -->
<g id="node1" class="node"><title>dir_3d831d3b89eeabf927b4e15ea210db60</title>
<text text-anchor="middle" x="123" y="-87.5" font-family="Helvetica,sans-Serif" font-size="10.00">debug</text>
</g>
<!-- dir_7757c18d8107444ed994f00dc37b1e71 -->
<g id="node2" class="node"><title>dir_7757c18d8107444ed994f00dc37b1e71</title>
<g id="a_node2"><a xlink:href="dir_7757c18d8107444ed994f00dc37b1e71.xhtml" target="_top" xlink:title="debug">
<polygon fill="white" stroke="black" points="78,-108 24,-108 24,-72 78,-72 78,-108"/>
<text text-anchor="middle" x="51" y="-87.5" font-family="Helvetica,sans-Serif" font-size="10.00">debug</text>
</a>
</g>
</g>
<!-- dir_737cf77e168c1785336c935ecc5b9559 -->
<g id="node3" class="node"><title>dir_737cf77e168c1785336c935ecc5b9559</title>
<g id="a_node3"><a xlink:href="dir_737cf77e168c1785336c935ecc5b9559.xhtml" target="_top" xlink:title="Gui&#45;RoombaV1.0">
<polygon fill="none" stroke="black" points="132.25,-36 41.75,-36 41.75,-0 132.25,-0 132.25,-36"/>
<text text-anchor="middle" x="87" y="-15.5" font-family="Helvetica,sans-Serif" font-size="10.00">Gui&#45;RoombaV1.0</text>
</a>
</g>
</g>
<!-- dir_7757c18d8107444ed994f00dc37b1e71&#45;&gt;dir_737cf77e168c1785336c935ecc5b9559 -->
<g id="edge1" class="edge"><title>dir_7757c18d8107444ed994f00dc37b1e71&#45;&gt;dir_737cf77e168c1785336c935ecc5b9559</title>
<path fill="none" stroke="black" d="M59.8989,-71.6966C63.9968,-63.7284 68.9488,-54.0995 73.4927,-45.2641"/>
<polygon fill="black" stroke="black" points="76.7425,-46.598 78.2035,-36.1043 70.5174,-43.3965 76.7425,-46.598"/>
<g id="a_edge1&#45;headlabel"><a xlink:href="dir_000003_000004.xhtml" target="_top" xlink:title="6">
<text text-anchor="middle" x="77.6235" y="-48.5931" font-family="Helvetica,sans-Serif" font-size="10.00">6</text>
</a>
</g>
</g>
<!-- dir_737cf77e168c1785336c935ecc5b9559&#45;&gt;dir_3d831d3b89eeabf927b4e15ea210db60 -->
<g id="edge2" class="edge"><title>dir_737cf77e168c1785336c935ecc5b9559&#45;&gt;dir_3d831d3b89eeabf927b4e15ea210db60</title>
<path fill="none" stroke="black" d="M95.7965,-36.1043C99.9236,-44.1291 104.934,-53.871 109.524,-62.7967"/>
<polygon fill="black" stroke="black" points="106.415,-64.4045 114.101,-71.6966 112.64,-61.203 106.415,-64.4045"/>
<g id="a_edge2&#45;headlabel"><a xlink:href="dir_000004_000002.xhtml" target="_top" xlink:title="5">
<text text-anchor="middle" x="102.246" y="-60.0064" font-family="Helvetica,sans-Serif" font-size="10.00">5</text>
</a>
</g>
</g>
</g>
</svg>
