<?xml version="1.0" encoding="UTF-8" standalone="no"?>
<!DOCTYPE svg PUBLIC "-//W3C//DTD SVG 1.1//EN"
 "http://www.w3.org/Graphics/SVG/1.1/DTD/svg11.dtd">
<!-- Generated by graphviz version 2.30.1 (20130214.1330)
 -->
<!-- Title: Graphical Class Hierarchy Pages: 1 -->
<svg width="312pt" height="438pt"
 viewBox="0.00 0.00 312.00 438.00" xmlns="http://www.w3.org/2000/svg" xmlns:xlink="http://www.w3.org/1999/xlink">
<g id="graph0" class="graph" transform="scale(1 1) rotate(0) translate(4 434)">
<title>Graphical Class Hierarchy</title>
<polygon fill="white" stroke="white" points="-4,5 -4,-434 309,-434 309,5 -4,5"/>
<!-- Node1 -->
<g id="node1" class="node"><title>Node1</title>
<g id="a_node1"><a xlink:href="db/d8b/classshared_1_1events_1_1cls_event.xhtml" target="_top" xlink:title="The main event class.">
<polygon fill="white" stroke="black" points="0,-213.5 0,-232.5 122,-232.5 122,-213.5 0,-213.5"/>
<text text-anchor="middle" x="61" y="-220.5" font-family="Helvetica,sans-Serif" font-size="10.00">shared::events::clsEvent</text>
</a>
</g>
</g>
<!-- Node2 -->
<g id="node2" class="node"><title>Node2</title>
<g id="a_node2"><a xlink:href="dd/d16/classshared_1_1events_1_1event_brush_vacuum_data.xhtml" target="_top" xlink:title="shared::events::eventBrush\lVacuumData">
<polygon fill="white" stroke="black" points="164,-400 164,-430 298,-430 298,-400 164,-400"/>
<text text-anchor="start" x="172" y="-418" font-family="Helvetica,sans-Serif" font-size="10.00">shared::events::eventBrush</text>
<text text-anchor="middle" x="231" y="-407" font-family="Helvetica,sans-Serif" font-size="10.00">VacuumData</text>
</a>
</g>
</g>
<!-- Node1&#45;&gt;Node2 -->
<g id="edge1" class="edge"><title>Node1&#45;&gt;Node2</title>
<path fill="none" stroke="midnightblue" d="M68.1889,-242.774C80.0412,-277.5 109.192,-349.583 158,-390 162.688,-393.882 168.016,-397.176 173.603,-399.968"/>
<polygon fill="midnightblue" stroke="midnightblue" points="71.3914,-241.308 64.9456,-232.9 64.741,-243.493 71.3914,-241.308"/>
</g>
<!-- Node3 -->
<g id="node3" class="node"><title>Node3</title>
<g id="a_node3"><a xlink:href="d1/d68/classshared_1_1events_1_1event_chat.xhtml" target="_top" xlink:title="Class containing a chatEvent.">
<polygon fill="white" stroke="black" points="167,-361.5 167,-380.5 295,-380.5 295,-361.5 167,-361.5"/>
<text text-anchor="middle" x="231" y="-368.5" font-family="Helvetica,sans-Serif" font-size="10.00">shared::events::eventChat</text>
</a>
</g>
</g>
<!-- Node1&#45;&gt;Node3 -->
<g id="edge2" class="edge"><title>Node1&#45;&gt;Node3</title>
<path fill="none" stroke="midnightblue" d="M71.0356,-241.901C85.4478,-270.004 116.321,-322.54 158,-351 164.321,-355.316 171.553,-358.705 178.94,-361.365"/>
<polygon fill="midnightblue" stroke="midnightblue" points="74.0679,-240.138 66.4812,-232.743 67.8002,-243.255 74.0679,-240.138"/>
</g>
<!-- Node4 -->
<g id="node4" class="node"><title>Node4</title>
<g id="a_node4"><a xlink:href="d2/de8/classshared_1_1events_1_1event_current_action_data.xhtml" target="_top" xlink:title="shared::events::eventCurrent\lActionData">
<polygon fill="white" stroke="black" points="161,-312 161,-342 301,-342 301,-312 161,-312"/>
<text text-anchor="start" x="169" y="-330" font-family="Helvetica,sans-Serif" font-size="10.00">shared::events::eventCurrent</text>
<text text-anchor="middle" x="231" y="-319" font-family="Helvetica,sans-Serif" font-size="10.00">ActionData</text>
</a>
</g>
</g>
<!-- Node1&#45;&gt;Node4 -->
<g id="edge3" class="edge"><title>Node1&#45;&gt;Node4</title>
<path fill="none" stroke="midnightblue" d="M78.6452,-239.876C96.7767,-257.452 127.312,-284.779 158,-302 164.577,-305.691 171.795,-308.978 179.042,-311.857"/>
<polygon fill="midnightblue" stroke="midnightblue" points="80.807,-237.092 71.2315,-232.557 75.8894,-242.073 80.807,-237.092"/>
</g>
<!-- Node5 -->
<g id="node5" class="node"><title>Node5</title>
<g id="a_node5"><a xlink:href="df/d92/classshared_1_1events_1_1event_logging.xhtml" target="_top" xlink:title="shared::events::eventLogging">
<polygon fill="white" stroke="black" points="160,-273.5 160,-292.5 302,-292.5 302,-273.5 160,-273.5"/>
<text text-anchor="middle" x="231" y="-280.5" font-family="Helvetica,sans-Serif" font-size="10.00">shared::events::eventLogging</text>
</a>
</g>
</g>
<!-- Node1&#45;&gt;Node5 -->
<g id="edge4" class="edge"><title>Node1&#45;&gt;Node5</title>
<path fill="none" stroke="midnightblue" d="M91.1071,-236.744C109.921,-245.297 135.084,-256.13 158,-264 168.148,-267.485 179.285,-270.708 189.701,-273.472"/>
<polygon fill="midnightblue" stroke="midnightblue" points="92.4408,-233.505 81.8932,-232.506 89.5158,-239.864 92.4408,-233.505"/>
</g>
<!-- Node6 -->
<g id="node6" class="node"><title>Node6</title>
<g id="a_node6"><a xlink:href="d6/d35/classshared_1_1events_1_1event_sensor.xhtml" target="_top" xlink:title="shared::events::eventSensor">
<polygon fill="white" stroke="black" points="161.5,-235.5 161.5,-254.5 300.5,-254.5 300.5,-235.5 161.5,-235.5"/>
<text text-anchor="middle" x="231" y="-242.5" font-family="Helvetica,sans-Serif" font-size="10.00">shared::events::eventSensor</text>
</a>
</g>
</g>
<!-- Node1&#45;&gt;Node6 -->
<g id="edge5" class="edge"><title>Node1&#45;&gt;Node6</title>
<path fill="none" stroke="midnightblue" d="M132.144,-232.186C141.817,-233.452 151.742,-234.752 161.387,-236.015"/>
<polygon fill="midnightblue" stroke="midnightblue" points="132.547,-228.709 122.177,-230.88 131.638,-235.649 132.547,-228.709"/>
</g>
<!-- Node7 -->
<g id="node7" class="node"><title>Node7</title>
<g id="a_node7"><a xlink:href="d6/dfe/classshared_1_1events_1_1event_server_message.xhtml" target="_top" xlink:title="Class that contains data for when the server wants to say something.">
<polygon fill="white" stroke="black" points="163.5,-186 163.5,-216 298.5,-216 298.5,-186 163.5,-186"/>
<text text-anchor="start" x="171.5" y="-204" font-family="Helvetica,sans-Serif" font-size="10.00">shared::events::eventServer</text>
<text text-anchor="middle" x="231" y="-193" font-family="Helvetica,sans-Serif" font-size="10.00">Message</text>
</a>
</g>
</g>
<!-- Node1&#45;&gt;Node7 -->
<g id="edge6" class="edge"><title>Node1&#45;&gt;Node7</title>
<path fill="none" stroke="midnightblue" d="M132.345,-213.788C142.631,-212.441 153.197,-211.058 163.404,-209.721"/>
<polygon fill="midnightblue" stroke="midnightblue" points="131.638,-210.351 122.177,-215.12 132.547,-217.291 131.638,-210.351"/>
</g>
<!-- Node8 -->
<g id="node8" class="node"><title>Node8</title>
<g id="a_node8"><a xlink:href="d5/de1/classshared_1_1events_1_1event_user_change_nick.xhtml" target="_top" xlink:title="Class containing a user who changes his nick&#45;event (nick|status)">
<polygon fill="white" stroke="black" points="167,-137 167,-167 295,-167 295,-137 167,-137"/>
<text text-anchor="start" x="175" y="-155" font-family="Helvetica,sans-Serif" font-size="10.00">shared::events::eventUser</text>
<text text-anchor="middle" x="231" y="-144" font-family="Helvetica,sans-Serif" font-size="10.00">ChangeNick</text>
</a>
</g>
</g>
<!-- Node1&#45;&gt;Node8 -->
<g id="edge7" class="edge"><title>Node1&#45;&gt;Node8</title>
<path fill="none" stroke="midnightblue" d="M89.4657,-208.822C108.464,-199.268 134.462,-186.69 158,-177 166.32,-173.575 175.301,-170.205 184.003,-167.104"/>
<polygon fill="midnightblue" stroke="midnightblue" points="87.8181,-205.733 80.4816,-213.377 90.9835,-211.977 87.8181,-205.733"/>
</g>
<!-- Node9 -->
<g id="node9" class="node"><title>Node9</title>
<g id="a_node9"><a xlink:href="d3/dcc/classshared_1_1events_1_1event_user_change_status.xhtml" target="_top" xlink:title="Class containing a user who changes his status&#45;event (nick|status)">
<polygon fill="white" stroke="black" points="167,-88 167,-118 295,-118 295,-88 167,-88"/>
<text text-anchor="start" x="175" y="-106" font-family="Helvetica,sans-Serif" font-size="10.00">shared::events::eventUser</text>
<text text-anchor="middle" x="231" y="-95" font-family="Helvetica,sans-Serif" font-size="10.00">ChangeStatus</text>
</a>
</g>
</g>
<!-- Node1&#45;&gt;Node9 -->
<g id="edge8" class="edge"><title>Node1&#45;&gt;Node9</title>
<path fill="none" stroke="midnightblue" d="M75.6151,-205.365C92.7484,-184.264 124.067,-149.141 158,-128 164.065,-124.222 170.774,-120.925 177.587,-118.075"/>
<polygon fill="midnightblue" stroke="midnightblue" points="72.8571,-203.21 69.3714,-213.215 78.3355,-207.568 72.8571,-203.21"/>
</g>
<!-- Node10 -->
<g id="node10" class="node"><title>Node10</title>
<g id="a_node10"><a xlink:href="dd/d05/classshared_1_1events_1_1event_user_join.xhtml" target="_top" xlink:title="Class containing a user JOIN event.">
<polygon fill="white" stroke="black" points="158,-49.5 158,-68.5 304,-68.5 304,-49.5 158,-49.5"/>
<text text-anchor="middle" x="231" y="-56.5" font-family="Helvetica,sans-Serif" font-size="10.00">shared::events::eventUserJoin</text>
</a>
</g>
</g>
<!-- Node1&#45;&gt;Node10 -->
<g id="edge9" class="edge"><title>Node1&#45;&gt;Node10</title>
<path fill="none" stroke="midnightblue" d="M69.4608,-203.93C82.5782,-172.93 112.745,-111.779 158,-79 163.989,-74.6621 170.88,-71.2644 177.975,-68.6033"/>
<polygon fill="midnightblue" stroke="midnightblue" points="66.2144,-202.622 65.6687,-213.203 72.6935,-205.272 66.2144,-202.622"/>
</g>
<!-- Node11 -->
<g id="node11" class="node"><title>Node11</title>
<g id="a_node11"><a xlink:href="d9/d9f/classshared_1_1events_1_1event_user_leave.xhtml" target="_top" xlink:title="Class containing a user PART event.">
<polygon fill="white" stroke="black" points="167,-0 167,-30 295,-30 295,-0 167,-0"/>
<text text-anchor="start" x="175" y="-18" font-family="Helvetica,sans-Serif" font-size="10.00">shared::events::eventUser</text>
<text text-anchor="middle" x="231" y="-7" font-family="Helvetica,sans-Serif" font-size="10.00">Leave</text>
</a>
</g>
</g>
<!-- Node1&#45;&gt;Node11 -->
<g id="edge10" class="edge"><title>Node1&#45;&gt;Node11</title>
<path fill="none" stroke="midnightblue" d="M67.0423,-203.434C77.6025,-166.278 105.523,-85.1911 158,-40 162.512,-36.1145 167.662,-32.8225 173.088,-30.0354"/>
<polygon fill="midnightblue" stroke="midnightblue" points="63.561,-202.898 64.3144,-213.466 70.3157,-204.735 63.561,-202.898"/>
</g>
</g>
</svg>
