<?xml version="1.0" encoding="UTF-8" standalone="no"?>
<!DOCTYPE svg PUBLIC "-//W3C//DTD SVG 1.1//EN"
 "http://www.w3.org/Graphics/SVG/1.1/DTD/svg11.dtd">
<!-- Generated by graphviz version 2.30.1 (20130214.1330)
 -->
<!-- Title: Graphical Class Hierarchy Pages: 1 -->
<svg width="206pt" height="66pt"
 viewBox="0.00 0.00 206.00 66.00" xmlns="http://www.w3.org/2000/svg" xmlns:xlink="http://www.w3.org/1999/xlink">
<g id="graph0" class="graph" transform="scale(1 1) rotate(0) translate(4 62)">
<title>Graphical Class Hierarchy</title>
<polygon fill="white" stroke="white" points="-4,5 -4,-62 203,-62 203,5 -4,5"/>
<!-- Node1 -->
<g id="node1" class="node"><title>Node1</title>
<polygon fill="white" stroke="#bfbfbf" points="0.5,-19.5 0.5,-38.5 53.5,-38.5 53.5,-19.5 0.5,-19.5"/>
<text text-anchor="middle" x="27" y="-26.5" font-family="Helvetica,sans-Serif" font-size="10.00">QObject</text>
</g>
<!-- Node2 -->
<g id="node2" class="node"><title>Node2</title>
<g id="a_node2"><a xlink:href="d3/d65/classclient_1_1cls_server_conn.xhtml" target="_top" xlink:title="Class that has a connection to the server.">
<polygon fill="white" stroke="black" points="90,-38.5 90,-57.5 198,-57.5 198,-38.5 90,-38.5"/>
<text text-anchor="middle" x="144" y="-45.5" font-family="Helvetica,sans-Serif" font-size="10.00">client::clsServerConn</text>
</a>
</g>
</g>
<!-- Node1&#45;&gt;Node2 -->
<g id="edge1" class="edge"><title>Node1&#45;&gt;Node2</title>
<path fill="none" stroke="midnightblue" d="M63.5804,-34.8785C71.8737,-36.2487 80.8824,-37.7371 89.7553,-39.2031"/>
<polygon fill="midnightblue" stroke="midnightblue" points="63.959,-31.3937 53.5222,-33.2167 62.8179,-38.3001 63.959,-31.3937"/>
</g>
<!-- Node3 -->
<g id="node3" class="node"><title>Node3</title>
<g id="a_node3"><a xlink:href="d3/d2f/classmy_timer.xhtml" target="_top" xlink:title="myTimer">
<polygon fill="white" stroke="black" points="117,-0.5 117,-19.5 171,-19.5 171,-0.5 117,-0.5"/>
<text text-anchor="middle" x="144" y="-7.5" font-family="Helvetica,sans-Serif" font-size="10.00">myTimer</text>
</a>
</g>
</g>
<!-- Node1&#45;&gt;Node3 -->
<g id="edge2" class="edge"><title>Node1&#45;&gt;Node3</title>
<path fill="none" stroke="midnightblue" d="M63.7374,-23.0956C80.8796,-20.2634 101.049,-16.931 116.752,-14.3367"/>
<polygon fill="midnightblue" stroke="midnightblue" points="62.8179,-19.6999 53.5222,-24.7833 63.959,-26.6063 62.8179,-19.6999"/>
</g>
</g>
</svg>
