<?xml version="1.0" encoding="UTF-8" standalone="no"?>
<!DOCTYPE svg PUBLIC "-//W3C//DTD SVG 1.1//EN"
 "http://www.w3.org/Graphics/SVG/1.1/DTD/svg11.dtd">
<!-- Generated by graphviz version 2.30.1 (20130214.1330)
 -->
<!-- Title: Graphical Class Hierarchy Pages: 1 -->
<svg width="196pt" height="142pt"
 viewBox="0.00 0.00 196.00 142.00" xmlns="http://www.w3.org/2000/svg" xmlns:xlink="http://www.w3.org/1999/xlink">
<g id="graph0" class="graph" transform="scale(1 1) rotate(0) translate(4 138)">
<title>Graphical Class Hierarchy</title>
<polygon fill="white" stroke="white" points="-4,5 -4,-138 193,-138 193,5 -4,5"/>
<!-- Node1 -->
<g id="node1" class="node"><title>Node1</title>
<polygon fill="white" stroke="#bfbfbf" points="0.5,-57.5 0.5,-76.5 55.5,-76.5 55.5,-57.5 0.5,-57.5"/>
<text text-anchor="middle" x="28" y="-64.5" font-family="Helvetica,sans-Serif" font-size="10.00">QWidget</text>
</g>
<!-- Node2 -->
<g id="node2" class="node"><title>Node2</title>
<g id="a_node2"><a xlink:href="dc/dd3/class_controllingroomba.xhtml" target="_top" xlink:title="Controllingroomba">
<polygon fill="white" stroke="black" points="92.5,-114.5 92.5,-133.5 187.5,-133.5 187.5,-114.5 92.5,-114.5"/>
<text text-anchor="middle" x="140" y="-121.5" font-family="Helvetica,sans-Serif" font-size="10.00">Controllingroomba</text>
</a>
</g>
</g>
<!-- Node1&#45;&gt;Node2 -->
<g id="edge1" class="edge"><title>Node1&#45;&gt;Node2</title>
<path fill="none" stroke="midnightblue" d="M52.0912,-82.1349C63.7981,-89.4944 78.3865,-98.1964 92,-105 98.7706,-108.384 106.296,-111.638 113.306,-114.468"/>
<polygon fill="midnightblue" stroke="midnightblue" points="53.7061,-79.0135 43.3939,-76.5825 49.9393,-84.9136 53.7061,-79.0135"/>
</g>
<!-- Node3 -->
<g id="node3" class="node"><title>Node3</title>
<g id="a_node3"><a xlink:href="df/d99/class_display_logs.xhtml" target="_top" xlink:title="DisplayLogs">
<polygon fill="white" stroke="black" points="105,-76.5 105,-95.5 175,-95.5 175,-76.5 105,-76.5"/>
<text text-anchor="middle" x="140" y="-83.5" font-family="Helvetica,sans-Serif" font-size="10.00">DisplayLogs</text>
</a>
</g>
</g>
<!-- Node1&#45;&gt;Node3 -->
<g id="edge2" class="edge"><title>Node1&#45;&gt;Node3</title>
<path fill="none" stroke="midnightblue" d="M65.7795,-73.3528C78.3454,-75.5233 92.3419,-77.9409 104.704,-80.0762"/>
<polygon fill="midnightblue" stroke="midnightblue" points="66.0778,-69.8526 55.6279,-71.5994 64.8863,-76.7504 66.0778,-69.8526"/>
</g>
<!-- Node4 -->
<g id="node4" class="node"><title>Node4</title>
<g id="a_node4"><a xlink:href="d1/d35/class_information.xhtml" target="_top" xlink:title="Information">
<polygon fill="white" stroke="black" points="108,-38.5 108,-57.5 172,-57.5 172,-38.5 108,-38.5"/>
<text text-anchor="middle" x="140" y="-45.5" font-family="Helvetica,sans-Serif" font-size="10.00">Information</text>
</a>
</g>
</g>
<!-- Node1&#45;&gt;Node4 -->
<g id="edge3" class="edge"><title>Node1&#45;&gt;Node4</title>
<path fill="none" stroke="midnightblue" d="M65.7016,-60.6606C79.3963,-58.2952 94.7992,-55.6347 107.938,-53.3653"/>
<polygon fill="midnightblue" stroke="midnightblue" points="64.8863,-57.2496 55.6279,-62.4006 66.0778,-64.1474 64.8863,-57.2496"/>
</g>
<!-- Node5 -->
<g id="node5" class="node"><title>Node5</title>
<g id="a_node5"><a xlink:href="d1/d84/class_settings_roomba.xhtml" target="_top" xlink:title="SettingsRoomba">
<polygon fill="white" stroke="black" points="95.5,-0.5 95.5,-19.5 184.5,-19.5 184.5,-0.5 95.5,-0.5"/>
<text text-anchor="middle" x="140" y="-7.5" font-family="Helvetica,sans-Serif" font-size="10.00">SettingsRoomba</text>
</a>
</g>
</g>
<!-- Node1&#45;&gt;Node5 -->
<g id="edge4" class="edge"><title>Node1&#45;&gt;Node5</title>
<path fill="none" stroke="midnightblue" d="M52.0912,-51.8651C63.7981,-44.5056 78.3865,-35.8036 92,-29 98.7706,-25.6163 106.296,-22.3618 113.306,-19.5315"/>
<polygon fill="midnightblue" stroke="midnightblue" points="49.9393,-49.0864 43.3939,-57.4175 53.7061,-54.9865 49.9393,-49.0864"/>
</g>
</g>
</svg>
