<?xml version="1.0" encoding="UTF-8" standalone="no"?>
<!DOCTYPE svg PUBLIC "-//W3C//DTD SVG 1.1//EN"
 "http://www.w3.org/Graphics/SVG/1.1/DTD/svg11.dtd">
<!-- Generated by graphviz version 2.30.1 (20130214.1330)
 -->
<!-- Title: Graphical Class Hierarchy Pages: 1 -->
<svg width="312pt" height="301pt"
 viewBox="0.00 0.00 312.00 301.00" xmlns="http://www.w3.org/2000/svg" xmlns:xlink="http://www.w3.org/1999/xlink">
<g id="graph0" class="graph" transform="scale(1 1) rotate(0) translate(4 297)">
<title>Graphical Class Hierarchy</title>
<polygon fill="white" stroke="white" points="-4,5 -4,-297 309,-297 309,5 -4,5"/>
<!-- Node1 -->
<g id="node1" class="node"><title>Node1</title>
<g id="a_node1"><a xlink:href="db/d8b/classshared_1_1events_1_1cls_event.xhtml" target="_top" xlink:title="The main event class.">
<polygon fill="white" stroke="black" points="0,-142.5 0,-161.5 122,-161.5 122,-142.5 0,-142.5"/>
<text text-anchor="middle" x="61" y="-149.5" font-family="Helvetica,sans-Serif" font-size="10.00">shared::events::clsEvent</text>
</a>
</g>
</g>
<!-- Node2 -->
<g id="node2" class="node"><title>Node2</title>
<g id="a_node2"><a xlink:href="d1/d68/classshared_1_1events_1_1event_chat.xhtml" target="_top" xlink:title="Class containing a chatEvent.">
<polygon fill="white" stroke="black" points="167,-273.5 167,-292.5 295,-292.5 295,-273.5 167,-273.5"/>
<text text-anchor="middle" x="231" y="-280.5" font-family="Helvetica,sans-Serif" font-size="10.00">shared::events::eventChat</text>
</a>
</g>
</g>
<!-- Node1&#45;&gt;Node2 -->
<g id="edge1" class="edge"><title>Node1&#45;&gt;Node2</title>
<path fill="none" stroke="midnightblue" d="M72.695,-170.346C88.2489,-195.373 119.5,-239.858 158,-264 164.133,-267.846 171.029,-270.919 178.059,-273.372"/>
<polygon fill="midnightblue" stroke="midnightblue" points="75.5178,-168.25 67.3505,-161.501 69.5266,-171.87 75.5178,-168.25"/>
</g>
<!-- Node3 -->
<g id="node3" class="node"><title>Node3</title>
<g id="a_node3"><a xlink:href="d6/d35/classshared_1_1events_1_1event_sensor.xhtml" target="_top" xlink:title="shared::events::eventSensor">
<polygon fill="white" stroke="black" points="161.5,-235.5 161.5,-254.5 300.5,-254.5 300.5,-235.5 161.5,-235.5"/>
<text text-anchor="middle" x="231" y="-242.5" font-family="Helvetica,sans-Serif" font-size="10.00">shared::events::eventSensor</text>
</a>
</g>
</g>
<!-- Node1&#45;&gt;Node3 -->
<g id="edge2" class="edge"><title>Node1&#45;&gt;Node3</title>
<path fill="none" stroke="midnightblue" d="M79.2722,-168.417C97.5059,-184.915 127.746,-209.991 158,-225 166.484,-229.209 175.984,-232.644 185.231,-235.404"/>
<polygon fill="midnightblue" stroke="midnightblue" points="81.5057,-165.715 71.7826,-161.507 76.7591,-170.86 81.5057,-165.715"/>
</g>
<!-- Node4 -->
<g id="node4" class="node"><title>Node4</title>
<g id="a_node4"><a xlink:href="d6/dfe/classshared_1_1events_1_1event_server_message.xhtml" target="_top" xlink:title="Class that contains data for when the server wants to say something.">
<polygon fill="white" stroke="black" points="163.5,-186 163.5,-216 298.5,-216 298.5,-186 163.5,-186"/>
<text text-anchor="start" x="171.5" y="-204" font-family="Helvetica,sans-Serif" font-size="10.00">shared::events::eventServer</text>
<text text-anchor="middle" x="231" y="-193" font-family="Helvetica,sans-Serif" font-size="10.00">Message</text>
</a>
</g>
</g>
<!-- Node1&#45;&gt;Node4 -->
<g id="edge3" class="edge"><title>Node1&#45;&gt;Node4</title>
<path fill="none" stroke="midnightblue" d="M104.397,-164.366C126.891,-170.926 154.71,-179.04 178.445,-185.963"/>
<polygon fill="midnightblue" stroke="midnightblue" points="105.371,-161.004 94.7909,-161.564 103.411,-167.724 105.371,-161.004"/>
</g>
<!-- Node5 -->
<g id="node5" class="node"><title>Node5</title>
<g id="a_node5"><a xlink:href="d5/de1/classshared_1_1events_1_1event_user_change_nick.xhtml" target="_top" xlink:title="Class containing a user who changes his nick&#45;event (nick|status)">
<polygon fill="white" stroke="black" points="167,-137 167,-167 295,-167 295,-137 167,-137"/>
<text text-anchor="start" x="175" y="-155" font-family="Helvetica,sans-Serif" font-size="10.00">shared::events::eventUser</text>
<text text-anchor="middle" x="231" y="-144" font-family="Helvetica,sans-Serif" font-size="10.00">ChangeNick</text>
</a>
</g>
</g>
<!-- Node1&#45;&gt;Node5 -->
<g id="edge4" class="edge"><title>Node1&#45;&gt;Node5</title>
<path fill="none" stroke="midnightblue" d="M132.517,-152C143.908,-152 155.638,-152 166.84,-152"/>
<polygon fill="midnightblue" stroke="midnightblue" points="132.177,-148.5 122.177,-152 132.177,-155.5 132.177,-148.5"/>
</g>
<!-- Node6 -->
<g id="node6" class="node"><title>Node6</title>
<g id="a_node6"><a xlink:href="d3/dcc/classshared_1_1events_1_1event_user_change_status.xhtml" target="_top" xlink:title="Class containing a user who changes his status&#45;event (nick|status)">
<polygon fill="white" stroke="black" points="167,-88 167,-118 295,-118 295,-88 167,-88"/>
<text text-anchor="start" x="175" y="-106" font-family="Helvetica,sans-Serif" font-size="10.00">shared::events::eventUser</text>
<text text-anchor="middle" x="231" y="-95" font-family="Helvetica,sans-Serif" font-size="10.00">ChangeStatus</text>
</a>
</g>
</g>
<!-- Node1&#45;&gt;Node6 -->
<g id="edge5" class="edge"><title>Node1&#45;&gt;Node6</title>
<path fill="none" stroke="midnightblue" d="M104.397,-139.634C126.891,-133.074 154.71,-124.96 178.445,-118.037"/>
<polygon fill="midnightblue" stroke="midnightblue" points="103.411,-136.276 94.7909,-142.436 105.371,-142.996 103.411,-136.276"/>
</g>
<!-- Node7 -->
<g id="node7" class="node"><title>Node7</title>
<g id="a_node7"><a xlink:href="dd/d05/classshared_1_1events_1_1event_user_join.xhtml" target="_top" xlink:title="Class containing a user JOIN event.">
<polygon fill="white" stroke="black" points="158,-49.5 158,-68.5 304,-68.5 304,-49.5 158,-49.5"/>
<text text-anchor="middle" x="231" y="-56.5" font-family="Helvetica,sans-Serif" font-size="10.00">shared::events::eventUserJoin</text>
</a>
</g>
</g>
<!-- Node1&#45;&gt;Node7 -->
<g id="edge6" class="edge"><title>Node1&#45;&gt;Node7</title>
<path fill="none" stroke="midnightblue" d="M79.2722,-135.583C97.5059,-119.085 127.746,-94.0095 158,-79 166.484,-74.791 175.984,-71.3562 185.231,-68.5962"/>
<polygon fill="midnightblue" stroke="midnightblue" points="76.7591,-133.14 71.7826,-142.493 81.5057,-138.285 76.7591,-133.14"/>
</g>
<!-- Node8 -->
<g id="node8" class="node"><title>Node8</title>
<g id="a_node8"><a xlink:href="d9/d9f/classshared_1_1events_1_1event_user_leave.xhtml" target="_top" xlink:title="Class containing a user PART event.">
<polygon fill="white" stroke="black" points="167,-0 167,-30 295,-30 295,-0 167,-0"/>
<text text-anchor="start" x="175" y="-18" font-family="Helvetica,sans-Serif" font-size="10.00">shared::events::eventUser</text>
<text text-anchor="middle" x="231" y="-7" font-family="Helvetica,sans-Serif" font-size="10.00">Leave</text>
</a>
</g>
</g>
<!-- Node1&#45;&gt;Node8 -->
<g id="edge7" class="edge"><title>Node1&#45;&gt;Node8</title>
<path fill="none" stroke="midnightblue" d="M73.2006,-133.696C89.1451,-109.079 120.634,-65.4638 158,-40 163.577,-36.1997 169.789,-32.9214 176.162,-30.1079"/>
<polygon fill="midnightblue" stroke="midnightblue" points="70.0788,-132.084 67.6954,-142.407 75.9963,-135.823 70.0788,-132.084"/>
</g>
</g>
</svg>
