<?xml version="1.0" encoding="UTF-8" standalone="no"?>
<!DOCTYPE svg PUBLIC "-//W3C//DTD SVG 1.1//EN"
 "http://www.w3.org/Graphics/SVG/1.1/DTD/svg11.dtd">
<!-- Generated by graphviz version 2.30.1 (20130214.1330)
 -->
<!-- Title: GUI/Gui&#45;RoombaV1.0/roomba.cpp Pages: 1 -->
<!--zoomable 432 -->
<svg id="main" version="1.1" xmlns="http://www.w3.org/2000/svg" xmlns:xlink="http://www.w3.org/1999/xlink" xml:space="preserve" onload="init(evt)">
        <defs>
                <circle id="rim" cx="0" cy="0" r="7"/>
                <circle id="rim2" cx="0" cy="0" r="3.5"/>
                <g id="zoomPlus">
                        <use xlink:href="#rim" fill="#404040">
                                <set attributeName="fill" to="#808080" begin="zoomplus.mouseover" end="zoomplus.mouseout"/>
                        </use>
                        <path d="M-4,0h8M0,-4v8" fill="none" stroke="white" stroke-width="1.5" pointer-events="none"/>
                </g>
                <g id="zoomMin">
                        <use xlink:href="#rim" fill="#404040">
                                <set attributeName="fill" to="#808080" begin="zoomminus.mouseover" end="zoomminus.mouseout"/>
                        </use>
                        <path d="M-4,0h8" fill="none" stroke="white" stroke-width="1.5" pointer-events="none"/>
                </g>
                <g id="dirArrow">
                        <path fill="none" stroke="white" stroke-width="1.5" d="M0,-3.0v7 M-2.5,-0.5L0,-3.0L2.5,-0.5"/>
                </g>
               <g id="resetDef">
                       <use xlink:href="#rim2" fill="#404040">
                               <set attributeName="fill" to="#808080" begin="reset.mouseover" end="reset.mouseout"/>
                       </use>
               </g>
        </defs>

<script type="text/javascript">
var viewWidth = 2931;
var viewHeight = 432;
var sectionId = 'dynsection-0';
</script>
<script xlink:href="../../svgpan.js"/>
<svg id="graph" class="graph">
<g id="viewport">
<title>GUI/Gui&#45;RoombaV1.0/roomba.cpp</title>
<polygon fill="white" stroke="white" points="-4,5 -4,-428 2928,-428 2928,5 -4,5"/>
<!-- Node1 -->
<g id="node1" class="node"><title>Node1</title>
<polygon fill="#bfbfbf" stroke="black" points="1205,-393 1205,-423 1315,-423 1315,-393 1205,-393"/>
<text text-anchor="start" x="1213" y="-411" font-family="Helvetica,sans-Serif" font-size="10.00">GUI/Gui&#45;RoombaV1.0</text>
<text text-anchor="middle" x="1260" y="-400" font-family="Helvetica,sans-Serif" font-size="10.00">/roomba.cpp</text>
</g>
<!-- Node2 -->
<g id="node2" class="node"><title>Node2</title>
<g id="a_node2"><a xlink:href="../../dd/da1/roomba_8h.xhtml" target="_top" xlink:title="roomba.h">
<polygon fill="white" stroke="black" points="728.5,-336.5 728.5,-355.5 785.5,-355.5 785.5,-336.5 728.5,-336.5"/>
<text text-anchor="middle" x="757" y="-343.5" font-family="Helvetica,sans-Serif" font-size="10.00">roomba.h</text>
</a>
</g>
</g>
<!-- Node1&#45;&gt;Node2 -->
<g id="edge1" class="edge"><title>Node1&#45;&gt;Node2</title>
<path fill="none" stroke="midnightblue" d="M1204.73,-400.407C1102.1,-388.165 884.47,-362.205 795.812,-351.63"/>
<polygon fill="midnightblue" stroke="midnightblue" points="796,-348.127 785.655,-350.418 795.17,-355.078 796,-348.127"/>
</g>
<!-- Node29 -->
<g id="node29" class="node"><title>Node29</title>
<g id="a_node29"><a xlink:href="../../d7/d88/ui__roomba_8h.xhtml" target="_top" xlink:title="ui_roomba.h">
<polygon fill="white" stroke="black" points="1977,-336.5 1977,-355.5 2047,-355.5 2047,-336.5 1977,-336.5"/>
<text text-anchor="middle" x="2012" y="-343.5" font-family="Helvetica,sans-Serif" font-size="10.00">ui_roomba.h</text>
</a>
</g>
</g>
<!-- Node1&#45;&gt;Node29 -->
<g id="edge57" class="edge"><title>Node1&#45;&gt;Node29</title>
<path fill="none" stroke="midnightblue" d="M1315.3,-402.588C1457.8,-391.218 1835.53,-361.08 1966.51,-350.629"/>
<polygon fill="midnightblue" stroke="midnightblue" points="1966.91,-354.109 1976.6,-349.824 1966.36,-347.131 1966.91,-354.109"/>
</g>
<!-- Node42 -->
<g id="node42" class="node"><title>Node42</title>
<g id="a_node42"><a xlink:href="../../d7/d82/displaylogs_8h.xhtml" target="_top" xlink:title="displaylogs.h">
<polygon fill="white" stroke="black" points="1158,-336.5 1158,-355.5 1232,-355.5 1232,-336.5 1158,-336.5"/>
<text text-anchor="middle" x="1195" y="-343.5" font-family="Helvetica,sans-Serif" font-size="10.00">displaylogs.h</text>
</a>
</g>
</g>
<!-- Node1&#45;&gt;Node42 -->
<g id="edge70" class="edge"><title>Node1&#45;&gt;Node42</title>
<path fill="none" stroke="midnightblue" d="M1244.6,-392.781C1234.76,-383.703 1222.01,-371.929 1211.89,-362.595"/>
<polygon fill="midnightblue" stroke="midnightblue" points="1214.18,-359.942 1204.46,-355.731 1209.43,-365.085 1214.18,-359.942"/>
</g>
<!-- Node43 -->
<g id="node43" class="node"><title>Node43</title>
<g id="a_node43"><a xlink:href="../../df/dd0/_gui-_roomba_v1_80_2mytimer_8h.xhtml" target="_top" xlink:title="mytimer.h">
<polygon fill="white" stroke="black" points="1210,-224.5 1210,-243.5 1270,-243.5 1270,-224.5 1210,-224.5"/>
<text text-anchor="middle" x="1240" y="-231.5" font-family="Helvetica,sans-Serif" font-size="10.00">mytimer.h</text>
</a>
</g>
</g>
<!-- Node1&#45;&gt;Node43 -->
<g id="edge72" class="edge"><title>Node1&#45;&gt;Node43</title>
<path fill="none" stroke="midnightblue" d="M1258.36,-392.925C1254.78,-362.073 1246.22,-288.484 1242.18,-253.755"/>
<polygon fill="midnightblue" stroke="midnightblue" points="1245.63,-253.113 1241,-243.585 1238.68,-253.922 1245.63,-253.113"/>
</g>
<!-- Node44 -->
<g id="node44" class="node"><title>Node44</title>
<polygon fill="white" stroke="#bfbfbf" points="2065,-336.5 2065,-355.5 2107,-355.5 2107,-336.5 2065,-336.5"/>
<text text-anchor="middle" x="2086" y="-343.5" font-family="Helvetica,sans-Serif" font-size="10.00">QtGui</text>
</g>
<!-- Node1&#45;&gt;Node44 -->
<g id="edge74" class="edge"><title>Node1&#45;&gt;Node44</title>
<path fill="none" stroke="midnightblue" d="M1315.04,-407.754C1443.55,-408.598 1773.18,-405.465 2054.84,-355.785"/>
<polygon fill="midnightblue" stroke="midnightblue" points="2055.61,-359.203 2064.84,-353.998 2054.38,-352.312 2055.61,-359.203"/>
</g>
<!-- Node3 -->
<g id="node3" class="node"><title>Node3</title>
<polygon fill="white" stroke="#bfbfbf" points="1044,-56.5 1044,-75.5 1094,-75.5 1094,-56.5 1044,-56.5"/>
<text text-anchor="middle" x="1069" y="-63.5" font-family="Helvetica,sans-Serif" font-size="10.00">QString</text>
</g>
<!-- Node2&#45;&gt;Node3 -->
<g id="edge2" class="edge"><title>Node2&#45;&gt;Node3</title>
<path fill="none" stroke="midnightblue" d="M785.692,-343.638C872.789,-339.274 1133.11,-324.476 1214,-300 1272.8,-282.206 1336,-296.438 1336,-235 1336,-235 1336,-235 1336,-177 1336,-77.8484 1176.64,-66.2443 1104.15,-66.095"/>
<polygon fill="midnightblue" stroke="midnightblue" points="1104.1,-62.5952 1094.12,-66.1471 1104.14,-69.5951 1104.1,-62.5952"/>
</g>
<!-- Node4 -->
<g id="node4" class="node"><title>Node4</title>
<polygon fill="white" stroke="#bfbfbf" points="12,-0.5 12,-19.5 64,-19.5 64,-0.5 12,-0.5"/>
<text text-anchor="middle" x="38" y="-7.5" font-family="Helvetica,sans-Serif" font-size="10.00">QDebug</text>
</g>
<!-- Node2&#45;&gt;Node4 -->
<g id="edge3" class="edge"><title>Node2&#45;&gt;Node4</title>
<path fill="none" stroke="midnightblue" d="M728.131,-345.044C616.658,-344.908 214.578,-341.489 95,-300 46.6671,-283.231 0,-286.159 0,-235 0,-235 0,-235 0,-121 0,-86.8131 16.6005,-49.7639 27.8573,-28.5707"/>
<polygon fill="midnightblue" stroke="midnightblue" points="30.9473,-30.2151 32.7163,-19.769 24.8191,-26.832 30.9473,-30.2151"/>
</g>
<!-- Node5 -->
<g id="node5" class="node"><title>Node5</title>
<polygon fill="white" stroke="#bfbfbf" points="1140.5,-168.5 1140.5,-187.5 1187.5,-187.5 1187.5,-168.5 1140.5,-168.5"/>
<text text-anchor="middle" x="1164" y="-175.5" font-family="Helvetica,sans-Serif" font-size="10.00">QtCore</text>
</g>
<!-- Node2&#45;&gt;Node5 -->
<g id="edge4" class="edge"><title>Node2&#45;&gt;Node5</title>
<path fill="none" stroke="midnightblue" d="M785.767,-344.567C841.732,-342.923 968.496,-335.253 1068,-300 1113.84,-283.76 1137.33,-285.905 1162,-244 1170.14,-230.167 1169.86,-211.648 1168,-197.916"/>
<polygon fill="midnightblue" stroke="midnightblue" points="1171.38,-196.961 1166.21,-187.715 1164.49,-198.169 1171.38,-196.961"/>
</g>
<!-- Node6 -->
<g id="node6" class="node"><title>Node6</title>
<polygon fill="white" stroke="#bfbfbf" points="670,-280.5 670,-299.5 712,-299.5 712,-280.5 670,-280.5"/>
<text text-anchor="middle" x="691" y="-287.5" font-family="Helvetica,sans-Serif" font-size="10.00">vector</text>
</g>
<!-- Node2&#45;&gt;Node6 -->
<g id="edge5" class="edge"><title>Node2&#45;&gt;Node6</title>
<path fill="none" stroke="midnightblue" d="M746.396,-336.324C736.544,-328.263 721.649,-316.077 709.785,-306.369"/>
<polygon fill="midnightblue" stroke="midnightblue" points="711.753,-303.457 701.797,-299.834 707.32,-308.875 711.753,-303.457"/>
</g>
<!-- Node7 -->
<g id="node7" class="node"><title>Node7</title>
<polygon fill="white" stroke="#bfbfbf" points="730.5,-280.5 730.5,-299.5 783.5,-299.5 783.5,-280.5 730.5,-280.5"/>
<text text-anchor="middle" x="757" y="-287.5" font-family="Helvetica,sans-Serif" font-size="10.00">QVector</text>
</g>
<!-- Node2&#45;&gt;Node7 -->
<g id="edge6" class="edge"><title>Node2&#45;&gt;Node7</title>
<path fill="none" stroke="midnightblue" d="M757,-336.083C757,-329.006 757,-318.861 757,-309.986"/>
<polygon fill="midnightblue" stroke="midnightblue" points="760.5,-309.751 757,-299.751 753.5,-309.751 760.5,-309.751"/>
</g>
<!-- Node8 -->
<g id="node8" class="node"><title>Node8</title>
<polygon fill="white" stroke="#bfbfbf" points="232,-112.5 232,-131.5 306,-131.5 306,-112.5 232,-112.5"/>
<text text-anchor="middle" x="269" y="-119.5" font-family="Helvetica,sans-Serif" font-size="10.00">QVariantMap</text>
</g>
<!-- Node2&#45;&gt;Node8 -->
<g id="edge7" class="edge"><title>Node2&#45;&gt;Node8</title>
<path fill="none" stroke="midnightblue" d="M728.446,-337.585C695.638,-328.967 640.241,-314.119 593,-300 438.135,-253.714 342.078,-318.712 247,-188 236.537,-173.616 245.761,-153.902 255.267,-139.967"/>
<polygon fill="midnightblue" stroke="midnightblue" points="258.208,-141.876 261.351,-131.758 252.584,-137.708 258.208,-141.876"/>
</g>
<!-- Node9 -->
<g id="node9" class="node"><title>Node9</title>
<polygon fill="white" stroke="#bfbfbf" points="264,-0.5 264,-19.5 318,-19.5 318,-0.5 264,-0.5"/>
<text text-anchor="middle" x="291" y="-7.5" font-family="Helvetica,sans-Serif" font-size="10.00">iostream</text>
</g>
<!-- Node2&#45;&gt;Node9 -->
<g id="edge8" class="edge"><title>Node2&#45;&gt;Node9</title>
<path fill="none" stroke="midnightblue" d="M728.42,-344.145C613.776,-340.552 190.825,-325.656 137,-300 101.237,-282.954 76,-274.618 76,-235 76,-235 76,-235 76,-121 76,-42.1261 192.096,-19.7727 253.665,-13.4639"/>
<polygon fill="midnightblue" stroke="midnightblue" points="254.138,-16.9351 263.77,-12.5222 253.488,-9.96527 254.138,-16.9351"/>
</g>
<!-- Node10 -->
<g id="node10" class="node"><title>Node10</title>
<polygon fill="white" stroke="#bfbfbf" points="960,-280.5 960,-299.5 1040,-299.5 1040,-280.5 960,-280.5"/>
<text text-anchor="middle" x="1000" y="-287.5" font-family="Helvetica,sans-Serif" font-size="10.00">QMainWindow</text>
</g>
<!-- Node2&#45;&gt;Node10 -->
<g id="edge9" class="edge"><title>Node2&#45;&gt;Node10</title>
<path fill="none" stroke="midnightblue" d="M785.83,-338.593C826.76,-329.498 902.235,-312.726 951.772,-301.717"/>
<polygon fill="midnightblue" stroke="midnightblue" points="952.619,-305.115 961.622,-299.529 951.1,-298.281 952.619,-305.115"/>
</g>
<!-- Node11 -->
<g id="node11" class="node"><title>Node11</title>
<polygon fill="white" stroke="#bfbfbf" points="363.5,-56.5 363.5,-75.5 416.5,-75.5 416.5,-56.5 363.5,-56.5"/>
<text text-anchor="middle" x="390" y="-63.5" font-family="Helvetica,sans-Serif" font-size="10.00">QObject</text>
</g>
<!-- Node2&#45;&gt;Node11 -->
<g id="edge10" class="edge"><title>Node2&#45;&gt;Node11</title>
<path fill="none" stroke="midnightblue" d="M728.23,-343.794C634.896,-339.671 341.304,-324.993 250,-300 185.384,-282.313 114,-301.993 114,-235 114,-235 114,-235 114,-177 114,-137.077 141.121,-131.425 176,-112 232.5,-80.534 308.561,-71.0189 353.135,-68.1742"/>
<polygon fill="midnightblue" stroke="midnightblue" points="353.432,-71.6631 363.221,-67.6108 353.042,-64.674 353.432,-71.6631"/>
</g>
<!-- Node12 -->
<g id="node12" class="node"><title>Node12</title>
<g id="a_node12"><a xlink:href="../../d4/dca/_roomba_connect_8h.xhtml" target="_top" xlink:title="RoombaConnect.h">
<polygon fill="white" stroke="black" points="600.5,-224.5 600.5,-243.5 697.5,-243.5 697.5,-224.5 600.5,-224.5"/>
<text text-anchor="middle" x="649" y="-231.5" font-family="Helvetica,sans-Serif" font-size="10.00">RoombaConnect.h</text>
</a>
</g>
</g>
<!-- Node2&#45;&gt;Node12 -->
<g id="edge11" class="edge"><title>Node2&#45;&gt;Node12</title>
<path fill="none" stroke="midnightblue" d="M728.155,-338.997C706.339,-332.917 677.424,-321.271 661,-300 650.818,-286.813 648.325,-267.676 648.075,-253.581"/>
<polygon fill="midnightblue" stroke="midnightblue" points="651.575,-253.627 648.251,-243.567 644.576,-253.503 651.575,-253.627"/>
</g>
<!-- Node26 -->
<g id="node26" class="node"><title>Node26</title>
<g id="a_node26"><a xlink:href="../../da/d4b/controllingroomba_8h.xhtml" target="_top" xlink:title="controllingroomba.h">
<polygon fill="white" stroke="black" points="840.5,-280.5 840.5,-299.5 941.5,-299.5 941.5,-280.5 840.5,-280.5"/>
<text text-anchor="middle" x="891" y="-287.5" font-family="Helvetica,sans-Serif" font-size="10.00">controllingroomba.h</text>
</a>
</g>
</g>
<!-- Node2&#45;&gt;Node26 -->
<g id="edge42" class="edge"><title>Node2&#45;&gt;Node26</title>
<path fill="none" stroke="midnightblue" d="M778.233,-336.444C800.384,-327.517 835.319,-313.439 860.436,-303.317"/>
<polygon fill="midnightblue" stroke="midnightblue" points="861.9,-306.501 869.867,-299.516 859.283,-300.008 861.9,-306.501"/>
</g>
<!-- Node25 -->
<g id="node25" class="node"><title>Node25</title>
<g id="a_node25"><a xlink:href="../../d4/d25/sensordata_8h.xhtml" target="_top" xlink:title="sensordata.h">
<polygon fill="white" stroke="black" points="954.5,-168.5 954.5,-187.5 1027.5,-187.5 1027.5,-168.5 954.5,-168.5"/>
<text text-anchor="middle" x="991" y="-175.5" font-family="Helvetica,sans-Serif" font-size="10.00">sensordata.h</text>
</a>
</g>
</g>
<!-- Node2&#45;&gt;Node25 -->
<g id="edge52" class="edge"><title>Node2&#45;&gt;Node25</title>
<path fill="none" stroke="midnightblue" d="M785.994,-345.087C852.966,-344.607 1015.27,-339.323 1049,-300 1076.9,-267.47 1034.75,-219.206 1008.82,-194.622"/>
<polygon fill="midnightblue" stroke="midnightblue" points="1011.12,-191.983 1001.39,-187.796 1006.38,-197.138 1011.12,-191.983"/>
</g>
<!-- Node21 -->
<g id="node21" class="node"><title>Node21</title>
<g id="a_node21"><a xlink:href="../../dc/d96/jsoncommand_8h.xhtml" target="_top" xlink:title="../resources/jsoncommand.h">
<polygon fill="white" stroke="black" points="256,-168.5 256,-187.5 396,-187.5 396,-168.5 256,-168.5"/>
<text text-anchor="middle" x="326" y="-175.5" font-family="Helvetica,sans-Serif" font-size="10.00">../resources/jsoncommand.h</text>
</a>
</g>
</g>
<!-- Node2&#45;&gt;Node21 -->
<g id="edge53" class="edge"><title>Node2&#45;&gt;Node21</title>
<path fill="none" stroke="midnightblue" d="M734.735,-336.425C663.426,-308.96 440.516,-223.106 357.538,-191.147"/>
<polygon fill="midnightblue" stroke="midnightblue" points="358.722,-187.852 348.132,-187.524 356.206,-194.384 358.722,-187.852"/>
</g>
<!-- Node22 -->
<g id="node22" class="node"><title>Node22</title>
<g id="a_node22"><a xlink:href="../../d4/d05/json_8h.xhtml" target="_top" xlink:title="json.h">
<polygon fill="white" stroke="black" points="1040.5,-112.5 1040.5,-131.5 1083.5,-131.5 1083.5,-112.5 1040.5,-112.5"/>
<text text-anchor="middle" x="1062" y="-119.5" font-family="Helvetica,sans-Serif" font-size="10.00">json.h</text>
</a>
</g>
</g>
<!-- Node2&#45;&gt;Node22 -->
<g id="edge54" class="edge"><title>Node2&#45;&gt;Node22</title>
<path fill="none" stroke="midnightblue" d="M785.576,-344.339C886.09,-341.326 1220.44,-325.247 1279,-244 1329.86,-173.438 1165.96,-138.963 1094.07,-127.505"/>
<polygon fill="midnightblue" stroke="midnightblue" points="1094.18,-123.981 1083.77,-125.92 1093.12,-130.9 1094.18,-123.981"/>
</g>
<!-- Node16 -->
<g id="node16" class="node"><title>Node16</title>
<g id="a_node16"><a xlink:href="../../d7/d62/clslog_8h.xhtml" target="_top" xlink:title="../resources/clslog.h">
<polygon fill="white" stroke="black" points="497.5,-56.5 497.5,-75.5 602.5,-75.5 602.5,-56.5 497.5,-56.5"/>
<text text-anchor="middle" x="550" y="-63.5" font-family="Helvetica,sans-Serif" font-size="10.00">../resources/clslog.h</text>
</a>
</g>
</g>
<!-- Node2&#45;&gt;Node16 -->
<g id="edge55" class="edge"><title>Node2&#45;&gt;Node16</title>
<path fill="none" stroke="midnightblue" d="M728.227,-342.861C607.994,-333.548 152,-294.317 152,-235 152,-235 152,-235 152,-177 152,-134.218 184.275,-130.185 223,-112 268.578,-90.5968 405.672,-77.3732 487.161,-71.1851"/>
<polygon fill="midnightblue" stroke="midnightblue" points="487.588,-74.6631 497.3,-70.4296 487.068,-67.6825 487.588,-74.6631"/>
</g>
<!-- Node24 -->
<g id="node24" class="node"><title>Node24</title>
<g id="a_node24"><a xlink:href="../../db/d97/clsevent_8h.xhtml" target="_top" xlink:title="../resources/clsevent.h">
<polygon fill="white" stroke="black" points="861.5,-112.5 861.5,-131.5 976.5,-131.5 976.5,-112.5 861.5,-112.5"/>
<text text-anchor="middle" x="919" y="-119.5" font-family="Helvetica,sans-Serif" font-size="10.00">../resources/clsevent.h</text>
</a>
</g>
</g>
<!-- Node2&#45;&gt;Node24 -->
<g id="edge56" class="edge"><title>Node2&#45;&gt;Node24</title>
<path fill="none" stroke="midnightblue" d="M763.809,-336.449C770.936,-327.453 782.403,-312.844 792,-300 835.289,-242.066 884.766,-171.925 907.035,-140.137"/>
<polygon fill="midnightblue" stroke="midnightblue" points="910.171,-141.759 913.035,-131.559 904.435,-137.747 910.171,-141.759"/>
</g>
<!-- Node12&#45;&gt;Node4 -->
<g id="edge12" class="edge"><title>Node12&#45;&gt;Node4</title>
<path fill="none" stroke="midnightblue" d="M600.333,-231.09C507.648,-226.876 309.473,-214.936 247,-188 160.056,-150.513 81.918,-64.2541 51.4898,-27.7766"/>
<polygon fill="midnightblue" stroke="midnightblue" points="53.8561,-25.143 44.8055,-19.6351 48.446,-29.5849 53.8561,-25.143"/>
</g>
<!-- Node12&#45;&gt;Node5 -->
<g id="edge13" class="edge"><title>Node12&#45;&gt;Node5</title>
<path fill="none" stroke="midnightblue" d="M697.914,-227.871C801.661,-216.993 1041.52,-191.843 1130.22,-182.542"/>
<polygon fill="midnightblue" stroke="midnightblue" points="1130.69,-186.012 1140.27,-181.488 1129.96,-179.05 1130.69,-186.012"/>
</g>
<!-- Node12&#45;&gt;Node11 -->
<g id="edge14" class="edge"><title>Node12&#45;&gt;Node11</title>
<path fill="none" stroke="midnightblue" d="M600.19,-227.49C547.103,-220.621 466.642,-207.375 443,-188 411.027,-161.798 397.803,-112.507 392.777,-85.6308"/>
<polygon fill="midnightblue" stroke="midnightblue" points="396.203,-84.8989 391.094,-75.6174 389.3,-86.0592 396.203,-84.8989"/>
</g>
<!-- Node13 -->
<g id="node13" class="node"><title>Node13</title>
<polygon fill="white" stroke="#bfbfbf" points="750.5,-168.5 750.5,-187.5 821.5,-187.5 821.5,-168.5 750.5,-168.5"/>
<text text-anchor="middle" x="786" y="-175.5" font-family="Helvetica,sans-Serif" font-size="10.00">QTcpSocket</text>
</g>
<!-- Node12&#45;&gt;Node13 -->
<g id="edge15" class="edge"><title>Node12&#45;&gt;Node13</title>
<path fill="none" stroke="midnightblue" d="M670.708,-224.444C693.355,-215.517 729.072,-201.439 754.752,-191.317"/>
<polygon fill="midnightblue" stroke="midnightblue" points="756.374,-194.44 764.394,-187.516 753.807,-187.927 756.374,-194.44"/>
</g>
<!-- Node14 -->
<g id="node14" class="node"><title>Node14</title>
<polygon fill="white" stroke="#bfbfbf" points="620,-168.5 620,-187.5 694,-187.5 694,-168.5 620,-168.5"/>
<text text-anchor="middle" x="657" y="-175.5" font-family="Helvetica,sans-Serif" font-size="10.00">QTextStream</text>
</g>
<!-- Node12&#45;&gt;Node14 -->
<g id="edge16" class="edge"><title>Node12&#45;&gt;Node14</title>
<path fill="none" stroke="midnightblue" d="M650.321,-224.083C651.381,-216.927 652.906,-206.635 654.231,-197.691"/>
<polygon fill="midnightblue" stroke="midnightblue" points="657.7,-198.156 655.704,-187.751 650.776,-197.13 657.7,-198.156"/>
</g>
<!-- Node15 -->
<g id="node15" class="node"><title>Node15</title>
<polygon fill="white" stroke="#bfbfbf" points="452.5,-168.5 452.5,-187.5 497.5,-187.5 497.5,-168.5 452.5,-168.5"/>
<text text-anchor="middle" x="475" y="-175.5" font-family="Helvetica,sans-Serif" font-size="10.00">QTime</text>
</g>
<!-- Node12&#45;&gt;Node15 -->
<g id="edge17" class="edge"><title>Node12&#45;&gt;Node15</title>
<path fill="none" stroke="midnightblue" d="M621.429,-224.444C590.426,-214.822 540.136,-199.215 507.314,-189.028"/>
<polygon fill="midnightblue" stroke="midnightblue" points="508.317,-185.675 497.729,-186.054 506.242,-192.36 508.317,-185.675"/>
</g>
<!-- Node12&#45;&gt;Node16 -->
<g id="edge18" class="edge"><title>Node12&#45;&gt;Node16</title>
<path fill="none" stroke="midnightblue" d="M640.474,-224.191C632.296,-215.46 619.909,-201.478 611,-188 588.172,-153.468 567.907,-109.241 557.466,-84.961"/>
<polygon fill="midnightblue" stroke="midnightblue" points="560.62,-83.4339 553.499,-75.5886 554.173,-86.162 560.62,-83.4339"/>
</g>
<!-- Node20 -->
<g id="node20" class="node"><title>Node20</title>
<polygon fill="white" stroke="#bfbfbf" points="516,-168.5 516,-187.5 564,-187.5 564,-168.5 516,-168.5"/>
<text text-anchor="middle" x="540" y="-175.5" font-family="Helvetica,sans-Serif" font-size="10.00">QTimer</text>
</g>
<!-- Node12&#45;&gt;Node20 -->
<g id="edge24" class="edge"><title>Node12&#45;&gt;Node20</title>
<path fill="none" stroke="midnightblue" d="M631.487,-224.324C613.928,-215.625 586.669,-202.12 566.469,-192.113"/>
<polygon fill="midnightblue" stroke="midnightblue" points="567.984,-188.958 557.469,-187.655 564.876,-195.23 567.984,-188.958"/>
</g>
<!-- Node12&#45;&gt;Node21 -->
<g id="edge25" class="edge"><title>Node12&#45;&gt;Node21</title>
<path fill="none" stroke="midnightblue" d="M600.294,-224.857C543.283,-215.326 448.816,-199.533 386.983,-189.195"/>
<polygon fill="midnightblue" stroke="midnightblue" points="387.412,-185.719 376.972,-187.522 386.258,-192.623 387.412,-185.719"/>
</g>
<!-- Node12&#45;&gt;Node22 -->
<g id="edge32" class="edge"><title>Node12&#45;&gt;Node22</title>
<path fill="none" stroke="midnightblue" d="M697.644,-233.373C789.518,-233.125 984.023,-227.762 1036,-188 1050.31,-177.055 1056.76,-156.994 1059.66,-142.043"/>
<polygon fill="midnightblue" stroke="midnightblue" points="1063.17,-142.262 1061.26,-131.841 1056.26,-141.18 1063.17,-142.262"/>
</g>
<!-- Node12&#45;&gt;Node24 -->
<g id="edge33" class="edge"><title>Node12&#45;&gt;Node24</title>
<path fill="none" stroke="midnightblue" d="M658.463,-224.489C674.363,-210.63 707.957,-183.209 741,-168 776.709,-151.564 819.323,-140.521 853.901,-133.488"/>
<polygon fill="midnightblue" stroke="midnightblue" points="854.756,-136.887 863.892,-131.522 853.404,-130.019 854.756,-136.887"/>
</g>
<!-- Node12&#45;&gt;Node25 -->
<g id="edge39" class="edge"><title>Node12&#45;&gt;Node25</title>
<path fill="none" stroke="midnightblue" d="M697.637,-225.32C763.281,-214.956 879.444,-196.614 944.154,-186.397"/>
<polygon fill="midnightblue" stroke="midnightblue" points="944.75,-189.846 954.082,-184.829 943.659,-182.932 944.75,-189.846"/>
</g>
<!-- Node16&#45;&gt;Node4 -->
<g id="edge19" class="edge"><title>Node16&#45;&gt;Node4</title>
<path fill="none" stroke="midnightblue" d="M497.135,-59.4244C392.913,-48.4322 163.323,-24.2177 74.2861,-14.827"/>
<polygon fill="midnightblue" stroke="midnightblue" points="74.4545,-11.3255 64.1425,-13.7572 73.7202,-18.2869 74.4545,-11.3255"/>
</g>
<!-- Node17 -->
<g id="node17" class="node"><title>Node17</title>
<polygon fill="white" stroke="#bfbfbf" points="691.5,-0.5 691.5,-19.5 756.5,-19.5 756.5,-0.5 691.5,-0.5"/>
<text text-anchor="middle" x="724" y="-7.5" font-family="Helvetica,sans-Serif" font-size="10.00">QDateTime</text>
</g>
<!-- Node16&#45;&gt;Node17 -->
<g id="edge20" class="edge"><title>Node16&#45;&gt;Node17</title>
<path fill="none" stroke="midnightblue" d="M577.571,-56.4435C607.097,-47.2801 654.118,-32.6876 686.883,-22.5192"/>
<polygon fill="midnightblue" stroke="midnightblue" points="688.045,-25.8232 696.558,-19.5164 685.97,-19.1378 688.045,-25.8232"/>
</g>
<!-- Node18 -->
<g id="node18" class="node"><title>Node18</title>
<polygon fill="white" stroke="#bfbfbf" points="488.5,-0.5 488.5,-19.5 529.5,-19.5 529.5,-0.5 488.5,-0.5"/>
<text text-anchor="middle" x="509" y="-7.5" font-family="Helvetica,sans-Serif" font-size="10.00">string</text>
</g>
<!-- Node16&#45;&gt;Node18 -->
<g id="edge21" class="edge"><title>Node16&#45;&gt;Node18</title>
<path fill="none" stroke="midnightblue" d="M543.23,-56.083C537.438,-48.4554 528.942,-37.2645 521.862,-27.9408"/>
<polygon fill="midnightblue" stroke="midnightblue" points="524.479,-25.5991 515.644,-19.7511 518.904,-29.8321 524.479,-25.5991"/>
</g>
<!-- Node16&#45;&gt;Node9 -->
<g id="edge22" class="edge"><title>Node16&#45;&gt;Node9</title>
<path fill="none" stroke="midnightblue" d="M508.961,-56.4435C459.261,-46.0814 376.262,-28.7767 328.304,-18.7777"/>
<polygon fill="midnightblue" stroke="midnightblue" points="328.844,-15.3151 318.341,-16.7003 327.416,-22.1678 328.844,-15.3151"/>
</g>
<!-- Node19 -->
<g id="node19" class="node"><title>Node19</title>
<polygon fill="white" stroke="#bfbfbf" points="547.5,-0.5 547.5,-19.5 612.5,-19.5 612.5,-0.5 547.5,-0.5"/>
<text text-anchor="middle" x="580" y="-7.5" font-family="Helvetica,sans-Serif" font-size="10.00">QStringList</text>
</g>
<!-- Node16&#45;&gt;Node19 -->
<g id="edge23" class="edge"><title>Node16&#45;&gt;Node19</title>
<path fill="none" stroke="midnightblue" d="M554.954,-56.083C559.104,-48.6127 565.153,-37.7244 570.267,-28.5199"/>
<polygon fill="midnightblue" stroke="midnightblue" points="573.341,-30.1924 575.138,-19.7511 567.222,-26.7929 573.341,-30.1924"/>
</g>
<!-- Node21&#45;&gt;Node11 -->
<g id="edge26" class="edge"><title>Node21&#45;&gt;Node11</title>
<path fill="none" stroke="midnightblue" d="M331.022,-168.368C341.537,-150.296 366.043,-108.176 379.93,-84.3074"/>
<polygon fill="midnightblue" stroke="midnightblue" points="382.998,-85.9951 385.001,-75.5914 376.947,-82.4748 382.998,-85.9951"/>
</g>
<!-- Node21&#45;&gt;Node8 -->
<g id="edge27" class="edge"><title>Node21&#45;&gt;Node8</title>
<path fill="none" stroke="midnightblue" d="M316.842,-168.324C308.499,-160.42 295.968,-148.548 285.823,-138.938"/>
<polygon fill="midnightblue" stroke="midnightblue" points="287.991,-136.171 278.325,-131.834 283.177,-141.252 287.991,-136.171"/>
</g>
<!-- Node21&#45;&gt;Node22 -->
<g id="edge28" class="edge"><title>Node21&#45;&gt;Node22</title>
<path fill="none" stroke="midnightblue" d="M396.212,-171.479C411.625,-170.301 427.861,-169.085 443,-168 683.802,-150.742 744.587,-154.02 985,-132 999.953,-130.63 1016.5,-128.745 1030.4,-127.054"/>
<polygon fill="midnightblue" stroke="midnightblue" points="1030.96,-130.512 1040.46,-125.81 1030.1,-123.565 1030.96,-130.512"/>
</g>
<!-- Node21&#45;&gt;Node16 -->
<g id="edge31" class="edge"><title>Node21&#45;&gt;Node16</title>
<path fill="none" stroke="midnightblue" d="M343.577,-168.368C382.67,-149.171 477.013,-102.842 523.377,-80.074"/>
<polygon fill="midnightblue" stroke="midnightblue" points="525.071,-83.141 532.505,-75.5914 521.986,-76.8577 525.071,-83.141"/>
</g>
<!-- Node23 -->
<g id="node23" class="node"><title>Node23</title>
<polygon fill="white" stroke="#bfbfbf" points="970.5,-56.5 970.5,-75.5 1025.5,-75.5 1025.5,-56.5 970.5,-56.5"/>
<text text-anchor="middle" x="998" y="-63.5" font-family="Helvetica,sans-Serif" font-size="10.00">QVariant</text>
</g>
<!-- Node22&#45;&gt;Node23 -->
<g id="edge29" class="edge"><title>Node22&#45;&gt;Node23</title>
<path fill="none" stroke="midnightblue" d="M1051.72,-112.324C1042.16,-104.263 1027.72,-92.0765 1016.22,-82.3695"/>
<polygon fill="midnightblue" stroke="midnightblue" points="1018.37,-79.6076 1008.47,-75.8339 1013.86,-84.9577 1018.37,-79.6076"/>
</g>
<!-- Node22&#45;&gt;Node3 -->
<g id="edge30" class="edge"><title>Node22&#45;&gt;Node3</title>
<path fill="none" stroke="midnightblue" d="M1063.16,-112.083C1064.08,-104.927 1065.42,-94.6353 1066.58,-85.6911"/>
<polygon fill="midnightblue" stroke="midnightblue" points="1070.05,-86.1181 1067.87,-75.7511 1063.11,-85.2181 1070.05,-86.1181"/>
</g>
<!-- Node24&#45;&gt;Node11 -->
<g id="edge34" class="edge"><title>Node24&#45;&gt;Node11</title>
<path fill="none" stroke="midnightblue" d="M861.381,-115.118C752.036,-103.956 517.282,-79.9929 426.701,-70.7464"/>
<polygon fill="midnightblue" stroke="midnightblue" points="426.94,-67.2527 416.636,-69.719 426.229,-74.2165 426.94,-67.2527"/>
</g>
<!-- Node24&#45;&gt;Node3 -->
<g id="edge35" class="edge"><title>Node24&#45;&gt;Node3</title>
<path fill="none" stroke="midnightblue" d="M942.768,-112.444C967.893,-103.399 1007.71,-89.064 1035.9,-78.9158"/>
<polygon fill="midnightblue" stroke="midnightblue" points="1037.12,-82.1968 1045.34,-75.5164 1034.75,-75.6106 1037.12,-82.1968"/>
</g>
<!-- Node24&#45;&gt;Node23 -->
<g id="edge36" class="edge"><title>Node24&#45;&gt;Node23</title>
<path fill="none" stroke="midnightblue" d="M931.693,-112.324C943.901,-103.979 962.578,-91.2122 977.003,-81.3524"/>
<polygon fill="midnightblue" stroke="midnightblue" points="979.058,-84.1871 985.339,-75.6545 975.108,-78.4082 979.058,-84.1871"/>
</g>
<!-- Node24&#45;&gt;Node17 -->
<g id="edge37" class="edge"><title>Node24&#45;&gt;Node17</title>
<path fill="none" stroke="midnightblue" d="M903.699,-112.368C869.881,-93.2916 788.567,-47.4223 747.941,-24.5054"/>
<polygon fill="midnightblue" stroke="midnightblue" points="749.66,-21.4563 739.23,-19.5914 746.22,-27.5531 749.66,-21.4563"/>
</g>
<!-- Node24&#45;&gt;Node16 -->
<g id="edge38" class="edge"><title>Node24&#45;&gt;Node16</title>
<path fill="none" stroke="midnightblue" d="M861.344,-112.563C793.822,-102.681 682.368,-86.371 612.731,-76.1802"/>
<polygon fill="midnightblue" stroke="midnightblue" points="613.172,-72.7075 602.771,-74.7225 612.158,-79.6337 613.172,-72.7075"/>
</g>
<!-- Node25&#45;&gt;Node24 -->
<g id="edge40" class="edge"><title>Node25&#45;&gt;Node24</title>
<path fill="none" stroke="midnightblue" d="M979.432,-168.324C968.58,-160.185 952.119,-147.839 939.117,-138.087"/>
<polygon fill="midnightblue" stroke="midnightblue" points="940.879,-135.034 930.779,-131.834 936.679,-140.634 940.879,-135.034"/>
</g>
<!-- Node25&#45;&gt;Node23 -->
<g id="edge41" class="edge"><title>Node25&#45;&gt;Node23</title>
<path fill="none" stroke="midnightblue" d="M991.549,-168.368C992.679,-150.617 995.285,-109.666 996.817,-85.5974"/>
<polygon fill="midnightblue" stroke="midnightblue" points="1000.31,-85.7935 997.453,-75.5914 993.325,-85.3489 1000.31,-85.7935"/>
</g>
<!-- Node26&#45;&gt;Node22 -->
<g id="edge43" class="edge"><title>Node26&#45;&gt;Node22</title>
<path fill="none" stroke="midnightblue" d="M907.786,-280.473C924.732,-271.732 951.538,-257.538 974,-244 983.607,-238.21 1052.41,-197.723 1058,-188 1066.02,-174.066 1066.36,-155.559 1065.09,-141.857"/>
<polygon fill="midnightblue" stroke="midnightblue" points="1068.52,-141.148 1063.76,-131.683 1061.58,-142.051 1068.52,-141.148"/>
</g>
<!-- Node26&#45;&gt;Node21 -->
<g id="edge44" class="edge"><title>Node26&#45;&gt;Node21</title>
<path fill="none" stroke="midnightblue" d="M840.33,-282.84C780.487,-275.233 678.065,-261.17 591,-244 510.83,-228.19 418.38,-204.173 366.6,-190.188"/>
<polygon fill="midnightblue" stroke="midnightblue" points="367.369,-186.771 356.802,-187.531 365.536,-193.527 367.369,-186.771"/>
</g>
<!-- Node26&#45;&gt;Node12 -->
<g id="edge45" class="edge"><title>Node26&#45;&gt;Node12</title>
<path fill="none" stroke="midnightblue" d="M852.654,-280.444C810.527,-271.043 742.794,-255.929 697.128,-245.739"/>
<polygon fill="midnightblue" stroke="midnightblue" points="697.688,-242.278 687.166,-243.516 696.164,-249.11 697.688,-242.278"/>
</g>
<!-- Node26&#45;&gt;Node16 -->
<g id="edge46" class="edge"><title>Node26&#45;&gt;Node16</title>
<path fill="none" stroke="midnightblue" d="M889,-280.315C883.499,-258.334 866.097,-199.982 830,-168 768.17,-113.22 674.384,-87.4714 612.657,-75.8575"/>
<polygon fill="midnightblue" stroke="midnightblue" points="613.121,-72.3847 602.658,-74.0467 611.874,-79.2726 613.121,-72.3847"/>
</g>
<!-- Node26&#45;&gt;Node24 -->
<g id="edge47" class="edge"><title>Node26&#45;&gt;Node24</title>
<path fill="none" stroke="midnightblue" d="M892.505,-280.075C896.913,-253.945 909.856,-177.211 915.867,-141.577"/>
<polygon fill="midnightblue" stroke="midnightblue" points="919.343,-142.011 917.555,-131.568 912.44,-140.847 919.343,-142.011"/>
</g>
<!-- Node27 -->
<g id="node27" class="node"><title>Node27</title>
<polygon fill="white" stroke="#bfbfbf" points="1098.5,-224.5 1098.5,-243.5 1153.5,-243.5 1153.5,-224.5 1098.5,-224.5"/>
<text text-anchor="middle" x="1126" y="-231.5" font-family="Helvetica,sans-Serif" font-size="10.00">QWidget</text>
</g>
<!-- Node26&#45;&gt;Node27 -->
<g id="edge48" class="edge"><title>Node26&#45;&gt;Node27</title>
<path fill="none" stroke="midnightblue" d="M928.236,-280.444C972.089,-270.367 1044.51,-253.725 1088.49,-243.62"/>
<polygon fill="midnightblue" stroke="midnightblue" points="1089.52,-246.974 1098.48,-241.323 1087.95,-240.151 1089.52,-246.974"/>
</g>
<!-- Node26&#45;&gt;Node13 -->
<g id="edge49" class="edge"><title>Node26&#45;&gt;Node13</title>
<path fill="none" stroke="midnightblue" d="M878.959,-280.415C867.344,-271.852 849.575,-257.989 836,-244 821.499,-229.057 807.248,-209.974 797.694,-196.357"/>
<polygon fill="midnightblue" stroke="midnightblue" points="800.44,-194.173 791.885,-187.922 794.674,-198.143 800.44,-194.173"/>
</g>
<!-- Node28 -->
<g id="node28" class="node"><title>Node28</title>
<polygon fill="white" stroke="#bfbfbf" points="916.5,-224.5 916.5,-243.5 965.5,-243.5 965.5,-224.5 916.5,-224.5"/>
<text text-anchor="middle" x="941" y="-231.5" font-family="Helvetica,sans-Serif" font-size="10.00">QSlider</text>
</g>
<!-- Node26&#45;&gt;Node28 -->
<g id="edge50" class="edge"><title>Node26&#45;&gt;Node28</title>
<path fill="none" stroke="midnightblue" d="M899.256,-280.083C906.465,-272.298 917.11,-260.801 925.846,-251.367"/>
<polygon fill="midnightblue" stroke="midnightblue" points="928.671,-253.467 932.897,-243.751 923.535,-248.711 928.671,-253.467"/>
</g>
<!-- Node26&#45;&gt;Node5 -->
<g id="edge51" class="edge"><title>Node26&#45;&gt;Node5</title>
<path fill="none" stroke="midnightblue" d="M913.941,-280.391C937.583,-271.468 975.474,-257.028 1008,-244 1052.24,-226.28 1103.14,-204.88 1134.44,-191.603"/>
<polygon fill="midnightblue" stroke="midnightblue" points="1136.04,-194.724 1143.88,-187.593 1133.31,-188.281 1136.04,-194.724"/>
</g>
<!-- Node30 -->
<g id="node30" class="node"><title>Node30</title>
<polygon fill="white" stroke="#bfbfbf" points="1364.5,-280.5 1364.5,-299.5 1453.5,-299.5 1453.5,-280.5 1364.5,-280.5"/>
<text text-anchor="middle" x="1409" y="-287.5" font-family="Helvetica,sans-Serif" font-size="10.00">QtCore/QVariant</text>
</g>
<!-- Node29&#45;&gt;Node30 -->
<g id="edge58" class="edge"><title>Node29&#45;&gt;Node30</title>
<path fill="none" stroke="midnightblue" d="M1976.82,-343.181C1890.91,-338.512 1663.4,-324.788 1463.86,-300.142"/>
<polygon fill="midnightblue" stroke="midnightblue" points="1464.14,-296.649 1453.78,-298.884 1463.27,-303.595 1464.14,-296.649"/>
</g>
<!-- Node31 -->
<g id="node31" class="node"><title>Node31</title>
<polygon fill="white" stroke="#bfbfbf" points="1471.5,-280.5 1471.5,-299.5 1572.5,-299.5 1572.5,-280.5 1471.5,-280.5"/>
<text text-anchor="middle" x="1522" y="-287.5" font-family="Helvetica,sans-Serif" font-size="10.00">QtWidgets/QAction</text>
</g>
<!-- Node29&#45;&gt;Node31 -->
<g id="edge59" class="edge"><title>Node29&#45;&gt;Node31</title>
<path fill="none" stroke="midnightblue" d="M1976.82,-341.855C1904.94,-335.312 1735.79,-319.327 1582.77,-300.045"/>
<polygon fill="midnightblue" stroke="midnightblue" points="1583.08,-296.556 1572.72,-298.77 1582.2,-303.5 1583.08,-296.556"/>
</g>
<!-- Node32 -->
<g id="node32" class="node"><title>Node32</title>
<polygon fill="white" stroke="#bfbfbf" points="1591,-280.5 1591,-299.5 1713,-299.5 1713,-280.5 1591,-280.5"/>
<text text-anchor="middle" x="1652" y="-287.5" font-family="Helvetica,sans-Serif" font-size="10.00">QtWidgets/QApplication</text>
</g>
<!-- Node29&#45;&gt;Node32 -->
<g id="edge60" class="edge"><title>Node29&#45;&gt;Node32</title>
<path fill="none" stroke="midnightblue" d="M1976.83,-339.724C1917.14,-330.771 1795.09,-312.463 1718.77,-301.015"/>
<polygon fill="midnightblue" stroke="midnightblue" points="1719.18,-297.538 1708.77,-299.516 1718.14,-304.461 1719.18,-297.538"/>
</g>
<!-- Node33 -->
<g id="node33" class="node"><title>Node33</title>
<polygon fill="white" stroke="#bfbfbf" points="1731,-280.5 1731,-299.5 1859,-299.5 1859,-280.5 1731,-280.5"/>
<text text-anchor="middle" x="1795" y="-287.5" font-family="Helvetica,sans-Serif" font-size="10.00">QtWidgets/QButtonGroup</text>
</g>
<!-- Node29&#45;&gt;Node33 -->
<g id="edge61" class="edge"><title>Node29&#45;&gt;Node33</title>
<path fill="none" stroke="midnightblue" d="M1977.62,-336.444C1940.08,-327.102 1879.87,-312.119 1838.93,-301.933"/>
<polygon fill="midnightblue" stroke="midnightblue" points="1839.77,-298.535 1829.22,-299.516 1838.08,-305.328 1839.77,-298.535"/>
</g>
<!-- Node34 -->
<g id="node34" class="node"><title>Node34</title>
<polygon fill="white" stroke="#bfbfbf" points="1877.5,-280.5 1877.5,-299.5 2002.5,-299.5 2002.5,-280.5 1877.5,-280.5"/>
<text text-anchor="middle" x="1940" y="-287.5" font-family="Helvetica,sans-Serif" font-size="10.00">QtWidgets/QHeaderView</text>
</g>
<!-- Node29&#45;&gt;Node34 -->
<g id="edge62" class="edge"><title>Node29&#45;&gt;Node34</title>
<path fill="none" stroke="midnightblue" d="M2000.43,-336.324C1989.58,-328.185 1973.12,-315.839 1960.12,-306.087"/>
<polygon fill="midnightblue" stroke="midnightblue" points="1961.88,-303.034 1951.78,-299.834 1957.68,-308.634 1961.88,-303.034"/>
</g>
<!-- Node35 -->
<g id="node35" class="node"><title>Node35</title>
<polygon fill="white" stroke="#bfbfbf" points="2020.5,-280.5 2020.5,-299.5 2149.5,-299.5 2149.5,-280.5 2020.5,-280.5"/>
<text text-anchor="middle" x="2085" y="-287.5" font-family="Helvetica,sans-Serif" font-size="10.00">QtWidgets/QMainWindow</text>
</g>
<!-- Node29&#45;&gt;Node35 -->
<g id="edge63" class="edge"><title>Node29&#45;&gt;Node35</title>
<path fill="none" stroke="midnightblue" d="M2023.73,-336.324C2034.84,-328.107 2051.74,-315.602 2064.98,-305.807"/>
<polygon fill="midnightblue" stroke="midnightblue" points="2067.1,-308.595 2073.06,-299.834 2062.94,-302.967 2067.1,-308.595"/>
</g>
<!-- Node36 -->
<g id="node36" class="node"><title>Node36</title>
<polygon fill="white" stroke="#bfbfbf" points="2168,-280.5 2168,-299.5 2266,-299.5 2266,-280.5 2168,-280.5"/>
<text text-anchor="middle" x="2217" y="-287.5" font-family="Helvetica,sans-Serif" font-size="10.00">QtWidgets/QMenu</text>
</g>
<!-- Node29&#45;&gt;Node36 -->
<g id="edge64" class="edge"><title>Node29&#45;&gt;Node36</title>
<path fill="none" stroke="midnightblue" d="M2044.48,-336.444C2079.72,-327.162 2136.1,-312.309 2174.76,-302.127"/>
<polygon fill="midnightblue" stroke="midnightblue" points="2175.89,-305.448 2184.67,-299.516 2174.11,-298.679 2175.89,-305.448"/>
</g>
<!-- Node37 -->
<g id="node37" class="node"><title>Node37</title>
<polygon fill="white" stroke="#bfbfbf" points="2284.5,-280.5 2284.5,-299.5 2397.5,-299.5 2397.5,-280.5 2284.5,-280.5"/>
<text text-anchor="middle" x="2341" y="-287.5" font-family="Helvetica,sans-Serif" font-size="10.00">QtWidgets/QMenuBar</text>
</g>
<!-- Node29&#45;&gt;Node37 -->
<g id="edge65" class="edge"><title>Node29&#45;&gt;Node37</title>
<path fill="none" stroke="midnightblue" d="M2047.04,-337.685C2050.07,-337.098 2053.08,-336.528 2056,-336 2130.51,-322.504 2216.41,-309.255 2274.26,-300.668"/>
<polygon fill="midnightblue" stroke="midnightblue" points="2274.98,-304.098 2284.36,-299.172 2273.96,-297.174 2274.98,-304.098"/>
</g>
<!-- Node38 -->
<g id="node38" class="node"><title>Node38</title>
<polygon fill="white" stroke="#bfbfbf" points="2415.5,-280.5 2415.5,-299.5 2540.5,-299.5 2540.5,-280.5 2415.5,-280.5"/>
<text text-anchor="middle" x="2478" y="-287.5" font-family="Helvetica,sans-Serif" font-size="10.00">QtWidgets/QPushButton</text>
</g>
<!-- Node29&#45;&gt;Node38 -->
<g id="edge66" class="edge"><title>Node29&#45;&gt;Node38</title>
<path fill="none" stroke="midnightblue" d="M2047.01,-337.513C2050.04,-336.963 2053.07,-336.449 2056,-336 2207.4,-312.788 2248.94,-317.49 2405.21,-300.059"/>
<polygon fill="midnightblue" stroke="midnightblue" points="2405.64,-303.533 2415.18,-298.934 2404.85,-296.577 2405.64,-303.533"/>
</g>
<!-- Node39 -->
<g id="node39" class="node"><title>Node39</title>
<polygon fill="white" stroke="#bfbfbf" points="2558.5,-280.5 2558.5,-299.5 2675.5,-299.5 2675.5,-280.5 2558.5,-280.5"/>
<text text-anchor="middle" x="2617" y="-287.5" font-family="Helvetica,sans-Serif" font-size="10.00">QtWidgets/QStatusBar</text>
</g>
<!-- Node29&#45;&gt;Node39 -->
<g id="edge67" class="edge"><title>Node29&#45;&gt;Node39</title>
<path fill="none" stroke="midnightblue" d="M2047.47,-337.335C2050.35,-336.838 2053.22,-336.384 2056,-336 2270.33,-306.38 2328.7,-321.934 2548.18,-300.013"/>
<polygon fill="midnightblue" stroke="midnightblue" points="2548.82,-303.466 2558.42,-298.975 2548.12,-296.502 2548.82,-303.466"/>
</g>
<!-- Node40 -->
<g id="node40" class="node"><title>Node40</title>
<polygon fill="white" stroke="#bfbfbf" points="2693.5,-280.5 2693.5,-299.5 2800.5,-299.5 2800.5,-280.5 2693.5,-280.5"/>
<text text-anchor="middle" x="2747" y="-287.5" font-family="Helvetica,sans-Serif" font-size="10.00">QtWidgets/QToolBar</text>
</g>
<!-- Node29&#45;&gt;Node40 -->
<g id="edge68" class="edge"><title>Node29&#45;&gt;Node40</title>
<path fill="none" stroke="midnightblue" d="M2047.47,-337.287C2050.35,-336.801 2053.22,-336.363 2056,-336 2329.98,-300.317 2404.09,-327.148 2683.4,-299.959"/>
<polygon fill="midnightblue" stroke="midnightblue" points="2683.81,-303.435 2693.42,-298.969 2683.13,-296.469 2683.81,-303.435"/>
</g>
<!-- Node41 -->
<g id="node41" class="node"><title>Node41</title>
<polygon fill="white" stroke="#bfbfbf" points="2819,-280.5 2819,-299.5 2923,-299.5 2923,-280.5 2819,-280.5"/>
<text text-anchor="middle" x="2871" y="-287.5" font-family="Helvetica,sans-Serif" font-size="10.00">QtWidgets/QWidget</text>
</g>
<!-- Node29&#45;&gt;Node41 -->
<g id="edge69" class="edge"><title>Node29&#45;&gt;Node41</title>
<path fill="none" stroke="midnightblue" d="M2047.46,-337.258C2050.34,-336.778 2053.21,-336.349 2056,-336 2388.44,-294.305 2475.49,-332.103 2809,-300 2809.1,-299.99 2809.2,-299.98 2809.3,-299.971"/>
<polygon fill="midnightblue" stroke="midnightblue" points="2809.38,-303.483 2818.95,-298.927 2808.63,-296.523 2809.38,-303.483"/>
</g>
<!-- Node42&#45;&gt;Node27 -->
<g id="edge71" class="edge"><title>Node42&#45;&gt;Node27</title>
<path fill="none" stroke="midnightblue" d="M1189.59,-336.368C1178.25,-318.296 1151.83,-276.176 1136.86,-252.307"/>
<polygon fill="midnightblue" stroke="midnightblue" points="1139.67,-250.203 1131.39,-243.591 1133.74,-253.923 1139.67,-250.203"/>
</g>
<!-- Node43&#45;&gt;Node5 -->
<g id="edge73" class="edge"><title>Node43&#45;&gt;Node5</title>
<path fill="none" stroke="midnightblue" d="M1227.79,-224.324C1216.22,-216.107 1198.62,-203.602 1184.84,-193.807"/>
<polygon fill="midnightblue" stroke="midnightblue" points="1186.61,-190.773 1176.43,-187.834 1182.56,-196.479 1186.61,-190.773"/>
</g>
</g>
</svg>
        <g id="navigator" transform="translate(0 0)" fill="#404254">
                <rect fill="#f2f5e9" fill-opacity="0.5" stroke="#606060" stroke-width=".5" x="0" y="0" width="60" height="60"/>
                <use id="zoomplus" xlink:href="#zoomPlus" x="17" y="9" onmousedown="handleZoom(evt,'in')"/>
                <use id="zoomminus" xlink:href="#zoomMin" x="42" y="9" onmousedown="handleZoom(evt,'out')"/>
                <use id="reset" xlink:href="#resetDef" x="30" y="36" onmousedown="handleReset()"/>
                <g id="arrowUp" xlink:href="#dirArrow" transform="translate(30 24)" onmousedown="handlePan(0,-1)">
                  <use xlink:href="#rim" fill="#404040">
                        <set attributeName="fill" to="#808080" begin="arrowUp.mouseover" end="arrowUp.mouseout"/>
                  </use>
                  <path fill="none" stroke="white" stroke-width="1.5" d="M0,-3.0v7 M-2.5,-0.5L0,-3.0L2.5,-0.5"/>
                </g>
                <g id="arrowRight" xlink:href="#dirArrow" transform="rotate(90) translate(36 -43)" onmousedown="handlePan(1,0)">
                  <use xlink:href="#rim" fill="#404040">
                        <set attributeName="fill" to="#808080" begin="arrowRight.mouseover" end="arrowRight.mouseout"/>
                  </use>
                  <path fill="none" stroke="white" stroke-width="1.5" d="M0,-3.0v7 M-2.5,-0.5L0,-3.0L2.5,-0.5"/>
                </g>
                <g id="arrowDown" xlink:href="#dirArrow" transform="rotate(180) translate(-30 -48)" onmousedown="handlePan(0,1)">
                  <use xlink:href="#rim" fill="#404040">
                        <set attributeName="fill" to="#808080" begin="arrowDown.mouseover" end="arrowDown.mouseout"/>
                  </use>
                  <path fill="none" stroke="white" stroke-width="1.5" d="M0,-3.0v7 M-2.5,-0.5L0,-3.0L2.5,-0.5"/>
                </g>
                <g id="arrowLeft" xlink:href="#dirArrow" transform="rotate(270) translate(-36 17)" onmousedown="handlePan(-1,0)">
                  <use xlink:href="#rim" fill="#404040">
                        <set attributeName="fill" to="#808080" begin="arrowLeft.mouseover" end="arrowLeft.mouseout"/>
                  </use>
                  <path fill="none" stroke="white" stroke-width="1.5" d="M0,-3.0v7 M-2.5,-0.5L0,-3.0L2.5,-0.5"/>
                </g>
        </g>
        <svg viewBox="0 0 15 15" width="100%" height="30px" preserveAspectRatio="xMaxYMin meet">
         <g id="arrow_out" transform="scale(0.3 0.3)">
          <a xlink:href="roomba_8cpp__incl_org.svg" target="_base">
           <rect id="button" ry="5" rx="5" y="6" x="6" height="38" width="38"
                fill="#f2f5e9" fill-opacity="0.5" stroke="#606060" stroke-width="1.0"/>
           <path id="arrow"
             d="M 11.500037,31.436501 C 11.940474,20.09759 22.043105,11.32322 32.158766,21.979434 L 37.068811,17.246167 C 37.068811,17.246167 37.088388,32 37.088388,32 L 22.160133,31.978069 C 22.160133,31.978069 26.997745,27.140456 26.997745,27.140456 C 18.528582,18.264221 13.291696,25.230495 11.500037,31.436501 z"
             style="fill:#404040;"/>
          </a>
         </g>
        </svg>
</svg>
