<?xml version="1.0" encoding="UTF-8" standalone="no"?>
<!DOCTYPE svg PUBLIC "-//W3C//DTD SVG 1.1//EN"
 "http://www.w3.org/Graphics/SVG/1.1/DTD/svg11.dtd">
<!-- Generated by graphviz version 2.30.1 (20130214.1330)
 -->
<!-- Title: GUI/Gui&#45;RoombaV1.0/roomba.cpp Pages: 1 -->
<!--zoomable 444 -->
<svg id="main" version="1.1" xmlns="http://www.w3.org/2000/svg" xmlns:xlink="http://www.w3.org/1999/xlink" xml:space="preserve" onload="init(evt)">
        <defs>
                <circle id="rim" cx="0" cy="0" r="7"/>
                <circle id="rim2" cx="0" cy="0" r="3.5"/>
                <g id="zoomPlus">
                        <use xlink:href="#rim" fill="#404040">
                                <set attributeName="fill" to="#808080" begin="zoomplus.mouseover" end="zoomplus.mouseout"/>
                        </use>
                        <path d="M-4,0h8M0,-4v8" fill="none" stroke="white" stroke-width="1.5" pointer-events="none"/>
                </g>
                <g id="zoomMin">
                        <use xlink:href="#rim" fill="#404040">
                                <set attributeName="fill" to="#808080" begin="zoomminus.mouseover" end="zoomminus.mouseout"/>
                        </use>
                        <path d="M-4,0h8" fill="none" stroke="white" stroke-width="1.5" pointer-events="none"/>
                </g>
                <g id="dirArrow">
                        <path fill="none" stroke="white" stroke-width="1.5" d="M0,-3.0v7 M-2.5,-0.5L0,-3.0L2.5,-0.5"/>
                </g>
               <g id="resetDef">
                       <use xlink:href="#rim2" fill="#404040">
                               <set attributeName="fill" to="#808080" begin="reset.mouseover" end="reset.mouseout"/>
                       </use>
               </g>
        </defs>

<script type="text/javascript">
var viewWidth = 1674;
var viewHeight = 444;
var sectionId = 'dynsection-0';
</script>
<script xlink:href="../../svgpan.js"/>
<svg id="graph" class="graph">
<g id="viewport">
<title>GUI/Gui&#45;RoombaV1.0/roomba.cpp</title>
<polygon fill="white" stroke="white" points="-4,5 -4,-440 1671.31,-440 1671.31,5 -4,5"/>
<!-- Node1 -->
<g id="node1" class="node"><title>Node1</title>
<polygon fill="#bfbfbf" stroke="black" points="1345.31,-405 1345.31,-435 1455.31,-435 1455.31,-405 1345.31,-405"/>
<text text-anchor="start" x="1353.31" y="-423" font-family="Helvetica,sans-Serif" font-size="10.00">GUI/Gui&#45;RoombaV1.0</text>
<text text-anchor="middle" x="1400.31" y="-412" font-family="Helvetica,sans-Serif" font-size="10.00">/roomba.cpp</text>
</g>
<!-- Node2 -->
<g id="node2" class="node"><title>Node2</title>
<g id="a_node2"><a xlink:href="../../dd/da1/roomba_8h.xhtml" target="_top" xlink:title="roomba.h">
<polygon fill="white" stroke="black" points="896.807,-348.5 896.807,-367.5 953.807,-367.5 953.807,-348.5 896.807,-348.5"/>
<text text-anchor="middle" x="925.307" y="-355.5" font-family="Helvetica,sans-Serif" font-size="10.00">roomba.h</text>
</a>
</g>
</g>
<!-- Node1&#45;&gt;Node2 -->
<g id="edge1" class="edge"><title>Node1&#45;&gt;Node2</title>
<path fill="none" stroke="midnightblue" d="M1344.89,-412C1247.49,-399.697 1048,-374.498 963.974,-363.884"/>
<polygon fill="midnightblue" stroke="midnightblue" points="964.204,-360.386 953.844,-362.605 963.327,-367.33 964.204,-360.386"/>
</g>
<!-- Node29 -->
<g id="node29" class="node"><title>Node29</title>
<polygon fill="white" stroke="#bfbfbf" points="1596.31,-348.5 1596.31,-367.5 1666.31,-367.5 1666.31,-348.5 1596.31,-348.5"/>
<text text-anchor="middle" x="1631.31" y="-355.5" font-family="Helvetica,sans-Serif" font-size="10.00">ui_roomba.h</text>
</g>
<!-- Node1&#45;&gt;Node29 -->
<g id="edge42" class="edge"><title>Node1&#45;&gt;Node29</title>
<path fill="none" stroke="midnightblue" d="M1454.47,-404.933C1495.47,-394.281 1551.02,-379.855 1588.84,-370.03"/>
<polygon fill="midnightblue" stroke="midnightblue" points="1589.73,-373.414 1598.53,-367.513 1587.97,-366.639 1589.73,-373.414"/>
</g>
<!-- Node30 -->
<g id="node30" class="node"><title>Node30</title>
<g id="a_node30"><a xlink:href="../../da/d4b/controllingroomba_8h.xhtml" target="_top" xlink:title="controllingroomba.h">
<polygon fill="white" stroke="black" points="1184.81,-348.5 1184.81,-367.5 1285.81,-367.5 1285.81,-348.5 1184.81,-348.5"/>
<text text-anchor="middle" x="1235.31" y="-355.5" font-family="Helvetica,sans-Serif" font-size="10.00">controllingroomba.h</text>
</a>
</g>
</g>
<!-- Node1&#45;&gt;Node30 -->
<g id="edge43" class="edge"><title>Node1&#45;&gt;Node30</title>
<path fill="none" stroke="midnightblue" d="M1361.62,-404.933C1333.41,-394.674 1295.57,-380.915 1268.68,-371.137"/>
<polygon fill="midnightblue" stroke="midnightblue" points="1269.55,-367.728 1258.96,-367.6 1267.16,-374.307 1269.55,-367.728"/>
</g>
<!-- Node32 -->
<g id="node32" class="node"><title>Node32</title>
<g id="a_node32"><a xlink:href="../../dc/d4d/settingsroomba_8h.xhtml" target="_top" xlink:title="settingsroomba.h">
<polygon fill="white" stroke="black" points="1304.31,-348.5 1304.31,-367.5 1396.31,-367.5 1396.31,-348.5 1304.31,-348.5"/>
<text text-anchor="middle" x="1350.31" y="-355.5" font-family="Helvetica,sans-Serif" font-size="10.00">settingsroomba.h</text>
</a>
</g>
</g>
<!-- Node1&#45;&gt;Node32 -->
<g id="edge46" class="edge"><title>Node1&#45;&gt;Node32</title>
<path fill="none" stroke="midnightblue" d="M1388.46,-404.781C1381.12,-395.972 1371.66,-384.626 1364,-375.433"/>
<polygon fill="midnightblue" stroke="midnightblue" points="1366.67,-373.172 1357.58,-367.731 1361.3,-377.653 1366.67,-373.172"/>
</g>
<!-- Node33 -->
<g id="node33" class="node"><title>Node33</title>
<g id="a_node33"><a xlink:href="../../db/d3a/information_8h.xhtml" target="_top" xlink:title="information.h">
<polygon fill="white" stroke="black" points="1414.31,-348.5 1414.31,-367.5 1486.31,-367.5 1486.31,-348.5 1414.31,-348.5"/>
<text text-anchor="middle" x="1450.31" y="-355.5" font-family="Helvetica,sans-Serif" font-size="10.00">information.h</text>
</a>
</g>
</g>
<!-- Node1&#45;&gt;Node33 -->
<g id="edge48" class="edge"><title>Node1&#45;&gt;Node33</title>
<path fill="none" stroke="midnightblue" d="M1412.16,-404.781C1419.5,-395.972 1428.95,-384.626 1436.61,-375.433"/>
<polygon fill="midnightblue" stroke="midnightblue" points="1439.32,-377.653 1443.03,-367.731 1433.94,-373.172 1439.32,-377.653"/>
</g>
<!-- Node34 -->
<g id="node34" class="node"><title>Node34</title>
<g id="a_node34"><a xlink:href="../../d7/d82/displaylogs_8h.xhtml" target="_top" xlink:title="displaylogs.h">
<polygon fill="white" stroke="black" points="1504.31,-348.5 1504.31,-367.5 1578.31,-367.5 1578.31,-348.5 1504.31,-348.5"/>
<text text-anchor="middle" x="1541.31" y="-355.5" font-family="Helvetica,sans-Serif" font-size="10.00">displaylogs.h</text>
</a>
</g>
</g>
<!-- Node1&#45;&gt;Node34 -->
<g id="edge50" class="edge"><title>Node1&#45;&gt;Node34</title>
<path fill="none" stroke="midnightblue" d="M1433.36,-404.933C1457.15,-394.81 1488.95,-381.278 1511.87,-371.527"/>
<polygon fill="midnightblue" stroke="midnightblue" points="1513.27,-374.736 1521.1,-367.6 1510.52,-368.295 1513.27,-374.736"/>
</g>
<!-- Node3 -->
<g id="node3" class="node"><title>Node3</title>
<polygon fill="white" stroke="#bfbfbf" points="778.307,-292.5 778.307,-311.5 858.307,-311.5 858.307,-292.5 778.307,-292.5"/>
<text text-anchor="middle" x="818.307" y="-299.5" font-family="Helvetica,sans-Serif" font-size="10.00">QMainWindow</text>
</g>
<!-- Node2&#45;&gt;Node3 -->
<g id="edge2" class="edge"><title>Node2&#45;&gt;Node3</title>
<path fill="none" stroke="midnightblue" d="M908.115,-348.324C890.956,-339.664 864.361,-326.242 844.559,-316.249"/>
<polygon fill="midnightblue" stroke="midnightblue" points="845.96,-313.035 835.455,-311.655 842.806,-319.285 845.96,-313.035"/>
</g>
<!-- Node4 -->
<g id="node4" class="node"><title>Node4</title>
<g id="a_node4"><a xlink:href="../../d4/dca/_roomba_connect_8h.xhtml" target="_top" xlink:title="RoombaConnect.h">
<polygon fill="white" stroke="black" points="876.807,-292.5 876.807,-311.5 973.807,-311.5 973.807,-292.5 876.807,-292.5"/>
<text text-anchor="middle" x="925.307" y="-299.5" font-family="Helvetica,sans-Serif" font-size="10.00">RoombaConnect.h</text>
</a>
</g>
</g>
<!-- Node2&#45;&gt;Node4 -->
<g id="edge3" class="edge"><title>Node2&#45;&gt;Node4</title>
<path fill="none" stroke="midnightblue" d="M925.307,-348.083C925.307,-341.006 925.307,-330.861 925.307,-321.986"/>
<polygon fill="midnightblue" stroke="midnightblue" points="928.807,-321.751 925.307,-311.751 921.807,-321.751 928.807,-321.751"/>
</g>
<!-- Node5 -->
<g id="node5" class="node"><title>Node5</title>
<polygon fill="white" stroke="#bfbfbf" points="484.807,-56.5 484.807,-75.5 537.807,-75.5 537.807,-56.5 484.807,-56.5"/>
<text text-anchor="middle" x="511.307" y="-63.5" font-family="Helvetica,sans-Serif" font-size="10.00">QObject</text>
</g>
<!-- Node4&#45;&gt;Node5 -->
<g id="edge4" class="edge"><title>Node4&#45;&gt;Node5</title>
<path fill="none" stroke="midnightblue" d="M876.622,-293.049C873.474,-292.658 870.349,-292.302 867.307,-292 777.328,-283.054 134.464,-297.843 54.3067,-256 20.5794,-238.394 14.5065,-224.037 2.30672,-188 -29.0401,-95.4041 352.192,-72.9765 474.344,-68.1829"/>
<polygon fill="midnightblue" stroke="midnightblue" points="474.816,-71.6678 484.678,-67.7957 474.554,-64.6727 474.816,-71.6678"/>
</g>
<!-- Node6 -->
<g id="node6" class="node"><title>Node6</title>
<polygon fill="white" stroke="#bfbfbf" points="953.807,-230.5 953.807,-249.5 1024.81,-249.5 1024.81,-230.5 953.807,-230.5"/>
<text text-anchor="middle" x="989.307" y="-237.5" font-family="Helvetica,sans-Serif" font-size="10.00">QTcpSocket</text>
</g>
<!-- Node4&#45;&gt;Node6 -->
<g id="edge5" class="edge"><title>Node4&#45;&gt;Node6</title>
<path fill="none" stroke="midnightblue" d="M934.476,-292.403C944.457,-283.047 960.619,-267.895 972.816,-256.46"/>
<polygon fill="midnightblue" stroke="midnightblue" points="975.252,-258.973 980.154,-249.581 970.465,-253.867 975.252,-258.973"/>
</g>
<!-- Node7 -->
<g id="node7" class="node"><title>Node7</title>
<polygon fill="white" stroke="#bfbfbf" points="1043.31,-230.5 1043.31,-249.5 1117.31,-249.5 1117.31,-230.5 1043.31,-230.5"/>
<text text-anchor="middle" x="1080.31" y="-237.5" font-family="Helvetica,sans-Serif" font-size="10.00">QTextStream</text>
</g>
<!-- Node4&#45;&gt;Node7 -->
<g id="edge6" class="edge"><title>Node4&#45;&gt;Node7</title>
<path fill="none" stroke="midnightblue" d="M947.514,-292.403C973.987,-282.156 1018.42,-264.956 1048.53,-253.302"/>
<polygon fill="midnightblue" stroke="midnightblue" points="1050.08,-256.455 1058.14,-249.581 1047.55,-249.927 1050.08,-256.455"/>
</g>
<!-- Node8 -->
<g id="node8" class="node"><title>Node8</title>
<polygon fill="white" stroke="#bfbfbf" points="1135.81,-230.5 1135.81,-249.5 1180.81,-249.5 1180.81,-230.5 1135.81,-230.5"/>
<text text-anchor="middle" x="1158.31" y="-237.5" font-family="Helvetica,sans-Serif" font-size="10.00">QTime</text>
</g>
<!-- Node4&#45;&gt;Node8 -->
<g id="edge7" class="edge"><title>Node4&#45;&gt;Node8</title>
<path fill="none" stroke="midnightblue" d="M974.045,-293.165C1015.27,-285.814 1075.55,-273.346 1126.31,-256 1128.22,-255.345 1130.18,-254.61 1132.13,-253.826"/>
<polygon fill="midnightblue" stroke="midnightblue" points="1133.9,-256.869 1141.65,-249.645 1131.09,-250.459 1133.9,-256.869"/>
</g>
<!-- Node9 -->
<g id="node9" class="node"><title>Node9</title>
<g id="a_node9"><a xlink:href="../../d7/d62/clslog_8h.xhtml" target="_top" xlink:title="../resources/clslog.h">
<polygon fill="white" stroke="black" points="782.807,-56.5 782.807,-75.5 887.807,-75.5 887.807,-56.5 782.807,-56.5"/>
<text text-anchor="middle" x="835.307" y="-63.5" font-family="Helvetica,sans-Serif" font-size="10.00">../resources/clslog.h</text>
</a>
</g>
</g>
<!-- Node4&#45;&gt;Node9 -->
<g id="edge8" class="edge"><title>Node4&#45;&gt;Node9</title>
<path fill="none" stroke="midnightblue" d="M924.29,-292.329C922.478,-277.941 918.22,-248.308 911.307,-224 896.041,-170.326 863.374,-112.575 846.267,-84.4275"/>
<polygon fill="midnightblue" stroke="midnightblue" points="849.149,-82.433 840.919,-75.761 843.192,-86.1091 849.149,-82.433"/>
</g>
<!-- Node15 -->
<g id="node15" class="node"><title>Node15</title>
<polygon fill="white" stroke="#bfbfbf" points="1199.31,-230.5 1199.31,-249.5 1247.31,-249.5 1247.31,-230.5 1199.31,-230.5"/>
<text text-anchor="middle" x="1223.31" y="-237.5" font-family="Helvetica,sans-Serif" font-size="10.00">QTimer</text>
</g>
<!-- Node4&#45;&gt;Node15 -->
<g id="edge14" class="edge"><title>Node4&#45;&gt;Node15</title>
<path fill="none" stroke="midnightblue" d="M973.818,-296.36C1027.41,-290.403 1115.84,-278.096 1189.31,-256 1191.74,-255.268 1194.23,-254.407 1196.7,-253.473"/>
<polygon fill="midnightblue" stroke="midnightblue" points="1198.07,-256.692 1205.97,-249.632 1195.39,-250.224 1198.07,-256.692"/>
</g>
<!-- Node16 -->
<g id="node16" class="node"><title>Node16</title>
<g id="a_node16"><a xlink:href="../../dc/d96/jsoncommand_8h.xhtml" target="_top" xlink:title="../resources/jsoncommand.h">
<polygon fill="white" stroke="black" points="719.307,-168.5 719.307,-187.5 859.307,-187.5 859.307,-168.5 719.307,-168.5"/>
<text text-anchor="middle" x="789.307" y="-175.5" font-family="Helvetica,sans-Serif" font-size="10.00">../resources/jsoncommand.h</text>
</a>
</g>
</g>
<!-- Node4&#45;&gt;Node16 -->
<g id="edge15" class="edge"><title>Node4&#45;&gt;Node16</title>
<path fill="none" stroke="midnightblue" d="M915.264,-292.457C904.736,-283.467 887.749,-268.864 873.307,-256 849.693,-234.967 822.819,-210.18 805.963,-194.527"/>
<polygon fill="midnightblue" stroke="midnightblue" points="808.256,-191.881 798.55,-187.633 803.489,-197.007 808.256,-191.881"/>
</g>
<!-- Node18 -->
<g id="node18" class="node"><title>Node18</title>
<g id="a_node18"><a xlink:href="../../d4/d05/json_8h.xhtml" target="_top" xlink:title="json.h">
<polygon fill="white" stroke="black" points="763.807,-112.5 763.807,-131.5 806.807,-131.5 806.807,-112.5 763.807,-112.5"/>
<text text-anchor="middle" x="785.307" y="-119.5" font-family="Helvetica,sans-Serif" font-size="10.00">json.h</text>
</a>
</g>
</g>
<!-- Node4&#45;&gt;Node18 -->
<g id="edge22" class="edge"><title>Node4&#45;&gt;Node18</title>
<path fill="none" stroke="midnightblue" d="M922.424,-292.307C913.565,-265.973 886.251,-187.675 868.307,-168 854.272,-152.612 833.722,-141.413 816.582,-134.036"/>
<polygon fill="midnightblue" stroke="midnightblue" points="817.541,-130.649 806.959,-130.132 814.909,-137.135 817.541,-130.649"/>
</g>
<!-- Node21 -->
<g id="node21" class="node"><title>Node21</title>
<g id="a_node21"><a xlink:href="../../db/d97/clsevent_8h.xhtml" target="_top" xlink:title="../resources/clsevent.h">
<polygon fill="white" stroke="black" points="453.807,-112.5 453.807,-131.5 568.807,-131.5 568.807,-112.5 453.807,-112.5"/>
<text text-anchor="middle" x="511.307" y="-119.5" font-family="Helvetica,sans-Serif" font-size="10.00">../resources/clsevent.h</text>
</a>
</g>
</g>
<!-- Node4&#45;&gt;Node21 -->
<g id="edge23" class="edge"><title>Node4&#45;&gt;Node21</title>
<path fill="none" stroke="midnightblue" d="M876.614,-293.122C873.468,-292.713 870.345,-292.334 867.307,-292 676.612,-271.051 130.19,-337.77 10.3067,-188 4.75196,-181.06 4.30906,-174.561 10.3067,-168 38.9562,-136.662 313.225,-126.967 443.384,-124.118"/>
<polygon fill="midnightblue" stroke="midnightblue" points="443.71,-127.612 453.634,-123.901 443.562,-120.613 443.71,-127.612"/>
</g>
<!-- Node22 -->
<g id="node22" class="node"><title>Node22</title>
<g id="a_node22"><a xlink:href="../../db/dd2/events_8h.xhtml" target="_top" xlink:title="../resources/events\l/events.h">
<polygon fill="white" stroke="black" points="322.807,-225 322.807,-255 421.807,-255 421.807,-225 322.807,-225"/>
<text text-anchor="start" x="330.807" y="-243" font-family="Helvetica,sans-Serif" font-size="10.00">../resources/events</text>
<text text-anchor="middle" x="372.307" y="-232" font-family="Helvetica,sans-Serif" font-size="10.00">/events.h</text>
</a>
</g>
</g>
<!-- Node4&#45;&gt;Node22 -->
<g id="edge29" class="edge"><title>Node4&#45;&gt;Node22</title>
<path fill="none" stroke="midnightblue" d="M876.598,-293.256C873.456,-292.814 870.339,-292.391 867.307,-292 710.599,-271.782 525.152,-254.422 432.015,-246.156"/>
<polygon fill="midnightblue" stroke="midnightblue" points="432.206,-242.659 421.936,-245.265 431.589,-249.632 432.206,-242.659"/>
</g>
<!-- Node10 -->
<g id="node10" class="node"><title>Node10</title>
<polygon fill="white" stroke="#bfbfbf" points="711.307,-0.5 711.307,-19.5 763.307,-19.5 763.307,-0.5 711.307,-0.5"/>
<text text-anchor="middle" x="737.307" y="-7.5" font-family="Helvetica,sans-Serif" font-size="10.00">QDebug</text>
</g>
<!-- Node9&#45;&gt;Node10 -->
<g id="edge9" class="edge"><title>Node9&#45;&gt;Node10</title>
<path fill="none" stroke="midnightblue" d="M819.561,-56.324C803.988,-47.7428 779.929,-34.486 761.847,-24.5224"/>
<polygon fill="midnightblue" stroke="midnightblue" points="763.461,-21.4152 753.013,-19.6545 760.082,-27.546 763.461,-21.4152"/>
</g>
<!-- Node11 -->
<g id="node11" class="node"><title>Node11</title>
<polygon fill="white" stroke="#bfbfbf" points="609.807,-0.5 609.807,-19.5 674.807,-19.5 674.807,-0.5 609.807,-0.5"/>
<text text-anchor="middle" x="642.307" y="-7.5" font-family="Helvetica,sans-Serif" font-size="10.00">QDateTime</text>
</g>
<!-- Node9&#45;&gt;Node11 -->
<g id="edge10" class="edge"><title>Node9&#45;&gt;Node11</title>
<path fill="none" stroke="midnightblue" d="M804.725,-56.4435C771.692,-47.2011 718.919,-32.4356 682.541,-22.2572"/>
<polygon fill="midnightblue" stroke="midnightblue" points="683.318,-18.8404 672.745,-19.5164 681.432,-25.5815 683.318,-18.8404"/>
</g>
<!-- Node12 -->
<g id="node12" class="node"><title>Node12</title>
<polygon fill="white" stroke="#bfbfbf" points="781.807,-0.5 781.807,-19.5 822.807,-19.5 822.807,-0.5 781.807,-0.5"/>
<text text-anchor="middle" x="802.307" y="-7.5" font-family="Helvetica,sans-Serif" font-size="10.00">string</text>
</g>
<!-- Node9&#45;&gt;Node12 -->
<g id="edge11" class="edge"><title>Node9&#45;&gt;Node12</title>
<path fill="none" stroke="midnightblue" d="M829.857,-56.083C825.292,-48.6127 818.638,-37.7244 813.013,-28.5199"/>
<polygon fill="midnightblue" stroke="midnightblue" points="815.856,-26.4588 807.655,-19.7511 809.883,-30.109 815.856,-26.4588"/>
</g>
<!-- Node13 -->
<g id="node13" class="node"><title>Node13</title>
<polygon fill="white" stroke="#bfbfbf" points="841.307,-0.5 841.307,-19.5 895.307,-19.5 895.307,-0.5 841.307,-0.5"/>
<text text-anchor="middle" x="868.307" y="-7.5" font-family="Helvetica,sans-Serif" font-size="10.00">iostream</text>
</g>
<!-- Node9&#45;&gt;Node13 -->
<g id="edge12" class="edge"><title>Node9&#45;&gt;Node13</title>
<path fill="none" stroke="midnightblue" d="M840.756,-56.083C845.321,-48.6127 851.975,-37.7244 857.6,-28.5199"/>
<polygon fill="midnightblue" stroke="midnightblue" points="860.731,-30.109 862.959,-19.7511 854.758,-26.4588 860.731,-30.109"/>
</g>
<!-- Node14 -->
<g id="node14" class="node"><title>Node14</title>
<polygon fill="white" stroke="#bfbfbf" points="913.807,-0.5 913.807,-19.5 978.807,-19.5 978.807,-0.5 913.807,-0.5"/>
<text text-anchor="middle" x="946.307" y="-7.5" font-family="Helvetica,sans-Serif" font-size="10.00">QStringList</text>
</g>
<!-- Node9&#45;&gt;Node14 -->
<g id="edge13" class="edge"><title>Node9&#45;&gt;Node14</title>
<path fill="none" stroke="midnightblue" d="M853.141,-56.324C871.023,-47.6247 898.782,-34.1202 919.352,-24.113"/>
<polygon fill="midnightblue" stroke="midnightblue" points="921.056,-27.1765 928.517,-19.6545 917.993,-20.8819 921.056,-27.1765"/>
</g>
<!-- Node16&#45;&gt;Node5 -->
<g id="edge16" class="edge"><title>Node16&#45;&gt;Node5</title>
<path fill="none" stroke="midnightblue" d="M763.339,-168.359C737.54,-159.643 696.935,-145.571 662.307,-132 619.094,-115.065 569.851,-93.4168 539.676,-79.8769"/>
<polygon fill="midnightblue" stroke="midnightblue" points="540.765,-76.5289 530.209,-75.6144 537.891,-82.9116 540.765,-76.5289"/>
</g>
<!-- Node17 -->
<g id="node17" class="node"><title>Node17</title>
<polygon fill="white" stroke="#bfbfbf" points="671.307,-112.5 671.307,-131.5 745.307,-131.5 745.307,-112.5 671.307,-112.5"/>
<text text-anchor="middle" x="708.307" y="-119.5" font-family="Helvetica,sans-Serif" font-size="10.00">QVariantMap</text>
</g>
<!-- Node16&#45;&gt;Node17 -->
<g id="edge17" class="edge"><title>Node16&#45;&gt;Node17</title>
<path fill="none" stroke="midnightblue" d="M776.293,-168.324C763.775,-159.979 744.625,-147.212 729.835,-137.352"/>
<polygon fill="midnightblue" stroke="midnightblue" points="731.55,-134.289 721.288,-131.655 727.668,-140.114 731.55,-134.289"/>
</g>
<!-- Node16&#45;&gt;Node18 -->
<g id="edge18" class="edge"><title>Node16&#45;&gt;Node18</title>
<path fill="none" stroke="midnightblue" d="M788.646,-168.083C788.122,-161.006 787.371,-150.861 786.713,-141.986"/>
<polygon fill="midnightblue" stroke="midnightblue" points="790.184,-141.465 785.955,-131.751 783.203,-141.982 790.184,-141.465"/>
</g>
<!-- Node16&#45;&gt;Node9 -->
<g id="edge21" class="edge"><title>Node16&#45;&gt;Node9</title>
<path fill="none" stroke="midnightblue" d="M795.099,-168.344C800.823,-159.503 809.536,-145.233 815.307,-132 821.943,-116.781 827.324,-98.6682 830.825,-85.4334"/>
<polygon fill="midnightblue" stroke="midnightblue" points="834.245,-86.1877 833.311,-75.6341 827.46,-84.4664 834.245,-86.1877"/>
</g>
<!-- Node19 -->
<g id="node19" class="node"><title>Node19</title>
<polygon fill="white" stroke="#bfbfbf" points="631.807,-56.5 631.807,-75.5 686.807,-75.5 686.807,-56.5 631.807,-56.5"/>
<text text-anchor="middle" x="659.307" y="-63.5" font-family="Helvetica,sans-Serif" font-size="10.00">QVariant</text>
</g>
<!-- Node18&#45;&gt;Node19 -->
<g id="edge19" class="edge"><title>Node18&#45;&gt;Node19</title>
<path fill="none" stroke="midnightblue" d="M765.342,-112.444C744.698,-103.596 712.244,-89.6875 688.675,-79.5865"/>
<polygon fill="midnightblue" stroke="midnightblue" points="689.749,-76.2387 679.178,-75.5164 686.991,-82.6727 689.749,-76.2387"/>
</g>
<!-- Node20 -->
<g id="node20" class="node"><title>Node20</title>
<polygon fill="white" stroke="#bfbfbf" points="711.307,-56.5 711.307,-75.5 761.307,-75.5 761.307,-56.5 711.307,-56.5"/>
<text text-anchor="middle" x="736.307" y="-63.5" font-family="Helvetica,sans-Serif" font-size="10.00">QString</text>
</g>
<!-- Node18&#45;&gt;Node20 -->
<g id="edge20" class="edge"><title>Node18&#45;&gt;Node20</title>
<path fill="none" stroke="midnightblue" d="M777.215,-112.083C770.151,-104.298 759.719,-92.8015 751.158,-83.3665"/>
<polygon fill="midnightblue" stroke="midnightblue" points="753.559,-80.8047 744.248,-75.7511 748.375,-85.5087 753.559,-80.8047"/>
</g>
<!-- Node21&#45;&gt;Node5 -->
<g id="edge24" class="edge"><title>Node21&#45;&gt;Node5</title>
<path fill="none" stroke="midnightblue" d="M511.307,-112.083C511.307,-105.006 511.307,-94.8611 511.307,-85.9865"/>
<polygon fill="midnightblue" stroke="midnightblue" points="514.807,-85.751 511.307,-75.7511 507.807,-85.7511 514.807,-85.751"/>
</g>
<!-- Node21&#45;&gt;Node20 -->
<g id="edge25" class="edge"><title>Node21&#45;&gt;Node20</title>
<path fill="none" stroke="midnightblue" d="M546.959,-112.444C589.314,-102.278 659.509,-85.4315 701.493,-75.3552"/>
<polygon fill="midnightblue" stroke="midnightblue" points="702.365,-78.7456 711.272,-73.0084 700.731,-71.9389 702.365,-78.7456"/>
</g>
<!-- Node21&#45;&gt;Node19 -->
<g id="edge26" class="edge"><title>Node21&#45;&gt;Node19</title>
<path fill="none" stroke="midnightblue" d="M534.758,-112.444C559.439,-103.438 598.492,-89.1891 626.283,-79.049"/>
<polygon fill="midnightblue" stroke="midnightblue" points="627.771,-82.2321 635.965,-75.5164 625.371,-75.6561 627.771,-82.2321"/>
</g>
<!-- Node21&#45;&gt;Node11 -->
<g id="edge27" class="edge"><title>Node21&#45;&gt;Node11</title>
<path fill="none" stroke="midnightblue" d="M521.586,-112.368C543.779,-93.7334 596.418,-49.5324 624.284,-26.1338"/>
<polygon fill="midnightblue" stroke="midnightblue" points="626.668,-28.7024 632.075,-19.5914 622.166,-23.3416 626.668,-28.7024"/>
</g>
<!-- Node21&#45;&gt;Node9 -->
<g id="edge28" class="edge"><title>Node21&#45;&gt;Node9</title>
<path fill="none" stroke="midnightblue" d="M562.645,-112.444C620.114,-102.865 713.173,-87.3556 774.307,-77.1667"/>
<polygon fill="midnightblue" stroke="midnightblue" points="774.92,-80.6129 784.208,-75.5164 773.769,-73.7081 774.92,-80.6129"/>
</g>
<!-- Node23 -->
<g id="node23" class="node"><title>Node23</title>
<g id="a_node23"><a xlink:href="../../db/d70/eventchat_8h.xhtml" target="_top" xlink:title="eventchat.h">
<polygon fill="white" stroke="black" points="19.3067,-168.5 19.3067,-187.5 85.3067,-187.5 85.3067,-168.5 19.3067,-168.5"/>
<text text-anchor="middle" x="52.3067" y="-175.5" font-family="Helvetica,sans-Serif" font-size="10.00">eventchat.h</text>
</a>
</g>
</g>
<!-- Node22&#45;&gt;Node23 -->
<g id="edge30" class="edge"><title>Node22&#45;&gt;Node23</title>
<path fill="none" stroke="midnightblue" d="M322.758,-230.367C269.156,-220.926 180.93,-205.09 95.6085,-188.217"/>
<polygon fill="midnightblue" stroke="midnightblue" points="96.249,-184.776 85.7588,-186.262 94.8859,-191.642 96.249,-184.776"/>
</g>
<!-- Node24 -->
<g id="node24" class="node"><title>Node24</title>
<g id="a_node24"><a xlink:href="../../d5/d02/eventuserjoin_8h.xhtml" target="_top" xlink:title="eventuserjoin.h">
<polygon fill="white" stroke="black" points="103.807,-168.5 103.807,-187.5 184.807,-187.5 184.807,-168.5 103.807,-168.5"/>
<text text-anchor="middle" x="144.307" y="-175.5" font-family="Helvetica,sans-Serif" font-size="10.00">eventuserjoin.h</text>
</a>
</g>
</g>
<!-- Node22&#45;&gt;Node24 -->
<g id="edge32" class="edge"><title>Node22&#45;&gt;Node24</title>
<path fill="none" stroke="midnightblue" d="M322.553,-225.907C281.898,-215.208 225.058,-200.25 186.58,-190.124"/>
<polygon fill="midnightblue" stroke="midnightblue" points="187.29,-186.692 176.729,-187.532 185.509,-193.462 187.29,-186.692"/>
</g>
<!-- Node25 -->
<g id="node25" class="node"><title>Node25</title>
<g id="a_node25"><a xlink:href="../../d7/d56/eventuserleave_8h.xhtml" target="_top" xlink:title="eventuserleave.h">
<polygon fill="white" stroke="black" points="203.307,-168.5 203.307,-187.5 291.307,-187.5 291.307,-168.5 203.307,-168.5"/>
<text text-anchor="middle" x="247.307" y="-175.5" font-family="Helvetica,sans-Serif" font-size="10.00">eventuserleave.h</text>
</a>
</g>
</g>
<!-- Node22&#45;&gt;Node25 -->
<g id="edge34" class="edge"><title>Node22&#45;&gt;Node25</title>
<path fill="none" stroke="midnightblue" d="M343,-224.933C322.287,-214.991 294.724,-201.76 274.5,-192.053"/>
<polygon fill="midnightblue" stroke="midnightblue" points="275.753,-188.772 265.223,-187.6 272.724,-195.083 275.753,-188.772"/>
</g>
<!-- Node26 -->
<g id="node26" class="node"><title>Node26</title>
<g id="a_node26"><a xlink:href="../../db/db0/eventuserchangestatus_8h.xhtml" target="_top" xlink:title="eventuserchangestatus.h">
<polygon fill="white" stroke="black" points="309.807,-168.5 309.807,-187.5 434.807,-187.5 434.807,-168.5 309.807,-168.5"/>
<text text-anchor="middle" x="372.307" y="-175.5" font-family="Helvetica,sans-Serif" font-size="10.00">eventuserchangestatus.h</text>
</a>
</g>
</g>
<!-- Node22&#45;&gt;Node26 -->
<g id="edge36" class="edge"><title>Node22&#45;&gt;Node26</title>
<path fill="none" stroke="midnightblue" d="M372.307,-224.781C372.307,-216.781 372.307,-206.689 372.307,-198.017"/>
<polygon fill="midnightblue" stroke="midnightblue" points="375.807,-197.73 372.307,-187.731 368.807,-197.731 375.807,-197.73"/>
</g>
<!-- Node27 -->
<g id="node27" class="node"><title>Node27</title>
<g id="a_node27"><a xlink:href="../../d8/d44/eventuserchangenick_8h.xhtml" target="_top" xlink:title="eventuserchangenick.h">
<polygon fill="white" stroke="black" points="453.307,-168.5 453.307,-187.5 569.307,-187.5 569.307,-168.5 453.307,-168.5"/>
<text text-anchor="middle" x="511.307" y="-175.5" font-family="Helvetica,sans-Serif" font-size="10.00">eventuserchangenick.h</text>
</a>
</g>
</g>
<!-- Node22&#45;&gt;Node27 -->
<g id="edge38" class="edge"><title>Node22&#45;&gt;Node27</title>
<path fill="none" stroke="midnightblue" d="M404.896,-224.933C428.242,-214.855 459.417,-201.399 481.984,-191.657"/>
<polygon fill="midnightblue" stroke="midnightblue" points="483.589,-194.777 491.383,-187.6 480.815,-188.35 483.589,-194.777"/>
</g>
<!-- Node28 -->
<g id="node28" class="node"><title>Node28</title>
<g id="a_node28"><a xlink:href="../../da/d66/eventservermessage_8h.xhtml" target="_top" xlink:title="eventservermessage.h">
<polygon fill="white" stroke="black" points="587.807,-168.5 587.807,-187.5 700.807,-187.5 700.807,-168.5 587.807,-168.5"/>
<text text-anchor="middle" x="644.307" y="-175.5" font-family="Helvetica,sans-Serif" font-size="10.00">eventservermessage.h</text>
</a>
</g>
</g>
<!-- Node22&#45;&gt;Node28 -->
<g id="edge40" class="edge"><title>Node22&#45;&gt;Node28</title>
<path fill="none" stroke="midnightblue" d="M421.879,-228.065C471.233,-217.178 546.516,-200.571 595.574,-189.75"/>
<polygon fill="midnightblue" stroke="midnightblue" points="596.614,-193.105 605.625,-187.533 595.106,-186.269 596.614,-193.105"/>
</g>
<!-- Node23&#45;&gt;Node21 -->
<g id="edge31" class="edge"><title>Node23&#45;&gt;Node21</title>
<path fill="none" stroke="midnightblue" d="M85.7185,-169.514C88.6162,-168.964 91.5089,-168.449 94.3067,-168 216.81,-148.319 360.977,-134.901 443.697,-128.128"/>
<polygon fill="midnightblue" stroke="midnightblue" points="444.037,-131.612 453.721,-127.316 443.471,-124.635 444.037,-131.612"/>
</g>
<!-- Node24&#45;&gt;Node21 -->
<g id="edge33" class="edge"><title>Node24&#45;&gt;Node21</title>
<path fill="none" stroke="midnightblue" d="M184.944,-169.555C188.11,-169.015 191.259,-168.49 194.307,-168 280.131,-154.189 379.393,-140.459 443.649,-131.865"/>
<polygon fill="midnightblue" stroke="midnightblue" points="444.205,-135.322 453.654,-130.531 443.279,-128.383 444.205,-135.322"/>
</g>
<!-- Node25&#45;&gt;Node21 -->
<g id="edge35" class="edge"><title>Node25&#45;&gt;Node21</title>
<path fill="none" stroke="midnightblue" d="M289.138,-168.444C335.386,-158.984 409.919,-143.738 459.742,-133.547"/>
<polygon fill="midnightblue" stroke="midnightblue" points="460.575,-136.949 469.671,-131.516 459.172,-130.091 460.575,-136.949"/>
</g>
<!-- Node26&#45;&gt;Node21 -->
<g id="edge37" class="edge"><title>Node26&#45;&gt;Node21</title>
<path fill="none" stroke="midnightblue" d="M394.332,-168.444C417.411,-159.478 453.869,-145.314 479.948,-135.183"/>
<polygon fill="midnightblue" stroke="midnightblue" points="481.331,-138.4 489.385,-131.516 478.796,-131.875 481.331,-138.4"/>
</g>
<!-- Node27&#45;&gt;Node21 -->
<g id="edge39" class="edge"><title>Node27&#45;&gt;Node21</title>
<path fill="none" stroke="midnightblue" d="M511.307,-168.083C511.307,-161.006 511.307,-150.861 511.307,-141.986"/>
<polygon fill="midnightblue" stroke="midnightblue" points="514.807,-141.751 511.307,-131.751 507.807,-141.751 514.807,-141.751"/>
</g>
<!-- Node28&#45;&gt;Node21 -->
<g id="edge41" class="edge"><title>Node28&#45;&gt;Node21</title>
<path fill="none" stroke="midnightblue" d="M623.232,-168.444C601.247,-159.517 566.572,-145.439 541.643,-135.317"/>
<polygon fill="midnightblue" stroke="midnightblue" points="542.864,-132.035 532.282,-131.516 540.231,-138.521 542.864,-132.035"/>
</g>
<!-- Node30&#45;&gt;Node9 -->
<g id="edge44" class="edge"><title>Node30&#45;&gt;Node9</title>
<path fill="none" stroke="midnightblue" d="M1240.54,-348.33C1251.38,-329.504 1275.31,-283.179 1275.31,-241 1275.31,-241 1275.31,-241 1275.31,-177 1275.31,-100.203 1019.84,-76.5743 898.227,-69.6767"/>
<polygon fill="midnightblue" stroke="midnightblue" points="898.12,-66.1657 887.944,-69.1153 897.738,-73.1553 898.12,-66.1657"/>
</g>
<!-- Node31 -->
<g id="node31" class="node"><title>Node31</title>
<polygon fill="white" stroke="#bfbfbf" points="1382.81,-292.5 1382.81,-311.5 1437.81,-311.5 1437.81,-292.5 1382.81,-292.5"/>
<text text-anchor="middle" x="1410.31" y="-299.5" font-family="Helvetica,sans-Serif" font-size="10.00">QWidget</text>
</g>
<!-- Node30&#45;&gt;Node31 -->
<g id="edge45" class="edge"><title>Node30&#45;&gt;Node31</title>
<path fill="none" stroke="midnightblue" d="M1263.04,-348.444C1292.73,-339.28 1340.02,-324.688 1372.98,-314.519"/>
<polygon fill="midnightblue" stroke="midnightblue" points="1374.18,-317.809 1382.71,-311.516 1372.12,-311.121 1374.18,-317.809"/>
</g>
<!-- Node32&#45;&gt;Node31 -->
<g id="edge47" class="edge"><title>Node32&#45;&gt;Node31</title>
<path fill="none" stroke="midnightblue" d="M1359.95,-348.324C1368.82,-340.341 1382.18,-328.313 1392.91,-318.653"/>
<polygon fill="midnightblue" stroke="midnightblue" points="1395.4,-321.125 1400.49,-311.834 1390.72,-315.922 1395.4,-321.125"/>
</g>
<!-- Node33&#45;&gt;Node31 -->
<g id="edge49" class="edge"><title>Node33&#45;&gt;Node31</title>
<path fill="none" stroke="midnightblue" d="M1443.7,-348.083C1438.05,-340.455 1429.76,-329.264 1422.86,-319.941"/>
<polygon fill="midnightblue" stroke="midnightblue" points="1425.55,-317.703 1416.79,-311.751 1419.93,-321.87 1425.55,-317.703"/>
</g>
<!-- Node34&#45;&gt;Node31 -->
<g id="edge51" class="edge"><title>Node34&#45;&gt;Node31</title>
<path fill="none" stroke="midnightblue" d="M1520.55,-348.444C1498.99,-339.557 1465.04,-325.563 1440.51,-315.451"/>
<polygon fill="midnightblue" stroke="midnightblue" points="1441.55,-312.092 1430.97,-311.516 1438.88,-318.563 1441.55,-312.092"/>
</g>
</g>
</svg>
        <g id="navigator" transform="translate(0 0)" fill="#404254">
                <rect fill="#f2f5e9" fill-opacity="0.5" stroke="#606060" stroke-width=".5" x="0" y="0" width="60" height="60"/>
                <use id="zoomplus" xlink:href="#zoomPlus" x="17" y="9" onmousedown="handleZoom(evt,'in')"/>
                <use id="zoomminus" xlink:href="#zoomMin" x="42" y="9" onmousedown="handleZoom(evt,'out')"/>
                <use id="reset" xlink:href="#resetDef" x="30" y="36" onmousedown="handleReset()"/>
                <g id="arrowUp" xlink:href="#dirArrow" transform="translate(30 24)" onmousedown="handlePan(0,-1)">
                  <use xlink:href="#rim" fill="#404040">
                        <set attributeName="fill" to="#808080" begin="arrowUp.mouseover" end="arrowUp.mouseout"/>
                  </use>
                  <path fill="none" stroke="white" stroke-width="1.5" d="M0,-3.0v7 M-2.5,-0.5L0,-3.0L2.5,-0.5"/>
                </g>
                <g id="arrowRight" xlink:href="#dirArrow" transform="rotate(90) translate(36 -43)" onmousedown="handlePan(1,0)">
                  <use xlink:href="#rim" fill="#404040">
                        <set attributeName="fill" to="#808080" begin="arrowRight.mouseover" end="arrowRight.mouseout"/>
                  </use>
                  <path fill="none" stroke="white" stroke-width="1.5" d="M0,-3.0v7 M-2.5,-0.5L0,-3.0L2.5,-0.5"/>
                </g>
                <g id="arrowDown" xlink:href="#dirArrow" transform="rotate(180) translate(-30 -48)" onmousedown="handlePan(0,1)">
                  <use xlink:href="#rim" fill="#404040">
                        <set attributeName="fill" to="#808080" begin="arrowDown.mouseover" end="arrowDown.mouseout"/>
                  </use>
                  <path fill="none" stroke="white" stroke-width="1.5" d="M0,-3.0v7 M-2.5,-0.5L0,-3.0L2.5,-0.5"/>
                </g>
                <g id="arrowLeft" xlink:href="#dirArrow" transform="rotate(270) translate(-36 17)" onmousedown="handlePan(-1,0)">
                  <use xlink:href="#rim" fill="#404040">
                        <set attributeName="fill" to="#808080" begin="arrowLeft.mouseover" end="arrowLeft.mouseout"/>
                  </use>
                  <path fill="none" stroke="white" stroke-width="1.5" d="M0,-3.0v7 M-2.5,-0.5L0,-3.0L2.5,-0.5"/>
                </g>
        </g>
        <svg viewBox="0 0 15 15" width="100%" height="30px" preserveAspectRatio="xMaxYMin meet">
         <g id="arrow_out" transform="scale(0.3 0.3)">
          <a xlink:href="roomba_8cpp__incl_org.svg" target="_base">
           <rect id="button" ry="5" rx="5" y="6" x="6" height="38" width="38"
                fill="#f2f5e9" fill-opacity="0.5" stroke="#606060" stroke-width="1.0"/>
           <path id="arrow"
             d="M 11.500037,31.436501 C 11.940474,20.09759 22.043105,11.32322 32.158766,21.979434 L 37.068811,17.246167 C 37.068811,17.246167 37.088388,32 37.088388,32 L 22.160133,31.978069 C 22.160133,31.978069 26.997745,27.140456 26.997745,27.140456 C 18.528582,18.264221 13.291696,25.230495 11.500037,31.436501 z"
             style="fill:#404040;"/>
          </a>
         </g>
        </svg>
</svg>
