<?xml version="1.0" encoding="UTF-8" standalone="no"?>
<!DOCTYPE svg PUBLIC "-//W3C//DTD SVG 1.1//EN"
 "http://www.w3.org/Graphics/SVG/1.1/DTD/svg11.dtd">
<!-- Generated by graphviz version 2.30.1 (20130214.1330)
 -->
<!-- Title: tcpCapsule_Actor Pages: 1 -->
<svg width="173pt" height="154pt"
 viewBox="0.00 0.00 173.00 154.00" xmlns="http://www.w3.org/2000/svg" xmlns:xlink="http://www.w3.org/1999/xlink">
<g id="graph0" class="graph" transform="scale(1 1) rotate(0) translate(4 150)">
<title>tcpCapsule_Actor</title>
<polygon fill="white" stroke="white" points="-4,5 -4,-150 170,-150 170,5 -4,5"/>
<!-- Node1 -->
<g id="node1" class="node"><title>Node1</title>
<polygon fill="#bfbfbf" stroke="black" points="10,-0.5 10,-19.5 104,-19.5 104,-0.5 10,-0.5"/>
<text text-anchor="middle" x="57" y="-7.5" font-family="Helvetica,sans-Serif" font-size="10.00">tcpCapsule_Actor</text>
</g>
<!-- Node2 -->
<g id="node2" class="node"><title>Node2</title>
<polygon fill="white" stroke="#bfbfbf" points="0,-68.5 0,-87.5 52,-87.5 52,-68.5 0,-68.5"/>
<text text-anchor="middle" x="26" y="-75.5" font-family="Helvetica,sans-Serif" font-size="10.00">RTActor</text>
</g>
<!-- Node2&#45;&gt;Node1 -->
<g id="edge1" class="edge"><title>Node2&#45;&gt;Node1</title>
<path fill="none" stroke="midnightblue" d="M34.3672,-59.1859C40.3482,-46.4523 48.1412,-29.8607 52.8474,-19.8411"/>
<polygon fill="midnightblue" stroke="midnightblue" points="31.1362,-57.8324 30.0527,-68.3717 37.4721,-60.8083 31.1362,-57.8324"/>
</g>
<!-- Node3 -->
<g id="node3" class="node"><title>Node3</title>
<g id="a_node3"><a xlink:href="../../d3/df1/classtcp_protocol_1_1_base.xhtml" target="_top" xlink:title="tcpProtocol::Base">
<polygon fill="white" stroke="black" points="70.5,-68.5 70.5,-87.5 165.5,-87.5 165.5,-68.5 70.5,-68.5"/>
<text text-anchor="middle" x="118" y="-75.5" font-family="Helvetica,sans-Serif" font-size="10.00">tcpProtocol::Base</text>
</a>
</g>
</g>
<!-- Node3&#45;&gt;Node1 -->
<g id="edge2" class="edge"><title>Node3&#45;&gt;Node1</title>
<path fill="none" stroke="#9a32cd" stroke-dasharray="5,2" d="M102.916,-60.68C90.9907,-47.7768 74.7986,-30.2575 65.1713,-19.8411"/>
<polygon fill="#9a32cd" stroke="#9a32cd" points="100.668,-63.4035 110.025,-68.3717 105.808,-58.6523 100.668,-63.4035"/>
<text text-anchor="middle" x="128.5" y="-41.5" font-family="Helvetica,sans-Serif" font-size="10.00"> mainConnection</text>
</g>
<!-- Node4 -->
<g id="node4" class="node"><title>Node4</title>
<polygon fill="white" stroke="#bfbfbf" points="75.5,-126.5 75.5,-145.5 160.5,-145.5 160.5,-126.5 75.5,-126.5"/>
<text text-anchor="middle" x="118" y="-133.5" font-family="Helvetica,sans-Serif" font-size="10.00">RTRootProtocol</text>
</g>
<!-- Node4&#45;&gt;Node3 -->
<g id="edge3" class="edge"><title>Node4&#45;&gt;Node3</title>
<path fill="none" stroke="midnightblue" d="M118,-115.953C118,-106.287 118,-95.0312 118,-87.5052"/>
<polygon fill="midnightblue" stroke="midnightblue" points="114.5,-116.25 118,-126.25 121.5,-116.25 114.5,-116.25"/>
</g>
</g>
</svg>
