<?xml version="1.0" encoding="UTF-8" standalone="no"?>
<!DOCTYPE svg PUBLIC "-//W3C//DTD SVG 1.1//EN"
 "http://www.w3.org/Graphics/SVG/1.1/DTD/svg11.dtd">
<!-- Generated by graphviz version 2.30.1 (20130214.1330)
 -->
<!-- Title: GUI/roombagui&#45;build&#45;Desktop_Qt_5_0_1_MSVC2010_32bit&#45;Debug/ui_controllingroomba.h Pages: 1 -->
<svg width="1426pt" height="106pt"
 viewBox="0.00 0.00 1426.00 106.00" xmlns="http://www.w3.org/2000/svg" xmlns:xlink="http://www.w3.org/1999/xlink">
<g id="graph0" class="graph" transform="scale(1 1) rotate(0) translate(4 102)">
<title>GUI/roombagui&#45;build&#45;Desktop_Qt_5_0_1_MSVC2010_32bit&#45;Debug/ui_controllingroomba.h</title>
<polygon fill="white" stroke="white" points="-4,5 -4,-102 1423,-102 1423,5 -4,5"/>
<!-- Node1 -->
<g id="node1" class="node"><title>Node1</title>
<polygon fill="#bfbfbf" stroke="black" points="625,-56.5 625,-97.5 799,-97.5 799,-56.5 625,-56.5"/>
<text text-anchor="start" x="633" y="-85.5" font-family="Helvetica,sans-Serif" font-size="10.00">GUI/roombagui&#45;build</text>
<text text-anchor="start" x="633" y="-74.5" font-family="Helvetica,sans-Serif" font-size="10.00">&#45;Desktop_Qt_5_0_1_MSVC2010</text>
<text text-anchor="middle" x="712" y="-63.5" font-family="Helvetica,sans-Serif" font-size="10.00">_32bit&#45;Debug/ui_controllingroomba.h</text>
</g>
<!-- Node2 -->
<g id="node2" class="node"><title>Node2</title>
<polygon fill="white" stroke="#bfbfbf" points="-0.5,-0.5 -0.5,-19.5 88.5,-19.5 88.5,-0.5 -0.5,-0.5"/>
<text text-anchor="middle" x="44" y="-7.5" font-family="Helvetica,sans-Serif" font-size="10.00">QtCore/QVariant</text>
</g>
<!-- Node1&#45;&gt;Node2 -->
<g id="edge1" class="edge"><title>Node1&#45;&gt;Node2</title>
<path fill="none" stroke="midnightblue" d="M624.942,-70.2049C507.61,-61.9172 292.039,-45.0113 98.8393,-20.1587"/>
<polygon fill="midnightblue" stroke="midnightblue" points="99.1498,-16.6698 88.7828,-18.8552 98.2499,-23.6117 99.1498,-16.6698"/>
</g>
<!-- Node3 -->
<g id="node3" class="node"><title>Node3</title>
<polygon fill="white" stroke="#bfbfbf" points="106.5,-0.5 106.5,-19.5 207.5,-19.5 207.5,-0.5 106.5,-0.5"/>
<text text-anchor="middle" x="157" y="-7.5" font-family="Helvetica,sans-Serif" font-size="10.00">QtWidgets/QAction</text>
</g>
<!-- Node1&#45;&gt;Node3 -->
<g id="edge2" class="edge"><title>Node1&#45;&gt;Node3</title>
<path fill="none" stroke="midnightblue" d="M624.702,-67.0906C527.939,-56.9956 366.985,-39.5544 217.973,-20.0853"/>
<polygon fill="midnightblue" stroke="midnightblue" points="218.091,-16.5709 207.721,-18.7401 217.18,-23.5115 218.091,-16.5709"/>
</g>
<!-- Node4 -->
<g id="node4" class="node"><title>Node4</title>
<polygon fill="white" stroke="#bfbfbf" points="226,-0.5 226,-19.5 348,-19.5 348,-0.5 226,-0.5"/>
<text text-anchor="middle" x="287" y="-7.5" font-family="Helvetica,sans-Serif" font-size="10.00">QtWidgets/QApplication</text>
</g>
<!-- Node1&#45;&gt;Node4 -->
<g id="edge3" class="edge"><title>Node1&#45;&gt;Node4</title>
<path fill="none" stroke="midnightblue" d="M624.969,-62.6894C544.254,-50.3447 425.911,-32.2452 352.807,-21.0645"/>
<polygon fill="midnightblue" stroke="midnightblue" points="353.214,-17.5863 342.8,-19.5341 352.156,-24.5058 353.214,-17.5863"/>
</g>
<!-- Node5 -->
<g id="node5" class="node"><title>Node5</title>
<polygon fill="white" stroke="#bfbfbf" points="366,-0.5 366,-19.5 494,-19.5 494,-0.5 366,-0.5"/>
<text text-anchor="middle" x="430" y="-7.5" font-family="Helvetica,sans-Serif" font-size="10.00">QtWidgets/QButtonGroup</text>
</g>
<!-- Node1&#45;&gt;Node5 -->
<g id="edge4" class="edge"><title>Node1&#45;&gt;Node5</title>
<path fill="none" stroke="midnightblue" d="M627.391,-56.4979C578.185,-45.1561 518.01,-31.2859 477.128,-21.8627"/>
<polygon fill="midnightblue" stroke="midnightblue" points="477.699,-18.4026 467.168,-19.5671 476.126,-25.2238 477.699,-18.4026"/>
</g>
<!-- Node6 -->
<g id="node6" class="node"><title>Node6</title>
<polygon fill="white" stroke="#bfbfbf" points="512.5,-0.5 512.5,-19.5 631.5,-19.5 631.5,-0.5 512.5,-0.5"/>
<text text-anchor="middle" x="572" y="-7.5" font-family="Helvetica,sans-Serif" font-size="10.00">QtWidgets/QCheckBox</text>
</g>
<!-- Node1&#45;&gt;Node6 -->
<g id="edge5" class="edge"><title>Node1&#45;&gt;Node6</title>
<path fill="none" stroke="midnightblue" d="M669.995,-56.4979C647.292,-45.9572 619.886,-33.2326 599.835,-23.9235"/>
<polygon fill="midnightblue" stroke="midnightblue" points="601.18,-20.6891 590.636,-19.6525 598.232,-27.0382 601.18,-20.6891"/>
</g>
<!-- Node7 -->
<g id="node7" class="node"><title>Node7</title>
<polygon fill="white" stroke="#bfbfbf" points="649.5,-0.5 649.5,-19.5 774.5,-19.5 774.5,-0.5 649.5,-0.5"/>
<text text-anchor="middle" x="712" y="-7.5" font-family="Helvetica,sans-Serif" font-size="10.00">QtWidgets/QHeaderView</text>
</g>
<!-- Node1&#45;&gt;Node7 -->
<g id="edge6" class="edge"><title>Node1&#45;&gt;Node7</title>
<path fill="none" stroke="midnightblue" d="M712,-56.4979C712,-48.0653 712,-38.2351 712,-29.874"/>
<polygon fill="midnightblue" stroke="midnightblue" points="715.5,-29.6525 712,-19.6525 708.5,-29.6525 715.5,-29.6525"/>
</g>
<!-- Node8 -->
<g id="node8" class="node"><title>Node8</title>
<polygon fill="white" stroke="#bfbfbf" points="792.5,-0.5 792.5,-19.5 889.5,-19.5 889.5,-0.5 792.5,-0.5"/>
<text text-anchor="middle" x="841" y="-7.5" font-family="Helvetica,sans-Serif" font-size="10.00">QtWidgets/QLabel</text>
</g>
<!-- Node1&#45;&gt;Node8 -->
<g id="edge7" class="edge"><title>Node1&#45;&gt;Node8</title>
<path fill="none" stroke="midnightblue" d="M750.704,-56.4979C771.433,-46.053 796.418,-33.4638 814.846,-24.1782"/>
<polygon fill="midnightblue" stroke="midnightblue" points="816.473,-27.278 823.828,-19.6525 813.323,-21.0267 816.473,-27.278"/>
</g>
<!-- Node9 -->
<g id="node9" class="node"><title>Node9</title>
<polygon fill="white" stroke="#bfbfbf" points="908,-0.5 908,-19.5 1036,-19.5 1036,-0.5 908,-0.5"/>
<text text-anchor="middle" x="972" y="-7.5" font-family="Helvetica,sans-Serif" font-size="10.00">QtWidgets/QProgressBar</text>
</g>
<!-- Node1&#45;&gt;Node9 -->
<g id="edge8" class="edge"><title>Node1&#45;&gt;Node9</title>
<path fill="none" stroke="midnightblue" d="M790.009,-56.4979C834.991,-45.2522 889.917,-31.5208 927.587,-22.1033"/>
<polygon fill="midnightblue" stroke="midnightblue" points="928.879,-25.388 937.732,-19.5671 927.181,-18.597 928.879,-25.388"/>
</g>
<!-- Node10 -->
<g id="node10" class="node"><title>Node10</title>
<polygon fill="white" stroke="#bfbfbf" points="1054.5,-0.5 1054.5,-19.5 1179.5,-19.5 1179.5,-0.5 1054.5,-0.5"/>
<text text-anchor="middle" x="1117" y="-7.5" font-family="Helvetica,sans-Serif" font-size="10.00">QtWidgets/QPushButton</text>
</g>
<!-- Node1&#45;&gt;Node10 -->
<g id="edge9" class="edge"><title>Node1&#45;&gt;Node10</title>
<path fill="none" stroke="midnightblue" d="M799.38,-61.976C875.91,-49.6935 985.287,-32.1392 1053.66,-21.1651"/>
<polygon fill="midnightblue" stroke="midnightblue" points="1054.54,-24.5692 1063.86,-19.5287 1053.43,-17.6576 1054.54,-24.5692"/>
</g>
<!-- Node11 -->
<g id="node11" class="node"><title>Node11</title>
<polygon fill="white" stroke="#bfbfbf" points="1198,-0.5 1198,-19.5 1296,-19.5 1296,-0.5 1198,-0.5"/>
<text text-anchor="middle" x="1247" y="-7.5" font-family="Helvetica,sans-Serif" font-size="10.00">QtWidgets/QSlider</text>
</g>
<!-- Node1&#45;&gt;Node11 -->
<g id="edge10" class="edge"><title>Node1&#45;&gt;Node11</title>
<path fill="none" stroke="midnightblue" d="M799.408,-66.6253C892.73,-56.4093 1045.21,-39.1256 1187.53,-20.0186"/>
<polygon fill="midnightblue" stroke="midnightblue" points="1188.32,-23.4443 1197.76,-18.6398 1187.38,-16.5071 1188.32,-23.4443"/>
</g>
<!-- Node12 -->
<g id="node12" class="node"><title>Node12</title>
<polygon fill="white" stroke="#bfbfbf" points="1314,-0.5 1314,-19.5 1418,-19.5 1418,-0.5 1314,-0.5"/>
<text text-anchor="middle" x="1366" y="-7.5" font-family="Helvetica,sans-Serif" font-size="10.00">QtWidgets/QWidget</text>
</g>
<!-- Node1&#45;&gt;Node12 -->
<g id="edge11" class="edge"><title>Node1&#45;&gt;Node12</title>
<path fill="none" stroke="midnightblue" d="M799.071,-69.2125C912.77,-60.0268 1118.22,-42.3265 1303.84,-20.0861"/>
<polygon fill="midnightblue" stroke="midnightblue" points="1304.27,-23.5592 1313.78,-18.888 1303.43,-16.6094 1304.27,-23.5592"/>
</g>
</g>
</svg>
