<?xml version="1.0" encoding="UTF-8" standalone="no"?>
<!DOCTYPE svg PUBLIC "-//W3C//DTD SVG 1.1//EN"
 "http://www.w3.org/Graphics/SVG/1.1/DTD/svg11.dtd">
<!-- Generated by graphviz version 2.30.1 (20130214.1330)
 -->
<!-- Title: tcpTopCapsule_Actor Pages: 1 -->
<svg width="316pt" height="154pt"
 viewBox="0.00 0.00 316.00 154.00" xmlns="http://www.w3.org/2000/svg" xmlns:xlink="http://www.w3.org/1999/xlink">
<g id="graph0" class="graph" transform="scale(1 1) rotate(0) translate(4 150)">
<title>tcpTopCapsule_Actor</title>
<polygon fill="white" stroke="white" points="-4,5 -4,-150 313,-150 313,5 -4,5"/>
<!-- Node1 -->
<g id="node1" class="node"><title>Node1</title>
<polygon fill="#bfbfbf" stroke="black" points="65,-0.5 65,-19.5 175,-19.5 175,-0.5 65,-0.5"/>
<text text-anchor="middle" x="120" y="-7.5" font-family="Helvetica,sans-Serif" font-size="10.00">tcpTopCapsule_Actor</text>
</g>
<!-- Node2 -->
<g id="node2" class="node"><title>Node2</title>
<polygon fill="white" stroke="#bfbfbf" points="0,-68.5 0,-87.5 52,-87.5 52,-68.5 0,-68.5"/>
<text text-anchor="middle" x="26" y="-75.5" font-family="Helvetica,sans-Serif" font-size="10.00">RTActor</text>
</g>
<!-- Node2&#45;&gt;Node1 -->
<g id="edge1" class="edge"><title>Node2&#45;&gt;Node1</title>
<path fill="none" stroke="midnightblue" d="M46.7154,-62.4551C65.3902,-49.3431 92.225,-30.5016 107.708,-19.6305"/>
<polygon fill="midnightblue" stroke="midnightblue" points="44.4618,-59.7609 38.2889,-68.3717 48.4842,-65.4898 44.4618,-59.7609"/>
</g>
<!-- Node3 -->
<g id="node3" class="node"><title>Node3</title>
<g id="a_node3"><a xlink:href="../../da/d9e/classjson_protocol_1_1_base.xhtml" target="_top" xlink:title="jsonProtocol::Base">
<polygon fill="white" stroke="black" points="70.5,-68.5 70.5,-87.5 169.5,-87.5 169.5,-68.5 70.5,-68.5"/>
<text text-anchor="middle" x="120" y="-75.5" font-family="Helvetica,sans-Serif" font-size="10.00">jsonProtocol::Base</text>
</a>
</g>
</g>
<!-- Node3&#45;&gt;Node1 -->
<g id="edge2" class="edge"><title>Node3&#45;&gt;Node1</title>
<path fill="none" stroke="#9a32cd" stroke-dasharray="5,2" d="M120,-58.0413C120,-45.4724 120,-29.5631 120,-19.8411"/>
<polygon fill="#9a32cd" stroke="#9a32cd" points="116.5,-58.3716 120,-68.3717 123.5,-58.3717 116.5,-58.3716"/>
<text text-anchor="middle" x="158" y="-41.5" font-family="Helvetica,sans-Serif" font-size="10.00"> externalJsonPort</text>
</g>
<!-- Node4 -->
<g id="node4" class="node"><title>Node4</title>
<polygon fill="white" stroke="#bfbfbf" points="153.5,-126.5 153.5,-145.5 238.5,-145.5 238.5,-126.5 153.5,-126.5"/>
<text text-anchor="middle" x="196" y="-133.5" font-family="Helvetica,sans-Serif" font-size="10.00">RTRootProtocol</text>
</g>
<!-- Node4&#45;&gt;Node3 -->
<g id="edge3" class="edge"><title>Node4&#45;&gt;Node3</title>
<path fill="none" stroke="midnightblue" d="M176.314,-120.495C162.15,-110.058 143.522,-96.3321 131.651,-87.5852"/>
<polygon fill="midnightblue" stroke="midnightblue" points="174.33,-123.38 184.457,-126.495 178.483,-117.745 174.33,-123.38"/>
</g>
<!-- Node5 -->
<g id="node5" class="node"><title>Node5</title>
<g id="a_node5"><a xlink:href="../../de/d4e/classjson_protocol_1_1_conjugate.xhtml" target="_top" xlink:title="jsonProtocol::Conjugate">
<polygon fill="white" stroke="black" points="188,-68.5 188,-87.5 308,-87.5 308,-68.5 188,-68.5"/>
<text text-anchor="middle" x="248" y="-75.5" font-family="Helvetica,sans-Serif" font-size="10.00">jsonProtocol::Conjugate</text>
</a>
</g>
</g>
<!-- Node4&#45;&gt;Node5 -->
<g id="edge5" class="edge"><title>Node4&#45;&gt;Node5</title>
<path fill="none" stroke="midnightblue" d="M211.099,-118.739C220.583,-108.526 232.43,-95.7674 240.102,-87.5052"/>
<polygon fill="midnightblue" stroke="midnightblue" points="208.365,-116.54 204.125,-126.25 213.494,-121.304 208.365,-116.54"/>
</g>
<!-- Node5&#45;&gt;Node1 -->
<g id="edge4" class="edge"><title>Node5&#45;&gt;Node1</title>
<path fill="none" stroke="#9a32cd" stroke-dasharray="5,2" d="M231.909,-61.4765C223.054,-53.5939 211.543,-44.3648 200,-38 185.751,-30.1435 168.819,-24.024 154.208,-19.6122"/>
<polygon fill="#9a32cd" stroke="#9a32cd" points="229.777,-64.2721 239.499,-68.484 234.525,-59.1289 229.777,-64.2721"/>
<text text-anchor="middle" x="253.5" y="-41.5" font-family="Helvetica,sans-Serif" font-size="10.00"> internalJsonPort</text>
</g>
</g>
</svg>
