<?xml version="1.0" encoding="UTF-8" standalone="no"?>
<!DOCTYPE svg PUBLIC "-//W3C//DTD SVG 1.1//EN"
 "http://www.w3.org/Graphics/SVG/1.1/DTD/svg11.dtd">
<!-- Generated by graphviz version 2.30.1 (20130214.1330)
 -->
<!-- Title: Roomba Pages: 1 -->
<svg width="88pt" height="172pt"
 viewBox="0.00 0.00 88.00 172.00" xmlns="http://www.w3.org/2000/svg" xmlns:xlink="http://www.w3.org/1999/xlink">
<g id="graph0" class="graph" transform="scale(1 1) rotate(0) translate(4 168)">
<title>Roomba</title>
<polygon fill="white" stroke="white" points="-4,5 -4,-168 85,-168 85,5 -4,5"/>
<!-- Node1 -->
<g id="node1" class="node"><title>Node1</title>
<polygon fill="#bfbfbf" stroke="black" points="3,-1 3,-69 77,-69 77,-1 3,-1"/>
<text text-anchor="middle" x="40" y="-57" font-family="Helvetica,sans-Serif" font-size="10.00">Roomba</text>
<polyline fill="none" stroke="black" points="3,-50 77,-50 "/>
<text text-anchor="middle" x="40" y="-38" font-family="Helvetica,sans-Serif" font-size="10.00"> </text>
<polyline fill="none" stroke="black" points="3,-31 77,-31 "/>
<text text-anchor="start" x="11" y="-19" font-family="Helvetica,sans-Serif" font-size="10.00">+ Roomba()</text>
<text text-anchor="start" x="11" y="-8" font-family="Helvetica,sans-Serif" font-size="10.00">+ ~Roomba()</text>
</g>
<!-- Node2 -->
<g id="node2" class="node"><title>Node2</title>
<polygon fill="white" stroke="#bfbfbf" points="0,-106.5 0,-163.5 80,-163.5 80,-106.5 0,-106.5"/>
<text text-anchor="middle" x="40" y="-151.5" font-family="Helvetica,sans-Serif" font-size="10.00">QMainWindow</text>
<polyline fill="none" stroke="#bfbfbf" points="0,-144.5 80,-144.5 "/>
<text text-anchor="middle" x="40" y="-132.5" font-family="Helvetica,sans-Serif" font-size="10.00"> </text>
<polyline fill="none" stroke="#bfbfbf" points="0,-125.5 80,-125.5 "/>
<text text-anchor="middle" x="40" y="-113.5" font-family="Helvetica,sans-Serif" font-size="10.00"> </text>
</g>
<!-- Node2&#45;&gt;Node1 -->
<g id="edge1" class="edge"><title>Node2&#45;&gt;Node1</title>
<path fill="none" stroke="midnightblue" d="M40,-96.3023C40,-87.3951 40,-77.9608 40,-69.2659"/>
<polygon fill="none" stroke="midnightblue" points="36.5001,-96.4407 40,-106.441 43.5001,-96.4408 36.5001,-96.4407"/>
</g>
</g>
</svg>
