<?xml version="1.0" encoding="UTF-8" standalone="no"?>
<!DOCTYPE svg PUBLIC "-//W3C//DTD SVG 1.1//EN"
 "http://www.w3.org/Graphics/SVG/1.1/DTD/svg11.dtd">
<!-- Generated by graphviz version 2.30.1 (20130214.1330)
 -->
<!-- Title: Hoofdprogramma/include/reader.h Pages: 1 -->
<svg width="363pt" height="208pt"
 viewBox="0.00 0.00 363.00 208.00" xmlns="http://www.w3.org/2000/svg" xmlns:xlink="http://www.w3.org/1999/xlink">
<g id="graph0" class="graph" transform="scale(1 1) rotate(0) translate(4 204)">
<title>Hoofdprogramma/include/reader.h</title>
<polygon fill="white" stroke="white" points="-4,5 -4,-204 360,-204 360,5 -4,5"/>
<!-- Node1 -->
<g id="node1" class="node"><title>Node1</title>
<polygon fill="#bfbfbf" stroke="black" points="132,-169 132,-199 256,-199 256,-169 132,-169"/>
<text text-anchor="start" x="140" y="-187" font-family="Helvetica,sans-Serif" font-size="10.00">Hoofdprogramma/include</text>
<text text-anchor="middle" x="194" y="-176" font-family="Helvetica,sans-Serif" font-size="10.00">/reader.h</text>
</g>
<!-- Node2 -->
<g id="node2" class="node"><title>Node2</title>
<g id="a_node2"><a xlink:href="../../de/d47/features_8h.xhtml" target="_top" xlink:title="features.h">
<polygon fill="white" stroke="black" points="0.5,-112.5 0.5,-131.5 59.5,-131.5 59.5,-112.5 0.5,-112.5"/>
<text text-anchor="middle" x="30" y="-119.5" font-family="Helvetica,sans-Serif" font-size="10.00">features.h</text>
</a>
</g>
</g>
<!-- Node1&#45;&gt;Node2 -->
<g id="edge1" class="edge"><title>Node1&#45;&gt;Node2</title>
<path fill="none" stroke="midnightblue" d="M155.549,-168.933C127.51,-158.674 89.9005,-144.915 63.1743,-135.137"/>
<polygon fill="midnightblue" stroke="midnightblue" points="64.1005,-131.749 53.5067,-131.6 61.6954,-138.323 64.1005,-131.749"/>
</g>
<!-- Node5 -->
<g id="node5" class="node"><title>Node5</title>
<g id="a_node5"><a xlink:href="../../d4/d3f/value_8h.xhtml" target="_top" xlink:title="value.h">
<polygon fill="white" stroke="black" points="77.5,-112.5 77.5,-131.5 124.5,-131.5 124.5,-112.5 77.5,-112.5"/>
<text text-anchor="middle" x="101" y="-119.5" font-family="Helvetica,sans-Serif" font-size="10.00">value.h</text>
</a>
</g>
</g>
<!-- Node1&#45;&gt;Node5 -->
<g id="edge4" class="edge"><title>Node1&#45;&gt;Node5</title>
<path fill="none" stroke="midnightblue" d="M171.96,-168.781C157.103,-159.196 137.59,-146.606 122.786,-137.056"/>
<polygon fill="midnightblue" stroke="midnightblue" points="124.562,-134.036 114.261,-131.556 120.767,-139.918 124.562,-134.036"/>
</g>
<!-- Node9 -->
<g id="node9" class="node"><title>Node9</title>
<polygon fill="white" stroke="#bfbfbf" points="142.5,-112.5 142.5,-131.5 185.5,-131.5 185.5,-112.5 142.5,-112.5"/>
<text text-anchor="middle" x="164" y="-119.5" font-family="Helvetica,sans-Serif" font-size="10.00">deque</text>
</g>
<!-- Node1&#45;&gt;Node9 -->
<g id="edge9" class="edge"><title>Node1&#45;&gt;Node9</title>
<path fill="none" stroke="midnightblue" d="M186.89,-168.781C182.711,-160.422 177.389,-149.777 172.928,-140.856"/>
<polygon fill="midnightblue" stroke="midnightblue" points="175.968,-139.11 168.365,-131.731 169.707,-142.24 175.968,-139.11"/>
</g>
<!-- Node10 -->
<g id="node10" class="node"><title>Node10</title>
<polygon fill="white" stroke="#bfbfbf" points="203.5,-112.5 203.5,-131.5 244.5,-131.5 244.5,-112.5 203.5,-112.5"/>
<text text-anchor="middle" x="224" y="-119.5" font-family="Helvetica,sans-Serif" font-size="10.00">stack</text>
</g>
<!-- Node1&#45;&gt;Node10 -->
<g id="edge10" class="edge"><title>Node1&#45;&gt;Node10</title>
<path fill="none" stroke="midnightblue" d="M201.11,-168.781C205.289,-160.422 210.611,-149.777 215.072,-140.856"/>
<polygon fill="midnightblue" stroke="midnightblue" points="218.293,-142.24 219.635,-131.731 212.032,-139.11 218.293,-142.24"/>
</g>
<!-- Node6 -->
<g id="node6" class="node"><title>Node6</title>
<polygon fill="white" stroke="#bfbfbf" points="222.5,-56.5 222.5,-75.5 263.5,-75.5 263.5,-56.5 222.5,-56.5"/>
<text text-anchor="middle" x="243" y="-63.5" font-family="Helvetica,sans-Serif" font-size="10.00">string</text>
</g>
<!-- Node1&#45;&gt;Node6 -->
<g id="edge11" class="edge"><title>Node1&#45;&gt;Node6</title>
<path fill="none" stroke="midnightblue" d="M218.702,-168.904C231.5,-160.111 245.904,-147.514 253,-132 259.745,-117.253 255.928,-98.8617 251.192,-85.4092"/>
<polygon fill="midnightblue" stroke="midnightblue" points="254.333,-83.838 247.381,-75.8433 247.831,-86.4286 254.333,-83.838"/>
</g>
<!-- Node11 -->
<g id="node11" class="node"><title>Node11</title>
<polygon fill="white" stroke="#bfbfbf" points="301,-112.5 301,-131.5 355,-131.5 355,-112.5 301,-112.5"/>
<text text-anchor="middle" x="328" y="-119.5" font-family="Helvetica,sans-Serif" font-size="10.00">iostream</text>
</g>
<!-- Node1&#45;&gt;Node11 -->
<g id="edge12" class="edge"><title>Node1&#45;&gt;Node11</title>
<path fill="none" stroke="midnightblue" d="M225.417,-168.933C247.823,-158.9 277.707,-145.519 299.438,-135.789"/>
<polygon fill="midnightblue" stroke="midnightblue" points="301.097,-138.881 308.793,-131.6 298.236,-132.492 301.097,-138.881"/>
</g>
<!-- Node3 -->
<g id="node3" class="node"><title>Node3</title>
<g id="a_node3"><a xlink:href="../../d2/d84/forwards_8h.xhtml" target="_top" xlink:title="forwards.h">
<polygon fill="white" stroke="black" points="-0.5,-56.5 -0.5,-75.5 60.5,-75.5 60.5,-56.5 -0.5,-56.5"/>
<text text-anchor="middle" x="30" y="-63.5" font-family="Helvetica,sans-Serif" font-size="10.00">forwards.h</text>
</a>
</g>
</g>
<!-- Node2&#45;&gt;Node3 -->
<g id="edge2" class="edge"><title>Node2&#45;&gt;Node3</title>
<path fill="none" stroke="midnightblue" d="M30,-112.083C30,-105.006 30,-94.8611 30,-85.9865"/>
<polygon fill="midnightblue" stroke="midnightblue" points="33.5001,-85.751 30,-75.7511 26.5001,-85.7511 33.5001,-85.751"/>
</g>
<!-- Node4 -->
<g id="node4" class="node"><title>Node4</title>
<g id="a_node4"><a xlink:href="../../db/d16/config_8h.xhtml" target="_top" xlink:title="config.h">
<polygon fill="white" stroke="black" points="5,-0.5 5,-19.5 55,-19.5 55,-0.5 5,-0.5"/>
<text text-anchor="middle" x="30" y="-7.5" font-family="Helvetica,sans-Serif" font-size="10.00">config.h</text>
</a>
</g>
</g>
<!-- Node3&#45;&gt;Node4 -->
<g id="edge3" class="edge"><title>Node3&#45;&gt;Node4</title>
<path fill="none" stroke="midnightblue" d="M30,-56.083C30,-49.0059 30,-38.8611 30,-29.9865"/>
<polygon fill="midnightblue" stroke="midnightblue" points="33.5001,-29.751 30,-19.7511 26.5001,-29.7511 33.5001,-29.751"/>
</g>
<!-- Node5&#45;&gt;Node3 -->
<g id="edge5" class="edge"><title>Node5&#45;&gt;Node3</title>
<path fill="none" stroke="midnightblue" d="M89.5926,-112.324C78.8912,-104.185 62.6593,-91.8395 49.8372,-82.0874"/>
<polygon fill="midnightblue" stroke="midnightblue" points="51.6932,-79.1018 41.6149,-75.8339 47.4556,-84.6734 51.6932,-79.1018"/>
</g>
<!-- Node5&#45;&gt;Node6 -->
<g id="edge6" class="edge"><title>Node5&#45;&gt;Node6</title>
<path fill="none" stroke="midnightblue" d="M123.5,-112.444C147.632,-103.267 186.083,-88.6446 212.827,-78.4744"/>
<polygon fill="midnightblue" stroke="midnightblue" points="214.346,-81.6411 222.449,-74.8151 211.858,-75.0982 214.346,-81.6411"/>
</g>
<!-- Node7 -->
<g id="node7" class="node"><title>Node7</title>
<polygon fill="white" stroke="#bfbfbf" points="79,-56.5 79,-75.5 121,-75.5 121,-56.5 79,-56.5"/>
<text text-anchor="middle" x="100" y="-63.5" font-family="Helvetica,sans-Serif" font-size="10.00">vector</text>
</g>
<!-- Node5&#45;&gt;Node7 -->
<g id="edge7" class="edge"><title>Node5&#45;&gt;Node7</title>
<path fill="none" stroke="midnightblue" d="M100.835,-112.083C100.704,-105.006 100.516,-94.8611 100.352,-85.9865"/>
<polygon fill="midnightblue" stroke="midnightblue" points="103.847,-85.6845 100.162,-75.7511 96.8479,-85.8142 103.847,-85.6845"/>
</g>
<!-- Node8 -->
<g id="node8" class="node"><title>Node8</title>
<polygon fill="white" stroke="#bfbfbf" points="139.5,-56.5 139.5,-75.5 174.5,-75.5 174.5,-56.5 139.5,-56.5"/>
<text text-anchor="middle" x="157" y="-63.5" font-family="Helvetica,sans-Serif" font-size="10.00">map</text>
</g>
<!-- Node5&#45;&gt;Node8 -->
<g id="edge8" class="edge"><title>Node5&#45;&gt;Node8</title>
<path fill="none" stroke="midnightblue" d="M109.997,-112.324C118.194,-104.42 130.506,-92.5482 140.472,-82.9377"/>
<polygon fill="midnightblue" stroke="midnightblue" points="143.07,-85.2947 147.839,-75.8339 138.211,-80.2558 143.07,-85.2947"/>
</g>
</g>
</svg>
