<?xml version="1.0" encoding="UTF-8" standalone="no"?>
<!DOCTYPE svg PUBLIC "-//W3C//DTD SVG 1.1//EN"
 "http://www.w3.org/Graphics/SVG/1.1/DTD/svg11.dtd">
<!-- Generated by graphviz version 2.30.1 (20130214.1330)
 -->
<!-- Title: jsonTranslateCapsule_Actor Pages: 1 -->
<svg width="311pt" height="166pt"
 viewBox="0.00 0.00 311.00 166.00" xmlns="http://www.w3.org/2000/svg" xmlns:xlink="http://www.w3.org/1999/xlink">
<g id="graph0" class="graph" transform="scale(1 1) rotate(0) translate(4 162)">
<title>jsonTranslateCapsule_Actor</title>
<polygon fill="white" stroke="white" points="-4,5 -4,-162 308,-162 308,5 -4,5"/>
<!-- Node1 -->
<g id="node1" class="node"><title>Node1</title>
<polygon fill="#bfbfbf" stroke="black" points="73,-1 73,-31 183,-31 183,-1 73,-1"/>
<text text-anchor="start" x="81" y="-19" font-family="Helvetica,sans-Serif" font-size="10.00">jsonTranslateCapsule</text>
<text text-anchor="middle" x="128" y="-8" font-family="Helvetica,sans-Serif" font-size="10.00">_Actor</text>
</g>
<!-- Node2 -->
<g id="node2" class="node"><title>Node2</title>
<polygon fill="white" stroke="#bfbfbf" points="0,-80.5 0,-99.5 52,-99.5 52,-80.5 0,-80.5"/>
<text text-anchor="middle" x="26" y="-87.5" font-family="Helvetica,sans-Serif" font-size="10.00">RTActor</text>
</g>
<!-- Node2&#45;&gt;Node1 -->
<g id="edge1" class="edge"><title>Node2&#45;&gt;Node1</title>
<path fill="none" stroke="midnightblue" d="M46.6398,-74.4307C64.4867,-61.8329 90.1328,-43.7298 107.839,-31.2316"/>
<polygon fill="midnightblue" stroke="midnightblue" points="44.2526,-71.8316 38.1013,-80.4579 48.2894,-77.5504 44.2526,-71.8316"/>
</g>
<!-- Node3 -->
<g id="node3" class="node"><title>Node3</title>
<g id="a_node3"><a xlink:href="../../d8/d77/classtcp_protocol_1_1_conjugate.xhtml" target="_top" xlink:title="tcpProtocol::Conjugate">
<polygon fill="white" stroke="black" points="70,-80.5 70,-99.5 186,-99.5 186,-80.5 70,-80.5"/>
<text text-anchor="middle" x="128" y="-87.5" font-family="Helvetica,sans-Serif" font-size="10.00">tcpProtocol::Conjugate</text>
</a>
</g>
</g>
<!-- Node3&#45;&gt;Node1 -->
<g id="edge2" class="edge"><title>Node3&#45;&gt;Node1</title>
<path fill="none" stroke="#9a32cd" stroke-dasharray="5,2" d="M128,-70.0846C128,-57.9148 128,-42.3538 128,-31.2316"/>
<polygon fill="#9a32cd" stroke="#9a32cd" points="124.5,-70.4579 128,-80.4579 131.5,-70.4579 124.5,-70.4579"/>
<text text-anchor="middle" x="145.5" y="-53.5" font-family="Helvetica,sans-Serif" font-size="10.00"> tcpPort</text>
</g>
<!-- Node4 -->
<g id="node4" class="node"><title>Node4</title>
<polygon fill="white" stroke="#bfbfbf" points="160.5,-138.5 160.5,-157.5 245.5,-157.5 245.5,-138.5 160.5,-138.5"/>
<text text-anchor="middle" x="203" y="-145.5" font-family="Helvetica,sans-Serif" font-size="10.00">RTRootProtocol</text>
</g>
<!-- Node4&#45;&gt;Node3 -->
<g id="edge3" class="edge"><title>Node4&#45;&gt;Node3</title>
<path fill="none" stroke="midnightblue" d="M183.574,-132.495C169.595,-122.058 151.213,-108.332 139.498,-99.5852"/>
<polygon fill="midnightblue" stroke="midnightblue" points="181.502,-135.316 191.609,-138.495 185.69,-129.707 181.502,-135.316"/>
</g>
<!-- Node5 -->
<g id="node5" class="node"><title>Node5</title>
<g id="a_node5"><a xlink:href="../../da/d9e/classjson_protocol_1_1_base.xhtml" target="_top" xlink:title="jsonProtocol::Base">
<polygon fill="white" stroke="black" points="204.5,-80.5 204.5,-99.5 303.5,-99.5 303.5,-80.5 204.5,-80.5"/>
<text text-anchor="middle" x="254" y="-87.5" font-family="Helvetica,sans-Serif" font-size="10.00">jsonProtocol::Base</text>
</a>
</g>
</g>
<!-- Node4&#45;&gt;Node5 -->
<g id="edge5" class="edge"><title>Node4&#45;&gt;Node5</title>
<path fill="none" stroke="midnightblue" d="M217.809,-130.739C227.111,-120.526 238.73,-107.767 246.254,-99.5052"/>
<polygon fill="midnightblue" stroke="midnightblue" points="215.114,-128.5 210.969,-138.25 220.29,-133.213 215.114,-128.5"/>
</g>
<!-- Node5&#45;&gt;Node1 -->
<g id="edge4" class="edge"><title>Node5&#45;&gt;Node1</title>
<path fill="none" stroke="#9a32cd" stroke-dasharray="5,2" d="M230.302,-75.4582C208.209,-62.8336 175.379,-44.0738 152.905,-31.2316"/>
<polygon fill="#9a32cd" stroke="#9a32cd" points="228.632,-78.5353 239.051,-80.4579 232.105,-72.4576 228.632,-78.5353"/>
<text text-anchor="middle" x="226" y="-53.5" font-family="Helvetica,sans-Serif" font-size="10.00"> jsonPort</text>
</g>
</g>
</svg>
