<?xml version="1.0" encoding="UTF-8" standalone="no"?>
<!DOCTYPE svg PUBLIC "-//W3C//DTD SVG 1.1//EN"
 "http://www.w3.org/Graphics/SVG/1.1/DTD/svg11.dtd">
<!-- Generated by graphviz version 2.30.1 (20130214.1330)
 -->
<!-- Title: Hoofdprogramma/include/json.h Pages: 1 -->
<svg width="478pt" height="264pt"
 viewBox="0.00 0.00 478.00 264.00" xmlns="http://www.w3.org/2000/svg" xmlns:xlink="http://www.w3.org/1999/xlink">
<g id="graph0" class="graph" transform="scale(1 1) rotate(0) translate(4 260)">
<title>Hoofdprogramma/include/json.h</title>
<polygon fill="white" stroke="white" points="-4,5 -4,-260 475,-260 475,5 -4,5"/>
<!-- Node1 -->
<g id="node1" class="node"><title>Node1</title>
<polygon fill="#bfbfbf" stroke="black" points="145,-225 145,-255 269,-255 269,-225 145,-225"/>
<text text-anchor="start" x="153" y="-243" font-family="Helvetica,sans-Serif" font-size="10.00">Hoofdprogramma/include</text>
<text text-anchor="middle" x="207" y="-232" font-family="Helvetica,sans-Serif" font-size="10.00">/json.h</text>
</g>
<!-- Node2 -->
<g id="node2" class="node"><title>Node2</title>
<g id="a_node2"><a xlink:href="../../d3/dea/autolink_8h.xhtml" target="_top" xlink:title="autolink.h">
<polygon fill="white" stroke="black" points="5.5,-168.5 5.5,-187.5 64.5,-187.5 64.5,-168.5 5.5,-168.5"/>
<text text-anchor="middle" x="35" y="-175.5" font-family="Helvetica,sans-Serif" font-size="10.00">autolink.h</text>
</a>
</g>
</g>
<!-- Node1&#45;&gt;Node2 -->
<g id="edge1" class="edge"><title>Node1&#45;&gt;Node2</title>
<path fill="none" stroke="midnightblue" d="M166.674,-224.933C137.049,-214.598 97.2371,-200.711 69.1711,-190.92"/>
<polygon fill="midnightblue" stroke="midnightblue" points="69.9979,-187.502 59.4031,-187.513 67.6922,-194.111 69.9979,-187.502"/>
</g>
<!-- Node4 -->
<g id="node4" class="node"><title>Node4</title>
<g id="a_node4"><a xlink:href="../../d4/d3f/value_8h.xhtml" target="_top" xlink:title="value.h">
<polygon fill="white" stroke="black" points="370.5,-112.5 370.5,-131.5 417.5,-131.5 417.5,-112.5 370.5,-112.5"/>
<text text-anchor="middle" x="394" y="-119.5" font-family="Helvetica,sans-Serif" font-size="10.00">value.h</text>
</a>
</g>
</g>
<!-- Node1&#45;&gt;Node4 -->
<g id="edge4" class="edge"><title>Node1&#45;&gt;Node4</title>
<path fill="none" stroke="midnightblue" d="M269.184,-234.5C304.568,-228.777 347.233,-216.056 375,-188 387.007,-175.868 391.506,-156.59 393.151,-142.174"/>
<polygon fill="midnightblue" stroke="midnightblue" points="396.666,-142.124 393.948,-131.884 389.686,-141.584 396.666,-142.124"/>
</g>
<!-- Node9 -->
<g id="node9" class="node"><title>Node9</title>
<g id="a_node9"><a xlink:href="../../d6/dda/reader_8h.xhtml" target="_top" xlink:title="reader.h">
<polygon fill="white" stroke="black" points="181,-168.5 181,-187.5 233,-187.5 233,-168.5 181,-168.5"/>
<text text-anchor="middle" x="207" y="-175.5" font-family="Helvetica,sans-Serif" font-size="10.00">reader.h</text>
</a>
</g>
</g>
<!-- Node1&#45;&gt;Node9 -->
<g id="edge10" class="edge"><title>Node1&#45;&gt;Node9</title>
<path fill="none" stroke="midnightblue" d="M207,-224.781C207,-216.781 207,-206.689 207,-198.017"/>
<polygon fill="midnightblue" stroke="midnightblue" points="210.5,-197.73 207,-187.731 203.5,-197.731 210.5,-197.73"/>
</g>
<!-- Node14 -->
<g id="node14" class="node"><title>Node14</title>
<g id="a_node14"><a xlink:href="../../d9/d53/writer_8h.xhtml" target="_top" xlink:title="writer.h">
<polygon fill="white" stroke="black" points="318,-168.5 318,-187.5 366,-187.5 366,-168.5 318,-168.5"/>
<text text-anchor="middle" x="342" y="-175.5" font-family="Helvetica,sans-Serif" font-size="10.00">writer.h</text>
</a>
</g>
</g>
<!-- Node1&#45;&gt;Node14 -->
<g id="edge18" class="edge"><title>Node1&#45;&gt;Node14</title>
<path fill="none" stroke="midnightblue" d="M238.652,-224.933C261.224,-214.9 291.332,-201.519 313.225,-191.789"/>
<polygon fill="midnightblue" stroke="midnightblue" points="314.933,-194.86 322.65,-187.6 312.09,-188.463 314.933,-194.86"/>
</g>
<!-- Node10 -->
<g id="node10" class="node"><title>Node10</title>
<g id="a_node10"><a xlink:href="../../de/d47/features_8h.xhtml" target="_top" xlink:title="features.h">
<polygon fill="white" stroke="black" points="24.5,-112.5 24.5,-131.5 83.5,-131.5 83.5,-112.5 24.5,-112.5"/>
<text text-anchor="middle" x="54" y="-119.5" font-family="Helvetica,sans-Serif" font-size="10.00">features.h</text>
</a>
</g>
</g>
<!-- Node1&#45;&gt;Node10 -->
<g id="edge23" class="edge"><title>Node1&#45;&gt;Node10</title>
<path fill="none" stroke="midnightblue" d="M188.239,-224.776C159.169,-202.736 103.503,-160.532 73.8079,-138.018"/>
<polygon fill="midnightblue" stroke="midnightblue" points="75.5674,-134.96 65.4842,-131.707 71.3383,-140.538 75.5674,-134.96"/>
</g>
<!-- Node3 -->
<g id="node3" class="node"><title>Node3</title>
<g id="a_node3"><a xlink:href="../../db/d16/config_8h.xhtml" target="_top" xlink:title="config.h">
<polygon fill="white" stroke="black" points="0,-0.5 0,-19.5 50,-19.5 50,-0.5 0,-0.5"/>
<text text-anchor="middle" x="25" y="-7.5" font-family="Helvetica,sans-Serif" font-size="10.00">config.h</text>
</a>
</g>
</g>
<!-- Node2&#45;&gt;Node3 -->
<g id="edge2" class="edge"><title>Node2&#45;&gt;Node3</title>
<path fill="none" stroke="midnightblue" d="M29.8698,-168.407C24.9422,-159.614 17.8396,-145.381 15,-132 7.98802,-98.9581 11.3143,-89.5761 15,-56 15.9726,-47.1398 17.9917,-37.4716 19.9626,-29.3755"/>
<polygon fill="midnightblue" stroke="midnightblue" points="23.3926,-30.0919 22.5176,-19.5332 16.6171,-28.333 23.3926,-30.0919"/>
</g>
<!-- Node2&#45;&gt;Node2 -->
<g id="edge3" class="edge"><title>Node2&#45;&gt;Node2</title>
<path fill="none" stroke="midnightblue" d="M55.2902,-187.575C68.8252,-190.27 82,-187.078 82,-178 82,-171.262 74.7428,-167.767 65.4673,-167.515"/>
<polygon fill="midnightblue" stroke="midnightblue" points="64.9385,-164.048 55.2902,-168.425 65.5624,-171.02 64.9385,-164.048"/>
</g>
<!-- Node5 -->
<g id="node5" class="node"><title>Node5</title>
<g id="a_node5"><a xlink:href="../../d2/d84/forwards_8h.xhtml" target="_top" xlink:title="forwards.h">
<polygon fill="white" stroke="black" points="24.5,-56.5 24.5,-75.5 85.5,-75.5 85.5,-56.5 24.5,-56.5"/>
<text text-anchor="middle" x="55" y="-63.5" font-family="Helvetica,sans-Serif" font-size="10.00">forwards.h</text>
</a>
</g>
</g>
<!-- Node4&#45;&gt;Node5 -->
<g id="edge5" class="edge"><title>Node4&#45;&gt;Node5</title>
<path fill="none" stroke="midnightblue" d="M370.431,-117.246C313.329,-108.15 167.03,-84.8454 95.5421,-73.458"/>
<polygon fill="midnightblue" stroke="midnightblue" points="95.9832,-69.9843 85.5571,-71.8675 94.882,-76.8971 95.9832,-69.9843"/>
</g>
<!-- Node6 -->
<g id="node6" class="node"><title>Node6</title>
<polygon fill="white" stroke="#bfbfbf" points="315.5,-56.5 315.5,-75.5 356.5,-75.5 356.5,-56.5 315.5,-56.5"/>
<text text-anchor="middle" x="336" y="-63.5" font-family="Helvetica,sans-Serif" font-size="10.00">string</text>
</g>
<!-- Node4&#45;&gt;Node6 -->
<g id="edge7" class="edge"><title>Node4&#45;&gt;Node6</title>
<path fill="none" stroke="midnightblue" d="M384.681,-112.324C376.107,-104.341 363.188,-92.3128 352.812,-82.6529"/>
<polygon fill="midnightblue" stroke="midnightblue" points="355.192,-80.0865 345.488,-75.8339 350.422,-85.2098 355.192,-80.0865"/>
</g>
<!-- Node7 -->
<g id="node7" class="node"><title>Node7</title>
<polygon fill="white" stroke="#bfbfbf" points="428,-56.5 428,-75.5 470,-75.5 470,-56.5 428,-56.5"/>
<text text-anchor="middle" x="449" y="-63.5" font-family="Helvetica,sans-Serif" font-size="10.00">vector</text>
</g>
<!-- Node4&#45;&gt;Node7 -->
<g id="edge8" class="edge"><title>Node4&#45;&gt;Node7</title>
<path fill="none" stroke="midnightblue" d="M403.082,-112.083C411.171,-104.141 423.195,-92.3354 432.91,-82.7973"/>
<polygon fill="midnightblue" stroke="midnightblue" points="435.403,-85.2545 440.087,-75.7511 430.499,-80.2595 435.403,-85.2545"/>
</g>
<!-- Node8 -->
<g id="node8" class="node"><title>Node8</title>
<polygon fill="white" stroke="#bfbfbf" points="374.5,-56.5 374.5,-75.5 409.5,-75.5 409.5,-56.5 374.5,-56.5"/>
<text text-anchor="middle" x="392" y="-63.5" font-family="Helvetica,sans-Serif" font-size="10.00">map</text>
</g>
<!-- Node4&#45;&gt;Node8 -->
<g id="edge9" class="edge"><title>Node4&#45;&gt;Node8</title>
<path fill="none" stroke="midnightblue" d="M393.67,-112.083C393.408,-105.006 393.032,-94.8611 392.703,-85.9865"/>
<polygon fill="midnightblue" stroke="midnightblue" points="396.192,-85.6147 392.324,-75.7511 389.197,-85.8738 396.192,-85.6147"/>
</g>
<!-- Node5&#45;&gt;Node3 -->
<g id="edge6" class="edge"><title>Node5&#45;&gt;Node3</title>
<path fill="none" stroke="midnightblue" d="M50.0461,-56.083C45.8959,-48.6127 39.8469,-37.7244 34.7333,-28.5199"/>
<polygon fill="midnightblue" stroke="midnightblue" points="37.7777,-26.7929 29.8617,-19.7511 31.6586,-30.1924 37.7777,-26.7929"/>
</g>
<!-- Node9&#45;&gt;Node10 -->
<g id="edge11" class="edge"><title>Node9&#45;&gt;Node10</title>
<path fill="none" stroke="midnightblue" d="M182.757,-168.444C157.129,-159.399 116.515,-145.064 87.7616,-134.916"/>
<polygon fill="midnightblue" stroke="midnightblue" points="88.7247,-131.544 78.1299,-131.516 86.3949,-138.145 88.7247,-131.544"/>
</g>
<!-- Node9&#45;&gt;Node4 -->
<g id="edge13" class="edge"><title>Node9&#45;&gt;Node4</title>
<path fill="none" stroke="midnightblue" d="M233.002,-169.492C266.3,-159.876 324.056,-143.198 360.585,-132.649"/>
<polygon fill="midnightblue" stroke="midnightblue" points="361.65,-135.985 370.287,-129.848 359.708,-129.26 361.65,-135.985"/>
</g>
<!-- Node11 -->
<g id="node11" class="node"><title>Node11</title>
<polygon fill="white" stroke="#bfbfbf" points="101.5,-112.5 101.5,-131.5 144.5,-131.5 144.5,-112.5 101.5,-112.5"/>
<text text-anchor="middle" x="123" y="-119.5" font-family="Helvetica,sans-Serif" font-size="10.00">deque</text>
</g>
<!-- Node9&#45;&gt;Node11 -->
<g id="edge14" class="edge"><title>Node9&#45;&gt;Node11</title>
<path fill="none" stroke="midnightblue" d="M193.504,-168.324C180.4,-159.9 160.288,-146.971 144.893,-137.074"/>
<polygon fill="midnightblue" stroke="midnightblue" points="146.767,-134.118 136.463,-131.655 142.982,-140.006 146.767,-134.118"/>
</g>
<!-- Node12 -->
<g id="node12" class="node"><title>Node12</title>
<polygon fill="white" stroke="#bfbfbf" points="162.5,-112.5 162.5,-131.5 203.5,-131.5 203.5,-112.5 162.5,-112.5"/>
<text text-anchor="middle" x="183" y="-119.5" font-family="Helvetica,sans-Serif" font-size="10.00">stack</text>
</g>
<!-- Node9&#45;&gt;Node12 -->
<g id="edge15" class="edge"><title>Node9&#45;&gt;Node12</title>
<path fill="none" stroke="midnightblue" d="M203.037,-168.083C199.787,-160.77 195.081,-150.181 191.046,-141.103"/>
<polygon fill="midnightblue" stroke="midnightblue" points="194.149,-139.468 186.889,-131.751 187.752,-142.311 194.149,-139.468"/>
</g>
<!-- Node9&#45;&gt;Node6 -->
<g id="edge16" class="edge"><title>Node9&#45;&gt;Node6</title>
<path fill="none" stroke="midnightblue" d="M211.055,-168.441C217.772,-154.998 232.338,-128.746 251,-112 266.999,-97.6444 288.402,-86.3473 305.728,-78.6629"/>
<polygon fill="midnightblue" stroke="midnightblue" points="307.551,-81.6913 315.386,-74.56 304.814,-75.2485 307.551,-81.6913"/>
</g>
<!-- Node13 -->
<g id="node13" class="node"><title>Node13</title>
<polygon fill="white" stroke="#bfbfbf" points="260,-112.5 260,-131.5 314,-131.5 314,-112.5 260,-112.5"/>
<text text-anchor="middle" x="287" y="-119.5" font-family="Helvetica,sans-Serif" font-size="10.00">iostream</text>
</g>
<!-- Node9&#45;&gt;Node13 -->
<g id="edge17" class="edge"><title>Node9&#45;&gt;Node13</title>
<path fill="none" stroke="midnightblue" d="M219.853,-168.324C232.216,-159.979 251.13,-147.212 265.737,-137.352"/>
<polygon fill="midnightblue" stroke="midnightblue" points="267.848,-140.15 274.179,-131.655 263.932,-134.348 267.848,-140.15"/>
</g>
<!-- Node10&#45;&gt;Node5 -->
<g id="edge12" class="edge"><title>Node10&#45;&gt;Node5</title>
<path fill="none" stroke="midnightblue" d="M54.1651,-112.083C54.2962,-105.006 54.4841,-94.8611 54.6484,-85.9865"/>
<polygon fill="midnightblue" stroke="midnightblue" points="58.1521,-85.8142 54.8379,-75.7511 51.1533,-85.6845 58.1521,-85.8142"/>
</g>
<!-- Node14&#45;&gt;Node4 -->
<g id="edge19" class="edge"><title>Node14&#45;&gt;Node4</title>
<path fill="none" stroke="midnightblue" d="M350.587,-168.083C358.159,-160.22 369.378,-148.569 378.514,-139.081"/>
<polygon fill="midnightblue" stroke="midnightblue" points="381.158,-141.382 385.573,-131.751 376.115,-136.527 381.158,-141.382"/>
</g>
<!-- Node14&#45;&gt;Node7 -->
<g id="edge20" class="edge"><title>Node14&#45;&gt;Node7</title>
<path fill="none" stroke="midnightblue" d="M366.1,-169.508C384.811,-162.55 410.156,-150.451 426,-132 437.322,-118.815 443.2,-99.6783 446.167,-85.5819"/>
<polygon fill="midnightblue" stroke="midnightblue" points="449.642,-86.0294 447.971,-75.5673 442.753,-84.7885 449.642,-86.0294"/>
</g>
<!-- Node14&#45;&gt;Node6 -->
<g id="edge21" class="edge"><title>Node14&#45;&gt;Node6</title>
<path fill="none" stroke="midnightblue" d="M341.529,-168.368C340.561,-150.617 338.327,-109.666 337.014,-85.5974"/>
<polygon fill="midnightblue" stroke="midnightblue" points="340.508,-85.3859 336.469,-75.5914 333.519,-85.7672 340.508,-85.3859"/>
</g>
<!-- Node14&#45;&gt;Node13 -->
<g id="edge22" class="edge"><title>Node14&#45;&gt;Node13</title>
<path fill="none" stroke="midnightblue" d="M332.918,-168.083C324.829,-160.141 312.805,-148.335 303.09,-138.797"/>
<polygon fill="midnightblue" stroke="midnightblue" points="305.501,-136.26 295.913,-131.751 300.597,-141.254 305.501,-136.26"/>
</g>
</g>
</svg>
