<?xml version="1.0" encoding="UTF-8" standalone="no"?>
<!DOCTYPE svg PUBLIC "-//W3C//DTD SVG 1.1//EN"
 "http://www.w3.org/Graphics/SVG/1.1/DTD/svg11.dtd">
<!-- Generated by graphviz version 2.30.1 (20130214.1330)
 -->
<!-- Title: GUI/bin/debug/ui_controllingroomba.h Pages: 1 -->
<svg width="1554pt" height="84pt"
 viewBox="0.00 0.00 1554.00 84.00" xmlns="http://www.w3.org/2000/svg" xmlns:xlink="http://www.w3.org/1999/xlink">
<g id="graph0" class="graph" transform="scale(1 1) rotate(0) translate(4 80)">
<title>GUI/bin/debug/ui_controllingroomba.h</title>
<polygon fill="white" stroke="white" points="-4,5 -4,-80 1551,-80 1551,5 -4,5"/>
<!-- Node1 -->
<g id="node1" class="node"><title>Node1</title>
<polygon fill="#bfbfbf" stroke="black" points="686.5,-56.5 686.5,-75.5 865.5,-75.5 865.5,-56.5 686.5,-56.5"/>
<text text-anchor="middle" x="776" y="-63.5" font-family="Helvetica,sans-Serif" font-size="10.00">GUI/bin/debug/ui_controllingroomba.h</text>
</g>
<!-- Node2 -->
<g id="node2" class="node"><title>Node2</title>
<polygon fill="white" stroke="#bfbfbf" points="-0.5,-0.5 -0.5,-19.5 88.5,-19.5 88.5,-0.5 -0.5,-0.5"/>
<text text-anchor="middle" x="44" y="-7.5" font-family="Helvetica,sans-Serif" font-size="10.00">QtCore/QVariant</text>
</g>
<!-- Node1&#45;&gt;Node2 -->
<g id="edge1" class="edge"><title>Node1&#45;&gt;Node2</title>
<path fill="none" stroke="midnightblue" d="M686.486,-61.9783C558.319,-57.0024 314.969,-45.144 98.724,-20.0974"/>
<polygon fill="midnightblue" stroke="midnightblue" points="99.1121,-16.619 88.7731,-18.9332 98.2986,-23.5716 99.1121,-16.619"/>
</g>
<!-- Node3 -->
<g id="node3" class="node"><title>Node3</title>
<polygon fill="white" stroke="#bfbfbf" points="106.5,-0.5 106.5,-19.5 207.5,-19.5 207.5,-0.5 106.5,-0.5"/>
<text text-anchor="middle" x="157" y="-7.5" font-family="Helvetica,sans-Serif" font-size="10.00">QtWidgets/QAction</text>
</g>
<!-- Node1&#45;&gt;Node3 -->
<g id="edge2" class="edge"><title>Node1&#45;&gt;Node3</title>
<path fill="none" stroke="midnightblue" d="M686.261,-59.6777C577.789,-52.8148 389.497,-39.5299 217.693,-20.0001"/>
<polygon fill="midnightblue" stroke="midnightblue" points="218.04,-16.5171 207.707,-18.8557 217.243,-23.4716 218.04,-16.5171"/>
</g>
<!-- Node4 -->
<g id="node4" class="node"><title>Node4</title>
<polygon fill="white" stroke="#bfbfbf" points="226,-0.5 226,-19.5 348,-19.5 348,-0.5 226,-0.5"/>
<text text-anchor="middle" x="287" y="-7.5" font-family="Helvetica,sans-Serif" font-size="10.00">QtWidgets/QApplication</text>
</g>
<!-- Node1&#45;&gt;Node4 -->
<g id="edge3" class="edge"><title>Node1&#45;&gt;Node4</title>
<path fill="none" stroke="midnightblue" d="M691.675,-56.4659C609.335,-48.0132 480.187,-34.4389 358.333,-20.1365"/>
<polygon fill="midnightblue" stroke="midnightblue" points="358.415,-16.6221 348.074,-18.9287 357.596,-23.5741 358.415,-16.6221"/>
</g>
<!-- Node5 -->
<g id="node5" class="node"><title>Node5</title>
<polygon fill="white" stroke="#bfbfbf" points="366,-0.5 366,-19.5 494,-19.5 494,-0.5 366,-0.5"/>
<text text-anchor="middle" x="430" y="-7.5" font-family="Helvetica,sans-Serif" font-size="10.00">QtWidgets/QButtonGroup</text>
</g>
<!-- Node1&#45;&gt;Node5 -->
<g id="edge4" class="edge"><title>Node1&#45;&gt;Node5</title>
<path fill="none" stroke="midnightblue" d="M721.175,-56.4435C659.678,-46.8456 560.016,-31.2916 494.739,-21.1037"/>
<polygon fill="midnightblue" stroke="midnightblue" points="494.988,-17.6004 484.568,-19.5164 493.909,-24.5167 494.988,-17.6004"/>
</g>
<!-- Node6 -->
<g id="node6" class="node"><title>Node6</title>
<polygon fill="white" stroke="#bfbfbf" points="512.5,-0.5 512.5,-19.5 631.5,-19.5 631.5,-0.5 512.5,-0.5"/>
<text text-anchor="middle" x="572" y="-7.5" font-family="Helvetica,sans-Serif" font-size="10.00">QtWidgets/QCheckBox</text>
</g>
<!-- Node1&#45;&gt;Node6 -->
<g id="edge5" class="edge"><title>Node1&#45;&gt;Node6</title>
<path fill="none" stroke="midnightblue" d="M743.676,-56.4435C708.611,-47.1616 652.502,-32.3093 614.035,-22.127"/>
<polygon fill="midnightblue" stroke="midnightblue" points="614.736,-18.692 604.173,-19.5164 612.945,-25.4589 614.736,-18.692"/>
</g>
<!-- Node7 -->
<g id="node7" class="node"><title>Node7</title>
<polygon fill="white" stroke="#bfbfbf" points="649.5,-0.5 649.5,-19.5 774.5,-19.5 774.5,-0.5 649.5,-0.5"/>
<text text-anchor="middle" x="712" y="-7.5" font-family="Helvetica,sans-Serif" font-size="10.00">QtWidgets/QHeaderView</text>
</g>
<!-- Node1&#45;&gt;Node7 -->
<g id="edge6" class="edge"><title>Node1&#45;&gt;Node7</title>
<path fill="none" stroke="midnightblue" d="M765.717,-56.324C756.164,-48.2631 741.72,-36.0765 730.216,-26.3695"/>
<polygon fill="midnightblue" stroke="midnightblue" points="732.37,-23.6076 722.47,-19.8339 727.856,-28.9577 732.37,-23.6076"/>
</g>
<!-- Node8 -->
<g id="node8" class="node"><title>Node8</title>
<polygon fill="white" stroke="#bfbfbf" points="792.5,-0.5 792.5,-19.5 889.5,-19.5 889.5,-0.5 792.5,-0.5"/>
<text text-anchor="middle" x="841" y="-7.5" font-family="Helvetica,sans-Serif" font-size="10.00">QtWidgets/QLabel</text>
</g>
<!-- Node1&#45;&gt;Node8 -->
<g id="edge7" class="edge"><title>Node1&#45;&gt;Node8</title>
<path fill="none" stroke="midnightblue" d="M786.443,-56.324C796.146,-48.2631 810.815,-36.0765 822.5,-26.3695"/>
<polygon fill="midnightblue" stroke="midnightblue" points="824.911,-28.9163 830.367,-19.8339 820.438,-23.532 824.911,-28.9163"/>
</g>
<!-- Node9 -->
<g id="node9" class="node"><title>Node9</title>
<polygon fill="white" stroke="#bfbfbf" points="908,-0.5 908,-19.5 1036,-19.5 1036,-0.5 908,-0.5"/>
<text text-anchor="middle" x="972" y="-7.5" font-family="Helvetica,sans-Serif" font-size="10.00">QtWidgets/QProgressBar</text>
</g>
<!-- Node1&#45;&gt;Node9 -->
<g id="edge8" class="edge"><title>Node1&#45;&gt;Node9</title>
<path fill="none" stroke="midnightblue" d="M807.057,-56.4435C840.603,-47.2011 894.197,-32.4356 931.141,-22.2572"/>
<polygon fill="midnightblue" stroke="midnightblue" points="932.377,-25.5469 941.089,-19.5164 930.518,-18.7984 932.377,-25.5469"/>
</g>
<!-- Node10 -->
<g id="node10" class="node"><title>Node10</title>
<polygon fill="white" stroke="#bfbfbf" points="1054.5,-0.5 1054.5,-19.5 1179.5,-19.5 1179.5,-0.5 1054.5,-0.5"/>
<text text-anchor="middle" x="1117" y="-7.5" font-family="Helvetica,sans-Serif" font-size="10.00">QtWidgets/QPushButton</text>
</g>
<!-- Node1&#45;&gt;Node10 -->
<g id="edge9" class="edge"><title>Node1&#45;&gt;Node10</title>
<path fill="none" stroke="midnightblue" d="M830.032,-56.4435C890.641,-46.8456 988.862,-31.2916 1053.2,-21.1037"/>
<polygon fill="midnightblue" stroke="midnightblue" points="1053.89,-24.5375 1063.22,-19.5164 1052.8,-17.6237 1053.89,-24.5375"/>
</g>
<!-- Node11 -->
<g id="node11" class="node"><title>Node11</title>
<polygon fill="white" stroke="#bfbfbf" points="1198,-0.5 1198,-19.5 1296,-19.5 1296,-0.5 1198,-0.5"/>
<text text-anchor="middle" x="1247" y="-7.5" font-family="Helvetica,sans-Serif" font-size="10.00">QtWidgets/QSlider</text>
</g>
<!-- Node1&#45;&gt;Node11 -->
<g id="edge10" class="edge"><title>Node1&#45;&gt;Node11</title>
<path fill="none" stroke="midnightblue" d="M864.135,-56.4703C945.361,-48.3569 1069.51,-35.3205 1187.8,-19.9705"/>
<polygon fill="midnightblue" stroke="midnightblue" points="1188.3,-23.4351 1197.77,-18.6705 1187.4,-16.494 1188.3,-23.4351"/>
</g>
<!-- Node12 -->
<g id="node12" class="node"><title>Node12</title>
<polygon fill="white" stroke="#bfbfbf" points="1314,-0.5 1314,-19.5 1424,-19.5 1424,-0.5 1314,-0.5"/>
<text text-anchor="middle" x="1369" y="-7.5" font-family="Helvetica,sans-Serif" font-size="10.00">QtWidgets/QTextEdit</text>
</g>
<!-- Node1&#45;&gt;Node12 -->
<g id="edge11" class="edge"><title>Node1&#45;&gt;Node12</title>
<path fill="none" stroke="midnightblue" d="M865.535,-58.8879C968.696,-51.5046 1143.54,-37.947 1303.82,-20.0769"/>
<polygon fill="midnightblue" stroke="midnightblue" points="1304.32,-23.5428 1313.87,-18.9488 1303.54,-16.5865 1304.32,-23.5428"/>
</g>
<!-- Node13 -->
<g id="node13" class="node"><title>Node13</title>
<polygon fill="white" stroke="#bfbfbf" points="1442,-0.5 1442,-19.5 1546,-19.5 1546,-0.5 1442,-0.5"/>
<text text-anchor="middle" x="1494" y="-7.5" font-family="Helvetica,sans-Serif" font-size="10.00">QtWidgets/QWidget</text>
</g>
<!-- Node1&#45;&gt;Node13 -->
<g id="edge12" class="edge"><title>Node1&#45;&gt;Node13</title>
<path fill="none" stroke="midnightblue" d="M865.726,-61.0778C990.364,-55.1321 1223.15,-42.2309 1431.57,-20.0729"/>
<polygon fill="midnightblue" stroke="midnightblue" points="1432.22,-23.5234 1441.79,-18.9768 1431.47,-16.5633 1432.22,-23.5234"/>
</g>
</g>
</svg>
