<?xml version="1.0" encoding="UTF-8" standalone="no"?>
<!DOCTYPE svg PUBLIC "-//W3C//DTD SVG 1.1//EN"
 "http://www.w3.org/Graphics/SVG/1.1/DTD/svg11.dtd">
<!-- Generated by graphviz version 2.30.1 (20130214.1330)
 -->
<!-- Title: GUI/bin/debug/debug/moc_roomba.cpp Pages: 1 -->
<svg width="1446pt" height="444pt"
 viewBox="0.00 0.00 1446.00 444.00" xmlns="http://www.w3.org/2000/svg" xmlns:xlink="http://www.w3.org/1999/xlink">
<g id="graph0" class="graph" transform="scale(1 1) rotate(0) translate(4 440)">
<title>GUI/bin/debug/debug/moc_roomba.cpp</title>
<polygon fill="white" stroke="white" points="-4,5 -4,-440 1443,-440 1443,5 -4,5"/>
<!-- Node1 -->
<g id="node1" class="node"><title>Node1</title>
<polygon fill="#bfbfbf" stroke="black" points="996.5,-405 996.5,-435 1103.5,-435 1103.5,-405 996.5,-405"/>
<text text-anchor="start" x="1004.5" y="-423" font-family="Helvetica,sans-Serif" font-size="10.00">GUI/bin/debug/debug</text>
<text text-anchor="middle" x="1050" y="-412" font-family="Helvetica,sans-Serif" font-size="10.00">/moc_roomba.cpp</text>
</g>
<!-- Node2 -->
<g id="node2" class="node"><title>Node2</title>
<g id="a_node2"><a xlink:href="../../dd/da1/roomba_8h.xhtml" target="_top" xlink:title="../../../Gui&#45;RoombaV1.0\l/roomba.h">
<polygon fill="white" stroke="black" points="862,-337 862,-367 980,-367 980,-337 862,-337"/>
<text text-anchor="start" x="870" y="-355" font-family="Helvetica,sans-Serif" font-size="10.00">../../../Gui&#45;RoombaV1.0</text>
<text text-anchor="middle" x="921" y="-344" font-family="Helvetica,sans-Serif" font-size="10.00">/roomba.h</text>
</a>
</g>
</g>
<!-- Node1&#45;&gt;Node2 -->
<g id="edge1" class="edge"><title>Node1&#45;&gt;Node2</title>
<path fill="none" stroke="midnightblue" d="M1022.33,-404.841C1003.45,-395.185 978.25,-382.29 957.702,-371.778"/>
<polygon fill="midnightblue" stroke="midnightblue" points="959.125,-368.574 948.628,-367.135 955.936,-374.806 959.125,-368.574"/>
</g>
<!-- Node29 -->
<g id="node29" class="node"><title>Node29</title>
<polygon fill="white" stroke="#bfbfbf" points="998,-342.5 998,-361.5 1102,-361.5 1102,-342.5 998,-342.5"/>
<text text-anchor="middle" x="1050" y="-349.5" font-family="Helvetica,sans-Serif" font-size="10.00">QtCore/qbytearray.h</text>
</g>
<!-- Node1&#45;&gt;Node29 -->
<g id="edge57" class="edge"><title>Node1&#45;&gt;Node29</title>
<path fill="none" stroke="midnightblue" d="M1050,-404.679C1050,-395.101 1050,-382.394 1050,-371.977"/>
<polygon fill="midnightblue" stroke="midnightblue" points="1053.5,-371.828 1050,-361.828 1046.5,-371.828 1053.5,-371.828"/>
</g>
<!-- Node30 -->
<g id="node30" class="node"><title>Node30</title>
<polygon fill="white" stroke="#bfbfbf" points="1120,-342.5 1120,-361.5 1224,-361.5 1224,-342.5 1120,-342.5"/>
<text text-anchor="middle" x="1172" y="-349.5" font-family="Helvetica,sans-Serif" font-size="10.00">QtCore/qmetatype.h</text>
</g>
<!-- Node1&#45;&gt;Node30 -->
<g id="edge58" class="edge"><title>Node1&#45;&gt;Node30</title>
<path fill="none" stroke="midnightblue" d="M1076.17,-404.841C1097.18,-393.476 1126.48,-377.628 1147.13,-366.454"/>
<polygon fill="midnightblue" stroke="midnightblue" points="1148.82,-369.519 1155.95,-361.682 1145.49,-363.362 1148.82,-369.519"/>
</g>
<!-- Node3 -->
<g id="node3" class="node"><title>Node3</title>
<polygon fill="white" stroke="#bfbfbf" points="112,-56.5 112,-75.5 162,-75.5 162,-56.5 112,-56.5"/>
<text text-anchor="middle" x="137" y="-63.5" font-family="Helvetica,sans-Serif" font-size="10.00">QString</text>
</g>
<!-- Node2&#45;&gt;Node3 -->
<g id="edge2" class="edge"><title>Node2&#45;&gt;Node3</title>
<path fill="none" stroke="midnightblue" d="M861.693,-349.463C663.713,-343.557 38,-318.299 38,-235 38,-235 38,-235 38,-177 38,-133.183 81.9362,-98.9282 111.27,-80.9413"/>
<polygon fill="midnightblue" stroke="midnightblue" points="113.363,-83.7703 120.206,-75.6816 109.813,-77.7377 113.363,-83.7703"/>
</g>
<!-- Node4 -->
<g id="node4" class="node"><title>Node4</title>
<polygon fill="white" stroke="#bfbfbf" points="164,-0.5 164,-19.5 216,-19.5 216,-0.5 164,-0.5"/>
<text text-anchor="middle" x="190" y="-7.5" font-family="Helvetica,sans-Serif" font-size="10.00">QDebug</text>
</g>
<!-- Node2&#45;&gt;Node4 -->
<g id="edge3" class="edge"><title>Node2&#45;&gt;Node4</title>
<path fill="none" stroke="midnightblue" d="M861.827,-350.846C699.593,-349.86 250.495,-343.192 110,-300 55.7207,-283.313 0,-291.786 0,-235 0,-235 0,-235 0,-121 0,-50.6379 98.7982,-24.5536 153.907,-15.4769"/>
<polygon fill="midnightblue" stroke="midnightblue" points="154.629,-18.9072 163.98,-13.9266 153.564,-11.9887 154.629,-18.9072"/>
</g>
<!-- Node5 -->
<g id="node5" class="node"><title>Node5</title>
<polygon fill="white" stroke="#bfbfbf" points="812.5,-168.5 812.5,-187.5 859.5,-187.5 859.5,-168.5 812.5,-168.5"/>
<text text-anchor="middle" x="836" y="-175.5" font-family="Helvetica,sans-Serif" font-size="10.00">QtCore</text>
</g>
<!-- Node2&#45;&gt;Node5 -->
<g id="edge4" class="edge"><title>Node2&#45;&gt;Node5</title>
<path fill="none" stroke="midnightblue" d="M914.641,-336.757C904.001,-313.11 881.712,-264.352 861,-224 856.248,-214.742 850.647,-204.597 845.952,-196.286"/>
<polygon fill="midnightblue" stroke="midnightblue" points="848.957,-194.489 840.962,-187.536 842.876,-197.957 848.957,-194.489"/>
</g>
<!-- Node6 -->
<g id="node6" class="node"><title>Node6</title>
<polygon fill="white" stroke="#bfbfbf" points="1226,-280.5 1226,-299.5 1268,-299.5 1268,-280.5 1226,-280.5"/>
<text text-anchor="middle" x="1247" y="-287.5" font-family="Helvetica,sans-Serif" font-size="10.00">vector</text>
</g>
<!-- Node2&#45;&gt;Node6 -->
<g id="edge5" class="edge"><title>Node2&#45;&gt;Node6</title>
<path fill="none" stroke="midnightblue" d="M980.297,-337.711C983.237,-337.118 986.15,-336.544 989,-336 1087.61,-317.179 1113.73,-320.523 1212,-300 1213.28,-299.733 1214.58,-299.45 1215.89,-299.155"/>
<polygon fill="midnightblue" stroke="midnightblue" points="1217.06,-302.474 1225.97,-296.74 1215.43,-295.666 1217.06,-302.474"/>
</g>
<!-- Node7 -->
<g id="node7" class="node"><title>Node7</title>
<polygon fill="white" stroke="#bfbfbf" points="1286.5,-280.5 1286.5,-299.5 1339.5,-299.5 1339.5,-280.5 1286.5,-280.5"/>
<text text-anchor="middle" x="1313" y="-287.5" font-family="Helvetica,sans-Serif" font-size="10.00">QVector</text>
</g>
<!-- Node2&#45;&gt;Node7 -->
<g id="edge6" class="edge"><title>Node2&#45;&gt;Node7</title>
<path fill="none" stroke="midnightblue" d="M980.274,-337.585C983.22,-337.025 986.141,-336.493 989,-336 1112.89,-314.639 1148.41,-323.219 1276.17,-299.931"/>
<polygon fill="midnightblue" stroke="midnightblue" points="1277.15,-303.309 1286.34,-298.045 1275.87,-296.426 1277.15,-303.309"/>
</g>
<!-- Node8 -->
<g id="node8" class="node"><title>Node8</title>
<polygon fill="white" stroke="#bfbfbf" points="982,-112.5 982,-131.5 1056,-131.5 1056,-112.5 982,-112.5"/>
<text text-anchor="middle" x="1019" y="-119.5" font-family="Helvetica,sans-Serif" font-size="10.00">QVariantMap</text>
</g>
<!-- Node2&#45;&gt;Node8 -->
<g id="edge7" class="edge"><title>Node2&#45;&gt;Node8</title>
<path fill="none" stroke="midnightblue" d="M940.676,-336.929C974.087,-311.646 1040.65,-254.884 1065,-188 1068.04,-179.647 1068.45,-176.193 1065,-168 1059.97,-156.053 1050.06,-145.692 1040.71,-137.934"/>
<polygon fill="midnightblue" stroke="midnightblue" points="1042.84,-135.155 1032.79,-131.811 1038.56,-140.694 1042.84,-135.155"/>
</g>
<!-- Node9 -->
<g id="node9" class="node"><title>Node9</title>
<polygon fill="white" stroke="#bfbfbf" points="1063,-0.5 1063,-19.5 1117,-19.5 1117,-0.5 1063,-0.5"/>
<text text-anchor="middle" x="1090" y="-7.5" font-family="Helvetica,sans-Serif" font-size="10.00">iostream</text>
</g>
<!-- Node2&#45;&gt;Node9 -->
<g id="edge8" class="edge"><title>Node2&#45;&gt;Node9</title>
<path fill="none" stroke="midnightblue" d="M980.223,-337.817C1027.27,-326.86 1088.87,-311.291 1112,-300 1155.06,-278.985 1198,-282.911 1198,-235 1198,-235 1198,-235 1198,-121 1198,-75.2057 1149.75,-41.486 1117.75,-24.1584"/>
<polygon fill="midnightblue" stroke="midnightblue" points="1119.3,-21.0184 1108.81,-19.5104 1116.07,-27.229 1119.3,-21.0184"/>
</g>
<!-- Node10 -->
<g id="node10" class="node"><title>Node10</title>
<polygon fill="white" stroke="#bfbfbf" points="1358,-280.5 1358,-299.5 1438,-299.5 1438,-280.5 1358,-280.5"/>
<text text-anchor="middle" x="1398" y="-287.5" font-family="Helvetica,sans-Serif" font-size="10.00">QMainWindow</text>
</g>
<!-- Node2&#45;&gt;Node10 -->
<g id="edge9" class="edge"><title>Node2&#45;&gt;Node10</title>
<path fill="none" stroke="midnightblue" d="M980.26,-337.499C983.209,-336.962 986.135,-336.458 989,-336 1147.35,-310.685 1189.19,-322.221 1348,-300 1348.1,-299.986 1348.2,-299.972 1348.3,-299.957"/>
<polygon fill="midnightblue" stroke="midnightblue" points="1348.57,-303.458 1357.93,-298.498 1347.52,-296.537 1348.57,-303.458"/>
</g>
<!-- Node11 -->
<g id="node11" class="node"><title>Node11</title>
<polygon fill="white" stroke="#bfbfbf" points="651.5,-56.5 651.5,-75.5 704.5,-75.5 704.5,-56.5 651.5,-56.5"/>
<text text-anchor="middle" x="678" y="-63.5" font-family="Helvetica,sans-Serif" font-size="10.00">QObject</text>
</g>
<!-- Node2&#45;&gt;Node11 -->
<g id="edge10" class="edge"><title>Node2&#45;&gt;Node11</title>
<path fill="none" stroke="midnightblue" d="M920.725,-336.779C919.343,-303.34 911.483,-218.729 868,-168 826.811,-119.948 756.925,-91.262 714.365,-77.3548"/>
<polygon fill="midnightblue" stroke="midnightblue" points="715.275,-73.9717 704.685,-74.2926 713.163,-80.6457 715.275,-73.9717"/>
</g>
<!-- Node12 -->
<g id="node12" class="node"><title>Node12</title>
<g id="a_node12"><a xlink:href="../../d4/dca/_roomba_connect_8h.xhtml" target="_top" xlink:title="RoombaConnect.h">
<polygon fill="white" stroke="black" points="518.5,-224.5 518.5,-243.5 615.5,-243.5 615.5,-224.5 518.5,-224.5"/>
<text text-anchor="middle" x="567" y="-231.5" font-family="Helvetica,sans-Serif" font-size="10.00">RoombaConnect.h</text>
</a>
</g>
</g>
<!-- Node2&#45;&gt;Node12 -->
<g id="edge11" class="edge"><title>Node2&#45;&gt;Node12</title>
<path fill="none" stroke="midnightblue" d="M861.821,-338.497C821.413,-329.351 766.909,-315.812 720,-300 674.79,-284.761 624.168,-262.098 593.977,-247.955"/>
<polygon fill="midnightblue" stroke="midnightblue" points="595.096,-244.612 584.559,-243.508 592.107,-250.942 595.096,-244.612"/>
</g>
<!-- Node26 -->
<g id="node26" class="node"><title>Node26</title>
<g id="a_node26"><a xlink:href="../../da/d4b/controllingroomba_8h.xhtml" target="_top" xlink:title="controllingroomba.h">
<polygon fill="white" stroke="black" points="729.5,-280.5 729.5,-299.5 830.5,-299.5 830.5,-280.5 729.5,-280.5"/>
<text text-anchor="middle" x="780" y="-287.5" font-family="Helvetica,sans-Serif" font-size="10.00">controllingroomba.h</text>
</a>
</g>
</g>
<!-- Node2&#45;&gt;Node26 -->
<g id="edge42" class="edge"><title>Node2&#45;&gt;Node26</title>
<path fill="none" stroke="midnightblue" d="M887.942,-336.933C864.153,-326.81 832.353,-313.278 809.438,-303.527"/>
<polygon fill="midnightblue" stroke="midnightblue" points="810.782,-300.295 800.21,-299.6 808.041,-306.736 810.782,-300.295"/>
</g>
<!-- Node25 -->
<g id="node25" class="node"><title>Node25</title>
<g id="a_node25"><a xlink:href="../../d4/d25/sensordata_8h.xhtml" target="_top" xlink:title="sensordata.h">
<polygon fill="white" stroke="black" points="218.5,-168.5 218.5,-187.5 291.5,-187.5 291.5,-168.5 218.5,-168.5"/>
<text text-anchor="middle" x="255" y="-175.5" font-family="Helvetica,sans-Serif" font-size="10.00">sensordata.h</text>
</a>
</g>
</g>
<!-- Node2&#45;&gt;Node25 -->
<g id="edge52" class="edge"><title>Node2&#45;&gt;Node25</title>
<path fill="none" stroke="midnightblue" d="M861.997,-349.549C716.737,-345.497 350.372,-332.171 306,-300 272.571,-275.763 260.916,-225.252 256.957,-197.778"/>
<polygon fill="midnightblue" stroke="midnightblue" points="260.394,-197.051 255.691,-187.558 253.447,-197.912 260.394,-197.051"/>
</g>
<!-- Node21 -->
<g id="node21" class="node"><title>Node21</title>
<g id="a_node21"><a xlink:href="../../dc/d96/jsoncommand_8h.xhtml" target="_top" xlink:title="../resources/jsoncommand.h">
<polygon fill="white" stroke="black" points="916,-168.5 916,-187.5 1056,-187.5 1056,-168.5 916,-168.5"/>
<text text-anchor="middle" x="986" y="-175.5" font-family="Helvetica,sans-Serif" font-size="10.00">../resources/jsoncommand.h</text>
</a>
</g>
</g>
<!-- Node2&#45;&gt;Node21 -->
<g id="edge53" class="edge"><title>Node2&#45;&gt;Node21</title>
<path fill="none" stroke="midnightblue" d="M931.818,-336.966C938.984,-327.09 948.113,-313.31 954,-300 969.327,-265.346 978.621,-221.758 982.99,-197.488"/>
<polygon fill="midnightblue" stroke="midnightblue" points="986.458,-197.97 984.699,-187.522 979.559,-196.786 986.458,-197.97"/>
</g>
<!-- Node22 -->
<g id="node22" class="node"><title>Node22</title>
<g id="a_node22"><a xlink:href="../../d4/d05/json_8h.xhtml" target="_top" xlink:title="json.h">
<polygon fill="white" stroke="black" points="117.5,-112.5 117.5,-131.5 160.5,-131.5 160.5,-112.5 117.5,-112.5"/>
<text text-anchor="middle" x="139" y="-119.5" font-family="Helvetica,sans-Serif" font-size="10.00">json.h</text>
</a>
</g>
</g>
<!-- Node2&#45;&gt;Node22 -->
<g id="edge54" class="edge"><title>Node2&#45;&gt;Node22</title>
<path fill="none" stroke="midnightblue" d="M861.778,-350.573C724.367,-348.893 387.617,-340.626 283,-300 207.42,-270.65 174.622,-260.835 139,-188 131.95,-173.586 132.732,-155.132 134.82,-141.572"/>
<polygon fill="midnightblue" stroke="midnightblue" points="138.3,-142.008 136.738,-131.529 131.424,-140.695 138.3,-142.008"/>
</g>
<!-- Node16 -->
<g id="node16" class="node"><title>Node16</title>
<g id="a_node16"><a xlink:href="../../d7/d62/clslog_8h.xhtml" target="_top" xlink:title="../resources/clslog.h">
<polygon fill="white" stroke="black" points="782.5,-56.5 782.5,-75.5 887.5,-75.5 887.5,-56.5 782.5,-56.5"/>
<text text-anchor="middle" x="835" y="-63.5" font-family="Helvetica,sans-Serif" font-size="10.00">../resources/clslog.h</text>
</a>
</g>
</g>
<!-- Node2&#45;&gt;Node16 -->
<g id="edge55" class="edge"><title>Node2&#45;&gt;Node16</title>
<path fill="none" stroke="midnightblue" d="M973.154,-336.947C1043.48,-316.433 1160,-276.222 1160,-235 1160,-235 1160,-235 1160,-177 1160,-132.553 1124.15,-131.059 1084,-112 1024.84,-83.921 950.156,-73.2844 898.08,-69.2977"/>
<polygon fill="midnightblue" stroke="midnightblue" points="898.199,-65.7975 887.978,-68.5858 897.707,-72.7802 898.199,-65.7975"/>
</g>
<!-- Node24 -->
<g id="node24" class="node"><title>Node24</title>
<g id="a_node24"><a xlink:href="../../db/d97/clsevent_8h.xhtml" target="_top" xlink:title="../resources/clsevent.h">
<polygon fill="white" stroke="black" points="300.5,-112.5 300.5,-131.5 415.5,-131.5 415.5,-112.5 300.5,-112.5"/>
<text text-anchor="middle" x="358" y="-119.5" font-family="Helvetica,sans-Serif" font-size="10.00">../resources/clsevent.h</text>
</a>
</g>
</g>
<!-- Node2&#45;&gt;Node24 -->
<g id="edge56" class="edge"><title>Node2&#45;&gt;Node24</title>
<path fill="none" stroke="midnightblue" d="M861.957,-341.792C809.692,-333.038 731.594,-318.477 665,-300 526.252,-261.504 445.55,-304.551 361,-188 351.369,-174.724 351.697,-155.6 353.786,-141.531"/>
<polygon fill="midnightblue" stroke="midnightblue" points="357.256,-142.017 355.682,-131.54 350.379,-140.712 357.256,-142.017"/>
</g>
<!-- Node12&#45;&gt;Node4 -->
<g id="edge12" class="edge"><title>Node12&#45;&gt;Node4</title>
<path fill="none" stroke="midnightblue" d="M518.281,-230.197C425.405,-224.38 230.315,-209.704 209,-188 166.989,-145.221 177.74,-65.6286 185.412,-29.5874"/>
<polygon fill="midnightblue" stroke="midnightblue" points="188.897,-30.0474 187.723,-19.5178 182.074,-28.4811 188.897,-30.0474"/>
</g>
<!-- Node12&#45;&gt;Node5 -->
<g id="edge13" class="edge"><title>Node12&#45;&gt;Node5</title>
<path fill="none" stroke="midnightblue" d="M609.624,-224.444C663.037,-213.721 753.48,-195.565 802.314,-185.762"/>
<polygon fill="midnightblue" stroke="midnightblue" points="803.246,-189.145 812.361,-183.745 801.868,-182.282 803.246,-189.145"/>
</g>
<!-- Node12&#45;&gt;Node11 -->
<g id="edge14" class="edge"><title>Node12&#45;&gt;Node11</title>
<path fill="none" stroke="midnightblue" d="M573.652,-224.222C580.326,-215.285 590.768,-200.942 599,-188 619.829,-155.253 620.253,-144.144 642,-112 648.657,-102.16 656.885,-91.7658 663.793,-83.4493"/>
<polygon fill="midnightblue" stroke="midnightblue" points="666.608,-85.5404 670.394,-75.6448 661.264,-81.0201 666.608,-85.5404"/>
</g>
<!-- Node13 -->
<g id="node13" class="node"><title>Node13</title>
<polygon fill="white" stroke="#bfbfbf" points="684.5,-168.5 684.5,-187.5 755.5,-187.5 755.5,-168.5 684.5,-168.5"/>
<text text-anchor="middle" x="720" y="-175.5" font-family="Helvetica,sans-Serif" font-size="10.00">QTcpSocket</text>
</g>
<!-- Node12&#45;&gt;Node13 -->
<g id="edge15" class="edge"><title>Node12&#45;&gt;Node13</title>
<path fill="none" stroke="midnightblue" d="M591.243,-224.444C616.871,-215.399 657.485,-201.064 686.238,-190.916"/>
<polygon fill="midnightblue" stroke="midnightblue" points="687.605,-194.145 695.87,-187.516 685.275,-187.544 687.605,-194.145"/>
</g>
<!-- Node14 -->
<g id="node14" class="node"><title>Node14</title>
<polygon fill="white" stroke="#bfbfbf" points="386,-168.5 386,-187.5 460,-187.5 460,-168.5 386,-168.5"/>
<text text-anchor="middle" x="423" y="-175.5" font-family="Helvetica,sans-Serif" font-size="10.00">QTextStream</text>
</g>
<!-- Node12&#45;&gt;Node14 -->
<g id="edge16" class="edge"><title>Node12&#45;&gt;Node14</title>
<path fill="none" stroke="midnightblue" d="M544.183,-224.444C520.168,-215.438 482.171,-201.189 455.131,-191.049"/>
<polygon fill="midnightblue" stroke="midnightblue" points="456.303,-187.751 445.71,-187.516 453.845,-194.305 456.303,-187.751"/>
</g>
<!-- Node15 -->
<g id="node15" class="node"><title>Node15</title>
<polygon fill="white" stroke="#bfbfbf" points="478.5,-168.5 478.5,-187.5 523.5,-187.5 523.5,-168.5 478.5,-168.5"/>
<text text-anchor="middle" x="501" y="-175.5" font-family="Helvetica,sans-Serif" font-size="10.00">QTime</text>
</g>
<!-- Node12&#45;&gt;Node15 -->
<g id="edge17" class="edge"><title>Node12&#45;&gt;Node15</title>
<path fill="none" stroke="midnightblue" d="M556.396,-224.324C546.544,-216.263 531.649,-204.077 519.785,-194.369"/>
<polygon fill="midnightblue" stroke="midnightblue" points="521.753,-191.457 511.797,-187.834 517.32,-196.875 521.753,-191.457"/>
</g>
<!-- Node12&#45;&gt;Node16 -->
<g id="edge18" class="edge"><title>Node12&#45;&gt;Node16</title>
<path fill="none" stroke="midnightblue" d="M581.032,-224.309C624.72,-197.248 758.598,-114.324 812.332,-81.0406"/>
<polygon fill="midnightblue" stroke="midnightblue" points="814.449,-83.8464 821.107,-75.6051 810.763,-77.8954 814.449,-83.8464"/>
</g>
<!-- Node20 -->
<g id="node20" class="node"><title>Node20</title>
<polygon fill="white" stroke="#bfbfbf" points="542,-168.5 542,-187.5 590,-187.5 590,-168.5 542,-168.5"/>
<text text-anchor="middle" x="566" y="-175.5" font-family="Helvetica,sans-Serif" font-size="10.00">QTimer</text>
</g>
<!-- Node12&#45;&gt;Node20 -->
<g id="edge24" class="edge"><title>Node12&#45;&gt;Node20</title>
<path fill="none" stroke="midnightblue" d="M566.835,-224.083C566.704,-217.006 566.516,-206.861 566.352,-197.986"/>
<polygon fill="midnightblue" stroke="midnightblue" points="569.847,-197.685 566.162,-187.751 562.848,-197.814 569.847,-197.685"/>
</g>
<!-- Node12&#45;&gt;Node21 -->
<g id="edge25" class="edge"><title>Node12&#45;&gt;Node21</title>
<path fill="none" stroke="midnightblue" d="M615.777,-225.583C619.573,-225.036 623.348,-224.503 627,-224 722.685,-210.829 832.945,-197.245 905.749,-188.496"/>
<polygon fill="midnightblue" stroke="midnightblue" points="906.256,-191.96 915.768,-187.294 905.422,-185.01 906.256,-191.96"/>
</g>
<!-- Node12&#45;&gt;Node22 -->
<g id="edge32" class="edge"><title>Node12&#45;&gt;Node22</title>
<path fill="none" stroke="midnightblue" d="M518.326,-232.78C426.318,-231.506 231.155,-224.447 176,-188 159.786,-177.285 149.884,-156.881 144.455,-141.78"/>
<polygon fill="midnightblue" stroke="midnightblue" points="147.678,-140.37 141.267,-131.935 141.018,-142.527 147.678,-140.37"/>
</g>
<!-- Node12&#45;&gt;Node24 -->
<g id="edge33" class="edge"><title>Node12&#45;&gt;Node24</title>
<path fill="none" stroke="midnightblue" d="M518.379,-227.094C469.024,-220.145 397.097,-207.081 377,-188 364.487,-176.119 360.076,-156.497 358.591,-141.915"/>
<polygon fill="midnightblue" stroke="midnightblue" points="362.059,-141.301 357.928,-131.545 355.073,-141.748 362.059,-141.301"/>
</g>
<!-- Node12&#45;&gt;Node25 -->
<g id="edge39" class="edge"><title>Node12&#45;&gt;Node25</title>
<path fill="none" stroke="midnightblue" d="M518.25,-224.563C459.075,-214.321 359.996,-197.172 301.742,-187.09"/>
<polygon fill="midnightblue" stroke="midnightblue" points="302.158,-183.61 291.708,-185.353 300.964,-190.508 302.158,-183.61"/>
</g>
<!-- Node16&#45;&gt;Node4 -->
<g id="edge19" class="edge"><title>Node16&#45;&gt;Node4</title>
<path fill="none" stroke="midnightblue" d="M782.49,-60.6038C655.596,-49.9802 334.767,-23.12 226.401,-14.0476"/>
<polygon fill="midnightblue" stroke="midnightblue" points="226.555,-10.5482 216.298,-13.2017 225.971,-17.5238 226.555,-10.5482"/>
</g>
<!-- Node17 -->
<g id="node17" class="node"><title>Node17</title>
<polygon fill="white" stroke="#bfbfbf" points="576.5,-0.5 576.5,-19.5 641.5,-19.5 641.5,-0.5 576.5,-0.5"/>
<text text-anchor="middle" x="609" y="-7.5" font-family="Helvetica,sans-Serif" font-size="10.00">QDateTime</text>
</g>
<!-- Node16&#45;&gt;Node17 -->
<g id="edge20" class="edge"><title>Node16&#45;&gt;Node17</title>
<path fill="none" stroke="midnightblue" d="M799.19,-56.4435C759.091,-46.8624 694.151,-31.3458 651.509,-21.157"/>
<polygon fill="midnightblue" stroke="midnightblue" points="652.247,-17.735 641.708,-18.8151 650.62,-24.5433 652.247,-17.735"/>
</g>
<!-- Node18 -->
<g id="node18" class="node"><title>Node18</title>
<polygon fill="white" stroke="#bfbfbf" points="778.5,-0.5 778.5,-19.5 819.5,-19.5 819.5,-0.5 778.5,-0.5"/>
<text text-anchor="middle" x="799" y="-7.5" font-family="Helvetica,sans-Serif" font-size="10.00">string</text>
</g>
<!-- Node16&#45;&gt;Node18 -->
<g id="edge21" class="edge"><title>Node16&#45;&gt;Node18</title>
<path fill="none" stroke="midnightblue" d="M829.055,-56.083C824.023,-48.5341 816.663,-37.4948 810.487,-28.2298"/>
<polygon fill="midnightblue" stroke="midnightblue" points="813.293,-26.1301 804.834,-19.7511 807.469,-30.0131 813.293,-26.1301"/>
</g>
<!-- Node16&#45;&gt;Node9 -->
<g id="edge22" class="edge"><title>Node16&#45;&gt;Node9</title>
<path fill="none" stroke="midnightblue" d="M875.406,-56.4435C924.207,-46.1091 1005.62,-28.8692 1052.89,-18.8581"/>
<polygon fill="midnightblue" stroke="midnightblue" points="1053.66,-22.2726 1062.72,-16.7767 1052.21,-15.4245 1053.66,-22.2726"/>
</g>
<!-- Node19 -->
<g id="node19" class="node"><title>Node19</title>
<polygon fill="white" stroke="#bfbfbf" points="837.5,-0.5 837.5,-19.5 902.5,-19.5 902.5,-0.5 837.5,-0.5"/>
<text text-anchor="middle" x="870" y="-7.5" font-family="Helvetica,sans-Serif" font-size="10.00">QStringList</text>
</g>
<!-- Node16&#45;&gt;Node19 -->
<g id="edge23" class="edge"><title>Node16&#45;&gt;Node19</title>
<path fill="none" stroke="midnightblue" d="M840.78,-56.083C845.672,-48.5341 852.827,-37.4948 858.833,-28.2298"/>
<polygon fill="midnightblue" stroke="midnightblue" points="861.826,-30.0463 864.328,-19.7511 855.952,-26.239 861.826,-30.0463"/>
</g>
<!-- Node21&#45;&gt;Node11 -->
<g id="edge26" class="edge"><title>Node21&#45;&gt;Node11</title>
<path fill="none" stroke="midnightblue" d="M976.363,-168.348C960.162,-154.286 925.903,-126.579 892,-112 833.037,-86.6438 758.622,-75.1523 714.879,-70.2716"/>
<polygon fill="midnightblue" stroke="midnightblue" points="715.023,-66.7674 704.71,-69.1951 714.286,-73.7285 715.023,-66.7674"/>
</g>
<!-- Node21&#45;&gt;Node8 -->
<g id="edge27" class="edge"><title>Node21&#45;&gt;Node8</title>
<path fill="none" stroke="midnightblue" d="M991.449,-168.083C996.014,-160.613 1002.67,-149.724 1008.29,-140.52"/>
<polygon fill="midnightblue" stroke="midnightblue" points="1011.42,-142.109 1013.65,-131.751 1005.45,-138.459 1011.42,-142.109"/>
</g>
<!-- Node21&#45;&gt;Node22 -->
<g id="edge28" class="edge"><title>Node21&#45;&gt;Node22</title>
<path fill="none" stroke="midnightblue" d="M915.816,-171.479C900.086,-170.288 883.475,-169.068 868,-168 729.24,-158.426 292.951,-132.215 170.967,-124.911"/>
<polygon fill="midnightblue" stroke="midnightblue" points="170.989,-121.407 160.798,-124.303 170.571,-128.394 170.989,-121.407"/>
</g>
<!-- Node21&#45;&gt;Node16 -->
<g id="edge31" class="edge"><title>Node21&#45;&gt;Node16</title>
<path fill="none" stroke="midnightblue" d="M980.376,-168.409C971.193,-154.921 951.802,-128.608 930,-112 911.704,-98.062 888.397,-86.941 869.448,-79.2415"/>
<polygon fill="midnightblue" stroke="midnightblue" points="870.573,-75.9233 859.986,-75.5302 868.017,-82.44 870.573,-75.9233"/>
</g>
<!-- Node23 -->
<g id="node23" class="node"><title>Node23</title>
<polygon fill="white" stroke="#bfbfbf" points="227.5,-56.5 227.5,-75.5 282.5,-75.5 282.5,-56.5 227.5,-56.5"/>
<text text-anchor="middle" x="255" y="-63.5" font-family="Helvetica,sans-Serif" font-size="10.00">QVariant</text>
</g>
<!-- Node22&#45;&gt;Node23 -->
<g id="edge29" class="edge"><title>Node22&#45;&gt;Node23</title>
<path fill="none" stroke="midnightblue" d="M157.381,-112.444C176.216,-103.675 205.731,-89.9355 227.379,-79.8579"/>
<polygon fill="midnightblue" stroke="midnightblue" points="229.117,-82.9098 236.705,-75.5164 226.162,-76.5637 229.117,-82.9098"/>
</g>
<!-- Node22&#45;&gt;Node3 -->
<g id="edge30" class="edge"><title>Node22&#45;&gt;Node3</title>
<path fill="none" stroke="midnightblue" d="M138.67,-112.083C138.408,-105.006 138.032,-94.8611 137.703,-85.9865"/>
<polygon fill="midnightblue" stroke="midnightblue" points="141.192,-85.6147 137.324,-75.7511 134.197,-85.8738 141.192,-85.6147"/>
</g>
<!-- Node24&#45;&gt;Node11 -->
<g id="edge34" class="edge"><title>Node24&#45;&gt;Node11</title>
<path fill="none" stroke="midnightblue" d="M408.705,-112.444C473.409,-101.525 583.791,-82.8977 641.07,-73.232"/>
<polygon fill="midnightblue" stroke="midnightblue" points="641.846,-76.6506 651.124,-71.5354 640.681,-69.7482 641.846,-76.6506"/>
</g>
<!-- Node24&#45;&gt;Node3 -->
<g id="edge35" class="edge"><title>Node24&#45;&gt;Node3</title>
<path fill="none" stroke="midnightblue" d="M322.982,-112.444C281.691,-102.354 213.466,-85.6841 172.128,-75.5833"/>
<polygon fill="midnightblue" stroke="midnightblue" points="172.775,-72.1386 162.23,-73.1649 171.114,-78.9386 172.775,-72.1386"/>
</g>
<!-- Node24&#45;&gt;Node23 -->
<g id="edge36" class="edge"><title>Node24&#45;&gt;Node23</title>
<path fill="none" stroke="midnightblue" d="M341.451,-112.324C325.008,-103.703 299.565,-90.3643 280.532,-80.3855"/>
<polygon fill="midnightblue" stroke="midnightblue" points="281.989,-77.198 271.508,-75.6545 278.739,-83.3977 281.989,-77.198"/>
</g>
<!-- Node24&#45;&gt;Node17 -->
<g id="edge37" class="edge"><title>Node24&#45;&gt;Node17</title>
<path fill="none" stroke="midnightblue" d="M377.696,-112.368C421.775,-93.0507 528.545,-46.2592 580.139,-23.6481"/>
<polygon fill="midnightblue" stroke="midnightblue" points="581.642,-26.8111 589.396,-19.5914 578.832,-20.3997 581.642,-26.8111"/>
</g>
<!-- Node24&#45;&gt;Node16 -->
<g id="edge38" class="edge"><title>Node24&#45;&gt;Node16</title>
<path fill="none" stroke="midnightblue" d="M415.537,-114.486C505.578,-104.293 679.097,-84.6494 772.247,-74.1041"/>
<polygon fill="midnightblue" stroke="midnightblue" points="772.833,-77.5603 782.375,-72.9575 772.045,-70.6047 772.833,-77.5603"/>
</g>
<!-- Node25&#45;&gt;Node24 -->
<g id="edge40" class="edge"><title>Node25&#45;&gt;Node24</title>
<path fill="none" stroke="midnightblue" d="M271.549,-168.324C287.992,-159.703 313.435,-146.364 332.468,-136.386"/>
<polygon fill="midnightblue" stroke="midnightblue" points="334.261,-139.398 341.492,-131.655 331.011,-133.198 334.261,-139.398"/>
</g>
<!-- Node25&#45;&gt;Node23 -->
<g id="edge41" class="edge"><title>Node25&#45;&gt;Node23</title>
<path fill="none" stroke="midnightblue" d="M255,-168.368C255,-150.617 255,-109.666 255,-85.5974"/>
<polygon fill="midnightblue" stroke="midnightblue" points="258.5,-85.5914 255,-75.5914 251.5,-85.5915 258.5,-85.5914"/>
</g>
<!-- Node26&#45;&gt;Node22 -->
<g id="edge43" class="edge"><title>Node26&#45;&gt;Node22</title>
<path fill="none" stroke="midnightblue" d="M729.122,-287.87C595.149,-283.831 237.214,-265.83 154,-188 141.463,-176.274 138.415,-156.337 138.071,-141.628"/>
<polygon fill="midnightblue" stroke="midnightblue" points="141.571,-141.673 138.222,-131.621 134.571,-141.567 141.571,-141.673"/>
</g>
<!-- Node26&#45;&gt;Node21 -->
<g id="edge44" class="edge"><title>Node26&#45;&gt;Node21</title>
<path fill="none" stroke="midnightblue" d="M796.164,-280.368C831.965,-261.251 918.153,-215.229 960.979,-192.361"/>
<polygon fill="midnightblue" stroke="midnightblue" points="962.738,-195.389 969.911,-187.591 959.441,-189.214 962.738,-195.389"/>
</g>
<!-- Node26&#45;&gt;Node12 -->
<g id="edge45" class="edge"><title>Node26&#45;&gt;Node12</title>
<path fill="none" stroke="midnightblue" d="M746.25,-280.444C709.482,-271.122 650.554,-256.183 610.378,-245.997"/>
<polygon fill="midnightblue" stroke="midnightblue" points="611.146,-242.581 600.593,-243.516 609.426,-249.367 611.146,-242.581"/>
</g>
<!-- Node26&#45;&gt;Node16 -->
<g id="edge46" class="edge"><title>Node26&#45;&gt;Node16</title>
<path fill="none" stroke="midnightblue" d="M830.766,-287.66C897.298,-282.843 1011.76,-263.349 1065,-188 1084.49,-160.413 1086.47,-138.077 1065,-112 1044.19,-86.7233 958.643,-75.4428 897.98,-70.5506"/>
<polygon fill="midnightblue" stroke="midnightblue" points="897.958,-67.0387 887.719,-69.7642 897.423,-74.0182 897.958,-67.0387"/>
</g>
<!-- Node26&#45;&gt;Node24 -->
<g id="edge47" class="edge"><title>Node26&#45;&gt;Node24</title>
<path fill="none" stroke="midnightblue" d="M778.003,-280.42C775.97,-271.4 772.86,-256.772 771,-244 766.111,-210.433 787.762,-192.207 764,-168 740.809,-144.375 535.447,-131.273 426.003,-125.912"/>
<polygon fill="midnightblue" stroke="midnightblue" points="425.877,-122.402 415.721,-125.417 425.541,-129.394 425.877,-122.402"/>
</g>
<!-- Node27 -->
<g id="node27" class="node"><title>Node27</title>
<polygon fill="white" stroke="#bfbfbf" points="780.5,-224.5 780.5,-243.5 835.5,-243.5 835.5,-224.5 780.5,-224.5"/>
<text text-anchor="middle" x="808" y="-231.5" font-family="Helvetica,sans-Serif" font-size="10.00">QWidget</text>
</g>
<!-- Node26&#45;&gt;Node27 -->
<g id="edge48" class="edge"><title>Node26&#45;&gt;Node27</title>
<path fill="none" stroke="midnightblue" d="M784.624,-280.083C788.456,-272.691 794.024,-261.953 798.765,-252.811"/>
<polygon fill="midnightblue" stroke="midnightblue" points="801.966,-254.24 803.462,-243.751 795.752,-251.018 801.966,-254.24"/>
</g>
<!-- Node26&#45;&gt;Node13 -->
<g id="edge49" class="edge"><title>Node26&#45;&gt;Node13</title>
<path fill="none" stroke="midnightblue" d="M769.51,-280.423C759.961,-272.074 746.146,-258.545 738,-244 729.954,-229.633 725.316,-211.437 722.77,-197.953"/>
<polygon fill="midnightblue" stroke="midnightblue" points="726.194,-197.209 721.094,-187.923 719.29,-198.363 726.194,-197.209"/>
</g>
<!-- Node28 -->
<g id="node28" class="node"><title>Node28</title>
<polygon fill="white" stroke="#bfbfbf" points="636.5,-224.5 636.5,-243.5 685.5,-243.5 685.5,-224.5 636.5,-224.5"/>
<text text-anchor="middle" x="661" y="-231.5" font-family="Helvetica,sans-Serif" font-size="10.00">QSlider</text>
</g>
<!-- Node26&#45;&gt;Node28 -->
<g id="edge50" class="edge"><title>Node26&#45;&gt;Node28</title>
<path fill="none" stroke="midnightblue" d="M761.144,-280.444C741.734,-271.636 711.27,-257.812 689.035,-247.722"/>
<polygon fill="midnightblue" stroke="midnightblue" points="690.32,-244.462 679.768,-243.516 687.428,-250.836 690.32,-244.462"/>
</g>
<!-- Node26&#45;&gt;Node5 -->
<g id="edge51" class="edge"><title>Node26&#45;&gt;Node5</title>
<path fill="none" stroke="midnightblue" d="M801.483,-280.36C816.392,-273.09 835.111,-261.117 844,-244 851.525,-229.509 848.09,-210.821 843.623,-197.206"/>
<polygon fill="midnightblue" stroke="midnightblue" points="846.793,-195.689 840.01,-187.55 840.237,-198.143 846.793,-195.689"/>
</g>
</g>
</svg>
