<?xml version="1.0" encoding="UTF-8" standalone="no"?>
<!DOCTYPE svg PUBLIC "-//W3C//DTD SVG 1.1//EN"
 "http://www.w3.org/Graphics/SVG/1.1/DTD/svg11.dtd">
<!-- Generated by graphviz version 2.30.1 (20130214.1330)
 -->
<!-- Title: GUI/bin/debug/debug/moc_roomba.cpp Pages: 1 -->
<!--zoomable 444 -->
<svg id="main" version="1.1" xmlns="http://www.w3.org/2000/svg" xmlns:xlink="http://www.w3.org/1999/xlink" xml:space="preserve" onload="init(evt)">
        <defs>
                <circle id="rim" cx="0" cy="0" r="7"/>
                <circle id="rim2" cx="0" cy="0" r="3.5"/>
                <g id="zoomPlus">
                        <use xlink:href="#rim" fill="#404040">
                                <set attributeName="fill" to="#808080" begin="zoomplus.mouseover" end="zoomplus.mouseout"/>
                        </use>
                        <path d="M-4,0h8M0,-4v8" fill="none" stroke="white" stroke-width="1.5" pointer-events="none"/>
                </g>
                <g id="zoomMin">
                        <use xlink:href="#rim" fill="#404040">
                                <set attributeName="fill" to="#808080" begin="zoomminus.mouseover" end="zoomminus.mouseout"/>
                        </use>
                        <path d="M-4,0h8" fill="none" stroke="white" stroke-width="1.5" pointer-events="none"/>
                </g>
                <g id="dirArrow">
                        <path fill="none" stroke="white" stroke-width="1.5" d="M0,-3.0v7 M-2.5,-0.5L0,-3.0L2.5,-0.5"/>
                </g>
               <g id="resetDef">
                       <use xlink:href="#rim2" fill="#404040">
                               <set attributeName="fill" to="#808080" begin="reset.mouseover" end="reset.mouseout"/>
                       </use>
               </g>
        </defs>

<script type="text/javascript">
var viewWidth = 1854;
var viewHeight = 444;
var sectionId = 'dynsection-0';
</script>
<script xlink:href="../../svgpan.js"/>
<svg id="graph" class="graph">
<g id="viewport">
<title>GUI/bin/debug/debug/moc_roomba.cpp</title>
<polygon fill="white" stroke="white" points="-4,5 -4,-440 1851,-440 1851,5 -4,5"/>
<!-- Node1 -->
<g id="node1" class="node"><title>Node1</title>
<polygon fill="#bfbfbf" stroke="black" points="1368.5,-405 1368.5,-435 1475.5,-435 1475.5,-405 1368.5,-405"/>
<text text-anchor="start" x="1376.5" y="-423" font-family="Helvetica,sans-Serif" font-size="10.00">GUI/bin/debug/debug</text>
<text text-anchor="middle" x="1422" y="-412" font-family="Helvetica,sans-Serif" font-size="10.00">/moc_roomba.cpp</text>
</g>
<!-- Node2 -->
<g id="node2" class="node"><title>Node2</title>
<g id="a_node2"><a xlink:href="../../dd/da1/roomba_8h.xhtml" target="_top" xlink:title="../../../Gui&#45;RoombaV1.0\l/roomba.h">
<polygon fill="white" stroke="black" points="1234,-337 1234,-367 1352,-367 1352,-337 1234,-337"/>
<text text-anchor="start" x="1242" y="-355" font-family="Helvetica,sans-Serif" font-size="10.00">../../../Gui&#45;RoombaV1.0</text>
<text text-anchor="middle" x="1293" y="-344" font-family="Helvetica,sans-Serif" font-size="10.00">/roomba.h</text>
</a>
</g>
</g>
<!-- Node1&#45;&gt;Node2 -->
<g id="edge1" class="edge"><title>Node1&#45;&gt;Node2</title>
<path fill="none" stroke="midnightblue" d="M1394.33,-404.841C1375.45,-395.185 1350.25,-382.29 1329.7,-371.778"/>
<polygon fill="midnightblue" stroke="midnightblue" points="1331.12,-368.574 1320.63,-367.135 1327.94,-374.806 1331.12,-368.574"/>
</g>
<!-- Node33 -->
<g id="node33" class="node"><title>Node33</title>
<polygon fill="white" stroke="#bfbfbf" points="1370,-342.5 1370,-361.5 1474,-361.5 1474,-342.5 1370,-342.5"/>
<text text-anchor="middle" x="1422" y="-349.5" font-family="Helvetica,sans-Serif" font-size="10.00">QtCore/qbytearray.h</text>
</g>
<!-- Node1&#45;&gt;Node33 -->
<g id="edge73" class="edge"><title>Node1&#45;&gt;Node33</title>
<path fill="none" stroke="midnightblue" d="M1422,-404.679C1422,-395.101 1422,-382.394 1422,-371.977"/>
<polygon fill="midnightblue" stroke="midnightblue" points="1425.5,-371.828 1422,-361.828 1418.5,-371.828 1425.5,-371.828"/>
</g>
<!-- Node34 -->
<g id="node34" class="node"><title>Node34</title>
<polygon fill="white" stroke="#bfbfbf" points="1492,-342.5 1492,-361.5 1596,-361.5 1596,-342.5 1492,-342.5"/>
<text text-anchor="middle" x="1544" y="-349.5" font-family="Helvetica,sans-Serif" font-size="10.00">QtCore/qmetatype.h</text>
</g>
<!-- Node1&#45;&gt;Node34 -->
<g id="edge74" class="edge"><title>Node1&#45;&gt;Node34</title>
<path fill="none" stroke="midnightblue" d="M1448.17,-404.841C1469.18,-393.476 1498.48,-377.628 1519.13,-366.454"/>
<polygon fill="midnightblue" stroke="midnightblue" points="1520.82,-369.519 1527.95,-361.682 1517.49,-363.362 1520.82,-369.519"/>
</g>
<!-- Node3 -->
<g id="node3" class="node"><title>Node3</title>
<polygon fill="white" stroke="#bfbfbf" points="165,-56.5 165,-75.5 215,-75.5 215,-56.5 165,-56.5"/>
<text text-anchor="middle" x="190" y="-63.5" font-family="Helvetica,sans-Serif" font-size="10.00">QString</text>
</g>
<!-- Node2&#45;&gt;Node3 -->
<g id="edge2" class="edge"><title>Node2&#45;&gt;Node3</title>
<path fill="none" stroke="midnightblue" d="M1233.88,-349.432C1049.02,-344.298 483.511,-326.767 302,-300 182.455,-282.371 38,-355.837 38,-235 38,-235 38,-235 38,-177 38,-119.461 110.368,-88.9546 155.235,-75.5703"/>
<polygon fill="midnightblue" stroke="midnightblue" points="156.238,-78.924 164.9,-72.8231 154.324,-72.1907 156.238,-78.924"/>
</g>
<!-- Node4 -->
<g id="node4" class="node"><title>Node4</title>
<polygon fill="white" stroke="#bfbfbf" points="88,-0.5 88,-19.5 140,-19.5 140,-0.5 88,-0.5"/>
<text text-anchor="middle" x="114" y="-7.5" font-family="Helvetica,sans-Serif" font-size="10.00">QDebug</text>
</g>
<!-- Node2&#45;&gt;Node4 -->
<g id="edge3" class="edge"><title>Node2&#45;&gt;Node4</title>
<path fill="none" stroke="midnightblue" d="M1233.74,-349.993C993.298,-345.727 100.879,-328.058 48,-300 16.277,-283.168 0,-270.912 0,-235 0,-235 0,-235 0,-121 0,-74.1149 50.5515,-40.8944 84.3292,-23.9302"/>
<polygon fill="midnightblue" stroke="midnightblue" points="85.8676,-27.0742 93.3555,-19.5787 82.8277,-20.7687 85.8676,-27.0742"/>
</g>
<!-- Node5 -->
<g id="node5" class="node"><title>Node5</title>
<polygon fill="white" stroke="#bfbfbf" points="1254.5,-168.5 1254.5,-187.5 1301.5,-187.5 1301.5,-168.5 1254.5,-168.5"/>
<text text-anchor="middle" x="1278" y="-175.5" font-family="Helvetica,sans-Serif" font-size="10.00">QtCore</text>
</g>
<!-- Node2&#45;&gt;Node5 -->
<g id="edge4" class="edge"><title>Node2&#45;&gt;Node5</title>
<path fill="none" stroke="midnightblue" d="M1291.77,-336.925C1289.08,-306.073 1282.66,-232.484 1279.64,-197.755"/>
<polygon fill="midnightblue" stroke="midnightblue" points="1283.1,-197.243 1278.75,-187.585 1276.13,-197.851 1283.1,-197.243"/>
</g>
<!-- Node6 -->
<g id="node6" class="node"><title>Node6</title>
<polygon fill="white" stroke="#bfbfbf" points="1706,-280.5 1706,-299.5 1748,-299.5 1748,-280.5 1706,-280.5"/>
<text text-anchor="middle" x="1727" y="-287.5" font-family="Helvetica,sans-Serif" font-size="10.00">vector</text>
</g>
<!-- Node2&#45;&gt;Node6 -->
<g id="edge5" class="edge"><title>Node2&#45;&gt;Node6</title>
<path fill="none" stroke="midnightblue" d="M1352.26,-337.529C1355.21,-336.984 1358.14,-336.47 1361,-336 1507.02,-312.027 1546.41,-326.494 1692,-300 1693.25,-299.773 1694.52,-299.525 1695.8,-299.261"/>
<polygon fill="midnightblue" stroke="midnightblue" points="1696.67,-302.654 1705.64,-297.011 1695.11,-295.83 1696.67,-302.654"/>
</g>
<!-- Node7 -->
<g id="node7" class="node"><title>Node7</title>
<polygon fill="white" stroke="#bfbfbf" points="1279.5,-112.5 1279.5,-131.5 1332.5,-131.5 1332.5,-112.5 1279.5,-112.5"/>
<text text-anchor="middle" x="1306" y="-119.5" font-family="Helvetica,sans-Serif" font-size="10.00">QVector</text>
</g>
<!-- Node2&#45;&gt;Node7 -->
<g id="edge6" class="edge"><title>Node2&#45;&gt;Node7</title>
<path fill="none" stroke="midnightblue" d="M1295.65,-336.795C1301.1,-306.071 1312.8,-231.115 1310,-168 1309.62,-159.372 1308.82,-149.841 1308.04,-141.78"/>
<polygon fill="midnightblue" stroke="midnightblue" points="1311.5,-141.199 1306.99,-131.612 1304.54,-141.918 1311.5,-141.199"/>
</g>
<!-- Node8 -->
<g id="node8" class="node"><title>Node8</title>
<polygon fill="white" stroke="#bfbfbf" points="1452,-112.5 1452,-131.5 1526,-131.5 1526,-112.5 1452,-112.5"/>
<text text-anchor="middle" x="1489" y="-119.5" font-family="Helvetica,sans-Serif" font-size="10.00">QVariantMap</text>
</g>
<!-- Node2&#45;&gt;Node8 -->
<g id="edge7" class="edge"><title>Node2&#45;&gt;Node8</title>
<path fill="none" stroke="midnightblue" d="M1332.69,-336.962C1354.56,-328.187 1381.54,-315.589 1403,-300 1457.96,-260.075 1482.17,-251.228 1507,-188 1513.14,-172.366 1506.75,-153.846 1499.94,-140.582"/>
<polygon fill="midnightblue" stroke="midnightblue" points="1502.83,-138.575 1494.85,-131.598 1496.74,-142.024 1502.83,-138.575"/>
</g>
<!-- Node9 -->
<g id="node9" class="node"><title>Node9</title>
<polygon fill="white" stroke="#bfbfbf" points="1570,-0.5 1570,-19.5 1624,-19.5 1624,-0.5 1570,-0.5"/>
<text text-anchor="middle" x="1597" y="-7.5" font-family="Helvetica,sans-Serif" font-size="10.00">iostream</text>
</g>
<!-- Node2&#45;&gt;Node9 -->
<g id="edge8" class="edge"><title>Node2&#45;&gt;Node9</title>
<path fill="none" stroke="midnightblue" d="M1352.32,-337.846C1355.26,-337.217 1358.16,-336.599 1361,-336 1505.69,-305.495 1678,-382.867 1678,-235 1678,-235 1678,-235 1678,-121 1678,-80.4453 1641.86,-44.9891 1617.86,-25.9149"/>
<polygon fill="midnightblue" stroke="midnightblue" points="1619.73,-22.9379 1609.66,-19.6497 1615.48,-28.501 1619.73,-22.9379"/>
</g>
<!-- Node10 -->
<g id="node10" class="node"><title>Node10</title>
<polygon fill="white" stroke="#bfbfbf" points="1766,-280.5 1766,-299.5 1846,-299.5 1846,-280.5 1766,-280.5"/>
<text text-anchor="middle" x="1806" y="-287.5" font-family="Helvetica,sans-Serif" font-size="10.00">QMainWindow</text>
</g>
<!-- Node2&#45;&gt;Node10 -->
<g id="edge9" class="edge"><title>Node2&#45;&gt;Node10</title>
<path fill="none" stroke="midnightblue" d="M1352.25,-337.467C1355.21,-336.938 1358.13,-336.445 1361,-336 1532.4,-309.414 1580.15,-323.443 1755.83,-300.034"/>
<polygon fill="midnightblue" stroke="midnightblue" points="1756.5,-303.476 1765.94,-298.665 1755.56,-296.539 1756.5,-303.476"/>
</g>
<!-- Node11 -->
<g id="node11" class="node"><title>Node11</title>
<polygon fill="white" stroke="#bfbfbf" points="1199.5,-56.5 1199.5,-75.5 1252.5,-75.5 1252.5,-56.5 1199.5,-56.5"/>
<text text-anchor="middle" x="1226" y="-63.5" font-family="Helvetica,sans-Serif" font-size="10.00">QObject</text>
</g>
<!-- Node2&#45;&gt;Node11 -->
<g id="edge10" class="edge"><title>Node2&#45;&gt;Node11</title>
<path fill="none" stroke="midnightblue" d="M1336.84,-336.99C1413.54,-311.844 1564,-259.405 1564,-235 1564,-235 1564,-235 1564,-177 1564,-145.366 1560.22,-131.091 1535,-112 1524.21,-103.83 1342.07,-81.006 1262.6,-71.3755"/>
<polygon fill="midnightblue" stroke="midnightblue" points="1262.89,-67.8849 1252.54,-70.1606 1262.05,-74.8344 1262.89,-67.8849"/>
</g>
<!-- Node12 -->
<g id="node12" class="node"><title>Node12</title>
<g id="a_node12"><a xlink:href="../../d4/dca/_roomba_connect_8h.xhtml" target="_top" xlink:title="RoombaConnect.h">
<polygon fill="white" stroke="black" points="730.5,-224.5 730.5,-243.5 827.5,-243.5 827.5,-224.5 730.5,-224.5"/>
<text text-anchor="middle" x="779" y="-231.5" font-family="Helvetica,sans-Serif" font-size="10.00">RoombaConnect.h</text>
</a>
</g>
</g>
<!-- Node2&#45;&gt;Node12 -->
<g id="edge11" class="edge"><title>Node2&#45;&gt;Node12</title>
<path fill="none" stroke="midnightblue" d="M1233.79,-350.781C1153.9,-348.864 1008.13,-339.6 891,-300 856.152,-288.218 820.096,-264.943 798.613,-249.68"/>
<polygon fill="midnightblue" stroke="midnightblue" points="800.494,-246.721 790.344,-243.686 796.386,-252.389 800.494,-246.721"/>
</g>
<!-- Node29 -->
<g id="node29" class="node"><title>Node29</title>
<g id="a_node29"><a xlink:href="../../da/d4b/controllingroomba_8h.xhtml" target="_top" xlink:title="controllingroomba.h">
<polygon fill="white" stroke="black" points="1063.5,-280.5 1063.5,-299.5 1164.5,-299.5 1164.5,-280.5 1063.5,-280.5"/>
<text text-anchor="middle" x="1114" y="-287.5" font-family="Helvetica,sans-Serif" font-size="10.00">controllingroomba.h</text>
</a>
</g>
</g>
<!-- Node2&#45;&gt;Node29 -->
<g id="edge52" class="edge"><title>Node2&#45;&gt;Node29</title>
<path fill="none" stroke="midnightblue" d="M1251.03,-336.933C1220.07,-326.553 1178.41,-312.589 1149.18,-302.792"/>
<polygon fill="midnightblue" stroke="midnightblue" points="1149.99,-299.372 1139.4,-299.513 1147.77,-306.009 1149.99,-299.372"/>
</g>
<!-- Node25 -->
<g id="node25" class="node"><title>Node25</title>
<g id="a_node25"><a xlink:href="../../d4/d25/sensordata_8h.xhtml" target="_top" xlink:title="sensordata.h">
<polygon fill="white" stroke="black" points="218.5,-168.5 218.5,-187.5 291.5,-187.5 291.5,-168.5 218.5,-168.5"/>
<text text-anchor="middle" x="255" y="-175.5" font-family="Helvetica,sans-Serif" font-size="10.00">sensordata.h</text>
</a>
</g>
</g>
<!-- Node2&#45;&gt;Node25 -->
<g id="edge67" class="edge"><title>Node2&#45;&gt;Node25</title>
<path fill="none" stroke="midnightblue" d="M1233.78,-349.429C1050.43,-344.301 499.824,-326.821 424,-300 359.597,-277.219 298.026,-221.961 270.319,-194.717"/>
<polygon fill="midnightblue" stroke="midnightblue" points="272.677,-192.126 263.133,-187.527 267.726,-197.074 272.677,-192.126"/>
</g>
<!-- Node21 -->
<g id="node21" class="node"><title>Node21</title>
<g id="a_node21"><a xlink:href="../../dc/d96/jsoncommand_8h.xhtml" target="_top" xlink:title="../resources/jsoncommand.h">
<polygon fill="white" stroke="black" points="1358,-168.5 1358,-187.5 1498,-187.5 1498,-168.5 1358,-168.5"/>
<text text-anchor="middle" x="1428" y="-175.5" font-family="Helvetica,sans-Serif" font-size="10.00">../resources/jsoncommand.h</text>
</a>
</g>
</g>
<!-- Node2&#45;&gt;Node21 -->
<g id="edge68" class="edge"><title>Node2&#45;&gt;Node21</title>
<path fill="none" stroke="midnightblue" d="M1330.83,-336.792C1348.72,-328.432 1369.14,-316.268 1383,-300 1408.83,-269.683 1420.48,-223.152 1425.2,-197.525"/>
<polygon fill="midnightblue" stroke="midnightblue" points="1428.65,-198.083 1426.85,-187.641 1421.75,-196.924 1428.65,-198.083"/>
</g>
<!-- Node22 -->
<g id="node22" class="node"><title>Node22</title>
<g id="a_node22"><a xlink:href="../../d4/d05/json_8h.xhtml" target="_top" xlink:title="json.h">
<polygon fill="white" stroke="black" points="168.5,-112.5 168.5,-131.5 211.5,-131.5 211.5,-112.5 168.5,-112.5"/>
<text text-anchor="middle" x="190" y="-119.5" font-family="Helvetica,sans-Serif" font-size="10.00">json.h</text>
</a>
</g>
</g>
<!-- Node2&#45;&gt;Node22 -->
<g id="edge69" class="edge"><title>Node2&#45;&gt;Node22</title>
<path fill="none" stroke="midnightblue" d="M1233.82,-351.164C1057.99,-351.106 541.007,-346.847 380,-300 282.179,-271.538 231.516,-275.893 180,-188 171.627,-173.714 175.95,-154.753 181.272,-140.999"/>
<polygon fill="midnightblue" stroke="midnightblue" points="184.555,-142.225 185.342,-131.66 178.138,-139.429 184.555,-142.225"/>
</g>
<!-- Node16 -->
<g id="node16" class="node"><title>Node16</title>
<g id="a_node16"><a xlink:href="../../d7/d62/clslog_8h.xhtml" target="_top" xlink:title="../resources/clslog.h">
<polygon fill="white" stroke="black" points="1316.5,-56.5 1316.5,-75.5 1421.5,-75.5 1421.5,-56.5 1316.5,-56.5"/>
<text text-anchor="middle" x="1369" y="-63.5" font-family="Helvetica,sans-Serif" font-size="10.00">../resources/clslog.h</text>
</a>
</g>
</g>
<!-- Node2&#45;&gt;Node16 -->
<g id="edge70" class="edge"><title>Node2&#45;&gt;Node16</title>
<path fill="none" stroke="midnightblue" d="M1352.26,-337.396C1451.36,-313.808 1640,-264.974 1640,-235 1640,-235 1640,-235 1640,-177 1640,-128.733 1596.65,-132.592 1553,-112 1514.67,-93.9178 1468.29,-82.6368 1431.69,-75.892"/>
<polygon fill="midnightblue" stroke="midnightblue" points="1432.1,-72.4099 1421.64,-74.108 1430.88,-79.3021 1432.1,-72.4099"/>
</g>
<!-- Node24 -->
<g id="node24" class="node"><title>Node24</title>
<g id="a_node24"><a xlink:href="../../db/d97/clsevent_8h.xhtml" target="_top" xlink:title="../resources/clsevent.h">
<polygon fill="white" stroke="black" points="715.5,-112.5 715.5,-131.5 830.5,-131.5 830.5,-112.5 715.5,-112.5"/>
<text text-anchor="middle" x="773" y="-119.5" font-family="Helvetica,sans-Serif" font-size="10.00">../resources/clsevent.h</text>
</a>
</g>
</g>
<!-- Node2&#45;&gt;Node24 -->
<g id="edge71" class="edge"><title>Node2&#45;&gt;Node24</title>
<path fill="none" stroke="midnightblue" d="M1233.9,-349.242C1059.1,-342.633 550.887,-312.822 457,-188 451.657,-180.896 451.174,-174.714 457,-168 488.464,-131.738 622.102,-123.948 705.187,-122.7"/>
<polygon fill="midnightblue" stroke="midnightblue" points="705.352,-126.199 715.309,-122.577 705.267,-119.199 705.352,-126.199"/>
</g>
<!-- Node28 -->
<g id="node28" class="node"><title>Node28</title>
<g id="a_node28"><a xlink:href="../../da/d69/loggingdata_8h.xhtml" target="_top" xlink:title="loggingdata.h">
<polygon fill="white" stroke="black" points="1050,-168.5 1050,-187.5 1124,-187.5 1124,-168.5 1050,-168.5"/>
<text text-anchor="middle" x="1087" y="-175.5" font-family="Helvetica,sans-Serif" font-size="10.00">loggingdata.h</text>
</a>
</g>
</g>
<!-- Node2&#45;&gt;Node28 -->
<g id="edge72" class="edge"><title>Node2&#45;&gt;Node28</title>
<path fill="none" stroke="midnightblue" d="M1233.74,-343.112C1138.41,-329 958.192,-295.958 924,-244 919.114,-236.575 918.615,-231.072 924,-224 931.192,-214.554 994.38,-199.077 1039.92,-188.964"/>
<polygon fill="midnightblue" stroke="midnightblue" points="1040.91,-192.331 1049.92,-186.766 1039.41,-185.494 1040.91,-192.331"/>
</g>
<!-- Node12&#45;&gt;Node4 -->
<g id="edge12" class="edge"><title>Node12&#45;&gt;Node4</title>
<path fill="none" stroke="midnightblue" d="M730.065,-231.825C597.29,-228.279 237.158,-216.148 192,-188 136.216,-153.228 120.137,-68.143 115.658,-30.0193"/>
<polygon fill="midnightblue" stroke="midnightblue" points="119.112,-29.3935 114.609,-19.8032 112.149,-30.1083 119.112,-29.3935"/>
</g>
<!-- Node12&#45;&gt;Node5 -->
<g id="edge13" class="edge"><title>Node12&#45;&gt;Node5</title>
<path fill="none" stroke="midnightblue" d="M827.702,-228.177C907.016,-220.253 1069,-203.78 1206,-188 1218.49,-186.562 1232.18,-184.878 1244.24,-183.358"/>
<polygon fill="midnightblue" stroke="midnightblue" points="1244.86,-186.806 1254.34,-182.074 1243.98,-179.862 1244.86,-186.806"/>
</g>
<!-- Node12&#45;&gt;Node11 -->
<g id="edge14" class="edge"><title>Node12&#45;&gt;Node11</title>
<path fill="none" stroke="midnightblue" d="M788.477,-224.23C813.599,-201.527 884.858,-140.613 956,-112 1035.15,-80.1647 1136.08,-70.8496 1189.31,-68.1252"/>
<polygon fill="midnightblue" stroke="midnightblue" points="1189.47,-71.6215 1199.3,-67.6635 1189.15,-64.629 1189.47,-71.6215"/>
</g>
<!-- Node13 -->
<g id="node13" class="node"><title>Node13</title>
<polygon fill="white" stroke="#bfbfbf" points="960.5,-168.5 960.5,-187.5 1031.5,-187.5 1031.5,-168.5 960.5,-168.5"/>
<text text-anchor="middle" x="996" y="-175.5" font-family="Helvetica,sans-Serif" font-size="10.00">QTcpSocket</text>
</g>
<!-- Node12&#45;&gt;Node13 -->
<g id="edge15" class="edge"><title>Node12&#45;&gt;Node13</title>
<path fill="none" stroke="midnightblue" d="M813.384,-224.444C850.922,-215.102 911.131,-200.119 952.067,-189.933"/>
<polygon fill="midnightblue" stroke="midnightblue" points="952.918,-193.328 961.777,-187.516 951.227,-186.535 952.918,-193.328"/>
</g>
<!-- Node14 -->
<g id="node14" class="node"><title>Node14</title>
<polygon fill="white" stroke="#bfbfbf" points="466,-168.5 466,-187.5 540,-187.5 540,-168.5 466,-168.5"/>
<text text-anchor="middle" x="503" y="-175.5" font-family="Helvetica,sans-Serif" font-size="10.00">QTextStream</text>
</g>
<!-- Node12&#45;&gt;Node14 -->
<g id="edge16" class="edge"><title>Node12&#45;&gt;Node14</title>
<path fill="none" stroke="midnightblue" d="M735.267,-224.444C684.822,-214.574 602.185,-198.406 550.284,-188.251"/>
<polygon fill="midnightblue" stroke="midnightblue" points="550.818,-184.789 540.332,-186.304 549.474,-191.659 550.818,-184.789"/>
</g>
<!-- Node15 -->
<g id="node15" class="node"><title>Node15</title>
<polygon fill="white" stroke="#bfbfbf" points="558.5,-168.5 558.5,-187.5 603.5,-187.5 603.5,-168.5 558.5,-168.5"/>
<text text-anchor="middle" x="581" y="-175.5" font-family="Helvetica,sans-Serif" font-size="10.00">QTime</text>
</g>
<!-- Node12&#45;&gt;Node15 -->
<g id="edge17" class="edge"><title>Node12&#45;&gt;Node15</title>
<path fill="none" stroke="midnightblue" d="M747.152,-224.462C715.676,-216.003 665.895,-202.568 613.523,-188.126"/>
<polygon fill="midnightblue" stroke="midnightblue" points="614.289,-184.706 603.718,-185.418 612.426,-191.454 614.289,-184.706"/>
</g>
<!-- Node12&#45;&gt;Node16 -->
<g id="edge18" class="edge"><title>Node12&#45;&gt;Node16</title>
<path fill="none" stroke="midnightblue" d="M799.103,-224.467C830.922,-211.176 895.025,-185.266 951,-168 1080.48,-128.062 1236.45,-93.9894 1316.28,-77.5382"/>
<polygon fill="midnightblue" stroke="midnightblue" points="1317.01,-80.9626 1326.1,-75.525 1315.6,-74.1053 1317.01,-80.9626"/>
</g>
<!-- Node20 -->
<g id="node20" class="node"><title>Node20</title>
<polygon fill="white" stroke="#bfbfbf" points="622,-168.5 622,-187.5 670,-187.5 670,-168.5 622,-168.5"/>
<text text-anchor="middle" x="646" y="-175.5" font-family="Helvetica,sans-Serif" font-size="10.00">QTimer</text>
</g>
<!-- Node12&#45;&gt;Node20 -->
<g id="edge24" class="edge"><title>Node12&#45;&gt;Node20</title>
<path fill="none" stroke="midnightblue" d="M757.926,-224.444C735.94,-215.517 701.266,-201.439 676.336,-191.317"/>
<polygon fill="midnightblue" stroke="midnightblue" points="677.558,-188.035 666.976,-187.516 674.924,-194.521 677.558,-188.035"/>
</g>
<!-- Node12&#45;&gt;Node21 -->
<g id="edge25" class="edge"><title>Node12&#45;&gt;Node21</title>
<path fill="none" stroke="midnightblue" d="M827.515,-228.963C938.477,-219.731 1211.68,-196.999 1347.98,-185.658"/>
<polygon fill="midnightblue" stroke="midnightblue" points="1348.28,-189.146 1357.95,-184.828 1347.7,-182.17 1348.28,-189.146"/>
</g>
<!-- Node12&#45;&gt;Node22 -->
<g id="edge32" class="edge"><title>Node12&#45;&gt;Node22</title>
<path fill="none" stroke="midnightblue" d="M730.151,-232.273C599.465,-229.895 249.005,-220.522 209,-188 195.479,-177.007 191.245,-156.955 190.077,-142.018"/>
<polygon fill="midnightblue" stroke="midnightblue" points="193.567,-141.683 189.679,-131.828 186.572,-141.957 193.567,-141.683"/>
</g>
<!-- Node12&#45;&gt;Node24 -->
<g id="edge33" class="edge"><title>Node12&#45;&gt;Node24</title>
<path fill="none" stroke="midnightblue" d="M784.679,-224.216C792.013,-211.77 803.249,-188.258 798,-168 795.454,-158.175 790.247,-148.212 785.241,-140.166"/>
<polygon fill="midnightblue" stroke="midnightblue" points="788.08,-138.114 779.629,-131.725 782.251,-141.99 788.08,-138.114"/>
</g>
<!-- Node12&#45;&gt;Node25 -->
<g id="edge39" class="edge"><title>Node12&#45;&gt;Node25</title>
<path fill="none" stroke="midnightblue" d="M730.297,-230.02C645.421,-224.476 464.732,-211.127 301.811,-187.969"/>
<polygon fill="midnightblue" stroke="midnightblue" points="301.999,-184.46 291.602,-186.502 301.003,-191.389 301.999,-184.46"/>
</g>
<!-- Node26 -->
<g id="node26" class="node"><title>Node26</title>
<g id="a_node26"><a xlink:href="../../d1/da1/brushvacuumdata_8h.xhtml" target="_top" xlink:title="brushvacuumdata.h">
<polygon fill="white" stroke="black" points="688.5,-168.5 688.5,-187.5 789.5,-187.5 789.5,-168.5 688.5,-168.5"/>
<text text-anchor="middle" x="739" y="-175.5" font-family="Helvetica,sans-Serif" font-size="10.00">brushvacuumdata.h</text>
</a>
</g>
</g>
<!-- Node12&#45;&gt;Node26 -->
<g id="edge42" class="edge"><title>Node12&#45;&gt;Node26</title>
<path fill="none" stroke="midnightblue" d="M772.395,-224.083C766.745,-216.455 758.455,-205.264 751.549,-195.941"/>
<polygon fill="midnightblue" stroke="midnightblue" points="754.247,-193.703 745.482,-187.751 748.622,-197.87 754.247,-193.703"/>
</g>
<!-- Node27 -->
<g id="node27" class="node"><title>Node27</title>
<g id="a_node27"><a xlink:href="../../de/d51/currentactiondata_8h.xhtml" target="_top" xlink:title="currentactiondata.h">
<polygon fill="white" stroke="black" points="310,-168.5 310,-187.5 410,-187.5 410,-168.5 310,-168.5"/>
<text text-anchor="middle" x="360" y="-175.5" font-family="Helvetica,sans-Serif" font-size="10.00">currentactiondata.h</text>
</a>
</g>
</g>
<!-- Node12&#45;&gt;Node27 -->
<g id="edge45" class="edge"><title>Node12&#45;&gt;Node27</title>
<path fill="none" stroke="midnightblue" d="M730.115,-226.7C653.129,-216.778 503.825,-197.536 420.297,-186.771"/>
<polygon fill="midnightblue" stroke="midnightblue" points="420.564,-183.277 410.199,-185.47 419.669,-190.219 420.564,-183.277"/>
</g>
<!-- Node12&#45;&gt;Node28 -->
<g id="edge48" class="edge"><title>Node12&#45;&gt;Node28</title>
<path fill="none" stroke="midnightblue" d="M827.632,-224.891C877.935,-216.442 959.041,-202.647 1039.49,-188.062"/>
<polygon fill="midnightblue" stroke="midnightblue" points="1040.6,-191.419 1049.81,-186.187 1039.35,-184.532 1040.6,-191.419"/>
</g>
<!-- Node16&#45;&gt;Node4 -->
<g id="edge19" class="edge"><title>Node16&#45;&gt;Node4</title>
<path fill="none" stroke="midnightblue" d="M1316.3,-60.1418C1298.72,-58.646 1279.03,-57.1043 1261,-56 824.326,-29.2523 293.106,-15.2871 150.615,-11.8511"/>
<polygon fill="midnightblue" stroke="midnightblue" points="150.359,-8.34403 140.278,-11.6039 150.191,-15.342 150.359,-8.34403"/>
</g>
<!-- Node17 -->
<g id="node17" class="node"><title>Node17</title>
<polygon fill="white" stroke="#bfbfbf" points="1102.5,-0.5 1102.5,-19.5 1167.5,-19.5 1167.5,-0.5 1102.5,-0.5"/>
<text text-anchor="middle" x="1135" y="-7.5" font-family="Helvetica,sans-Serif" font-size="10.00">QDateTime</text>
</g>
<!-- Node16&#45;&gt;Node17 -->
<g id="edge20" class="edge"><title>Node16&#45;&gt;Node17</title>
<path fill="none" stroke="midnightblue" d="M1331.92,-56.4435C1289.96,-46.7594 1221.72,-31.0115 1177.6,-20.8303"/>
<polygon fill="midnightblue" stroke="midnightblue" points="1178.28,-17.3963 1167.75,-18.558 1176.71,-24.217 1178.28,-17.3963"/>
</g>
<!-- Node18 -->
<g id="node18" class="node"><title>Node18</title>
<polygon fill="white" stroke="#bfbfbf" points="1312.5,-0.5 1312.5,-19.5 1353.5,-19.5 1353.5,-0.5 1312.5,-0.5"/>
<text text-anchor="middle" x="1333" y="-7.5" font-family="Helvetica,sans-Serif" font-size="10.00">string</text>
</g>
<!-- Node16&#45;&gt;Node18 -->
<g id="edge21" class="edge"><title>Node16&#45;&gt;Node18</title>
<path fill="none" stroke="midnightblue" d="M1363.06,-56.083C1358.02,-48.5341 1350.66,-37.4948 1344.49,-28.2298"/>
<polygon fill="midnightblue" stroke="midnightblue" points="1347.29,-26.1301 1338.83,-19.7511 1341.47,-30.0131 1347.29,-26.1301"/>
</g>
<!-- Node16&#45;&gt;Node9 -->
<g id="edge22" class="edge"><title>Node16&#45;&gt;Node9</title>
<path fill="none" stroke="midnightblue" d="M1405.13,-56.4435C1447.47,-46.4155 1517.26,-29.8856 1559.98,-19.7674"/>
<polygon fill="midnightblue" stroke="midnightblue" points="1561.04,-23.1131 1569.97,-17.4026 1559.43,-16.3016 1561.04,-23.1131"/>
</g>
<!-- Node19 -->
<g id="node19" class="node"><title>Node19</title>
<polygon fill="white" stroke="#bfbfbf" points="1371.5,-0.5 1371.5,-19.5 1436.5,-19.5 1436.5,-0.5 1371.5,-0.5"/>
<text text-anchor="middle" x="1404" y="-7.5" font-family="Helvetica,sans-Serif" font-size="10.00">QStringList</text>
</g>
<!-- Node16&#45;&gt;Node19 -->
<g id="edge23" class="edge"><title>Node16&#45;&gt;Node19</title>
<path fill="none" stroke="midnightblue" d="M1374.78,-56.083C1379.67,-48.5341 1386.83,-37.4948 1392.83,-28.2298"/>
<polygon fill="midnightblue" stroke="midnightblue" points="1395.83,-30.0463 1398.33,-19.7511 1389.95,-26.239 1395.83,-30.0463"/>
</g>
<!-- Node21&#45;&gt;Node11 -->
<g id="edge26" class="edge"><title>Node21&#45;&gt;Node11</title>
<path fill="none" stroke="midnightblue" d="M1418.42,-168.467C1403,-155.06 1371.32,-128.855 1341,-112 1316.03,-98.1177 1285.89,-86.4933 1262.73,-78.5384"/>
<polygon fill="midnightblue" stroke="midnightblue" points="1263.54,-75.1188 1252.94,-75.2525 1261.31,-81.7545 1263.54,-75.1188"/>
</g>
<!-- Node21&#45;&gt;Node8 -->
<g id="edge27" class="edge"><title>Node21&#45;&gt;Node8</title>
<path fill="none" stroke="midnightblue" d="M1437.8,-168.324C1446.82,-160.341 1460.41,-148.313 1471.32,-138.653"/>
<polygon fill="midnightblue" stroke="midnightblue" points="1473.85,-141.083 1479.02,-131.834 1469.21,-135.842 1473.85,-141.083"/>
</g>
<!-- Node21&#45;&gt;Node22 -->
<g id="edge28" class="edge"><title>Node21&#45;&gt;Node22</title>
<path fill="none" stroke="midnightblue" d="M1357.83,-171.231C1342.1,-170.054 1325.49,-168.901 1310,-168 879.643,-142.951 355.445,-127.558 222.055,-123.866"/>
<polygon fill="midnightblue" stroke="midnightblue" points="221.835,-120.358 211.742,-123.582 221.642,-127.356 221.835,-120.358"/>
</g>
<!-- Node21&#45;&gt;Node16 -->
<g id="edge31" class="edge"><title>Node21&#45;&gt;Node16</title>
<path fill="none" stroke="midnightblue" d="M1423.37,-168.368C1413.72,-150.376 1391.29,-108.55 1378.45,-84.6267"/>
<polygon fill="midnightblue" stroke="midnightblue" points="1381.42,-82.7495 1373.61,-75.5914 1375.25,-86.0582 1381.42,-82.7495"/>
</g>
<!-- Node23 -->
<g id="node23" class="node"><title>Node23</title>
<polygon fill="white" stroke="#bfbfbf" points="560.5,-56.5 560.5,-75.5 615.5,-75.5 615.5,-56.5 560.5,-56.5"/>
<text text-anchor="middle" x="588" y="-63.5" font-family="Helvetica,sans-Serif" font-size="10.00">QVariant</text>
</g>
<!-- Node22&#45;&gt;Node23 -->
<g id="edge29" class="edge"><title>Node22&#45;&gt;Node23</title>
<path fill="none" stroke="midnightblue" d="M211.681,-118.058C276.328,-109.287 468.338,-83.2355 550.269,-72.1193"/>
<polygon fill="midnightblue" stroke="midnightblue" points="550.95,-75.5591 560.388,-70.7463 550.009,-68.6226 550.95,-75.5591"/>
</g>
<!-- Node22&#45;&gt;Node3 -->
<g id="edge30" class="edge"><title>Node22&#45;&gt;Node3</title>
<path fill="none" stroke="midnightblue" d="M190,-112.083C190,-105.006 190,-94.8611 190,-85.9865"/>
<polygon fill="midnightblue" stroke="midnightblue" points="193.5,-85.751 190,-75.7511 186.5,-85.7511 193.5,-85.751"/>
</g>
<!-- Node24&#45;&gt;Node11 -->
<g id="edge34" class="edge"><title>Node24&#45;&gt;Node11</title>
<path fill="none" stroke="midnightblue" d="M830.833,-114.106C925.373,-102.836 1110.36,-80.7852 1189.1,-71.399"/>
<polygon fill="midnightblue" stroke="midnightblue" points="1189.97,-74.8202 1199.48,-70.1611 1189.14,-67.8694 1189.97,-74.8202"/>
</g>
<!-- Node24&#45;&gt;Node3 -->
<g id="edge35" class="edge"><title>Node24&#45;&gt;Node3</title>
<path fill="none" stroke="midnightblue" d="M715.237,-115.65C595.326,-104.543 322.485,-79.2713 225.238,-70.2639"/>
<polygon fill="midnightblue" stroke="midnightblue" points="225.34,-66.7584 215.059,-69.3211 224.694,-73.7286 225.34,-66.7584"/>
</g>
<!-- Node24&#45;&gt;Node23 -->
<g id="edge36" class="edge"><title>Node24&#45;&gt;Node23</title>
<path fill="none" stroke="midnightblue" d="M743.686,-112.444C711.694,-103.105 660.386,-88.1287 625.487,-77.9421"/>
<polygon fill="midnightblue" stroke="midnightblue" points="626.246,-74.5177 615.666,-75.0755 624.285,-81.2373 626.246,-74.5177"/>
</g>
<!-- Node24&#45;&gt;Node17 -->
<g id="edge37" class="edge"><title>Node24&#45;&gt;Node17</title>
<path fill="none" stroke="midnightblue" d="M801.104,-112.46C865.519,-92.8864 1023.88,-44.7659 1096.94,-22.5653"/>
<polygon fill="midnightblue" stroke="midnightblue" points="1098.11,-25.8667 1106.66,-19.6104 1096.08,-19.1691 1098.11,-25.8667"/>
</g>
<!-- Node24&#45;&gt;Node16 -->
<g id="edge38" class="edge"><title>Node24&#45;&gt;Node16</title>
<path fill="none" stroke="midnightblue" d="M830.689,-115.773C942.985,-105.599 1190.09,-83.2099 1306.28,-72.6823"/>
<polygon fill="midnightblue" stroke="midnightblue" points="1306.8,-76.1503 1316.44,-71.7622 1306.16,-69.1789 1306.8,-76.1503"/>
</g>
<!-- Node25&#45;&gt;Node24 -->
<g id="edge40" class="edge"><title>Node25&#45;&gt;Node24</title>
<path fill="none" stroke="midnightblue" d="M291.603,-169.502C294.775,-168.955 297.94,-168.444 301,-168 444.297,-147.202 613.521,-133.739 705.384,-127.351"/>
<polygon fill="midnightblue" stroke="midnightblue" points="705.647,-130.841 715.383,-126.662 705.166,-123.858 705.647,-130.841"/>
</g>
<!-- Node25&#45;&gt;Node23 -->
<g id="edge41" class="edge"><title>Node25&#45;&gt;Node23</title>
<path fill="none" stroke="midnightblue" d="M280.535,-168.429C317.772,-155.944 389.166,-132.057 450,-112 484.53,-100.615 523.973,-87.7693 551.822,-78.7256"/>
<polygon fill="midnightblue" stroke="midnightblue" points="553.097,-81.9919 561.528,-75.5755 550.936,-75.3338 553.097,-81.9919"/>
</g>
<!-- Node26&#45;&gt;Node24 -->
<g id="edge43" class="edge"><title>Node26&#45;&gt;Node24</title>
<path fill="none" stroke="midnightblue" d="M744.614,-168.083C749.367,-160.534 756.318,-149.495 762.152,-140.23"/>
<polygon fill="midnightblue" stroke="midnightblue" points="765.124,-142.078 767.49,-131.751 759.2,-138.349 765.124,-142.078"/>
</g>
<!-- Node26&#45;&gt;Node23 -->
<g id="edge44" class="edge"><title>Node26&#45;&gt;Node23</title>
<path fill="none" stroke="midnightblue" d="M727.151,-168.368C701.35,-149.573 639.846,-104.768 607.95,-81.5334"/>
<polygon fill="midnightblue" stroke="midnightblue" points="609.937,-78.6506 599.794,-75.5914 605.816,-84.3085 609.937,-78.6506"/>
</g>
<!-- Node27&#45;&gt;Node24 -->
<g id="edge46" class="edge"><title>Node27&#45;&gt;Node24</title>
<path fill="none" stroke="midnightblue" d="M410.301,-169.871C414.932,-169.231 419.552,-168.599 424,-168 521.668,-154.836 634.827,-140.394 705.172,-131.512"/>
<polygon fill="midnightblue" stroke="midnightblue" points="705.75,-134.967 715.234,-130.242 704.874,-128.022 705.75,-134.967"/>
</g>
<!-- Node27&#45;&gt;Node23 -->
<g id="edge47" class="edge"><title>Node27&#45;&gt;Node23</title>
<path fill="none" stroke="midnightblue" d="M377.891,-168.368C417.682,-149.171 513.71,-102.842 560.901,-80.074"/>
<polygon fill="midnightblue" stroke="midnightblue" points="562.707,-83.0891 570.192,-75.5914 559.665,-76.7844 562.707,-83.0891"/>
</g>
<!-- Node28&#45;&gt;Node24 -->
<g id="edge49" class="edge"><title>Node28&#45;&gt;Node24</title>
<path fill="none" stroke="midnightblue" d="M1049.81,-169.8C1046.5,-169.182 1043.19,-168.574 1040,-168 970.241,-155.444 890.032,-142.068 835.882,-133.193"/>
<polygon fill="midnightblue" stroke="midnightblue" points="836.181,-129.696 825.747,-131.535 835.051,-136.604 836.181,-129.696"/>
</g>
<!-- Node28&#45;&gt;Node23 -->
<g id="edge50" class="edge"><title>Node28&#45;&gt;Node23</title>
<path fill="none" stroke="midnightblue" d="M1057.41,-168.433C1011.09,-155.21 918.545,-129.526 839,-112 763.723,-95.4142 674.734,-80.5732 625.507,-72.776"/>
<polygon fill="midnightblue" stroke="midnightblue" points="626.048,-69.3181 615.626,-71.221 624.96,-76.233 626.048,-69.3181"/>
</g>
<!-- Node28&#45;&gt;Node7 -->
<g id="edge51" class="edge"><title>Node28&#45;&gt;Node7</title>
<path fill="none" stroke="midnightblue" d="M1121.7,-168.444C1162.06,-158.492 1228.39,-142.136 1269.51,-131.999"/>
<polygon fill="midnightblue" stroke="midnightblue" points="1270.51,-135.355 1279.38,-129.563 1268.84,-128.559 1270.51,-135.355"/>
</g>
<!-- Node29&#45;&gt;Node22 -->
<g id="edge53" class="edge"><title>Node29&#45;&gt;Node22</title>
<path fill="none" stroke="midnightblue" d="M1063.34,-287.256C879.002,-280.403 251.612,-252.475 192,-188 180.762,-175.845 181.741,-156.291 184.629,-141.8"/>
<polygon fill="midnightblue" stroke="midnightblue" points="188.071,-142.457 187.039,-131.913 181.27,-140.8 188.071,-142.457"/>
</g>
<!-- Node29&#45;&gt;Node21 -->
<g id="edge54" class="edge"><title>Node29&#45;&gt;Node21</title>
<path fill="none" stroke="midnightblue" d="M1141.75,-280.497C1170.09,-271.718 1215.29,-257.443 1254,-244 1304.18,-226.572 1361.83,-204.657 1396.56,-191.248"/>
<polygon fill="midnightblue" stroke="midnightblue" points="1398.08,-194.411 1406.14,-187.537 1395.56,-187.883 1398.08,-194.411"/>
</g>
<!-- Node29&#45;&gt;Node12 -->
<g id="edge55" class="edge"><title>Node29&#45;&gt;Node12</title>
<path fill="none" stroke="midnightblue" d="M1063.48,-280.857C1002.93,-271.097 901.64,-254.769 837.678,-244.459"/>
<polygon fill="midnightblue" stroke="midnightblue" points="838.174,-240.993 827.745,-242.857 837.06,-247.904 838.174,-240.993"/>
</g>
<!-- Node29&#45;&gt;Node16 -->
<g id="edge56" class="edge"><title>Node29&#45;&gt;Node16</title>
<path fill="none" stroke="midnightblue" d="M1164.58,-288.962C1245.65,-286.32 1405.84,-270.163 1507,-188 1534.94,-165.306 1556.87,-140.591 1535,-112 1522.22,-95.2942 1473.23,-83.347 1431.76,-75.9803"/>
<polygon fill="midnightblue" stroke="midnightblue" points="1432.13,-72.4922 1421.68,-74.2515 1430.94,-79.3915 1432.13,-72.4922"/>
</g>
<!-- Node29&#45;&gt;Node24 -->
<g id="edge57" class="edge"><title>Node29&#45;&gt;Node24</title>
<path fill="none" stroke="midnightblue" d="M1063.14,-283.177C1023.64,-277.212 968.325,-265.633 924,-244 867.882,-216.611 813.648,-165.202 788.149,-139.095"/>
<polygon fill="midnightblue" stroke="midnightblue" points="790.367,-136.353 780.913,-131.571 785.322,-141.205 790.367,-136.353"/>
</g>
<!-- Node30 -->
<g id="node30" class="node"><title>Node30</title>
<polygon fill="white" stroke="#bfbfbf" points="1142.5,-168.5 1142.5,-187.5 1197.5,-187.5 1197.5,-168.5 1142.5,-168.5"/>
<text text-anchor="middle" x="1170" y="-175.5" font-family="Helvetica,sans-Serif" font-size="10.00">QWidget</text>
</g>
<!-- Node29&#45;&gt;Node30 -->
<g id="edge58" class="edge"><title>Node29&#45;&gt;Node30</title>
<path fill="none" stroke="midnightblue" d="M1126.77,-280.233C1137.48,-272.137 1152.24,-259.105 1160,-244 1167.42,-229.559 1169.68,-211.108 1170.23,-197.556"/>
<polygon fill="midnightblue" stroke="midnightblue" points="1173.73,-197.565 1170.36,-187.52 1166.73,-197.474 1173.73,-197.565"/>
</g>
<!-- Node29&#45;&gt;Node13 -->
<g id="edge59" class="edge"><title>Node29&#45;&gt;Node13</title>
<path fill="none" stroke="midnightblue" d="M1103.47,-280.229C1092.84,-271.297 1076.03,-256.959 1062,-244 1044.39,-227.737 1024.91,-208.375 1011.71,-195.037"/>
<polygon fill="midnightblue" stroke="midnightblue" points="1013.88,-192.26 1004.37,-187.592 1008.9,-197.172 1013.88,-192.26"/>
</g>
<!-- Node31 -->
<g id="node31" class="node"><title>Node31</title>
<polygon fill="white" stroke="#bfbfbf" points="933.5,-224.5 933.5,-243.5 982.5,-243.5 982.5,-224.5 933.5,-224.5"/>
<text text-anchor="middle" x="958" y="-231.5" font-family="Helvetica,sans-Serif" font-size="10.00">QSlider</text>
</g>
<!-- Node29&#45;&gt;Node31 -->
<g id="edge60" class="edge"><title>Node29&#45;&gt;Node31</title>
<path fill="none" stroke="midnightblue" d="M1089.28,-280.444C1063.15,-271.399 1021.74,-257.064 992.424,-246.916"/>
<polygon fill="midnightblue" stroke="midnightblue" points="993.198,-243.48 982.603,-243.516 990.908,-250.095 993.198,-243.48"/>
</g>
<!-- Node29&#45;&gt;Node5 -->
<g id="edge61" class="edge"><title>Node29&#45;&gt;Node5</title>
<path fill="none" stroke="midnightblue" d="M1151.83,-280.43C1176.22,-273.539 1207.63,-261.986 1231,-244 1247.5,-231.302 1260.76,-211.267 1268.93,-196.796"/>
<polygon fill="midnightblue" stroke="midnightblue" points="1272.1,-198.289 1273.76,-187.824 1265.94,-194.973 1272.1,-198.289"/>
</g>
<!-- Node29&#45;&gt;Node11 -->
<g id="edge62" class="edge"><title>Node29&#45;&gt;Node11</title>
<path fill="none" stroke="midnightblue" d="M1130.12,-280.397C1143.92,-272.407 1163.62,-259.438 1177,-244 1217.15,-197.677 1224.63,-121.097 1225.87,-85.8364"/>
<polygon fill="midnightblue" stroke="midnightblue" points="1229.37,-85.638 1226.09,-75.566 1222.37,-85.4896 1229.37,-85.638"/>
</g>
<!-- Node29&#45;&gt;Node28 -->
<g id="edge63" class="edge"><title>Node29&#45;&gt;Node28</title>
<path fill="none" stroke="midnightblue" d="M1100.21,-280.189C1089.17,-272.241 1074.5,-259.447 1068,-244 1061.4,-228.303 1068.35,-209.561 1075.63,-196.244"/>
<polygon fill="midnightblue" stroke="midnightblue" points="1078.66,-198.003 1080.8,-187.627 1072.65,-194.4 1078.66,-198.003"/>
</g>
<!-- Node32 -->
<g id="node32" class="node"><title>Node32</title>
<g id="a_node32"><a xlink:href="../../d7/d82/displaylogs_8h.xhtml" target="_top" xlink:title="displaylogs.h">
<polygon fill="white" stroke="black" points="1077,-224.5 1077,-243.5 1151,-243.5 1151,-224.5 1077,-224.5"/>
<text text-anchor="middle" x="1114" y="-231.5" font-family="Helvetica,sans-Serif" font-size="10.00">displaylogs.h</text>
</a>
</g>
</g>
<!-- Node29&#45;&gt;Node32 -->
<g id="edge64" class="edge"><title>Node29&#45;&gt;Node32</title>
<path fill="none" stroke="midnightblue" d="M1114,-280.083C1114,-273.006 1114,-262.861 1114,-253.986"/>
<polygon fill="midnightblue" stroke="midnightblue" points="1117.5,-253.751 1114,-243.751 1110.5,-253.751 1117.5,-253.751"/>
</g>
<!-- Node32&#45;&gt;Node30 -->
<g id="edge65" class="edge"><title>Node32&#45;&gt;Node30</title>
<path fill="none" stroke="midnightblue" d="M1123,-224.324C1131.19,-216.42 1143.51,-204.548 1153.47,-194.938"/>
<polygon fill="midnightblue" stroke="midnightblue" points="1156.07,-197.295 1160.84,-187.834 1151.21,-192.256 1156.07,-197.295"/>
</g>
<!-- Node32&#45;&gt;Node28 -->
<g id="edge66" class="edge"><title>Node32&#45;&gt;Node28</title>
<path fill="none" stroke="midnightblue" d="M1109.54,-224.083C1105.85,-216.691 1100.48,-205.953 1095.91,-196.811"/>
<polygon fill="midnightblue" stroke="midnightblue" points="1098.98,-195.13 1091.38,-187.751 1092.72,-198.261 1098.98,-195.13"/>
</g>
</g>
</svg>
        <g id="navigator" transform="translate(0 0)" fill="#404254">
                <rect fill="#f2f5e9" fill-opacity="0.5" stroke="#606060" stroke-width=".5" x="0" y="0" width="60" height="60"/>
                <use id="zoomplus" xlink:href="#zoomPlus" x="17" y="9" onmousedown="handleZoom(evt,'in')"/>
                <use id="zoomminus" xlink:href="#zoomMin" x="42" y="9" onmousedown="handleZoom(evt,'out')"/>
                <use id="reset" xlink:href="#resetDef" x="30" y="36" onmousedown="handleReset()"/>
                <g id="arrowUp" xlink:href="#dirArrow" transform="translate(30 24)" onmousedown="handlePan(0,-1)">
                  <use xlink:href="#rim" fill="#404040">
                        <set attributeName="fill" to="#808080" begin="arrowUp.mouseover" end="arrowUp.mouseout"/>
                  </use>
                  <path fill="none" stroke="white" stroke-width="1.5" d="M0,-3.0v7 M-2.5,-0.5L0,-3.0L2.5,-0.5"/>
                </g>
                <g id="arrowRight" xlink:href="#dirArrow" transform="rotate(90) translate(36 -43)" onmousedown="handlePan(1,0)">
                  <use xlink:href="#rim" fill="#404040">
                        <set attributeName="fill" to="#808080" begin="arrowRight.mouseover" end="arrowRight.mouseout"/>
                  </use>
                  <path fill="none" stroke="white" stroke-width="1.5" d="M0,-3.0v7 M-2.5,-0.5L0,-3.0L2.5,-0.5"/>
                </g>
                <g id="arrowDown" xlink:href="#dirArrow" transform="rotate(180) translate(-30 -48)" onmousedown="handlePan(0,1)">
                  <use xlink:href="#rim" fill="#404040">
                        <set attributeName="fill" to="#808080" begin="arrowDown.mouseover" end="arrowDown.mouseout"/>
                  </use>
                  <path fill="none" stroke="white" stroke-width="1.5" d="M0,-3.0v7 M-2.5,-0.5L0,-3.0L2.5,-0.5"/>
                </g>
                <g id="arrowLeft" xlink:href="#dirArrow" transform="rotate(270) translate(-36 17)" onmousedown="handlePan(-1,0)">
                  <use xlink:href="#rim" fill="#404040">
                        <set attributeName="fill" to="#808080" begin="arrowLeft.mouseover" end="arrowLeft.mouseout"/>
                  </use>
                  <path fill="none" stroke="white" stroke-width="1.5" d="M0,-3.0v7 M-2.5,-0.5L0,-3.0L2.5,-0.5"/>
                </g>
        </g>
        <svg viewBox="0 0 15 15" width="100%" height="30px" preserveAspectRatio="xMaxYMin meet">
         <g id="arrow_out" transform="scale(0.3 0.3)">
          <a xlink:href="bin_2debug_2debug_2moc__roomba_8cpp__incl_org.svg" target="_base">
           <rect id="button" ry="5" rx="5" y="6" x="6" height="38" width="38"
                fill="#f2f5e9" fill-opacity="0.5" stroke="#606060" stroke-width="1.0"/>
           <path id="arrow"
             d="M 11.500037,31.436501 C 11.940474,20.09759 22.043105,11.32322 32.158766,21.979434 L 37.068811,17.246167 C 37.068811,17.246167 37.088388,32 37.088388,32 L 22.160133,31.978069 C 22.160133,31.978069 26.997745,27.140456 26.997745,27.140456 C 18.528582,18.264221 13.291696,25.230495 11.500037,31.436501 z"
             style="fill:#404040;"/>
          </a>
         </g>
        </svg>
</svg>
