<?xml version="1.0" encoding="UTF-8" standalone="no"?>
<!DOCTYPE svg PUBLIC "-//W3C//DTD SVG 1.1//EN"
 "http://www.w3.org/Graphics/SVG/1.1/DTD/svg11.dtd">
<!-- Generated by graphviz version 2.30.1 (20130214.1330)
 -->
<!-- Title: Hoofdprogramma/ourProgram/src/topCap.cpp Pages: 1 -->
<svg width="597pt" height="432pt"
 viewBox="0.00 0.00 597.00 432.00" xmlns="http://www.w3.org/2000/svg" xmlns:xlink="http://www.w3.org/1999/xlink">
<g id="graph0" class="graph" transform="scale(1 1) rotate(0) translate(4 428)">
<title>Hoofdprogramma/ourProgram/src/topCap.cpp</title>
<polygon fill="white" stroke="white" points="-4,5 -4,-428 594,-428 594,5 -4,5"/>
<!-- Node1 -->
<g id="node1" class="node"><title>Node1</title>
<polygon fill="#bfbfbf" stroke="black" points="62.5,-393 62.5,-423 205.5,-423 205.5,-393 62.5,-393"/>
<text text-anchor="start" x="70.5" y="-411" font-family="Helvetica,sans-Serif" font-size="10.00">Hoofdprogramma/ourProgram</text>
<text text-anchor="middle" x="134" y="-400" font-family="Helvetica,sans-Serif" font-size="10.00">/src/topCap.cpp</text>
</g>
<!-- Node2 -->
<g id="node2" class="node"><title>Node2</title>
<g id="a_node2"><a xlink:href="../../dd/d50/our_program_8h.xhtml" target="_top" xlink:title="RTSystem/ourProgram.h">
<polygon fill="white" stroke="black" points="74,-224.5 74,-243.5 198,-243.5 198,-224.5 74,-224.5"/>
<text text-anchor="middle" x="136" y="-231.5" font-family="Helvetica,sans-Serif" font-size="10.00">RTSystem/ourProgram.h</text>
</a>
</g>
</g>
<!-- Node1&#45;&gt;Node2 -->
<g id="edge1" class="edge"><title>Node1&#45;&gt;Node2</title>
<path fill="none" stroke="midnightblue" d="M134.164,-392.925C134.522,-362.073 135.378,-288.484 135.782,-253.755"/>
<polygon fill="midnightblue" stroke="midnightblue" points="139.284,-253.625 135.9,-243.585 132.284,-253.543 139.284,-253.625"/>
</g>
<!-- Node5 -->
<g id="node5" class="node"><title>Node5</title>
<g id="a_node5"><a xlink:href="../../d0/ddb/top_cap_8h.xhtml" target="_top" xlink:title="topCap.h">
<polygon fill="white" stroke="black" points="50,-280.5 50,-299.5 106,-299.5 106,-280.5 50,-280.5"/>
<text text-anchor="middle" x="78" y="-287.5" font-family="Helvetica,sans-Serif" font-size="10.00">topCap.h</text>
</a>
</g>
</g>
<!-- Node1&#45;&gt;Node5 -->
<g id="edge4" class="edge"><title>Node1&#45;&gt;Node5</title>
<path fill="none" stroke="midnightblue" d="M127.133,-392.776C116.906,-371.591 97.6848,-331.776 86.5566,-308.724"/>
<polygon fill="midnightblue" stroke="midnightblue" points="89.7029,-307.191 82.2034,-299.707 83.399,-310.234 89.7029,-307.191"/>
</g>
<!-- Node6 -->
<g id="node6" class="node"><title>Node6</title>
<g id="a_node6"><a xlink:href="../../d4/d51/json_protocol_8h.xhtml" target="_top" xlink:title="jsonProtocol.h">
<polygon fill="white" stroke="black" points="162.5,-336.5 162.5,-355.5 241.5,-355.5 241.5,-336.5 162.5,-336.5"/>
<text text-anchor="middle" x="202" y="-343.5" font-family="Helvetica,sans-Serif" font-size="10.00">jsonProtocol.h</text>
</a>
</g>
</g>
<!-- Node1&#45;&gt;Node6 -->
<g id="edge6" class="edge"><title>Node1&#45;&gt;Node6</title>
<path fill="none" stroke="midnightblue" d="M150.115,-392.781C160.404,-383.703 173.747,-371.929 184.326,-362.595"/>
<polygon fill="midnightblue" stroke="midnightblue" points="186.923,-364.971 192.105,-355.731 182.291,-359.722 186.923,-364.971"/>
</g>
<!-- Node3 -->
<g id="node3" class="node"><title>Node3</title>
<polygon fill="white" stroke="#bfbfbf" points="0,-168.5 0,-187.5 82,-187.5 82,-168.5 0,-168.5"/>
<text text-anchor="middle" x="41" y="-175.5" font-family="Helvetica,sans-Serif" font-size="10.00">RTStructures.h</text>
</g>
<!-- Node2&#45;&gt;Node3 -->
<g id="edge2" class="edge"><title>Node2&#45;&gt;Node3</title>
<path fill="none" stroke="midnightblue" d="M120.737,-224.324C105.779,-215.822 82.7452,-202.729 65.2733,-192.797"/>
<polygon fill="midnightblue" stroke="midnightblue" points="66.6488,-189.553 56.2255,-187.655 63.1896,-195.639 66.6488,-189.553"/>
</g>
<!-- Node4 -->
<g id="node4" class="node"><title>Node4</title>
<polygon fill="white" stroke="#bfbfbf" points="158,-112.5 158,-131.5 212,-131.5 212,-112.5 158,-112.5"/>
<text text-anchor="middle" x="185" y="-119.5" font-family="Helvetica,sans-Serif" font-size="10.00">iostream</text>
</g>
<!-- Node2&#45;&gt;Node4 -->
<g id="edge3" class="edge"><title>Node2&#45;&gt;Node4</title>
<path fill="none" stroke="midnightblue" d="M150.952,-224.474C162.932,-216.702 178.873,-204.002 186,-188 192.457,-173.502 191.518,-155.318 189.361,-141.873"/>
<polygon fill="midnightblue" stroke="midnightblue" points="192.759,-141.016 187.397,-131.878 185.891,-142.365 192.759,-141.016"/>
</g>
<!-- Node5&#45;&gt;Node2 -->
<g id="edge5" class="edge"><title>Node5&#45;&gt;Node2</title>
<path fill="none" stroke="midnightblue" d="M87.3187,-280.324C95.8926,-272.341 108.812,-260.313 119.188,-250.653"/>
<polygon fill="midnightblue" stroke="midnightblue" points="121.578,-253.21 126.512,-243.834 116.808,-248.086 121.578,-253.21"/>
</g>
<!-- Node6&#45;&gt;Node2 -->
<g id="edge7" class="edge"><title>Node6&#45;&gt;Node2</title>
<path fill="none" stroke="midnightblue" d="M196.821,-336.368C185.977,-318.296 160.706,-276.176 146.384,-252.307"/>
<polygon fill="midnightblue" stroke="midnightblue" points="149.301,-250.366 141.155,-243.591 143.299,-253.967 149.301,-250.366"/>
</g>
<!-- Node7 -->
<g id="node7" class="node"><title>Node7</title>
<g id="a_node7"><a xlink:href="../../d8/d2e/json_command_8h.xhtml" target="_top" xlink:title="jsonCommand.h">
<polygon fill="white" stroke="black" points="200.5,-280.5 200.5,-299.5 287.5,-299.5 287.5,-280.5 200.5,-280.5"/>
<text text-anchor="middle" x="244" y="-287.5" font-family="Helvetica,sans-Serif" font-size="10.00">jsonCommand.h</text>
</a>
</g>
</g>
<!-- Node6&#45;&gt;Node7 -->
<g id="edge8" class="edge"><title>Node6&#45;&gt;Node7</title>
<path fill="none" stroke="midnightblue" d="M208.935,-336.083C214.929,-328.377 223.752,-317.033 231.048,-307.653"/>
<polygon fill="midnightblue" stroke="midnightblue" points="233.817,-309.793 237.194,-299.751 228.291,-305.496 233.817,-309.793"/>
</g>
<!-- Node7&#45;&gt;Node2 -->
<g id="edge9" class="edge"><title>Node7&#45;&gt;Node2</title>
<path fill="none" stroke="midnightblue" d="M226.648,-280.324C209.328,-271.664 182.485,-258.242 162.498,-248.249"/>
<polygon fill="midnightblue" stroke="midnightblue" points="163.819,-244.996 153.309,-243.655 160.688,-251.257 163.819,-244.996"/>
</g>
<!-- Node8 -->
<g id="node8" class="node"><title>Node8</title>
<g id="a_node8"><a xlink:href="../../d4/d05/json_8h.xhtml" target="_top" xlink:title="../../include/json.h">
<polygon fill="white" stroke="black" points="282.5,-224.5 282.5,-243.5 377.5,-243.5 377.5,-224.5 282.5,-224.5"/>
<text text-anchor="middle" x="330" y="-231.5" font-family="Helvetica,sans-Serif" font-size="10.00">../../include/json.h</text>
</a>
</g>
</g>
<!-- Node7&#45;&gt;Node8 -->
<g id="edge10" class="edge"><title>Node7&#45;&gt;Node8</title>
<path fill="none" stroke="midnightblue" d="M257.817,-280.324C271.233,-271.9 291.824,-258.971 307.586,-249.074"/>
<polygon fill="midnightblue" stroke="midnightblue" points="309.609,-251.936 316.217,-243.655 305.887,-246.008 309.609,-251.936"/>
</g>
<!-- Node21 -->
<g id="node21" class="node"><title>Node21</title>
<polygon fill="white" stroke="#bfbfbf" points="218,-224.5 218,-243.5 264,-243.5 264,-224.5 218,-224.5"/>
<text text-anchor="middle" x="241" y="-231.5" font-family="Helvetica,sans-Serif" font-size="10.00">stdio.h</text>
</g>
<!-- Node7&#45;&gt;Node21 -->
<g id="edge34" class="edge"><title>Node7&#45;&gt;Node21</title>
<path fill="none" stroke="midnightblue" d="M243.505,-280.083C243.111,-273.006 242.548,-262.861 242.055,-253.986"/>
<polygon fill="midnightblue" stroke="midnightblue" points="245.536,-253.542 241.486,-243.751 238.546,-253.93 245.536,-253.542"/>
</g>
<!-- Node9 -->
<g id="node9" class="node"><title>Node9</title>
<g id="a_node9"><a xlink:href="../../d3/dea/autolink_8h.xhtml" target="_top" xlink:title="autolink.h">
<polygon fill="white" stroke="black" points="100.5,-168.5 100.5,-187.5 159.5,-187.5 159.5,-168.5 100.5,-168.5"/>
<text text-anchor="middle" x="130" y="-175.5" font-family="Helvetica,sans-Serif" font-size="10.00">autolink.h</text>
</a>
</g>
</g>
<!-- Node8&#45;&gt;Node9 -->
<g id="edge11" class="edge"><title>Node8&#45;&gt;Node9</title>
<path fill="none" stroke="midnightblue" d="M298.309,-224.444C263.474,-215.038 207.454,-199.913 169.714,-189.723"/>
<polygon fill="midnightblue" stroke="midnightblue" points="170.153,-186.216 159.586,-186.988 168.328,-192.974 170.153,-186.216"/>
</g>
<!-- Node11 -->
<g id="node11" class="node"><title>Node11</title>
<g id="a_node11"><a xlink:href="../../d4/d3f/value_8h.xhtml" target="_top" xlink:title="value.h">
<polygon fill="white" stroke="black" points="306.5,-112.5 306.5,-131.5 353.5,-131.5 353.5,-112.5 306.5,-112.5"/>
<text text-anchor="middle" x="330" y="-119.5" font-family="Helvetica,sans-Serif" font-size="10.00">value.h</text>
</a>
</g>
</g>
<!-- Node8&#45;&gt;Node11 -->
<g id="edge14" class="edge"><title>Node8&#45;&gt;Node11</title>
<path fill="none" stroke="midnightblue" d="M330,-224.368C330,-206.617 330,-165.666 330,-141.597"/>
<polygon fill="midnightblue" stroke="midnightblue" points="333.5,-141.591 330,-131.591 326.5,-141.591 333.5,-141.591"/>
</g>
<!-- Node16 -->
<g id="node16" class="node"><title>Node16</title>
<g id="a_node16"><a xlink:href="../../d6/dda/reader_8h.xhtml" target="_top" xlink:title="reader.h">
<polygon fill="white" stroke="black" points="358,-168.5 358,-187.5 410,-187.5 410,-168.5 358,-168.5"/>
<text text-anchor="middle" x="384" y="-175.5" font-family="Helvetica,sans-Serif" font-size="10.00">reader.h</text>
</a>
</g>
</g>
<!-- Node8&#45;&gt;Node16 -->
<g id="edge20" class="edge"><title>Node8&#45;&gt;Node16</title>
<path fill="none" stroke="midnightblue" d="M338.917,-224.083C346.78,-216.22 358.431,-204.569 367.919,-195.081"/>
<polygon fill="midnightblue" stroke="midnightblue" points="370.653,-197.297 375.249,-187.751 365.703,-192.347 370.653,-197.297"/>
</g>
<!-- Node20 -->
<g id="node20" class="node"><title>Node20</title>
<g id="a_node20"><a xlink:href="../../d9/d53/writer_8h.xhtml" target="_top" xlink:title="writer.h">
<polygon fill="white" stroke="black" points="254,-168.5 254,-187.5 302,-187.5 302,-168.5 254,-168.5"/>
<text text-anchor="middle" x="278" y="-175.5" font-family="Helvetica,sans-Serif" font-size="10.00">writer.h</text>
</a>
</g>
</g>
<!-- Node8&#45;&gt;Node20 -->
<g id="edge28" class="edge"><title>Node8&#45;&gt;Node20</title>
<path fill="none" stroke="midnightblue" d="M321.413,-224.083C313.841,-216.22 302.622,-204.569 293.486,-195.081"/>
<polygon fill="midnightblue" stroke="midnightblue" points="295.885,-192.527 286.427,-187.751 290.842,-197.382 295.885,-192.527"/>
</g>
<!-- Node17 -->
<g id="node17" class="node"><title>Node17</title>
<g id="a_node17"><a xlink:href="../../de/d47/features_8h.xhtml" target="_top" xlink:title="features.h">
<polygon fill="white" stroke="black" points="530.5,-112.5 530.5,-131.5 589.5,-131.5 589.5,-112.5 530.5,-112.5"/>
<text text-anchor="middle" x="560" y="-119.5" font-family="Helvetica,sans-Serif" font-size="10.00">features.h</text>
</a>
</g>
</g>
<!-- Node8&#45;&gt;Node17 -->
<g id="edge33" class="edge"><title>Node8&#45;&gt;Node17</title>
<path fill="none" stroke="midnightblue" d="M348.048,-224.368C388.272,-205.131 485.464,-158.648 532.962,-135.931"/>
<polygon fill="midnightblue" stroke="midnightblue" points="534.525,-139.064 542.036,-131.591 531.505,-132.749 534.525,-139.064"/>
</g>
<!-- Node10 -->
<g id="node10" class="node"><title>Node10</title>
<g id="a_node10"><a xlink:href="../../db/d16/config_8h.xhtml" target="_top" xlink:title="config.h">
<polygon fill="white" stroke="black" points="251,-0.5 251,-19.5 301,-19.5 301,-0.5 251,-0.5"/>
<text text-anchor="middle" x="276" y="-7.5" font-family="Helvetica,sans-Serif" font-size="10.00">config.h</text>
</a>
</g>
</g>
<!-- Node9&#45;&gt;Node10 -->
<g id="edge12" class="edge"><title>Node9&#45;&gt;Node10</title>
<path fill="none" stroke="midnightblue" d="M131.013,-168.401C132.865,-155.359 137.702,-130.172 149,-112 173.965,-71.8468 220.783,-40.9311 250.069,-24.3992"/>
<polygon fill="midnightblue" stroke="midnightblue" points="251.831,-27.4248 258.912,-19.5437 248.462,-21.289 251.831,-27.4248"/>
</g>
<!-- Node9&#45;&gt;Node9 -->
<g id="edge13" class="edge"><title>Node9&#45;&gt;Node9</title>
<path fill="none" stroke="midnightblue" d="M150.29,-187.575C163.825,-190.27 177,-187.078 177,-178 177,-171.262 169.743,-167.767 160.467,-167.515"/>
<polygon fill="midnightblue" stroke="midnightblue" points="159.938,-164.048 150.29,-168.425 160.562,-171.02 159.938,-164.048"/>
</g>
<!-- Node12 -->
<g id="node12" class="node"><title>Node12</title>
<g id="a_node12"><a xlink:href="../../d2/d84/forwards_8h.xhtml" target="_top" xlink:title="forwards.h">
<polygon fill="white" stroke="black" points="391.5,-56.5 391.5,-75.5 452.5,-75.5 452.5,-56.5 391.5,-56.5"/>
<text text-anchor="middle" x="422" y="-63.5" font-family="Helvetica,sans-Serif" font-size="10.00">forwards.h</text>
</a>
</g>
</g>
<!-- Node11&#45;&gt;Node12 -->
<g id="edge15" class="edge"><title>Node11&#45;&gt;Node12</title>
<path fill="none" stroke="midnightblue" d="M344.781,-112.324C359.267,-103.822 381.573,-90.7288 398.493,-80.7975"/>
<polygon fill="midnightblue" stroke="midnightblue" points="400.403,-83.735 407.255,-75.6545 396.859,-77.6981 400.403,-83.735"/>
</g>
<!-- Node13 -->
<g id="node13" class="node"><title>Node13</title>
<polygon fill="white" stroke="#bfbfbf" points="332.5,-56.5 332.5,-75.5 373.5,-75.5 373.5,-56.5 332.5,-56.5"/>
<text text-anchor="middle" x="353" y="-63.5" font-family="Helvetica,sans-Serif" font-size="10.00">string</text>
</g>
<!-- Node11&#45;&gt;Node13 -->
<g id="edge17" class="edge"><title>Node11&#45;&gt;Node13</title>
<path fill="none" stroke="midnightblue" d="M333.798,-112.083C336.913,-104.77 341.423,-94.1814 345.289,-85.1034"/>
<polygon fill="midnightblue" stroke="midnightblue" points="348.574,-86.3229 349.273,-75.7511 342.134,-83.5798 348.574,-86.3229"/>
</g>
<!-- Node14 -->
<g id="node14" class="node"><title>Node14</title>
<polygon fill="white" stroke="#bfbfbf" points="219,-56.5 219,-75.5 261,-75.5 261,-56.5 219,-56.5"/>
<text text-anchor="middle" x="240" y="-63.5" font-family="Helvetica,sans-Serif" font-size="10.00">vector</text>
</g>
<!-- Node11&#45;&gt;Node14 -->
<g id="edge18" class="edge"><title>Node11&#45;&gt;Node14</title>
<path fill="none" stroke="midnightblue" d="M315.54,-112.324C301.5,-103.9 279.952,-90.9709 263.457,-81.0741"/>
<polygon fill="midnightblue" stroke="midnightblue" points="264.8,-77.7983 254.424,-75.6545 261.198,-83.8007 264.8,-77.7983"/>
</g>
<!-- Node15 -->
<g id="node15" class="node"><title>Node15</title>
<polygon fill="white" stroke="#bfbfbf" points="279.5,-56.5 279.5,-75.5 314.5,-75.5 314.5,-56.5 279.5,-56.5"/>
<text text-anchor="middle" x="297" y="-63.5" font-family="Helvetica,sans-Serif" font-size="10.00">map</text>
</g>
<!-- Node11&#45;&gt;Node15 -->
<g id="edge19" class="edge"><title>Node11&#45;&gt;Node15</title>
<path fill="none" stroke="midnightblue" d="M324.551,-112.083C319.986,-104.613 313.332,-93.7244 307.707,-84.5199"/>
<polygon fill="midnightblue" stroke="midnightblue" points="310.549,-82.4588 302.348,-75.7511 304.576,-86.109 310.549,-82.4588"/>
</g>
<!-- Node12&#45;&gt;Node10 -->
<g id="edge16" class="edge"><title>Node12&#45;&gt;Node10</title>
<path fill="none" stroke="midnightblue" d="M398.866,-56.4435C374.518,-47.4381 335.993,-33.1891 308.577,-23.049"/>
<polygon fill="midnightblue" stroke="midnightblue" points="309.619,-19.7028 299.026,-19.5164 307.191,-26.2681 309.619,-19.7028"/>
</g>
<!-- Node16&#45;&gt;Node17 -->
<g id="edge21" class="edge"><title>Node16&#45;&gt;Node17</title>
<path fill="none" stroke="midnightblue" d="M410.349,-168.916C439.983,-159.823 488.363,-144.979 522.064,-134.64"/>
<polygon fill="midnightblue" stroke="midnightblue" points="523.481,-137.866 532.014,-131.587 521.427,-131.174 523.481,-137.866"/>
</g>
<!-- Node16&#45;&gt;Node11 -->
<g id="edge23" class="edge"><title>Node16&#45;&gt;Node11</title>
<path fill="none" stroke="midnightblue" d="M375.083,-168.083C367.22,-160.22 355.569,-148.569 346.081,-139.081"/>
<polygon fill="midnightblue" stroke="midnightblue" points="348.297,-136.347 338.751,-131.751 343.347,-141.297 348.297,-136.347"/>
</g>
<!-- Node18 -->
<g id="node18" class="node"><title>Node18</title>
<polygon fill="white" stroke="#bfbfbf" points="410.5,-112.5 410.5,-131.5 453.5,-131.5 453.5,-112.5 410.5,-112.5"/>
<text text-anchor="middle" x="432" y="-119.5" font-family="Helvetica,sans-Serif" font-size="10.00">deque</text>
</g>
<!-- Node16&#45;&gt;Node18 -->
<g id="edge24" class="edge"><title>Node16&#45;&gt;Node18</title>
<path fill="none" stroke="midnightblue" d="M391.926,-168.083C398.846,-160.298 409.065,-148.801 417.452,-139.367"/>
<polygon fill="midnightblue" stroke="midnightblue" points="420.194,-141.55 424.221,-131.751 414.962,-136.9 420.194,-141.55"/>
</g>
<!-- Node19 -->
<g id="node19" class="node"><title>Node19</title>
<polygon fill="white" stroke="#bfbfbf" points="471.5,-112.5 471.5,-131.5 512.5,-131.5 512.5,-112.5 471.5,-112.5"/>
<text text-anchor="middle" x="492" y="-119.5" font-family="Helvetica,sans-Serif" font-size="10.00">stack</text>
</g>
<!-- Node16&#45;&gt;Node19 -->
<g id="edge25" class="edge"><title>Node16&#45;&gt;Node19</title>
<path fill="none" stroke="midnightblue" d="M401.352,-168.324C418.672,-159.664 445.515,-146.242 465.502,-136.249"/>
<polygon fill="midnightblue" stroke="midnightblue" points="467.312,-139.257 474.691,-131.655 464.181,-132.996 467.312,-139.257"/>
</g>
<!-- Node16&#45;&gt;Node13 -->
<g id="edge26" class="edge"><title>Node16&#45;&gt;Node13</title>
<path fill="none" stroke="midnightblue" d="M381.567,-168.368C376.542,-150.537 364.92,-109.295 358.149,-85.2717"/>
<polygon fill="midnightblue" stroke="midnightblue" points="361.503,-84.2671 355.421,-75.5914 354.765,-86.1659 361.503,-84.2671"/>
</g>
<!-- Node16&#45;&gt;Node4 -->
<g id="edge27" class="edge"><title>Node16&#45;&gt;Node4</title>
<path fill="none" stroke="midnightblue" d="M357.984,-169.94C323.288,-160.525 261.656,-143.801 222.095,-133.066"/>
<polygon fill="midnightblue" stroke="midnightblue" points="222.866,-129.649 212.298,-130.408 221.033,-136.404 222.866,-129.649"/>
</g>
<!-- Node17&#45;&gt;Node12 -->
<g id="edge22" class="edge"><title>Node17&#45;&gt;Node12</title>
<path fill="none" stroke="midnightblue" d="M538.133,-112.444C515.221,-103.478 479.025,-89.314 453.134,-79.1827"/>
<polygon fill="midnightblue" stroke="midnightblue" points="454.352,-75.9011 443.764,-75.5164 451.801,-82.4198 454.352,-75.9011"/>
</g>
<!-- Node20&#45;&gt;Node11 -->
<g id="edge29" class="edge"><title>Node20&#45;&gt;Node11</title>
<path fill="none" stroke="midnightblue" d="M286.587,-168.083C294.159,-160.22 305.378,-148.569 314.514,-139.081"/>
<polygon fill="midnightblue" stroke="midnightblue" points="317.158,-141.382 321.573,-131.751 312.115,-136.527 317.158,-141.382"/>
</g>
<!-- Node20&#45;&gt;Node14 -->
<g id="edge30" class="edge"><title>Node20&#45;&gt;Node14</title>
<path fill="none" stroke="midnightblue" d="M275.018,-168.368C268.858,-150.537 254.611,-109.295 246.312,-85.2717"/>
<polygon fill="midnightblue" stroke="midnightblue" points="249.541,-83.9005 242.968,-75.5914 242.925,-86.1862 249.541,-83.9005"/>
</g>
<!-- Node20&#45;&gt;Node13 -->
<g id="edge31" class="edge"><title>Node20&#45;&gt;Node13</title>
<path fill="none" stroke="midnightblue" d="M278.865,-168.306C280.523,-155.138 285.111,-129.79 297,-112 305.257,-99.6447 317.959,-89.0424 329.179,-81.2378"/>
<polygon fill="midnightblue" stroke="midnightblue" points="331.318,-84.02 337.747,-75.5983 327.47,-78.1729 331.318,-84.02"/>
</g>
<!-- Node20&#45;&gt;Node4 -->
<g id="edge32" class="edge"><title>Node20&#45;&gt;Node4</title>
<path fill="none" stroke="midnightblue" d="M263.058,-168.324C248.415,-159.822 225.866,-146.729 208.762,-136.797"/>
<polygon fill="midnightblue" stroke="midnightblue" points="210.31,-133.649 199.905,-131.655 206.795,-139.703 210.31,-133.649"/>
</g>
</g>
</svg>
