<?xml version="1.0" encoding="UTF-8" standalone="no"?>
<!DOCTYPE svg PUBLIC "-//W3C//DTD SVG 1.1//EN"
 "http://www.w3.org/Graphics/SVG/1.1/DTD/svg11.dtd">
<!-- Generated by graphviz version 2.30.1 (20130214.1330)
 -->
<!-- Title: GUI/Timer/main.cpp Pages: 1 -->
<svg width="178pt" height="140pt"
 viewBox="0.00 0.00 178.00 140.00" xmlns="http://www.w3.org/2000/svg" xmlns:xlink="http://www.w3.org/1999/xlink">
<g id="graph0" class="graph" transform="scale(1 1) rotate(0) translate(4 136)">
<title>GUI/Timer/main.cpp</title>
<polygon fill="white" stroke="white" points="-4,5 -4,-136 175,-136 175,5 -4,5"/>
<!-- Node1 -->
<g id="node1" class="node"><title>Node1</title>
<polygon fill="#bfbfbf" stroke="black" points="41.5,-112.5 41.5,-131.5 144.5,-131.5 144.5,-112.5 41.5,-112.5"/>
<text text-anchor="middle" x="93" y="-119.5" font-family="Helvetica,sans-Serif" font-size="10.00">GUI/Timer/main.cpp</text>
</g>
<!-- Node2 -->
<g id="node2" class="node"><title>Node2</title>
<polygon fill="white" stroke="#bfbfbf" points="0,-56.5 0,-75.5 92,-75.5 92,-56.5 0,-56.5"/>
<text text-anchor="middle" x="46" y="-63.5" font-family="Helvetica,sans-Serif" font-size="10.00">QCoreApplication</text>
</g>
<!-- Node1&#45;&gt;Node2 -->
<g id="edge1" class="edge"><title>Node1&#45;&gt;Node2</title>
<path fill="none" stroke="midnightblue" d="M85.2389,-112.083C78.4632,-104.298 68.4568,-92.8015 60.2449,-83.3665"/>
<polygon fill="midnightblue" stroke="midnightblue" points="62.822,-80.9963 53.6167,-75.7511 57.5419,-85.592 62.822,-80.9963"/>
</g>
<!-- Node3 -->
<g id="node3" class="node"><title>Node3</title>
<g id="a_node3"><a xlink:href="../../da/d42/_timer_2mytimer_8h.xhtml" target="_top" xlink:title="mytimer.h">
<polygon fill="white" stroke="black" points="110,-56.5 110,-75.5 170,-75.5 170,-56.5 110,-56.5"/>
<text text-anchor="middle" x="140" y="-63.5" font-family="Helvetica,sans-Serif" font-size="10.00">mytimer.h</text>
</a>
</g>
</g>
<!-- Node1&#45;&gt;Node3 -->
<g id="edge2" class="edge"><title>Node1&#45;&gt;Node3</title>
<path fill="none" stroke="midnightblue" d="M100.761,-112.083C107.537,-104.298 117.543,-92.8015 125.755,-83.3665"/>
<polygon fill="midnightblue" stroke="midnightblue" points="128.458,-85.592 132.383,-75.7511 123.178,-80.9963 128.458,-85.592"/>
</g>
<!-- Node4 -->
<g id="node4" class="node"><title>Node4</title>
<polygon fill="white" stroke="#bfbfbf" points="116.5,-0.5 116.5,-19.5 163.5,-19.5 163.5,-0.5 116.5,-0.5"/>
<text text-anchor="middle" x="140" y="-7.5" font-family="Helvetica,sans-Serif" font-size="10.00">QtCore</text>
</g>
<!-- Node3&#45;&gt;Node4 -->
<g id="edge3" class="edge"><title>Node3&#45;&gt;Node4</title>
<path fill="none" stroke="midnightblue" d="M140,-56.083C140,-49.0059 140,-38.8611 140,-29.9865"/>
<polygon fill="midnightblue" stroke="midnightblue" points="143.5,-29.751 140,-19.7511 136.5,-29.7511 143.5,-29.751"/>
</g>
</g>
</svg>
