<?xml version="1.0" encoding="UTF-8" standalone="no"?>
<!DOCTYPE svg PUBLIC "-//W3C//DTD SVG 1.1//EN"
 "http://www.w3.org/Graphics/SVG/1.1/DTD/svg11.dtd">
<!-- Generated by graphviz version 2.30.1 (20130214.1330)
 -->
<!-- Title: GUI/Gui&#45;RoombaV1.0/brushvacuumdata.h Pages: 1 -->
<svg width="418pt" height="208pt"
 viewBox="0.00 0.00 418.00 208.00" xmlns="http://www.w3.org/2000/svg" xmlns:xlink="http://www.w3.org/1999/xlink">
<g id="graph0" class="graph" transform="scale(1 1) rotate(0) translate(4 204)">
<title>GUI/Gui&#45;RoombaV1.0/brushvacuumdata.h</title>
<polygon fill="white" stroke="white" points="-4,5 -4,-204 415,-204 415,5 -4,5"/>
<!-- Node1 -->
<g id="node1" class="node"><title>Node1</title>
<polygon fill="#bfbfbf" stroke="black" points="155,-169 155,-199 265,-199 265,-169 155,-169"/>
<text text-anchor="start" x="163" y="-187" font-family="Helvetica,sans-Serif" font-size="10.00">GUI/Gui&#45;RoombaV1.0</text>
<text text-anchor="middle" x="210" y="-176" font-family="Helvetica,sans-Serif" font-size="10.00">/brushvacuumdata.h</text>
</g>
<!-- Node2 -->
<g id="node2" class="node"><title>Node2</title>
<g id="a_node2"><a xlink:href="../../db/d97/clsevent_8h.xhtml" target="_top" xlink:title="../resources/clsevent.h">
<polygon fill="white" stroke="black" points="100.5,-112.5 100.5,-131.5 215.5,-131.5 215.5,-112.5 100.5,-112.5"/>
<text text-anchor="middle" x="158" y="-119.5" font-family="Helvetica,sans-Serif" font-size="10.00">../resources/clsevent.h</text>
</a>
</g>
</g>
<!-- Node1&#45;&gt;Node2 -->
<g id="edge1" class="edge"><title>Node1&#45;&gt;Node2</title>
<path fill="none" stroke="midnightblue" d="M197.677,-168.781C190.043,-159.972 180.209,-148.626 172.242,-139.433"/>
<polygon fill="midnightblue" stroke="midnightblue" points="174.761,-136.995 165.566,-131.731 169.471,-141.58 174.761,-136.995"/>
</g>
<!-- Node5 -->
<g id="node5" class="node"><title>Node5</title>
<polygon fill="white" stroke="#bfbfbf" points="245.5,-56.5 245.5,-75.5 300.5,-75.5 300.5,-56.5 245.5,-56.5"/>
<text text-anchor="middle" x="273" y="-63.5" font-family="Helvetica,sans-Serif" font-size="10.00">QVariant</text>
</g>
<!-- Node1&#45;&gt;Node5 -->
<g id="edge12" class="edge"><title>Node1&#45;&gt;Node5</title>
<path fill="none" stroke="midnightblue" d="M217.725,-168.776C229.231,-147.591 250.855,-107.776 263.374,-84.7245"/>
<polygon fill="midnightblue" stroke="midnightblue" points="266.574,-86.165 268.271,-75.707 260.423,-82.8242 266.574,-86.165"/>
</g>
<!-- Node3 -->
<g id="node3" class="node"><title>Node3</title>
<polygon fill="white" stroke="#bfbfbf" points="-0.5,-56.5 -0.5,-75.5 52.5,-75.5 52.5,-56.5 -0.5,-56.5"/>
<text text-anchor="middle" x="26" y="-63.5" font-family="Helvetica,sans-Serif" font-size="10.00">QObject</text>
</g>
<!-- Node2&#45;&gt;Node3 -->
<g id="edge2" class="edge"><title>Node2&#45;&gt;Node3</title>
<path fill="none" stroke="midnightblue" d="M137.084,-112.444C115.264,-103.517 80.8502,-89.4387 56.1078,-79.3168"/>
<polygon fill="midnightblue" stroke="midnightblue" points="57.3987,-76.0634 46.8179,-75.5164 54.7482,-82.5422 57.3987,-76.0634"/>
</g>
<!-- Node4 -->
<g id="node4" class="node"><title>Node4</title>
<polygon fill="white" stroke="#bfbfbf" points="71,-56.5 71,-75.5 121,-75.5 121,-56.5 71,-56.5"/>
<text text-anchor="middle" x="96" y="-63.5" font-family="Helvetica,sans-Serif" font-size="10.00">QString</text>
</g>
<!-- Node2&#45;&gt;Node4 -->
<g id="edge3" class="edge"><title>Node2&#45;&gt;Node4</title>
<path fill="none" stroke="midnightblue" d="M148.039,-112.324C138.873,-104.341 125.063,-92.3128 113.972,-82.6529"/>
<polygon fill="midnightblue" stroke="midnightblue" points="115.982,-79.7624 106.143,-75.8339 111.385,-85.041 115.982,-79.7624"/>
</g>
<!-- Node2&#45;&gt;Node5 -->
<g id="edge4" class="edge"><title>Node2&#45;&gt;Node5</title>
<path fill="none" stroke="midnightblue" d="M176.222,-112.444C194.896,-103.675 224.156,-89.9355 245.617,-79.8579"/>
<polygon fill="midnightblue" stroke="midnightblue" points="247.299,-82.935 254.863,-75.5164 244.324,-76.5988 247.299,-82.935"/>
</g>
<!-- Node6 -->
<g id="node6" class="node"><title>Node6</title>
<polygon fill="white" stroke="#bfbfbf" points="59.5,-0.5 59.5,-19.5 124.5,-19.5 124.5,-0.5 59.5,-0.5"/>
<text text-anchor="middle" x="92" y="-7.5" font-family="Helvetica,sans-Serif" font-size="10.00">QDateTime</text>
</g>
<!-- Node2&#45;&gt;Node6 -->
<g id="edge5" class="edge"><title>Node2&#45;&gt;Node6</title>
<path fill="none" stroke="midnightblue" d="M155.138,-112.188C150.751,-99.3027 141.636,-74.8088 130,-56 123.625,-45.6953 115.01,-35.2885 107.594,-27.082"/>
<polygon fill="midnightblue" stroke="midnightblue" points="110.085,-24.6214 100.706,-19.6943 104.966,-29.3951 110.085,-24.6214"/>
</g>
<!-- Node7 -->
<g id="node7" class="node"><title>Node7</title>
<g id="a_node7"><a xlink:href="../../d7/d62/clslog_8h.xhtml" target="_top" xlink:title="clslog.h">
<polygon fill="white" stroke="black" points="177,-56.5 177,-75.5 227,-75.5 227,-56.5 177,-56.5"/>
<text text-anchor="middle" x="202" y="-63.5" font-family="Helvetica,sans-Serif" font-size="10.00">clslog.h</text>
</a>
</g>
</g>
<!-- Node2&#45;&gt;Node7 -->
<g id="edge6" class="edge"><title>Node2&#45;&gt;Node7</title>
<path fill="none" stroke="midnightblue" d="M165.266,-112.083C171.545,-104.377 180.788,-93.0333 188.431,-83.6531"/>
<polygon fill="midnightblue" stroke="midnightblue" points="191.266,-85.7143 194.869,-75.7511 185.839,-81.2926 191.266,-85.7143"/>
</g>
<!-- Node8 -->
<g id="node8" class="node"><title>Node8</title>
<polygon fill="white" stroke="#bfbfbf" points="143,-0.5 143,-19.5 195,-19.5 195,-0.5 143,-0.5"/>
<text text-anchor="middle" x="169" y="-7.5" font-family="Helvetica,sans-Serif" font-size="10.00">QDebug</text>
</g>
<!-- Node7&#45;&gt;Node8 -->
<g id="edge7" class="edge"><title>Node7&#45;&gt;Node8</title>
<path fill="none" stroke="midnightblue" d="M196.551,-56.083C191.986,-48.6127 185.332,-37.7244 179.707,-28.5199"/>
<polygon fill="midnightblue" stroke="midnightblue" points="182.549,-26.4588 174.348,-19.7511 176.576,-30.109 182.549,-26.4588"/>
</g>
<!-- Node7&#45;&gt;Node6 -->
<g id="edge8" class="edge"><title>Node7&#45;&gt;Node6</title>
<path fill="none" stroke="midnightblue" d="M184.327,-56.324C166.606,-47.6247 139.097,-34.1202 118.712,-24.113"/>
<polygon fill="midnightblue" stroke="midnightblue" points="120.149,-20.9195 109.63,-19.6545 117.064,-27.2031 120.149,-20.9195"/>
</g>
<!-- Node9 -->
<g id="node9" class="node"><title>Node9</title>
<polygon fill="white" stroke="#bfbfbf" points="213.5,-0.5 213.5,-19.5 254.5,-19.5 254.5,-0.5 213.5,-0.5"/>
<text text-anchor="middle" x="234" y="-7.5" font-family="Helvetica,sans-Serif" font-size="10.00">string</text>
</g>
<!-- Node7&#45;&gt;Node9 -->
<g id="edge9" class="edge"><title>Node7&#45;&gt;Node9</title>
<path fill="none" stroke="midnightblue" d="M207.284,-56.083C211.711,-48.6127 218.163,-37.7244 223.618,-28.5199"/>
<polygon fill="midnightblue" stroke="midnightblue" points="226.727,-30.1383 228.814,-19.7511 220.705,-26.5697 226.727,-30.1383"/>
</g>
<!-- Node10 -->
<g id="node10" class="node"><title>Node10</title>
<polygon fill="white" stroke="#bfbfbf" points="273,-0.5 273,-19.5 327,-19.5 327,-0.5 273,-0.5"/>
<text text-anchor="middle" x="300" y="-7.5" font-family="Helvetica,sans-Serif" font-size="10.00">iostream</text>
</g>
<!-- Node7&#45;&gt;Node10 -->
<g id="edge10" class="edge"><title>Node7&#45;&gt;Node10</title>
<path fill="none" stroke="midnightblue" d="M217.745,-56.324C233.319,-47.7428 257.377,-34.486 275.459,-24.5224"/>
<polygon fill="midnightblue" stroke="midnightblue" points="277.224,-27.546 284.294,-19.6545 273.846,-21.4152 277.224,-27.546"/>
</g>
<!-- Node11 -->
<g id="node11" class="node"><title>Node11</title>
<polygon fill="white" stroke="#bfbfbf" points="345.5,-0.5 345.5,-19.5 410.5,-19.5 410.5,-0.5 345.5,-0.5"/>
<text text-anchor="middle" x="378" y="-7.5" font-family="Helvetica,sans-Serif" font-size="10.00">QStringList</text>
</g>
<!-- Node7&#45;&gt;Node11 -->
<g id="edge11" class="edge"><title>Node7&#45;&gt;Node11</title>
<path fill="none" stroke="midnightblue" d="M227.217,-57.2631C256.89,-48.1589 306.435,-32.9575 340.587,-22.479"/>
<polygon fill="midnightblue" stroke="midnightblue" points="341.683,-25.8037 350.217,-19.5243 339.63,-19.1116 341.683,-25.8037"/>
</g>
</g>
</svg>
