<?xml version="1.0" encoding="UTF-8" standalone="no"?>
<!DOCTYPE svg PUBLIC "-//W3C//DTD SVG 1.1//EN"
 "http://www.w3.org/Graphics/SVG/1.1/DTD/svg11.dtd">
<!-- Generated by graphviz version 2.30.1 (20130214.1330)
 -->
<!-- Title: shared::events::eventSensor Pages: 1 -->
<svg width="146pt" height="154pt"
 viewBox="0.00 0.00 146.00 154.00" xmlns="http://www.w3.org/2000/svg" xmlns:xlink="http://www.w3.org/1999/xlink">
<g id="graph0" class="graph" transform="scale(1 1) rotate(0) translate(4 150)">
<title>shared::events::eventSensor</title>
<polygon fill="white" stroke="white" points="-4,5 -4,-150 143,-150 143,5 -4,5"/>
<!-- Node1 -->
<g id="node1" class="node"><title>Node1</title>
<polygon fill="#bfbfbf" stroke="black" points="-0.5,-0.5 -0.5,-19.5 138.5,-19.5 138.5,-0.5 -0.5,-0.5"/>
<text text-anchor="middle" x="69" y="-7.5" font-family="Helvetica,sans-Serif" font-size="10.00">shared::events::eventSensor</text>
</g>
<!-- Node2 -->
<g id="node2" class="node"><title>Node2</title>
<g id="a_node2"><a xlink:href="../../db/d8b/classshared_1_1events_1_1cls_event.xhtml" target="_top" xlink:title="The main event class.">
<polygon fill="white" stroke="black" points="8,-58.5 8,-77.5 130,-77.5 130,-58.5 8,-58.5"/>
<text text-anchor="middle" x="69" y="-65.5" font-family="Helvetica,sans-Serif" font-size="10.00">shared::events::clsEvent</text>
</a>
</g>
</g>
<!-- Node2&#45;&gt;Node1 -->
<g id="edge1" class="edge"><title>Node2&#45;&gt;Node1</title>
<path fill="none" stroke="midnightblue" d="M69,-47.953C69,-38.2875 69,-27.0312 69,-19.5052"/>
<polygon fill="midnightblue" stroke="midnightblue" points="65.5001,-48.25 69,-58.25 72.5001,-48.25 65.5001,-48.25"/>
</g>
<!-- Node3 -->
<g id="node3" class="node"><title>Node3</title>
<g id="a_node3"><a xlink:href="../../da/d64/class_k4_u_1_1cls_log.xhtml" target="_top" xlink:title="Custom logging class.">
<polygon fill="white" stroke="black" points="34,-126.5 34,-145.5 104,-145.5 104,-126.5 34,-126.5"/>
<text text-anchor="middle" x="69" y="-133.5" font-family="Helvetica,sans-Serif" font-size="10.00">K4U::clsLog</text>
</a>
</g>
</g>
<!-- Node3&#45;&gt;Node2 -->
<g id="edge2" class="edge"><title>Node3&#45;&gt;Node2</title>
<path fill="none" stroke="#9a32cd" stroke-dasharray="5,2" d="M69,-116.041C69,-103.472 69,-87.5631 69,-77.8411"/>
<polygon fill="#9a32cd" stroke="#9a32cd" points="65.5001,-116.372 69,-126.372 72.5001,-116.372 65.5001,-116.372"/>
<text text-anchor="middle" x="77" y="-99.5" font-family="Helvetica,sans-Serif" font-size="10.00"> log</text>
</g>
</g>
</svg>
