<?xml version="1.0" encoding="UTF-8" standalone="no"?>
<!DOCTYPE svg PUBLIC "-//W3C//DTD SVG 1.1//EN"
 "http://www.w3.org/Graphics/SVG/1.1/DTD/svg11.dtd">
<!-- Generated by graphviz version 2.30.1 (20130214.1330)
 -->
<!-- Title: GUI/Gui&#45;RoombaV1.0/loggingdata.h Pages: 1 -->
<svg width="1230pt" height="342pt"
 viewBox="0.00 0.00 1230.00 342.00" xmlns="http://www.w3.org/2000/svg" xmlns:xlink="http://www.w3.org/1999/xlink">
<g id="graph0" class="graph" transform="scale(1 1) rotate(0) translate(4 338)">
<title>GUI/Gui&#45;RoombaV1.0/loggingdata.h</title>
<polygon fill="white" stroke="white" points="-4,5 -4,-338 1227,-338 1227,5 -4,5"/>
<!-- Node1 -->
<g id="node1" class="node"><title>Node1</title>
<polygon fill="#bfbfbf" stroke="black" points="688,-303 688,-333 798,-333 798,-303 688,-303"/>
<text text-anchor="start" x="696" y="-321" font-family="Helvetica,sans-Serif" font-size="10.00">GUI/Gui&#45;RoombaV1.0</text>
<text text-anchor="middle" x="743" y="-310" font-family="Helvetica,sans-Serif" font-size="10.00">/loggingdata.h</text>
</g>
<!-- Node2 -->
<g id="node2" class="node"><title>Node2</title>
<g id="a_node2"><a xlink:href="../../d4/dca/_roomba_connect_8h.xhtml" target="_top" xlink:title="GUI/Gui&#45;RoombaV1.0\l/RoombaConnect.h">
<polygon fill="white" stroke="black" points="424,-235 424,-265 534,-265 534,-235 424,-235"/>
<text text-anchor="start" x="432" y="-253" font-family="Helvetica,sans-Serif" font-size="10.00">GUI/Gui&#45;RoombaV1.0</text>
<text text-anchor="middle" x="479" y="-242" font-family="Helvetica,sans-Serif" font-size="10.00">/RoombaConnect.h</text>
</a>
</g>
</g>
<!-- Node1&#45;&gt;Node2 -->
<g id="edge1" class="edge"><title>Node1&#45;&gt;Node2</title>
<path fill="none" stroke="midnightblue" d="M678.22,-300.805C634.12,-289.78 576.367,-275.342 534.405,-264.851"/>
<polygon fill="midnightblue" stroke="midnightblue" points="677.428,-304.215 687.978,-303.245 679.126,-297.424 677.428,-304.215"/>
</g>
<!-- Node3 -->
<g id="node3" class="node"><title>Node3</title>
<g id="a_node3"><a xlink:href="../../da/d4b/controllingroomba_8h.xhtml" target="_top" xlink:title="GUI/Gui&#45;RoombaV1.0\l/controllingroomba.h">
<polygon fill="white" stroke="black" points="392,-162 392,-192 502,-192 502,-162 392,-162"/>
<text text-anchor="start" x="400" y="-180" font-family="Helvetica,sans-Serif" font-size="10.00">GUI/Gui&#45;RoombaV1.0</text>
<text text-anchor="middle" x="447" y="-169" font-family="Helvetica,sans-Serif" font-size="10.00">/controllingroomba.h</text>
</a>
</g>
</g>
<!-- Node1&#45;&gt;Node3 -->
<g id="edge19" class="edge"><title>Node1&#45;&gt;Node3</title>
<path fill="none" stroke="midnightblue" d="M703.856,-298.618C643.997,-270.509 531,-217.446 477.09,-192.13"/>
<polygon fill="midnightblue" stroke="midnightblue" points="702.45,-301.824 712.989,-302.907 705.425,-295.488 702.45,-301.824"/>
</g>
<!-- Node18 -->
<g id="node18" class="node"><title>Node18</title>
<g id="a_node18"><a xlink:href="../../d7/d82/displaylogs_8h.xhtml" target="_top" xlink:title="GUI/Gui&#45;RoombaV1.0\l/displaylogs.h">
<polygon fill="white" stroke="black" points="688,-235 688,-265 798,-265 798,-235 688,-235"/>
<text text-anchor="start" x="696" y="-253" font-family="Helvetica,sans-Serif" font-size="10.00">GUI/Gui&#45;RoombaV1.0</text>
<text text-anchor="middle" x="743" y="-242" font-family="Helvetica,sans-Serif" font-size="10.00">/displaylogs.h</text>
</a>
</g>
</g>
<!-- Node1&#45;&gt;Node18 -->
<g id="edge20" class="edge"><title>Node1&#45;&gt;Node18</title>
<path fill="none" stroke="midnightblue" d="M743,-292.532C743,-283.361 743,-273.245 743,-265.293"/>
<polygon fill="midnightblue" stroke="midnightblue" points="739.5,-292.679 743,-302.679 746.5,-292.679 739.5,-292.679"/>
</g>
<!-- Node5 -->
<g id="node5" class="node"><title>Node5</title>
<g id="a_node5"><a xlink:href="../../dd/da1/roomba_8h.xhtml" target="_top" xlink:title="GUI/Gui&#45;RoombaV1.0\l/roomba.h">
<polygon fill="white" stroke="black" points="578,-84 578,-114 688,-114 688,-84 578,-84"/>
<text text-anchor="start" x="586" y="-102" font-family="Helvetica,sans-Serif" font-size="10.00">GUI/Gui&#45;RoombaV1.0</text>
<text text-anchor="middle" x="633" y="-91" font-family="Helvetica,sans-Serif" font-size="10.00">/roomba.h</text>
</a>
</g>
</g>
<!-- Node1&#45;&gt;Node5 -->
<g id="edge26" class="edge"><title>Node1&#45;&gt;Node5</title>
<path fill="none" stroke="midnightblue" d="M808.474,-305.748C912.392,-285.194 1096.57,-236.156 1027,-156 983.808,-106.235 786.234,-99.5403 688.323,-99.3606"/>
<polygon fill="midnightblue" stroke="midnightblue" points="807.523,-302.367 798.372,-307.707 808.855,-309.239 807.523,-302.367"/>
</g>
<!-- Node21 -->
<g id="node21" class="node"><title>Node21</title>
<g id="a_node21"><a xlink:href="../../d6/deb/loggingdata_8cpp.xhtml" target="_top" xlink:title="GUI/Gui&#45;RoombaV1.0\l/loggingdata.cpp">
<polygon fill="white" stroke="black" points="1112,-235 1112,-265 1222,-265 1222,-235 1112,-235"/>
<text text-anchor="start" x="1120" y="-253" font-family="Helvetica,sans-Serif" font-size="10.00">GUI/Gui&#45;RoombaV1.0</text>
<text text-anchor="middle" x="1167" y="-242" font-family="Helvetica,sans-Serif" font-size="10.00">/loggingdata.cpp</text>
</a>
</g>
</g>
<!-- Node1&#45;&gt;Node21 -->
<g id="edge27" class="edge"><title>Node1&#45;&gt;Node21</title>
<path fill="none" stroke="midnightblue" d="M808.426,-309.023C879.826,-299.987 997.398,-284.137 1098,-266 1102.46,-265.195 1107.08,-264.31 1111.71,-263.384"/>
<polygon fill="midnightblue" stroke="midnightblue" points="807.718,-305.584 798.234,-310.306 808.593,-312.53 807.718,-305.584"/>
</g>
<!-- Node2&#45;&gt;Node3 -->
<g id="edge2" class="edge"><title>Node2&#45;&gt;Node3</title>
<path fill="none" stroke="midnightblue" d="M468.439,-225.568C463.517,-214.646 457.814,-201.995 453.529,-192.486"/>
<polygon fill="midnightblue" stroke="midnightblue" points="465.378,-227.294 472.678,-234.973 471.76,-224.418 465.378,-227.294"/>
</g>
<!-- Node2&#45;&gt;Node5 -->
<g id="edge15" class="edge"><title>Node2&#45;&gt;Node5</title>
<path fill="none" stroke="midnightblue" d="M492.835,-226.452C505.775,-206.488 526.448,-177.297 549,-156 566.585,-139.393 589.621,-124.418 607.12,-114.14"/>
<polygon fill="midnightblue" stroke="midnightblue" points="489.867,-224.596 487.455,-234.913 495.774,-228.352 489.867,-224.596"/>
</g>
<!-- Node15 -->
<g id="node15" class="node"><title>Node15</title>
<g id="a_node15"><a xlink:href="../../d1/d9b/bin_2debug_2debug_2moc___roomba_connect_8cpp.xhtml" target="_top" xlink:title="GUI/bin/debug/debug\l/moc_RoombaConnect.cpp">
<polygon fill="white" stroke="black" points="0,-162 0,-192 134,-192 134,-162 0,-162"/>
<text text-anchor="start" x="8" y="-180" font-family="Helvetica,sans-Serif" font-size="10.00">GUI/bin/debug/debug</text>
<text text-anchor="middle" x="67" y="-169" font-family="Helvetica,sans-Serif" font-size="10.00">/moc_RoombaConnect.cpp</text>
</a>
</g>
</g>
<!-- Node2&#45;&gt;Node15 -->
<g id="edge16" class="edge"><title>Node2&#45;&gt;Node15</title>
<path fill="none" stroke="midnightblue" d="M413.844,-241.205C345.883,-232.585 236.427,-217.326 143,-198 134.716,-196.286 125.987,-194.23 117.514,-192.097"/>
<polygon fill="midnightblue" stroke="midnightblue" points="413.616,-244.703 423.975,-242.479 414.49,-237.758 413.616,-244.703"/>
</g>
<!-- Node16 -->
<g id="node16" class="node"><title>Node16</title>
<g id="a_node16"><a xlink:href="../../d7/da4/_roomba_connect_8cpp.xhtml" target="_top" xlink:title="GUI/Gui&#45;RoombaV1.0\l/RoombaConnect.cpp">
<polygon fill="white" stroke="black" points="558,-162 558,-192 668,-192 668,-162 558,-162"/>
<text text-anchor="start" x="566" y="-180" font-family="Helvetica,sans-Serif" font-size="10.00">GUI/Gui&#45;RoombaV1.0</text>
<text text-anchor="middle" x="613" y="-169" font-family="Helvetica,sans-Serif" font-size="10.00">/RoombaConnect.cpp</text>
</a>
</g>
</g>
<!-- Node2&#45;&gt;Node16 -->
<g id="edge17" class="edge"><title>Node2&#45;&gt;Node16</title>
<path fill="none" stroke="midnightblue" d="M514.378,-230.255C536.859,-218.343 565.503,-203.166 586.122,-192.241"/>
<polygon fill="midnightblue" stroke="midnightblue" points="512.672,-227.198 505.474,-234.973 515.949,-233.383 512.672,-227.198"/>
</g>
<!-- Node17 -->
<g id="node17" class="node"><title>Node17</title>
<g id="a_node17"><a xlink:href="../../d2/ddc/roombagui-build-_desktop___qt__5__0__1___m_s_v_c2010__32bit-_debug_2debug_2moc___roomba_connect_8cpp.xhtml" target="_top" xlink:title="GUI/roombagui&#45;build\l&#45;Desktop_Qt_5_0_1_MSVC2010\l_32bit&#45;Debug/debug/moc_RoombaConnect.cpp">
<polygon fill="white" stroke="black" points="152.5,-156.5 152.5,-197.5 373.5,-197.5 373.5,-156.5 152.5,-156.5"/>
<text text-anchor="start" x="160.5" y="-185.5" font-family="Helvetica,sans-Serif" font-size="10.00">GUI/roombagui&#45;build</text>
<text text-anchor="start" x="160.5" y="-174.5" font-family="Helvetica,sans-Serif" font-size="10.00">&#45;Desktop_Qt_5_0_1_MSVC2010</text>
<text text-anchor="middle" x="263" y="-163.5" font-family="Helvetica,sans-Serif" font-size="10.00">_32bit&#45;Debug/debug/moc_RoombaConnect.cpp</text>
</a>
</g>
</g>
<!-- Node2&#45;&gt;Node17 -->
<g id="edge18" class="edge"><title>Node2&#45;&gt;Node17</title>
<path fill="none" stroke="midnightblue" d="M426.437,-231.722C394.987,-221.385 354.932,-208.218 322.347,-197.507"/>
<polygon fill="midnightblue" stroke="midnightblue" points="425.732,-235.175 436.325,-234.973 427.918,-228.525 425.732,-235.175"/>
</g>
<!-- Node4 -->
<g id="node4" class="node"><title>Node4</title>
<g id="a_node4"><a xlink:href="../../d2/d33/bin_2debug_2debug_2moc__controllingroomba_8cpp.xhtml" target="_top" xlink:title="GUI/bin/debug/debug\l/moc_controllingroomba.cpp">
<polygon fill="white" stroke="black" points="138.5,-84 138.5,-114 277.5,-114 277.5,-84 138.5,-84"/>
<text text-anchor="start" x="146.5" y="-102" font-family="Helvetica,sans-Serif" font-size="10.00">GUI/bin/debug/debug</text>
<text text-anchor="middle" x="208" y="-91" font-family="Helvetica,sans-Serif" font-size="10.00">/moc_controllingroomba.cpp</text>
</a>
</g>
</g>
<!-- Node3&#45;&gt;Node4 -->
<g id="edge3" class="edge"><title>Node3&#45;&gt;Node4</title>
<path fill="none" stroke="midnightblue" d="M393.26,-158.911C350.744,-145.391 292.1,-126.743 252.262,-114.075"/>
<polygon fill="midnightblue" stroke="midnightblue" points="392.295,-162.277 402.885,-161.972 394.416,-155.606 392.295,-162.277"/>
</g>
<!-- Node3&#45;&gt;Node5 -->
<g id="edge4" class="edge"><title>Node3&#45;&gt;Node5</title>
<path fill="none" stroke="midnightblue" d="M490.939,-158.046C523.865,-144.593 568.286,-126.442 598.636,-114.041"/>
<polygon fill="midnightblue" stroke="midnightblue" points="489.482,-154.861 481.549,-161.883 492.13,-161.341 489.482,-154.861"/>
</g>
<!-- Node7 -->
<g id="node7" class="node"><title>Node7</title>
<g id="a_node7"><a xlink:href="../../d5/dd2/controllingroomba_8cpp.xhtml" target="_top" xlink:title="GUI/Gui&#45;RoombaV1.0\l/controllingroomba.cpp">
<polygon fill="white" stroke="black" points="71.5,-6 71.5,-36 186.5,-36 186.5,-6 71.5,-6"/>
<text text-anchor="start" x="79.5" y="-24" font-family="Helvetica,sans-Serif" font-size="10.00">GUI/Gui&#45;RoombaV1.0</text>
<text text-anchor="middle" x="129" y="-13" font-family="Helvetica,sans-Serif" font-size="10.00">/controllingroomba.cpp</text>
</a>
</g>
</g>
<!-- Node3&#45;&gt;Node7 -->
<g id="edge13" class="edge"><title>Node3&#45;&gt;Node7</title>
<path fill="none" stroke="midnightblue" d="M396.537,-158.063C373.567,-148.621 346.725,-135.72 325,-120 304.363,-105.067 307.272,-92.0136 286,-78 267.573,-65.8609 215.387,-48.3121 176.201,-36.1065"/>
<polygon fill="midnightblue" stroke="midnightblue" points="395.534,-161.431 406.118,-161.895 398.133,-154.932 395.534,-161.431"/>
</g>
<!-- Node14 -->
<g id="node14" class="node"><title>Node14</title>
<g id="a_node14"><a xlink:href="../../d5/dc6/roombagui-build-_desktop___qt__5__0__1___m_s_v_c2010__32bit-_debug_2debug_2moc__controllingroomba_8cpp.xhtml" target="_top" xlink:title="GUI/roombagui&#45;build\l&#45;Desktop_Qt_5_0_1_MSVC2010\l_32bit&#45;Debug/debug/moc_controllingroomba.cpp">
<polygon fill="white" stroke="black" points="334.5,-78.5 334.5,-119.5 559.5,-119.5 559.5,-78.5 334.5,-78.5"/>
<text text-anchor="start" x="342.5" y="-107.5" font-family="Helvetica,sans-Serif" font-size="10.00">GUI/roombagui&#45;build</text>
<text text-anchor="start" x="342.5" y="-96.5" font-family="Helvetica,sans-Serif" font-size="10.00">&#45;Desktop_Qt_5_0_1_MSVC2010</text>
<text text-anchor="middle" x="447" y="-85.5" font-family="Helvetica,sans-Serif" font-size="10.00">_32bit&#45;Debug/debug/moc_controllingroomba.cpp</text>
</a>
</g>
</g>
<!-- Node3&#45;&gt;Node14 -->
<g id="edge14" class="edge"><title>Node3&#45;&gt;Node14</title>
<path fill="none" stroke="midnightblue" d="M447,-151.656C447,-141.326 447,-129.443 447,-119.68"/>
<polygon fill="midnightblue" stroke="midnightblue" points="443.5,-151.705 447,-161.705 450.5,-151.705 443.5,-151.705"/>
</g>
<!-- Node6 -->
<g id="node6" class="node"><title>Node6</title>
<g id="a_node6"><a xlink:href="../../d8/d22/bin_2debug_2debug_2moc__roomba_8cpp.xhtml" target="_top" xlink:title="GUI/bin/debug/debug\l/moc_roomba.cpp">
<polygon fill="white" stroke="black" points="403.5,-6 403.5,-36 510.5,-36 510.5,-6 403.5,-6"/>
<text text-anchor="start" x="411.5" y="-24" font-family="Helvetica,sans-Serif" font-size="10.00">GUI/bin/debug/debug</text>
<text text-anchor="middle" x="457" y="-13" font-family="Helvetica,sans-Serif" font-size="10.00">/moc_roomba.cpp</text>
</a>
</g>
</g>
<!-- Node5&#45;&gt;Node6 -->
<g id="edge5" class="edge"><title>Node5&#45;&gt;Node6</title>
<path fill="none" stroke="midnightblue" d="M591.021,-79.8729C559.907,-66.4372 518.112,-48.3891 489.517,-36.0413"/>
<polygon fill="midnightblue" stroke="midnightblue" points="589.74,-83.1319 600.308,-83.8831 592.515,-76.7055 589.74,-83.1319"/>
</g>
<!-- Node5&#45;&gt;Node7 -->
<g id="edge6" class="edge"><title>Node5&#45;&gt;Node7</title>
<path fill="none" stroke="midnightblue" d="M581.704,-81.1727C577.1,-79.98 572.485,-78.8967 568,-78 404.685,-45.3434 358.384,-74.3083 195,-42 187.131,-40.4439 178.859,-38.3323 170.936,-36.0627"/>
<polygon fill="midnightblue" stroke="midnightblue" points="581.14,-84.6476 591.71,-83.9291 582.999,-77.899 581.14,-84.6476"/>
</g>
<!-- Node8 -->
<g id="node8" class="node"><title>Node8</title>
<g id="a_node8"><a xlink:href="../../d1/d10/displaylogs_8cpp.xhtml" target="_top" xlink:title="GUI/Gui&#45;RoombaV1.0\l/displaylogs.cpp">
<polygon fill="white" stroke="black" points="1041,-6 1041,-36 1151,-36 1151,-6 1041,-6"/>
<text text-anchor="start" x="1049" y="-24" font-family="Helvetica,sans-Serif" font-size="10.00">GUI/Gui&#45;RoombaV1.0</text>
<text text-anchor="middle" x="1096" y="-13" font-family="Helvetica,sans-Serif" font-size="10.00">/displaylogs.cpp</text>
</a>
</g>
</g>
<!-- Node5&#45;&gt;Node8 -->
<g id="edge7" class="edge"><title>Node5&#45;&gt;Node8</title>
<path fill="none" stroke="midnightblue" d="M698.396,-92.1339C777.917,-84.2424 915.905,-68.1028 1032,-42 1039.38,-40.3401 1047.14,-38.2338 1054.61,-36.0148"/>
<polygon fill="midnightblue" stroke="midnightblue" points="697.657,-88.6894 688.045,-93.1471 698.339,-95.6561 697.657,-88.6894"/>
</g>
<!-- Node9 -->
<g id="node9" class="node"><title>Node9</title>
<g id="a_node9"><a xlink:href="../../da/d0b/information_8cpp.xhtml" target="_top" xlink:title="GUI/Gui&#45;RoombaV1.0\l/information.cpp">
<polygon fill="white" stroke="black" points="529,-6 529,-36 639,-36 639,-6 529,-6"/>
<text text-anchor="start" x="537" y="-24" font-family="Helvetica,sans-Serif" font-size="10.00">GUI/Gui&#45;RoombaV1.0</text>
<text text-anchor="middle" x="584" y="-13" font-family="Helvetica,sans-Serif" font-size="10.00">/information.cpp</text>
</a>
</g>
</g>
<!-- Node5&#45;&gt;Node9 -->
<g id="edge8" class="edge"><title>Node5&#45;&gt;Node9</title>
<path fill="none" stroke="midnightblue" d="M618.218,-75.0735C610.072,-62.4375 600.214,-47.1476 593.175,-36.2309"/>
<polygon fill="midnightblue" stroke="midnightblue" points="615.423,-77.197 623.783,-83.705 621.306,-73.4038 615.423,-77.197"/>
</g>
<!-- Node10 -->
<g id="node10" class="node"><title>Node10</title>
<g id="a_node10"><a xlink:href="../../d8/da8/_gui-_roomba_v1_80_2main_8cpp.xhtml" target="_top" xlink:title="GUI/Gui&#45;RoombaV1.0\l/main.cpp">
<polygon fill="white" stroke="black" points="657,-6 657,-36 767,-36 767,-6 657,-6"/>
<text text-anchor="start" x="665" y="-24" font-family="Helvetica,sans-Serif" font-size="10.00">GUI/Gui&#45;RoombaV1.0</text>
<text text-anchor="middle" x="712" y="-13" font-family="Helvetica,sans-Serif" font-size="10.00">/main.cpp</text>
</a>
</g>
</g>
<!-- Node5&#45;&gt;Node10 -->
<g id="edge9" class="edge"><title>Node5&#45;&gt;Node10</title>
<path fill="none" stroke="midnightblue" d="M655.314,-76.5332C668.725,-63.6316 685.419,-47.5716 697.207,-36.2309"/>
<polygon fill="midnightblue" stroke="midnightblue" points="652.639,-74.2497 647.859,-83.705 657.492,-79.2944 652.639,-74.2497"/>
</g>
<!-- Node11 -->
<g id="node11" class="node"><title>Node11</title>
<g id="a_node11"><a xlink:href="../../de/d67/roomba_8cpp.xhtml" target="_top" xlink:title="GUI/Gui&#45;RoombaV1.0\l/roomba.cpp">
<polygon fill="white" stroke="black" points="785,-6 785,-36 895,-36 895,-6 785,-6"/>
<text text-anchor="start" x="793" y="-24" font-family="Helvetica,sans-Serif" font-size="10.00">GUI/Gui&#45;RoombaV1.0</text>
<text text-anchor="middle" x="840" y="-13" font-family="Helvetica,sans-Serif" font-size="10.00">/roomba.cpp</text>
</a>
</g>
</g>
<!-- Node5&#45;&gt;Node11 -->
<g id="edge10" class="edge"><title>Node5&#45;&gt;Node11</title>
<path fill="none" stroke="midnightblue" d="M680.959,-80.3918C717.693,-66.9049 767.689,-48.5488 801.756,-36.0413"/>
<polygon fill="midnightblue" stroke="midnightblue" points="679.631,-77.1509 671.45,-83.8831 682.044,-83.722 679.631,-77.1509"/>
</g>
<!-- Node12 -->
<g id="node12" class="node"><title>Node12</title>
<g id="a_node12"><a xlink:href="../../da/d3b/settingsroomba_8cpp.xhtml" target="_top" xlink:title="GUI/Gui&#45;RoombaV1.0\l/settingsroomba.cpp">
<polygon fill="white" stroke="black" points="913,-6 913,-36 1023,-36 1023,-6 913,-6"/>
<text text-anchor="start" x="921" y="-24" font-family="Helvetica,sans-Serif" font-size="10.00">GUI/Gui&#45;RoombaV1.0</text>
<text text-anchor="middle" x="968" y="-13" font-family="Helvetica,sans-Serif" font-size="10.00">/settingsroomba.cpp</text>
</a>
</g>
</g>
<!-- Node5&#45;&gt;Node12 -->
<g id="edge11" class="edge"><title>Node5&#45;&gt;Node12</title>
<path fill="none" stroke="midnightblue" d="M698.117,-86.4207C753.274,-76.1656 834.274,-60.0515 904,-42 910.874,-40.2203 918.106,-38.1532 925.135,-36.0366"/>
<polygon fill="midnightblue" stroke="midnightblue" points="697.325,-83.0078 688.128,-88.2665 698.597,-89.8912 697.325,-83.0078"/>
</g>
<!-- Node13 -->
<g id="node13" class="node"><title>Node13</title>
<g id="a_node13"><a xlink:href="../../d9/d13/roombagui-build-_desktop___qt__5__0__1___m_s_v_c2010__32bit-_debug_2debug_2moc__roomba_8cpp.xhtml" target="_top" xlink:title="GUI/roombagui&#45;build\l&#45;Desktop_Qt_5_0_1_MSVC2010\l_32bit&#45;Debug/debug/moc_roomba.cpp">
<polygon fill="white" stroke="black" points="204.5,-0.5 204.5,-41.5 385.5,-41.5 385.5,-0.5 204.5,-0.5"/>
<text text-anchor="start" x="212.5" y="-29.5" font-family="Helvetica,sans-Serif" font-size="10.00">GUI/roombagui&#45;build</text>
<text text-anchor="start" x="212.5" y="-18.5" font-family="Helvetica,sans-Serif" font-size="10.00">&#45;Desktop_Qt_5_0_1_MSVC2010</text>
<text text-anchor="middle" x="295" y="-7.5" font-family="Helvetica,sans-Serif" font-size="10.00">_32bit&#45;Debug/debug/moc_roomba.cpp</text>
</a>
</g>
</g>
<!-- Node5&#45;&gt;Node13 -->
<g id="edge12" class="edge"><title>Node5&#45;&gt;Node13</title>
<path fill="none" stroke="midnightblue" d="M579.682,-81.145C575.741,-80.0373 571.816,-78.976 568,-78 558.962,-75.6883 461.702,-55.8314 385.816,-40.4119"/>
<polygon fill="midnightblue" stroke="midnightblue" points="578.88,-84.5563 589.458,-83.9721 580.824,-77.8318 578.88,-84.5563"/>
</g>
<!-- Node18&#45;&gt;Node3 -->
<g id="edge21" class="edge"><title>Node18&#45;&gt;Node3</title>
<path fill="none" stroke="midnightblue" d="M677.757,-233.35C625.085,-220.716 551.803,-203.139 502.057,-191.206"/>
<polygon fill="midnightblue" stroke="midnightblue" points="677.131,-236.8 687.672,-235.729 678.764,-229.993 677.131,-236.8"/>
</g>
<!-- Node19 -->
<g id="node19" class="node"><title>Node19</title>
<g id="a_node19"><a xlink:href="../../d2/d92/bin_2debug_2debug_2moc__display_logs_8cpp.xhtml" target="_top" xlink:title="GUI/bin/debug/debug\l/moc_displayLogs.cpp">
<polygon fill="white" stroke="black" points="686,-162 686,-192 800,-192 800,-162 686,-162"/>
<text text-anchor="start" x="694" y="-180" font-family="Helvetica,sans-Serif" font-size="10.00">GUI/bin/debug/debug</text>
<text text-anchor="middle" x="743" y="-169" font-family="Helvetica,sans-Serif" font-size="10.00">/moc_displayLogs.cpp</text>
</a>
</g>
</g>
<!-- Node18&#45;&gt;Node19 -->
<g id="edge22" class="edge"><title>Node18&#45;&gt;Node19</title>
<path fill="none" stroke="midnightblue" d="M743,-224.898C743,-214.131 743,-201.801 743,-192.486"/>
<polygon fill="midnightblue" stroke="midnightblue" points="739.5,-224.973 743,-234.973 746.5,-224.973 739.5,-224.973"/>
</g>
<!-- Node18&#45;&gt;Node8 -->
<g id="edge23" class="edge"><title>Node18&#45;&gt;Node8</title>
<path fill="none" stroke="midnightblue" d="M808.329,-244.593C881.569,-238.413 994.367,-224.792 1027,-198 1078.49,-155.724 1091.71,-69.8262 1094.97,-36.0714"/>
<polygon fill="midnightblue" stroke="midnightblue" points="807.951,-241.112 798.27,-245.416 808.522,-248.088 807.951,-241.112"/>
</g>
<!-- Node18&#45;&gt;Node16 -->
<g id="edge24" class="edge"><title>Node18&#45;&gt;Node16</title>
<path fill="none" stroke="midnightblue" d="M708.387,-230.096C686.621,-218.209 658.99,-203.118 639.075,-192.241"/>
<polygon fill="midnightblue" stroke="midnightblue" points="706.862,-233.251 717.316,-234.973 710.217,-227.108 706.862,-233.251"/>
</g>
<!-- Node20 -->
<g id="node20" class="node"><title>Node20</title>
<g id="a_node20"><a xlink:href="../../dc/d0b/roombagui-build-_desktop___qt__5__0__1___m_s_v_c2010__32bit-_debug_2debug_2moc__display_logs_8cpp.xhtml" target="_top" xlink:title="GUI/roombagui&#45;build\l&#45;Desktop_Qt_5_0_1_MSVC2010\l_32bit&#45;Debug/debug/moc_displayLogs.cpp">
<polygon fill="white" stroke="black" points="818,-156.5 818,-197.5 1018,-197.5 1018,-156.5 818,-156.5"/>
<text text-anchor="start" x="826" y="-185.5" font-family="Helvetica,sans-Serif" font-size="10.00">GUI/roombagui&#45;build</text>
<text text-anchor="start" x="826" y="-174.5" font-family="Helvetica,sans-Serif" font-size="10.00">&#45;Desktop_Qt_5_0_1_MSVC2010</text>
<text text-anchor="middle" x="918" y="-163.5" font-family="Helvetica,sans-Serif" font-size="10.00">_32bit&#45;Debug/debug/moc_displayLogs.cpp</text>
</a>
</g>
</g>
<!-- Node18&#45;&gt;Node20 -->
<g id="edge25" class="edge"><title>Node18&#45;&gt;Node20</title>
<path fill="none" stroke="midnightblue" d="M786.916,-231.183C812.188,-220.929 843.976,-208.033 869.918,-197.507"/>
<polygon fill="midnightblue" stroke="midnightblue" points="785.525,-227.97 777.574,-234.973 788.157,-234.456 785.525,-227.97"/>
</g>
</g>
</svg>
