<?xml version="1.0" encoding="UTF-8" standalone="no"?>
<!DOCTYPE svg PUBLIC "-//W3C//DTD SVG 1.1//EN"
 "http://www.w3.org/Graphics/SVG/1.1/DTD/svg11.dtd">
<!-- Generated by graphviz version 2.30.1 (20130214.1330)
 -->
<!-- Title: Ui::Controllingroomba Pages: 1 -->
<svg width="124pt" height="304pt"
 viewBox="0.00 0.00 124.00 304.00" xmlns="http://www.w3.org/2000/svg" xmlns:xlink="http://www.w3.org/1999/xlink">
<g id="graph0" class="graph" transform="scale(1 1) rotate(0) translate(4 300)">
<title>Ui::Controllingroomba</title>
<polygon fill="white" stroke="white" points="-4,5 -4,-300 121,-300 121,5 -4,5"/>
<!-- Node1 -->
<g id="node1" class="node"><title>Node1</title>
<polygon fill="#bfbfbf" stroke="black" points="3,-0.5 3,-57.5 113,-57.5 113,-0.5 3,-0.5"/>
<text text-anchor="middle" x="58" y="-45.5" font-family="Helvetica,sans-Serif" font-size="10.00">Ui::Controllingroomba</text>
<polyline fill="none" stroke="black" points="3,-38.5 113,-38.5 "/>
<text text-anchor="middle" x="58" y="-26.5" font-family="Helvetica,sans-Serif" font-size="10.00"> </text>
<polyline fill="none" stroke="black" points="3,-19.5 113,-19.5 "/>
<text text-anchor="middle" x="58" y="-7.5" font-family="Helvetica,sans-Serif" font-size="10.00"> </text>
</g>
<!-- Node2 -->
<g id="node2" class="node"><title>Node2</title>
<g id="a_node2"><a xlink:href="../../d3/d58/class_ui___controllingroomba.xhtml" target="_top" xlink:title="{Ui_Controllingroomba\n|+ pbUpload\l+ cbSideBrush\l+ pbClean\l+ pbResetRoomba\l+ pbDock\l+ pbCleanSpot\l+ cbMainBrush\l+ cbVacuum\l+ pbClose\l+ txtManualcommands\land 17 more...\l|+ setupUi()\l+ retranslateUi()\l+ setupUi()\l+ retranslateUi()\l}">
<polygon fill="white" stroke="black" points="0,-95 0,-295 116,-295 116,-95 0,-95"/>
<text text-anchor="middle" x="58" y="-283" font-family="Helvetica,sans-Serif" font-size="10.00">Ui_Controllingroomba</text>
<polyline fill="none" stroke="black" points="0,-276 116,-276 "/>
<text text-anchor="start" x="8" y="-264" font-family="Helvetica,sans-Serif" font-size="10.00">+ pbUpload</text>
<text text-anchor="start" x="8" y="-253" font-family="Helvetica,sans-Serif" font-size="10.00">+ cbSideBrush</text>
<text text-anchor="start" x="8" y="-242" font-family="Helvetica,sans-Serif" font-size="10.00">+ pbClean</text>
<text text-anchor="start" x="8" y="-231" font-family="Helvetica,sans-Serif" font-size="10.00">+ pbResetRoomba</text>
<text text-anchor="start" x="8" y="-220" font-family="Helvetica,sans-Serif" font-size="10.00">+ pbDock</text>
<text text-anchor="start" x="8" y="-209" font-family="Helvetica,sans-Serif" font-size="10.00">+ pbCleanSpot</text>
<text text-anchor="start" x="8" y="-198" font-family="Helvetica,sans-Serif" font-size="10.00">+ cbMainBrush</text>
<text text-anchor="start" x="8" y="-187" font-family="Helvetica,sans-Serif" font-size="10.00">+ cbVacuum</text>
<text text-anchor="start" x="8" y="-176" font-family="Helvetica,sans-Serif" font-size="10.00">+ pbClose</text>
<text text-anchor="start" x="8" y="-165" font-family="Helvetica,sans-Serif" font-size="10.00">+ txtManualcommands</text>
<text text-anchor="start" x="8" y="-154" font-family="Helvetica,sans-Serif" font-size="10.00">and 17 more...</text>
<polyline fill="none" stroke="black" points="0,-147 116,-147 "/>
<text text-anchor="start" x="8" y="-135" font-family="Helvetica,sans-Serif" font-size="10.00">+ setupUi()</text>
<text text-anchor="start" x="8" y="-124" font-family="Helvetica,sans-Serif" font-size="10.00">+ retranslateUi()</text>
<text text-anchor="start" x="8" y="-113" font-family="Helvetica,sans-Serif" font-size="10.00">+ setupUi()</text>
<text text-anchor="start" x="8" y="-102" font-family="Helvetica,sans-Serif" font-size="10.00">+ retranslateUi()</text>
</a>
</g>
</g>
<!-- Node2&#45;&gt;Node1 -->
<g id="edge1" class="edge"><title>Node2&#45;&gt;Node1</title>
<path fill="none" stroke="midnightblue" d="M51.5929,-84.7468C51.8508,-74.8506 52.2542,-65.552 52.8031,-57.525"/>
<polygon fill="none" stroke="midnightblue" points="48.0922,-84.7465 51.3835,-94.8171 55.0907,-84.8921 48.0922,-84.7465"/>
</g>
<!-- Node2&#45;&gt;Node1 -->
<g id="edge2" class="edge"><title>Node2&#45;&gt;Node1</title>
<path fill="none" stroke="midnightblue" d="M64.4071,-84.7468C64.1492,-74.8506 63.7458,-65.552 63.1969,-57.525"/>
<polygon fill="none" stroke="midnightblue" points="60.9093,-84.8921 64.6165,-94.8171 67.9078,-84.7465 60.9093,-84.8921"/>
</g>
</g>
</svg>
