<?xml version="1.0" encoding="UTF-8" standalone="no"?>
<!DOCTYPE svg PUBLIC "-//W3C//DTD SVG 1.1//EN"
 "http://www.w3.org/Graphics/SVG/1.1/DTD/svg11.dtd">
<!-- Generated by graphviz version 2.30.1 (20130214.1330)
 -->
<!-- Title: GUI/Gui&#45;RoombaV1.0/information.cpp Pages: 1 -->
<!--zoomable 432 -->
<svg id="main" version="1.1" xmlns="http://www.w3.org/2000/svg" xmlns:xlink="http://www.w3.org/1999/xlink" xml:space="preserve" onload="init(evt)">
        <defs>
                <circle id="rim" cx="0" cy="0" r="7"/>
                <circle id="rim2" cx="0" cy="0" r="3.5"/>
                <g id="zoomPlus">
                        <use xlink:href="#rim" fill="#404040">
                                <set attributeName="fill" to="#808080" begin="zoomplus.mouseover" end="zoomplus.mouseout"/>
                        </use>
                        <path d="M-4,0h8M0,-4v8" fill="none" stroke="white" stroke-width="1.5" pointer-events="none"/>
                </g>
                <g id="zoomMin">
                        <use xlink:href="#rim" fill="#404040">
                                <set attributeName="fill" to="#808080" begin="zoomminus.mouseover" end="zoomminus.mouseout"/>
                        </use>
                        <path d="M-4,0h8" fill="none" stroke="white" stroke-width="1.5" pointer-events="none"/>
                </g>
                <g id="dirArrow">
                        <path fill="none" stroke="white" stroke-width="1.5" d="M0,-3.0v7 M-2.5,-0.5L0,-3.0L2.5,-0.5"/>
                </g>
               <g id="resetDef">
                       <use xlink:href="#rim2" fill="#404040">
                               <set attributeName="fill" to="#808080" begin="reset.mouseover" end="reset.mouseout"/>
                       </use>
               </g>
        </defs>

<script type="text/javascript">
var viewWidth = 2930;
var viewHeight = 432;
var sectionId = 'dynsection-0';
</script>
<script xlink:href="../../svgpan.js"/>
<svg id="graph" class="graph">
<g id="viewport">
<title>GUI/Gui&#45;RoombaV1.0/information.cpp</title>
<polygon fill="white" stroke="white" points="-4,5 -4,-428 2927,-428 2927,5 -4,5"/>
<!-- Node1 -->
<g id="node1" class="node"><title>Node1</title>
<polygon fill="#bfbfbf" stroke="black" points="509,-393 509,-423 619,-423 619,-393 509,-393"/>
<text text-anchor="start" x="517" y="-411" font-family="Helvetica,sans-Serif" font-size="10.00">GUI/Gui&#45;RoombaV1.0</text>
<text text-anchor="middle" x="564" y="-400" font-family="Helvetica,sans-Serif" font-size="10.00">/information.cpp</text>
</g>
<!-- Node2 -->
<g id="node2" class="node"><title>Node2</title>
<g id="a_node2"><a xlink:href="../../db/d3a/information_8h.xhtml" target="_top" xlink:title="information.h">
<polygon fill="white" stroke="black" points="195,-336.5 195,-355.5 267,-355.5 267,-336.5 195,-336.5"/>
<text text-anchor="middle" x="231" y="-343.5" font-family="Helvetica,sans-Serif" font-size="10.00">information.h</text>
</a>
</g>
</g>
<!-- Node1&#45;&gt;Node2 -->
<g id="edge1" class="edge"><title>Node1&#45;&gt;Node2</title>
<path fill="none" stroke="midnightblue" d="M508.638,-397.025C443.952,-385.37 338.078,-366.293 277.477,-355.374"/>
<polygon fill="midnightblue" stroke="midnightblue" points="277.893,-351.893 267.431,-353.564 276.652,-358.782 277.893,-351.893"/>
</g>
<!-- Node4 -->
<g id="node4" class="node"><title>Node4</title>
<g id="a_node4"><a xlink:href="../../db/d61/ui__information_8h.xhtml" target="_top" xlink:title="ui_information.h">
<polygon fill="white" stroke="black" points="2125.5,-336.5 2125.5,-355.5 2210.5,-355.5 2210.5,-336.5 2125.5,-336.5"/>
<text text-anchor="middle" x="2168" y="-343.5" font-family="Helvetica,sans-Serif" font-size="10.00">ui_information.h</text>
</a>
</g>
</g>
<!-- Node1&#45;&gt;Node4 -->
<g id="edge3" class="edge"><title>Node1&#45;&gt;Node4</title>
<path fill="none" stroke="midnightblue" d="M619.213,-404.935C866.732,-395.676 1872.61,-358.05 2115.18,-348.976"/>
<polygon fill="midnightblue" stroke="midnightblue" points="2115.62,-352.462 2125.48,-348.59 2115.36,-345.467 2115.62,-352.462"/>
</g>
<!-- Node16 -->
<g id="node16" class="node"><title>Node16</title>
<g id="a_node16"><a xlink:href="../../dd/da1/roomba_8h.xhtml" target="_top" xlink:title="roomba.h">
<polygon fill="white" stroke="black" points="535.5,-336.5 535.5,-355.5 592.5,-355.5 592.5,-336.5 535.5,-336.5"/>
<text text-anchor="middle" x="564" y="-343.5" font-family="Helvetica,sans-Serif" font-size="10.00">roomba.h</text>
</a>
</g>
</g>
<!-- Node1&#45;&gt;Node16 -->
<g id="edge15" class="edge"><title>Node1&#45;&gt;Node16</title>
<path fill="none" stroke="midnightblue" d="M564,-392.781C564,-384.781 564,-374.689 564,-366.017"/>
<polygon fill="midnightblue" stroke="midnightblue" points="567.5,-365.73 564,-355.731 560.5,-365.731 567.5,-365.73"/>
</g>
<!-- Node3 -->
<g id="node3" class="node"><title>Node3</title>
<polygon fill="white" stroke="#bfbfbf" points="128.5,-224.5 128.5,-243.5 183.5,-243.5 183.5,-224.5 128.5,-224.5"/>
<text text-anchor="middle" x="156" y="-231.5" font-family="Helvetica,sans-Serif" font-size="10.00">QWidget</text>
</g>
<!-- Node2&#45;&gt;Node3 -->
<g id="edge2" class="edge"><title>Node2&#45;&gt;Node3</title>
<path fill="none" stroke="midnightblue" d="M194.784,-340.819C148.888,-334.689 73.7147,-321.587 57,-300 36.4042,-273.4 82.5754,-254.25 118.581,-243.893"/>
<polygon fill="midnightblue" stroke="midnightblue" points="119.681,-247.221 128.403,-241.206 117.834,-240.469 119.681,-247.221"/>
</g>
<!-- Node5 -->
<g id="node5" class="node"><title>Node5</title>
<polygon fill="white" stroke="#bfbfbf" points="2714.5,-280.5 2714.5,-299.5 2803.5,-299.5 2803.5,-280.5 2714.5,-280.5"/>
<text text-anchor="middle" x="2759" y="-287.5" font-family="Helvetica,sans-Serif" font-size="10.00">QtCore/QVariant</text>
</g>
<!-- Node4&#45;&gt;Node5 -->
<g id="edge4" class="edge"><title>Node4&#45;&gt;Node5</title>
<path fill="none" stroke="midnightblue" d="M2210.59,-342.615C2299.99,-337.354 2513.96,-323.423 2704.07,-300.012"/>
<polygon fill="midnightblue" stroke="midnightblue" points="2704.76,-303.454 2714.25,-298.747 2703.9,-296.507 2704.76,-303.454"/>
</g>
<!-- Node6 -->
<g id="node6" class="node"><title>Node6</title>
<polygon fill="white" stroke="#bfbfbf" points="2821.5,-280.5 2821.5,-299.5 2922.5,-299.5 2922.5,-280.5 2821.5,-280.5"/>
<text text-anchor="middle" x="2872" y="-287.5" font-family="Helvetica,sans-Serif" font-size="10.00">QtWidgets/QAction</text>
</g>
<!-- Node4&#45;&gt;Node6 -->
<g id="edge5" class="edge"><title>Node4&#45;&gt;Node6</title>
<path fill="none" stroke="midnightblue" d="M2210.68,-343.187C2312.62,-338.607 2578.45,-325.181 2811.29,-299.986"/>
<polygon fill="midnightblue" stroke="midnightblue" points="2811.74,-303.458 2821.3,-298.894 2810.98,-296.499 2811.74,-303.458"/>
</g>
<!-- Node7 -->
<g id="node7" class="node"><title>Node7</title>
<polygon fill="white" stroke="#bfbfbf" points="1493,-280.5 1493,-299.5 1615,-299.5 1615,-280.5 1493,-280.5"/>
<text text-anchor="middle" x="1554" y="-287.5" font-family="Helvetica,sans-Serif" font-size="10.00">QtWidgets/QApplication</text>
</g>
<!-- Node4&#45;&gt;Node7 -->
<g id="edge6" class="edge"><title>Node4&#45;&gt;Node7</title>
<path fill="none" stroke="midnightblue" d="M2125.27,-342.127C2034.98,-335.915 1817.95,-320.227 1625.1,-300.072"/>
<polygon fill="midnightblue" stroke="midnightblue" points="1625.38,-296.582 1615.06,-299.017 1624.64,-303.543 1625.38,-296.582"/>
</g>
<!-- Node8 -->
<g id="node8" class="node"><title>Node8</title>
<polygon fill="white" stroke="#bfbfbf" points="1633,-280.5 1633,-299.5 1761,-299.5 1761,-280.5 1633,-280.5"/>
<text text-anchor="middle" x="1697" y="-287.5" font-family="Helvetica,sans-Serif" font-size="10.00">QtWidgets/QButtonGroup</text>
</g>
<!-- Node4&#45;&gt;Node8 -->
<g id="edge7" class="edge"><title>Node4&#45;&gt;Node8</title>
<path fill="none" stroke="midnightblue" d="M2125.28,-340.313C2054.17,-332.479 1906.74,-316.106 1771.24,-300.137"/>
<polygon fill="midnightblue" stroke="midnightblue" points="1771.43,-296.635 1761.09,-298.939 1770.61,-303.587 1771.43,-296.635"/>
</g>
<!-- Node9 -->
<g id="node9" class="node"><title>Node9</title>
<polygon fill="white" stroke="#bfbfbf" points="1779.5,-280.5 1779.5,-299.5 1898.5,-299.5 1898.5,-280.5 1779.5,-280.5"/>
<text text-anchor="middle" x="1839" y="-287.5" font-family="Helvetica,sans-Serif" font-size="10.00">QtWidgets/QCheckBox</text>
</g>
<!-- Node4&#45;&gt;Node9 -->
<g id="edge8" class="edge"><title>Node4&#45;&gt;Node9</title>
<path fill="none" stroke="midnightblue" d="M2125.33,-337.996C2068.22,-328.623 1966.56,-311.937 1901.01,-301.177"/>
<polygon fill="midnightblue" stroke="midnightblue" points="1901.24,-297.669 1890.81,-299.503 1900.11,-304.577 1901.24,-297.669"/>
</g>
<!-- Node10 -->
<g id="node10" class="node"><title>Node10</title>
<polygon fill="white" stroke="#bfbfbf" points="1916.5,-280.5 1916.5,-299.5 2041.5,-299.5 2041.5,-280.5 1916.5,-280.5"/>
<text text-anchor="middle" x="1979" y="-287.5" font-family="Helvetica,sans-Serif" font-size="10.00">QtWidgets/QHeaderView</text>
</g>
<!-- Node4&#45;&gt;Node10 -->
<g id="edge9" class="edge"><title>Node4&#45;&gt;Node10</title>
<path fill="none" stroke="midnightblue" d="M2138.05,-336.444C2105.84,-327.241 2054.47,-312.562 2018.86,-302.388"/>
<polygon fill="midnightblue" stroke="midnightblue" points="2019.38,-298.898 2008.81,-299.516 2017.46,-305.629 2019.38,-298.898"/>
</g>
<!-- Node11 -->
<g id="node11" class="node"><title>Node11</title>
<polygon fill="white" stroke="#bfbfbf" points="2059.5,-280.5 2059.5,-299.5 2156.5,-299.5 2156.5,-280.5 2059.5,-280.5"/>
<text text-anchor="middle" x="2108" y="-287.5" font-family="Helvetica,sans-Serif" font-size="10.00">QtWidgets/QLabel</text>
</g>
<!-- Node4&#45;&gt;Node11 -->
<g id="edge10" class="edge"><title>Node4&#45;&gt;Node11</title>
<path fill="none" stroke="midnightblue" d="M2158.36,-336.324C2149.49,-328.341 2136.13,-316.313 2125.39,-306.653"/>
<polygon fill="midnightblue" stroke="midnightblue" points="2127.59,-303.922 2117.82,-299.834 2122.91,-309.125 2127.59,-303.922"/>
</g>
<!-- Node12 -->
<g id="node12" class="node"><title>Node12</title>
<polygon fill="white" stroke="#bfbfbf" points="2174.5,-280.5 2174.5,-299.5 2283.5,-299.5 2283.5,-280.5 2174.5,-280.5"/>
<text text-anchor="middle" x="2229" y="-287.5" font-family="Helvetica,sans-Serif" font-size="10.00">QtWidgets/QLineEdit</text>
</g>
<!-- Node4&#45;&gt;Node12 -->
<g id="edge11" class="edge"><title>Node4&#45;&gt;Node12</title>
<path fill="none" stroke="midnightblue" d="M2177.8,-336.324C2186.82,-328.341 2200.41,-316.313 2211.32,-306.653"/>
<polygon fill="midnightblue" stroke="midnightblue" points="2213.85,-309.083 2219.02,-299.834 2209.21,-303.842 2213.85,-309.083"/>
</g>
<!-- Node13 -->
<g id="node13" class="node"><title>Node13</title>
<polygon fill="white" stroke="#bfbfbf" points="2302,-280.5 2302,-299.5 2430,-299.5 2430,-280.5 2302,-280.5"/>
<text text-anchor="middle" x="2366" y="-287.5" font-family="Helvetica,sans-Serif" font-size="10.00">QtWidgets/QProgressBar</text>
</g>
<!-- Node4&#45;&gt;Node13 -->
<g id="edge12" class="edge"><title>Node4&#45;&gt;Node13</title>
<path fill="none" stroke="midnightblue" d="M2199.37,-336.444C2233.26,-327.201 2287.4,-312.436 2324.72,-302.257"/>
<polygon fill="midnightblue" stroke="midnightblue" points="2326.05,-305.524 2334.77,-299.516 2324.2,-298.771 2326.05,-305.524"/>
</g>
<!-- Node14 -->
<g id="node14" class="node"><title>Node14</title>
<polygon fill="white" stroke="#bfbfbf" points="2448.5,-280.5 2448.5,-299.5 2573.5,-299.5 2573.5,-280.5 2448.5,-280.5"/>
<text text-anchor="middle" x="2511" y="-287.5" font-family="Helvetica,sans-Serif" font-size="10.00">QtWidgets/QPushButton</text>
</g>
<!-- Node4&#45;&gt;Node14 -->
<g id="edge13" class="edge"><title>Node4&#45;&gt;Node14</title>
<path fill="none" stroke="midnightblue" d="M2210.75,-338.27C2270.14,-328.919 2378.09,-311.925 2447.08,-301.063"/>
<polygon fill="midnightblue" stroke="midnightblue" points="2447.63,-304.52 2456.97,-299.507 2446.54,-297.605 2447.63,-304.52"/>
</g>
<!-- Node15 -->
<g id="node15" class="node"><title>Node15</title>
<polygon fill="white" stroke="#bfbfbf" points="2592,-280.5 2592,-299.5 2696,-299.5 2696,-280.5 2592,-280.5"/>
<text text-anchor="middle" x="2644" y="-287.5" font-family="Helvetica,sans-Serif" font-size="10.00">QtWidgets/QWidget</text>
</g>
<!-- Node4&#45;&gt;Node15 -->
<g id="edge14" class="edge"><title>Node4&#45;&gt;Node15</title>
<path fill="none" stroke="midnightblue" d="M2210.67,-340.872C2285.82,-333.488 2446.62,-317.178 2582,-300 2582.1,-299.987 2582.2,-299.974 2582.3,-299.961"/>
<polygon fill="midnightblue" stroke="midnightblue" points="2582.46,-303.47 2591.92,-298.698 2581.55,-296.53 2582.46,-303.47"/>
</g>
<!-- Node17 -->
<g id="node17" class="node"><title>Node17</title>
<polygon fill="white" stroke="#bfbfbf" points="399,-56.5 399,-75.5 449,-75.5 449,-56.5 399,-56.5"/>
<text text-anchor="middle" x="424" y="-63.5" font-family="Helvetica,sans-Serif" font-size="10.00">QString</text>
</g>
<!-- Node16&#45;&gt;Node17 -->
<g id="edge16" class="edge"><title>Node16&#45;&gt;Node17</title>
<path fill="none" stroke="midnightblue" d="M535.221,-343.574C443.708,-338.321 162.844,-316.432 119,-244 53.0632,-135.07 295.583,-86.3077 388.877,-71.8481"/>
<polygon fill="midnightblue" stroke="midnightblue" points="389.605,-75.278 398.973,-70.3277 388.563,-68.3561 389.605,-75.278"/>
</g>
<!-- Node18 -->
<g id="node18" class="node"><title>Node18</title>
<polygon fill="white" stroke="#bfbfbf" points="1035,-0.5 1035,-19.5 1087,-19.5 1087,-0.5 1035,-0.5"/>
<text text-anchor="middle" x="1061" y="-7.5" font-family="Helvetica,sans-Serif" font-size="10.00">QDebug</text>
</g>
<!-- Node16&#45;&gt;Node18 -->
<g id="edge17" class="edge"><title>Node16&#45;&gt;Node18</title>
<path fill="none" stroke="midnightblue" d="M592.619,-344.104C697.823,-340.623 1062.88,-326.84 1176,-300 1249.48,-282.565 1333,-310.522 1333,-235 1333,-235 1333,-235 1333,-121 1333,-70.6479 1170.78,-32.4625 1096.89,-17.6819"/>
<polygon fill="midnightblue" stroke="midnightblue" points="1097.57,-14.2475 1087.08,-15.7528 1096.22,-21.1161 1097.57,-14.2475"/>
</g>
<!-- Node19 -->
<g id="node19" class="node"><title>Node19</title>
<polygon fill="white" stroke="#bfbfbf" points="392.5,-168.5 392.5,-187.5 439.5,-187.5 439.5,-168.5 392.5,-168.5"/>
<text text-anchor="middle" x="416" y="-175.5" font-family="Helvetica,sans-Serif" font-size="10.00">QtCore</text>
</g>
<!-- Node16&#45;&gt;Node19 -->
<g id="edge18" class="edge"><title>Node16&#45;&gt;Node19</title>
<path fill="none" stroke="midnightblue" d="M535.459,-341.667C508.532,-336.998 468.966,-325.935 446,-300 420.378,-271.065 415.904,-223.621 415.541,-197.569"/>
<polygon fill="midnightblue" stroke="midnightblue" points="419.041,-197.557 415.595,-187.538 412.042,-197.519 419.041,-197.557"/>
</g>
<!-- Node20 -->
<g id="node20" class="node"><title>Node20</title>
<polygon fill="white" stroke="#bfbfbf" points="1361,-280.5 1361,-299.5 1403,-299.5 1403,-280.5 1361,-280.5"/>
<text text-anchor="middle" x="1382" y="-287.5" font-family="Helvetica,sans-Serif" font-size="10.00">vector</text>
</g>
<!-- Node16&#45;&gt;Node20 -->
<g id="edge19" class="edge"><title>Node16&#45;&gt;Node20</title>
<path fill="none" stroke="midnightblue" d="M592.653,-345.352C695.445,-346.192 1055.05,-345.483 1347,-300 1348.26,-299.804 1349.53,-299.583 1350.82,-299.342"/>
<polygon fill="midnightblue" stroke="midnightblue" points="1351.65,-302.744 1360.67,-297.187 1350.15,-295.906 1351.65,-302.744"/>
</g>
<!-- Node21 -->
<g id="node21" class="node"><title>Node21</title>
<polygon fill="white" stroke="#bfbfbf" points="1421.5,-280.5 1421.5,-299.5 1474.5,-299.5 1474.5,-280.5 1421.5,-280.5"/>
<text text-anchor="middle" x="1448" y="-287.5" font-family="Helvetica,sans-Serif" font-size="10.00">QVector</text>
</g>
<!-- Node16&#45;&gt;Node21 -->
<g id="edge20" class="edge"><title>Node16&#45;&gt;Node21</title>
<path fill="none" stroke="midnightblue" d="M592.75,-345.464C699.803,-346.778 1085.42,-347.799 1411.27,-299.769"/>
<polygon fill="midnightblue" stroke="midnightblue" points="1412,-303.198 1421.38,-298.26 1410.97,-296.275 1412,-303.198"/>
</g>
<!-- Node22 -->
<g id="node22" class="node"><title>Node22</title>
<polygon fill="white" stroke="#bfbfbf" points="1157,-112.5 1157,-131.5 1231,-131.5 1231,-112.5 1157,-112.5"/>
<text text-anchor="middle" x="1194" y="-119.5" font-family="Helvetica,sans-Serif" font-size="10.00">QVariantMap</text>
</g>
<!-- Node16&#45;&gt;Node22 -->
<g id="edge21" class="edge"><title>Node16&#45;&gt;Node22</title>
<path fill="none" stroke="midnightblue" d="M592.7,-338.918C632.541,-330.433 706.838,-314.455 770,-300 978.483,-252.287 1105.53,-355.911 1238,-188 1251.06,-171.451 1232.27,-151.169 1215.35,-137.707"/>
<polygon fill="midnightblue" stroke="midnightblue" points="1217.45,-134.901 1207.35,-131.693 1213.24,-140.498 1217.45,-134.901"/>
</g>
<!-- Node23 -->
<g id="node23" class="node"><title>Node23</title>
<polygon fill="white" stroke="#bfbfbf" points="160,-0.5 160,-19.5 214,-19.5 214,-0.5 160,-0.5"/>
<text text-anchor="middle" x="187" y="-7.5" font-family="Helvetica,sans-Serif" font-size="10.00">iostream</text>
</g>
<!-- Node16&#45;&gt;Node23 -->
<g id="edge22" class="edge"><title>Node16&#45;&gt;Node23</title>
<path fill="none" stroke="midnightblue" d="M535.261,-343.696C434.315,-338.945 99.7474,-321.698 57,-300 22.7379,-282.609 0,-273.423 0,-235 0,-235 0,-235 0,-121 0,-52.176 95.2689,-25.5597 149.808,-15.9614"/>
<polygon fill="midnightblue" stroke="midnightblue" points="150.512,-19.3926 159.809,-14.3109 149.372,-12.486 150.512,-19.3926"/>
</g>
<!-- Node24 -->
<g id="node24" class="node"><title>Node24</title>
<polygon fill="white" stroke="#bfbfbf" points="66,-280.5 66,-299.5 146,-299.5 146,-280.5 66,-280.5"/>
<text text-anchor="middle" x="106" y="-287.5" font-family="Helvetica,sans-Serif" font-size="10.00">QMainWindow</text>
</g>
<!-- Node16&#45;&gt;Node24 -->
<g id="edge23" class="edge"><title>Node16&#45;&gt;Node24</title>
<path fill="none" stroke="midnightblue" d="M535.03,-342.317C468.586,-336.046 300.152,-319.47 160,-300 158.729,-299.823 157.442,-299.64 156.144,-299.452"/>
<polygon fill="midnightblue" stroke="midnightblue" points="156.479,-295.963 146.068,-297.926 155.431,-302.884 156.479,-295.963"/>
</g>
<!-- Node25 -->
<g id="node25" class="node"><title>Node25</title>
<polygon fill="white" stroke="#bfbfbf" points="839.5,-56.5 839.5,-75.5 892.5,-75.5 892.5,-56.5 839.5,-56.5"/>
<text text-anchor="middle" x="866" y="-63.5" font-family="Helvetica,sans-Serif" font-size="10.00">QObject</text>
</g>
<!-- Node16&#45;&gt;Node25 -->
<g id="edge24" class="edge"><title>Node16&#45;&gt;Node25</title>
<path fill="none" stroke="midnightblue" d="M592.656,-343.769C727.807,-337.59 1295,-307.351 1295,-235 1295,-235 1295,-235 1295,-177 1295,-139.157 1273.32,-129.948 1240,-112 1182.22,-80.8739 985.161,-70.894 902.724,-68.0349"/>
<polygon fill="midnightblue" stroke="midnightblue" points="902.677,-64.5315 892.566,-67.6988 902.445,-71.5277 902.677,-64.5315"/>
</g>
<!-- Node26 -->
<g id="node26" class="node"><title>Node26</title>
<g id="a_node26"><a xlink:href="../../d4/dca/_roomba_connect_8h.xhtml" target="_top" xlink:title="RoombaConnect.h">
<polygon fill="white" stroke="black" points="695.5,-224.5 695.5,-243.5 792.5,-243.5 792.5,-224.5 695.5,-224.5"/>
<text text-anchor="middle" x="744" y="-231.5" font-family="Helvetica,sans-Serif" font-size="10.00">RoombaConnect.h</text>
</a>
</g>
</g>
<!-- Node16&#45;&gt;Node26 -->
<g id="edge25" class="edge"><title>Node16&#45;&gt;Node26</title>
<path fill="none" stroke="midnightblue" d="M578.124,-336.368C609.144,-317.412 683.454,-272.001 721.185,-248.942"/>
<polygon fill="midnightblue" stroke="midnightblue" points="723.234,-251.792 729.941,-243.591 719.583,-245.819 723.234,-251.792"/>
</g>
<!-- Node40 -->
<g id="node40" class="node"><title>Node40</title>
<g id="a_node40"><a xlink:href="../../da/d4b/controllingroomba_8h.xhtml" target="_top" xlink:title="controllingroomba.h">
<polygon fill="white" stroke="black" points="455.5,-280.5 455.5,-299.5 556.5,-299.5 556.5,-280.5 455.5,-280.5"/>
<text text-anchor="middle" x="506" y="-287.5" font-family="Helvetica,sans-Serif" font-size="10.00">controllingroomba.h</text>
</a>
</g>
</g>
<!-- Node16&#45;&gt;Node40 -->
<g id="edge56" class="edge"><title>Node16&#45;&gt;Node40</title>
<path fill="none" stroke="midnightblue" d="M554.681,-336.324C546.107,-328.341 533.188,-316.313 522.812,-306.653"/>
<polygon fill="midnightblue" stroke="midnightblue" points="525.192,-304.086 515.488,-299.834 520.422,-309.21 525.192,-304.086"/>
</g>
<!-- Node39 -->
<g id="node39" class="node"><title>Node39</title>
<g id="a_node39"><a xlink:href="../../d4/d25/sensordata_8h.xhtml" target="_top" xlink:title="sensordata.h">
<polygon fill="white" stroke="black" points="585.5,-168.5 585.5,-187.5 658.5,-187.5 658.5,-168.5 585.5,-168.5"/>
<text text-anchor="middle" x="622" y="-175.5" font-family="Helvetica,sans-Serif" font-size="10.00">sensordata.h</text>
</a>
</g>
</g>
<!-- Node16&#45;&gt;Node39 -->
<g id="edge66" class="edge"><title>Node16&#45;&gt;Node39</title>
<path fill="none" stroke="midnightblue" d="M567.118,-336.075C576.288,-309.832 603.291,-232.545 615.67,-197.117"/>
<polygon fill="midnightblue" stroke="midnightblue" points="619.012,-198.163 619.006,-187.568 612.404,-195.854 619.012,-198.163"/>
</g>
<!-- Node35 -->
<g id="node35" class="node"><title>Node35</title>
<g id="a_node35"><a xlink:href="../../dc/d96/jsoncommand_8h.xhtml" target="_top" xlink:title="../resources/jsoncommand.h">
<polygon fill="white" stroke="black" points="1089,-168.5 1089,-187.5 1229,-187.5 1229,-168.5 1089,-168.5"/>
<text text-anchor="middle" x="1159" y="-175.5" font-family="Helvetica,sans-Serif" font-size="10.00">../resources/jsoncommand.h</text>
</a>
</g>
</g>
<!-- Node16&#45;&gt;Node35 -->
<g id="edge67" class="edge"><title>Node16&#45;&gt;Node35</title>
<path fill="none" stroke="midnightblue" d="M592.698,-336.993C689.72,-309.925 1005.71,-221.768 1118.52,-190.294"/>
<polygon fill="midnightblue" stroke="midnightblue" points="1119.78,-193.574 1128.48,-187.516 1117.9,-186.832 1119.78,-193.574"/>
</g>
<!-- Node36 -->
<g id="node36" class="node"><title>Node36</title>
<g id="a_node36"><a xlink:href="../../d4/d05/json_8h.xhtml" target="_top" xlink:title="json.h">
<polygon fill="white" stroke="black" points="615.5,-112.5 615.5,-131.5 658.5,-131.5 658.5,-112.5 615.5,-112.5"/>
<text text-anchor="middle" x="637" y="-119.5" font-family="Helvetica,sans-Serif" font-size="10.00">json.h</text>
</a>
</g>
</g>
<!-- Node16&#45;&gt;Node36 -->
<g id="edge68" class="edge"><title>Node16&#45;&gt;Node36</title>
<path fill="none" stroke="midnightblue" d="M535.422,-342.421C505.397,-338.283 458.516,-327.575 429,-300 383.603,-257.587 342.722,-215.302 383,-168 413.827,-131.797 542.408,-141.765 605.506,-131.542"/>
<polygon fill="midnightblue" stroke="midnightblue" points="606.25,-134.963 615.408,-129.635 604.926,-128.089 606.25,-134.963"/>
</g>
<!-- Node30 -->
<g id="node30" class="node"><title>Node30</title>
<g id="a_node30"><a xlink:href="../../d7/d62/clslog_8h.xhtml" target="_top" xlink:title="../resources/clslog.h">
<polygon fill="white" stroke="black" points="467.5,-56.5 467.5,-75.5 572.5,-75.5 572.5,-56.5 467.5,-56.5"/>
<text text-anchor="middle" x="520" y="-63.5" font-family="Helvetica,sans-Serif" font-size="10.00">../resources/clslog.h</text>
</a>
</g>
</g>
<!-- Node16&#45;&gt;Node30 -->
<g id="edge69" class="edge"><title>Node16&#45;&gt;Node30</title>
<path fill="none" stroke="midnightblue" d="M535.068,-343.625C468.021,-339.986 304.222,-328.369 258,-300 227.837,-281.487 212,-270.391 212,-235 212,-235 212,-235 212,-177 212,-125.402 367.238,-91.6253 457.294,-76.3719"/>
<polygon fill="midnightblue" stroke="midnightblue" points="458.112,-79.7839 467.403,-74.6909 456.964,-72.8787 458.112,-79.7839"/>
</g>
<!-- Node38 -->
<g id="node38" class="node"><title>Node38</title>
<g id="a_node38"><a xlink:href="../../db/d97/clsevent_8h.xhtml" target="_top" xlink:title="../resources/clsevent.h">
<polygon fill="white" stroke="black" points="482.5,-112.5 482.5,-131.5 597.5,-131.5 597.5,-112.5 482.5,-112.5"/>
<text text-anchor="middle" x="540" y="-119.5" font-family="Helvetica,sans-Serif" font-size="10.00">../resources/clsevent.h</text>
</a>
</g>
</g>
<!-- Node16&#45;&gt;Node38 -->
<g id="edge70" class="edge"><title>Node16&#45;&gt;Node38</title>
<path fill="none" stroke="midnightblue" d="M535.203,-345.054C468.685,-344.504 307.481,-339.077 274,-300 234.279,-253.64 261.093,-201.698 312,-168 337.867,-150.878 414.919,-138.089 472.334,-130.606"/>
<polygon fill="midnightblue" stroke="midnightblue" points="472.972,-134.053 482.448,-129.315 472.086,-127.109 472.972,-134.053"/>
</g>
<!-- Node26&#45;&gt;Node18 -->
<g id="edge26" class="edge"><title>Node26&#45;&gt;Node18</title>
<path fill="none" stroke="midnightblue" d="M792.516,-224.717C794.027,-224.473 795.525,-224.234 797,-224 851.352,-215.393 1003.85,-227.662 1042,-188 1083.37,-144.986 1073.14,-66.1551 1065.61,-30.0145"/>
<polygon fill="midnightblue" stroke="midnightblue" points="1068.94,-28.8685 1063.34,-19.8802 1062.12,-30.4045 1068.94,-28.8685"/>
</g>
<!-- Node26&#45;&gt;Node19 -->
<g id="edge27" class="edge"><title>Node26&#45;&gt;Node19</title>
<path fill="none" stroke="midnightblue" d="M695.249,-224.974C627.881,-213.883 508.047,-194.154 449.739,-184.555"/>
<polygon fill="midnightblue" stroke="midnightblue" points="450.029,-181.055 439.594,-182.884 448.892,-187.962 450.029,-181.055"/>
</g>
<!-- Node26&#45;&gt;Node25 -->
<g id="edge28" class="edge"><title>Node26&#45;&gt;Node25</title>
<path fill="none" stroke="midnightblue" d="M750.559,-224.075C770.096,-197.493 828.123,-118.538 853.68,-83.7633"/>
<polygon fill="midnightblue" stroke="midnightblue" points="856.601,-85.6987 859.703,-75.5681 850.961,-81.5533 856.601,-85.6987"/>
</g>
<!-- Node27 -->
<g id="node27" class="node"><title>Node27</title>
<polygon fill="white" stroke="#bfbfbf" points="496.5,-168.5 496.5,-187.5 567.5,-187.5 567.5,-168.5 496.5,-168.5"/>
<text text-anchor="middle" x="532" y="-175.5" font-family="Helvetica,sans-Serif" font-size="10.00">QTcpSocket</text>
</g>
<!-- Node26&#45;&gt;Node27 -->
<g id="edge29" class="edge"><title>Node26&#45;&gt;Node27</title>
<path fill="none" stroke="midnightblue" d="M710.408,-224.444C673.813,-215.122 615.162,-200.183 575.174,-189.997"/>
<polygon fill="midnightblue" stroke="midnightblue" points="575.989,-186.593 565.435,-187.516 574.261,-193.377 575.989,-186.593"/>
</g>
<!-- Node28 -->
<g id="node28" class="node"><title>Node28</title>
<polygon fill="white" stroke="#bfbfbf" points="959,-168.5 959,-187.5 1033,-187.5 1033,-168.5 959,-168.5"/>
<text text-anchor="middle" x="996" y="-175.5" font-family="Helvetica,sans-Serif" font-size="10.00">QTextStream</text>
</g>
<!-- Node26&#45;&gt;Node28 -->
<g id="edge30" class="edge"><title>Node26&#45;&gt;Node28</title>
<path fill="none" stroke="midnightblue" d="M783.93,-224.444C828.667,-214.857 901.132,-199.329 948.678,-189.14"/>
<polygon fill="midnightblue" stroke="midnightblue" points="949.677,-192.506 958.721,-186.988 948.21,-185.661 949.677,-192.506"/>
</g>
<!-- Node29 -->
<g id="node29" class="node"><title>Node29</title>
<polygon fill="white" stroke="#bfbfbf" points="829.5,-168.5 829.5,-187.5 874.5,-187.5 874.5,-168.5 829.5,-168.5"/>
<text text-anchor="middle" x="852" y="-175.5" font-family="Helvetica,sans-Serif" font-size="10.00">QTime</text>
</g>
<!-- Node26&#45;&gt;Node29 -->
<g id="edge31" class="edge"><title>Node26&#45;&gt;Node29</title>
<path fill="none" stroke="midnightblue" d="M761.352,-224.324C778.672,-215.664 805.515,-202.242 825.502,-192.249"/>
<polygon fill="midnightblue" stroke="midnightblue" points="827.312,-195.257 834.691,-187.655 824.181,-188.996 827.312,-195.257"/>
</g>
<!-- Node26&#45;&gt;Node30 -->
<g id="edge32" class="edge"><title>Node26&#45;&gt;Node30</title>
<path fill="none" stroke="midnightblue" d="M742.752,-224.449C740.564,-211.467 735.165,-186.36 724,-168 705.547,-137.656 697.519,-130.162 667,-112 639.61,-95.7003 605.786,-84.8154 577.49,-77.8404"/>
<polygon fill="midnightblue" stroke="midnightblue" points="578.269,-74.4281 567.732,-75.5338 576.659,-81.2403 578.269,-74.4281"/>
</g>
<!-- Node34 -->
<g id="node34" class="node"><title>Node34</title>
<polygon fill="white" stroke="#bfbfbf" points="893,-168.5 893,-187.5 941,-187.5 941,-168.5 893,-168.5"/>
<text text-anchor="middle" x="917" y="-175.5" font-family="Helvetica,sans-Serif" font-size="10.00">QTimer</text>
</g>
<!-- Node26&#45;&gt;Node34 -->
<g id="edge38" class="edge"><title>Node26&#45;&gt;Node34</title>
<path fill="none" stroke="midnightblue" d="M771.412,-224.444C801.719,-214.984 850.563,-199.738 883.212,-189.546"/>
<polygon fill="midnightblue" stroke="midnightblue" points="884.284,-192.879 892.786,-186.558 882.198,-186.197 884.284,-192.879"/>
</g>
<!-- Node26&#45;&gt;Node35 -->
<g id="edge39" class="edge"><title>Node26&#45;&gt;Node35</title>
<path fill="none" stroke="midnightblue" d="M792.826,-226.647C864.579,-217.31 999.123,-199.803 1083.62,-188.808"/>
<polygon fill="midnightblue" stroke="midnightblue" points="1084.21,-192.262 1093.67,-187.501 1083.3,-185.32 1084.21,-192.262"/>
</g>
<!-- Node26&#45;&gt;Node36 -->
<g id="edge46" class="edge"><title>Node26&#45;&gt;Node36</title>
<path fill="none" stroke="midnightblue" d="M739.601,-224.273C732.657,-211.062 718.164,-185.658 701,-168 689.268,-155.93 673.898,-145.001 661.16,-136.937"/>
<polygon fill="midnightblue" stroke="midnightblue" points="662.796,-133.834 652.44,-131.595 659.14,-139.803 662.796,-133.834"/>
</g>
<!-- Node26&#45;&gt;Node38 -->
<g id="edge47" class="edge"><title>Node26&#45;&gt;Node38</title>
<path fill="none" stroke="midnightblue" d="M735.78,-224.268C722.484,-210.589 694.922,-184.017 667,-168 641.027,-153.101 609.274,-141.85 584.017,-134.325"/>
<polygon fill="midnightblue" stroke="midnightblue" points="584.909,-130.94 574.33,-131.525 582.965,-137.664 584.909,-130.94"/>
</g>
<!-- Node26&#45;&gt;Node39 -->
<g id="edge53" class="edge"><title>Node26&#45;&gt;Node39</title>
<path fill="none" stroke="midnightblue" d="M724.669,-224.444C704.68,-215.596 673.257,-201.687 650.436,-191.586"/>
<polygon fill="midnightblue" stroke="midnightblue" points="651.802,-188.363 641.241,-187.516 648.968,-194.764 651.802,-188.363"/>
</g>
<!-- Node30&#45;&gt;Node18 -->
<g id="edge33" class="edge"><title>Node30&#45;&gt;Node18</title>
<path fill="none" stroke="midnightblue" d="M572.858,-59.7239C682.303,-48.7997 931.29,-23.947 1024.7,-14.6234"/>
<polygon fill="midnightblue" stroke="midnightblue" points="1025.19,-18.0923 1034.79,-13.6163 1024.49,-11.1269 1025.19,-18.0923"/>
</g>
<!-- Node31 -->
<g id="node31" class="node"><title>Node31</title>
<polygon fill="white" stroke="#bfbfbf" points="563.5,-0.5 563.5,-19.5 628.5,-19.5 628.5,-0.5 563.5,-0.5"/>
<text text-anchor="middle" x="596" y="-7.5" font-family="Helvetica,sans-Serif" font-size="10.00">QDateTime</text>
</g>
<!-- Node30&#45;&gt;Node31 -->
<g id="edge34" class="edge"><title>Node30&#45;&gt;Node31</title>
<path fill="none" stroke="midnightblue" d="M532.211,-56.324C543.776,-48.1066 561.375,-35.6017 575.161,-25.8069"/>
<polygon fill="midnightblue" stroke="midnightblue" points="577.443,-28.4791 583.567,-19.8339 573.388,-22.7729 577.443,-28.4791"/>
</g>
<!-- Node32 -->
<g id="node32" class="node"><title>Node32</title>
<polygon fill="white" stroke="#bfbfbf" points="502.5,-0.5 502.5,-19.5 543.5,-19.5 543.5,-0.5 502.5,-0.5"/>
<text text-anchor="middle" x="523" y="-7.5" font-family="Helvetica,sans-Serif" font-size="10.00">string</text>
</g>
<!-- Node30&#45;&gt;Node32 -->
<g id="edge35" class="edge"><title>Node30&#45;&gt;Node32</title>
<path fill="none" stroke="midnightblue" d="M520.495,-56.083C520.889,-49.0059 521.452,-38.8611 521.945,-29.9865"/>
<polygon fill="midnightblue" stroke="midnightblue" points="525.454,-29.9299 522.514,-19.7511 518.464,-29.5415 525.454,-29.9299"/>
</g>
<!-- Node30&#45;&gt;Node23 -->
<g id="edge36" class="edge"><title>Node30&#45;&gt;Node23</title>
<path fill="none" stroke="midnightblue" d="M467.235,-56.4435C399.417,-45.446 283.376,-26.6286 224.149,-17.0242"/>
<polygon fill="midnightblue" stroke="midnightblue" points="224.55,-13.5435 214.118,-15.3976 223.429,-20.4532 224.55,-13.5435"/>
</g>
<!-- Node33 -->
<g id="node33" class="node"><title>Node33</title>
<polygon fill="white" stroke="#bfbfbf" points="419.5,-0.5 419.5,-19.5 484.5,-19.5 484.5,-0.5 419.5,-0.5"/>
<text text-anchor="middle" x="452" y="-7.5" font-family="Helvetica,sans-Serif" font-size="10.00">QStringList</text>
</g>
<!-- Node30&#45;&gt;Node33 -->
<g id="edge37" class="edge"><title>Node30&#45;&gt;Node33</title>
<path fill="none" stroke="midnightblue" d="M509.075,-56.324C498.825,-48.1849 483.279,-35.8395 470.999,-26.0874"/>
<polygon fill="midnightblue" stroke="midnightblue" points="473.132,-23.3119 463.124,-19.8339 468.779,-28.7937 473.132,-23.3119"/>
</g>
<!-- Node35&#45;&gt;Node25 -->
<g id="edge40" class="edge"><title>Node35&#45;&gt;Node25</title>
<path fill="none" stroke="midnightblue" d="M1136.01,-168.368C1084.23,-148.93 958.36,-101.674 898.57,-79.2278"/>
<polygon fill="midnightblue" stroke="midnightblue" points="899.477,-75.8295 888.884,-75.5914 897.016,-82.3829 899.477,-75.8295"/>
</g>
<!-- Node35&#45;&gt;Node22 -->
<g id="edge41" class="edge"><title>Node35&#45;&gt;Node22</title>
<path fill="none" stroke="midnightblue" d="M1164.78,-168.083C1169.67,-160.534 1176.83,-149.495 1182.83,-140.23"/>
<polygon fill="midnightblue" stroke="midnightblue" points="1185.83,-142.046 1188.33,-131.751 1179.95,-138.239 1185.83,-142.046"/>
</g>
<!-- Node35&#45;&gt;Node36 -->
<g id="edge42" class="edge"><title>Node35&#45;&gt;Node36</title>
<path fill="none" stroke="midnightblue" d="M1088.87,-169.745C974.197,-157.882 751.069,-134.8 668.615,-126.271"/>
<polygon fill="midnightblue" stroke="midnightblue" points="668.912,-122.783 658.605,-125.235 668.191,-129.745 668.912,-122.783"/>
</g>
<!-- Node35&#45;&gt;Node30 -->
<g id="edge45" class="edge"><title>Node35&#45;&gt;Node30</title>
<path fill="none" stroke="midnightblue" d="M1109.39,-168.46C993.45,-148.502 705.094,-98.8629 579.755,-77.2864"/>
<polygon fill="midnightblue" stroke="midnightblue" points="580.027,-73.7818 569.578,-75.5345 578.839,-80.6804 580.027,-73.7818"/>
</g>
<!-- Node37 -->
<g id="node37" class="node"><title>Node37</title>
<polygon fill="white" stroke="#bfbfbf" points="629.5,-56.5 629.5,-75.5 684.5,-75.5 684.5,-56.5 629.5,-56.5"/>
<text text-anchor="middle" x="657" y="-63.5" font-family="Helvetica,sans-Serif" font-size="10.00">QVariant</text>
</g>
<!-- Node36&#45;&gt;Node37 -->
<g id="edge43" class="edge"><title>Node36&#45;&gt;Node37</title>
<path fill="none" stroke="midnightblue" d="M640.303,-112.083C642.982,-104.849 646.849,-94.4087 650.186,-85.3968"/>
<polygon fill="midnightblue" stroke="midnightblue" points="653.568,-86.3442 653.759,-75.7511 647.004,-83.9129 653.568,-86.3442"/>
</g>
<!-- Node36&#45;&gt;Node17 -->
<g id="edge44" class="edge"><title>Node36&#45;&gt;Node17</title>
<path fill="none" stroke="midnightblue" d="M615.354,-114.584C612.222,-113.694 609.032,-112.809 606,-112 543.656,-95.3762 525.311,-92.8742 459.328,-76.2927"/>
<polygon fill="midnightblue" stroke="midnightblue" points="459.789,-72.7992 449.236,-73.7407 458.073,-79.5856 459.789,-72.7992"/>
</g>
<!-- Node38&#45;&gt;Node25 -->
<g id="edge48" class="edge"><title>Node38&#45;&gt;Node25</title>
<path fill="none" stroke="midnightblue" d="M591.656,-112.444C657.911,-101.469 771.179,-82.7065 829.271,-73.084"/>
<polygon fill="midnightblue" stroke="midnightblue" points="830.158,-76.4848 839.452,-71.3976 829.014,-69.5789 830.158,-76.4848"/>
</g>
<!-- Node38&#45;&gt;Node17 -->
<g id="edge49" class="edge"><title>Node38&#45;&gt;Node17</title>
<path fill="none" stroke="midnightblue" d="M521.619,-112.444C502.784,-103.675 473.269,-89.9355 451.621,-79.8579"/>
<polygon fill="midnightblue" stroke="midnightblue" points="452.838,-76.5637 442.295,-75.5164 449.883,-82.9098 452.838,-76.5637"/>
</g>
<!-- Node38&#45;&gt;Node37 -->
<g id="edge50" class="edge"><title>Node38&#45;&gt;Node37</title>
<path fill="none" stroke="midnightblue" d="M558.539,-112.444C577.623,-103.636 607.575,-89.8116 629.436,-79.722"/>
<polygon fill="midnightblue" stroke="midnightblue" points="630.935,-82.8849 638.548,-75.5164 628.001,-76.5292 630.935,-82.8849"/>
</g>
<!-- Node38&#45;&gt;Node31 -->
<g id="edge51" class="edge"><title>Node38&#45;&gt;Node31</title>
<path fill="none" stroke="midnightblue" d="M550.376,-112.45C559.794,-104.118 573.345,-90.6025 581,-76 588.562,-61.5758 592.342,-43.3848 594.214,-29.9179"/>
<polygon fill="midnightblue" stroke="midnightblue" points="597.7,-30.2404 595.378,-19.9031 590.747,-29.432 597.7,-30.2404"/>
</g>
<!-- Node38&#45;&gt;Node30 -->
<g id="edge52" class="edge"><title>Node38&#45;&gt;Node30</title>
<path fill="none" stroke="midnightblue" d="M536.697,-112.083C534.018,-104.849 530.151,-94.4087 526.814,-85.3968"/>
<polygon fill="midnightblue" stroke="midnightblue" points="529.996,-83.9129 523.241,-75.7511 523.432,-86.3442 529.996,-83.9129"/>
</g>
<!-- Node39&#45;&gt;Node38 -->
<g id="edge54" class="edge"><title>Node39&#45;&gt;Node38</title>
<path fill="none" stroke="midnightblue" d="M608.825,-168.324C596.153,-159.979 576.767,-147.212 561.794,-137.352"/>
<polygon fill="midnightblue" stroke="midnightblue" points="563.419,-134.231 553.142,-131.655 559.569,-140.078 563.419,-134.231"/>
</g>
<!-- Node39&#45;&gt;Node37 -->
<g id="edge55" class="edge"><title>Node39&#45;&gt;Node37</title>
<path fill="none" stroke="midnightblue" d="M635.064,-168.436C645.914,-160.471 660.573,-147.515 667,-132 673.206,-117.018 669.447,-98.6524 664.871,-85.2694"/>
<polygon fill="midnightblue" stroke="midnightblue" points="668.068,-83.8321 661.2,-75.7646 661.538,-86.354 668.068,-83.8321"/>
</g>
<!-- Node40&#45;&gt;Node36 -->
<g id="edge57" class="edge"><title>Node40&#45;&gt;Node36</title>
<path fill="none" stroke="midnightblue" d="M500.761,-280.359C488.546,-258.975 461.106,-202.803 487,-168 487.915,-166.77 562.064,-144.917 605.754,-132.124"/>
<polygon fill="midnightblue" stroke="midnightblue" points="606.745,-135.481 615.36,-129.314 604.779,-128.763 606.745,-135.481"/>
</g>
<!-- Node40&#45;&gt;Node35 -->
<g id="edge58" class="edge"><title>Node40&#45;&gt;Node35</title>
<path fill="none" stroke="midnightblue" d="M556.703,-281.71C615.53,-273.149 715.408,-258.296 801,-244 908.784,-225.998 1034.37,-202.644 1104.49,-189.392"/>
<polygon fill="midnightblue" stroke="midnightblue" points="1105.25,-192.811 1114.42,-187.512 1103.94,-185.933 1105.25,-192.811"/>
</g>
<!-- Node40&#45;&gt;Node26 -->
<g id="edge59" class="edge"><title>Node40&#45;&gt;Node26</title>
<path fill="none" stroke="midnightblue" d="M543.712,-280.444C585.143,-271.043 651.757,-255.929 696.667,-245.739"/>
<polygon fill="midnightblue" stroke="midnightblue" points="697.487,-249.142 706.465,-243.516 695.938,-242.316 697.487,-249.142"/>
</g>
<!-- Node40&#45;&gt;Node30 -->
<g id="edge60" class="edge"><title>Node40&#45;&gt;Node30</title>
<path fill="none" stroke="midnightblue" d="M457.914,-280.444C434.601,-274.021 407.854,-262.941 390,-244 366.19,-218.741 355.787,-198.693 372,-168 395.773,-122.996 449.614,-94.2615 485.377,-79.3836"/>
<polygon fill="midnightblue" stroke="midnightblue" points="486.962,-82.519 494.945,-75.5526 484.36,-76.0206 486.962,-82.519"/>
</g>
<!-- Node40&#45;&gt;Node38 -->
<g id="edge61" class="edge"><title>Node40&#45;&gt;Node38</title>
<path fill="none" stroke="midnightblue" d="M484.423,-280.475C440.404,-261.845 347.303,-215.366 383,-168 394.475,-152.774 437.22,-141.127 475.215,-133.5"/>
<polygon fill="midnightblue" stroke="midnightblue" points="476.11,-136.892 485.261,-131.552 474.778,-130.02 476.11,-136.892"/>
</g>
<!-- Node40&#45;&gt;Node3 -->
<g id="edge62" class="edge"><title>Node40&#45;&gt;Node3</title>
<path fill="none" stroke="midnightblue" d="M455.481,-281.206C384.468,-270.249 256.756,-250.545 193.544,-240.793"/>
<polygon fill="midnightblue" stroke="midnightblue" points="194.025,-237.325 183.608,-239.259 192.957,-244.243 194.025,-237.325"/>
</g>
<!-- Node40&#45;&gt;Node27 -->
<g id="edge63" class="edge"><title>Node40&#45;&gt;Node27</title>
<path fill="none" stroke="midnightblue" d="M524.389,-280.471C538.101,-272.997 555.815,-260.71 564,-244 572.156,-227.349 560.31,-208.323 548.792,-195.177"/>
<polygon fill="midnightblue" stroke="midnightblue" points="551.257,-192.69 541.845,-187.826 546.169,-197.498 551.257,-192.69"/>
</g>
<!-- Node41 -->
<g id="node41" class="node"><title>Node41</title>
<polygon fill="white" stroke="#bfbfbf" points="506.5,-224.5 506.5,-243.5 555.5,-243.5 555.5,-224.5 506.5,-224.5"/>
<text text-anchor="middle" x="531" y="-231.5" font-family="Helvetica,sans-Serif" font-size="10.00">QSlider</text>
</g>
<!-- Node40&#45;&gt;Node41 -->
<g id="edge64" class="edge"><title>Node40&#45;&gt;Node41</title>
<path fill="none" stroke="midnightblue" d="M510.128,-280.083C513.514,-272.77 518.416,-262.181 522.619,-253.103"/>
<polygon fill="midnightblue" stroke="midnightblue" points="525.923,-254.296 526.949,-243.751 519.571,-251.355 525.923,-254.296"/>
</g>
<!-- Node40&#45;&gt;Node19 -->
<g id="edge65" class="edge"><title>Node40&#45;&gt;Node19</title>
<path fill="none" stroke="midnightblue" d="M497.322,-280.309C488.604,-271.44 474.93,-257.149 464,-244 450.885,-228.223 437.089,-209.258 427.671,-195.897"/>
<polygon fill="midnightblue" stroke="midnightblue" points="430.507,-193.845 421.912,-187.651 424.768,-197.853 430.507,-193.845"/>
</g>
</g>
</svg>
        <g id="navigator" transform="translate(0 0)" fill="#404254">
                <rect fill="#f2f5e9" fill-opacity="0.5" stroke="#606060" stroke-width=".5" x="0" y="0" width="60" height="60"/>
                <use id="zoomplus" xlink:href="#zoomPlus" x="17" y="9" onmousedown="handleZoom(evt,'in')"/>
                <use id="zoomminus" xlink:href="#zoomMin" x="42" y="9" onmousedown="handleZoom(evt,'out')"/>
                <use id="reset" xlink:href="#resetDef" x="30" y="36" onmousedown="handleReset()"/>
                <g id="arrowUp" xlink:href="#dirArrow" transform="translate(30 24)" onmousedown="handlePan(0,-1)">
                  <use xlink:href="#rim" fill="#404040">
                        <set attributeName="fill" to="#808080" begin="arrowUp.mouseover" end="arrowUp.mouseout"/>
                  </use>
                  <path fill="none" stroke="white" stroke-width="1.5" d="M0,-3.0v7 M-2.5,-0.5L0,-3.0L2.5,-0.5"/>
                </g>
                <g id="arrowRight" xlink:href="#dirArrow" transform="rotate(90) translate(36 -43)" onmousedown="handlePan(1,0)">
                  <use xlink:href="#rim" fill="#404040">
                        <set attributeName="fill" to="#808080" begin="arrowRight.mouseover" end="arrowRight.mouseout"/>
                  </use>
                  <path fill="none" stroke="white" stroke-width="1.5" d="M0,-3.0v7 M-2.5,-0.5L0,-3.0L2.5,-0.5"/>
                </g>
                <g id="arrowDown" xlink:href="#dirArrow" transform="rotate(180) translate(-30 -48)" onmousedown="handlePan(0,1)">
                  <use xlink:href="#rim" fill="#404040">
                        <set attributeName="fill" to="#808080" begin="arrowDown.mouseover" end="arrowDown.mouseout"/>
                  </use>
                  <path fill="none" stroke="white" stroke-width="1.5" d="M0,-3.0v7 M-2.5,-0.5L0,-3.0L2.5,-0.5"/>
                </g>
                <g id="arrowLeft" xlink:href="#dirArrow" transform="rotate(270) translate(-36 17)" onmousedown="handlePan(-1,0)">
                  <use xlink:href="#rim" fill="#404040">
                        <set attributeName="fill" to="#808080" begin="arrowLeft.mouseover" end="arrowLeft.mouseout"/>
                  </use>
                  <path fill="none" stroke="white" stroke-width="1.5" d="M0,-3.0v7 M-2.5,-0.5L0,-3.0L2.5,-0.5"/>
                </g>
        </g>
        <svg viewBox="0 0 15 15" width="100%" height="30px" preserveAspectRatio="xMaxYMin meet">
         <g id="arrow_out" transform="scale(0.3 0.3)">
          <a xlink:href="information_8cpp__incl_org.svg" target="_base">
           <rect id="button" ry="5" rx="5" y="6" x="6" height="38" width="38"
                fill="#f2f5e9" fill-opacity="0.5" stroke="#606060" stroke-width="1.0"/>
           <path id="arrow"
             d="M 11.500037,31.436501 C 11.940474,20.09759 22.043105,11.32322 32.158766,21.979434 L 37.068811,17.246167 C 37.068811,17.246167 37.088388,32 37.088388,32 L 22.160133,31.978069 C 22.160133,31.978069 26.997745,27.140456 26.997745,27.140456 C 18.528582,18.264221 13.291696,25.230495 11.500037,31.436501 z"
             style="fill:#404040;"/>
          </a>
         </g>
        </svg>
</svg>
