<?xml version="1.0" encoding="UTF-8" standalone="no"?>
<!DOCTYPE svg PUBLIC "-//W3C//DTD SVG 1.1//EN"
 "http://www.w3.org/Graphics/SVG/1.1/DTD/svg11.dtd">
<!-- Generated by graphviz version 2.30.1 (20130214.1330)
 -->
<!-- Title: GUI/Gui&#45;RoombaV1.0/information.cpp Pages: 1 -->
<svg width="3241pt" height="432pt"
 viewBox="0.00 0.00 3241.00 432.00" xmlns="http://www.w3.org/2000/svg" xmlns:xlink="http://www.w3.org/1999/xlink">
<g id="graph0" class="graph" transform="scale(1 1) rotate(0) translate(4 428)">
<title>GUI/Gui&#45;RoombaV1.0/information.cpp</title>
<polygon fill="white" stroke="white" points="-4,5 -4,-428 3238,-428 3238,5 -4,5"/>
<!-- Node1 -->
<g id="node1" class="node"><title>Node1</title>
<polygon fill="#bfbfbf" stroke="black" points="1963,-393 1963,-423 2073,-423 2073,-393 1963,-393"/>
<text text-anchor="start" x="1971" y="-411" font-family="Helvetica,sans-Serif" font-size="10.00">GUI/Gui&#45;RoombaV1.0</text>
<text text-anchor="middle" x="2018" y="-400" font-family="Helvetica,sans-Serif" font-size="10.00">/information.cpp</text>
</g>
<!-- Node2 -->
<g id="node2" class="node"><title>Node2</title>
<g id="a_node2"><a xlink:href="../../db/d3a/information_8h.xhtml" target="_top" xlink:title="information.h">
<polygon fill="white" stroke="black" points="2593,-336.5 2593,-355.5 2665,-355.5 2665,-336.5 2593,-336.5"/>
<text text-anchor="middle" x="2629" y="-343.5" font-family="Helvetica,sans-Serif" font-size="10.00">information.h</text>
</a>
</g>
</g>
<!-- Node1&#45;&gt;Node2 -->
<g id="edge1" class="edge"><title>Node1&#45;&gt;Node2</title>
<path fill="none" stroke="midnightblue" d="M2073.03,-401.596C2192.1,-389.904 2471.81,-362.436 2582.61,-351.555"/>
<polygon fill="midnightblue" stroke="midnightblue" points="2583.19,-355.016 2592.8,-350.555 2582.5,-348.049 2583.19,-355.016"/>
</g>
<!-- Node4 -->
<g id="node4" class="node"><title>Node4</title>
<g id="a_node4"><a xlink:href="../../db/d61/ui__information_8h.xhtml" target="_top" xlink:title="ui_information.h">
<polygon fill="white" stroke="black" points="763.5,-336.5 763.5,-355.5 848.5,-355.5 848.5,-336.5 763.5,-336.5"/>
<text text-anchor="middle" x="806" y="-343.5" font-family="Helvetica,sans-Serif" font-size="10.00">ui_information.h</text>
</a>
</g>
</g>
<!-- Node1&#45;&gt;Node4 -->
<g id="edge3" class="edge"><title>Node1&#45;&gt;Node4</title>
<path fill="none" stroke="midnightblue" d="M1962.77,-404.266C1759.98,-394.227 1057.86,-359.468 858.913,-349.619"/>
<polygon fill="midnightblue" stroke="midnightblue" points="858.884,-346.114 848.723,-349.115 858.538,-353.105 858.884,-346.114"/>
</g>
<!-- Node16 -->
<g id="node16" class="node"><title>Node16</title>
<g id="a_node16"><a xlink:href="../../dd/da1/roomba_8h.xhtml" target="_top" xlink:title="roomba.h">
<polygon fill="white" stroke="black" points="1989.5,-336.5 1989.5,-355.5 2046.5,-355.5 2046.5,-336.5 1989.5,-336.5"/>
<text text-anchor="middle" x="2018" y="-343.5" font-family="Helvetica,sans-Serif" font-size="10.00">roomba.h</text>
</a>
</g>
</g>
<!-- Node1&#45;&gt;Node16 -->
<g id="edge15" class="edge"><title>Node1&#45;&gt;Node16</title>
<path fill="none" stroke="midnightblue" d="M2018,-392.781C2018,-384.781 2018,-374.689 2018,-366.017"/>
<polygon fill="midnightblue" stroke="midnightblue" points="2021.5,-365.73 2018,-355.731 2014.5,-365.731 2021.5,-365.73"/>
</g>
<!-- Node3 -->
<g id="node3" class="node"><title>Node3</title>
<polygon fill="white" stroke="#bfbfbf" points="3073.5,-168.5 3073.5,-187.5 3128.5,-187.5 3128.5,-168.5 3073.5,-168.5"/>
<text text-anchor="middle" x="3101" y="-175.5" font-family="Helvetica,sans-Serif" font-size="10.00">QWidget</text>
</g>
<!-- Node2&#45;&gt;Node3 -->
<g id="edge2" class="edge"><title>Node2&#45;&gt;Node3</title>
<path fill="none" stroke="midnightblue" d="M2665.2,-344.27C2770.45,-341.777 3070.76,-331.905 3100,-300 3125.58,-272.097 3115.65,-223.534 3107.52,-197.213"/>
<polygon fill="midnightblue" stroke="midnightblue" points="3110.84,-196.099 3104.36,-187.713 3104.2,-198.307 3110.84,-196.099"/>
</g>
<!-- Node5 -->
<g id="node5" class="node"><title>Node5</title>
<polygon fill="white" stroke="#bfbfbf" points="1081.5,-280.5 1081.5,-299.5 1170.5,-299.5 1170.5,-280.5 1081.5,-280.5"/>
<text text-anchor="middle" x="1126" y="-287.5" font-family="Helvetica,sans-Serif" font-size="10.00">QtCore/QVariant</text>
</g>
<!-- Node4&#45;&gt;Node5 -->
<g id="edge4" class="edge"><title>Node4&#45;&gt;Node5</title>
<path fill="none" stroke="midnightblue" d="M848.825,-337.773C906.257,-328.082 1008.28,-310.866 1071.23,-300.242"/>
<polygon fill="midnightblue" stroke="midnightblue" points="1072.09,-303.646 1081.37,-298.531 1070.93,-296.744 1072.09,-303.646"/>
</g>
<!-- Node6 -->
<g id="node6" class="node"><title>Node6</title>
<polygon fill="white" stroke="#bfbfbf" points="1188.5,-280.5 1188.5,-299.5 1289.5,-299.5 1289.5,-280.5 1188.5,-280.5"/>
<text text-anchor="middle" x="1239" y="-287.5" font-family="Helvetica,sans-Serif" font-size="10.00">QtWidgets/QAction</text>
</g>
<!-- Node4&#45;&gt;Node6 -->
<g id="edge5" class="edge"><title>Node4&#45;&gt;Node6</title>
<path fill="none" stroke="midnightblue" d="M848.564,-340.269C916.051,-332.68 1052.01,-317.032 1178.06,-300.093"/>
<polygon fill="midnightblue" stroke="midnightblue" points="1178.83,-303.52 1188.28,-298.714 1177.9,-296.583 1178.83,-303.52"/>
</g>
<!-- Node7 -->
<g id="node7" class="node"><title>Node7</title>
<polygon fill="white" stroke="#bfbfbf" points="1308,-280.5 1308,-299.5 1430,-299.5 1430,-280.5 1308,-280.5"/>
<text text-anchor="middle" x="1369" y="-287.5" font-family="Helvetica,sans-Serif" font-size="10.00">QtWidgets/QApplication</text>
</g>
<!-- Node4&#45;&gt;Node7 -->
<g id="edge6" class="edge"><title>Node4&#45;&gt;Node7</title>
<path fill="none" stroke="midnightblue" d="M848.827,-341.589C932.685,-334.8 1124.66,-318.718 1297.77,-299.986"/>
<polygon fill="midnightblue" stroke="midnightblue" points="1298.26,-303.453 1307.83,-298.892 1297.51,-296.494 1298.26,-303.453"/>
</g>
<!-- Node8 -->
<g id="node8" class="node"><title>Node8</title>
<polygon fill="white" stroke="#bfbfbf" points="0,-280.5 0,-299.5 128,-299.5 128,-280.5 0,-280.5"/>
<text text-anchor="middle" x="64" y="-287.5" font-family="Helvetica,sans-Serif" font-size="10.00">QtWidgets/QButtonGroup</text>
</g>
<!-- Node4&#45;&gt;Node8 -->
<g id="edge7" class="edge"><title>Node4&#45;&gt;Node8</title>
<path fill="none" stroke="midnightblue" d="M763.277,-342.951C658.614,-337.753 380.848,-322.892 138.144,-300.058"/>
<polygon fill="midnightblue" stroke="midnightblue" points="138.358,-296.562 128.072,-299.103 137.697,-303.531 138.358,-296.562"/>
</g>
<!-- Node9 -->
<g id="node9" class="node"><title>Node9</title>
<polygon fill="white" stroke="#bfbfbf" points="146.5,-280.5 146.5,-299.5 265.5,-299.5 265.5,-280.5 146.5,-280.5"/>
<text text-anchor="middle" x="206" y="-287.5" font-family="Helvetica,sans-Serif" font-size="10.00">QtWidgets/QCheckBox</text>
</g>
<!-- Node4&#45;&gt;Node9 -->
<g id="edge8" class="edge"><title>Node4&#45;&gt;Node9</title>
<path fill="none" stroke="midnightblue" d="M763.18,-342.067C674.307,-335.831 463.134,-320.241 275.721,-300.145"/>
<polygon fill="midnightblue" stroke="midnightblue" points="276.003,-296.655 265.685,-299.062 275.252,-303.614 276.003,-296.655"/>
</g>
<!-- Node10 -->
<g id="node10" class="node"><title>Node10</title>
<polygon fill="white" stroke="#bfbfbf" points="283.5,-280.5 283.5,-299.5 408.5,-299.5 408.5,-280.5 283.5,-280.5"/>
<text text-anchor="middle" x="346" y="-287.5" font-family="Helvetica,sans-Serif" font-size="10.00">QtWidgets/QHeaderView</text>
</g>
<!-- Node4&#45;&gt;Node10 -->
<g id="edge9" class="edge"><title>Node4&#45;&gt;Node10</title>
<path fill="none" stroke="midnightblue" d="M763.386,-340.224C693.617,-332.372 550.384,-316.111 418.961,-300.228"/>
<polygon fill="midnightblue" stroke="midnightblue" points="419.063,-296.715 408.715,-298.988 418.222,-303.664 419.063,-296.715"/>
</g>
<!-- Node11 -->
<g id="node11" class="node"><title>Node11</title>
<polygon fill="white" stroke="#bfbfbf" points="426.5,-280.5 426.5,-299.5 523.5,-299.5 523.5,-280.5 426.5,-280.5"/>
<text text-anchor="middle" x="475" y="-287.5" font-family="Helvetica,sans-Serif" font-size="10.00">QtWidgets/QLabel</text>
</g>
<!-- Node4&#45;&gt;Node11 -->
<g id="edge10" class="edge"><title>Node4&#45;&gt;Node11</title>
<path fill="none" stroke="midnightblue" d="M763.405,-338.051C704.982,-328.52 599.747,-311.352 533.836,-300.599"/>
<polygon fill="midnightblue" stroke="midnightblue" points="534.042,-297.086 523.609,-298.93 532.915,-303.995 534.042,-297.086"/>
</g>
<!-- Node12 -->
<g id="node12" class="node"><title>Node12</title>
<polygon fill="white" stroke="#bfbfbf" points="541.5,-280.5 541.5,-299.5 650.5,-299.5 650.5,-280.5 541.5,-280.5"/>
<text text-anchor="middle" x="596" y="-287.5" font-family="Helvetica,sans-Serif" font-size="10.00">QtWidgets/QLineEdit</text>
</g>
<!-- Node4&#45;&gt;Node12 -->
<g id="edge11" class="edge"><title>Node4&#45;&gt;Node12</title>
<path fill="none" stroke="midnightblue" d="M772.725,-336.444C736.552,-327.142 678.623,-312.246 639.019,-302.062"/>
<polygon fill="midnightblue" stroke="midnightblue" points="639.676,-298.617 629.119,-299.516 637.933,-305.397 639.676,-298.617"/>
</g>
<!-- Node13 -->
<g id="node13" class="node"><title>Node13</title>
<polygon fill="white" stroke="#bfbfbf" points="669,-280.5 669,-299.5 797,-299.5 797,-280.5 669,-280.5"/>
<text text-anchor="middle" x="733" y="-287.5" font-family="Helvetica,sans-Serif" font-size="10.00">QtWidgets/QProgressBar</text>
</g>
<!-- Node4&#45;&gt;Node13 -->
<g id="edge12" class="edge"><title>Node4&#45;&gt;Node13</title>
<path fill="none" stroke="midnightblue" d="M794.271,-336.324C783.163,-328.107 766.258,-315.602 753.017,-305.807"/>
<polygon fill="midnightblue" stroke="midnightblue" points="755.063,-302.967 744.942,-299.834 750.9,-308.595 755.063,-302.967"/>
</g>
<!-- Node14 -->
<g id="node14" class="node"><title>Node14</title>
<polygon fill="white" stroke="#bfbfbf" points="815.5,-280.5 815.5,-299.5 940.5,-299.5 940.5,-280.5 815.5,-280.5"/>
<text text-anchor="middle" x="878" y="-287.5" font-family="Helvetica,sans-Serif" font-size="10.00">QtWidgets/QPushButton</text>
</g>
<!-- Node4&#45;&gt;Node14 -->
<g id="edge13" class="edge"><title>Node4&#45;&gt;Node14</title>
<path fill="none" stroke="midnightblue" d="M817.568,-336.324C828.42,-328.185 844.881,-315.839 857.883,-306.087"/>
<polygon fill="midnightblue" stroke="midnightblue" points="860.321,-308.634 866.221,-299.834 856.121,-303.034 860.321,-308.634"/>
</g>
<!-- Node15 -->
<g id="node15" class="node"><title>Node15</title>
<polygon fill="white" stroke="#bfbfbf" points="959,-280.5 959,-299.5 1063,-299.5 1063,-280.5 959,-280.5"/>
<text text-anchor="middle" x="1011" y="-287.5" font-family="Helvetica,sans-Serif" font-size="10.00">QtWidgets/QWidget</text>
</g>
<!-- Node4&#45;&gt;Node15 -->
<g id="edge14" class="edge"><title>Node4&#45;&gt;Node15</title>
<path fill="none" stroke="midnightblue" d="M838.483,-336.444C873.72,-327.162 930.104,-312.309 968.759,-302.127"/>
<polygon fill="midnightblue" stroke="midnightblue" points="969.891,-305.448 978.669,-299.516 968.107,-298.679 969.891,-305.448"/>
</g>
<!-- Node17 -->
<g id="node17" class="node"><title>Node17</title>
<polygon fill="white" stroke="#bfbfbf" points="1937,-56.5 1937,-75.5 1987,-75.5 1987,-56.5 1937,-56.5"/>
<text text-anchor="middle" x="1962" y="-63.5" font-family="Helvetica,sans-Serif" font-size="10.00">QString</text>
</g>
<!-- Node16&#45;&gt;Node17 -->
<g id="edge16" class="edge"><title>Node16&#45;&gt;Node17</title>
<path fill="none" stroke="midnightblue" d="M1989.3,-343.038C1899.85,-336.144 1632,-309.298 1632,-235 1632,-235 1632,-235 1632,-177 1632,-146.356 1631.19,-131.296 1655,-112 1702.37,-73.6073 1867.14,-87.6131 1927,-76 1927.1,-75.9806 1927.2,-75.961 1927.3,-75.9414"/>
<polygon fill="midnightblue" stroke="midnightblue" points="1927.83,-79.4093 1936.85,-73.853 1926.33,-72.571 1927.83,-79.4093"/>
</g>
<!-- Node18 -->
<g id="node18" class="node"><title>Node18</title>
<polygon fill="white" stroke="#bfbfbf" points="2734,-0.5 2734,-19.5 2786,-19.5 2786,-0.5 2734,-0.5"/>
<text text-anchor="middle" x="2760" y="-7.5" font-family="Helvetica,sans-Serif" font-size="10.00">QDebug</text>
</g>
<!-- Node16&#45;&gt;Node18 -->
<g id="edge17" class="edge"><title>Node16&#45;&gt;Node18</title>
<path fill="none" stroke="midnightblue" d="M2046.69,-344.692C2210.11,-342.823 3020.03,-331.999 3126,-300 3179.27,-283.916 3233,-290.643 3233,-235 3233,-235 3233,-235 3233,-121 3233,-31.362 2906.66,-14.7419 2796.11,-11.6834"/>
<polygon fill="midnightblue" stroke="midnightblue" points="2796.19,-8.18443 2786.1,-11.4278 2796.01,-15.1822 2796.19,-8.18443"/>
</g>
<!-- Node19 -->
<g id="node19" class="node"><title>Node19</title>
<polygon fill="white" stroke="#bfbfbf" points="3008.5,-168.5 3008.5,-187.5 3055.5,-187.5 3055.5,-168.5 3008.5,-168.5"/>
<text text-anchor="middle" x="3032" y="-175.5" font-family="Helvetica,sans-Serif" font-size="10.00">QtCore</text>
</g>
<!-- Node16&#45;&gt;Node19 -->
<g id="edge18" class="edge"><title>Node16&#45;&gt;Node19</title>
<path fill="none" stroke="midnightblue" d="M2046.55,-344.462C2139.39,-342.418 2441.06,-333.463 2688,-300 2810.74,-283.367 2850.67,-300.295 2961,-244 2984.15,-232.19 3005.37,-210.748 3018.46,-195.731"/>
<polygon fill="midnightblue" stroke="midnightblue" points="3021.42,-197.655 3025.19,-187.753 3016.07,-193.143 3021.42,-197.655"/>
</g>
<!-- Node20 -->
<g id="node20" class="node"><title>Node20</title>
<polygon fill="white" stroke="#bfbfbf" points="3049,-280.5 3049,-299.5 3091,-299.5 3091,-280.5 3049,-280.5"/>
<text text-anchor="middle" x="3070" y="-287.5" font-family="Helvetica,sans-Serif" font-size="10.00">vector</text>
</g>
<!-- Node16&#45;&gt;Node20 -->
<g id="edge19" class="edge"><title>Node16&#45;&gt;Node20</title>
<path fill="none" stroke="midnightblue" d="M2046.56,-344.537C2190.41,-342.082 2836.6,-329.571 3035,-300 3036.26,-299.813 3037.53,-299.599 3038.82,-299.363"/>
<polygon fill="midnightblue" stroke="midnightblue" points="3039.64,-302.767 3048.67,-297.233 3038.16,-295.925 3039.64,-302.767"/>
</g>
<!-- Node21 -->
<g id="node21" class="node"><title>Node21</title>
<polygon fill="white" stroke="#bfbfbf" points="3061.5,-112.5 3061.5,-131.5 3114.5,-131.5 3114.5,-112.5 3061.5,-112.5"/>
<text text-anchor="middle" x="3088" y="-119.5" font-family="Helvetica,sans-Serif" font-size="10.00">QVector</text>
</g>
<!-- Node16&#45;&gt;Node21 -->
<g id="edge20" class="edge"><title>Node16&#45;&gt;Node21</title>
<path fill="none" stroke="midnightblue" d="M2046.51,-344.724C2213.29,-342.995 3056.74,-332.656 3100,-300 3148.63,-263.29 3161.51,-223.781 3137,-168 3131.61,-155.732 3121.04,-145.341 3111.1,-137.646"/>
<polygon fill="midnightblue" stroke="midnightblue" points="3112.83,-134.581 3102.66,-131.598 3108.75,-140.27 3112.83,-134.581"/>
</g>
<!-- Node22 -->
<g id="node22" class="node"><title>Node22</title>
<polygon fill="white" stroke="#bfbfbf" points="1664,-112.5 1664,-131.5 1738,-131.5 1738,-112.5 1664,-112.5"/>
<text text-anchor="middle" x="1701" y="-119.5" font-family="Helvetica,sans-Serif" font-size="10.00">QVariantMap</text>
</g>
<!-- Node16&#45;&gt;Node22 -->
<g id="edge21" class="edge"><title>Node16&#45;&gt;Node22</title>
<path fill="none" stroke="midnightblue" d="M1989.21,-339.634C1956.63,-332.934 1902.43,-319.877 1859,-300 1776.73,-262.349 1731.91,-267.657 1689,-188 1681.11,-173.348 1686.01,-154.435 1691.74,-140.792"/>
<polygon fill="midnightblue" stroke="midnightblue" points="1695,-142.084 1696.09,-131.545 1688.67,-139.105 1695,-142.084"/>
</g>
<!-- Node23 -->
<g id="node23" class="node"><title>Node23</title>
<polygon fill="white" stroke="#bfbfbf" points="1585,-0.5 1585,-19.5 1639,-19.5 1639,-0.5 1585,-0.5"/>
<text text-anchor="middle" x="1612" y="-7.5" font-family="Helvetica,sans-Serif" font-size="10.00">iostream</text>
</g>
<!-- Node16&#45;&gt;Node23 -->
<g id="edge22" class="edge"><title>Node16&#45;&gt;Node23</title>
<path fill="none" stroke="midnightblue" d="M1989.14,-344.482C1882.8,-342.321 1516.88,-332.56 1477,-300 1453.69,-280.965 1458,-265.098 1458,-235 1458,-235 1458,-235 1458,-121 1458,-63.7264 1529.4,-33.4484 1574.97,-19.9575"/>
<polygon fill="midnightblue" stroke="midnightblue" points="1576.15,-23.262 1584.82,-17.1801 1574.25,-16.5245 1576.15,-23.262"/>
</g>
<!-- Node24 -->
<g id="node24" class="node"><title>Node24</title>
<polygon fill="white" stroke="#bfbfbf" points="1486,-280.5 1486,-299.5 1566,-299.5 1566,-280.5 1486,-280.5"/>
<text text-anchor="middle" x="1526" y="-287.5" font-family="Helvetica,sans-Serif" font-size="10.00">QMainWindow</text>
</g>
<!-- Node16&#45;&gt;Node24 -->
<g id="edge23" class="edge"><title>Node16&#45;&gt;Node24</title>
<path fill="none" stroke="midnightblue" d="M1989.49,-342.695C1919.55,-336.905 1733.98,-320.721 1580,-300 1578.73,-299.829 1577.44,-299.651 1576.14,-299.467"/>
<polygon fill="midnightblue" stroke="midnightblue" points="1576.47,-295.977 1566.06,-297.964 1575.44,-302.901 1576.47,-295.977"/>
</g>
<!-- Node25 -->
<g id="node25" class="node"><title>Node25</title>
<polygon fill="white" stroke="#bfbfbf" points="2678.5,-56.5 2678.5,-75.5 2731.5,-75.5 2731.5,-56.5 2678.5,-56.5"/>
<text text-anchor="middle" x="2705" y="-63.5" font-family="Helvetica,sans-Serif" font-size="10.00">QObject</text>
</g>
<!-- Node16&#45;&gt;Node25 -->
<g id="edge24" class="edge"><title>Node16&#45;&gt;Node25</title>
<path fill="none" stroke="midnightblue" d="M2046.71,-344.173C2168.67,-340.528 2644.35,-324.967 2792,-300 2881.75,-284.823 2902.58,-272.577 2989,-244 3055.77,-221.921 3097.03,-245.864 3137,-188 3149.83,-169.428 3139.21,-126.116 3123,-112 3094.52,-87.1938 2838.82,-73.0826 2741.96,-68.5889"/>
<polygon fill="midnightblue" stroke="midnightblue" points="2741.91,-65.0829 2731.76,-68.124 2741.59,-72.0756 2741.91,-65.0829"/>
</g>
<!-- Node26 -->
<g id="node26" class="node"><title>Node26</title>
<g id="a_node26"><a xlink:href="../../d4/dca/_roomba_connect_8h.xhtml" target="_top" xlink:title="RoombaConnect.h">
<polygon fill="white" stroke="black" points="2320.5,-224.5 2320.5,-243.5 2417.5,-243.5 2417.5,-224.5 2320.5,-224.5"/>
<text text-anchor="middle" x="2369" y="-231.5" font-family="Helvetica,sans-Serif" font-size="10.00">RoombaConnect.h</text>
</a>
</g>
</g>
<!-- Node16&#45;&gt;Node26 -->
<g id="edge25" class="edge"><title>Node16&#45;&gt;Node26</title>
<path fill="none" stroke="midnightblue" d="M2045.25,-336.46C2107.58,-316.926 2260.63,-268.963 2331.66,-246.702"/>
<polygon fill="midnightblue" stroke="midnightblue" points="2333.03,-249.941 2341.53,-243.61 2330.94,-243.261 2333.03,-249.941"/>
</g>
<!-- Node43 -->
<g id="node43" class="node"><title>Node43</title>
<g id="a_node43"><a xlink:href="../../da/d4b/controllingroomba_8h.xhtml" target="_top" xlink:title="controllingroomba.h">
<polygon fill="white" stroke="black" points="2578.5,-280.5 2578.5,-299.5 2679.5,-299.5 2679.5,-280.5 2578.5,-280.5"/>
<text text-anchor="middle" x="2629" y="-287.5" font-family="Helvetica,sans-Serif" font-size="10.00">controllingroomba.h</text>
</a>
</g>
</g>
<!-- Node16&#45;&gt;Node43 -->
<g id="edge66" class="edge"><title>Node16&#45;&gt;Node43</title>
<path fill="none" stroke="midnightblue" d="M2046.65,-342.468C2140.26,-334.195 2438.48,-307.838 2568,-296.391"/>
<polygon fill="midnightblue" stroke="midnightblue" points="2568.49,-299.862 2578.14,-295.495 2567.87,-292.889 2568.49,-299.862"/>
</g>
<!-- Node39 -->
<g id="node39" class="node"><title>Node39</title>
<g id="a_node39"><a xlink:href="../../d4/d25/sensordata_8h.xhtml" target="_top" xlink:title="sensordata.h">
<polygon fill="white" stroke="black" points="2084.5,-168.5 2084.5,-187.5 2157.5,-187.5 2157.5,-168.5 2084.5,-168.5"/>
<text text-anchor="middle" x="2121" y="-175.5" font-family="Helvetica,sans-Serif" font-size="10.00">sensordata.h</text>
</a>
</g>
</g>
<!-- Node16&#45;&gt;Node39 -->
<g id="edge81" class="edge"><title>Node16&#45;&gt;Node39</title>
<path fill="none" stroke="midnightblue" d="M2023.54,-336.075C2039.96,-309.606 2088.61,-231.209 2110.32,-196.21"/>
<polygon fill="midnightblue" stroke="midnightblue" points="2113.39,-197.911 2115.68,-187.568 2107.44,-194.22 2113.39,-197.911"/>
</g>
<!-- Node35 -->
<g id="node35" class="node"><title>Node35</title>
<g id="a_node35"><a xlink:href="../../dc/d96/jsoncommand_8h.xhtml" target="_top" xlink:title="../resources/jsoncommand.h">
<polygon fill="white" stroke="black" points="1698,-168.5 1698,-187.5 1838,-187.5 1838,-168.5 1698,-168.5"/>
<text text-anchor="middle" x="1768" y="-175.5" font-family="Helvetica,sans-Serif" font-size="10.00">../resources/jsoncommand.h</text>
</a>
</g>
</g>
<!-- Node16&#45;&gt;Node35 -->
<g id="edge82" class="edge"><title>Node16&#45;&gt;Node35</title>
<path fill="none" stroke="midnightblue" d="M1989.44,-338.825C1962.38,-332.111 1921.34,-319.634 1890,-300 1843.64,-270.957 1801.1,-221.435 1780.69,-195.676"/>
<polygon fill="midnightblue" stroke="midnightblue" points="1783.33,-193.369 1774.43,-187.628 1777.81,-197.669 1783.33,-193.369"/>
</g>
<!-- Node36 -->
<g id="node36" class="node"><title>Node36</title>
<g id="a_node36"><a xlink:href="../../d4/d05/json_8h.xhtml" target="_top" xlink:title="json.h">
<polygon fill="white" stroke="black" points="1930.5,-112.5 1930.5,-131.5 1973.5,-131.5 1973.5,-112.5 1930.5,-112.5"/>
<text text-anchor="middle" x="1952" y="-119.5" font-family="Helvetica,sans-Serif" font-size="10.00">json.h</text>
</a>
</g>
</g>
<!-- Node16&#45;&gt;Node36 -->
<g id="edge83" class="edge"><title>Node16&#45;&gt;Node36</title>
<path fill="none" stroke="midnightblue" d="M2002.79,-336.463C1990.55,-328.684 1974.08,-315.981 1966,-300 1939.62,-247.834 1944.64,-175.825 1949.02,-141.998"/>
<polygon fill="midnightblue" stroke="midnightblue" points="1952.54,-142.115 1950.49,-131.721 1945.61,-141.125 1952.54,-142.115"/>
</g>
<!-- Node30 -->
<g id="node30" class="node"><title>Node30</title>
<g id="a_node30"><a xlink:href="../../d7/d62/clslog_8h.xhtml" target="_top" xlink:title="../resources/clslog.h">
<polygon fill="white" stroke="black" points="1813.5,-56.5 1813.5,-75.5 1918.5,-75.5 1918.5,-56.5 1813.5,-56.5"/>
<text text-anchor="middle" x="1866" y="-63.5" font-family="Helvetica,sans-Serif" font-size="10.00">../resources/clslog.h</text>
</a>
</g>
</g>
<!-- Node16&#45;&gt;Node30 -->
<g id="edge84" class="edge"><title>Node16&#45;&gt;Node30</title>
<path fill="none" stroke="midnightblue" d="M1989.3,-343.433C1916.49,-339.122 1726.29,-325.662 1669,-300 1628.74,-281.967 1594,-279.11 1594,-235 1594,-235 1594,-235 1594,-177 1594,-142.844 1606.81,-131.292 1635,-112 1661.85,-93.6202 1744.72,-80.6911 1803.5,-73.5454"/>
<polygon fill="midnightblue" stroke="midnightblue" points="1803.93,-77.0193 1813.44,-72.3633 1803.1,-70.0682 1803.93,-77.0193"/>
</g>
<!-- Node38 -->
<g id="node38" class="node"><title>Node38</title>
<g id="a_node38"><a xlink:href="../../db/d97/clsevent_8h.xhtml" target="_top" xlink:title="../resources/clsevent.h">
<polygon fill="white" stroke="black" points="2309.5,-112.5 2309.5,-131.5 2424.5,-131.5 2424.5,-112.5 2309.5,-112.5"/>
<text text-anchor="middle" x="2367" y="-119.5" font-family="Helvetica,sans-Serif" font-size="10.00">../resources/clsevent.h</text>
</a>
</g>
</g>
<!-- Node16&#45;&gt;Node38 -->
<g id="edge85" class="edge"><title>Node16&#45;&gt;Node38</title>
<path fill="none" stroke="midnightblue" d="M2017.85,-336.3C2017.88,-307.27 2022.19,-213.036 2075,-168 2107.8,-140.028 2223.42,-129.388 2298.96,-125.379"/>
<polygon fill="midnightblue" stroke="midnightblue" points="2299.53,-128.855 2309.34,-124.857 2299.17,-121.864 2299.53,-128.855"/>
</g>
<!-- Node42 -->
<g id="node42" class="node"><title>Node42</title>
<g id="a_node42"><a xlink:href="../../da/d69/loggingdata_8h.xhtml" target="_top" xlink:title="loggingdata.h">
<polygon fill="white" stroke="black" points="2878,-168.5 2878,-187.5 2952,-187.5 2952,-168.5 2878,-168.5"/>
<text text-anchor="middle" x="2915" y="-175.5" font-family="Helvetica,sans-Serif" font-size="10.00">loggingdata.h</text>
</a>
</g>
</g>
<!-- Node16&#45;&gt;Node42 -->
<g id="edge86" class="edge"><title>Node16&#45;&gt;Node42</title>
<path fill="none" stroke="midnightblue" d="M2046.69,-338.888C2134.21,-320.34 2405.64,-263.55 2632,-224 2733.35,-206.291 2761.73,-205.983 2867.67,-187.991"/>
<polygon fill="midnightblue" stroke="midnightblue" points="2868.56,-191.39 2877.82,-186.253 2867.38,-184.491 2868.56,-191.39"/>
</g>
<!-- Node26&#45;&gt;Node18 -->
<g id="edge26" class="edge"><title>Node26&#45;&gt;Node18</title>
<path fill="none" stroke="midnightblue" d="M2417.7,-229.923C2509.51,-223.677 2700.95,-208.358 2723,-188 2767.75,-146.682 2765.92,-66.3365 2762.41,-29.8445"/>
<polygon fill="midnightblue" stroke="midnightblue" points="2765.86,-29.1914 2761.27,-19.6425 2758.91,-29.9696 2765.86,-29.1914"/>
</g>
<!-- Node26&#45;&gt;Node19 -->
<g id="edge27" class="edge"><title>Node26&#45;&gt;Node19</title>
<path fill="none" stroke="midnightblue" d="M2417.8,-230.123C2519.15,-223.964 2759.75,-208.391 2961,-188 2973.24,-186.76 2986.63,-185.133 2998.45,-183.604"/>
<polygon fill="midnightblue" stroke="midnightblue" points="2998.91,-187.074 3008.37,-182.298 2998,-180.134 2998.91,-187.074"/>
</g>
<!-- Node26&#45;&gt;Node25 -->
<g id="edge28" class="edge"><title>Node26&#45;&gt;Node25</title>
<path fill="none" stroke="midnightblue" d="M2417.67,-228.118C2508.07,-218.822 2693.61,-198.563 2703,-188 2728.04,-159.834 2718.97,-111.733 2711.3,-85.4617"/>
<polygon fill="midnightblue" stroke="midnightblue" points="2714.55,-84.1404 2708.2,-75.6608 2707.88,-86.2507 2714.55,-84.1404"/>
</g>
<!-- Node27 -->
<g id="node27" class="node"><title>Node27</title>
<polygon fill="white" stroke="#bfbfbf" points="2788.5,-168.5 2788.5,-187.5 2859.5,-187.5 2859.5,-168.5 2788.5,-168.5"/>
<text text-anchor="middle" x="2824" y="-175.5" font-family="Helvetica,sans-Serif" font-size="10.00">QTcpSocket</text>
</g>
<!-- Node26&#45;&gt;Node27 -->
<g id="edge29" class="edge"><title>Node26&#45;&gt;Node27</title>
<path fill="none" stroke="midnightblue" d="M2417.76,-228.653C2493.98,-221.618 2645.88,-206.626 2774,-188 2775.45,-187.79 2776.91,-187.569 2778.39,-187.34"/>
<polygon fill="midnightblue" stroke="midnightblue" points="2778.96,-190.794 2788.27,-185.734 2777.84,-183.885 2778.96,-190.794"/>
</g>
<!-- Node28 -->
<g id="node28" class="node"><title>Node28</title>
<polygon fill="white" stroke="#bfbfbf" points="2176,-168.5 2176,-187.5 2250,-187.5 2250,-168.5 2176,-168.5"/>
<text text-anchor="middle" x="2213" y="-175.5" font-family="Helvetica,sans-Serif" font-size="10.00">QTextStream</text>
</g>
<!-- Node26&#45;&gt;Node28 -->
<g id="edge30" class="edge"><title>Node26&#45;&gt;Node28</title>
<path fill="none" stroke="midnightblue" d="M2344.28,-224.444C2318.15,-215.399 2276.74,-201.064 2247.42,-190.916"/>
<polygon fill="midnightblue" stroke="midnightblue" points="2248.2,-187.48 2237.6,-187.516 2245.91,-194.095 2248.2,-187.48"/>
</g>
<!-- Node29 -->
<g id="node29" class="node"><title>Node29</title>
<polygon fill="white" stroke="#bfbfbf" points="2268.5,-168.5 2268.5,-187.5 2313.5,-187.5 2313.5,-168.5 2268.5,-168.5"/>
<text text-anchor="middle" x="2291" y="-175.5" font-family="Helvetica,sans-Serif" font-size="10.00">QTime</text>
</g>
<!-- Node26&#45;&gt;Node29 -->
<g id="edge31" class="edge"><title>Node26&#45;&gt;Node29</title>
<path fill="none" stroke="midnightblue" d="M2356.47,-224.324C2344.41,-215.979 2325.97,-203.212 2311.73,-193.352"/>
<polygon fill="midnightblue" stroke="midnightblue" points="2313.72,-190.469 2303.5,-187.655 2309.73,-196.224 2313.72,-190.469"/>
</g>
<!-- Node26&#45;&gt;Node30 -->
<g id="edge32" class="edge"><title>Node26&#45;&gt;Node30</title>
<path fill="none" stroke="midnightblue" d="M2320.5,-233.291C2260.36,-231.954 2155.91,-223.989 2075,-188 2026.23,-166.306 2028.12,-138.875 1982,-112 1957.67,-97.8212 1928.03,-86.413 1904.81,-78.6307"/>
<polygon fill="midnightblue" stroke="midnightblue" points="1905.87,-75.2968 1895.28,-75.52 1903.7,-81.9511 1905.87,-75.2968"/>
</g>
<!-- Node34 -->
<g id="node34" class="node"><title>Node34</title>
<polygon fill="white" stroke="#bfbfbf" points="2370,-168.5 2370,-187.5 2418,-187.5 2418,-168.5 2370,-168.5"/>
<text text-anchor="middle" x="2394" y="-175.5" font-family="Helvetica,sans-Serif" font-size="10.00">QTimer</text>
</g>
<!-- Node26&#45;&gt;Node34 -->
<g id="edge38" class="edge"><title>Node26&#45;&gt;Node34</title>
<path fill="none" stroke="midnightblue" d="M2373.13,-224.083C2376.51,-216.77 2381.42,-206.181 2385.62,-197.103"/>
<polygon fill="midnightblue" stroke="midnightblue" points="2388.92,-198.296 2389.95,-187.751 2382.57,-195.355 2388.92,-198.296"/>
</g>
<!-- Node26&#45;&gt;Node35 -->
<g id="edge39" class="edge"><title>Node26&#45;&gt;Node35</title>
<path fill="none" stroke="midnightblue" d="M2320.33,-228.627C2216.94,-219.337 1974.56,-197.559 1848.05,-186.192"/>
<polygon fill="midnightblue" stroke="midnightblue" points="1848.3,-182.701 1838.03,-185.292 1847.68,-189.673 1848.3,-182.701"/>
</g>
<!-- Node26&#45;&gt;Node36 -->
<g id="edge46" class="edge"><title>Node26&#45;&gt;Node36</title>
<path fill="none" stroke="midnightblue" d="M2320.31,-233.55C2254.73,-232.696 2135.49,-225.462 2042,-188 2013.4,-176.541 1985.43,-154.05 1968.45,-138.772"/>
<polygon fill="midnightblue" stroke="midnightblue" points="1970.76,-136.145 1961.04,-131.931 1966.01,-141.287 1970.76,-136.145"/>
</g>
<!-- Node26&#45;&gt;Node38 -->
<g id="edge47" class="edge"><title>Node26&#45;&gt;Node38</title>
<path fill="none" stroke="midnightblue" d="M2367.01,-224.433C2365.03,-215.424 2362.13,-200.805 2361,-188 2359.63,-172.458 2361.47,-154.834 2363.46,-141.862"/>
<polygon fill="midnightblue" stroke="midnightblue" points="2366.94,-142.276 2365.17,-131.829 2360.04,-141.097 2366.94,-142.276"/>
</g>
<!-- Node26&#45;&gt;Node39 -->
<g id="edge53" class="edge"><title>Node26&#45;&gt;Node39</title>
<path fill="none" stroke="midnightblue" d="M2329.7,-224.444C2285.68,-214.857 2214.36,-199.329 2167.57,-189.14"/>
<polygon fill="midnightblue" stroke="midnightblue" points="2168.2,-185.696 2157.69,-186.988 2166.71,-192.536 2168.2,-185.696"/>
</g>
<!-- Node40 -->
<g id="node40" class="node"><title>Node40</title>
<g id="a_node40"><a xlink:href="../../d1/da1/brushvacuumdata_8h.xhtml" target="_top" xlink:title="brushvacuumdata.h">
<polygon fill="white" stroke="black" points="2474.5,-168.5 2474.5,-187.5 2575.5,-187.5 2575.5,-168.5 2474.5,-168.5"/>
<text text-anchor="middle" x="2525" y="-175.5" font-family="Helvetica,sans-Serif" font-size="10.00">brushvacuumdata.h</text>
</a>
</g>
</g>
<!-- Node26&#45;&gt;Node40 -->
<g id="edge56" class="edge"><title>Node26&#45;&gt;Node40</title>
<path fill="none" stroke="midnightblue" d="M2393.72,-224.444C2419.85,-215.399 2461.26,-201.064 2490.58,-190.916"/>
<polygon fill="midnightblue" stroke="midnightblue" points="2492.09,-194.095 2500.4,-187.516 2489.8,-187.48 2492.09,-194.095"/>
</g>
<!-- Node41 -->
<g id="node41" class="node"><title>Node41</title>
<g id="a_node41"><a xlink:href="../../de/d51/currentactiondata_8h.xhtml" target="_top" xlink:title="currentactiondata.h">
<polygon fill="white" stroke="black" points="2594,-168.5 2594,-187.5 2694,-187.5 2694,-168.5 2594,-168.5"/>
<text text-anchor="middle" x="2644" y="-175.5" font-family="Helvetica,sans-Serif" font-size="10.00">currentactiondata.h</text>
</a>
</g>
</g>
<!-- Node26&#45;&gt;Node41 -->
<g id="edge59" class="edge"><title>Node26&#45;&gt;Node41</title>
<path fill="none" stroke="midnightblue" d="M2412.57,-224.444C2460.85,-214.964 2538.71,-199.675 2590.61,-189.483"/>
<polygon fill="midnightblue" stroke="midnightblue" points="2591.49,-192.878 2600.63,-187.516 2590.14,-186.009 2591.49,-192.878"/>
</g>
<!-- Node26&#45;&gt;Node42 -->
<g id="edge62" class="edge"><title>Node26&#45;&gt;Node42</title>
<path fill="none" stroke="midnightblue" d="M2417.82,-229.219C2522.17,-221.041 2765.02,-201.459 2867.78,-187.846"/>
<polygon fill="midnightblue" stroke="midnightblue" points="2868.42,-191.29 2877.86,-186.465 2867.47,-184.355 2868.42,-191.29"/>
</g>
<!-- Node30&#45;&gt;Node18 -->
<g id="edge33" class="edge"><title>Node30&#45;&gt;Node18</title>
<path fill="none" stroke="midnightblue" d="M1918.73,-57.0164C1921.86,-56.6443 1924.97,-56.3013 1928,-56 2234.75,-25.5035 2607.31,-14.5974 2723.58,-11.7984"/>
<polygon fill="midnightblue" stroke="midnightblue" points="2723.79,-15.2944 2733.7,-11.5596 2723.63,-8.29636 2723.79,-15.2944"/>
</g>
<!-- Node31 -->
<g id="node31" class="node"><title>Node31</title>
<polygon fill="white" stroke="#bfbfbf" points="2120.5,-0.5 2120.5,-19.5 2185.5,-19.5 2185.5,-0.5 2120.5,-0.5"/>
<text text-anchor="middle" x="2153" y="-7.5" font-family="Helvetica,sans-Serif" font-size="10.00">QDateTime</text>
</g>
<!-- Node30&#45;&gt;Node31 -->
<g id="edge34" class="edge"><title>Node30&#45;&gt;Node31</title>
<path fill="none" stroke="midnightblue" d="M1911.48,-56.4435C1966.01,-46.1835 2056.71,-29.1171 2110.08,-19.0755"/>
<polygon fill="midnightblue" stroke="midnightblue" points="2111.05,-22.4537 2120.23,-17.1649 2109.76,-15.5744 2111.05,-22.4537"/>
</g>
<!-- Node32 -->
<g id="node32" class="node"><title>Node32</title>
<polygon fill="white" stroke="#bfbfbf" points="1810.5,-0.5 1810.5,-19.5 1851.5,-19.5 1851.5,-0.5 1810.5,-0.5"/>
<text text-anchor="middle" x="1831" y="-7.5" font-family="Helvetica,sans-Serif" font-size="10.00">string</text>
</g>
<!-- Node30&#45;&gt;Node32 -->
<g id="edge35" class="edge"><title>Node30&#45;&gt;Node32</title>
<path fill="none" stroke="midnightblue" d="M1860.22,-56.083C1855.33,-48.5341 1848.17,-37.4948 1842.17,-28.2298"/>
<polygon fill="midnightblue" stroke="midnightblue" points="1845.05,-26.239 1836.67,-19.7511 1839.17,-30.0463 1845.05,-26.239"/>
</g>
<!-- Node30&#45;&gt;Node23 -->
<g id="edge36" class="edge"><title>Node30&#45;&gt;Node23</title>
<path fill="none" stroke="midnightblue" d="M1825.75,-56.4435C1777.14,-46.1091 1696.05,-28.8692 1648.96,-18.8581"/>
<polygon fill="midnightblue" stroke="midnightblue" points="1649.68,-15.4328 1639.17,-16.7767 1648.23,-22.2798 1649.68,-15.4328"/>
</g>
<!-- Node33 -->
<g id="node33" class="node"><title>Node33</title>
<polygon fill="white" stroke="#bfbfbf" points="1869.5,-0.5 1869.5,-19.5 1934.5,-19.5 1934.5,-0.5 1869.5,-0.5"/>
<text text-anchor="middle" x="1902" y="-7.5" font-family="Helvetica,sans-Serif" font-size="10.00">QStringList</text>
</g>
<!-- Node30&#45;&gt;Node33 -->
<g id="edge37" class="edge"><title>Node30&#45;&gt;Node33</title>
<path fill="none" stroke="midnightblue" d="M1871.94,-56.083C1876.98,-48.5341 1884.34,-37.4948 1890.51,-28.2298"/>
<polygon fill="midnightblue" stroke="midnightblue" points="1893.53,-30.0131 1896.17,-19.7511 1887.71,-26.1301 1893.53,-30.0131"/>
</g>
<!-- Node35&#45;&gt;Node25 -->
<g id="edge40" class="edge"><title>Node35&#45;&gt;Node25</title>
<path fill="none" stroke="midnightblue" d="M1783.47,-168.291C1810.42,-153.613 1868.17,-124.345 1921,-112 1994.18,-94.9019 2522.85,-73.876 2668.14,-68.3709"/>
<polygon fill="midnightblue" stroke="midnightblue" points="2668.45,-71.8617 2678.31,-67.9871 2668.19,-64.8666 2668.45,-71.8617"/>
</g>
<!-- Node35&#45;&gt;Node22 -->
<g id="edge41" class="edge"><title>Node35&#45;&gt;Node22</title>
<path fill="none" stroke="midnightblue" d="M1757.24,-168.324C1747.23,-160.263 1732.11,-148.077 1720.07,-138.369"/>
<polygon fill="midnightblue" stroke="midnightblue" points="1721.94,-135.384 1711.96,-131.834 1717.55,-140.834 1721.94,-135.384"/>
</g>
<!-- Node35&#45;&gt;Node36 -->
<g id="edge42" class="edge"><title>Node35&#45;&gt;Node36</title>
<path fill="none" stroke="midnightblue" d="M1797.16,-168.444C1830.77,-158.579 1885.81,-142.424 1920.42,-132.268"/>
<polygon fill="midnightblue" stroke="midnightblue" points="1921.85,-135.497 1930.46,-129.323 1919.87,-128.781 1921.85,-135.497"/>
</g>
<!-- Node35&#45;&gt;Node30 -->
<g id="edge45" class="edge"><title>Node35&#45;&gt;Node30</title>
<path fill="none" stroke="midnightblue" d="M1772.56,-168.427C1779.72,-155.417 1794.49,-130.272 1811,-112 1821.18,-100.732 1834.29,-89.8956 1845.15,-81.6815"/>
<polygon fill="midnightblue" stroke="midnightblue" points="1847.3,-84.4429 1853.29,-75.6978 1843.16,-78.8043 1847.3,-84.4429"/>
</g>
<!-- Node37 -->
<g id="node37" class="node"><title>Node37</title>
<polygon fill="white" stroke="#bfbfbf" points="2387.5,-56.5 2387.5,-75.5 2442.5,-75.5 2442.5,-56.5 2387.5,-56.5"/>
<text text-anchor="middle" x="2415" y="-63.5" font-family="Helvetica,sans-Serif" font-size="10.00">QVariant</text>
</g>
<!-- Node36&#45;&gt;Node37 -->
<g id="edge43" class="edge"><title>Node36&#45;&gt;Node37</title>
<path fill="none" stroke="midnightblue" d="M1973.71,-118.468C2046.79,-109.945 2284.44,-82.2279 2377.31,-71.3954"/>
<polygon fill="midnightblue" stroke="midnightblue" points="2377.86,-74.8552 2387.39,-70.2202 2377.05,-67.9023 2377.86,-74.8552"/>
</g>
<!-- Node36&#45;&gt;Node17 -->
<g id="edge44" class="edge"><title>Node36&#45;&gt;Node17</title>
<path fill="none" stroke="midnightblue" d="M1953.65,-112.083C1954.98,-104.927 1956.88,-94.6353 1958.54,-85.6911"/>
<polygon fill="midnightblue" stroke="midnightblue" points="1962,-86.2212 1960.38,-75.7511 1955.12,-84.9466 1962,-86.2212"/>
</g>
<!-- Node38&#45;&gt;Node25 -->
<g id="edge48" class="edge"><title>Node38&#45;&gt;Node25</title>
<path fill="none" stroke="midnightblue" d="M2420.56,-112.444C2489.74,-101.39 2608.38,-82.4364 2668.21,-72.878"/>
<polygon fill="midnightblue" stroke="midnightblue" points="2669,-76.2955 2678.33,-71.2616 2667.9,-69.3831 2669,-76.2955"/>
</g>
<!-- Node38&#45;&gt;Node17 -->
<g id="edge49" class="edge"><title>Node38&#45;&gt;Node17</title>
<path fill="none" stroke="midnightblue" d="M2309.4,-113.32C2224.24,-101.965 2067.26,-81.0348 1997.28,-71.7037"/>
<polygon fill="midnightblue" stroke="midnightblue" points="1997.58,-68.2136 1987.21,-70.3612 1996.66,-75.1522 1997.58,-68.2136"/>
</g>
<!-- Node38&#45;&gt;Node37 -->
<g id="edge50" class="edge"><title>Node38&#45;&gt;Node37</title>
<path fill="none" stroke="midnightblue" d="M2374.93,-112.083C2381.85,-104.298 2392.07,-92.8015 2400.45,-83.3665"/>
<polygon fill="midnightblue" stroke="midnightblue" points="2403.19,-85.5505 2407.22,-75.7511 2397.96,-80.8999 2403.19,-85.5505"/>
</g>
<!-- Node38&#45;&gt;Node31 -->
<g id="edge51" class="edge"><title>Node38&#45;&gt;Node31</title>
<path fill="none" stroke="midnightblue" d="M2350.21,-112.368C2312.94,-93.2113 2223.11,-47.0355 2178.71,-24.2172"/>
<polygon fill="midnightblue" stroke="midnightblue" points="2180.21,-21.0502 2169.71,-19.5914 2177.01,-27.2759 2180.21,-21.0502"/>
</g>
<!-- Node38&#45;&gt;Node30 -->
<g id="edge52" class="edge"><title>Node38&#45;&gt;Node30</title>
<path fill="none" stroke="midnightblue" d="M2309.39,-115.872C2227.37,-108.4 2071.98,-93.6077 1929.02,-76.0772"/>
<polygon fill="midnightblue" stroke="midnightblue" points="1929.1,-72.5609 1918.74,-74.8103 1928.24,-79.5082 1929.1,-72.5609"/>
</g>
<!-- Node39&#45;&gt;Node38 -->
<g id="edge54" class="edge"><title>Node39&#45;&gt;Node38</title>
<path fill="none" stroke="midnightblue" d="M2157.56,-168.974C2200.21,-159.613 2270.88,-144.099 2318.19,-133.715"/>
<polygon fill="midnightblue" stroke="midnightblue" points="2319.19,-137.079 2328.2,-131.516 2317.69,-130.242 2319.19,-137.079"/>
</g>
<!-- Node39&#45;&gt;Node37 -->
<g id="edge55" class="edge"><title>Node39&#45;&gt;Node37</title>
<path fill="none" stroke="midnightblue" d="M2144.07,-168.368C2196.02,-148.93 2322.32,-101.674 2382.32,-79.2278"/>
<polygon fill="midnightblue" stroke="midnightblue" points="2383.9,-82.3738 2392.04,-75.5914 2381.45,-75.8177 2383.9,-82.3738"/>
</g>
<!-- Node40&#45;&gt;Node38 -->
<g id="edge57" class="edge"><title>Node40&#45;&gt;Node38</title>
<path fill="none" stroke="midnightblue" d="M2499.96,-168.444C2473.38,-159.359 2431.19,-144.939 2401.48,-134.783"/>
<polygon fill="midnightblue" stroke="midnightblue" points="2402.51,-131.439 2391.92,-131.516 2400.25,-138.062 2402.51,-131.439"/>
</g>
<!-- Node40&#45;&gt;Node37 -->
<g id="edge58" class="edge"><title>Node40&#45;&gt;Node37</title>
<path fill="none" stroke="midnightblue" d="M2516.37,-168.368C2497.89,-149.894 2454.29,-106.293 2430.74,-82.7436"/>
<polygon fill="midnightblue" stroke="midnightblue" points="2433.14,-80.1876 2423.59,-75.5914 2428.19,-85.1374 2433.14,-80.1876"/>
</g>
<!-- Node41&#45;&gt;Node38 -->
<g id="edge60" class="edge"><title>Node41&#45;&gt;Node38</title>
<path fill="none" stroke="midnightblue" d="M2600.11,-168.444C2551.48,-158.964 2473.05,-143.675 2420.78,-133.483"/>
<polygon fill="midnightblue" stroke="midnightblue" points="2421.17,-129.995 2410.69,-131.516 2419.83,-136.865 2421.17,-129.995"/>
</g>
<!-- Node41&#45;&gt;Node37 -->
<g id="edge61" class="edge"><title>Node41&#45;&gt;Node37</title>
<path fill="none" stroke="midnightblue" d="M2626.03,-168.368C2585.98,-149.131 2489.21,-102.648 2441.92,-79.9314"/>
<polygon fill="midnightblue" stroke="midnightblue" points="2443.42,-76.7664 2432.89,-75.5914 2440.38,-83.0762 2443.42,-76.7664"/>
</g>
<!-- Node42&#45;&gt;Node38 -->
<g id="edge63" class="edge"><title>Node42&#45;&gt;Node38</title>
<path fill="none" stroke="midnightblue" d="M2877.86,-169.533C2874.53,-168.972 2871.21,-168.45 2868,-168 2713.84,-146.372 2531.46,-133.045 2434.9,-126.946"/>
<polygon fill="midnightblue" stroke="midnightblue" points="2434.89,-123.438 2424.69,-126.308 2434.46,-130.425 2434.89,-123.438"/>
</g>
<!-- Node42&#45;&gt;Node37 -->
<g id="edge64" class="edge"><title>Node42&#45;&gt;Node37</title>
<path fill="none" stroke="midnightblue" d="M2877.83,-168.822C2785.23,-148.45 2545.05,-95.6115 2452.31,-75.2077"/>
<polygon fill="midnightblue" stroke="midnightblue" points="2453.03,-71.7836 2442.51,-73.0532 2451.53,-78.6201 2453.03,-71.7836"/>
</g>
<!-- Node42&#45;&gt;Node21 -->
<g id="edge65" class="edge"><title>Node42&#45;&gt;Node21</title>
<path fill="none" stroke="midnightblue" d="M2942.41,-168.444C2971.94,-159.226 3019.07,-144.516 3051.67,-134.34"/>
<polygon fill="midnightblue" stroke="midnightblue" points="3052.78,-137.66 3061.28,-131.339 3050.7,-130.978 3052.78,-137.66"/>
</g>
<!-- Node43&#45;&gt;Node36 -->
<g id="edge67" class="edge"><title>Node43&#45;&gt;Node36</title>
<path fill="none" stroke="midnightblue" d="M2578.27,-282.984C2438.22,-266.07 2053.28,-217.423 2004,-188 1985.07,-176.697 1970.23,-155.777 1961.33,-140.72"/>
<polygon fill="midnightblue" stroke="midnightblue" points="1964.3,-138.849 1956.36,-131.831 1958.19,-142.267 1964.3,-138.849"/>
</g>
<!-- Node43&#45;&gt;Node35 -->
<g id="edge68" class="edge"><title>Node43&#45;&gt;Node35</title>
<path fill="none" stroke="midnightblue" d="M2578.43,-286.947C2481.38,-282.545 2262.43,-270.377 2080,-244 1983.46,-230.041 1871.91,-204.481 1811.82,-189.919"/>
<polygon fill="midnightblue" stroke="midnightblue" points="1812.46,-186.473 1801.92,-187.506 1810.81,-193.274 1812.46,-186.473"/>
</g>
<!-- Node43&#45;&gt;Node26 -->
<g id="edge69" class="edge"><title>Node43&#45;&gt;Node26</title>
<path fill="none" stroke="midnightblue" d="M2587.8,-280.444C2542.35,-271.004 2469.16,-255.802 2420.09,-245.611"/>
<polygon fill="midnightblue" stroke="midnightblue" points="2420.51,-242.123 2410.01,-243.516 2419.08,-248.977 2420.51,-242.123"/>
</g>
<!-- Node43&#45;&gt;Node30 -->
<g id="edge70" class="edge"><title>Node43&#45;&gt;Node30</title>
<path fill="none" stroke="midnightblue" d="M2578.42,-287.401C2492.22,-283.949 2311.63,-273.553 2162,-244 2077.72,-227.354 2050.7,-232.143 1977,-188 1932.13,-161.125 1894.56,-110.623 1876.88,-84.1632"/>
<polygon fill="midnightblue" stroke="midnightblue" points="1879.68,-82.0534 1871.28,-75.591 1873.82,-85.8785 1879.68,-82.0534"/>
</g>
<!-- Node43&#45;&gt;Node38 -->
<g id="edge71" class="edge"><title>Node43&#45;&gt;Node38</title>
<path fill="none" stroke="midnightblue" d="M2614.42,-280.246C2585.66,-262.927 2519.66,-222.942 2465,-188 2438.27,-170.912 2407.88,-150.62 2388.13,-137.309"/>
<polygon fill="midnightblue" stroke="midnightblue" points="2389.84,-134.245 2379.6,-131.551 2385.93,-140.047 2389.84,-134.245"/>
</g>
<!-- Node43&#45;&gt;Node3 -->
<g id="edge72" class="edge"><title>Node43&#45;&gt;Node3</title>
<path fill="none" stroke="midnightblue" d="M2679.75,-286.84C2745.74,-282.969 2864,-272.385 2961,-244 3004.02,-231.41 3050.6,-207.52 3077.71,-192.474"/>
<polygon fill="midnightblue" stroke="midnightblue" points="3079.45,-195.508 3086.45,-187.553 3076.02,-189.408 3079.45,-195.508"/>
</g>
<!-- Node43&#45;&gt;Node27 -->
<g id="edge73" class="edge"><title>Node43&#45;&gt;Node27</title>
<path fill="none" stroke="midnightblue" d="M2645.96,-280.479C2663.41,-271.627 2691.32,-257.242 2715,-244 2745.29,-227.062 2779.57,-206.363 2801.46,-192.941"/>
<polygon fill="midnightblue" stroke="midnightblue" points="2803.35,-195.886 2810.04,-187.667 2799.68,-189.924 2803.35,-195.886"/>
</g>
<!-- Node44 -->
<g id="node44" class="node"><title>Node44</title>
<polygon fill="white" stroke="#bfbfbf" points="2657.5,-224.5 2657.5,-243.5 2706.5,-243.5 2706.5,-224.5 2657.5,-224.5"/>
<text text-anchor="middle" x="2682" y="-231.5" font-family="Helvetica,sans-Serif" font-size="10.00">QSlider</text>
</g>
<!-- Node43&#45;&gt;Node44 -->
<g id="edge74" class="edge"><title>Node43&#45;&gt;Node44</title>
<path fill="none" stroke="midnightblue" d="M2637.75,-280.083C2645.47,-272.22 2656.9,-260.569 2666.22,-251.081"/>
<polygon fill="midnightblue" stroke="midnightblue" points="2668.9,-253.34 2673.41,-243.751 2663.91,-248.436 2668.9,-253.34"/>
</g>
<!-- Node43&#45;&gt;Node19 -->
<g id="edge75" class="edge"><title>Node43&#45;&gt;Node19</title>
<path fill="none" stroke="midnightblue" d="M2679.61,-280.484C2719.89,-272.983 2777.38,-260.653 2826,-244 2845.94,-237.171 2849.22,-231.274 2869,-224 2892.7,-215.286 2958.15,-197.963 2998.54,-187.536"/>
<polygon fill="midnightblue" stroke="midnightblue" points="2999.66,-190.862 3008.47,-184.981 2997.92,-184.083 2999.66,-190.862"/>
</g>
<!-- Node43&#45;&gt;Node25 -->
<g id="edge76" class="edge"><title>Node43&#45;&gt;Node25</title>
<path fill="none" stroke="midnightblue" d="M2653.43,-280.433C2690.52,-267.539 2763.36,-242.67 2826,-224 2885.51,-206.264 2923.17,-237.242 2961,-188 3021.67,-109.027 2826,-79.2702 2741.71,-70.2907"/>
<polygon fill="midnightblue" stroke="midnightblue" points="2741.84,-66.7857 2731.53,-69.2504 2741.12,-73.7494 2741.84,-66.7857"/>
</g>
<!-- Node43&#45;&gt;Node42 -->
<g id="edge77" class="edge"><title>Node43&#45;&gt;Node42</title>
<path fill="none" stroke="midnightblue" d="M2628.81,-280.328C2629.01,-266.237 2631.62,-238.49 2648,-224 2683.07,-192.97 2804.84,-196.174 2867.55,-187.795"/>
<polygon fill="midnightblue" stroke="midnightblue" points="2868.47,-191.197 2877.82,-186.216 2867.4,-184.278 2868.47,-191.197"/>
</g>
<!-- Node45 -->
<g id="node45" class="node"><title>Node45</title>
<g id="a_node45"><a xlink:href="../../d7/d82/displaylogs_8h.xhtml" target="_top" xlink:title="displaylogs.h">
<polygon fill="white" stroke="black" points="2878,-224.5 2878,-243.5 2952,-243.5 2952,-224.5 2878,-224.5"/>
<text text-anchor="middle" x="2915" y="-231.5" font-family="Helvetica,sans-Serif" font-size="10.00">displaylogs.h</text>
</a>
</g>
</g>
<!-- Node43&#45;&gt;Node45 -->
<g id="edge78" class="edge"><title>Node43&#45;&gt;Node45</title>
<path fill="none" stroke="midnightblue" d="M2674.32,-280.444C2727.14,-270.469 2814.04,-254.063 2867.7,-243.931"/>
<polygon fill="midnightblue" stroke="midnightblue" points="2868.46,-247.348 2877.64,-242.054 2867.17,-240.47 2868.46,-247.348"/>
</g>
<!-- Node45&#45;&gt;Node3 -->
<g id="edge79" class="edge"><title>Node45&#45;&gt;Node3</title>
<path fill="none" stroke="midnightblue" d="M2944.47,-224.444C2976.73,-215.078 3028.52,-200.042 3063.62,-189.854"/>
<polygon fill="midnightblue" stroke="midnightblue" points="3064.86,-193.138 3073.48,-186.988 3062.91,-186.415 3064.86,-193.138"/>
</g>
<!-- Node45&#45;&gt;Node42 -->
<g id="edge80" class="edge"><title>Node45&#45;&gt;Node42</title>
<path fill="none" stroke="midnightblue" d="M2915,-224.083C2915,-217.006 2915,-206.861 2915,-197.986"/>
<polygon fill="midnightblue" stroke="midnightblue" points="2918.5,-197.751 2915,-187.751 2911.5,-197.751 2918.5,-197.751"/>
</g>
</g>
</svg>
