<?xml version="1.0" encoding="UTF-8" standalone="no"?>
<!DOCTYPE svg PUBLIC "-//W3C//DTD SVG 1.1//EN"
 "http://www.w3.org/Graphics/SVG/1.1/DTD/svg11.dtd">
<!-- Generated by graphviz version 2.30.1 (20130214.1330)
 -->
<!-- Title: GUI/roombagui&#45;build&#45;Desktop_Qt_5_0_1_MSVC2010_32bit&#45;Debug/ui_information.h Pages: 1 -->
<svg width="1437pt" height="106pt"
 viewBox="0.00 0.00 1437.00 106.00" xmlns="http://www.w3.org/2000/svg" xmlns:xlink="http://www.w3.org/1999/xlink">
<g id="graph0" class="graph" transform="scale(1 1) rotate(0) translate(4 102)">
<title>GUI/roombagui&#45;build&#45;Desktop_Qt_5_0_1_MSVC2010_32bit&#45;Debug/ui_information.h</title>
<polygon fill="white" stroke="white" points="-4,5 -4,-102 1434,-102 1434,5 -4,5"/>
<!-- Node1 -->
<g id="node1" class="node"><title>Node1</title>
<polygon fill="#bfbfbf" stroke="black" points="633,-56.5 633,-97.5 791,-97.5 791,-56.5 633,-56.5"/>
<text text-anchor="start" x="641" y="-85.5" font-family="Helvetica,sans-Serif" font-size="10.00">GUI/roombagui&#45;build</text>
<text text-anchor="start" x="641" y="-74.5" font-family="Helvetica,sans-Serif" font-size="10.00">&#45;Desktop_Qt_5_0_1_MSVC2010</text>
<text text-anchor="middle" x="712" y="-63.5" font-family="Helvetica,sans-Serif" font-size="10.00">_32bit&#45;Debug/ui_information.h</text>
</g>
<!-- Node2 -->
<g id="node2" class="node"><title>Node2</title>
<polygon fill="white" stroke="#bfbfbf" points="-0.5,-0.5 -0.5,-19.5 88.5,-19.5 88.5,-0.5 -0.5,-0.5"/>
<text text-anchor="middle" x="44" y="-7.5" font-family="Helvetica,sans-Serif" font-size="10.00">QtCore/QVariant</text>
</g>
<!-- Node1&#45;&gt;Node2 -->
<g id="edge1" class="edge"><title>Node1&#45;&gt;Node2</title>
<path fill="none" stroke="midnightblue" d="M632.661,-70.7478C517.248,-62.6686 296.128,-45.5383 98.7578,-20.1481"/>
<polygon fill="midnightblue" stroke="midnightblue" points="99.1498,-16.6697 88.7828,-18.8552 98.2499,-23.6117 99.1498,-16.6697"/>
</g>
<!-- Node3 -->
<g id="node3" class="node"><title>Node3</title>
<polygon fill="white" stroke="#bfbfbf" points="106.5,-0.5 106.5,-19.5 207.5,-19.5 207.5,-0.5 106.5,-0.5"/>
<text text-anchor="middle" x="157" y="-7.5" font-family="Helvetica,sans-Serif" font-size="10.00">QtWidgets/QAction</text>
</g>
<!-- Node1&#45;&gt;Node3 -->
<g id="edge2" class="edge"><title>Node1&#45;&gt;Node3</title>
<path fill="none" stroke="midnightblue" d="M632.591,-67.9121C536.831,-57.9569 370.741,-40.0469 217.776,-20.0596"/>
<polygon fill="midnightblue" stroke="midnightblue" points="218.091,-16.571 207.721,-18.7401 217.18,-23.5115 218.091,-16.571"/>
</g>
<!-- Node4 -->
<g id="node4" class="node"><title>Node4</title>
<polygon fill="white" stroke="#bfbfbf" points="226,-0.5 226,-19.5 348,-19.5 348,-0.5 226,-0.5"/>
<text text-anchor="middle" x="287" y="-7.5" font-family="Helvetica,sans-Serif" font-size="10.00">QtWidgets/QApplication</text>
</g>
<!-- Node1&#45;&gt;Node4 -->
<g id="edge3" class="edge"><title>Node1&#45;&gt;Node4</title>
<path fill="none" stroke="midnightblue" d="M632.559,-63.8502C551.903,-51.5146 428.454,-32.6341 353.004,-21.0948"/>
<polygon fill="midnightblue" stroke="midnightblue" points="353.1,-17.5689 342.686,-19.5167 352.042,-24.4884 353.1,-17.5689"/>
</g>
<!-- Node5 -->
<g id="node5" class="node"><title>Node5</title>
<polygon fill="white" stroke="#bfbfbf" points="366,-0.5 366,-19.5 494,-19.5 494,-0.5 366,-0.5"/>
<text text-anchor="middle" x="430" y="-7.5" font-family="Helvetica,sans-Serif" font-size="10.00">QtWidgets/QButtonGroup</text>
</g>
<!-- Node1&#45;&gt;Node5 -->
<g id="edge4" class="edge"><title>Node1&#45;&gt;Node5</title>
<path fill="none" stroke="midnightblue" d="M632.697,-57.7209C582.475,-46.1449 519.245,-31.5706 476.879,-21.8055"/>
<polygon fill="midnightblue" stroke="midnightblue" points="477.641,-18.3893 467.11,-19.5537 476.068,-25.2105 477.641,-18.3893"/>
</g>
<!-- Node6 -->
<g id="node6" class="node"><title>Node6</title>
<polygon fill="white" stroke="#bfbfbf" points="512.5,-0.5 512.5,-19.5 631.5,-19.5 631.5,-0.5 512.5,-0.5"/>
<text text-anchor="middle" x="572" y="-7.5" font-family="Helvetica,sans-Serif" font-size="10.00">QtWidgets/QCheckBox</text>
</g>
<!-- Node1&#45;&gt;Node6 -->
<g id="edge5" class="edge"><title>Node1&#45;&gt;Node6</title>
<path fill="none" stroke="midnightblue" d="M669.995,-56.4979C647.292,-45.9572 619.886,-33.2326 599.835,-23.9235"/>
<polygon fill="midnightblue" stroke="midnightblue" points="601.18,-20.6891 590.636,-19.6525 598.232,-27.0382 601.18,-20.6891"/>
</g>
<!-- Node7 -->
<g id="node7" class="node"><title>Node7</title>
<polygon fill="white" stroke="#bfbfbf" points="649.5,-0.5 649.5,-19.5 774.5,-19.5 774.5,-0.5 649.5,-0.5"/>
<text text-anchor="middle" x="712" y="-7.5" font-family="Helvetica,sans-Serif" font-size="10.00">QtWidgets/QHeaderView</text>
</g>
<!-- Node1&#45;&gt;Node7 -->
<g id="edge6" class="edge"><title>Node1&#45;&gt;Node7</title>
<path fill="none" stroke="midnightblue" d="M712,-56.4979C712,-48.0653 712,-38.2351 712,-29.874"/>
<polygon fill="midnightblue" stroke="midnightblue" points="715.5,-29.6525 712,-19.6525 708.5,-29.6525 715.5,-29.6525"/>
</g>
<!-- Node8 -->
<g id="node8" class="node"><title>Node8</title>
<polygon fill="white" stroke="#bfbfbf" points="792.5,-0.5 792.5,-19.5 889.5,-19.5 889.5,-0.5 792.5,-0.5"/>
<text text-anchor="middle" x="841" y="-7.5" font-family="Helvetica,sans-Serif" font-size="10.00">QtWidgets/QLabel</text>
</g>
<!-- Node1&#45;&gt;Node8 -->
<g id="edge7" class="edge"><title>Node1&#45;&gt;Node8</title>
<path fill="none" stroke="midnightblue" d="M750.704,-56.4979C771.433,-46.053 796.418,-33.4638 814.846,-24.1782"/>
<polygon fill="midnightblue" stroke="midnightblue" points="816.473,-27.278 823.828,-19.6525 813.323,-21.0267 816.473,-27.278"/>
</g>
<!-- Node9 -->
<g id="node9" class="node"><title>Node9</title>
<polygon fill="white" stroke="#bfbfbf" points="907.5,-0.5 907.5,-19.5 1016.5,-19.5 1016.5,-0.5 907.5,-0.5"/>
<text text-anchor="middle" x="962" y="-7.5" font-family="Helvetica,sans-Serif" font-size="10.00">QtWidgets/QLineEdit</text>
</g>
<!-- Node1&#45;&gt;Node9 -->
<g id="edge8" class="edge"><title>Node1&#45;&gt;Node9</title>
<path fill="none" stroke="midnightblue" d="M787.008,-56.4979C830.261,-45.2522 883.074,-31.5208 919.295,-22.1033"/>
<polygon fill="midnightblue" stroke="midnightblue" points="920.252,-25.4709 929.05,-19.5671 918.491,-18.6961 920.252,-25.4709"/>
</g>
<!-- Node10 -->
<g id="node10" class="node"><title>Node10</title>
<polygon fill="white" stroke="#bfbfbf" points="1035,-0.5 1035,-19.5 1163,-19.5 1163,-0.5 1035,-0.5"/>
<text text-anchor="middle" x="1099" y="-7.5" font-family="Helvetica,sans-Serif" font-size="10.00">QtWidgets/QProgressBar</text>
</g>
<!-- Node1&#45;&gt;Node10 -->
<g id="edge9" class="edge"><title>Node1&#45;&gt;Node10</title>
<path fill="none" stroke="midnightblue" d="M791.249,-62.6894C864.447,-50.3952 971.628,-32.3932 1038.26,-21.2021"/>
<polygon fill="midnightblue" stroke="midnightblue" points="1038.91,-24.6423 1048.19,-19.5341 1037.75,-17.739 1038.91,-24.6423"/>
</g>
<!-- Node11 -->
<g id="node11" class="node"><title>Node11</title>
<polygon fill="white" stroke="#bfbfbf" points="1181.5,-0.5 1181.5,-19.5 1306.5,-19.5 1306.5,-0.5 1181.5,-0.5"/>
<text text-anchor="middle" x="1244" y="-7.5" font-family="Helvetica,sans-Serif" font-size="10.00">QtWidgets/QPushButton</text>
</g>
<!-- Node1&#45;&gt;Node11 -->
<g id="edge10" class="edge"><title>Node1&#45;&gt;Node11</title>
<path fill="none" stroke="midnightblue" d="M791.375,-66.4154C880.918,-55.5853 1031.21,-37.3543 1171.12,-20.1055"/>
<polygon fill="midnightblue" stroke="midnightblue" points="1171.68,-23.5633 1181.17,-18.8654 1170.82,-16.616 1171.68,-23.5633"/>
</g>
<!-- Node12 -->
<g id="node12" class="node"><title>Node12</title>
<polygon fill="white" stroke="#bfbfbf" points="1325,-0.5 1325,-19.5 1429,-19.5 1429,-0.5 1325,-0.5"/>
<text text-anchor="middle" x="1377" y="-7.5" font-family="Helvetica,sans-Serif" font-size="10.00">QtWidgets/QWidget</text>
</g>
<!-- Node1&#45;&gt;Node12 -->
<g id="edge11" class="edge"><title>Node1&#45;&gt;Node12</title>
<path fill="none" stroke="midnightblue" d="M791.155,-69.9576C906.538,-60.8529 1127.6,-42.2886 1315,-20 1315.1,-19.988 1315.2,-19.9759 1315.3,-19.9638"/>
<polygon fill="midnightblue" stroke="midnightblue" points="1315.44,-23.4738 1324.93,-18.7572 1314.57,-16.5281 1315.44,-23.4738"/>
</g>
</g>
</svg>
