<?xml version="1.0" encoding="UTF-8" standalone="no"?>
<!DOCTYPE svg PUBLIC "-//W3C//DTD SVG 1.1//EN"
 "http://www.w3.org/Graphics/SVG/1.1/DTD/svg11.dtd">
<!-- Generated by graphviz version 2.30.1 (20130214.1330)
 -->
<!-- Title: Hoofdprogramma/ourProgram/src/jsonTranslateCapsule.h Pages: 1 -->
<svg width="553pt" height="432pt"
 viewBox="0.00 0.00 552.85 432.00" xmlns="http://www.w3.org/2000/svg" xmlns:xlink="http://www.w3.org/1999/xlink">
<g id="graph0" class="graph" transform="scale(1 1) rotate(0) translate(4 428)">
<title>Hoofdprogramma/ourProgram/src/jsonTranslateCapsule.h</title>
<polygon fill="white" stroke="white" points="-4,5 -4,-428 549.846,-428 549.846,5 -4,5"/>
<!-- Node1 -->
<g id="node1" class="node"><title>Node1</title>
<polygon fill="#bfbfbf" stroke="black" points="198.346,-393 198.346,-423 341.346,-423 341.346,-393 198.346,-393"/>
<text text-anchor="start" x="206.346" y="-411" font-family="Helvetica,sans-Serif" font-size="10.00">Hoofdprogramma/ourProgram</text>
<text text-anchor="middle" x="269.846" y="-400" font-family="Helvetica,sans-Serif" font-size="10.00">/src/jsonTranslateCapsule.h</text>
</g>
<!-- Node2 -->
<g id="node2" class="node"><title>Node2</title>
<g id="a_node2"><a xlink:href="../../dd/d50/our_program_8h.xhtml" target="_top" xlink:title="RTSystem/ourProgram.h">
<polygon fill="white" stroke="black" points="19.8455,-224.5 19.8455,-243.5 143.846,-243.5 143.846,-224.5 19.8455,-224.5"/>
<text text-anchor="middle" x="81.8455" y="-231.5" font-family="Helvetica,sans-Serif" font-size="10.00">RTSystem/ourProgram.h</text>
</a>
</g>
</g>
<!-- Node1&#45;&gt;Node2 -->
<g id="edge1" class="edge"><title>Node1&#45;&gt;Node2</title>
<path fill="none" stroke="midnightblue" d="M241.141,-392.821C223.899,-383.588 202.045,-370.575 184.846,-356 146.961,-323.896 111.429,-277.116 93.6714,-252.171"/>
<polygon fill="midnightblue" stroke="midnightblue" points="96.3764,-249.932 87.7681,-243.756 90.6458,-253.952 96.3764,-249.932"/>
</g>
<!-- Node5 -->
<g id="node5" class="node"><title>Node5</title>
<g id="a_node5"><a xlink:href="../../d4/d51/json_protocol_8h.xhtml" target="_top" xlink:title="jsonProtocol.h">
<polygon fill="white" stroke="black" points="194.346,-336.5 194.346,-355.5 273.346,-355.5 273.346,-336.5 194.346,-336.5"/>
<text text-anchor="middle" x="233.846" y="-343.5" font-family="Helvetica,sans-Serif" font-size="10.00">jsonProtocol.h</text>
</a>
</g>
</g>
<!-- Node1&#45;&gt;Node5 -->
<g id="edge4" class="edge"><title>Node1&#45;&gt;Node5</title>
<path fill="none" stroke="midnightblue" d="M261.314,-392.781C256.245,-384.332 249.774,-373.548 244.387,-364.569"/>
<polygon fill="midnightblue" stroke="midnightblue" points="247.23,-362.505 239.084,-355.731 241.228,-366.106 247.23,-362.505"/>
</g>
<!-- Node21 -->
<g id="node21" class="node"><title>Node21</title>
<g id="a_node21"><a xlink:href="../../d2/d45/tcp_protocol_8h.xhtml" target="_top" xlink:title="tcpProtocol.h">
<polygon fill="white" stroke="black" points="21.8455,-280.5 21.8455,-299.5 95.8455,-299.5 95.8455,-280.5 21.8455,-280.5"/>
<text text-anchor="middle" x="58.8455" y="-287.5" font-family="Helvetica,sans-Serif" font-size="10.00">tcpProtocol.h</text>
</a>
</g>
</g>
<!-- Node1&#45;&gt;Node21 -->
<g id="edge33" class="edge"><title>Node1&#45;&gt;Node21</title>
<path fill="none" stroke="midnightblue" d="M197.983,-393.796C168.827,-386.064 135.947,-374.128 109.846,-356 92.0414,-343.635 77.4849,-323.217 68.5462,-308.563"/>
<polygon fill="midnightblue" stroke="midnightblue" points="71.3352,-306.396 63.2846,-299.508 65.2829,-309.913 71.3352,-306.396"/>
</g>
<!-- Node22 -->
<g id="node22" class="node"><title>Node22</title>
<polygon fill="white" stroke="#bfbfbf" points="334.346,-336.5 334.346,-355.5 399.346,-355.5 399.346,-336.5 334.346,-336.5"/>
<text text-anchor="middle" x="366.846" y="-343.5" font-family="Helvetica,sans-Serif" font-size="10.00">winsock2.h</text>
</g>
<!-- Node1&#45;&gt;Node22 -->
<g id="edge35" class="edge"><title>Node1&#45;&gt;Node22</title>
<path fill="none" stroke="midnightblue" d="M292.833,-392.781C308.329,-383.196 328.682,-370.606 344.122,-361.056"/>
<polygon fill="midnightblue" stroke="midnightblue" points="346.35,-363.793 353.014,-355.556 342.668,-357.84 346.35,-363.793"/>
</g>
<!-- Node23 -->
<g id="node23" class="node"><title>Node23</title>
<polygon fill="white" stroke="#bfbfbf" points="417.346,-336.5 417.346,-355.5 480.346,-355.5 480.346,-336.5 417.346,-336.5"/>
<text text-anchor="middle" x="448.846" y="-343.5" font-family="Helvetica,sans-Serif" font-size="10.00">ws2tcpip.h</text>
</g>
<!-- Node1&#45;&gt;Node23 -->
<g id="edge36" class="edge"><title>Node1&#45;&gt;Node23</title>
<path fill="none" stroke="midnightblue" d="M311.813,-392.933C342.779,-382.553 384.439,-368.589 413.667,-358.792"/>
<polygon fill="midnightblue" stroke="midnightblue" points="415.08,-362.009 423.449,-355.513 412.855,-355.372 415.08,-362.009"/>
</g>
<!-- Node20 -->
<g id="node20" class="node"><title>Node20</title>
<polygon fill="white" stroke="#bfbfbf" points="299.846,-224.5 299.846,-243.5 345.846,-243.5 345.846,-224.5 299.846,-224.5"/>
<text text-anchor="middle" x="322.846" y="-231.5" font-family="Helvetica,sans-Serif" font-size="10.00">stdio.h</text>
</g>
<!-- Node1&#45;&gt;Node20 -->
<g id="edge37" class="edge"><title>Node1&#45;&gt;Node20</title>
<path fill="none" stroke="midnightblue" d="M274.183,-392.925C283.731,-361.939 306.562,-287.844 317.205,-253.304"/>
<polygon fill="midnightblue" stroke="midnightblue" points="320.6,-254.172 320.2,-243.585 313.911,-252.111 320.6,-254.172"/>
</g>
<!-- Node3 -->
<g id="node3" class="node"><title>Node3</title>
<polygon fill="white" stroke="#bfbfbf" points="13.8455,-168.5 13.8455,-187.5 95.8455,-187.5 95.8455,-168.5 13.8455,-168.5"/>
<text text-anchor="middle" x="54.8455" y="-175.5" font-family="Helvetica,sans-Serif" font-size="10.00">RTStructures.h</text>
</g>
<!-- Node2&#45;&gt;Node3 -->
<g id="edge2" class="edge"><title>Node2&#45;&gt;Node3</title>
<path fill="none" stroke="midnightblue" d="M77.387,-224.083C73.6912,-216.691 68.3222,-205.953 63.7511,-196.811"/>
<polygon fill="midnightblue" stroke="midnightblue" points="66.8237,-195.13 59.2211,-187.751 60.5627,-198.261 66.8237,-195.13"/>
</g>
<!-- Node4 -->
<g id="node4" class="node"><title>Node4</title>
<polygon fill="white" stroke="#bfbfbf" points="151.846,-112.5 151.846,-131.5 205.846,-131.5 205.846,-112.5 151.846,-112.5"/>
<text text-anchor="middle" x="178.846" y="-119.5" font-family="Helvetica,sans-Serif" font-size="10.00">iostream</text>
</g>
<!-- Node2&#45;&gt;Node4 -->
<g id="edge3" class="edge"><title>Node2&#45;&gt;Node4</title>
<path fill="none" stroke="midnightblue" d="M56.9687,-224.479C27.9951,-213.202 -13.6833,-191.93 4.84552,-168 21.4156,-146.599 95.437,-133.538 141.433,-127.341"/>
<polygon fill="midnightblue" stroke="midnightblue" points="142.164,-130.776 151.63,-126.018 141.263,-123.834 142.164,-130.776"/>
</g>
<!-- Node5&#45;&gt;Node2 -->
<g id="edge5" class="edge"><title>Node5&#45;&gt;Node2</title>
<path fill="none" stroke="midnightblue" d="M221.918,-336.368C195.946,-317.573 134.035,-272.768 101.928,-249.533"/>
<polygon fill="midnightblue" stroke="midnightblue" points="103.87,-246.619 93.7173,-243.591 99.7665,-252.29 103.87,-246.619"/>
</g>
<!-- Node6 -->
<g id="node6" class="node"><title>Node6</title>
<g id="a_node6"><a xlink:href="../../d8/d2e/json_command_8h.xhtml" target="_top" xlink:title="jsonCommand.h">
<polygon fill="white" stroke="black" points="190.346,-280.5 190.346,-299.5 277.346,-299.5 277.346,-280.5 190.346,-280.5"/>
<text text-anchor="middle" x="233.846" y="-287.5" font-family="Helvetica,sans-Serif" font-size="10.00">jsonCommand.h</text>
</a>
</g>
</g>
<!-- Node5&#45;&gt;Node6 -->
<g id="edge6" class="edge"><title>Node5&#45;&gt;Node6</title>
<path fill="none" stroke="midnightblue" d="M233.846,-336.083C233.846,-329.006 233.846,-318.861 233.846,-309.986"/>
<polygon fill="midnightblue" stroke="midnightblue" points="237.346,-309.751 233.846,-299.751 230.346,-309.751 237.346,-309.751"/>
</g>
<!-- Node6&#45;&gt;Node2 -->
<g id="edge7" class="edge"><title>Node6&#45;&gt;Node2</title>
<path fill="none" stroke="midnightblue" d="M209.761,-280.444C184.301,-271.399 143.952,-257.064 115.386,-246.916"/>
<polygon fill="midnightblue" stroke="midnightblue" points="116.412,-243.566 105.818,-243.516 114.069,-250.162 116.412,-243.566"/>
</g>
<!-- Node7 -->
<g id="node7" class="node"><title>Node7</title>
<g id="a_node7"><a xlink:href="../../d4/d05/json_8h.xhtml" target="_top" xlink:title="../../include/json.h">
<polygon fill="white" stroke="black" points="186.346,-224.5 186.346,-243.5 281.346,-243.5 281.346,-224.5 186.346,-224.5"/>
<text text-anchor="middle" x="233.846" y="-231.5" font-family="Helvetica,sans-Serif" font-size="10.00">../../include/json.h</text>
</a>
</g>
</g>
<!-- Node6&#45;&gt;Node7 -->
<g id="edge8" class="edge"><title>Node6&#45;&gt;Node7</title>
<path fill="none" stroke="midnightblue" d="M233.846,-280.083C233.846,-273.006 233.846,-262.861 233.846,-253.986"/>
<polygon fill="midnightblue" stroke="midnightblue" points="237.346,-253.751 233.846,-243.751 230.346,-253.751 237.346,-253.751"/>
</g>
<!-- Node6&#45;&gt;Node20 -->
<g id="edge32" class="edge"><title>Node6&#45;&gt;Node20</title>
<path fill="none" stroke="midnightblue" d="M248.145,-280.324C262.028,-271.9 283.338,-258.971 299.649,-249.074"/>
<polygon fill="midnightblue" stroke="midnightblue" points="301.848,-251.834 308.582,-243.655 298.217,-245.85 301.848,-251.834"/>
</g>
<!-- Node8 -->
<g id="node8" class="node"><title>Node8</title>
<g id="a_node8"><a xlink:href="../../d3/dea/autolink_8h.xhtml" target="_top" xlink:title="autolink.h">
<polygon fill="white" stroke="black" points="114.346,-168.5 114.346,-187.5 173.346,-187.5 173.346,-168.5 114.346,-168.5"/>
<text text-anchor="middle" x="143.846" y="-175.5" font-family="Helvetica,sans-Serif" font-size="10.00">autolink.h</text>
</a>
</g>
</g>
<!-- Node7&#45;&gt;Node8 -->
<g id="edge9" class="edge"><title>Node7&#45;&gt;Node8</title>
<path fill="none" stroke="midnightblue" d="M219.385,-224.324C205.346,-215.9 183.797,-202.971 167.302,-193.074"/>
<polygon fill="midnightblue" stroke="midnightblue" points="168.645,-189.798 158.27,-187.655 165.044,-195.801 168.645,-189.798"/>
</g>
<!-- Node10 -->
<g id="node10" class="node"><title>Node10</title>
<g id="a_node10"><a xlink:href="../../d4/d3f/value_8h.xhtml" target="_top" xlink:title="value.h">
<polygon fill="white" stroke="black" points="262.346,-112.5 262.346,-131.5 309.346,-131.5 309.346,-112.5 262.346,-112.5"/>
<text text-anchor="middle" x="285.846" y="-119.5" font-family="Helvetica,sans-Serif" font-size="10.00">value.h</text>
</a>
</g>
</g>
<!-- Node7&#45;&gt;Node10 -->
<g id="edge12" class="edge"><title>Node7&#45;&gt;Node10</title>
<path fill="none" stroke="midnightblue" d="M241.672,-224.3C249.087,-215.65 260.07,-201.726 266.846,-188 274.164,-173.175 279.176,-155.023 282.206,-141.674"/>
<polygon fill="midnightblue" stroke="midnightblue" points="285.656,-142.274 284.293,-131.767 278.807,-140.831 285.656,-142.274"/>
</g>
<!-- Node15 -->
<g id="node15" class="node"><title>Node15</title>
<g id="a_node15"><a xlink:href="../../d6/dda/reader_8h.xhtml" target="_top" xlink:title="reader.h">
<polygon fill="white" stroke="black" points="313.846,-168.5 313.846,-187.5 365.846,-187.5 365.846,-168.5 313.846,-168.5"/>
<text text-anchor="middle" x="339.846" y="-175.5" font-family="Helvetica,sans-Serif" font-size="10.00">reader.h</text>
</a>
</g>
</g>
<!-- Node7&#45;&gt;Node15 -->
<g id="edge18" class="edge"><title>Node7&#45;&gt;Node15</title>
<path fill="none" stroke="midnightblue" d="M250.876,-224.324C267.875,-215.664 294.222,-202.242 313.838,-192.249"/>
<polygon fill="midnightblue" stroke="midnightblue" points="315.535,-195.312 322.857,-187.655 312.358,-189.075 315.535,-195.312"/>
</g>
<!-- Node19 -->
<g id="node19" class="node"><title>Node19</title>
<g id="a_node19"><a xlink:href="../../d9/d53/writer_8h.xhtml" target="_top" xlink:title="writer.h">
<polygon fill="white" stroke="black" points="209.846,-168.5 209.846,-187.5 257.846,-187.5 257.846,-168.5 209.846,-168.5"/>
<text text-anchor="middle" x="233.846" y="-175.5" font-family="Helvetica,sans-Serif" font-size="10.00">writer.h</text>
</a>
</g>
</g>
<!-- Node7&#45;&gt;Node19 -->
<g id="edge26" class="edge"><title>Node7&#45;&gt;Node19</title>
<path fill="none" stroke="midnightblue" d="M233.846,-224.083C233.846,-217.006 233.846,-206.861 233.846,-197.986"/>
<polygon fill="midnightblue" stroke="midnightblue" points="237.346,-197.751 233.846,-187.751 230.346,-197.751 237.346,-197.751"/>
</g>
<!-- Node16 -->
<g id="node16" class="node"><title>Node16</title>
<g id="a_node16"><a xlink:href="../../de/d47/features_8h.xhtml" target="_top" xlink:title="features.h">
<polygon fill="white" stroke="black" points="486.346,-112.5 486.346,-131.5 545.346,-131.5 545.346,-112.5 486.346,-112.5"/>
<text text-anchor="middle" x="515.846" y="-119.5" font-family="Helvetica,sans-Serif" font-size="10.00">features.h</text>
</a>
</g>
</g>
<!-- Node7&#45;&gt;Node16 -->
<g id="edge31" class="edge"><title>Node7&#45;&gt;Node16</title>
<path fill="none" stroke="midnightblue" d="M264.2,-224.488C293.011,-216.134 337.36,-202.559 374.846,-188 415.753,-172.113 461.656,-150.144 489.656,-136.254"/>
<polygon fill="midnightblue" stroke="midnightblue" points="491.392,-139.3 498.775,-131.702 488.265,-133.037 491.392,-139.3"/>
</g>
<!-- Node9 -->
<g id="node9" class="node"><title>Node9</title>
<g id="a_node9"><a xlink:href="../../db/d16/config_8h.xhtml" target="_top" xlink:title="config.h">
<polygon fill="white" stroke="black" points="195.846,-0.5 195.846,-19.5 245.846,-19.5 245.846,-0.5 195.846,-0.5"/>
<text text-anchor="middle" x="220.846" y="-7.5" font-family="Helvetica,sans-Serif" font-size="10.00">config.h</text>
</a>
</g>
</g>
<!-- Node8&#45;&gt;Node9 -->
<g id="edge10" class="edge"><title>Node8&#45;&gt;Node9</title>
<path fill="none" stroke="midnightblue" d="M138.762,-168.273C127.204,-147.169 101.689,-92.4296 124.846,-56 138.229,-34.9458 164.35,-23.5717 185.97,-17.5293"/>
<polygon fill="midnightblue" stroke="midnightblue" points="186.993,-20.8808 195.834,-15.0423 185.282,-14.0932 186.993,-20.8808"/>
</g>
<!-- Node8&#45;&gt;Node8 -->
<g id="edge11" class="edge"><title>Node8&#45;&gt;Node8</title>
<path fill="none" stroke="midnightblue" d="M164.136,-187.575C177.671,-190.27 190.846,-187.078 190.846,-178 190.846,-171.262 183.588,-167.767 174.313,-167.515"/>
<polygon fill="midnightblue" stroke="midnightblue" points="173.784,-164.048 164.136,-168.425 174.408,-171.02 173.784,-164.048"/>
</g>
<!-- Node11 -->
<g id="node11" class="node"><title>Node11</title>
<g id="a_node11"><a xlink:href="../../d2/d84/forwards_8h.xhtml" target="_top" xlink:title="forwards.h">
<polygon fill="white" stroke="black" points="325.346,-56.5 325.346,-75.5 386.346,-75.5 386.346,-56.5 325.346,-56.5"/>
<text text-anchor="middle" x="355.846" y="-63.5" font-family="Helvetica,sans-Serif" font-size="10.00">forwards.h</text>
</a>
</g>
</g>
<!-- Node10&#45;&gt;Node11 -->
<g id="edge13" class="edge"><title>Node10&#45;&gt;Node11</title>
<path fill="none" stroke="midnightblue" d="M297.092,-112.324C307.643,-104.185 323.646,-91.8395 336.288,-82.0874"/>
<polygon fill="midnightblue" stroke="midnightblue" points="338.614,-84.7132 344.394,-75.8339 334.339,-79.1707 338.614,-84.7132"/>
</g>
<!-- Node12 -->
<g id="node12" class="node"><title>Node12</title>
<polygon fill="white" stroke="#bfbfbf" points="213.346,-56.5 213.346,-75.5 254.346,-75.5 254.346,-56.5 213.346,-56.5"/>
<text text-anchor="middle" x="233.846" y="-63.5" font-family="Helvetica,sans-Serif" font-size="10.00">string</text>
</g>
<!-- Node10&#45;&gt;Node12 -->
<g id="edge15" class="edge"><title>Node10&#45;&gt;Node12</title>
<path fill="none" stroke="midnightblue" d="M277.259,-112.083C269.687,-104.22 258.467,-92.5688 249.331,-83.0813"/>
<polygon fill="midnightblue" stroke="midnightblue" points="251.73,-80.5266 242.272,-75.7511 246.688,-85.3821 251.73,-80.5266"/>
</g>
<!-- Node13 -->
<g id="node13" class="node"><title>Node13</title>
<polygon fill="white" stroke="#bfbfbf" points="133.846,-56.5 133.846,-75.5 175.846,-75.5 175.846,-56.5 133.846,-56.5"/>
<text text-anchor="middle" x="154.846" y="-63.5" font-family="Helvetica,sans-Serif" font-size="10.00">vector</text>
</g>
<!-- Node10&#45;&gt;Node13 -->
<g id="edge16" class="edge"><title>Node10&#45;&gt;Node13</title>
<path fill="none" stroke="midnightblue" d="M265.088,-112.444C243.529,-103.557 209.582,-89.5632 185.052,-79.4514"/>
<polygon fill="midnightblue" stroke="midnightblue" points="186.085,-76.0917 175.506,-75.5164 183.417,-82.5634 186.085,-76.0917"/>
</g>
<!-- Node14 -->
<g id="node14" class="node"><title>Node14</title>
<polygon fill="white" stroke="#bfbfbf" points="272.346,-56.5 272.346,-75.5 307.346,-75.5 307.346,-56.5 272.346,-56.5"/>
<text text-anchor="middle" x="289.846" y="-63.5" font-family="Helvetica,sans-Serif" font-size="10.00">map</text>
</g>
<!-- Node10&#45;&gt;Node14 -->
<g id="edge17" class="edge"><title>Node10&#45;&gt;Node14</title>
<path fill="none" stroke="midnightblue" d="M286.506,-112.083C287.03,-105.006 287.782,-94.8611 288.439,-85.9865"/>
<polygon fill="midnightblue" stroke="midnightblue" points="291.949,-85.9823 289.197,-75.7511 284.968,-85.4652 291.949,-85.9823"/>
</g>
<!-- Node11&#45;&gt;Node9 -->
<g id="edge14" class="edge"><title>Node11&#45;&gt;Node9</title>
<path fill="none" stroke="midnightblue" d="M334.454,-56.4435C312.138,-47.5171 276.942,-33.4387 251.638,-23.3168"/>
<polygon fill="midnightblue" stroke="midnightblue" points="252.721,-19.9807 242.137,-19.5164 250.121,-26.4801 252.721,-19.9807"/>
</g>
<!-- Node15&#45;&gt;Node16 -->
<g id="edge19" class="edge"><title>Node15&#45;&gt;Node16</title>
<path fill="none" stroke="midnightblue" d="M366.194,-168.916C395.829,-159.823 444.209,-144.979 477.909,-134.64"/>
<polygon fill="midnightblue" stroke="midnightblue" points="479.326,-137.866 487.86,-131.587 477.273,-131.174 479.326,-137.866"/>
</g>
<!-- Node15&#45;&gt;Node10 -->
<g id="edge21" class="edge"><title>Node15&#45;&gt;Node10</title>
<path fill="none" stroke="midnightblue" d="M330.929,-168.083C323.065,-160.22 311.414,-148.569 301.927,-139.081"/>
<polygon fill="midnightblue" stroke="midnightblue" points="304.143,-136.347 294.597,-131.751 299.193,-141.297 304.143,-136.347"/>
</g>
<!-- Node17 -->
<g id="node17" class="node"><title>Node17</title>
<polygon fill="white" stroke="#bfbfbf" points="366.346,-112.5 366.346,-131.5 409.346,-131.5 409.346,-112.5 366.346,-112.5"/>
<text text-anchor="middle" x="387.846" y="-119.5" font-family="Helvetica,sans-Serif" font-size="10.00">deque</text>
</g>
<!-- Node15&#45;&gt;Node17 -->
<g id="edge22" class="edge"><title>Node15&#45;&gt;Node17</title>
<path fill="none" stroke="midnightblue" d="M347.772,-168.083C354.692,-160.298 364.911,-148.801 373.297,-139.367"/>
<polygon fill="midnightblue" stroke="midnightblue" points="376.039,-141.55 380.067,-131.751 370.807,-136.9 376.039,-141.55"/>
</g>
<!-- Node18 -->
<g id="node18" class="node"><title>Node18</title>
<polygon fill="white" stroke="#bfbfbf" points="427.346,-112.5 427.346,-131.5 468.346,-131.5 468.346,-112.5 427.346,-112.5"/>
<text text-anchor="middle" x="447.846" y="-119.5" font-family="Helvetica,sans-Serif" font-size="10.00">stack</text>
</g>
<!-- Node15&#45;&gt;Node18 -->
<g id="edge23" class="edge"><title>Node15&#45;&gt;Node18</title>
<path fill="none" stroke="midnightblue" d="M357.198,-168.324C374.517,-159.664 401.361,-146.242 421.347,-136.249"/>
<polygon fill="midnightblue" stroke="midnightblue" points="423.157,-139.257 430.537,-131.655 420.027,-132.996 423.157,-139.257"/>
</g>
<!-- Node15&#45;&gt;Node12 -->
<g id="edge24" class="edge"><title>Node15&#45;&gt;Node12</title>
<path fill="none" stroke="midnightblue" d="M338.966,-168.437C337.179,-154.989 332.012,-128.728 317.846,-112 303.772,-95.3822 281.965,-83.9566 264.096,-76.777"/>
<polygon fill="midnightblue" stroke="midnightblue" points="265.241,-73.4681 254.649,-73.2192 262.774,-80.019 265.241,-73.4681"/>
</g>
<!-- Node15&#45;&gt;Node4 -->
<g id="edge25" class="edge"><title>Node15&#45;&gt;Node4</title>
<path fill="none" stroke="midnightblue" d="M314.335,-168.444C287.25,-159.359 244.256,-144.939 213.977,-134.783"/>
<polygon fill="midnightblue" stroke="midnightblue" points="214.831,-131.378 204.237,-131.516 212.605,-138.015 214.831,-131.378"/>
</g>
<!-- Node16&#45;&gt;Node11 -->
<g id="edge20" class="edge"><title>Node16&#45;&gt;Node11</title>
<path fill="none" stroke="midnightblue" d="M490.493,-112.444C463.576,-103.359 420.849,-88.9388 390.759,-78.7831"/>
<polygon fill="midnightblue" stroke="midnightblue" points="391.674,-75.3981 381.079,-75.5164 389.435,-82.0305 391.674,-75.3981"/>
</g>
<!-- Node19&#45;&gt;Node10 -->
<g id="edge27" class="edge"><title>Node19&#45;&gt;Node10</title>
<path fill="none" stroke="midnightblue" d="M242.432,-168.083C250.004,-160.22 261.224,-148.569 270.36,-139.081"/>
<polygon fill="midnightblue" stroke="midnightblue" points="273.003,-141.382 277.419,-131.751 267.961,-136.527 273.003,-141.382"/>
</g>
<!-- Node19&#45;&gt;Node13 -->
<g id="edge28" class="edge"><title>Node19&#45;&gt;Node13</title>
<path fill="none" stroke="midnightblue" d="M209.989,-168.499C185.672,-159.292 150.471,-144.277 142.846,-132 134.065,-117.862 139.084,-98.8811 145.086,-85.0823"/>
<polygon fill="midnightblue" stroke="midnightblue" points="148.421,-86.2291 149.655,-75.7063 142.128,-83.1627 148.421,-86.2291"/>
</g>
<!-- Node19&#45;&gt;Node12 -->
<g id="edge29" class="edge"><title>Node19&#45;&gt;Node12</title>
<path fill="none" stroke="midnightblue" d="M233.846,-168.368C233.846,-150.617 233.846,-109.666 233.846,-85.5974"/>
<polygon fill="midnightblue" stroke="midnightblue" points="237.346,-85.5914 233.846,-75.5914 230.346,-85.5915 237.346,-85.5914"/>
</g>
<!-- Node19&#45;&gt;Node4 -->
<g id="edge30" class="edge"><title>Node19&#45;&gt;Node4</title>
<path fill="none" stroke="midnightblue" d="M224.763,-168.083C216.674,-160.141 204.65,-148.335 194.935,-138.797"/>
<polygon fill="midnightblue" stroke="midnightblue" points="197.346,-136.26 187.759,-131.751 192.442,-141.254 197.346,-136.26"/>
</g>
<!-- Node21&#45;&gt;Node2 -->
<g id="edge34" class="edge"><title>Node21&#45;&gt;Node2</title>
<path fill="none" stroke="midnightblue" d="M62.6435,-280.083C65.7583,-272.77 70.2683,-262.181 74.1348,-253.103"/>
<polygon fill="midnightblue" stroke="midnightblue" points="77.4196,-254.323 78.1182,-243.751 70.9794,-251.58 77.4196,-254.323"/>
</g>
</g>
</svg>
