<?xml version="1.0" encoding="UTF-8" standalone="no"?>
<!DOCTYPE svg PUBLIC "-//W3C//DTD SVG 1.1//EN"
 "http://www.w3.org/Graphics/SVG/1.1/DTD/svg11.dtd">
<!-- Generated by graphviz version 2.30.1 (20130214.1330)
 -->
<!-- Title: GUI/bin/debug/debug/moc_settingsroomba.cpp Pages: 1 -->
<svg width="370pt" height="164pt"
 viewBox="0.00 0.00 370.00 164.00" xmlns="http://www.w3.org/2000/svg" xmlns:xlink="http://www.w3.org/1999/xlink">
<g id="graph0" class="graph" transform="scale(1 1) rotate(0) translate(4 160)">
<title>GUI/bin/debug/debug/moc_settingsroomba.cpp</title>
<polygon fill="white" stroke="white" points="-4,5 -4,-160 367,-160 367,5 -4,5"/>
<!-- Node1 -->
<g id="node1" class="node"><title>Node1</title>
<polygon fill="#bfbfbf" stroke="black" points="123.5,-125 123.5,-155 252.5,-155 252.5,-125 123.5,-125"/>
<text text-anchor="start" x="131.5" y="-143" font-family="Helvetica,sans-Serif" font-size="10.00">GUI/bin/debug/debug</text>
<text text-anchor="middle" x="188" y="-132" font-family="Helvetica,sans-Serif" font-size="10.00">/moc_settingsroomba.cpp</text>
</g>
<!-- Node2 -->
<g id="node2" class="node"><title>Node2</title>
<g id="a_node2"><a xlink:href="../../dc/d4d/settingsroomba_8h.xhtml" target="_top" xlink:title="../../../Gui&#45;RoombaV1.0\l/settingsroomba.h">
<polygon fill="white" stroke="black" points="0,-57 0,-87 118,-87 118,-57 0,-57"/>
<text text-anchor="start" x="8" y="-75" font-family="Helvetica,sans-Serif" font-size="10.00">../../../Gui&#45;RoombaV1.0</text>
<text text-anchor="middle" x="59" y="-64" font-family="Helvetica,sans-Serif" font-size="10.00">/settingsroomba.h</text>
</a>
</g>
</g>
<!-- Node1&#45;&gt;Node2 -->
<g id="edge1" class="edge"><title>Node1&#45;&gt;Node2</title>
<path fill="none" stroke="midnightblue" d="M160.326,-124.841C141.452,-115.185 116.25,-102.29 95.7018,-91.7777"/>
<polygon fill="midnightblue" stroke="midnightblue" points="97.1246,-88.5742 86.628,-87.1352 93.9363,-94.8059 97.1246,-88.5742"/>
</g>
<!-- Node4 -->
<g id="node4" class="node"><title>Node4</title>
<polygon fill="white" stroke="#bfbfbf" points="136,-62.5 136,-81.5 240,-81.5 240,-62.5 136,-62.5"/>
<text text-anchor="middle" x="188" y="-69.5" font-family="Helvetica,sans-Serif" font-size="10.00">QtCore/qbytearray.h</text>
</g>
<!-- Node1&#45;&gt;Node4 -->
<g id="edge3" class="edge"><title>Node1&#45;&gt;Node4</title>
<path fill="none" stroke="midnightblue" d="M188,-124.679C188,-115.101 188,-102.394 188,-91.9766"/>
<polygon fill="midnightblue" stroke="midnightblue" points="191.5,-91.8283 188,-81.8283 184.5,-91.8283 191.5,-91.8283"/>
</g>
<!-- Node5 -->
<g id="node5" class="node"><title>Node5</title>
<polygon fill="white" stroke="#bfbfbf" points="258,-62.5 258,-81.5 362,-81.5 362,-62.5 258,-62.5"/>
<text text-anchor="middle" x="310" y="-69.5" font-family="Helvetica,sans-Serif" font-size="10.00">QtCore/qmetatype.h</text>
</g>
<!-- Node1&#45;&gt;Node5 -->
<g id="edge4" class="edge"><title>Node1&#45;&gt;Node5</title>
<path fill="none" stroke="midnightblue" d="M214.172,-124.841C235.18,-113.476 264.475,-97.628 285.13,-86.454"/>
<polygon fill="midnightblue" stroke="midnightblue" points="286.822,-89.5185 293.952,-81.6819 283.491,-83.3617 286.822,-89.5185"/>
</g>
<!-- Node3 -->
<g id="node3" class="node"><title>Node3</title>
<polygon fill="white" stroke="#bfbfbf" points="31.5,-0.5 31.5,-19.5 86.5,-19.5 86.5,-0.5 31.5,-0.5"/>
<text text-anchor="middle" x="59" y="-7.5" font-family="Helvetica,sans-Serif" font-size="10.00">QWidget</text>
</g>
<!-- Node2&#45;&gt;Node3 -->
<g id="edge2" class="edge"><title>Node2&#45;&gt;Node3</title>
<path fill="none" stroke="midnightblue" d="M59,-56.7808C59,-48.7812 59,-38.6887 59,-30.0168"/>
<polygon fill="midnightblue" stroke="midnightblue" points="62.5001,-29.7305 59,-19.7305 55.5001,-29.7306 62.5001,-29.7305"/>
</g>
</g>
</svg>
