<?xml version="1.0" encoding="UTF-8" standalone="no"?>
<!DOCTYPE svg PUBLIC "-//W3C//DTD SVG 1.1//EN"
 "http://www.w3.org/Graphics/SVG/1.1/DTD/svg11.dtd">
<!-- Generated by graphviz version 2.30.1 (20130214.1330)
 -->
<!-- Title: Controllingroomba Pages: 1 -->
<svg width="168pt" height="226pt"
 viewBox="0.00 0.00 168.00 226.00" xmlns="http://www.w3.org/2000/svg" xmlns:xlink="http://www.w3.org/1999/xlink">
<g id="graph0" class="graph" transform="scale(1 1) rotate(0) translate(4 222)">
<title>Controllingroomba</title>
<polygon fill="white" stroke="white" points="-4,5 -4,-222 165,-222 165,5 -4,5"/>
<!-- Node1 -->
<g id="node1" class="node"><title>Node1</title>
<polygon fill="#bfbfbf" stroke="black" points="-0.5,-0.5 -0.5,-123.5 160.5,-123.5 160.5,-0.5 -0.5,-0.5"/>
<text text-anchor="middle" x="80" y="-111.5" font-family="Helvetica,sans-Serif" font-size="10.00">Controllingroomba</text>
<polyline fill="none" stroke="black" points="-0.5,-104.5 160.5,-104.5 "/>
<text text-anchor="middle" x="80" y="-92.5" font-family="Helvetica,sans-Serif" font-size="10.00"> </text>
<polyline fill="none" stroke="black" points="-0.5,-85.5 160.5,-85.5 "/>
<text text-anchor="start" x="7.5" y="-73.5" font-family="Helvetica,sans-Serif" font-size="10.00">+ Controllingroomba()</text>
<text text-anchor="start" x="7.5" y="-62.5" font-family="Helvetica,sans-Serif" font-size="10.00">+ ~Controllingroomba()</text>
<text text-anchor="start" x="7.5" y="-51.5" font-family="Helvetica,sans-Serif" font-size="10.00">+ allSensorData()</text>
<text text-anchor="start" x="7.5" y="-40.5" font-family="Helvetica,sans-Serif" font-size="10.00">+ allMotorBrushVacuumData()</text>
<text text-anchor="start" x="7.5" y="-29.5" font-family="Helvetica,sans-Serif" font-size="10.00">+ logsReceived()</text>
<text text-anchor="start" x="7.5" y="-18.5" font-family="Helvetica,sans-Serif" font-size="10.00">+ on_pbStop_clicked()</text>
<text text-anchor="start" x="7.5" y="-7.5" font-family="Helvetica,sans-Serif" font-size="10.00">+ cbMotorBrushVacuumHandler()</text>
</g>
<!-- Node2 -->
<g id="node2" class="node"><title>Node2</title>
<polygon fill="white" stroke="#bfbfbf" points="52.5,-160.5 52.5,-217.5 107.5,-217.5 107.5,-160.5 52.5,-160.5"/>
<text text-anchor="middle" x="80" y="-205.5" font-family="Helvetica,sans-Serif" font-size="10.00">QWidget</text>
<polyline fill="none" stroke="#bfbfbf" points="52.5,-198.5 107.5,-198.5 "/>
<text text-anchor="middle" x="80" y="-186.5" font-family="Helvetica,sans-Serif" font-size="10.00"> </text>
<polyline fill="none" stroke="#bfbfbf" points="52.5,-179.5 107.5,-179.5 "/>
<text text-anchor="middle" x="80" y="-167.5" font-family="Helvetica,sans-Serif" font-size="10.00"> </text>
</g>
<!-- Node2&#45;&gt;Node1 -->
<g id="edge1" class="edge"><title>Node2&#45;&gt;Node1</title>
<path fill="none" stroke="midnightblue" d="M80,-150.099C80,-141.739 80,-132.68 80,-123.672"/>
<polygon fill="none" stroke="midnightblue" points="76.5001,-150.258 80,-160.258 83.5001,-150.258 76.5001,-150.258"/>
</g>
</g>
</svg>
