<?xml version="1.0" encoding="UTF-8" standalone="no"?>
<!DOCTYPE svg PUBLIC "-//W3C//DTD SVG 1.1//EN"
 "http://www.w3.org/Graphics/SVG/1.1/DTD/svg11.dtd">
<!-- Generated by graphviz version 2.30.1 (20130214.1330)
 -->
<!-- Title: GUI/roombagui&#45;build&#45;Desktop_Qt_5_0_1_MSVC2010_32bit&#45;Debug/debug/moc_RoombaConnect.cpp Pages: 1 -->
<svg width="1162pt" height="342pt"
 viewBox="0.00 0.00 1162.00 342.00" xmlns="http://www.w3.org/2000/svg" xmlns:xlink="http://www.w3.org/1999/xlink">
<g id="graph0" class="graph" transform="scale(1 1) rotate(0) translate(4 338)">
<title>GUI/roombagui&#45;build&#45;Desktop_Qt_5_0_1_MSVC2010_32bit&#45;Debug/debug/moc_RoombaConnect.cpp</title>
<polygon fill="white" stroke="white" points="-4,5 -4,-338 1159,-338 1159,5 -4,5"/>
<!-- Node1 -->
<g id="node1" class="node"><title>Node1</title>
<polygon fill="#bfbfbf" stroke="black" points="591.5,-292.5 591.5,-333.5 812.5,-333.5 812.5,-292.5 591.5,-292.5"/>
<text text-anchor="start" x="599.5" y="-321.5" font-family="Helvetica,sans-Serif" font-size="10.00">GUI/roombagui&#45;build</text>
<text text-anchor="start" x="599.5" y="-310.5" font-family="Helvetica,sans-Serif" font-size="10.00">&#45;Desktop_Qt_5_0_1_MSVC2010</text>
<text text-anchor="middle" x="702" y="-299.5" font-family="Helvetica,sans-Serif" font-size="10.00">_32bit&#45;Debug/debug/moc_RoombaConnect.cpp</text>
</g>
<!-- Node2 -->
<g id="node2" class="node"><title>Node2</title>
<g id="a_node2"><a xlink:href="../../d4/dca/_roomba_connect_8h.xhtml" target="_top" xlink:title="../../Gui&#45;RoombaV1.0\l/RoombaConnect.h">
<polygon fill="white" stroke="black" points="461.5,-225 461.5,-255 570.5,-255 570.5,-225 461.5,-225"/>
<text text-anchor="start" x="469.5" y="-243" font-family="Helvetica,sans-Serif" font-size="10.00">../../Gui&#45;RoombaV1.0</text>
<text text-anchor="middle" x="516" y="-232" font-family="Helvetica,sans-Serif" font-size="10.00">/RoombaConnect.h</text>
</a>
</g>
</g>
<!-- Node1&#45;&gt;Node2 -->
<g id="edge1" class="edge"><title>Node1&#45;&gt;Node2</title>
<path fill="none" stroke="midnightblue" d="M650.682,-292.411C623.005,-281.846 589.118,-268.911 562.26,-258.658"/>
<polygon fill="midnightblue" stroke="midnightblue" points="563.298,-255.308 552.707,-255.012 560.801,-261.848 563.298,-255.308"/>
</g>
<!-- Node26 -->
<g id="node26" class="node"><title>Node26</title>
<polygon fill="white" stroke="#bfbfbf" points="589,-230.5 589,-249.5 693,-249.5 693,-230.5 589,-230.5"/>
<text text-anchor="middle" x="641" y="-237.5" font-family="Helvetica,sans-Serif" font-size="10.00">QtCore/qbytearray.h</text>
</g>
<!-- Node1&#45;&gt;Node26 -->
<g id="edge42" class="edge"><title>Node1&#45;&gt;Node26</title>
<path fill="none" stroke="midnightblue" d="M685.008,-292.223C675.644,-281.323 664.151,-267.947 655.259,-257.596"/>
<polygon fill="midnightblue" stroke="midnightblue" points="657.676,-255.039 648.505,-249.735 652.367,-259.601 657.676,-255.039"/>
</g>
<!-- Node27 -->
<g id="node27" class="node"><title>Node27</title>
<polygon fill="white" stroke="#bfbfbf" points="711,-230.5 711,-249.5 815,-249.5 815,-230.5 711,-230.5"/>
<text text-anchor="middle" x="763" y="-237.5" font-family="Helvetica,sans-Serif" font-size="10.00">QtCore/qmetatype.h</text>
</g>
<!-- Node1&#45;&gt;Node27 -->
<g id="edge43" class="edge"><title>Node1&#45;&gt;Node27</title>
<path fill="none" stroke="midnightblue" d="M718.992,-292.223C728.356,-281.323 739.849,-267.947 748.741,-257.596"/>
<polygon fill="midnightblue" stroke="midnightblue" points="751.633,-259.601 755.495,-249.735 746.324,-255.039 751.633,-259.601"/>
</g>
<!-- Node28 -->
<g id="node28" class="node"><title>Node28</title>
<polygon fill="white" stroke="#bfbfbf" points="833,-230.5 833,-249.5 919,-249.5 919,-230.5 833,-230.5"/>
<text text-anchor="middle" x="876" y="-237.5" font-family="Helvetica,sans-Serif" font-size="10.00">QtCore/QVector</text>
</g>
<!-- Node1&#45;&gt;Node28 -->
<g id="edge44" class="edge"><title>Node1&#45;&gt;Node28</title>
<path fill="none" stroke="midnightblue" d="M750.007,-292.411C780.512,-279.963 819.082,-264.225 845.461,-253.461"/>
<polygon fill="midnightblue" stroke="midnightblue" points="846.995,-256.616 854.932,-249.597 844.35,-250.134 846.995,-256.616"/>
</g>
<!-- Node3 -->
<g id="node3" class="node"><title>Node3</title>
<polygon fill="white" stroke="#bfbfbf" points="0,-0.5 0,-19.5 52,-19.5 52,-0.5 0,-0.5"/>
<text text-anchor="middle" x="26" y="-7.5" font-family="Helvetica,sans-Serif" font-size="10.00">QDebug</text>
</g>
<!-- Node2&#45;&gt;Node3 -->
<g id="edge2" class="edge"><title>Node2&#45;&gt;Node3</title>
<path fill="none" stroke="midnightblue" d="M461.251,-239.812C357.305,-240.221 136.678,-235.311 80,-188 32.1508,-148.059 25.8122,-67.0031 25.5483,-30.0866"/>
<polygon fill="midnightblue" stroke="midnightblue" points="29.0507,-29.7876 25.6312,-19.7598 22.0509,-29.7314 29.0507,-29.7876"/>
</g>
<!-- Node4 -->
<g id="node4" class="node"><title>Node4</title>
<polygon fill="white" stroke="#bfbfbf" points="795.5,-168.5 795.5,-187.5 842.5,-187.5 842.5,-168.5 795.5,-168.5"/>
<text text-anchor="middle" x="819" y="-175.5" font-family="Helvetica,sans-Serif" font-size="10.00">QtCore</text>
</g>
<!-- Node2&#45;&gt;Node4 -->
<g id="edge3" class="edge"><title>Node2&#45;&gt;Node4</title>
<path fill="none" stroke="midnightblue" d="M570.767,-225.947C573.887,-225.271 576.981,-224.617 580,-224 667.948,-206.024 693.555,-208.079 785.281,-187.975"/>
<polygon fill="midnightblue" stroke="midnightblue" points="786.27,-191.34 795.273,-185.755 784.752,-184.507 786.27,-191.34"/>
</g>
<!-- Node5 -->
<g id="node5" class="node"><title>Node5</title>
<polygon fill="white" stroke="#bfbfbf" points="243.5,-56.5 243.5,-75.5 296.5,-75.5 296.5,-56.5 243.5,-56.5"/>
<text text-anchor="middle" x="270" y="-63.5" font-family="Helvetica,sans-Serif" font-size="10.00">QObject</text>
</g>
<!-- Node2&#45;&gt;Node5 -->
<g id="edge4" class="edge"><title>Node2&#45;&gt;Node5</title>
<path fill="none" stroke="midnightblue" d="M461.303,-231.891C423.983,-225.092 374.681,-212.145 337,-188 309.4,-170.314 304.615,-160.822 289,-132 281.124,-117.463 276.168,-99.2833 273.3,-85.8492"/>
<polygon fill="midnightblue" stroke="midnightblue" points="276.704,-85.0159 271.364,-75.865 269.832,-86.3484 276.704,-85.0159"/>
</g>
<!-- Node6 -->
<g id="node6" class="node"><title>Node6</title>
<polygon fill="white" stroke="#bfbfbf" points="860.5,-168.5 860.5,-187.5 931.5,-187.5 931.5,-168.5 860.5,-168.5"/>
<text text-anchor="middle" x="896" y="-175.5" font-family="Helvetica,sans-Serif" font-size="10.00">QTcpSocket</text>
</g>
<!-- Node2&#45;&gt;Node6 -->
<g id="edge5" class="edge"><title>Node2&#45;&gt;Node6</title>
<path fill="none" stroke="midnightblue" d="M570.739,-225.798C573.866,-225.16 576.969,-224.555 580,-224 696.363,-202.688 729.413,-207.638 850.17,-188.032"/>
<polygon fill="midnightblue" stroke="midnightblue" points="850.879,-191.462 860.177,-186.384 849.742,-184.555 850.879,-191.462"/>
</g>
<!-- Node7 -->
<g id="node7" class="node"><title>Node7</title>
<polygon fill="white" stroke="#bfbfbf" points="950,-168.5 950,-187.5 1024,-187.5 1024,-168.5 950,-168.5"/>
<text text-anchor="middle" x="987" y="-175.5" font-family="Helvetica,sans-Serif" font-size="10.00">QTextStream</text>
</g>
<!-- Node2&#45;&gt;Node7 -->
<g id="edge6" class="edge"><title>Node2&#45;&gt;Node7</title>
<path fill="none" stroke="midnightblue" d="M570.718,-225.68C573.85,-225.072 576.961,-224.506 580,-224 735.363,-198.139 779.094,-210.605 939.613,-187.905"/>
<polygon fill="midnightblue" stroke="midnightblue" points="940.452,-191.32 949.852,-186.432 939.455,-184.391 940.452,-191.32"/>
</g>
<!-- Node8 -->
<g id="node8" class="node"><title>Node8</title>
<polygon fill="white" stroke="#bfbfbf" points="1042.5,-168.5 1042.5,-187.5 1087.5,-187.5 1087.5,-168.5 1042.5,-168.5"/>
<text text-anchor="middle" x="1065" y="-175.5" font-family="Helvetica,sans-Serif" font-size="10.00">QTime</text>
</g>
<!-- Node2&#45;&gt;Node8 -->
<g id="edge7" class="edge"><title>Node2&#45;&gt;Node8</title>
<path fill="none" stroke="midnightblue" d="M570.706,-225.606C573.841,-225.017 576.956,-224.475 580,-224 776.339,-193.369 832.38,-222.538 1032.45,-187.707"/>
<polygon fill="midnightblue" stroke="midnightblue" points="1033.17,-191.136 1042.4,-185.944 1031.94,-184.243 1033.17,-191.136"/>
</g>
<!-- Node9 -->
<g id="node9" class="node"><title>Node9</title>
<g id="a_node9"><a xlink:href="../../d7/d62/clslog_8h.xhtml" target="_top" xlink:title="../resources/clslog.h">
<polygon fill="white" stroke="black" points="79.5,-56.5 79.5,-75.5 184.5,-75.5 184.5,-56.5 79.5,-56.5"/>
<text text-anchor="middle" x="132" y="-63.5" font-family="Helvetica,sans-Serif" font-size="10.00">../resources/clslog.h</text>
</a>
</g>
</g>
<!-- Node2&#45;&gt;Node9 -->
<g id="edge8" class="edge"><title>Node2&#45;&gt;Node9</title>
<path fill="none" stroke="midnightblue" d="M461.146,-236.378C352.227,-230.608 117.046,-215.12 93,-188 66.2791,-157.864 97.47,-109.208 117.588,-83.7487"/>
<polygon fill="midnightblue" stroke="midnightblue" points="120.49,-85.7295 124.129,-75.7791 115.079,-81.2885 120.49,-85.7295"/>
</g>
<!-- Node14 -->
<g id="node14" class="node"><title>Node14</title>
<polygon fill="white" stroke="#bfbfbf" points="1106,-168.5 1106,-187.5 1154,-187.5 1154,-168.5 1106,-168.5"/>
<text text-anchor="middle" x="1130" y="-175.5" font-family="Helvetica,sans-Serif" font-size="10.00">QTimer</text>
</g>
<!-- Node2&#45;&gt;Node14 -->
<g id="edge14" class="edge"><title>Node2&#45;&gt;Node14</title>
<path fill="none" stroke="midnightblue" d="M570.701,-225.57C573.837,-224.99 576.953,-224.46 580,-224 807.312,-189.66 869.202,-225.582 1096,-188 1096.1,-187.983 1096.2,-187.966 1096.31,-187.949"/>
<polygon fill="midnightblue" stroke="midnightblue" points="1096.89,-191.403 1105.98,-185.961 1095.48,-184.546 1096.89,-191.403"/>
</g>
<!-- Node15 -->
<g id="node15" class="node"><title>Node15</title>
<g id="a_node15"><a xlink:href="../../dc/d96/jsoncommand_8h.xhtml" target="_top" xlink:title="../resources/jsoncommand.h">
<polygon fill="white" stroke="black" points="102,-168.5 102,-187.5 242,-187.5 242,-168.5 102,-168.5"/>
<text text-anchor="middle" x="172" y="-175.5" font-family="Helvetica,sans-Serif" font-size="10.00">../resources/jsoncommand.h</text>
</a>
</g>
</g>
<!-- Node2&#45;&gt;Node15 -->
<g id="edge15" class="edge"><title>Node2&#45;&gt;Node15</title>
<path fill="none" stroke="midnightblue" d="M461.492,-229.493C398.642,-218.531 295.698,-200.575 231.006,-189.292"/>
<polygon fill="midnightblue" stroke="midnightblue" points="231.416,-185.811 220.964,-187.54 230.213,-192.706 231.416,-185.811"/>
</g>
<!-- Node17 -->
<g id="node17" class="node"><title>Node17</title>
<g id="a_node17"><a xlink:href="../../d4/d05/json_8h.xhtml" target="_top" xlink:title="json.h">
<polygon fill="white" stroke="black" points="298.5,-112.5 298.5,-131.5 341.5,-131.5 341.5,-112.5 298.5,-112.5"/>
<text text-anchor="middle" x="320" y="-119.5" font-family="Helvetica,sans-Serif" font-size="10.00">json.h</text>
</a>
</g>
</g>
<!-- Node2&#45;&gt;Node17 -->
<g id="edge22" class="edge"><title>Node2&#45;&gt;Node17</title>
<path fill="none" stroke="midnightblue" d="M461.202,-231.394C428.426,-224.553 387.544,-211.745 358,-188 342.75,-175.744 332.343,-155.6 326.328,-140.982"/>
<polygon fill="midnightblue" stroke="midnightblue" points="329.549,-139.605 322.719,-131.506 323.008,-142.096 329.549,-139.605"/>
</g>
<!-- Node20 -->
<g id="node20" class="node"><title>Node20</title>
<g id="a_node20"><a xlink:href="../../db/d97/clsevent_8h.xhtml" target="_top" xlink:title="../resources/clsevent.h">
<polygon fill="white" stroke="black" points="359.5,-112.5 359.5,-131.5 474.5,-131.5 474.5,-112.5 359.5,-112.5"/>
<text text-anchor="middle" x="417" y="-119.5" font-family="Helvetica,sans-Serif" font-size="10.00">../resources/clsevent.h</text>
</a>
</g>
</g>
<!-- Node2&#45;&gt;Node20 -->
<g id="edge23" class="edge"><title>Node2&#45;&gt;Node20</title>
<path fill="none" stroke="midnightblue" d="M461.285,-235.929C427.582,-230.87 386.782,-218.347 365,-188 351.993,-169.878 373.577,-149.978 392.767,-137.032"/>
<polygon fill="midnightblue" stroke="midnightblue" points="394.73,-139.931 401.282,-131.605 390.968,-134.028 394.73,-139.931"/>
</g>
<!-- Node21 -->
<g id="node21" class="node"><title>Node21</title>
<g id="a_node21"><a xlink:href="../../d4/d25/sensordata_8h.xhtml" target="_top" xlink:title="sensordata.h">
<polygon fill="white" stroke="black" points="374.5,-168.5 374.5,-187.5 447.5,-187.5 447.5,-168.5 374.5,-168.5"/>
<text text-anchor="middle" x="411" y="-175.5" font-family="Helvetica,sans-Serif" font-size="10.00">sensordata.h</text>
</a>
</g>
</g>
<!-- Node2&#45;&gt;Node21 -->
<g id="edge29" class="edge"><title>Node2&#45;&gt;Node21</title>
<path fill="none" stroke="midnightblue" d="M491.382,-224.933C474.3,-215.171 451.67,-202.24 434.775,-192.586"/>
<polygon fill="midnightblue" stroke="midnightblue" points="436.469,-189.523 426.05,-187.6 432.996,-195.6 436.469,-189.523"/>
</g>
<!-- Node22 -->
<g id="node22" class="node"><title>Node22</title>
<g id="a_node22"><a xlink:href="../../d1/da1/brushvacuumdata_8h.xhtml" target="_top" xlink:title="brushvacuumdata.h">
<polygon fill="white" stroke="black" points="465.5,-168.5 465.5,-187.5 566.5,-187.5 566.5,-168.5 465.5,-168.5"/>
<text text-anchor="middle" x="516" y="-175.5" font-family="Helvetica,sans-Serif" font-size="10.00">brushvacuumdata.h</text>
</a>
</g>
</g>
<!-- Node2&#45;&gt;Node22 -->
<g id="edge32" class="edge"><title>Node2&#45;&gt;Node22</title>
<path fill="none" stroke="midnightblue" d="M516,-224.781C516,-216.781 516,-206.689 516,-198.017"/>
<polygon fill="midnightblue" stroke="midnightblue" points="519.5,-197.73 516,-187.731 512.5,-197.731 519.5,-197.73"/>
</g>
<!-- Node23 -->
<g id="node23" class="node"><title>Node23</title>
<g id="a_node23"><a xlink:href="../../de/d51/currentactiondata_8h.xhtml" target="_top" xlink:title="currentactiondata.h">
<polygon fill="white" stroke="black" points="585,-168.5 585,-187.5 685,-187.5 685,-168.5 585,-168.5"/>
<text text-anchor="middle" x="635" y="-175.5" font-family="Helvetica,sans-Serif" font-size="10.00">currentactiondata.h</text>
</a>
</g>
</g>
<!-- Node2&#45;&gt;Node23 -->
<g id="edge35" class="edge"><title>Node2&#45;&gt;Node23</title>
<path fill="none" stroke="midnightblue" d="M543.9,-224.933C563.529,-215.036 589.621,-201.88 608.849,-192.185"/>
<polygon fill="midnightblue" stroke="midnightblue" points="610.59,-195.227 617.943,-187.6 607.438,-188.977 610.59,-195.227"/>
</g>
<!-- Node24 -->
<g id="node24" class="node"><title>Node24</title>
<g id="a_node24"><a xlink:href="../../da/d69/loggingdata_8h.xhtml" target="_top" xlink:title="loggingdata.h">
<polygon fill="white" stroke="black" points="703,-168.5 703,-187.5 777,-187.5 777,-168.5 703,-168.5"/>
<text text-anchor="middle" x="740" y="-175.5" font-family="Helvetica,sans-Serif" font-size="10.00">loggingdata.h</text>
</a>
</g>
</g>
<!-- Node2&#45;&gt;Node24 -->
<g id="edge38" class="edge"><title>Node2&#45;&gt;Node24</title>
<path fill="none" stroke="midnightblue" d="M568.518,-224.933C608.115,-214.326 661.685,-199.977 698.351,-190.156"/>
<polygon fill="midnightblue" stroke="midnightblue" points="699.465,-193.481 708.219,-187.513 697.654,-186.719 699.465,-193.481"/>
</g>
<!-- Node9&#45;&gt;Node3 -->
<g id="edge9" class="edge"><title>Node9&#45;&gt;Node3</title>
<path fill="none" stroke="midnightblue" d="M114.969,-56.324C97.9702,-47.6641 71.6239,-34.2424 52.0074,-24.249"/>
<polygon fill="midnightblue" stroke="midnightblue" points="53.4876,-21.0752 42.9885,-19.6545 50.3101,-27.3125 53.4876,-21.0752"/>
</g>
<!-- Node10 -->
<g id="node10" class="node"><title>Node10</title>
<polygon fill="white" stroke="#bfbfbf" points="328.5,-0.5 328.5,-19.5 393.5,-19.5 393.5,-0.5 328.5,-0.5"/>
<text text-anchor="middle" x="361" y="-7.5" font-family="Helvetica,sans-Serif" font-size="10.00">QDateTime</text>
</g>
<!-- Node9&#45;&gt;Node10 -->
<g id="edge10" class="edge"><title>Node9&#45;&gt;Node10</title>
<path fill="none" stroke="midnightblue" d="M168.286,-56.4435C209.034,-46.8348 275.097,-31.2566 318.299,-21.0693"/>
<polygon fill="midnightblue" stroke="midnightblue" points="319.293,-24.4308 328.223,-18.729 317.687,-17.6177 319.293,-24.4308"/>
</g>
<!-- Node11 -->
<g id="node11" class="node"><title>Node11</title>
<polygon fill="white" stroke="#bfbfbf" points="70.5,-0.5 70.5,-19.5 111.5,-19.5 111.5,-0.5 70.5,-0.5"/>
<text text-anchor="middle" x="91" y="-7.5" font-family="Helvetica,sans-Serif" font-size="10.00">string</text>
</g>
<!-- Node9&#45;&gt;Node11 -->
<g id="edge11" class="edge"><title>Node9&#45;&gt;Node11</title>
<path fill="none" stroke="midnightblue" d="M125.23,-56.083C119.438,-48.4554 110.942,-37.2645 103.862,-27.9408"/>
<polygon fill="midnightblue" stroke="midnightblue" points="106.479,-25.5991 97.6443,-19.7511 100.904,-29.8321 106.479,-25.5991"/>
</g>
<!-- Node12 -->
<g id="node12" class="node"><title>Node12</title>
<polygon fill="white" stroke="#bfbfbf" points="130,-0.5 130,-19.5 184,-19.5 184,-0.5 130,-0.5"/>
<text text-anchor="middle" x="157" y="-7.5" font-family="Helvetica,sans-Serif" font-size="10.00">iostream</text>
</g>
<!-- Node9&#45;&gt;Node12 -->
<g id="edge12" class="edge"><title>Node9&#45;&gt;Node12</title>
<path fill="none" stroke="midnightblue" d="M136.128,-56.083C139.514,-48.77 144.416,-38.1814 148.619,-29.1034"/>
<polygon fill="midnightblue" stroke="midnightblue" points="151.923,-30.2962 152.949,-19.7511 145.571,-27.3553 151.923,-30.2962"/>
</g>
<!-- Node13 -->
<g id="node13" class="node"><title>Node13</title>
<polygon fill="white" stroke="#bfbfbf" points="202.5,-0.5 202.5,-19.5 267.5,-19.5 267.5,-0.5 202.5,-0.5"/>
<text text-anchor="middle" x="235" y="-7.5" font-family="Helvetica,sans-Serif" font-size="10.00">QStringList</text>
</g>
<!-- Node9&#45;&gt;Node13 -->
<g id="edge13" class="edge"><title>Node9&#45;&gt;Node13</title>
<path fill="none" stroke="midnightblue" d="M148.549,-56.324C164.992,-47.7034 190.435,-34.3643 209.468,-24.3855"/>
<polygon fill="midnightblue" stroke="midnightblue" points="211.261,-27.3977 218.492,-19.6545 208.011,-21.198 211.261,-27.3977"/>
</g>
<!-- Node15&#45;&gt;Node5 -->
<g id="edge16" class="edge"><title>Node15&#45;&gt;Node5</title>
<path fill="none" stroke="midnightblue" d="M179.909,-168.417C188.202,-159.395 201.59,-144.765 213,-132 227.605,-115.661 244.093,-96.8141 255.565,-83.6361"/>
<polygon fill="midnightblue" stroke="midnightblue" points="258.389,-85.7216 262.309,-75.8782 253.106,-81.1292 258.389,-85.7216"/>
</g>
<!-- Node16 -->
<g id="node16" class="node"><title>Node16</title>
<polygon fill="white" stroke="#bfbfbf" points="130,-112.5 130,-131.5 204,-131.5 204,-112.5 130,-112.5"/>
<text text-anchor="middle" x="167" y="-119.5" font-family="Helvetica,sans-Serif" font-size="10.00">QVariantMap</text>
</g>
<!-- Node15&#45;&gt;Node16 -->
<g id="edge17" class="edge"><title>Node15&#45;&gt;Node16</title>
<path fill="none" stroke="midnightblue" d="M171.174,-168.083C170.519,-161.006 169.58,-150.861 168.758,-141.986"/>
<polygon fill="midnightblue" stroke="midnightblue" points="172.217,-141.386 167.81,-131.751 165.247,-142.031 172.217,-141.386"/>
</g>
<!-- Node15&#45;&gt;Node17 -->
<g id="edge18" class="edge"><title>Node15&#45;&gt;Node17</title>
<path fill="none" stroke="midnightblue" d="M195.451,-168.444C220.568,-159.279 260.568,-144.685 288.437,-134.516"/>
<polygon fill="midnightblue" stroke="midnightblue" points="289.912,-137.704 298.106,-130.988 287.512,-131.128 289.912,-137.704"/>
</g>
<!-- Node15&#45;&gt;Node9 -->
<g id="edge21" class="edge"><title>Node15&#45;&gt;Node9</title>
<path fill="none" stroke="midnightblue" d="M156.266,-168.236C144.111,-160.481 128.188,-147.929 121,-132 114.314,-117.183 118.433,-98.7994 123.425,-85.3676"/>
<polygon fill="midnightblue" stroke="midnightblue" points="126.789,-86.3955 127.427,-75.8199 120.333,-83.6897 126.789,-86.3955"/>
</g>
<!-- Node18 -->
<g id="node18" class="node"><title>Node18</title>
<polygon fill="white" stroke="#bfbfbf" points="494.5,-56.5 494.5,-75.5 549.5,-75.5 549.5,-56.5 494.5,-56.5"/>
<text text-anchor="middle" x="522" y="-63.5" font-family="Helvetica,sans-Serif" font-size="10.00">QVariant</text>
</g>
<!-- Node17&#45;&gt;Node18 -->
<g id="edge19" class="edge"><title>Node17&#45;&gt;Node18</title>
<path fill="none" stroke="midnightblue" d="M341.603,-114.419C344.423,-113.589 347.278,-112.764 350,-112 396.116,-99.0544 449.525,-85.2681 484.439,-76.4173"/>
<polygon fill="midnightblue" stroke="midnightblue" points="485.377,-79.7906 494.213,-73.946 483.661,-73.0041 485.377,-79.7906"/>
</g>
<!-- Node19 -->
<g id="node19" class="node"><title>Node19</title>
<polygon fill="white" stroke="#bfbfbf" points="321,-56.5 321,-75.5 371,-75.5 371,-56.5 321,-56.5"/>
<text text-anchor="middle" x="346" y="-63.5" font-family="Helvetica,sans-Serif" font-size="10.00">QString</text>
</g>
<!-- Node17&#45;&gt;Node19 -->
<g id="edge20" class="edge"><title>Node17&#45;&gt;Node19</title>
<path fill="none" stroke="midnightblue" d="M324.293,-112.083C327.852,-104.691 333.022,-93.9533 337.424,-84.8111"/>
<polygon fill="midnightblue" stroke="midnightblue" points="340.602,-86.2795 341.787,-75.7511 334.295,-83.2427 340.602,-86.2795"/>
</g>
<!-- Node20&#45;&gt;Node5 -->
<g id="edge24" class="edge"><title>Node20&#45;&gt;Node5</title>
<path fill="none" stroke="midnightblue" d="M393.707,-112.444C369.193,-103.438 330.404,-89.1891 302.8,-79.049"/>
<polygon fill="midnightblue" stroke="midnightblue" points="303.777,-75.6793 293.184,-75.5164 301.363,-82.25 303.777,-75.6793"/>
</g>
<!-- Node20&#45;&gt;Node19 -->
<g id="edge25" class="edge"><title>Node20&#45;&gt;Node19</title>
<path fill="none" stroke="midnightblue" d="M405.593,-112.324C394.891,-104.185 378.659,-91.8395 365.837,-82.0874"/>
<polygon fill="midnightblue" stroke="midnightblue" points="367.693,-79.1018 357.615,-75.8339 363.456,-84.6734 367.693,-79.1018"/>
</g>
<!-- Node20&#45;&gt;Node18 -->
<g id="edge26" class="edge"><title>Node20&#45;&gt;Node18</title>
<path fill="none" stroke="midnightblue" d="M433.87,-112.324C450.709,-103.664 476.807,-90.2424 496.238,-80.249"/>
<polygon fill="midnightblue" stroke="midnightblue" points="497.88,-83.3405 505.172,-75.6545 494.678,-77.1155 497.88,-83.3405"/>
</g>
<!-- Node20&#45;&gt;Node10 -->
<g id="edge27" class="edge"><title>Node20&#45;&gt;Node10</title>
<path fill="none" stroke="midnightblue" d="M412.606,-112.368C403.446,-94.376 382.153,-52.5503 369.974,-28.6267"/>
<polygon fill="midnightblue" stroke="midnightblue" points="373.03,-26.9152 365.374,-19.5914 366.792,-30.091 373.03,-26.9152"/>
</g>
<!-- Node20&#45;&gt;Node9 -->
<g id="edge28" class="edge"><title>Node20&#45;&gt;Node9</title>
<path fill="none" stroke="midnightblue" d="M371.841,-112.444C321.706,-102.944 240.78,-87.611 186.994,-77.4198"/>
<polygon fill="midnightblue" stroke="midnightblue" points="187.425,-73.9393 176.948,-75.5164 186.121,-80.8169 187.425,-73.9393"/>
</g>
<!-- Node21&#45;&gt;Node20 -->
<g id="edge30" class="edge"><title>Node21&#45;&gt;Node20</title>
<path fill="none" stroke="midnightblue" d="M411.991,-168.083C412.786,-160.927 413.929,-150.635 414.923,-141.691"/>
<polygon fill="midnightblue" stroke="midnightblue" points="418.402,-142.076 416.028,-131.751 411.445,-141.303 418.402,-142.076"/>
</g>
<!-- Node21&#45;&gt;Node18 -->
<g id="edge31" class="edge"><title>Node21&#45;&gt;Node18</title>
<path fill="none" stroke="midnightblue" d="M429.842,-168.358C445.451,-160.514 467.508,-147.776 483,-132 496.504,-118.248 507.321,-98.9577 514.106,-84.9663"/>
<polygon fill="midnightblue" stroke="midnightblue" points="517.292,-86.4153 518.314,-75.8699 510.939,-83.4759 517.292,-86.4153"/>
</g>
<!-- Node22&#45;&gt;Node20 -->
<g id="edge33" class="edge"><title>Node22&#45;&gt;Node20</title>
<path fill="none" stroke="midnightblue" d="M500.094,-168.324C484.362,-159.743 460.058,-146.486 441.791,-136.522"/>
<polygon fill="midnightblue" stroke="midnightblue" points="443.322,-133.37 432.867,-131.655 439.97,-139.516 443.322,-133.37"/>
</g>
<!-- Node22&#45;&gt;Node18 -->
<g id="edge34" class="edge"><title>Node22&#45;&gt;Node18</title>
<path fill="none" stroke="midnightblue" d="M516.471,-168.368C517.439,-150.617 519.673,-109.666 520.986,-85.5974"/>
<polygon fill="midnightblue" stroke="midnightblue" points="524.481,-85.7672 521.531,-75.5914 517.492,-85.3859 524.481,-85.7672"/>
</g>
<!-- Node23&#45;&gt;Node20 -->
<g id="edge36" class="edge"><title>Node23&#45;&gt;Node20</title>
<path fill="none" stroke="midnightblue" d="M600.457,-168.444C562.747,-159.102 502.26,-144.119 461.135,-133.933"/>
<polygon fill="midnightblue" stroke="midnightblue" points="461.929,-130.524 451.381,-131.516 460.246,-137.318 461.929,-130.524"/>
</g>
<!-- Node23&#45;&gt;Node18 -->
<g id="edge37" class="edge"><title>Node23&#45;&gt;Node18</title>
<path fill="none" stroke="midnightblue" d="M626.133,-168.368C607.155,-149.894 562.364,-106.293 538.173,-82.7436"/>
<polygon fill="midnightblue" stroke="midnightblue" points="540.433,-80.0588 530.826,-75.5914 535.55,-85.0747 540.433,-80.0588"/>
</g>
<!-- Node24&#45;&gt;Node20 -->
<g id="edge39" class="edge"><title>Node24&#45;&gt;Node20</title>
<path fill="none" stroke="midnightblue" d="M702.862,-169.628C699.866,-169.065 696.884,-168.516 694,-168 621.988,-155.11 539.156,-141.859 482.971,-133.106"/>
<polygon fill="midnightblue" stroke="midnightblue" points="483.217,-129.602 472.798,-131.525 482.142,-136.519 483.217,-129.602"/>
</g>
<!-- Node24&#45;&gt;Node18 -->
<g id="edge40" class="edge"><title>Node24&#45;&gt;Node18</title>
<path fill="none" stroke="midnightblue" d="M722.894,-168.368C684.928,-149.211 593.416,-103.036 548.194,-80.2172"/>
<polygon fill="midnightblue" stroke="midnightblue" points="549.531,-76.9716 539.027,-75.5914 546.378,-83.2211 549.531,-76.9716"/>
</g>
<!-- Node25 -->
<g id="node25" class="node"><title>Node25</title>
<polygon fill="white" stroke="#bfbfbf" points="713.5,-112.5 713.5,-131.5 766.5,-131.5 766.5,-112.5 713.5,-112.5"/>
<text text-anchor="middle" x="740" y="-119.5" font-family="Helvetica,sans-Serif" font-size="10.00">QVector</text>
</g>
<!-- Node24&#45;&gt;Node25 -->
<g id="edge41" class="edge"><title>Node24&#45;&gt;Node25</title>
<path fill="none" stroke="midnightblue" d="M740,-168.083C740,-161.006 740,-150.861 740,-141.986"/>
<polygon fill="midnightblue" stroke="midnightblue" points="743.5,-141.751 740,-131.751 736.5,-141.751 743.5,-141.751"/>
</g>
</g>
</svg>
