<?xml version="1.0" encoding="UTF-8" standalone="no"?>
<!DOCTYPE svg PUBLIC "-//W3C//DTD SVG 1.1//EN"
 "http://www.w3.org/Graphics/SVG/1.1/DTD/svg11.dtd">
<!-- Generated by graphviz version 2.30.1 (20130214.1330)
 -->
<!-- Title: Hoofdprogramma/ourProgram/src/tcpProtocol.cpp Pages: 1 -->
<svg width="163pt" height="208pt"
 viewBox="0.00 0.00 163.00 208.00" xmlns="http://www.w3.org/2000/svg" xmlns:xlink="http://www.w3.org/1999/xlink">
<g id="graph0" class="graph" transform="scale(1 1) rotate(0) translate(4 204)">
<title>Hoofdprogramma/ourProgram/src/tcpProtocol.cpp</title>
<polygon fill="white" stroke="white" points="-4,5 -4,-204 160,-204 160,5 -4,5"/>
<!-- Node1 -->
<g id="node1" class="node"><title>Node1</title>
<polygon fill="#bfbfbf" stroke="black" points="12.5,-169 12.5,-199 155.5,-199 155.5,-169 12.5,-169"/>
<text text-anchor="start" x="20.5" y="-187" font-family="Helvetica,sans-Serif" font-size="10.00">Hoofdprogramma/ourProgram</text>
<text text-anchor="middle" x="84" y="-176" font-family="Helvetica,sans-Serif" font-size="10.00">/src/tcpProtocol.cpp</text>
</g>
<!-- Node2 -->
<g id="node2" class="node"><title>Node2</title>
<g id="a_node2"><a xlink:href="../../dd/d50/our_program_8h.xhtml" target="_top" xlink:title="RTSystem/ourProgram.h">
<polygon fill="white" stroke="black" points="22,-56.5 22,-75.5 146,-75.5 146,-56.5 22,-56.5"/>
<text text-anchor="middle" x="84" y="-63.5" font-family="Helvetica,sans-Serif" font-size="10.00">RTSystem/ourProgram.h</text>
</a>
</g>
</g>
<!-- Node1&#45;&gt;Node2 -->
<g id="edge1" class="edge"><title>Node1&#45;&gt;Node2</title>
<path fill="none" stroke="midnightblue" d="M78.7012,-168.91C73.9706,-154.624 68.1899,-131.852 71,-112 72.2679,-103.042 74.8889,-93.372 77.4475,-85.2998"/>
<polygon fill="midnightblue" stroke="midnightblue" points="80.7709,-86.3976 80.656,-75.8034 74.1392,-84.1569 80.7709,-86.3976"/>
</g>
<!-- Node5 -->
<g id="node5" class="node"><title>Node5</title>
<g id="a_node5"><a xlink:href="../../d2/d45/tcp_protocol_8h.xhtml" target="_top" xlink:title="tcpProtocol.h">
<polygon fill="white" stroke="black" points="80,-112.5 80,-131.5 154,-131.5 154,-112.5 80,-112.5"/>
<text text-anchor="middle" x="117" y="-119.5" font-family="Helvetica,sans-Serif" font-size="10.00">tcpProtocol.h</text>
</a>
</g>
</g>
<!-- Node1&#45;&gt;Node5 -->
<g id="edge4" class="edge"><title>Node1&#45;&gt;Node5</title>
<path fill="none" stroke="midnightblue" d="M91.8205,-168.781C96.4675,-160.332 102.399,-149.548 107.337,-140.569"/>
<polygon fill="midnightblue" stroke="midnightblue" points="110.446,-142.179 112.198,-131.731 104.312,-138.806 110.446,-142.179"/>
</g>
<!-- Node3 -->
<g id="node3" class="node"><title>Node3</title>
<polygon fill="white" stroke="#bfbfbf" points="0,-0.5 0,-19.5 82,-19.5 82,-0.5 0,-0.5"/>
<text text-anchor="middle" x="41" y="-7.5" font-family="Helvetica,sans-Serif" font-size="10.00">RTStructures.h</text>
</g>
<!-- Node2&#45;&gt;Node3 -->
<g id="edge2" class="edge"><title>Node2&#45;&gt;Node3</title>
<path fill="none" stroke="midnightblue" d="M76.8994,-56.083C70.763,-48.3768 61.7303,-37.0333 54.2608,-27.6531"/>
<polygon fill="midnightblue" stroke="midnightblue" points="56.9357,-25.3936 47.9685,-19.7511 51.4598,-29.7542 56.9357,-25.3936"/>
</g>
<!-- Node4 -->
<g id="node4" class="node"><title>Node4</title>
<polygon fill="white" stroke="#bfbfbf" points="100,-0.5 100,-19.5 154,-19.5 154,-0.5 100,-0.5"/>
<text text-anchor="middle" x="127" y="-7.5" font-family="Helvetica,sans-Serif" font-size="10.00">iostream</text>
</g>
<!-- Node2&#45;&gt;Node4 -->
<g id="edge3" class="edge"><title>Node2&#45;&gt;Node4</title>
<path fill="none" stroke="midnightblue" d="M91.1006,-56.083C97.237,-48.3768 106.27,-37.0333 113.739,-27.6531"/>
<polygon fill="midnightblue" stroke="midnightblue" points="116.54,-29.7542 120.032,-19.7511 111.064,-25.3936 116.54,-29.7542"/>
</g>
<!-- Node5&#45;&gt;Node2 -->
<g id="edge5" class="edge"><title>Node5&#45;&gt;Node2</title>
<path fill="none" stroke="midnightblue" d="M111.551,-112.083C106.986,-104.613 100.332,-93.7244 94.7066,-84.5199"/>
<polygon fill="midnightblue" stroke="midnightblue" points="97.5489,-82.4588 89.3479,-75.7511 91.5759,-86.109 97.5489,-82.4588"/>
</g>
</g>
</svg>
