<?xml version="1.0" encoding="UTF-8" standalone="no"?>
<!DOCTYPE svg PUBLIC "-//W3C//DTD SVG 1.1//EN"
 "http://www.w3.org/Graphics/SVG/1.1/DTD/svg11.dtd">
<!-- Generated by graphviz version 2.30.1 (20130214.1330)
 -->
<!-- Title: GUI/bin/debug/debug/moc_controllingroomba.cpp Pages: 1 -->
<!--zoomable 388 -->
<svg id="main" version="1.1" xmlns="http://www.w3.org/2000/svg" xmlns:xlink="http://www.w3.org/1999/xlink" xml:space="preserve" onload="init(evt)">
        <defs>
                <circle id="rim" cx="0" cy="0" r="7"/>
                <circle id="rim2" cx="0" cy="0" r="3.5"/>
                <g id="zoomPlus">
                        <use xlink:href="#rim" fill="#404040">
                                <set attributeName="fill" to="#808080" begin="zoomplus.mouseover" end="zoomplus.mouseout"/>
                        </use>
                        <path d="M-4,0h8M0,-4v8" fill="none" stroke="white" stroke-width="1.5" pointer-events="none"/>
                </g>
                <g id="zoomMin">
                        <use xlink:href="#rim" fill="#404040">
                                <set attributeName="fill" to="#808080" begin="zoomminus.mouseover" end="zoomminus.mouseout"/>
                        </use>
                        <path d="M-4,0h8" fill="none" stroke="white" stroke-width="1.5" pointer-events="none"/>
                </g>
                <g id="dirArrow">
                        <path fill="none" stroke="white" stroke-width="1.5" d="M0,-3.0v7 M-2.5,-0.5L0,-3.0L2.5,-0.5"/>
                </g>
               <g id="resetDef">
                       <use xlink:href="#rim2" fill="#404040">
                               <set attributeName="fill" to="#808080" begin="reset.mouseover" end="reset.mouseout"/>
                       </use>
               </g>
        </defs>

<script type="text/javascript">
var viewWidth = 970;
var viewHeight = 388;
var sectionId = 'dynsection-0';
</script>
<script xlink:href="../../svgpan.js"/>
<svg id="graph" class="graph">
<g id="viewport">
<title>GUI/bin/debug/debug/moc_controllingroomba.cpp</title>
<polygon fill="white" stroke="white" points="-4,5 -4,-384 967,-384 967,5 -4,5"/>
<!-- Node1 -->
<g id="node1" class="node"><title>Node1</title>
<polygon fill="#bfbfbf" stroke="black" points="718.5,-349 718.5,-379 857.5,-379 857.5,-349 718.5,-349"/>
<text text-anchor="start" x="726.5" y="-367" font-family="Helvetica,sans-Serif" font-size="10.00">GUI/bin/debug/debug</text>
<text text-anchor="middle" x="788" y="-356" font-family="Helvetica,sans-Serif" font-size="10.00">/moc_controllingroomba.cpp</text>
</g>
<!-- Node2 -->
<g id="node2" class="node"><title>Node2</title>
<g id="a_node2"><a xlink:href="../../da/d4b/controllingroomba_8h.xhtml" target="_top" xlink:title="../../../Gui&#45;RoombaV1.0\l/controllingroomba.h">
<polygon fill="white" stroke="black" points="600,-281 600,-311 718,-311 718,-281 600,-281"/>
<text text-anchor="start" x="608" y="-299" font-family="Helvetica,sans-Serif" font-size="10.00">../../../Gui&#45;RoombaV1.0</text>
<text text-anchor="middle" x="659" y="-288" font-family="Helvetica,sans-Serif" font-size="10.00">/controllingroomba.h</text>
</a>
</g>
</g>
<!-- Node1&#45;&gt;Node2 -->
<g id="edge1" class="edge"><title>Node1&#45;&gt;Node2</title>
<path fill="none" stroke="midnightblue" d="M760.326,-348.841C741.452,-339.185 716.25,-326.29 695.702,-315.778"/>
<polygon fill="midnightblue" stroke="midnightblue" points="697.125,-312.574 686.628,-311.135 693.936,-318.806 697.125,-312.574"/>
</g>
<!-- Node25 -->
<g id="node25" class="node"><title>Node25</title>
<polygon fill="white" stroke="#bfbfbf" points="736,-286.5 736,-305.5 840,-305.5 840,-286.5 736,-286.5"/>
<text text-anchor="middle" x="788" y="-293.5" font-family="Helvetica,sans-Serif" font-size="10.00">QtCore/qbytearray.h</text>
</g>
<!-- Node1&#45;&gt;Node25 -->
<g id="edge41" class="edge"><title>Node1&#45;&gt;Node25</title>
<path fill="none" stroke="midnightblue" d="M788,-348.679C788,-339.101 788,-326.394 788,-315.977"/>
<polygon fill="midnightblue" stroke="midnightblue" points="791.5,-315.828 788,-305.828 784.5,-315.828 791.5,-315.828"/>
</g>
<!-- Node26 -->
<g id="node26" class="node"><title>Node26</title>
<polygon fill="white" stroke="#bfbfbf" points="858,-286.5 858,-305.5 962,-305.5 962,-286.5 858,-286.5"/>
<text text-anchor="middle" x="910" y="-293.5" font-family="Helvetica,sans-Serif" font-size="10.00">QtCore/qmetatype.h</text>
</g>
<!-- Node1&#45;&gt;Node26 -->
<g id="edge42" class="edge"><title>Node1&#45;&gt;Node26</title>
<path fill="none" stroke="midnightblue" d="M814.172,-348.841C835.18,-337.476 864.475,-321.628 885.13,-310.454"/>
<polygon fill="midnightblue" stroke="midnightblue" points="886.822,-313.519 893.952,-305.682 883.491,-307.362 886.822,-313.519"/>
</g>
<!-- Node3 -->
<g id="node3" class="node"><title>Node3</title>
<g id="a_node3"><a xlink:href="../../d4/d05/json_8h.xhtml" target="_top" xlink:title="../resources/json.h">
<polygon fill="white" stroke="black" points="0,-112.5 0,-131.5 98,-131.5 98,-112.5 0,-112.5"/>
<text text-anchor="middle" x="49" y="-119.5" font-family="Helvetica,sans-Serif" font-size="10.00">../resources/json.h</text>
</a>
</g>
</g>
<!-- Node2&#45;&gt;Node3 -->
<g id="edge2" class="edge"><title>Node2&#45;&gt;Node3</title>
<path fill="none" stroke="midnightblue" d="M599.9,-293.656C462.089,-289.157 125.827,-269.846 56,-188 45.3046,-175.464 44.4893,-156.24 45.7873,-141.947"/>
<polygon fill="midnightblue" stroke="midnightblue" points="49.2928,-142.135 47.1331,-131.762 42.3531,-141.218 49.2928,-142.135"/>
</g>
<!-- Node6 -->
<g id="node6" class="node"><title>Node6</title>
<g id="a_node6"><a xlink:href="../../dc/d96/jsoncommand_8h.xhtml" target="_top" xlink:title="../resources/jsoncommand.h">
<polygon fill="white" stroke="black" points="83,-168.5 83,-187.5 223,-187.5 223,-168.5 83,-168.5"/>
<text text-anchor="middle" x="153" y="-175.5" font-family="Helvetica,sans-Serif" font-size="10.00">../resources/jsoncommand.h</text>
</a>
</g>
</g>
<!-- Node2&#45;&gt;Node6 -->
<g id="edge5" class="edge"><title>Node2&#45;&gt;Node6</title>
<path fill="none" stroke="midnightblue" d="M599.859,-289.473C533.256,-282.417 422.156,-268.14 329,-244 275.621,-230.168 215.875,-206.205 181.525,-191.559"/>
<polygon fill="midnightblue" stroke="midnightblue" points="182.695,-188.252 172.126,-187.513 179.927,-194.682 182.695,-188.252"/>
</g>
<!-- Node15 -->
<g id="node15" class="node"><title>Node15</title>
<g id="a_node15"><a xlink:href="../../d4/dca/_roomba_connect_8h.xhtml" target="_top" xlink:title="RoombaConnect.h">
<polygon fill="white" stroke="black" points="513.5,-224.5 513.5,-243.5 610.5,-243.5 610.5,-224.5 513.5,-224.5"/>
<text text-anchor="middle" x="562" y="-231.5" font-family="Helvetica,sans-Serif" font-size="10.00">RoombaConnect.h</text>
</a>
</g>
</g>
<!-- Node2&#45;&gt;Node15 -->
<g id="edge15" class="edge"><title>Node2&#45;&gt;Node15</title>
<path fill="none" stroke="midnightblue" d="M636.012,-280.781C620.517,-271.196 600.163,-258.606 584.723,-249.056"/>
<polygon fill="midnightblue" stroke="midnightblue" points="586.177,-245.84 575.832,-243.556 582.495,-251.793 586.177,-245.84"/>
</g>
<!-- Node9 -->
<g id="node9" class="node"><title>Node9</title>
<g id="a_node9"><a xlink:href="../../d7/d62/clslog_8h.xhtml" target="_top" xlink:title="clslog.h">
<polygon fill="white" stroke="black" points="653,-56.5 653,-75.5 703,-75.5 703,-56.5 653,-56.5"/>
<text text-anchor="middle" x="678" y="-63.5" font-family="Helvetica,sans-Serif" font-size="10.00">clslog.h</text>
</a>
</g>
</g>
<!-- Node2&#45;&gt;Node9 -->
<g id="edge35" class="edge"><title>Node2&#45;&gt;Node9</title>
<path fill="none" stroke="midnightblue" d="M703.521,-280.996C744.025,-265.524 801.03,-236.2 825,-188 852.046,-133.616 764.532,-94.9638 712.98,-77.4781"/>
<polygon fill="midnightblue" stroke="midnightblue" points="713.787,-74.0592 703.194,-74.2649 711.603,-80.7099 713.787,-74.0592"/>
</g>
<!-- Node21 -->
<g id="node21" class="node"><title>Node21</title>
<g id="a_node21"><a xlink:href="../../db/d97/clsevent_8h.xhtml" target="_top" xlink:title="../resources/clsevent.h">
<polygon fill="white" stroke="black" points="284.5,-112.5 284.5,-131.5 399.5,-131.5 399.5,-112.5 284.5,-112.5"/>
<text text-anchor="middle" x="342" y="-119.5" font-family="Helvetica,sans-Serif" font-size="10.00">../resources/clsevent.h</text>
</a>
</g>
</g>
<!-- Node2&#45;&gt;Node21 -->
<g id="edge36" class="edge"><title>Node2&#45;&gt;Node21</title>
<path fill="none" stroke="midnightblue" d="M599.741,-286.186C537.119,-274.062 438.897,-246.669 376,-188 362.345,-175.263 353.178,-155.793 347.838,-141.482"/>
<polygon fill="midnightblue" stroke="midnightblue" points="351.05,-140.059 344.489,-131.74 344.43,-142.334 351.05,-140.059"/>
</g>
<!-- Node23 -->
<g id="node23" class="node"><title>Node23</title>
<polygon fill="white" stroke="#bfbfbf" points="687.5,-224.5 687.5,-243.5 742.5,-243.5 742.5,-224.5 687.5,-224.5"/>
<text text-anchor="middle" x="715" y="-231.5" font-family="Helvetica,sans-Serif" font-size="10.00">QWidget</text>
</g>
<!-- Node2&#45;&gt;Node23 -->
<g id="edge37" class="edge"><title>Node2&#45;&gt;Node23</title>
<path fill="none" stroke="midnightblue" d="M672.271,-280.781C680.576,-271.882 691.299,-260.394 699.924,-251.152"/>
<polygon fill="midnightblue" stroke="midnightblue" points="702.587,-253.429 706.852,-243.731 697.47,-248.653 702.587,-253.429"/>
</g>
<!-- Node17 -->
<g id="node17" class="node"><title>Node17</title>
<polygon fill="white" stroke="#bfbfbf" points="745.5,-168.5 745.5,-187.5 816.5,-187.5 816.5,-168.5 745.5,-168.5"/>
<text text-anchor="middle" x="781" y="-175.5" font-family="Helvetica,sans-Serif" font-size="10.00">QTcpSocket</text>
</g>
<!-- Node2&#45;&gt;Node17 -->
<g id="edge38" class="edge"><title>Node2&#45;&gt;Node17</title>
<path fill="none" stroke="midnightblue" d="M659.273,-280.799C660.301,-265.146 664.19,-240.061 678,-224 692.76,-206.834 715.296,-195.985 735.529,-189.252"/>
<polygon fill="midnightblue" stroke="midnightblue" points="736.702,-192.553 745.232,-186.269 734.645,-185.863 736.702,-192.553"/>
</g>
<!-- Node24 -->
<g id="node24" class="node"><title>Node24</title>
<polygon fill="white" stroke="#bfbfbf" points="859.5,-224.5 859.5,-243.5 908.5,-243.5 908.5,-224.5 859.5,-224.5"/>
<text text-anchor="middle" x="884" y="-231.5" font-family="Helvetica,sans-Serif" font-size="10.00">QSlider</text>
</g>
<!-- Node2&#45;&gt;Node24 -->
<g id="edge39" class="edge"><title>Node2&#45;&gt;Node24</title>
<path fill="none" stroke="midnightblue" d="M711.753,-280.933C754.257,-269.598 812.79,-253.989 849.501,-244.2"/>
<polygon fill="midnightblue" stroke="midnightblue" points="850.485,-247.56 859.245,-241.601 848.681,-240.796 850.485,-247.56"/>
</g>
<!-- Node16 -->
<g id="node16" class="node"><title>Node16</title>
<polygon fill="white" stroke="#bfbfbf" points="886.5,-168.5 886.5,-187.5 933.5,-187.5 933.5,-168.5 886.5,-168.5"/>
<text text-anchor="middle" x="910" y="-175.5" font-family="Helvetica,sans-Serif" font-size="10.00">QtCore</text>
</g>
<!-- Node2&#45;&gt;Node16 -->
<g id="edge40" class="edge"><title>Node2&#45;&gt;Node16</title>
<path fill="none" stroke="midnightblue" d="M718.316,-281.806C721.251,-281.188 724.158,-280.583 727,-280 769.098,-271.371 889.587,-277.095 917,-244 927.72,-231.058 923.698,-211.343 918.401,-197.019"/>
<polygon fill="midnightblue" stroke="midnightblue" points="921.598,-195.592 914.511,-187.716 915.14,-198.292 921.598,-195.592"/>
</g>
<!-- Node4 -->
<g id="node4" class="node"><title>Node4</title>
<polygon fill="white" stroke="#bfbfbf" points="189.5,-56.5 189.5,-75.5 244.5,-75.5 244.5,-56.5 189.5,-56.5"/>
<text text-anchor="middle" x="217" y="-63.5" font-family="Helvetica,sans-Serif" font-size="10.00">QVariant</text>
</g>
<!-- Node3&#45;&gt;Node4 -->
<g id="edge3" class="edge"><title>Node3&#45;&gt;Node4</title>
<path fill="none" stroke="midnightblue" d="M75.6201,-112.444C104.006,-103.32 149.137,-88.8133 180.753,-78.6509"/>
<polygon fill="midnightblue" stroke="midnightblue" points="182.055,-81.9087 190.504,-75.5164 179.913,-75.2445 182.055,-81.9087"/>
</g>
<!-- Node5 -->
<g id="node5" class="node"><title>Node5</title>
<polygon fill="white" stroke="#bfbfbf" points="263,-56.5 263,-75.5 313,-75.5 313,-56.5 263,-56.5"/>
<text text-anchor="middle" x="288" y="-63.5" font-family="Helvetica,sans-Serif" font-size="10.00">QString</text>
</g>
<!-- Node3&#45;&gt;Node5 -->
<g id="edge4" class="edge"><title>Node3&#45;&gt;Node5</title>
<path fill="none" stroke="midnightblue" d="M89.7354,-112.448C130.981,-103.686 196.558,-89.4778 253,-76 253.099,-75.9763 253.198,-75.9526 253.298,-75.9288"/>
<polygon fill="midnightblue" stroke="midnightblue" points="253.917,-79.381 262.791,-73.5933 252.244,-72.5837 253.917,-79.381"/>
</g>
<!-- Node7 -->
<g id="node7" class="node"><title>Node7</title>
<polygon fill="white" stroke="#bfbfbf" points="331.5,-56.5 331.5,-75.5 384.5,-75.5 384.5,-56.5 331.5,-56.5"/>
<text text-anchor="middle" x="358" y="-63.5" font-family="Helvetica,sans-Serif" font-size="10.00">QObject</text>
</g>
<!-- Node6&#45;&gt;Node7 -->
<g id="edge6" class="edge"><title>Node6&#45;&gt;Node7</title>
<path fill="none" stroke="midnightblue" d="M169.086,-168.368C204.713,-149.251 290.482,-103.229 333.1,-80.361"/>
<polygon fill="midnightblue" stroke="midnightblue" points="334.832,-83.4037 341.989,-75.5914 331.522,-77.2356 334.832,-83.4037"/>
</g>
<!-- Node8 -->
<g id="node8" class="node"><title>Node8</title>
<polygon fill="white" stroke="#bfbfbf" points="116,-112.5 116,-131.5 190,-131.5 190,-112.5 116,-112.5"/>
<text text-anchor="middle" x="153" y="-119.5" font-family="Helvetica,sans-Serif" font-size="10.00">QVariantMap</text>
</g>
<!-- Node6&#45;&gt;Node8 -->
<g id="edge7" class="edge"><title>Node6&#45;&gt;Node8</title>
<path fill="none" stroke="midnightblue" d="M153,-168.083C153,-161.006 153,-150.861 153,-141.986"/>
<polygon fill="midnightblue" stroke="midnightblue" points="156.5,-141.751 153,-131.751 149.5,-141.751 156.5,-141.751"/>
</g>
<!-- Node6&#45;&gt;Node3 -->
<g id="edge8" class="edge"><title>Node6&#45;&gt;Node3</title>
<path fill="none" stroke="midnightblue" d="M136.291,-168.324C119.688,-159.703 93.9979,-146.364 74.7795,-136.386"/>
<polygon fill="midnightblue" stroke="midnightblue" points="76.1558,-133.156 65.6679,-131.655 72.93,-139.369 76.1558,-133.156"/>
</g>
<!-- Node6&#45;&gt;Node9 -->
<g id="edge9" class="edge"><title>Node6&#45;&gt;Node9</title>
<path fill="none" stroke="midnightblue" d="M206.912,-168.476C258.651,-160.062 338.905,-146.399 408,-132 492.783,-114.331 591.517,-89.4561 642.883,-76.1863"/>
<polygon fill="midnightblue" stroke="midnightblue" points="644.002,-79.5119 652.805,-73.6151 642.246,-72.7357 644.002,-79.5119"/>
</g>
<!-- Node10 -->
<g id="node10" class="node"><title>Node10</title>
<polygon fill="white" stroke="#bfbfbf" points="575,-0.5 575,-19.5 627,-19.5 627,-0.5 575,-0.5"/>
<text text-anchor="middle" x="601" y="-7.5" font-family="Helvetica,sans-Serif" font-size="10.00">QDebug</text>
</g>
<!-- Node9&#45;&gt;Node10 -->
<g id="edge10" class="edge"><title>Node9&#45;&gt;Node10</title>
<path fill="none" stroke="midnightblue" d="M665.629,-56.324C653.842,-48.0577 635.868,-35.4527 621.864,-25.6322"/>
<polygon fill="midnightblue" stroke="midnightblue" points="623.538,-22.5307 613.341,-19.6545 619.518,-28.2619 623.538,-22.5307"/>
</g>
<!-- Node11 -->
<g id="node11" class="node"><title>Node11</title>
<polygon fill="white" stroke="#bfbfbf" points="428.5,-0.5 428.5,-19.5 493.5,-19.5 493.5,-0.5 428.5,-0.5"/>
<text text-anchor="middle" x="461" y="-7.5" font-family="Helvetica,sans-Serif" font-size="10.00">QDateTime</text>
</g>
<!-- Node9&#45;&gt;Node11 -->
<g id="edge11" class="edge"><title>Node9&#45;&gt;Node11</title>
<path fill="none" stroke="midnightblue" d="M652.683,-58.6998C616.069,-49.5886 547.871,-32.6177 503.473,-21.5694"/>
<polygon fill="midnightblue" stroke="midnightblue" points="504.107,-18.1204 493.558,-19.1019 502.417,-24.9132 504.107,-18.1204"/>
</g>
<!-- Node12 -->
<g id="node12" class="node"><title>Node12</title>
<polygon fill="white" stroke="#bfbfbf" points="728.5,-0.5 728.5,-19.5 769.5,-19.5 769.5,-0.5 728.5,-0.5"/>
<text text-anchor="middle" x="749" y="-7.5" font-family="Helvetica,sans-Serif" font-size="10.00">string</text>
</g>
<!-- Node9&#45;&gt;Node12 -->
<g id="edge12" class="edge"><title>Node9&#45;&gt;Node12</title>
<path fill="none" stroke="midnightblue" d="M689.407,-56.324C700.109,-48.1849 716.341,-35.8395 729.163,-26.0874"/>
<polygon fill="midnightblue" stroke="midnightblue" points="731.544,-28.6734 737.385,-19.8339 727.307,-23.1018 731.544,-28.6734"/>
</g>
<!-- Node13 -->
<g id="node13" class="node"><title>Node13</title>
<polygon fill="white" stroke="#bfbfbf" points="788,-0.5 788,-19.5 842,-19.5 842,-0.5 788,-0.5"/>
<text text-anchor="middle" x="815" y="-7.5" font-family="Helvetica,sans-Serif" font-size="10.00">iostream</text>
</g>
<!-- Node9&#45;&gt;Node13 -->
<g id="edge13" class="edge"><title>Node9&#45;&gt;Node13</title>
<path fill="none" stroke="midnightblue" d="M699.708,-56.4435C722.355,-47.5171 758.072,-33.4387 783.752,-23.3168"/>
<polygon fill="midnightblue" stroke="midnightblue" points="785.374,-26.4397 793.394,-19.5164 782.807,-19.9273 785.374,-26.4397"/>
</g>
<!-- Node14 -->
<g id="node14" class="node"><title>Node14</title>
<polygon fill="white" stroke="#bfbfbf" points="645.5,-0.5 645.5,-19.5 710.5,-19.5 710.5,-0.5 645.5,-0.5"/>
<text text-anchor="middle" x="678" y="-7.5" font-family="Helvetica,sans-Serif" font-size="10.00">QStringList</text>
</g>
<!-- Node9&#45;&gt;Node14 -->
<g id="edge14" class="edge"><title>Node9&#45;&gt;Node14</title>
<path fill="none" stroke="midnightblue" d="M678,-56.083C678,-49.0059 678,-38.8611 678,-29.9865"/>
<polygon fill="midnightblue" stroke="midnightblue" points="681.5,-29.751 678,-19.7511 674.5,-29.7511 681.5,-29.751"/>
</g>
<!-- Node15&#45;&gt;Node10 -->
<g id="edge16" class="edge"><title>Node15&#45;&gt;Node10</title>
<path fill="none" stroke="midnightblue" d="M570.337,-224.187C577.805,-215.67 588.286,-202.029 593,-188 611.495,-132.965 607.066,-62.8671 603.463,-29.8344"/>
<polygon fill="midnightblue" stroke="midnightblue" points="606.924,-29.2957 602.262,-19.7816 599.973,-30.1262 606.924,-29.2957"/>
</g>
<!-- Node15&#45;&gt;Node16 -->
<g id="edge17" class="edge"><title>Node15&#45;&gt;Node16</title>
<path fill="none" stroke="midnightblue" d="M610.754,-225.435C682.37,-214.322 814.204,-193.865 876.156,-184.252"/>
<polygon fill="midnightblue" stroke="midnightblue" points="876.836,-187.688 886.181,-182.696 875.762,-180.771 876.836,-187.688"/>
</g>
<!-- Node15&#45;&gt;Node7 -->
<g id="edge18" class="edge"><title>Node15&#45;&gt;Node7</title>
<path fill="none" stroke="midnightblue" d="M513.332,-225.237C488.087,-218.975 458.358,-207.799 438,-188 411.967,-162.682 428.713,-141.828 408,-112 400.066,-100.574 388.691,-90.0394 378.795,-82.0396"/>
<polygon fill="midnightblue" stroke="midnightblue" points="380.654,-79.0527 370.602,-75.7033 376.371,-84.5898 380.654,-79.0527"/>
</g>
<!-- Node15&#45;&gt;Node17 -->
<g id="edge19" class="edge"><title>Node15&#45;&gt;Node17</title>
<path fill="none" stroke="midnightblue" d="M596.701,-224.444C634.585,-215.102 695.349,-200.119 736.662,-189.933"/>
<polygon fill="midnightblue" stroke="midnightblue" points="737.59,-193.309 746.461,-187.516 735.914,-186.512 737.59,-193.309"/>
</g>
<!-- Node18 -->
<g id="node18" class="node"><title>Node18</title>
<polygon fill="white" stroke="#bfbfbf" points="447,-168.5 447,-187.5 521,-187.5 521,-168.5 447,-168.5"/>
<text text-anchor="middle" x="484" y="-175.5" font-family="Helvetica,sans-Serif" font-size="10.00">QTextStream</text>
</g>
<!-- Node15&#45;&gt;Node18 -->
<g id="edge20" class="edge"><title>Node15&#45;&gt;Node18</title>
<path fill="none" stroke="midnightblue" d="M549.468,-224.324C537.414,-215.979 518.973,-203.212 504.731,-193.352"/>
<polygon fill="midnightblue" stroke="midnightblue" points="506.715,-190.469 496.501,-187.655 502.731,-196.224 506.715,-190.469"/>
</g>
<!-- Node19 -->
<g id="node19" class="node"><title>Node19</title>
<polygon fill="white" stroke="#bfbfbf" points="539.5,-168.5 539.5,-187.5 584.5,-187.5 584.5,-168.5 539.5,-168.5"/>
<text text-anchor="middle" x="562" y="-175.5" font-family="Helvetica,sans-Serif" font-size="10.00">QTime</text>
</g>
<!-- Node15&#45;&gt;Node19 -->
<g id="edge21" class="edge"><title>Node15&#45;&gt;Node19</title>
<path fill="none" stroke="midnightblue" d="M562,-224.083C562,-217.006 562,-206.861 562,-197.986"/>
<polygon fill="midnightblue" stroke="midnightblue" points="565.5,-197.751 562,-187.751 558.5,-197.751 565.5,-197.751"/>
</g>
<!-- Node15&#45;&gt;Node9 -->
<g id="edge22" class="edge"><title>Node15&#45;&gt;Node9</title>
<path fill="none" stroke="midnightblue" d="M610.577,-230.679C641.048,-226.404 678.193,-215.417 698,-188 720.455,-156.917 701.418,-109.685 688.155,-84.4074"/>
<polygon fill="midnightblue" stroke="midnightblue" points="691.185,-82.6547 683.289,-75.591 685.057,-86.0373 691.185,-82.6547"/>
</g>
<!-- Node20 -->
<g id="node20" class="node"><title>Node20</title>
<polygon fill="white" stroke="#bfbfbf" points="641,-168.5 641,-187.5 689,-187.5 689,-168.5 641,-168.5"/>
<text text-anchor="middle" x="665" y="-175.5" font-family="Helvetica,sans-Serif" font-size="10.00">QTimer</text>
</g>
<!-- Node15&#45;&gt;Node20 -->
<g id="edge23" class="edge"><title>Node15&#45;&gt;Node20</title>
<path fill="none" stroke="midnightblue" d="M578.549,-224.324C594.992,-215.703 620.435,-202.364 639.468,-192.386"/>
<polygon fill="midnightblue" stroke="midnightblue" points="641.261,-195.398 648.492,-187.655 638.011,-189.198 641.261,-195.398"/>
</g>
<!-- Node15&#45;&gt;Node6 -->
<g id="edge24" class="edge"><title>Node15&#45;&gt;Node6</title>
<path fill="none" stroke="midnightblue" d="M513.476,-226.593C442.787,-217.26 310.881,-199.845 227.737,-188.867"/>
<polygon fill="midnightblue" stroke="midnightblue" points="227.968,-185.368 217.596,-187.529 227.051,-192.307 227.968,-185.368"/>
</g>
<!-- Node15&#45;&gt;Node3 -->
<g id="edge25" class="edge"><title>Node15&#45;&gt;Node3</title>
<path fill="none" stroke="midnightblue" d="M513.201,-231.394C396.525,-227.149 108.517,-214.119 74,-188 59.7098,-177.186 53.5866,-157.105 50.9637,-142.113"/>
<polygon fill="midnightblue" stroke="midnightblue" points="54.3867,-141.311 49.563,-131.878 47.4513,-142.26 54.3867,-141.311"/>
</g>
<!-- Node15&#45;&gt;Node21 -->
<g id="edge26" class="edge"><title>Node15&#45;&gt;Node21</title>
<path fill="none" stroke="midnightblue" d="M513.363,-225.817C480.938,-219.458 438.317,-207.975 405,-188 384.239,-175.553 365.653,-154.553 354.142,-139.798"/>
<polygon fill="midnightblue" stroke="midnightblue" points="356.743,-137.434 347.932,-131.551 351.151,-141.645 356.743,-137.434"/>
</g>
<!-- Node22 -->
<g id="node22" class="node"><title>Node22</title>
<g id="a_node22"><a xlink:href="../../d4/d25/sensordata_8h.xhtml" target="_top" xlink:title="sensordata.h">
<polygon fill="white" stroke="black" points="241.5,-168.5 241.5,-187.5 314.5,-187.5 314.5,-168.5 241.5,-168.5"/>
<text text-anchor="middle" x="278" y="-175.5" font-family="Helvetica,sans-Serif" font-size="10.00">sensordata.h</text>
</a>
</g>
</g>
<!-- Node15&#45;&gt;Node22 -->
<g id="edge32" class="edge"><title>Node15&#45;&gt;Node22</title>
<path fill="none" stroke="midnightblue" d="M516.999,-224.444C464.396,-214.441 377.774,-197.971 324.524,-187.846"/>
<polygon fill="midnightblue" stroke="midnightblue" points="325.14,-184.401 314.662,-185.971 323.832,-191.277 325.14,-184.401"/>
</g>
<!-- Node21&#45;&gt;Node7 -->
<g id="edge27" class="edge"><title>Node21&#45;&gt;Node7</title>
<path fill="none" stroke="midnightblue" d="M344.642,-112.083C346.786,-104.849 349.879,-94.4087 352.549,-85.3968"/>
<polygon fill="midnightblue" stroke="midnightblue" points="355.922,-86.3334 355.407,-75.7511 349.21,-84.3447 355.922,-86.3334"/>
</g>
<!-- Node21&#45;&gt;Node5 -->
<g id="edge28" class="edge"><title>Node21&#45;&gt;Node5</title>
<path fill="none" stroke="midnightblue" d="M333.083,-112.083C325.22,-104.22 313.569,-92.5688 304.081,-83.0813"/>
<polygon fill="midnightblue" stroke="midnightblue" points="306.297,-80.3473 296.751,-75.7511 301.347,-85.2971 306.297,-80.3473"/>
</g>
<!-- Node21&#45;&gt;Node4 -->
<g id="edge29" class="edge"><title>Node21&#45;&gt;Node4</title>
<path fill="none" stroke="midnightblue" d="M322.193,-112.444C301.713,-103.596 269.517,-89.6875 246.135,-79.5865"/>
<polygon fill="midnightblue" stroke="midnightblue" points="247.282,-76.2692 236.714,-75.5164 244.506,-82.6953 247.282,-76.2692"/>
</g>
<!-- Node21&#45;&gt;Node11 -->
<g id="edge30" class="edge"><title>Node21&#45;&gt;Node11</title>
<path fill="none" stroke="midnightblue" d="M351.88,-112.488C362.231,-103.523 378.911,-88.9396 393,-76 411.099,-59.3775 431.414,-39.8397 445.087,-26.5562"/>
<polygon fill="midnightblue" stroke="midnightblue" points="447.582,-29.0119 452.303,-19.5272 442.698,-23.9975 447.582,-29.0119"/>
</g>
<!-- Node21&#45;&gt;Node9 -->
<g id="edge31" class="edge"><title>Node21&#45;&gt;Node9</title>
<path fill="none" stroke="midnightblue" d="M395.24,-112.444C464.542,-101.306 583.75,-82.1473 642.774,-72.6613"/>
<polygon fill="midnightblue" stroke="midnightblue" points="643.414,-76.1035 652.731,-71.061 642.303,-69.1922 643.414,-76.1035"/>
</g>
<!-- Node22&#45;&gt;Node21 -->
<g id="edge33" class="edge"><title>Node22&#45;&gt;Node21</title>
<path fill="none" stroke="midnightblue" d="M288.283,-168.324C297.836,-160.263 312.28,-148.077 323.784,-138.369"/>
<polygon fill="midnightblue" stroke="midnightblue" points="326.144,-140.958 331.53,-131.834 321.63,-135.608 326.144,-140.958"/>
</g>
<!-- Node22&#45;&gt;Node4 -->
<g id="edge34" class="edge"><title>Node22&#45;&gt;Node4</title>
<path fill="none" stroke="midnightblue" d="M273.213,-168.368C263.236,-150.376 240.042,-108.55 226.775,-84.6267"/>
<polygon fill="midnightblue" stroke="midnightblue" points="229.675,-82.6393 221.764,-75.5914 223.553,-86.0342 229.675,-82.6393"/>
</g>
</g>
</svg>
        <g id="navigator" transform="translate(0 0)" fill="#404254">
                <rect fill="#f2f5e9" fill-opacity="0.5" stroke="#606060" stroke-width=".5" x="0" y="0" width="60" height="60"/>
                <use id="zoomplus" xlink:href="#zoomPlus" x="17" y="9" onmousedown="handleZoom(evt,'in')"/>
                <use id="zoomminus" xlink:href="#zoomMin" x="42" y="9" onmousedown="handleZoom(evt,'out')"/>
                <use id="reset" xlink:href="#resetDef" x="30" y="36" onmousedown="handleReset()"/>
                <g id="arrowUp" xlink:href="#dirArrow" transform="translate(30 24)" onmousedown="handlePan(0,-1)">
                  <use xlink:href="#rim" fill="#404040">
                        <set attributeName="fill" to="#808080" begin="arrowUp.mouseover" end="arrowUp.mouseout"/>
                  </use>
                  <path fill="none" stroke="white" stroke-width="1.5" d="M0,-3.0v7 M-2.5,-0.5L0,-3.0L2.5,-0.5"/>
                </g>
                <g id="arrowRight" xlink:href="#dirArrow" transform="rotate(90) translate(36 -43)" onmousedown="handlePan(1,0)">
                  <use xlink:href="#rim" fill="#404040">
                        <set attributeName="fill" to="#808080" begin="arrowRight.mouseover" end="arrowRight.mouseout"/>
                  </use>
                  <path fill="none" stroke="white" stroke-width="1.5" d="M0,-3.0v7 M-2.5,-0.5L0,-3.0L2.5,-0.5"/>
                </g>
                <g id="arrowDown" xlink:href="#dirArrow" transform="rotate(180) translate(-30 -48)" onmousedown="handlePan(0,1)">
                  <use xlink:href="#rim" fill="#404040">
                        <set attributeName="fill" to="#808080" begin="arrowDown.mouseover" end="arrowDown.mouseout"/>
                  </use>
                  <path fill="none" stroke="white" stroke-width="1.5" d="M0,-3.0v7 M-2.5,-0.5L0,-3.0L2.5,-0.5"/>
                </g>
                <g id="arrowLeft" xlink:href="#dirArrow" transform="rotate(270) translate(-36 17)" onmousedown="handlePan(-1,0)">
                  <use xlink:href="#rim" fill="#404040">
                        <set attributeName="fill" to="#808080" begin="arrowLeft.mouseover" end="arrowLeft.mouseout"/>
                  </use>
                  <path fill="none" stroke="white" stroke-width="1.5" d="M0,-3.0v7 M-2.5,-0.5L0,-3.0L2.5,-0.5"/>
                </g>
        </g>
        <svg viewBox="0 0 15 15" width="100%" height="30px" preserveAspectRatio="xMaxYMin meet">
         <g id="arrow_out" transform="scale(0.3 0.3)">
          <a xlink:href="bin_2debug_2debug_2moc__controllingroomba_8cpp__incl_org.svg" target="_base">
           <rect id="button" ry="5" rx="5" y="6" x="6" height="38" width="38"
                fill="#f2f5e9" fill-opacity="0.5" stroke="#606060" stroke-width="1.0"/>
           <path id="arrow"
             d="M 11.500037,31.436501 C 11.940474,20.09759 22.043105,11.32322 32.158766,21.979434 L 37.068811,17.246167 C 37.068811,17.246167 37.088388,32 37.088388,32 L 22.160133,31.978069 C 22.160133,31.978069 26.997745,27.140456 26.997745,27.140456 C 18.528582,18.264221 13.291696,25.230495 11.500037,31.436501 z"
             style="fill:#404040;"/>
          </a>
         </g>
        </svg>
</svg>
