<?xml version="1.0" encoding="UTF-8" standalone="no"?>
<!DOCTYPE svg PUBLIC "-//W3C//DTD SVG 1.1//EN"
 "http://www.w3.org/Graphics/SVG/1.1/DTD/svg11.dtd">
<!-- Generated by graphviz version 2.30.1 (20130214.1330)
 -->
<!-- Title: Hoofdprogramma/include/writer.h Pages: 1 -->
<svg width="264pt" height="208pt"
 viewBox="0.00 0.00 264.00 208.00" xmlns="http://www.w3.org/2000/svg" xmlns:xlink="http://www.w3.org/1999/xlink">
<g id="graph0" class="graph" transform="scale(1 1) rotate(0) translate(4 204)">
<title>Hoofdprogramma/include/writer.h</title>
<polygon fill="white" stroke="white" points="-4,5 -4,-204 261,-204 261,5 -4,5"/>
<!-- Node1 -->
<g id="node1" class="node"><title>Node1</title>
<polygon fill="#bfbfbf" stroke="black" points="86,-169 86,-199 210,-199 210,-169 86,-169"/>
<text text-anchor="start" x="94" y="-187" font-family="Helvetica,sans-Serif" font-size="10.00">Hoofdprogramma/include</text>
<text text-anchor="middle" x="148" y="-176" font-family="Helvetica,sans-Serif" font-size="10.00">/writer.h</text>
</g>
<!-- Node2 -->
<g id="node2" class="node"><title>Node2</title>
<g id="a_node2"><a xlink:href="../../d4/d3f/value_8h.xhtml" target="_top" xlink:title="value.h">
<polygon fill="white" stroke="black" points="98.5,-112.5 98.5,-131.5 145.5,-131.5 145.5,-112.5 98.5,-112.5"/>
<text text-anchor="middle" x="122" y="-119.5" font-family="Helvetica,sans-Serif" font-size="10.00">value.h</text>
</a>
</g>
</g>
<!-- Node1&#45;&gt;Node2 -->
<g id="edge1" class="edge"><title>Node1&#45;&gt;Node2</title>
<path fill="none" stroke="midnightblue" d="M141.838,-168.781C138.255,-160.512 133.703,-150.006 129.863,-141.145"/>
<polygon fill="midnightblue" stroke="midnightblue" points="132.971,-139.514 125.783,-131.731 126.548,-142.298 132.971,-139.514"/>
</g>
<!-- Node6 -->
<g id="node6" class="node"><title>Node6</title>
<polygon fill="white" stroke="#bfbfbf" points="191,-56.5 191,-75.5 233,-75.5 233,-56.5 191,-56.5"/>
<text text-anchor="middle" x="212" y="-63.5" font-family="Helvetica,sans-Serif" font-size="10.00">vector</text>
</g>
<!-- Node1&#45;&gt;Node6 -->
<g id="edge7" class="edge"><title>Node1&#45;&gt;Node6</title>
<path fill="none" stroke="midnightblue" d="M155.848,-168.776C167.536,-147.591 189.503,-107.776 202.221,-84.7245"/>
<polygon fill="midnightblue" stroke="midnightblue" points="205.43,-86.1536 207.196,-75.707 199.301,-82.772 205.43,-86.1536"/>
</g>
<!-- Node5 -->
<g id="node5" class="node"><title>Node5</title>
<polygon fill="white" stroke="#bfbfbf" points="-0.5,-56.5 -0.5,-75.5 40.5,-75.5 40.5,-56.5 -0.5,-56.5"/>
<text text-anchor="middle" x="20" y="-63.5" font-family="Helvetica,sans-Serif" font-size="10.00">string</text>
</g>
<!-- Node1&#45;&gt;Node5 -->
<g id="edge8" class="edge"><title>Node1&#45;&gt;Node5</title>
<path fill="none" stroke="midnightblue" d="M131.304,-168.898C119.398,-158.762 103.072,-144.7 89,-132 70.6162,-115.409 50.0057,-95.8658 36.1371,-82.5724"/>
<polygon fill="midnightblue" stroke="midnightblue" points="38.4533,-79.944 28.8184,-75.5372 33.6022,-84.9906 38.4533,-79.944"/>
</g>
<!-- Node8 -->
<g id="node8" class="node"><title>Node8</title>
<polygon fill="white" stroke="#bfbfbf" points="202,-112.5 202,-131.5 256,-131.5 256,-112.5 202,-112.5"/>
<text text-anchor="middle" x="229" y="-119.5" font-family="Helvetica,sans-Serif" font-size="10.00">iostream</text>
</g>
<!-- Node1&#45;&gt;Node8 -->
<g id="edge9" class="edge"><title>Node1&#45;&gt;Node8</title>
<path fill="none" stroke="midnightblue" d="M167.196,-168.781C179.816,-159.433 196.293,-147.227 209.061,-137.77"/>
<polygon fill="midnightblue" stroke="midnightblue" points="211.262,-140.495 217.214,-131.731 207.095,-134.87 211.262,-140.495"/>
</g>
<!-- Node3 -->
<g id="node3" class="node"><title>Node3</title>
<g id="a_node3"><a xlink:href="../../d2/d84/forwards_8h.xhtml" target="_top" xlink:title="forwards.h">
<polygon fill="white" stroke="black" points="58.5,-56.5 58.5,-75.5 119.5,-75.5 119.5,-56.5 58.5,-56.5"/>
<text text-anchor="middle" x="89" y="-63.5" font-family="Helvetica,sans-Serif" font-size="10.00">forwards.h</text>
</a>
</g>
</g>
<!-- Node2&#45;&gt;Node3 -->
<g id="edge2" class="edge"><title>Node2&#45;&gt;Node3</title>
<path fill="none" stroke="midnightblue" d="M116.551,-112.083C111.986,-104.613 105.332,-93.7244 99.7066,-84.5199"/>
<polygon fill="midnightblue" stroke="midnightblue" points="102.549,-82.4588 94.3479,-75.7511 96.5759,-86.109 102.549,-82.4588"/>
</g>
<!-- Node2&#45;&gt;Node5 -->
<g id="edge4" class="edge"><title>Node2&#45;&gt;Node5</title>
<path fill="none" stroke="midnightblue" d="M105.612,-112.324C89.3287,-103.703 64.1325,-90.3643 45.2837,-80.3855"/>
<polygon fill="midnightblue" stroke="midnightblue" points="46.8229,-77.2402 36.3474,-75.6545 43.5477,-83.4267 46.8229,-77.2402"/>
</g>
<!-- Node2&#45;&gt;Node6 -->
<g id="edge5" class="edge"><title>Node2&#45;&gt;Node6</title>
<path fill="none" stroke="midnightblue" d="M136.46,-112.324C150.5,-103.9 172.048,-90.9709 188.543,-81.0741"/>
<polygon fill="midnightblue" stroke="midnightblue" points="190.802,-83.8007 197.576,-75.6545 187.2,-77.7983 190.802,-83.8007"/>
</g>
<!-- Node7 -->
<g id="node7" class="node"><title>Node7</title>
<polygon fill="white" stroke="#bfbfbf" points="137.5,-56.5 137.5,-75.5 172.5,-75.5 172.5,-56.5 137.5,-56.5"/>
<text text-anchor="middle" x="155" y="-63.5" font-family="Helvetica,sans-Serif" font-size="10.00">map</text>
</g>
<!-- Node2&#45;&gt;Node7 -->
<g id="edge6" class="edge"><title>Node2&#45;&gt;Node7</title>
<path fill="none" stroke="midnightblue" d="M127.449,-112.083C132.014,-104.613 138.668,-93.7244 144.293,-84.5199"/>
<polygon fill="midnightblue" stroke="midnightblue" points="147.424,-86.109 149.652,-75.7511 141.451,-82.4588 147.424,-86.109"/>
</g>
<!-- Node4 -->
<g id="node4" class="node"><title>Node4</title>
<g id="a_node4"><a xlink:href="../../db/d16/config_8h.xhtml" target="_top" xlink:title="config.h">
<polygon fill="white" stroke="black" points="64,-0.5 64,-19.5 114,-19.5 114,-0.5 64,-0.5"/>
<text text-anchor="middle" x="89" y="-7.5" font-family="Helvetica,sans-Serif" font-size="10.00">config.h</text>
</a>
</g>
</g>
<!-- Node3&#45;&gt;Node4 -->
<g id="edge3" class="edge"><title>Node3&#45;&gt;Node4</title>
<path fill="none" stroke="midnightblue" d="M89,-56.083C89,-49.0059 89,-38.8611 89,-29.9865"/>
<polygon fill="midnightblue" stroke="midnightblue" points="92.5001,-29.751 89,-19.7511 85.5001,-29.7511 92.5001,-29.751"/>
</g>
</g>
</svg>
