<?xml version="1.0" encoding="UTF-8" standalone="no"?>
<!DOCTYPE svg PUBLIC "-//W3C//DTD SVG 1.1//EN"
 "http://www.w3.org/Graphics/SVG/1.1/DTD/svg11.dtd">
<!-- Generated by graphviz version 2.30.1 (20130214.1330)
 -->
<!-- Title: Simulator Pages: 1 -->
<svg width="340pt" height="76pt"
 viewBox="0.00 0.00 340.00 76.00" xmlns="http://www.w3.org/2000/svg" xmlns:xlink="http://www.w3.org/1999/xlink">
<g id="graph0" class="graph" transform="scale(1 1) rotate(0) translate(4 72)">
<title>Simulator</title>
<polygon fill="white" stroke="white" points="-4,5 -4,-72 337,-72 337,5 -4,5"/>
<g id="clust1" class="cluster"><title>clusterdir_02de32643c62db6df59640b35d9a9cf0</title>
<g id="a_clust1"><a xlink:href="dir_02de32643c62db6df59640b35d9a9cf0.xhtml" target="_top">
<polygon fill="#eeeeff" stroke="black" points="8,-8 8,-60 324,-60 324,-8 8,-8"/>
</a>
</g>
</g>
<!-- dir_02de32643c62db6df59640b35d9a9cf0 -->
<g id="node1" class="node"><title>dir_02de32643c62db6df59640b35d9a9cf0</title>
<text text-anchor="middle" x="287" y="-31.5" font-family="Helvetica,sans-Serif" font-size="10.00">Simulator</text>
</g>
<!-- dir_2d817e41ca203892b20a90b2bfe2c008 -->
<g id="node2" class="node"><title>dir_2d817e41ca203892b20a90b2bfe2c008</title>
<g id="a_node2"><a xlink:href="dir_2d817e41ca203892b20a90b2bfe2c008.xhtml" target="_top" xlink:title="drawObjects">
<polygon fill="white" stroke="black" points="239.25,-52 168.75,-52 168.75,-16 239.25,-16 239.25,-52"/>
<text text-anchor="middle" x="204" y="-31.5" font-family="Helvetica,sans-Serif" font-size="10.00">drawObjects</text>
</a>
</g>
</g>
<!-- dir_1490be1533f6c34dc1bba4762e24df82 -->
<g id="node3" class="node"><title>dir_1490be1533f6c34dc1bba4762e24df82</title>
<g id="a_node3"><a xlink:href="dir_1490be1533f6c34dc1bba4762e24df82.xhtml" target="_top" xlink:title="obj">
<polygon fill="white" stroke="red" points="150,-52 96,-52 96,-16 150,-16 150,-52"/>
<text text-anchor="middle" x="123" y="-31.5" font-family="Helvetica,sans-Serif" font-size="10.00">obj</text>
</a>
</g>
</g>
<!-- dir_003d0624448813e1e6ce56a133f0c41f -->
<g id="node4" class="node"><title>dir_003d0624448813e1e6ce56a133f0c41f</title>
<g id="a_node4"><a xlink:href="dir_003d0624448813e1e6ce56a133f0c41f.xhtml" target="_top" xlink:title="Properties">
<polygon fill="white" stroke="black" points="77.25,-52 16.75,-52 16.75,-16 77.25,-16 77.25,-52"/>
<text text-anchor="middle" x="47" y="-31.5" font-family="Helvetica,sans-Serif" font-size="10.00">Properties</text>
</a>
</g>
</g>
</g>
</svg>
