<?xml version="1.0" encoding="UTF-8" standalone="no"?>
<!DOCTYPE svg PUBLIC "-//W3C//DTD SVG 1.1//EN"
 "http://www.w3.org/Graphics/SVG/1.1/DTD/svg11.dtd">
<!-- Generated by graphviz version 2.30.1 (20130214.1330)
 -->
<!-- Title: Graphical Class Hierarchy Pages: 1 -->
<svg width="268pt" height="213pt"
 viewBox="0.00 0.00 268.00 213.00" xmlns="http://www.w3.org/2000/svg" xmlns:xlink="http://www.w3.org/1999/xlink">
<g id="graph0" class="graph" transform="scale(1 1) rotate(0) translate(4 209)">
<title>Graphical Class Hierarchy</title>
<polygon fill="white" stroke="white" points="-4,5 -4,-209 265,-209 265,5 -4,5"/>
<!-- Node1 -->
<g id="node1" class="node"><title>Node1</title>
<polygon fill="white" stroke="#bfbfbf" points="0,-82.5 0,-101.5 60,-101.5 60,-82.5 0,-82.5"/>
<text text-anchor="middle" x="30" y="-89.5" font-family="Helvetica,sans-Serif" font-size="10.00">Exception</text>
</g>
<!-- Node2 -->
<g id="node2" class="node"><title>Node2</title>
<g id="a_node2"><a xlink:href="d1/d5d/class_simulator_1_1cannot_open_port_exception.xhtml" target="_top" xlink:title="Simulator.cannotOpenPort\lException">
<polygon fill="white" stroke="black" points="112.5,-175 112.5,-205 243.5,-205 243.5,-175 112.5,-175"/>
<text text-anchor="start" x="120.5" y="-193" font-family="Helvetica,sans-Serif" font-size="10.00">Simulator.cannotOpenPort</text>
<text text-anchor="middle" x="178" y="-182" font-family="Helvetica,sans-Serif" font-size="10.00">Exception</text>
</a>
</g>
</g>
<!-- Node1&#45;&gt;Node2 -->
<g id="edge1" class="edge"><title>Node1&#45;&gt;Node2</title>
<path fill="none" stroke="midnightblue" d="M42.6032,-109.864C54.2346,-126.42 73.5981,-150.599 96,-165 101.942,-168.82 108.504,-172.086 115.244,-174.873"/>
<polygon fill="midnightblue" stroke="midnightblue" points="45.4791,-107.869 36.9666,-101.561 39.6875,-111.8 45.4791,-107.869"/>
</g>
<!-- Node3 -->
<g id="node3" class="node"><title>Node3</title>
<g id="a_node3"><a xlink:href="d3/def/class_simulator_1_1cls_roomba_1_1not_in_correct_mode.xhtml" target="_top" xlink:title="Simulator.clsRoomba.notIn\lCorrectMode">
<polygon fill="white" stroke="black" points="111,-126 111,-156 245,-156 245,-126 111,-126"/>
<text text-anchor="start" x="119" y="-144" font-family="Helvetica,sans-Serif" font-size="10.00">Simulator.clsRoomba.notIn</text>
<text text-anchor="middle" x="178" y="-133" font-family="Helvetica,sans-Serif" font-size="10.00">CorrectMode</text>
</a>
</g>
</g>
<!-- Node1&#45;&gt;Node3 -->
<g id="edge2" class="edge"><title>Node1&#45;&gt;Node3</title>
<path fill="none" stroke="midnightblue" d="M65.3685,-105.086C75.221,-108.73 86.002,-112.614 96,-116 105.897,-119.352 116.535,-122.767 126.741,-125.953"/>
<polygon fill="midnightblue" stroke="midnightblue" points="66.4815,-101.766 55.8889,-101.55 64.0352,-108.324 66.4815,-101.766"/>
</g>
<!-- Node4 -->
<g id="node4" class="node"><title>Node4</title>
<g id="a_node4"><a xlink:href="d3/ddf/class_simulator_1_1not_initialized_exception.xhtml" target="_top" xlink:title="Simulator.notInitialized\lException">
<polygon fill="white" stroke="black" points="120.5,-77 120.5,-107 235.5,-107 235.5,-77 120.5,-77"/>
<text text-anchor="start" x="128.5" y="-95" font-family="Helvetica,sans-Serif" font-size="10.00">Simulator.notInitialized</text>
<text text-anchor="middle" x="178" y="-84" font-family="Helvetica,sans-Serif" font-size="10.00">Exception</text>
</a>
</g>
</g>
<!-- Node1&#45;&gt;Node4 -->
<g id="edge3" class="edge"><title>Node1&#45;&gt;Node4</title>
<path fill="none" stroke="midnightblue" d="M70.3824,-92C85.752,-92 103.665,-92 120.372,-92"/>
<polygon fill="midnightblue" stroke="midnightblue" points="70.1944,-88.5001 60.1944,-92 70.1943,-95.5001 70.1944,-88.5001"/>
</g>
<!-- Node5 -->
<g id="node5" class="node"><title>Node5</title>
<g id="a_node5"><a xlink:href="d4/d67/class_simulator_1_1port_not_found_exception.xhtml" target="_top" xlink:title="Simulator.portNotFoundException">
<polygon fill="white" stroke="black" points="96.5,-38.5 96.5,-57.5 259.5,-57.5 259.5,-38.5 96.5,-38.5"/>
<text text-anchor="middle" x="178" y="-45.5" font-family="Helvetica,sans-Serif" font-size="10.00">Simulator.portNotFoundException</text>
</a>
</g>
</g>
<!-- Node1&#45;&gt;Node5 -->
<g id="edge4" class="edge"><title>Node1&#45;&gt;Node5</title>
<path fill="none" stroke="midnightblue" d="M64.4923,-78.8215C74.5441,-75.0872 85.6504,-71.1776 96,-68 108.324,-64.2163 121.869,-60.6462 134.296,-57.5984"/>
<polygon fill="midnightblue" stroke="midnightblue" points="62.9751,-75.6532 54.8591,-82.4637 65.4507,-82.2009 62.9751,-75.6532"/>
</g>
<!-- Node6 -->
<g id="node6" class="node"><title>Node6</title>
<g id="a_node6"><a xlink:href="d8/d54/class_simulator_1_1serial_exception.xhtml" target="_top" xlink:title="Simulator.serialException">
<polygon fill="white" stroke="black" points="114,-0.5 114,-19.5 242,-19.5 242,-0.5 114,-0.5"/>
<text text-anchor="middle" x="178" y="-7.5" font-family="Helvetica,sans-Serif" font-size="10.00">Simulator.serialException</text>
</a>
</g>
</g>
<!-- Node1&#45;&gt;Node6 -->
<g id="edge5" class="edge"><title>Node1&#45;&gt;Node6</title>
<path fill="none" stroke="midnightblue" d="M44.7893,-74.085C56.7877,-59.7442 75.4429,-40.2327 96,-29 103.098,-25.1214 110.967,-22.0305 118.929,-19.5683"/>
<polygon fill="midnightblue" stroke="midnightblue" points="41.7766,-72.2452 38.2214,-82.2257 47.2246,-76.6406 41.7766,-72.2452"/>
</g>
</g>
</svg>
