<?xml version="1.0" encoding="UTF-8" standalone="no"?>
<!DOCTYPE svg PUBLIC "-//W3C//DTD SVG 1.1//EN"
 "http://www.w3.org/Graphics/SVG/1.1/DTD/svg11.dtd">
<!-- Generated by graphviz version 2.30.1 (20130214.1330)
 -->
<!-- Title: Graphical Class Hierarchy Pages: 1 -->
<svg width="344pt" height="164pt"
 viewBox="0.00 0.00 344.00 164.00" xmlns="http://www.w3.org/2000/svg" xmlns:xlink="http://www.w3.org/1999/xlink">
<g id="graph0" class="graph" transform="scale(1 1) rotate(0) translate(4 160)">
<title>Graphical Class Hierarchy</title>
<polygon fill="white" stroke="white" points="-4,5 -4,-160 341,-160 341,5 -4,5"/>
<!-- Node1 -->
<g id="node1" class="node"><title>Node1</title>
<g id="a_node1"><a xlink:href="d9/d92/class_simulator_1_1draw_objects_1_1draw_object.xhtml" target="_top" xlink:title="Simulator.drawObjects.draw\lObject">
<polygon fill="white" stroke="black" points="0,-71 0,-101 138,-101 138,-71 0,-71"/>
<text text-anchor="start" x="8" y="-89" font-family="Helvetica,sans-Serif" font-size="10.00">Simulator.drawObjects.draw</text>
<text text-anchor="middle" x="69" y="-78" font-family="Helvetica,sans-Serif" font-size="10.00">Object</text>
</a>
</g>
</g>
<!-- Node2 -->
<g id="node2" class="node"><title>Node2</title>
<g id="a_node2"><a xlink:href="d2/d23/class_simulator_1_1draw_objects_1_1draw_dock.xhtml" target="_top" xlink:title="Simulator.drawObjects.drawDock">
<polygon fill="white" stroke="black" points="174.5,-136.5 174.5,-155.5 335.5,-155.5 335.5,-136.5 174.5,-136.5"/>
<text text-anchor="middle" x="255" y="-143.5" font-family="Helvetica,sans-Serif" font-size="10.00">Simulator.drawObjects.drawDock</text>
</a>
</g>
</g>
<!-- Node1&#45;&gt;Node2 -->
<g id="edge1" class="edge"><title>Node1&#45;&gt;Node2</title>
<path fill="none" stroke="midnightblue" d="M113.962,-104.937C132.309,-112.417 153.975,-120.71 174,-127 185.168,-130.508 197.389,-133.718 208.843,-136.461"/>
<polygon fill="midnightblue" stroke="midnightblue" points="115.275,-101.692 104.696,-101.114 112.605,-108.163 115.275,-101.692"/>
</g>
<!-- Node3 -->
<g id="node3" class="node"><title>Node3</title>
<g id="a_node3"><a xlink:href="d5/dd8/class_simulator_1_1draw_objects_1_1draw_pool.xhtml" target="_top" xlink:title="Simulator.drawObjects.drawPool">
<polygon fill="white" stroke="black" points="176,-98.5 176,-117.5 334,-117.5 334,-98.5 176,-98.5"/>
<text text-anchor="middle" x="255" y="-105.5" font-family="Helvetica,sans-Serif" font-size="10.00">Simulator.drawObjects.drawPool</text>
</a>
</g>
</g>
<!-- Node1&#45;&gt;Node3 -->
<g id="edge2" class="edge"><title>Node1&#45;&gt;Node3</title>
<path fill="none" stroke="midnightblue" d="M148.437,-95.3784C157.543,-96.4671 166.829,-97.5774 175.93,-98.6655"/>
<polygon fill="midnightblue" stroke="midnightblue" points="148.598,-91.8728 138.253,-94.1607 147.767,-98.8233 148.598,-91.8728"/>
</g>
<!-- Node4 -->
<g id="node4" class="node"><title>Node4</title>
<g id="a_node4"><a xlink:href="d1/d07/class_simulator_1_1draw_objects_1_1draw_roomba.xhtml" target="_top" xlink:title="Simulator.drawObjects.draw\lRoomba">
<polygon fill="white" stroke="black" points="186,-49 186,-79 324,-79 324,-49 186,-49"/>
<text text-anchor="start" x="194" y="-67" font-family="Helvetica,sans-Serif" font-size="10.00">Simulator.drawObjects.draw</text>
<text text-anchor="middle" x="255" y="-56" font-family="Helvetica,sans-Serif" font-size="10.00">Roomba</text>
</a>
</g>
</g>
<!-- Node1&#45;&gt;Node4 -->
<g id="edge3" class="edge"><title>Node1&#45;&gt;Node4</title>
<path fill="none" stroke="midnightblue" d="M148.202,-76.6497C160.724,-75.1526 173.594,-73.6138 185.857,-72.1475"/>
<polygon fill="midnightblue" stroke="midnightblue" points="147.767,-73.1767 138.253,-77.8393 148.598,-80.1272 147.767,-73.1767"/>
</g>
<!-- Node5 -->
<g id="node5" class="node"><title>Node5</title>
<g id="a_node5"><a xlink:href="de/d49/class_simulator_1_1draw_objects_1_1draw_table.xhtml" target="_top" xlink:title="Simulator.drawObjects.draw\lTable">
<polygon fill="white" stroke="black" points="186,-0 186,-30 324,-30 324,-0 186,-0"/>
<text text-anchor="start" x="194" y="-18" font-family="Helvetica,sans-Serif" font-size="10.00">Simulator.drawObjects.draw</text>
<text text-anchor="middle" x="255" y="-7" font-family="Helvetica,sans-Serif" font-size="10.00">Table</text>
</a>
</g>
</g>
<!-- Node1&#45;&gt;Node5 -->
<g id="edge4" class="edge"><title>Node1&#45;&gt;Node5</title>
<path fill="none" stroke="midnightblue" d="M110.737,-66.6972C129.751,-58.0208 152.816,-47.9654 174,-40 183.262,-36.5174 193.248,-33.1211 202.92,-30.0108"/>
<polygon fill="midnightblue" stroke="midnightblue" points="109.095,-63.5996 101.475,-70.9601 112.022,-69.9584 109.095,-63.5996"/>
</g>
</g>
</svg>
