<?xml version="1.0" encoding="UTF-8" standalone="no"?>
<!DOCTYPE svg PUBLIC "-//W3C//DTD SVG 1.1//EN"
 "http://www.w3.org/Graphics/SVG/1.1/DTD/svg11.dtd">
<!-- Generated by graphviz version 2.30.1 (20130214.1330)
 -->
<!-- Title: Graphical Class Hierarchy Pages: 1 -->
<svg width="320pt" height="87pt"
 viewBox="0.00 0.00 320.00 87.00" xmlns="http://www.w3.org/2000/svg" xmlns:xlink="http://www.w3.org/1999/xlink">
<g id="graph0" class="graph" transform="scale(1 1) rotate(0) translate(4 83)">
<title>Graphical Class Hierarchy</title>
<polygon fill="white" stroke="white" points="-4,5 -4,-83 317,-83 317,5 -4,5"/>
<!-- Node1 -->
<g id="node1" class="node"><title>Node1</title>
<g id="a_node1"><a xlink:href="d9/d92/class_simulator_1_1draw_objects_1_1draw_object.xhtml" target="_top" xlink:title="Simulator.drawObjects.draw\lObject">
<polygon fill="white" stroke="black" points="0,-24 0,-54 138,-54 138,-24 0,-24"/>
<text text-anchor="start" x="8" y="-42" font-family="Helvetica,sans-Serif" font-size="10.00">Simulator.drawObjects.draw</text>
<text text-anchor="middle" x="69" y="-31" font-family="Helvetica,sans-Serif" font-size="10.00">Object</text>
</a>
</g>
</g>
<!-- Node2 -->
<g id="node2" class="node"><title>Node2</title>
<g id="a_node2"><a xlink:href="d1/d07/class_simulator_1_1draw_objects_1_1draw_roomba.xhtml" target="_top" xlink:title="Simulator.drawObjects.draw\lRoomba">
<polygon fill="white" stroke="black" points="174,-49 174,-79 312,-79 312,-49 174,-49"/>
<text text-anchor="start" x="182" y="-67" font-family="Helvetica,sans-Serif" font-size="10.00">Simulator.drawObjects.draw</text>
<text text-anchor="middle" x="243" y="-56" font-family="Helvetica,sans-Serif" font-size="10.00">Roomba</text>
</a>
</g>
</g>
<!-- Node1&#45;&gt;Node2 -->
<g id="edge1" class="edge"><title>Node1&#45;&gt;Node2</title>
<path fill="none" stroke="midnightblue" d="M148.637,-50.4298C157.025,-51.649 165.508,-52.882 173.762,-54.0817"/>
<polygon fill="midnightblue" stroke="midnightblue" points="148.873,-46.9273 138.473,-48.9525 147.866,-53.8546 148.873,-46.9273"/>
</g>
<!-- Node3 -->
<g id="node3" class="node"><title>Node3</title>
<g id="a_node3"><a xlink:href="de/d49/class_simulator_1_1draw_objects_1_1draw_table.xhtml" target="_top" xlink:title="Simulator.drawObjects.draw\lTable">
<polygon fill="white" stroke="black" points="174,-0 174,-30 312,-30 312,-0 174,-0"/>
<text text-anchor="start" x="182" y="-18" font-family="Helvetica,sans-Serif" font-size="10.00">Simulator.drawObjects.draw</text>
<text text-anchor="middle" x="243" y="-7" font-family="Helvetica,sans-Serif" font-size="10.00">Table</text>
</a>
</g>
</g>
<!-- Node1&#45;&gt;Node3 -->
<g id="edge2" class="edge"><title>Node1&#45;&gt;Node3</title>
<path fill="none" stroke="midnightblue" d="M148.637,-28.0274C157.025,-26.8569 165.508,-25.6733 173.762,-24.5215"/>
<polygon fill="midnightblue" stroke="midnightblue" points="147.894,-24.5971 138.473,-29.4456 148.861,-31.53 147.894,-24.5971"/>
</g>
</g>
</svg>
