<?xml version="1.0" encoding="UTF-8" standalone="no"?>
<!DOCTYPE svg PUBLIC "-//W3C//DTD SVG 1.1//EN"
 "http://www.w3.org/Graphics/SVG/1.1/DTD/svg11.dtd">
<!-- Generated by graphviz version 2.30.1 (20130214.1330)
 -->
<!-- Title: Ui::SettingsRoomba Pages: 1 -->
<svg width="140pt" height="194pt"
 viewBox="0.00 0.00 140.00 194.00" xmlns="http://www.w3.org/2000/svg" xmlns:xlink="http://www.w3.org/1999/xlink">
<g id="graph0" class="graph" transform="scale(1 1) rotate(0) translate(4 190)">
<title>Ui::SettingsRoomba</title>
<polygon fill="white" stroke="white" points="-4,5 -4,-190 137,-190 137,5 -4,5"/>
<!-- Node1 -->
<g id="node1" class="node"><title>Node1</title>
<polygon fill="#bfbfbf" stroke="black" points="14,-0.5 14,-57.5 118,-57.5 118,-0.5 14,-0.5"/>
<text text-anchor="middle" x="66" y="-45.5" font-family="Helvetica,sans-Serif" font-size="10.00">Ui::SettingsRoomba</text>
<polyline fill="none" stroke="black" points="14,-38.5 118,-38.5 "/>
<text text-anchor="middle" x="66" y="-26.5" font-family="Helvetica,sans-Serif" font-size="10.00"> </text>
<polyline fill="none" stroke="black" points="14,-19.5 118,-19.5 "/>
<text text-anchor="middle" x="66" y="-7.5" font-family="Helvetica,sans-Serif" font-size="10.00"> </text>
</g>
<!-- Node2 -->
<g id="node2" class="node"><title>Node2</title>
<g id="a_node2"><a xlink:href="../../d5/d57/class_ui___settings_roomba.xhtml" target="_top" xlink:title="{Ui_SettingsRoomba\n|+ lbDate\l+ dateTimeEdit\l+ pbCloseSettingsRoomba\l|+ setupUi()\l+ retranslateUi()\l}">
<polygon fill="white" stroke="black" points="-0.5,-95 -0.5,-185 132.5,-185 132.5,-95 -0.5,-95"/>
<text text-anchor="middle" x="66" y="-173" font-family="Helvetica,sans-Serif" font-size="10.00">Ui_SettingsRoomba</text>
<polyline fill="none" stroke="black" points="-0.5,-166 132.5,-166 "/>
<text text-anchor="start" x="7.5" y="-154" font-family="Helvetica,sans-Serif" font-size="10.00">+ lbDate</text>
<text text-anchor="start" x="7.5" y="-143" font-family="Helvetica,sans-Serif" font-size="10.00">+ dateTimeEdit</text>
<text text-anchor="start" x="7.5" y="-132" font-family="Helvetica,sans-Serif" font-size="10.00">+ pbCloseSettingsRoomba</text>
<polyline fill="none" stroke="black" points="-0.5,-125 132.5,-125 "/>
<text text-anchor="start" x="7.5" y="-113" font-family="Helvetica,sans-Serif" font-size="10.00">+ setupUi()</text>
<text text-anchor="start" x="7.5" y="-102" font-family="Helvetica,sans-Serif" font-size="10.00">+ retranslateUi()</text>
</a>
</g>
</g>
<!-- Node2&#45;&gt;Node1 -->
<g id="edge1" class="edge"><title>Node2&#45;&gt;Node1</title>
<path fill="none" stroke="midnightblue" d="M66,-84.792C66,-75.3496 66,-65.8956 66,-57.5636"/>
<polygon fill="none" stroke="midnightblue" points="62.5001,-84.9797 66,-94.9797 69.5001,-84.9798 62.5001,-84.9797"/>
</g>
</g>
</svg>
