<?xml version="1.0" encoding="UTF-8" standalone="no"?>
<!DOCTYPE svg PUBLIC "-//W3C//DTD SVG 1.1//EN"
 "http://www.w3.org/Graphics/SVG/1.1/DTD/svg11.dtd">
<!-- Generated by graphviz version 2.30.1 (20130214.1330)
 -->
<!-- Title: Ui_Information Pages: 1 -->
<svg width="126pt" height="282pt"
 viewBox="0.00 0.00 126.00 282.00" xmlns="http://www.w3.org/2000/svg" xmlns:xlink="http://www.w3.org/1999/xlink">
<g id="graph0" class="graph" transform="scale(1 1) rotate(0) translate(4 278)">
<title>Ui_Information</title>
<polygon fill="white" stroke="white" points="-4,5 -4,-278 123,-278 123,5 -4,5"/>
<!-- Node1 -->
<g id="node1" class="node"><title>Node1</title>
<polygon fill="#bfbfbf" stroke="black" points="-0.5,-95 -0.5,-273 118.5,-273 118.5,-95 -0.5,-95"/>
<text text-anchor="middle" x="59" y="-261" font-family="Helvetica,sans-Serif" font-size="10.00">Ui_Information</text>
<polyline fill="none" stroke="black" points="-0.5,-254 118.5,-254 "/>
<text text-anchor="start" x="7.5" y="-242" font-family="Helvetica,sans-Serif" font-size="10.00">+ cbRoombaConnected</text>
<text text-anchor="start" x="7.5" y="-231" font-family="Helvetica,sans-Serif" font-size="10.00">+ cbBatteryCharging</text>
<text text-anchor="start" x="7.5" y="-220" font-family="Helvetica,sans-Serif" font-size="10.00">+ lbBatteryStatus</text>
<text text-anchor="start" x="7.5" y="-209" font-family="Helvetica,sans-Serif" font-size="10.00">+ leTemperature</text>
<text text-anchor="start" x="7.5" y="-198" font-family="Helvetica,sans-Serif" font-size="10.00">+ leDistanceTraveled</text>
<text text-anchor="start" x="7.5" y="-187" font-family="Helvetica,sans-Serif" font-size="10.00">+ lbDistanceTraveled</text>
<text text-anchor="start" x="7.5" y="-176" font-family="Helvetica,sans-Serif" font-size="10.00">+ leTotalTraveled</text>
<text text-anchor="start" x="7.5" y="-165" font-family="Helvetica,sans-Serif" font-size="10.00">+ lbTemperature</text>
<text text-anchor="start" x="7.5" y="-154" font-family="Helvetica,sans-Serif" font-size="10.00">+ prBatteryStatus</text>
<text text-anchor="start" x="7.5" y="-143" font-family="Helvetica,sans-Serif" font-size="10.00">+ lbTotalTraveled</text>
<text text-anchor="start" x="7.5" y="-132" font-family="Helvetica,sans-Serif" font-size="10.00">+ pbCloseInformation</text>
<polyline fill="none" stroke="black" points="-0.5,-125 118.5,-125 "/>
<text text-anchor="start" x="7.5" y="-113" font-family="Helvetica,sans-Serif" font-size="10.00">+ setupUi()</text>
<text text-anchor="start" x="7.5" y="-102" font-family="Helvetica,sans-Serif" font-size="10.00">+ retranslateUi()</text>
</g>
<!-- Node2 -->
<g id="node2" class="node"><title>Node2</title>
<g id="a_node2"><a xlink:href="../../d8/d8c/class_ui_1_1_information.xhtml" target="_top" xlink:title="{Ui::Information\n||}">
<polygon fill="white" stroke="black" points="19.5,-0.5 19.5,-57.5 98.5,-57.5 98.5,-0.5 19.5,-0.5"/>
<text text-anchor="middle" x="59" y="-45.5" font-family="Helvetica,sans-Serif" font-size="10.00">Ui::Information</text>
<polyline fill="none" stroke="black" points="19.5,-38.5 98.5,-38.5 "/>
<text text-anchor="middle" x="59" y="-26.5" font-family="Helvetica,sans-Serif" font-size="10.00"> </text>
<polyline fill="none" stroke="black" points="19.5,-19.5 98.5,-19.5 "/>
<text text-anchor="middle" x="59" y="-7.5" font-family="Helvetica,sans-Serif" font-size="10.00"> </text>
</a>
</g>
</g>
<!-- Node1&#45;&gt;Node2 -->
<g id="edge1" class="edge"><title>Node1&#45;&gt;Node2</title>
<path fill="none" stroke="midnightblue" d="M59,-84.6341C59,-74.946 59,-65.7687 59,-57.7986"/>
<polygon fill="none" stroke="midnightblue" points="55.5001,-84.8857 59,-94.8858 62.5001,-84.8858 55.5001,-84.8857"/>
</g>
</g>
</svg>
