<?xml version="1.0" encoding="UTF-8" standalone="no"?>
<!DOCTYPE svg PUBLIC "-//W3C//DTD SVG 1.1//EN"
 "http://www.w3.org/Graphics/SVG/1.1/DTD/svg11.dtd">
<!-- Generated by graphviz version 2.30.1 (20130214.1330)
 -->
<!-- Title: GUI/resources/json.h Pages: 1 -->
<svg width="131pt" height="84pt"
 viewBox="0.00 0.00 131.00 84.00" xmlns="http://www.w3.org/2000/svg" xmlns:xlink="http://www.w3.org/1999/xlink">
<g id="graph0" class="graph" transform="scale(1 1) rotate(0) translate(4 80)">
<title>GUI/resources/json.h</title>
<polygon fill="white" stroke="white" points="-4,5 -4,-80 128,-80 128,5 -4,5"/>
<!-- Node1 -->
<g id="node1" class="node"><title>Node1</title>
<polygon fill="#bfbfbf" stroke="black" points="8,-56.5 8,-75.5 116,-75.5 116,-56.5 8,-56.5"/>
<text text-anchor="middle" x="62" y="-63.5" font-family="Helvetica,sans-Serif" font-size="10.00">GUI/resources/json.h</text>
</g>
<!-- Node2 -->
<g id="node2" class="node"><title>Node2</title>
<polygon fill="white" stroke="#bfbfbf" points="-0.5,-0.5 -0.5,-19.5 54.5,-19.5 54.5,-0.5 -0.5,-0.5"/>
<text text-anchor="middle" x="27" y="-7.5" font-family="Helvetica,sans-Serif" font-size="10.00">QVariant</text>
</g>
<!-- Node1&#45;&gt;Node2 -->
<g id="edge1" class="edge"><title>Node1&#45;&gt;Node2</title>
<path fill="none" stroke="midnightblue" d="M56.2205,-56.083C51.3276,-48.5341 44.1726,-37.4948 38.1674,-28.2298"/>
<polygon fill="midnightblue" stroke="midnightblue" points="41.048,-26.239 32.672,-19.7511 35.174,-30.0463 41.048,-26.239"/>
</g>
<!-- Node3 -->
<g id="node3" class="node"><title>Node3</title>
<polygon fill="white" stroke="#bfbfbf" points="73,-0.5 73,-19.5 123,-19.5 123,-0.5 73,-0.5"/>
<text text-anchor="middle" x="98" y="-7.5" font-family="Helvetica,sans-Serif" font-size="10.00">QString</text>
</g>
<!-- Node1&#45;&gt;Node3 -->
<g id="edge2" class="edge"><title>Node1&#45;&gt;Node3</title>
<path fill="none" stroke="midnightblue" d="M67.9447,-56.083C72.9773,-48.5341 80.3368,-37.4948 86.5135,-28.2298"/>
<polygon fill="midnightblue" stroke="midnightblue" points="89.5311,-30.0131 92.1659,-19.7511 83.7067,-26.1301 89.5311,-30.0131"/>
</g>
</g>
</svg>
