<?xml version="1.0" encoding="UTF-8" standalone="no"?>
<!DOCTYPE svg PUBLIC "-//W3C//DTD SVG 1.1//EN"
 "http://www.w3.org/Graphics/SVG/1.1/DTD/svg11.dtd">
<!-- Generated by graphviz version 2.30.1 (20130214.1330)
 -->
<!-- Title: Hoofdprogramma/ourProgram/src/mainCapsule.cpp Pages: 1 -->
<!--zoomable 488 -->
<svg id="main" version="1.1" xmlns="http://www.w3.org/2000/svg" xmlns:xlink="http://www.w3.org/1999/xlink" xml:space="preserve" onload="init(evt)">
        <defs>
                <circle id="rim" cx="0" cy="0" r="7"/>
                <circle id="rim2" cx="0" cy="0" r="3.5"/>
                <g id="zoomPlus">
                        <use xlink:href="#rim" fill="#404040">
                                <set attributeName="fill" to="#808080" begin="zoomplus.mouseover" end="zoomplus.mouseout"/>
                        </use>
                        <path d="M-4,0h8M0,-4v8" fill="none" stroke="white" stroke-width="1.5" pointer-events="none"/>
                </g>
                <g id="zoomMin">
                        <use xlink:href="#rim" fill="#404040">
                                <set attributeName="fill" to="#808080" begin="zoomminus.mouseover" end="zoomminus.mouseout"/>
                        </use>
                        <path d="M-4,0h8" fill="none" stroke="white" stroke-width="1.5" pointer-events="none"/>
                </g>
                <g id="dirArrow">
                        <path fill="none" stroke="white" stroke-width="1.5" d="M0,-3.0v7 M-2.5,-0.5L0,-3.0L2.5,-0.5"/>
                </g>
               <g id="resetDef">
                       <use xlink:href="#rim2" fill="#404040">
                               <set attributeName="fill" to="#808080" begin="reset.mouseover" end="reset.mouseout"/>
                       </use>
               </g>
        </defs>

<script type="text/javascript">
var viewWidth = 580;
var viewHeight = 488;
var sectionId = 'dynsection-0';
</script>
<script xlink:href="../../svgpan.js"/>
<svg id="graph" class="graph">
<g id="viewport">
<title>Hoofdprogramma/ourProgram/src/mainCapsule.cpp</title>
<polygon fill="white" stroke="white" points="-4,5 -4,-484 577,-484 577,5 -4,5"/>
<!-- Node1 -->
<g id="node1" class="node"><title>Node1</title>
<polygon fill="#bfbfbf" stroke="black" points="387.5,-449 387.5,-479 530.5,-479 530.5,-449 387.5,-449"/>
<text text-anchor="start" x="395.5" y="-467" font-family="Helvetica,sans-Serif" font-size="10.00">Hoofdprogramma/ourProgram</text>
<text text-anchor="middle" x="459" y="-456" font-family="Helvetica,sans-Serif" font-size="10.00">/src/mainCapsule.cpp</text>
</g>
<!-- Node2 -->
<g id="node2" class="node"><title>Node2</title>
<g id="a_node2"><a xlink:href="../../dd/d50/our_program_8h.xhtml" target="_top" xlink:title="RTSystem/ourProgram.h">
<polygon fill="white" stroke="black" points="391,-224.5 391,-243.5 515,-243.5 515,-224.5 391,-224.5"/>
<text text-anchor="middle" x="453" y="-231.5" font-family="Helvetica,sans-Serif" font-size="10.00">RTSystem/ourProgram.h</text>
</a>
</g>
</g>
<!-- Node1&#45;&gt;Node2 -->
<g id="edge1" class="edge"><title>Node1&#45;&gt;Node2</title>
<path fill="none" stroke="midnightblue" d="M464.314,-448.953C467.845,-438.843 472.158,-424.789 474,-412 482.286,-354.463 467.104,-286.06 458.434,-253.719"/>
<polygon fill="midnightblue" stroke="midnightblue" points="461.743,-252.555 455.688,-243.861 454.999,-254.433 461.743,-252.555"/>
</g>
<!-- Node5 -->
<g id="node5" class="node"><title>Node5</title>
<g id="a_node5"><a xlink:href="../../d6/db7/main_capsule_8h.xhtml" target="_top" xlink:title="mainCapsule.h">
<polygon fill="white" stroke="black" points="384.5,-392.5 384.5,-411.5 465.5,-411.5 465.5,-392.5 384.5,-392.5"/>
<text text-anchor="middle" x="425" y="-399.5" font-family="Helvetica,sans-Serif" font-size="10.00">mainCapsule.h</text>
</a>
</g>
</g>
<!-- Node1&#45;&gt;Node5 -->
<g id="edge4" class="edge"><title>Node1&#45;&gt;Node5</title>
<path fill="none" stroke="midnightblue" d="M450.942,-448.781C446.155,-440.332 440.044,-429.548 434.956,-420.569"/>
<polygon fill="midnightblue" stroke="midnightblue" points="437.923,-418.705 429.947,-411.731 431.832,-422.156 437.923,-418.705"/>
</g>
<!-- Node3 -->
<g id="node3" class="node"><title>Node3</title>
<polygon fill="white" stroke="#bfbfbf" points="490,-168.5 490,-187.5 572,-187.5 572,-168.5 490,-168.5"/>
<text text-anchor="middle" x="531" y="-175.5" font-family="Helvetica,sans-Serif" font-size="10.00">RTStructures.h</text>
</g>
<!-- Node2&#45;&gt;Node3 -->
<g id="edge2" class="edge"><title>Node2&#45;&gt;Node3</title>
<path fill="none" stroke="midnightblue" d="M465.532,-224.324C477.586,-215.979 496.027,-203.212 510.269,-193.352"/>
<polygon fill="midnightblue" stroke="midnightblue" points="512.269,-196.224 518.499,-187.655 508.285,-190.469 512.269,-196.224"/>
</g>
<!-- Node4 -->
<g id="node4" class="node"><title>Node4</title>
<polygon fill="white" stroke="#bfbfbf" points="339,-112.5 339,-131.5 393,-131.5 393,-112.5 339,-112.5"/>
<text text-anchor="middle" x="366" y="-119.5" font-family="Helvetica,sans-Serif" font-size="10.00">iostream</text>
</g>
<!-- Node2&#45;&gt;Node4 -->
<g id="edge3" class="edge"><title>Node2&#45;&gt;Node4</title>
<path fill="none" stroke="midnightblue" d="M432.918,-224.429C417.658,-216.933 397.265,-204.636 385,-188 375.08,-174.545 370.318,-155.984 368.045,-142.14"/>
<polygon fill="midnightblue" stroke="midnightblue" points="371.461,-141.282 366.662,-131.836 364.523,-142.213 371.461,-141.282"/>
</g>
<!-- Node5&#45;&gt;Node2 -->
<g id="edge5" class="edge"><title>Node5&#45;&gt;Node2</title>
<path fill="none" stroke="midnightblue" d="M427.367,-392.429C429.791,-383.417 433.544,-368.795 436,-356 442.908,-320.014 448.234,-277.502 450.967,-253.654"/>
<polygon fill="midnightblue" stroke="midnightblue" points="454.463,-253.884 452.096,-243.557 447.506,-253.106 454.463,-253.884"/>
</g>
<!-- Node6 -->
<g id="node6" class="node"><title>Node6</title>
<g id="a_node6"><a xlink:href="../../d4/d51/json_protocol_8h.xhtml" target="_top" xlink:title="jsonProtocol.h">
<polygon fill="white" stroke="black" points="348.5,-336.5 348.5,-355.5 427.5,-355.5 427.5,-336.5 348.5,-336.5"/>
<text text-anchor="middle" x="388" y="-343.5" font-family="Helvetica,sans-Serif" font-size="10.00">jsonProtocol.h</text>
</a>
</g>
</g>
<!-- Node5&#45;&gt;Node6 -->
<g id="edge6" class="edge"><title>Node5&#45;&gt;Node6</title>
<path fill="none" stroke="midnightblue" d="M418.89,-392.083C413.718,-384.534 406.154,-373.495 399.806,-364.23"/>
<polygon fill="midnightblue" stroke="midnightblue" points="402.536,-362.022 393.996,-355.751 396.761,-365.979 402.536,-362.022"/>
</g>
<!-- Node6&#45;&gt;Node2 -->
<g id="edge7" class="edge"><title>Node6&#45;&gt;Node2</title>
<path fill="none" stroke="midnightblue" d="M393.1,-336.368C403.78,-318.296 428.668,-276.176 442.773,-252.307"/>
<polygon fill="midnightblue" stroke="midnightblue" points="445.849,-253.981 447.923,-243.591 439.823,-250.42 445.849,-253.981"/>
</g>
<!-- Node7 -->
<g id="node7" class="node"><title>Node7</title>
<g id="a_node7"><a xlink:href="../../d8/d2e/json_command_8h.xhtml" target="_top" xlink:title="jsonCommand.h">
<polygon fill="white" stroke="black" points="302.5,-280.5 302.5,-299.5 389.5,-299.5 389.5,-280.5 302.5,-280.5"/>
<text text-anchor="middle" x="346" y="-287.5" font-family="Helvetica,sans-Serif" font-size="10.00">jsonCommand.h</text>
</a>
</g>
</g>
<!-- Node6&#45;&gt;Node7 -->
<g id="edge8" class="edge"><title>Node6&#45;&gt;Node7</title>
<path fill="none" stroke="midnightblue" d="M381.065,-336.083C375.071,-328.377 366.248,-317.033 358.952,-307.653"/>
<polygon fill="midnightblue" stroke="midnightblue" points="361.709,-305.496 352.806,-299.751 356.183,-309.793 361.709,-305.496"/>
</g>
<!-- Node7&#45;&gt;Node2 -->
<g id="edge9" class="edge"><title>Node7&#45;&gt;Node2</title>
<path fill="none" stroke="midnightblue" d="M363.191,-280.324C380.351,-271.664 406.946,-258.242 426.747,-248.249"/>
<polygon fill="midnightblue" stroke="midnightblue" points="428.501,-251.285 435.851,-243.655 425.347,-245.035 428.501,-251.285"/>
</g>
<!-- Node8 -->
<g id="node8" class="node"><title>Node8</title>
<g id="a_node8"><a xlink:href="../../d4/d05/json_8h.xhtml" target="_top" xlink:title="../../include/json.h">
<polygon fill="white" stroke="black" points="211.5,-224.5 211.5,-243.5 306.5,-243.5 306.5,-224.5 211.5,-224.5"/>
<text text-anchor="middle" x="259" y="-231.5" font-family="Helvetica,sans-Serif" font-size="10.00">../../include/json.h</text>
</a>
</g>
</g>
<!-- Node7&#45;&gt;Node8 -->
<g id="edge10" class="edge"><title>Node7&#45;&gt;Node8</title>
<path fill="none" stroke="midnightblue" d="M332.022,-280.324C318.45,-271.9 297.62,-258.971 281.675,-249.074"/>
<polygon fill="midnightblue" stroke="midnightblue" points="283.286,-245.954 272.943,-243.655 279.594,-251.902 283.286,-245.954"/>
</g>
<!-- Node21 -->
<g id="node21" class="node"><title>Node21</title>
<polygon fill="white" stroke="#bfbfbf" points="325,-224.5 325,-243.5 371,-243.5 371,-224.5 325,-224.5"/>
<text text-anchor="middle" x="348" y="-231.5" font-family="Helvetica,sans-Serif" font-size="10.00">stdio.h</text>
</g>
<!-- Node7&#45;&gt;Node21 -->
<g id="edge34" class="edge"><title>Node7&#45;&gt;Node21</title>
<path fill="none" stroke="midnightblue" d="M346.33,-280.083C346.592,-273.006 346.968,-262.861 347.297,-253.986"/>
<polygon fill="midnightblue" stroke="midnightblue" points="350.803,-253.874 347.676,-243.751 343.808,-253.615 350.803,-253.874"/>
</g>
<!-- Node9 -->
<g id="node9" class="node"><title>Node9</title>
<g id="a_node9"><a xlink:href="../../d3/dea/autolink_8h.xhtml" target="_top" xlink:title="autolink.h">
<polygon fill="white" stroke="black" points="394.5,-168.5 394.5,-187.5 453.5,-187.5 453.5,-168.5 394.5,-168.5"/>
<text text-anchor="middle" x="424" y="-175.5" font-family="Helvetica,sans-Serif" font-size="10.00">autolink.h</text>
</a>
</g>
</g>
<!-- Node8&#45;&gt;Node9 -->
<g id="edge11" class="edge"><title>Node8&#45;&gt;Node9</title>
<path fill="none" stroke="midnightblue" d="M285.145,-224.444C313.023,-215.32 357.348,-200.813 388.4,-190.651"/>
<polygon fill="midnightblue" stroke="midnightblue" points="389.562,-193.953 397.978,-187.516 387.385,-187.3 389.562,-193.953"/>
</g>
<!-- Node11 -->
<g id="node11" class="node"><title>Node11</title>
<g id="a_node11"><a xlink:href="../../d4/d3f/value_8h.xhtml" target="_top" xlink:title="value.h">
<polygon fill="white" stroke="black" points="235.5,-112.5 235.5,-131.5 282.5,-131.5 282.5,-112.5 235.5,-112.5"/>
<text text-anchor="middle" x="259" y="-119.5" font-family="Helvetica,sans-Serif" font-size="10.00">value.h</text>
</a>
</g>
</g>
<!-- Node8&#45;&gt;Node11 -->
<g id="edge14" class="edge"><title>Node8&#45;&gt;Node11</title>
<path fill="none" stroke="midnightblue" d="M259,-224.368C259,-206.617 259,-165.666 259,-141.597"/>
<polygon fill="midnightblue" stroke="midnightblue" points="262.5,-141.591 259,-131.591 255.5,-141.591 262.5,-141.591"/>
</g>
<!-- Node16 -->
<g id="node16" class="node"><title>Node16</title>
<g id="a_node16"><a xlink:href="../../d6/dda/reader_8h.xhtml" target="_top" xlink:title="reader.h">
<polygon fill="white" stroke="black" points="179,-168.5 179,-187.5 231,-187.5 231,-168.5 179,-168.5"/>
<text text-anchor="middle" x="205" y="-175.5" font-family="Helvetica,sans-Serif" font-size="10.00">reader.h</text>
</a>
</g>
</g>
<!-- Node8&#45;&gt;Node16 -->
<g id="edge20" class="edge"><title>Node8&#45;&gt;Node16</title>
<path fill="none" stroke="midnightblue" d="M250.083,-224.083C242.22,-216.22 230.569,-204.569 221.081,-195.081"/>
<polygon fill="midnightblue" stroke="midnightblue" points="223.297,-192.347 213.751,-187.751 218.347,-197.297 223.297,-192.347"/>
</g>
<!-- Node20 -->
<g id="node20" class="node"><title>Node20</title>
<g id="a_node20"><a xlink:href="../../d9/d53/writer_8h.xhtml" target="_top" xlink:title="writer.h">
<polygon fill="white" stroke="black" points="287,-168.5 287,-187.5 335,-187.5 335,-168.5 287,-168.5"/>
<text text-anchor="middle" x="311" y="-175.5" font-family="Helvetica,sans-Serif" font-size="10.00">writer.h</text>
</a>
</g>
</g>
<!-- Node8&#45;&gt;Node20 -->
<g id="edge28" class="edge"><title>Node8&#45;&gt;Node20</title>
<path fill="none" stroke="midnightblue" d="M267.587,-224.083C275.159,-216.22 286.378,-204.569 295.514,-195.081"/>
<polygon fill="midnightblue" stroke="midnightblue" points="298.158,-197.382 302.573,-187.751 293.115,-192.527 298.158,-197.382"/>
</g>
<!-- Node17 -->
<g id="node17" class="node"><title>Node17</title>
<g id="a_node17"><a xlink:href="../../de/d47/features_8h.xhtml" target="_top" xlink:title="features.h">
<polygon fill="white" stroke="black" points="-0.5,-112.5 -0.5,-131.5 58.5,-131.5 58.5,-112.5 -0.5,-112.5"/>
<text text-anchor="middle" x="29" y="-119.5" font-family="Helvetica,sans-Serif" font-size="10.00">features.h</text>
</a>
</g>
</g>
<!-- Node8&#45;&gt;Node17 -->
<g id="edge33" class="edge"><title>Node8&#45;&gt;Node17</title>
<path fill="none" stroke="midnightblue" d="M240.952,-224.368C200.728,-205.131 103.536,-158.648 56.0383,-135.931"/>
<polygon fill="midnightblue" stroke="midnightblue" points="57.4953,-132.749 46.9639,-131.591 54.4751,-139.064 57.4953,-132.749"/>
</g>
<!-- Node10 -->
<g id="node10" class="node"><title>Node10</title>
<g id="a_node10"><a xlink:href="../../db/d16/config_8h.xhtml" target="_top" xlink:title="config.h">
<polygon fill="white" stroke="black" points="299,-0.5 299,-19.5 349,-19.5 349,-0.5 299,-0.5"/>
<text text-anchor="middle" x="324" y="-7.5" font-family="Helvetica,sans-Serif" font-size="10.00">config.h</text>
</a>
</g>
</g>
<!-- Node9&#45;&gt;Node10 -->
<g id="edge12" class="edge"><title>Node9&#45;&gt;Node10</title>
<path fill="none" stroke="midnightblue" d="M426.59,-168.487C432.458,-147.397 444.514,-91.8426 421,-56 407.198,-34.9621 380.822,-23.5871 359.054,-17.5401"/>
<polygon fill="midnightblue" stroke="midnightblue" points="359.678,-14.0883 349.127,-15.0508 357.975,-20.878 359.678,-14.0883"/>
</g>
<!-- Node9&#45;&gt;Node9 -->
<g id="edge13" class="edge"><title>Node9&#45;&gt;Node9</title>
<path fill="none" stroke="midnightblue" d="M444.29,-187.575C457.825,-190.27 471,-187.078 471,-178 471,-171.262 463.743,-167.767 454.467,-167.515"/>
<polygon fill="midnightblue" stroke="midnightblue" points="453.938,-164.048 444.29,-168.425 454.562,-171.02 453.938,-164.048"/>
</g>
<!-- Node12 -->
<g id="node12" class="node"><title>Node12</title>
<g id="a_node12"><a xlink:href="../../d2/d84/forwards_8h.xhtml" target="_top" xlink:title="forwards.h">
<polygon fill="white" stroke="black" points="158.5,-56.5 158.5,-75.5 219.5,-75.5 219.5,-56.5 158.5,-56.5"/>
<text text-anchor="middle" x="189" y="-63.5" font-family="Helvetica,sans-Serif" font-size="10.00">forwards.h</text>
</a>
</g>
</g>
<!-- Node11&#45;&gt;Node12 -->
<g id="edge15" class="edge"><title>Node11&#45;&gt;Node12</title>
<path fill="none" stroke="midnightblue" d="M247.753,-112.324C237.203,-104.185 221.199,-91.8395 208.558,-82.0874"/>
<polygon fill="midnightblue" stroke="midnightblue" points="210.507,-79.1707 200.451,-75.8339 206.231,-84.7132 210.507,-79.1707"/>
</g>
<!-- Node13 -->
<g id="node13" class="node"><title>Node13</title>
<polygon fill="white" stroke="#bfbfbf" points="290.5,-56.5 290.5,-75.5 331.5,-75.5 331.5,-56.5 290.5,-56.5"/>
<text text-anchor="middle" x="311" y="-63.5" font-family="Helvetica,sans-Serif" font-size="10.00">string</text>
</g>
<!-- Node11&#45;&gt;Node13 -->
<g id="edge17" class="edge"><title>Node11&#45;&gt;Node13</title>
<path fill="none" stroke="midnightblue" d="M267.587,-112.083C275.159,-104.22 286.378,-92.5688 295.514,-83.0813"/>
<polygon fill="midnightblue" stroke="midnightblue" points="298.158,-85.3821 302.573,-75.7511 293.115,-80.5266 298.158,-85.3821"/>
</g>
<!-- Node14 -->
<g id="node14" class="node"><title>Node14</title>
<polygon fill="white" stroke="#bfbfbf" points="370,-56.5 370,-75.5 412,-75.5 412,-56.5 370,-56.5"/>
<text text-anchor="middle" x="391" y="-63.5" font-family="Helvetica,sans-Serif" font-size="10.00">vector</text>
</g>
<!-- Node11&#45;&gt;Node14 -->
<g id="edge18" class="edge"><title>Node11&#45;&gt;Node14</title>
<path fill="none" stroke="midnightblue" d="M279.916,-112.444C301.736,-103.517 336.15,-89.4387 360.892,-79.3168"/>
<polygon fill="midnightblue" stroke="midnightblue" points="362.252,-82.5422 370.182,-75.5164 359.601,-76.0634 362.252,-82.5422"/>
</g>
<!-- Node15 -->
<g id="node15" class="node"><title>Node15</title>
<polygon fill="white" stroke="#bfbfbf" points="237.5,-56.5 237.5,-75.5 272.5,-75.5 272.5,-56.5 237.5,-56.5"/>
<text text-anchor="middle" x="255" y="-63.5" font-family="Helvetica,sans-Serif" font-size="10.00">map</text>
</g>
<!-- Node11&#45;&gt;Node15 -->
<g id="edge19" class="edge"><title>Node11&#45;&gt;Node15</title>
<path fill="none" stroke="midnightblue" d="M258.339,-112.083C257.815,-105.006 257.064,-94.8611 256.406,-85.9865"/>
<polygon fill="midnightblue" stroke="midnightblue" points="259.877,-85.4652 255.648,-75.7511 252.897,-85.9823 259.877,-85.4652"/>
</g>
<!-- Node12&#45;&gt;Node10 -->
<g id="edge16" class="edge"><title>Node12&#45;&gt;Node10</title>
<path fill="none" stroke="midnightblue" d="M210.391,-56.4435C232.707,-47.5171 267.903,-33.4387 293.208,-23.3168"/>
<polygon fill="midnightblue" stroke="midnightblue" points="294.724,-26.4801 302.709,-19.5164 292.124,-19.9807 294.724,-26.4801"/>
</g>
<!-- Node16&#45;&gt;Node17 -->
<g id="edge21" class="edge"><title>Node16&#45;&gt;Node17</title>
<path fill="none" stroke="midnightblue" d="M178.651,-168.916C149.017,-159.823 100.637,-144.979 66.9363,-134.64"/>
<polygon fill="midnightblue" stroke="midnightblue" points="67.5725,-131.174 56.9857,-131.587 65.5192,-137.866 67.5725,-131.174"/>
</g>
<!-- Node16&#45;&gt;Node11 -->
<g id="edge23" class="edge"><title>Node16&#45;&gt;Node11</title>
<path fill="none" stroke="midnightblue" d="M213.917,-168.083C221.78,-160.22 233.431,-148.569 242.919,-139.081"/>
<polygon fill="midnightblue" stroke="midnightblue" points="245.653,-141.297 250.249,-131.751 240.703,-136.347 245.653,-141.297"/>
</g>
<!-- Node18 -->
<g id="node18" class="node"><title>Node18</title>
<polygon fill="white" stroke="#bfbfbf" points="76.5,-112.5 76.5,-131.5 119.5,-131.5 119.5,-112.5 76.5,-112.5"/>
<text text-anchor="middle" x="98" y="-119.5" font-family="Helvetica,sans-Serif" font-size="10.00">deque</text>
</g>
<!-- Node16&#45;&gt;Node18 -->
<g id="edge24" class="edge"><title>Node16&#45;&gt;Node18</title>
<path fill="none" stroke="midnightblue" d="M187.809,-168.324C170.649,-159.664 144.054,-146.242 124.253,-136.249"/>
<polygon fill="midnightblue" stroke="midnightblue" points="125.653,-133.035 115.149,-131.655 122.499,-139.285 125.653,-133.035"/>
</g>
<!-- Node19 -->
<g id="node19" class="node"><title>Node19</title>
<polygon fill="white" stroke="#bfbfbf" points="137.5,-112.5 137.5,-131.5 178.5,-131.5 178.5,-112.5 137.5,-112.5"/>
<text text-anchor="middle" x="158" y="-119.5" font-family="Helvetica,sans-Serif" font-size="10.00">stack</text>
</g>
<!-- Node16&#45;&gt;Node19 -->
<g id="edge25" class="edge"><title>Node16&#45;&gt;Node19</title>
<path fill="none" stroke="midnightblue" d="M197.239,-168.083C190.463,-160.298 180.457,-148.801 172.245,-139.367"/>
<polygon fill="midnightblue" stroke="midnightblue" points="174.822,-136.996 165.617,-131.751 169.542,-141.592 174.822,-136.996"/>
</g>
<!-- Node16&#45;&gt;Node13 -->
<g id="edge26" class="edge"><title>Node16&#45;&gt;Node13</title>
<path fill="none" stroke="midnightblue" d="M205.72,-168.434C207.261,-154.981 211.973,-128.715 226,-112 240.219,-95.0569 262.482,-83.5992 280.657,-76.4867"/>
<polygon fill="midnightblue" stroke="midnightblue" points="282.068,-79.6975 290.257,-72.9751 279.663,-73.1235 282.068,-79.6975"/>
</g>
<!-- Node16&#45;&gt;Node4 -->
<g id="edge27" class="edge"><title>Node16&#45;&gt;Node4</title>
<path fill="none" stroke="midnightblue" d="M230.511,-168.444C257.596,-159.359 300.59,-144.939 330.869,-134.783"/>
<polygon fill="midnightblue" stroke="midnightblue" points="332.24,-138.015 340.608,-131.516 330.014,-131.378 332.24,-138.015"/>
</g>
<!-- Node17&#45;&gt;Node12 -->
<g id="edge22" class="edge"><title>Node17&#45;&gt;Node12</title>
<path fill="none" stroke="midnightblue" d="M54.3525,-112.444C81.2693,-103.359 123.996,-88.9388 154.087,-78.7831"/>
<polygon fill="midnightblue" stroke="midnightblue" points="155.41,-82.0305 163.766,-75.5164 153.172,-75.3981 155.41,-82.0305"/>
</g>
<!-- Node20&#45;&gt;Node11 -->
<g id="edge29" class="edge"><title>Node20&#45;&gt;Node11</title>
<path fill="none" stroke="midnightblue" d="M302.413,-168.083C294.841,-160.22 283.622,-148.569 274.486,-139.081"/>
<polygon fill="midnightblue" stroke="midnightblue" points="276.885,-136.527 267.427,-131.751 271.842,-141.382 276.885,-136.527"/>
</g>
<!-- Node20&#45;&gt;Node14 -->
<g id="edge30" class="edge"><title>Node20&#45;&gt;Node14</title>
<path fill="none" stroke="midnightblue" d="M335.168,-172.457C356.875,-166.957 387.494,-155.356 402,-132 410.758,-117.899 406.062,-98.9134 400.345,-85.1033"/>
<polygon fill="midnightblue" stroke="midnightblue" points="403.371,-83.3097 395.981,-75.7181 397.024,-86.2614 403.371,-83.3097"/>
</g>
<!-- Node20&#45;&gt;Node13 -->
<g id="edge31" class="edge"><title>Node20&#45;&gt;Node13</title>
<path fill="none" stroke="midnightblue" d="M311,-168.368C311,-150.617 311,-109.666 311,-85.5974"/>
<polygon fill="midnightblue" stroke="midnightblue" points="314.5,-85.5914 311,-75.5914 307.5,-85.5915 314.5,-85.5914"/>
</g>
<!-- Node20&#45;&gt;Node4 -->
<g id="edge32" class="edge"><title>Node20&#45;&gt;Node4</title>
<path fill="none" stroke="midnightblue" d="M320.082,-168.083C328.171,-160.141 340.195,-148.335 349.91,-138.797"/>
<polygon fill="midnightblue" stroke="midnightblue" points="352.403,-141.254 357.087,-131.751 347.499,-136.26 352.403,-141.254"/>
</g>
</g>
</svg>
        <g id="navigator" transform="translate(0 0)" fill="#404254">
                <rect fill="#f2f5e9" fill-opacity="0.5" stroke="#606060" stroke-width=".5" x="0" y="0" width="60" height="60"/>
                <use id="zoomplus" xlink:href="#zoomPlus" x="17" y="9" onmousedown="handleZoom(evt,'in')"/>
                <use id="zoomminus" xlink:href="#zoomMin" x="42" y="9" onmousedown="handleZoom(evt,'out')"/>
                <use id="reset" xlink:href="#resetDef" x="30" y="36" onmousedown="handleReset()"/>
                <g id="arrowUp" xlink:href="#dirArrow" transform="translate(30 24)" onmousedown="handlePan(0,-1)">
                  <use xlink:href="#rim" fill="#404040">
                        <set attributeName="fill" to="#808080" begin="arrowUp.mouseover" end="arrowUp.mouseout"/>
                  </use>
                  <path fill="none" stroke="white" stroke-width="1.5" d="M0,-3.0v7 M-2.5,-0.5L0,-3.0L2.5,-0.5"/>
                </g>
                <g id="arrowRight" xlink:href="#dirArrow" transform="rotate(90) translate(36 -43)" onmousedown="handlePan(1,0)">
                  <use xlink:href="#rim" fill="#404040">
                        <set attributeName="fill" to="#808080" begin="arrowRight.mouseover" end="arrowRight.mouseout"/>
                  </use>
                  <path fill="none" stroke="white" stroke-width="1.5" d="M0,-3.0v7 M-2.5,-0.5L0,-3.0L2.5,-0.5"/>
                </g>
                <g id="arrowDown" xlink:href="#dirArrow" transform="rotate(180) translate(-30 -48)" onmousedown="handlePan(0,1)">
                  <use xlink:href="#rim" fill="#404040">
                        <set attributeName="fill" to="#808080" begin="arrowDown.mouseover" end="arrowDown.mouseout"/>
                  </use>
                  <path fill="none" stroke="white" stroke-width="1.5" d="M0,-3.0v7 M-2.5,-0.5L0,-3.0L2.5,-0.5"/>
                </g>
                <g id="arrowLeft" xlink:href="#dirArrow" transform="rotate(270) translate(-36 17)" onmousedown="handlePan(-1,0)">
                  <use xlink:href="#rim" fill="#404040">
                        <set attributeName="fill" to="#808080" begin="arrowLeft.mouseover" end="arrowLeft.mouseout"/>
                  </use>
                  <path fill="none" stroke="white" stroke-width="1.5" d="M0,-3.0v7 M-2.5,-0.5L0,-3.0L2.5,-0.5"/>
                </g>
        </g>
        <svg viewBox="0 0 15 15" width="100%" height="30px" preserveAspectRatio="xMaxYMin meet">
         <g id="arrow_out" transform="scale(0.3 0.3)">
          <a xlink:href="main_capsule_8cpp__incl_org.svg" target="_base">
           <rect id="button" ry="5" rx="5" y="6" x="6" height="38" width="38"
                fill="#f2f5e9" fill-opacity="0.5" stroke="#606060" stroke-width="1.0"/>
           <path id="arrow"
             d="M 11.500037,31.436501 C 11.940474,20.09759 22.043105,11.32322 32.158766,21.979434 L 37.068811,17.246167 C 37.068811,17.246167 37.088388,32 37.088388,32 L 22.160133,31.978069 C 22.160133,31.978069 26.997745,27.140456 26.997745,27.140456 C 18.528582,18.264221 13.291696,25.230495 11.500037,31.436501 z"
             style="fill:#404040;"/>
          </a>
         </g>
        </svg>
</svg>
