<?xml version="1.0" encoding="UTF-8" standalone="no"?>
<!DOCTYPE svg PUBLIC "-//W3C//DTD SVG 1.1//EN"
 "http://www.w3.org/Graphics/SVG/1.1/DTD/svg11.dtd">
<!-- Generated by graphviz version 2.30.1 (20130214.1330)
 -->
<!-- Title: GUI/bin/debug/ui_displaylogs.h Pages: 1 -->
<svg width="1040pt" height="84pt"
 viewBox="0.00 0.00 1040.00 84.00" xmlns="http://www.w3.org/2000/svg" xmlns:xlink="http://www.w3.org/1999/xlink">
<g id="graph0" class="graph" transform="scale(1 1) rotate(0) translate(4 80)">
<title>GUI/bin/debug/ui_displaylogs.h</title>
<polygon fill="white" stroke="white" points="-4,5 -4,-80 1037,-80 1037,5 -4,5"/>
<!-- Node1 -->
<g id="node1" class="node"><title>Node1</title>
<polygon fill="#bfbfbf" stroke="black" points="426.5,-56.5 426.5,-75.5 577.5,-75.5 577.5,-56.5 426.5,-56.5"/>
<text text-anchor="middle" x="502" y="-63.5" font-family="Helvetica,sans-Serif" font-size="10.00">GUI/bin/debug/ui_displaylogs.h</text>
</g>
<!-- Node2 -->
<g id="node2" class="node"><title>Node2</title>
<polygon fill="white" stroke="#bfbfbf" points="-0.5,-0.5 -0.5,-19.5 88.5,-19.5 88.5,-0.5 -0.5,-0.5"/>
<text text-anchor="middle" x="44" y="-7.5" font-family="Helvetica,sans-Serif" font-size="10.00">QtCore/QVariant</text>
</g>
<!-- Node1&#45;&gt;Node2 -->
<g id="edge1" class="edge"><title>Node1&#45;&gt;Node2</title>
<path fill="none" stroke="midnightblue" d="M426.448,-57.9168C347.205,-50.19 218.804,-36.8312 98.6194,-20.162"/>
<polygon fill="midnightblue" stroke="midnightblue" points="98.8923,-16.6662 88.5041,-18.7483 97.9234,-23.5988 98.8923,-16.6662"/>
</g>
<!-- Node3 -->
<g id="node3" class="node"><title>Node3</title>
<polygon fill="white" stroke="#bfbfbf" points="106.5,-0.5 106.5,-19.5 207.5,-19.5 207.5,-0.5 106.5,-0.5"/>
<text text-anchor="middle" x="157" y="-7.5" font-family="Helvetica,sans-Serif" font-size="10.00">QtWidgets/QAction</text>
</g>
<!-- Node1&#45;&gt;Node3 -->
<g id="edge2" class="edge"><title>Node1&#45;&gt;Node3</title>
<path fill="none" stroke="midnightblue" d="M447.334,-56.4435C384.841,-46.6621 282.827,-30.6947 217.857,-20.5254"/>
<polygon fill="midnightblue" stroke="midnightblue" points="218.18,-17.0334 207.759,-18.9449 217.097,-23.9492 218.18,-17.0334"/>
</g>
<!-- Node4 -->
<g id="node4" class="node"><title>Node4</title>
<polygon fill="white" stroke="#bfbfbf" points="226,-0.5 226,-19.5 348,-19.5 348,-0.5 226,-0.5"/>
<text text-anchor="middle" x="287" y="-7.5" font-family="Helvetica,sans-Serif" font-size="10.00">QtWidgets/QApplication</text>
</g>
<!-- Node1&#45;&gt;Node4 -->
<g id="edge3" class="edge"><title>Node1&#45;&gt;Node4</title>
<path fill="none" stroke="midnightblue" d="M467.933,-56.4435C430.82,-47.1221 371.339,-32.1828 330.785,-21.9972"/>
<polygon fill="midnightblue" stroke="midnightblue" points="331.459,-18.5579 320.908,-19.5164 329.754,-25.347 331.459,-18.5579"/>
</g>
<!-- Node5 -->
<g id="node5" class="node"><title>Node5</title>
<polygon fill="white" stroke="#bfbfbf" points="366,-0.5 366,-19.5 494,-19.5 494,-0.5 366,-0.5"/>
<text text-anchor="middle" x="430" y="-7.5" font-family="Helvetica,sans-Serif" font-size="10.00">QtWidgets/QButtonGroup</text>
</g>
<!-- Node1&#45;&gt;Node5 -->
<g id="edge4" class="edge"><title>Node1&#45;&gt;Node5</title>
<path fill="none" stroke="midnightblue" d="M490.432,-56.324C479.58,-48.1849 463.119,-35.8395 450.117,-26.0874"/>
<polygon fill="midnightblue" stroke="midnightblue" points="451.879,-23.0339 441.779,-19.8339 447.679,-28.6339 451.879,-23.0339"/>
</g>
<!-- Node6 -->
<g id="node6" class="node"><title>Node6</title>
<polygon fill="white" stroke="#bfbfbf" points="512.5,-0.5 512.5,-19.5 637.5,-19.5 637.5,-0.5 512.5,-0.5"/>
<text text-anchor="middle" x="575" y="-7.5" font-family="Helvetica,sans-Serif" font-size="10.00">QtWidgets/QHeaderView</text>
</g>
<!-- Node1&#45;&gt;Node6 -->
<g id="edge5" class="edge"><title>Node1&#45;&gt;Node6</title>
<path fill="none" stroke="midnightblue" d="M513.729,-56.324C524.837,-48.1066 541.742,-35.6017 554.983,-25.8069"/>
<polygon fill="midnightblue" stroke="midnightblue" points="557.1,-28.5948 563.058,-19.8339 552.937,-22.9671 557.1,-28.5948"/>
</g>
<!-- Node7 -->
<g id="node7" class="node"><title>Node7</title>
<polygon fill="white" stroke="#bfbfbf" points="656,-0.5 656,-19.5 766,-19.5 766,-0.5 656,-0.5"/>
<text text-anchor="middle" x="711" y="-7.5" font-family="Helvetica,sans-Serif" font-size="10.00">QtWidgets/QListView</text>
</g>
<!-- Node1&#45;&gt;Node7 -->
<g id="edge6" class="edge"><title>Node1&#45;&gt;Node7</title>
<path fill="none" stroke="midnightblue" d="M535.117,-56.4435C571.118,-47.1419 628.77,-32.246 668.186,-22.062"/>
<polygon fill="midnightblue" stroke="midnightblue" points="669.232,-25.4068 678.038,-19.5164 667.481,-18.6294 669.232,-25.4068"/>
</g>
<!-- Node8 -->
<g id="node8" class="node"><title>Node8</title>
<polygon fill="white" stroke="#bfbfbf" points="784.5,-0.5 784.5,-19.5 909.5,-19.5 909.5,-0.5 784.5,-0.5"/>
<text text-anchor="middle" x="847" y="-7.5" font-family="Helvetica,sans-Serif" font-size="10.00">QtWidgets/QPushButton</text>
</g>
<!-- Node1&#45;&gt;Node8 -->
<g id="edge7" class="edge"><title>Node1&#45;&gt;Node8</title>
<path fill="none" stroke="midnightblue" d="M556.666,-56.4435C617.986,-46.8456 717.359,-31.2916 782.449,-21.1037"/>
<polygon fill="midnightblue" stroke="midnightblue" points="783.251,-24.5208 792.589,-19.5164 782.169,-17.605 783.251,-24.5208"/>
</g>
<!-- Node9 -->
<g id="node9" class="node"><title>Node9</title>
<polygon fill="white" stroke="#bfbfbf" points="928,-0.5 928,-19.5 1032,-19.5 1032,-0.5 928,-0.5"/>
<text text-anchor="middle" x="980" y="-7.5" font-family="Helvetica,sans-Serif" font-size="10.00">QtWidgets/QWidget</text>
</g>
<!-- Node1&#45;&gt;Node9 -->
<g id="edge8" class="edge"><title>Node1&#45;&gt;Node9</title>
<path fill="none" stroke="midnightblue" d="M577.627,-57.6542C661.065,-49.3552 799.268,-35.0344 918,-20 918.101,-19.9872 918.202,-19.9744 918.304,-19.9615"/>
<polygon fill="midnightblue" stroke="midnightblue" points="918.464,-23.4706 927.923,-18.6998 917.553,-16.53 918.464,-23.4706"/>
</g>
</g>
</svg>
