<?xml version="1.0" encoding="UTF-8" standalone="no"?>
<!DOCTYPE svg PUBLIC "-//W3C//DTD SVG 1.1//EN"
 "http://www.w3.org/Graphics/SVG/1.1/DTD/svg11.dtd">
<!-- Generated by graphviz version 2.30.1 (20130214.1330)
 -->
<!-- Title: myTimer Pages: 1 -->
<svg width="62pt" height="84pt"
 viewBox="0.00 0.00 62.00 84.00" xmlns="http://www.w3.org/2000/svg" xmlns:xlink="http://www.w3.org/1999/xlink">
<g id="graph0" class="graph" transform="scale(1 1) rotate(0) translate(4 80)">
<title>myTimer</title>
<polygon fill="white" stroke="white" points="-4,5 -4,-80 59,-80 59,5 -4,5"/>
<!-- Node1 -->
<g id="node1" class="node"><title>Node1</title>
<polygon fill="#bfbfbf" stroke="black" points="0,-0.5 0,-19.5 54,-19.5 54,-0.5 0,-0.5"/>
<text text-anchor="middle" x="27" y="-7.5" font-family="Helvetica,sans-Serif" font-size="10.00">myTimer</text>
</g>
<!-- Node2 -->
<g id="node2" class="node"><title>Node2</title>
<polygon fill="white" stroke="#bfbfbf" points="0.5,-56.5 0.5,-75.5 53.5,-75.5 53.5,-56.5 0.5,-56.5"/>
<text text-anchor="middle" x="27" y="-63.5" font-family="Helvetica,sans-Serif" font-size="10.00">QObject</text>
</g>
<!-- Node2&#45;&gt;Node1 -->
<g id="edge1" class="edge"><title>Node2&#45;&gt;Node1</title>
<path fill="none" stroke="midnightblue" d="M20.5276,-46.1005C19.8956,-37.1357 20.3427,-26.8579 21.869,-19.7511"/>
<polygon fill="midnightblue" stroke="midnightblue" points="17.0658,-46.6216 21.8337,-56.083 24.0067,-45.7134 17.0658,-46.6216"/>
</g>
<!-- Node2&#45;&gt;Node1 -->
<g id="edge2" class="edge"><title>Node2&#45;&gt;Node1</title>
<path fill="none" stroke="midnightblue" d="M33.4724,-46.1005C34.1044,-37.1357 33.6573,-26.8579 32.131,-19.7511"/>
<polygon fill="midnightblue" stroke="midnightblue" points="29.9933,-45.7134 32.1663,-56.083 36.9342,-46.6216 29.9933,-45.7134"/>
</g>
</g>
</svg>
