<?xml version="1.0" encoding="UTF-8" standalone="no"?>
<!DOCTYPE svg PUBLIC "-//W3C//DTD SVG 1.1//EN"
 "http://www.w3.org/Graphics/SVG/1.1/DTD/svg11.dtd">
<!-- Generated by graphviz version 2.30.1 (20130214.1330)
 -->
<!-- Title: Hoofdprogramma/ourProgram/src/tcpCapsule.h Pages: 1 -->
<svg width="478pt" height="208pt"
 viewBox="0.00 0.00 478.00 208.00" xmlns="http://www.w3.org/2000/svg" xmlns:xlink="http://www.w3.org/1999/xlink">
<g id="graph0" class="graph" transform="scale(1 1) rotate(0) translate(4 204)">
<title>Hoofdprogramma/ourProgram/src/tcpCapsule.h</title>
<polygon fill="white" stroke="white" points="-4,5 -4,-204 475,-204 475,5 -4,5"/>
<!-- Node1 -->
<g id="node1" class="node"><title>Node1</title>
<polygon fill="#bfbfbf" stroke="black" points="141.5,-169 141.5,-199 284.5,-199 284.5,-169 141.5,-169"/>
<text text-anchor="start" x="149.5" y="-187" font-family="Helvetica,sans-Serif" font-size="10.00">Hoofdprogramma/ourProgram</text>
<text text-anchor="middle" x="213" y="-176" font-family="Helvetica,sans-Serif" font-size="10.00">/src/tcpCapsule.h</text>
</g>
<!-- Node2 -->
<g id="node2" class="node"><title>Node2</title>
<g id="a_node2"><a xlink:href="../../dd/d50/our_program_8h.xhtml" target="_top" xlink:title="RTSystem/ourProgram.h">
<polygon fill="white" stroke="black" points="22,-56.5 22,-75.5 146,-75.5 146,-56.5 22,-56.5"/>
<text text-anchor="middle" x="84" y="-63.5" font-family="Helvetica,sans-Serif" font-size="10.00">RTSystem/ourProgram.h</text>
</a>
</g>
</g>
<!-- Node1&#45;&gt;Node2 -->
<g id="edge1" class="edge"><title>Node1&#45;&gt;Node2</title>
<path fill="none" stroke="midnightblue" d="M141.262,-171.042C98.7834,-162.336 50.8184,-149.087 38,-132 25.1671,-114.893 44.638,-94.7275 62.0592,-81.4454"/>
<polygon fill="midnightblue" stroke="midnightblue" points="64.2212,-84.2017 70.2963,-75.5216 60.1342,-78.5187 64.2212,-84.2017"/>
</g>
<!-- Node5 -->
<g id="node5" class="node"><title>Node5</title>
<g id="a_node5"><a xlink:href="../../d2/d45/tcp_protocol_8h.xhtml" target="_top" xlink:title="tcpProtocol.h">
<polygon fill="white" stroke="black" points="47,-112.5 47,-131.5 121,-131.5 121,-112.5 47,-112.5"/>
<text text-anchor="middle" x="84" y="-119.5" font-family="Helvetica,sans-Serif" font-size="10.00">tcpProtocol.h</text>
</a>
</g>
</g>
<!-- Node1&#45;&gt;Node5 -->
<g id="edge4" class="edge"><title>Node1&#45;&gt;Node5</title>
<path fill="none" stroke="midnightblue" d="M182.755,-168.933C161.283,-158.946 132.675,-145.64 111.779,-135.92"/>
<polygon fill="midnightblue" stroke="midnightblue" points="113.033,-132.644 102.49,-131.6 110.081,-138.991 113.033,-132.644"/>
</g>
<!-- Node6 -->
<g id="node6" class="node"><title>Node6</title>
<polygon fill="white" stroke="#bfbfbf" points="139.5,-112.5 139.5,-131.5 204.5,-131.5 204.5,-112.5 139.5,-112.5"/>
<text text-anchor="middle" x="172" y="-119.5" font-family="Helvetica,sans-Serif" font-size="10.00">winsock2.h</text>
</g>
<!-- Node1&#45;&gt;Node6 -->
<g id="edge6" class="edge"><title>Node1&#45;&gt;Node6</title>
<path fill="none" stroke="midnightblue" d="M203.284,-168.781C197.387,-160.152 189.827,-149.088 183.616,-139.999"/>
<polygon fill="midnightblue" stroke="midnightblue" points="186.498,-138.012 177.966,-131.731 180.718,-141.962 186.498,-138.012"/>
</g>
<!-- Node7 -->
<g id="node7" class="node"><title>Node7</title>
<polygon fill="white" stroke="#bfbfbf" points="222.5,-112.5 222.5,-131.5 285.5,-131.5 285.5,-112.5 222.5,-112.5"/>
<text text-anchor="middle" x="254" y="-119.5" font-family="Helvetica,sans-Serif" font-size="10.00">ws2tcpip.h</text>
</g>
<!-- Node1&#45;&gt;Node7 -->
<g id="edge7" class="edge"><title>Node1&#45;&gt;Node7</title>
<path fill="none" stroke="midnightblue" d="M222.716,-168.781C228.613,-160.152 236.173,-149.088 242.384,-139.999"/>
<polygon fill="midnightblue" stroke="midnightblue" points="245.282,-141.962 248.034,-131.731 239.502,-138.012 245.282,-141.962"/>
</g>
<!-- Node8 -->
<g id="node8" class="node"><title>Node8</title>
<polygon fill="white" stroke="#bfbfbf" points="304,-112.5 304,-131.5 350,-131.5 350,-112.5 304,-112.5"/>
<text text-anchor="middle" x="327" y="-119.5" font-family="Helvetica,sans-Serif" font-size="10.00">stdio.h</text>
</g>
<!-- Node1&#45;&gt;Node8 -->
<g id="edge8" class="edge"><title>Node1&#45;&gt;Node8</title>
<path fill="none" stroke="midnightblue" d="M239.728,-168.933C258.446,-159.081 283.299,-146 301.695,-136.318"/>
<polygon fill="midnightblue" stroke="midnightblue" points="303.441,-139.355 310.66,-131.6 300.181,-133.16 303.441,-139.355"/>
</g>
<!-- Node9 -->
<g id="node9" class="node"><title>Node9</title>
<g id="a_node9"><a xlink:href="../../d7/d0a/_t_c_p_c_o_n_s_t_a_n_t_s_8h.xhtml" target="_top" xlink:title="TCPCONSTANTS.h">
<polygon fill="white" stroke="black" points="368,-112.5 368,-131.5 470,-131.5 470,-112.5 368,-112.5"/>
<text text-anchor="middle" x="419" y="-119.5" font-family="Helvetica,sans-Serif" font-size="10.00">TCPCONSTANTS.h</text>
</a>
</g>
</g>
<!-- Node1&#45;&gt;Node9 -->
<g id="edge9" class="edge"><title>Node1&#45;&gt;Node9</title>
<path fill="none" stroke="midnightblue" d="M261.298,-168.933C297.401,-158.417 346.137,-144.222 379.83,-134.409"/>
<polygon fill="midnightblue" stroke="midnightblue" points="381.151,-137.67 389.773,-131.513 379.193,-130.949 381.151,-137.67"/>
</g>
<!-- Node3 -->
<g id="node3" class="node"><title>Node3</title>
<polygon fill="white" stroke="#bfbfbf" points="0,-0.5 0,-19.5 82,-19.5 82,-0.5 0,-0.5"/>
<text text-anchor="middle" x="41" y="-7.5" font-family="Helvetica,sans-Serif" font-size="10.00">RTStructures.h</text>
</g>
<!-- Node2&#45;&gt;Node3 -->
<g id="edge2" class="edge"><title>Node2&#45;&gt;Node3</title>
<path fill="none" stroke="midnightblue" d="M76.8994,-56.083C70.763,-48.3768 61.7303,-37.0333 54.2608,-27.6531"/>
<polygon fill="midnightblue" stroke="midnightblue" points="56.9357,-25.3936 47.9685,-19.7511 51.4598,-29.7542 56.9357,-25.3936"/>
</g>
<!-- Node4 -->
<g id="node4" class="node"><title>Node4</title>
<polygon fill="white" stroke="#bfbfbf" points="100,-0.5 100,-19.5 154,-19.5 154,-0.5 100,-0.5"/>
<text text-anchor="middle" x="127" y="-7.5" font-family="Helvetica,sans-Serif" font-size="10.00">iostream</text>
</g>
<!-- Node2&#45;&gt;Node4 -->
<g id="edge3" class="edge"><title>Node2&#45;&gt;Node4</title>
<path fill="none" stroke="midnightblue" d="M91.1006,-56.083C97.237,-48.3768 106.27,-37.0333 113.739,-27.6531"/>
<polygon fill="midnightblue" stroke="midnightblue" points="116.54,-29.7542 120.032,-19.7511 111.064,-25.3936 116.54,-29.7542"/>
</g>
<!-- Node5&#45;&gt;Node2 -->
<g id="edge5" class="edge"><title>Node5&#45;&gt;Node2</title>
<path fill="none" stroke="midnightblue" d="M84,-112.083C84,-105.006 84,-94.8611 84,-85.9865"/>
<polygon fill="midnightblue" stroke="midnightblue" points="87.5001,-85.751 84,-75.7511 80.5001,-85.7511 87.5001,-85.751"/>
</g>
<!-- Node9&#45;&gt;Node2 -->
<g id="edge10" class="edge"><title>Node9&#45;&gt;Node2</title>
<path fill="none" stroke="midnightblue" d="M367.756,-112.74C308.429,-103.177 210.705,-87.4242 146.845,-77.1302"/>
<polygon fill="midnightblue" stroke="midnightblue" points="147.327,-73.6629 136.898,-75.5268 146.213,-80.5737 147.327,-73.6629"/>
</g>
</g>
</svg>
