<?xml version="1.0" encoding="UTF-8" standalone="no"?>
<!DOCTYPE svg PUBLIC "-//W3C//DTD SVG 1.1//EN"
 "http://www.w3.org/Graphics/SVG/1.1/DTD/svg11.dtd">
<!-- Generated by graphviz version 2.30.1 (20130214.1330)
 -->
<!-- Title: GUI/roombagui&#45;build&#45;Desktop_Qt_5_0_1_MSVC2010_32bit&#45;Debug/debug/moc_information.cpp Pages: 1 -->
<svg width="361pt" height="174pt"
 viewBox="0.00 0.00 361.00 174.00" xmlns="http://www.w3.org/2000/svg" xmlns:xlink="http://www.w3.org/1999/xlink">
<g id="graph0" class="graph" transform="scale(1 1) rotate(0) translate(4 170)">
<title>GUI/roombagui&#45;build&#45;Desktop_Qt_5_0_1_MSVC2010_32bit&#45;Debug/debug/moc_information.cpp</title>
<polygon fill="white" stroke="white" points="-4,5 -4,-170 358,-170 358,5 -4,5"/>
<!-- Node1 -->
<g id="node1" class="node"><title>Node1</title>
<polygon fill="#bfbfbf" stroke="black" points="81,-124.5 81,-165.5 277,-165.5 277,-124.5 81,-124.5"/>
<text text-anchor="start" x="89" y="-153.5" font-family="Helvetica,sans-Serif" font-size="10.00">GUI/roombagui&#45;build</text>
<text text-anchor="start" x="89" y="-142.5" font-family="Helvetica,sans-Serif" font-size="10.00">&#45;Desktop_Qt_5_0_1_MSVC2010</text>
<text text-anchor="middle" x="179" y="-131.5" font-family="Helvetica,sans-Serif" font-size="10.00">_32bit&#45;Debug/debug/moc_information.cpp</text>
</g>
<!-- Node2 -->
<g id="node2" class="node"><title>Node2</title>
<g id="a_node2"><a xlink:href="../../db/d3a/information_8h.xhtml" target="_top" xlink:title="../../Gui&#45;RoombaV1.0\l/information.h">
<polygon fill="white" stroke="black" points="-0.5,-57 -0.5,-87 108.5,-87 108.5,-57 -0.5,-57"/>
<text text-anchor="start" x="7.5" y="-75" font-family="Helvetica,sans-Serif" font-size="10.00">../../Gui&#45;RoombaV1.0</text>
<text text-anchor="middle" x="54" y="-64" font-family="Helvetica,sans-Serif" font-size="10.00">/information.h</text>
</a>
</g>
</g>
<!-- Node1&#45;&gt;Node2 -->
<g id="edge1" class="edge"><title>Node1&#45;&gt;Node2</title>
<path fill="none" stroke="midnightblue" d="M144.512,-124.411C126.79,-114.344 105.278,-102.126 87.6732,-92.1264"/>
<polygon fill="midnightblue" stroke="midnightblue" points="89.288,-89.0184 78.8641,-87.1228 85.8308,-95.1051 89.288,-89.0184"/>
</g>
<!-- Node4 -->
<g id="node4" class="node"><title>Node4</title>
<polygon fill="white" stroke="#bfbfbf" points="127,-62.5 127,-81.5 231,-81.5 231,-62.5 127,-62.5"/>
<text text-anchor="middle" x="179" y="-69.5" font-family="Helvetica,sans-Serif" font-size="10.00">QtCore/qbytearray.h</text>
</g>
<!-- Node1&#45;&gt;Node4 -->
<g id="edge3" class="edge"><title>Node1&#45;&gt;Node4</title>
<path fill="none" stroke="midnightblue" d="M179,-124.223C179,-114.086 179,-101.807 179,-91.8125"/>
<polygon fill="midnightblue" stroke="midnightblue" points="182.5,-91.7349 179,-81.7349 175.5,-91.7349 182.5,-91.7349"/>
</g>
<!-- Node5 -->
<g id="node5" class="node"><title>Node5</title>
<polygon fill="white" stroke="#bfbfbf" points="249,-62.5 249,-81.5 353,-81.5 353,-62.5 249,-62.5"/>
<text text-anchor="middle" x="301" y="-69.5" font-family="Helvetica,sans-Serif" font-size="10.00">QtCore/qmetatype.h</text>
</g>
<!-- Node1&#45;&gt;Node5 -->
<g id="edge4" class="edge"><title>Node1&#45;&gt;Node5</title>
<path fill="none" stroke="midnightblue" d="M212.66,-124.411C233.201,-112.457 258.956,-97.4681 277.348,-86.7646"/>
<polygon fill="midnightblue" stroke="midnightblue" points="279.346,-89.6518 286.228,-81.5968 275.825,-83.6018 279.346,-89.6518"/>
</g>
<!-- Node3 -->
<g id="node3" class="node"><title>Node3</title>
<polygon fill="white" stroke="#bfbfbf" points="26.5,-0.5 26.5,-19.5 81.5,-19.5 81.5,-0.5 26.5,-0.5"/>
<text text-anchor="middle" x="54" y="-7.5" font-family="Helvetica,sans-Serif" font-size="10.00">QWidget</text>
</g>
<!-- Node2&#45;&gt;Node3 -->
<g id="edge2" class="edge"><title>Node2&#45;&gt;Node3</title>
<path fill="none" stroke="midnightblue" d="M54,-56.7808C54,-48.7812 54,-38.6887 54,-30.0168"/>
<polygon fill="midnightblue" stroke="midnightblue" points="57.5001,-29.7305 54,-19.7305 50.5001,-29.7306 57.5001,-29.7305"/>
</g>
</g>
</svg>
