<?xml version="1.0" encoding="UTF-8" standalone="no"?>
<!DOCTYPE svg PUBLIC "-//W3C//DTD SVG 1.1//EN"
 "http://www.w3.org/Graphics/SVG/1.1/DTD/svg11.dtd">
<!-- Generated by graphviz version 2.30.1 (20130214.1330)
 -->
<!-- Title: Json::ValueIteratorBase Pages: 1 -->
<svg width="247pt" height="84pt"
 viewBox="0.00 0.00 247.00 84.00" xmlns="http://www.w3.org/2000/svg" xmlns:xlink="http://www.w3.org/1999/xlink">
<g id="graph0" class="graph" transform="scale(1 1) rotate(0) translate(4 80)">
<title>Json::ValueIteratorBase</title>
<polygon fill="white" stroke="white" points="-4,5 -4,-80 244,-80 244,5 -4,5"/>
<!-- Node1 -->
<g id="node1" class="node"><title>Node1</title>
<polygon fill="#bfbfbf" stroke="black" points="65,-56.5 65,-75.5 185,-75.5 185,-56.5 65,-56.5"/>
<text text-anchor="middle" x="125" y="-63.5" font-family="Helvetica,sans-Serif" font-size="10.00">Json::ValueIteratorBase</text>
</g>
<!-- Node2 -->
<g id="node2" class="node"><title>Node2</title>
<g id="a_node2"><a xlink:href="../../d1/d4a/class_json_1_1_value_const_iterator.xhtml" target="_top" xlink:title="const iterator for object and array value.">
<polygon fill="white" stroke="black" points="-0.5,-0.5 -0.5,-19.5 122.5,-19.5 122.5,-0.5 -0.5,-0.5"/>
<text text-anchor="middle" x="61" y="-7.5" font-family="Helvetica,sans-Serif" font-size="10.00">Json::ValueConstIterator</text>
</a>
</g>
</g>
<!-- Node1&#45;&gt;Node2 -->
<g id="edge1" class="edge"><title>Node1&#45;&gt;Node2</title>
<path fill="none" stroke="midnightblue" d="M107.009,-49.8197C95.5424,-40.1452 81.0867,-27.9481 71.4698,-19.8339"/>
<polygon fill="midnightblue" stroke="midnightblue" points="104.817,-52.5502 114.717,-56.324 109.331,-47.2002 104.817,-52.5502"/>
</g>
<!-- Node3 -->
<g id="node3" class="node"><title>Node3</title>
<g id="a_node3"><a xlink:href="../../d5/dda/class_json_1_1_value_iterator.xhtml" target="_top" xlink:title="Iterator for object and array value.">
<polygon fill="white" stroke="black" points="141,-0.5 141,-19.5 239,-19.5 239,-0.5 141,-0.5"/>
<text text-anchor="middle" x="190" y="-7.5" font-family="Helvetica,sans-Serif" font-size="10.00">Json::ValueIterator</text>
</a>
</g>
</g>
<!-- Node1&#45;&gt;Node3 -->
<g id="edge2" class="edge"><title>Node1&#45;&gt;Node3</title>
<path fill="none" stroke="midnightblue" d="M143.273,-49.8197C154.918,-40.1452 169.599,-27.9481 179.367,-19.8339"/>
<polygon fill="midnightblue" stroke="midnightblue" points="140.899,-47.2416 135.443,-56.324 145.372,-52.6259 140.899,-47.2416"/>
</g>
</g>
</svg>
