<?xml version="1.0" encoding="UTF-8" standalone="no"?>
<!DOCTYPE svg PUBLIC "-//W3C//DTD SVG 1.1//EN"
 "http://www.w3.org/Graphics/SVG/1.1/DTD/svg11.dtd">
<!-- Generated by graphviz version 2.30.1 (20130214.1330)
 -->
<!-- Title: GUI/resources/clslog.h Pages: 1 -->
<svg width="1808pt" height="424pt"
 viewBox="0.00 0.00 1807.63 424.00" xmlns="http://www.w3.org/2000/svg" xmlns:xlink="http://www.w3.org/1999/xlink">
<g id="graph0" class="graph" transform="scale(1 1) rotate(0) translate(4 420)">
<title>GUI/resources/clslog.h</title>
<polygon fill="white" stroke="white" points="-4,5 -4,-420 1804.63,-420 1804.63,5 -4,5"/>
<!-- Node1 -->
<g id="node1" class="node"><title>Node1</title>
<polygon fill="#bfbfbf" stroke="black" points="1281.63,-396.5 1281.63,-415.5 1397.63,-415.5 1397.63,-396.5 1281.63,-396.5"/>
<text text-anchor="middle" x="1339.63" y="-403.5" font-family="Helvetica,sans-Serif" font-size="10.00">GUI/resources/clslog.h</text>
</g>
<!-- Node2 -->
<g id="node2" class="node"><title>Node2</title>
<g id="a_node2"><a xlink:href="../../dc/d96/jsoncommand_8h.xhtml" target="_top" xlink:title="GUI/resources/jsoncommand.h">
<polygon fill="white" stroke="black" points="1356.13,-278.5 1356.13,-297.5 1507.13,-297.5 1507.13,-278.5 1356.13,-278.5"/>
<text text-anchor="middle" x="1431.63" y="-285.5" font-family="Helvetica,sans-Serif" font-size="10.00">GUI/resources/jsoncommand.h</text>
</a>
</g>
</g>
<!-- Node1&#45;&gt;Node2 -->
<g id="edge1" class="edge"><title>Node1&#45;&gt;Node2</title>
<path fill="none" stroke="midnightblue" d="M1352.8,-388.385C1372.7,-363.291 1409.72,-316.625 1424.88,-297.505"/>
<polygon fill="midnightblue" stroke="midnightblue" points="1350.01,-386.271 1346.54,-396.281 1355.5,-390.621 1350.01,-386.271"/>
</g>
<!-- Node13 -->
<g id="node13" class="node"><title>Node13</title>
<g id="a_node13"><a xlink:href="../../d4/dca/_roomba_connect_8h.xhtml" target="_top" xlink:title="GUI/Gui&#45;RoombaV1.0\l/RoombaConnect.h">
<polygon fill="white" stroke="black" points="1213.63,-205 1213.63,-235 1323.63,-235 1323.63,-205 1213.63,-205"/>
<text text-anchor="start" x="1221.63" y="-223" font-family="Helvetica,sans-Serif" font-size="10.00">GUI/Gui&#45;RoombaV1.0</text>
<text text-anchor="middle" x="1268.63" y="-212" font-family="Helvetica,sans-Serif" font-size="10.00">/RoombaConnect.h</text>
</a>
</g>
</g>
<!-- Node1&#45;&gt;Node13 -->
<g id="edge21" class="edge"><title>Node1&#45;&gt;Node13</title>
<path fill="none" stroke="midnightblue" d="M1332.54,-386.651C1318.36,-349.89 1286.73,-267.929 1274.05,-235.047"/>
<polygon fill="midnightblue" stroke="midnightblue" points="1329.34,-388.056 1336.2,-396.125 1335.87,-385.536 1329.34,-388.056"/>
</g>
<!-- Node17 -->
<g id="node17" class="node"><title>Node17</title>
<g id="a_node17"><a xlink:href="../../db/d97/clsevent_8h.xhtml" target="_top" xlink:title="GUI/resources/clsevent.h">
<polygon fill="white" stroke="black" points="668.125,-340.5 668.125,-359.5 793.125,-359.5 793.125,-340.5 668.125,-340.5"/>
<text text-anchor="middle" x="730.625" y="-347.5" font-family="Helvetica,sans-Serif" font-size="10.00">GUI/resources/clsevent.h</text>
</a>
</g>
</g>
<!-- Node1&#45;&gt;Node17 -->
<g id="edge22" class="edge"><title>Node1&#45;&gt;Node17</title>
<path fill="none" stroke="midnightblue" d="M1271.43,-398.953C1152.42,-388.401 908.56,-366.778 793.442,-356.57"/>
<polygon fill="midnightblue" stroke="midnightblue" points="1271.24,-402.45 1281.51,-399.847 1271.86,-395.477 1271.24,-402.45"/>
</g>
<!-- Node3 -->
<g id="node3" class="node"><title>Node3</title>
<g id="a_node3"><a xlink:href="../../da/d4b/controllingroomba_8h.xhtml" target="_top" xlink:title="GUI/Gui&#45;RoombaV1.0\l/controllingroomba.h">
<polygon fill="white" stroke="black" points="881.625,-137 881.625,-167 991.625,-167 991.625,-137 881.625,-137"/>
<text text-anchor="start" x="889.625" y="-155" font-family="Helvetica,sans-Serif" font-size="10.00">GUI/Gui&#45;RoombaV1.0</text>
<text text-anchor="middle" x="936.625" y="-144" font-family="Helvetica,sans-Serif" font-size="10.00">/controllingroomba.h</text>
</a>
</g>
</g>
<!-- Node1&#45;&gt;Node3 -->
<g id="edge49" class="edge"><title>Node1&#45;&gt;Node3</title>
<path fill="none" stroke="midnightblue" d="M1271.13,-404.83C1013.82,-403.513 115.154,-392.562 26.625,-304 -4.85265,-272.511 -9.97085,-236.347 20.625,-204 50.313,-172.613 687.836,-157.792 881.392,-154.005"/>
<polygon fill="midnightblue" stroke="midnightblue" points="1271.44,-408.331 1281.45,-404.879 1271.47,-401.331 1271.44,-408.331"/>
</g>
<!-- Node5 -->
<g id="node5" class="node"><title>Node5</title>
<g id="a_node5"><a xlink:href="../../dd/da1/roomba_8h.xhtml" target="_top" xlink:title="GUI/Gui&#45;RoombaV1.0\l/roomba.h">
<polygon fill="white" stroke="black" points="1294.63,-69 1294.63,-99 1404.63,-99 1404.63,-69 1294.63,-69"/>
<text text-anchor="start" x="1302.63" y="-87" font-family="Helvetica,sans-Serif" font-size="10.00">GUI/Gui&#45;RoombaV1.0</text>
<text text-anchor="middle" x="1349.63" y="-76" font-family="Helvetica,sans-Serif" font-size="10.00">/roomba.h</text>
</a>
</g>
</g>
<!-- Node1&#45;&gt;Node5 -->
<g id="edge50" class="edge"><title>Node1&#45;&gt;Node5</title>
<path fill="none" stroke="midnightblue" d="M1400.86,-394.616C1490.17,-377.709 1645.63,-340.834 1645.63,-289 1645.63,-289 1645.63,-289 1645.63,-219 1645.63,-114.501 1490.63,-91.0717 1404.95,-86.1028"/>
<polygon fill="midnightblue" stroke="midnightblue" points="1400.03,-391.21 1390.84,-396.482 1401.31,-398.092 1400.03,-391.21"/>
</g>
<!-- Node34 -->
<g id="node34" class="node"><title>Node34</title>
<g id="a_node34"><a xlink:href="../../d5/d28/clslog_8cpp.xhtml" target="_top" xlink:title="GUI/resources/clslog.cpp">
<polygon fill="white" stroke="black" points="1673.63,-340.5 1673.63,-359.5 1799.63,-359.5 1799.63,-340.5 1673.63,-340.5"/>
<text text-anchor="middle" x="1736.63" y="-347.5" font-family="Helvetica,sans-Serif" font-size="10.00">GUI/resources/clslog.cpp</text>
</a>
</g>
</g>
<!-- Node1&#45;&gt;Node34 -->
<g id="edge51" class="edge"><title>Node1&#45;&gt;Node34</title>
<path fill="none" stroke="midnightblue" d="M1408.03,-395.696C1482.82,-385.522 1601.65,-369.359 1674.06,-359.511"/>
<polygon fill="midnightblue" stroke="midnightblue" points="1407.21,-392.274 1397.78,-397.09 1408.16,-399.21 1407.21,-392.274"/>
</g>
<!-- Node2&#45;&gt;Node3 -->
<g id="edge2" class="edge"><title>Node2&#45;&gt;Node3</title>
<path fill="none" stroke="midnightblue" d="M1413.24,-271.66C1401.13,-261.544 1384.92,-247.995 1370.63,-236 1353.71,-221.808 1352.84,-212.882 1332.63,-204 1272.73,-177.684 1085.89,-162.45 991.851,-156.261"/>
<polygon fill="midnightblue" stroke="midnightblue" points="1411.33,-274.626 1421.25,-278.348 1415.82,-269.253 1411.33,-274.626"/>
</g>
<!-- Node2&#45;&gt;Node13 -->
<g id="edge13" class="edge"><title>Node2&#45;&gt;Node13</title>
<path fill="none" stroke="midnightblue" d="M1400.72,-274.485C1372.95,-263.242 1332.22,-246.75 1303.34,-235.056"/>
<polygon fill="midnightblue" stroke="midnightblue" points="1399.73,-277.863 1410.32,-278.372 1402.36,-271.374 1399.73,-277.863"/>
</g>
<!-- Node2&#45;&gt;Node5 -->
<g id="edge18" class="edge"><title>Node2&#45;&gt;Node5</title>
<path fill="none" stroke="midnightblue" d="M1506.23,-275.551C1529.1,-268.156 1551.84,-255.994 1565.63,-236 1578.3,-217.614 1567.45,-149.024 1555.63,-136 1535.6,-113.937 1458.64,-99.3941 1404.69,-91.6766"/>
<polygon fill="midnightblue" stroke="midnightblue" points="1505.05,-272.251 1496.45,-278.438 1507.03,-278.965 1505.05,-272.251"/>
</g>
<!-- Node15 -->
<g id="node15" class="node"><title>Node15</title>
<g id="a_node15"><a xlink:href="../../d7/da4/_roomba_connect_8cpp.xhtml" target="_top" xlink:title="GUI/Gui&#45;RoombaV1.0\l/RoombaConnect.cpp">
<polygon fill="white" stroke="black" points="1436.63,-137 1436.63,-167 1546.63,-167 1546.63,-137 1436.63,-137"/>
<text text-anchor="start" x="1444.63" y="-155" font-family="Helvetica,sans-Serif" font-size="10.00">GUI/Gui&#45;RoombaV1.0</text>
<text text-anchor="middle" x="1491.63" y="-144" font-family="Helvetica,sans-Serif" font-size="10.00">/RoombaConnect.cpp</text>
</a>
</g>
</g>
<!-- Node2&#45;&gt;Node15 -->
<g id="edge19" class="edge"><title>Node2&#45;&gt;Node15</title>
<path fill="none" stroke="midnightblue" d="M1491.87,-275.501C1513.87,-268.073 1536.55,-255.902 1549.63,-236 1557.44,-224.115 1555.49,-216.958 1549.63,-204 1542.66,-188.607 1528.5,-176.011 1515.92,-167.189"/>
<polygon fill="midnightblue" stroke="midnightblue" points="1490.7,-272.199 1482.18,-278.497 1492.76,-278.887 1490.7,-272.199"/>
</g>
<!-- Node16 -->
<g id="node16" class="node"><title>Node16</title>
<g id="a_node16"><a xlink:href="../../d9/d73/jsoncommand_8cpp.xhtml" target="_top" xlink:title="GUI/resources/jsoncommand.cpp">
<polygon fill="white" stroke="black" points="1380.13,-210.5 1380.13,-229.5 1541.13,-229.5 1541.13,-210.5 1380.13,-210.5"/>
<text text-anchor="middle" x="1460.63" y="-217.5" font-family="Helvetica,sans-Serif" font-size="10.00">GUI/resources/jsoncommand.cpp</text>
</a>
</g>
</g>
<!-- Node2&#45;&gt;Node16 -->
<g id="edge20" class="edge"><title>Node2&#45;&gt;Node16</title>
<path fill="none" stroke="midnightblue" d="M1439.45,-269.186C1445.05,-256.452 1452.34,-239.861 1456.74,-229.841"/>
<polygon fill="midnightblue" stroke="midnightblue" points="1436.23,-267.808 1435.42,-278.372 1442.64,-270.624 1436.23,-267.808"/>
</g>
<!-- Node4 -->
<g id="node4" class="node"><title>Node4</title>
<g id="a_node4"><a xlink:href="../../d0/de4/moc__controllingroomba_8cpp.xhtml" target="_top" xlink:title="GUI/bin/debug/debug\l/moc_controllingroomba.cpp">
<polygon fill="white" stroke="black" points="795.125,-69 795.125,-99 934.125,-99 934.125,-69 795.125,-69"/>
<text text-anchor="start" x="803.125" y="-87" font-family="Helvetica,sans-Serif" font-size="10.00">GUI/bin/debug/debug</text>
<text text-anchor="middle" x="864.625" y="-76" font-family="Helvetica,sans-Serif" font-size="10.00">/moc_controllingroomba.cpp</text>
</a>
</g>
</g>
<!-- Node3&#45;&gt;Node4 -->
<g id="edge3" class="edge"><title>Node3&#45;&gt;Node4</title>
<path fill="none" stroke="midnightblue" d="M913.472,-129.776C902.6,-119.81 889.929,-108.196 880.217,-99.2931"/>
<polygon fill="midnightblue" stroke="midnightblue" points="911.265,-132.502 921.002,-136.679 915.996,-127.342 911.265,-132.502"/>
</g>
<!-- Node3&#45;&gt;Node5 -->
<g id="edge4" class="edge"><title>Node3&#45;&gt;Node5</title>
<path fill="none" stroke="midnightblue" d="M1001.83,-136.705C1003.1,-136.464 1004.37,-136.229 1005.63,-136 1107.04,-117.481 1226.21,-100.977 1294.33,-92.039"/>
<polygon fill="midnightblue" stroke="midnightblue" points="1001.07,-133.288 991.921,-138.638 1002.41,-140.158 1001.07,-133.288"/>
</g>
<!-- Node7 -->
<g id="node7" class="node"><title>Node7</title>
<g id="a_node7"><a xlink:href="../../d5/dd2/controllingroomba_8cpp.xhtml" target="_top" xlink:title="GUI/Gui&#45;RoombaV1.0\l/controllingroomba.cpp">
<polygon fill="white" stroke="black" points="905.125,-1 905.125,-31 1020.13,-31 1020.13,-1 905.125,-1"/>
<text text-anchor="start" x="913.125" y="-19" font-family="Helvetica,sans-Serif" font-size="10.00">GUI/Gui&#45;RoombaV1.0</text>
<text text-anchor="middle" x="962.625" y="-8" font-family="Helvetica,sans-Serif" font-size="10.00">/controllingroomba.cpp</text>
</a>
</g>
</g>
<!-- Node3&#45;&gt;Node7 -->
<g id="edge12" class="edge"><title>Node3&#45;&gt;Node7</title>
<path fill="none" stroke="midnightblue" d="M941.374,-126.524C946.788,-98.6193 955.458,-53.9397 959.863,-31.2372"/>
<polygon fill="midnightblue" stroke="midnightblue" points="937.876,-126.176 939.407,-136.66 944.748,-127.509 937.876,-126.176"/>
</g>
<!-- Node6 -->
<g id="node6" class="node"><title>Node6</title>
<g id="a_node6"><a xlink:href="../../df/db0/moc__roomba_8cpp.xhtml" target="_top" xlink:title="GUI/bin/debug/debug\l/moc_roomba.cpp">
<polygon fill="white" stroke="black" points="1551.13,-1 1551.13,-31 1658.13,-31 1658.13,-1 1551.13,-1"/>
<text text-anchor="start" x="1559.13" y="-19" font-family="Helvetica,sans-Serif" font-size="10.00">GUI/bin/debug/debug</text>
<text text-anchor="middle" x="1604.63" y="-8" font-family="Helvetica,sans-Serif" font-size="10.00">/moc_roomba.cpp</text>
</a>
</g>
</g>
<!-- Node5&#45;&gt;Node6 -->
<g id="edge5" class="edge"><title>Node5&#45;&gt;Node6</title>
<path fill="none" stroke="midnightblue" d="M1413.92,-66.3581C1456.17,-55.4246 1510.8,-41.2842 1550.76,-30.9427"/>
<polygon fill="midnightblue" stroke="midnightblue" points="1412.82,-63.0282 1404.02,-68.9223 1414.57,-69.8049 1412.82,-63.0282"/>
</g>
<!-- Node5&#45;&gt;Node7 -->
<g id="edge6" class="edge"><title>Node5&#45;&gt;Node7</title>
<path fill="none" stroke="midnightblue" d="M1284.45,-73.8253C1219.64,-64.4175 1117.47,-48.8175 1029.63,-32 1026.58,-31.4173 1023.46,-30.7982 1020.32,-30.1562"/>
<polygon fill="midnightblue" stroke="midnightblue" points="1284.12,-77.3146 1294.52,-75.2812 1285.12,-70.3866 1284.12,-77.3146"/>
</g>
<!-- Node8 -->
<g id="node8" class="node"><title>Node8</title>
<g id="a_node8"><a xlink:href="../../d1/d10/displaylogs_8cpp.xhtml" target="_top" xlink:title="GUI/Gui&#45;RoombaV1.0\l/displaylogs.cpp">
<polygon fill="white" stroke="black" points="1676.63,-1 1676.63,-31 1786.63,-31 1786.63,-1 1676.63,-1"/>
<text text-anchor="start" x="1684.63" y="-19" font-family="Helvetica,sans-Serif" font-size="10.00">GUI/Gui&#45;RoombaV1.0</text>
<text text-anchor="middle" x="1731.63" y="-8" font-family="Helvetica,sans-Serif" font-size="10.00">/displaylogs.cpp</text>
</a>
</g>
</g>
<!-- Node5&#45;&gt;Node8 -->
<g id="edge7" class="edge"><title>Node5&#45;&gt;Node8</title>
<path fill="none" stroke="midnightblue" d="M1414.79,-73.8255C1479.04,-64.4726 1579.91,-48.962 1666.63,-32 1669.81,-31.3775 1673.07,-30.7118 1676.36,-30.0197"/>
<polygon fill="midnightblue" stroke="midnightblue" points="1414.2,-70.375 1404.8,-75.273 1415.2,-77.3026 1414.2,-70.375"/>
</g>
<!-- Node9 -->
<g id="node9" class="node"><title>Node9</title>
<g id="a_node9"><a xlink:href="../../da/d0b/information_8cpp.xhtml" target="_top" xlink:title="GUI/Gui&#45;RoombaV1.0\l/information.cpp">
<polygon fill="white" stroke="black" points="1038.63,-1 1038.63,-31 1148.63,-31 1148.63,-1 1038.63,-1"/>
<text text-anchor="start" x="1046.63" y="-19" font-family="Helvetica,sans-Serif" font-size="10.00">GUI/Gui&#45;RoombaV1.0</text>
<text text-anchor="middle" x="1093.63" y="-8" font-family="Helvetica,sans-Serif" font-size="10.00">/information.cpp</text>
</a>
</g>
</g>
<!-- Node5&#45;&gt;Node9 -->
<g id="edge8" class="edge"><title>Node5&#45;&gt;Node9</title>
<path fill="none" stroke="midnightblue" d="M1285.11,-66.367C1242.85,-55.4721 1188.23,-41.3902 1148.15,-31.0561"/>
<polygon fill="midnightblue" stroke="midnightblue" points="1284.46,-69.8149 1295.02,-68.9223 1286.21,-63.0366 1284.46,-69.8149"/>
</g>
<!-- Node10 -->
<g id="node10" class="node"><title>Node10</title>
<g id="a_node10"><a xlink:href="../../d8/da8/_gui-_roomba_v1_80_2main_8cpp.xhtml" target="_top" xlink:title="GUI/Gui&#45;RoombaV1.0\l/main.cpp">
<polygon fill="white" stroke="black" points="1166.63,-1 1166.63,-31 1276.63,-31 1276.63,-1 1166.63,-1"/>
<text text-anchor="start" x="1174.63" y="-19" font-family="Helvetica,sans-Serif" font-size="10.00">GUI/Gui&#45;RoombaV1.0</text>
<text text-anchor="middle" x="1221.63" y="-8" font-family="Helvetica,sans-Serif" font-size="10.00">/main.cpp</text>
</a>
</g>
</g>
<!-- Node5&#45;&gt;Node10 -->
<g id="edge9" class="edge"><title>Node5&#45;&gt;Node10</title>
<path fill="none" stroke="midnightblue" d="M1313.16,-64.1968C1292.76,-53.6802 1267.76,-40.7868 1249.04,-31.1352"/>
<polygon fill="midnightblue" stroke="midnightblue" points="1311.67,-67.3692 1322.17,-68.8413 1314.88,-61.1476 1311.67,-67.3692"/>
</g>
<!-- Node11 -->
<g id="node11" class="node"><title>Node11</title>
<g id="a_node11"><a xlink:href="../../de/d67/roomba_8cpp.xhtml" target="_top" xlink:title="GUI/Gui&#45;RoombaV1.0\l/roomba.cpp">
<polygon fill="white" stroke="black" points="1294.63,-1 1294.63,-31 1404.63,-31 1404.63,-1 1294.63,-1"/>
<text text-anchor="start" x="1302.63" y="-19" font-family="Helvetica,sans-Serif" font-size="10.00">GUI/Gui&#45;RoombaV1.0</text>
<text text-anchor="middle" x="1349.63" y="-8" font-family="Helvetica,sans-Serif" font-size="10.00">/roomba.cpp</text>
</a>
</g>
</g>
<!-- Node5&#45;&gt;Node11 -->
<g id="edge10" class="edge"><title>Node5&#45;&gt;Node11</title>
<path fill="none" stroke="midnightblue" d="M1349.63,-58.5322C1349.63,-49.3606 1349.63,-39.2449 1349.63,-31.2931"/>
<polygon fill="midnightblue" stroke="midnightblue" points="1346.13,-58.6789 1349.63,-68.679 1353.13,-58.679 1346.13,-58.6789"/>
</g>
<!-- Node12 -->
<g id="node12" class="node"><title>Node12</title>
<g id="a_node12"><a xlink:href="../../da/d3b/settingsroomba_8cpp.xhtml" target="_top" xlink:title="GUI/Gui&#45;RoombaV1.0\l/settingsroomba.cpp">
<polygon fill="white" stroke="black" points="1422.63,-1 1422.63,-31 1532.63,-31 1532.63,-1 1422.63,-1"/>
<text text-anchor="start" x="1430.63" y="-19" font-family="Helvetica,sans-Serif" font-size="10.00">GUI/Gui&#45;RoombaV1.0</text>
<text text-anchor="middle" x="1477.63" y="-8" font-family="Helvetica,sans-Serif" font-size="10.00">/settingsroomba.cpp</text>
</a>
</g>
</g>
<!-- Node5&#45;&gt;Node12 -->
<g id="edge11" class="edge"><title>Node5&#45;&gt;Node12</title>
<path fill="none" stroke="midnightblue" d="M1386.09,-64.1968C1406.49,-53.6802 1431.49,-40.7868 1450.21,-31.1352"/>
<polygon fill="midnightblue" stroke="midnightblue" points="1384.37,-61.1476 1377.08,-68.8413 1387.58,-67.3692 1384.37,-61.1476"/>
</g>
<!-- Node13&#45;&gt;Node3 -->
<g id="edge14" class="edge"><title>Node13&#45;&gt;Node3</title>
<path fill="none" stroke="midnightblue" d="M1203.4,-206.034C1141.62,-193.752 1049.87,-175.513 991.676,-163.944"/>
<polygon fill="midnightblue" stroke="midnightblue" points="1202.94,-209.51 1213.43,-208.027 1204.3,-202.645 1202.94,-209.51"/>
</g>
<!-- Node13&#45;&gt;Node5 -->
<g id="edge15" class="edge"><title>Node13&#45;&gt;Node5</title>
<path fill="none" stroke="midnightblue" d="M1321.15,-200.116C1335.15,-192.404 1348.6,-181.931 1356.63,-168 1368.97,-146.575 1361.7,-116.739 1355.51,-99.2885"/>
<polygon fill="midnightblue" stroke="midnightblue" points="1319.26,-197.151 1311.92,-204.795 1322.42,-203.394 1319.26,-197.151"/>
</g>
<!-- Node14 -->
<g id="node14" class="node"><title>Node14</title>
<g id="a_node14"><a xlink:href="../../d3/d0e/moc___roomba_connect_8cpp.xhtml" target="_top" xlink:title="GUI/bin/debug/debug\l/moc_RoombaConnect.cpp">
<polygon fill="white" stroke="black" points="1213.63,-137 1213.63,-167 1347.63,-167 1347.63,-137 1213.63,-137"/>
<text text-anchor="start" x="1221.63" y="-155" font-family="Helvetica,sans-Serif" font-size="10.00">GUI/bin/debug/debug</text>
<text text-anchor="middle" x="1280.63" y="-144" font-family="Helvetica,sans-Serif" font-size="10.00">/moc_RoombaConnect.cpp</text>
</a>
</g>
</g>
<!-- Node13&#45;&gt;Node14 -->
<g id="edge16" class="edge"><title>Node13&#45;&gt;Node14</title>
<path fill="none" stroke="midnightblue" d="M1273.02,-194.831C1274.7,-185.581 1276.56,-175.331 1278.03,-167.293"/>
<polygon fill="midnightblue" stroke="midnightblue" points="1269.57,-194.214 1271.23,-204.679 1276.46,-195.466 1269.57,-194.214"/>
</g>
<!-- Node13&#45;&gt;Node15 -->
<g id="edge17" class="edge"><title>Node13&#45;&gt;Node15</title>
<path fill="none" stroke="midnightblue" d="M1326.23,-201.952C1362.84,-191.116 1409.66,-177.259 1444.13,-167.056"/>
<polygon fill="midnightblue" stroke="midnightblue" points="1324.79,-198.728 1316.19,-204.922 1326.77,-205.44 1324.79,-198.728"/>
</g>
<!-- Node17&#45;&gt;Node13 -->
<g id="edge23" class="edge"><title>Node17&#45;&gt;Node13</title>
<path fill="none" stroke="midnightblue" d="M803.612,-348.405C916.913,-346.41 1129.02,-338.08 1195.63,-304 1226.03,-288.441 1249.45,-254.391 1260.89,-235.087"/>
<polygon fill="midnightblue" stroke="midnightblue" points="803.239,-344.911 793.298,-348.574 803.354,-351.91 803.239,-344.911"/>
</g>
<!-- Node18 -->
<g id="node18" class="node"><title>Node18</title>
<g id="a_node18"><a xlink:href="../../d4/d25/sensordata_8h.xhtml" target="_top" xlink:title="GUI/Gui&#45;RoombaV1.0\l/sensordata.h">
<polygon fill="white" stroke="black" points="1076.63,-273 1076.63,-303 1186.63,-303 1186.63,-273 1076.63,-273"/>
<text text-anchor="start" x="1084.63" y="-291" font-family="Helvetica,sans-Serif" font-size="10.00">GUI/Gui&#45;RoombaV1.0</text>
<text text-anchor="middle" x="1131.63" y="-280" font-family="Helvetica,sans-Serif" font-size="10.00">/sensordata.h</text>
</a>
</g>
</g>
<!-- Node17&#45;&gt;Node18 -->
<g id="edge24" class="edge"><title>Node17&#45;&gt;Node18</title>
<path fill="none" stroke="midnightblue" d="M803.144,-339.286C867.052,-330.571 962.631,-317.163 1045.63,-304 1055.65,-302.409 1066.32,-300.624 1076.61,-298.855"/>
<polygon fill="midnightblue" stroke="midnightblue" points="802.603,-335.827 793.166,-340.643 803.547,-342.763 802.603,-335.827"/>
</g>
<!-- Node17&#45;&gt;Node3 -->
<g id="edge28" class="edge"><title>Node17&#45;&gt;Node3</title>
<path fill="none" stroke="midnightblue" d="M657.891,-348.943C493.025,-348.14 101.668,-342.185 56.625,-304 22.2922,-274.894 9.71588,-236.719 40.625,-204 69.5976,-173.331 691.109,-158.048 881.611,-154.072"/>
<polygon fill="midnightblue" stroke="midnightblue" points="657.928,-352.443 667.943,-348.987 657.959,-345.443 657.928,-352.443"/>
</g>
<!-- Node17&#45;&gt;Node5 -->
<g id="edge29" class="edge"><title>Node17&#45;&gt;Node5</title>
<path fill="none" stroke="midnightblue" d="M803.285,-346.26C876.463,-341.992 982.699,-331.179 1012.63,-304 1046.62,-273.126 1009.37,-239.398 1038.63,-204 1102.8,-126.35 1223.7,-99.2739 1294.37,-89.8997"/>
<polygon fill="midnightblue" stroke="midnightblue" points="802.981,-342.772 793.19,-346.82 803.368,-349.761 802.981,-342.772"/>
</g>
<!-- Node20 -->
<g id="node20" class="node"><title>Node20</title>
<g id="a_node20"><a xlink:href="../../da/de6/clsevent_8cpp.xhtml" target="_top" xlink:title="GUI/resources/clsevent.cpp">
<polygon fill="white" stroke="black" points="867.625,-278.5 867.625,-297.5 1003.63,-297.5 1003.63,-278.5 867.625,-278.5"/>
<text text-anchor="middle" x="935.625" y="-285.5" font-family="Helvetica,sans-Serif" font-size="10.00">GUI/resources/clsevent.cpp</text>
</a>
</g>
</g>
<!-- Node17&#45;&gt;Node20 -->
<g id="edge30" class="edge"><title>Node17&#45;&gt;Node20</title>
<path fill="none" stroke="midnightblue" d="M769.641,-337.581C809.474,-325.922 870.407,-308.088 906.308,-297.581"/>
<polygon fill="midnightblue" stroke="midnightblue" points="768.611,-334.235 759.997,-340.403 770.577,-340.953 768.611,-334.235"/>
</g>
<!-- Node21 -->
<g id="node21" class="node"><title>Node21</title>
<g id="a_node21"><a xlink:href="../../db/d70/eventchat_8h.xhtml" target="_top" xlink:title="GUI/resources/events\l/eventchat.h">
<polygon fill="white" stroke="black" points="611.625,-273 611.625,-303 721.625,-303 721.625,-273 611.625,-273"/>
<text text-anchor="start" x="619.625" y="-291" font-family="Helvetica,sans-Serif" font-size="10.00">GUI/resources/events</text>
<text text-anchor="middle" x="666.625" y="-280" font-family="Helvetica,sans-Serif" font-size="10.00">/eventchat.h</text>
</a>
</g>
</g>
<!-- Node17&#45;&gt;Node21 -->
<g id="edge31" class="edge"><title>Node17&#45;&gt;Node21</title>
<path fill="none" stroke="midnightblue" d="M714.11,-333.517C704.106,-324.138 691.442,-312.266 681.709,-303.141"/>
<polygon fill="midnightblue" stroke="midnightblue" points="711.766,-336.117 721.455,-340.403 716.554,-331.011 711.766,-336.117"/>
</g>
<!-- Node24 -->
<g id="node24" class="node"><title>Node24</title>
<g id="a_node24"><a xlink:href="../../d5/d02/eventuserjoin_8h.xhtml" target="_top" xlink:title="GUI/resources/events\l/eventuserjoin.h">
<polygon fill="white" stroke="black" points="739.625,-273 739.625,-303 849.625,-303 849.625,-273 739.625,-273"/>
<text text-anchor="start" x="747.625" y="-291" font-family="Helvetica,sans-Serif" font-size="10.00">GUI/resources/events</text>
<text text-anchor="middle" x="794.625" y="-280" font-family="Helvetica,sans-Serif" font-size="10.00">/eventuserjoin.h</text>
</a>
</g>
</g>
<!-- Node17&#45;&gt;Node24 -->
<g id="edge34" class="edge"><title>Node17&#45;&gt;Node24</title>
<path fill="none" stroke="midnightblue" d="M747.14,-333.517C757.144,-324.138 769.808,-312.266 779.541,-303.141"/>
<polygon fill="midnightblue" stroke="midnightblue" points="744.696,-331.011 739.795,-340.403 749.484,-336.117 744.696,-331.011"/>
</g>
<!-- Node26 -->
<g id="node26" class="node"><title>Node26</title>
<g id="a_node26"><a xlink:href="../../d7/d56/eventuserleave_8h.xhtml" target="_top" xlink:title="GUI/resources/events\l/eventuserleave.h">
<polygon fill="white" stroke="black" points="65.625,-273 65.625,-303 175.625,-303 175.625,-273 65.625,-273"/>
<text text-anchor="start" x="73.625" y="-291" font-family="Helvetica,sans-Serif" font-size="10.00">GUI/resources/events</text>
<text text-anchor="middle" x="120.625" y="-280" font-family="Helvetica,sans-Serif" font-size="10.00">/eventuserleave.h</text>
</a>
</g>
</g>
<!-- Node17&#45;&gt;Node26 -->
<g id="edge37" class="edge"><title>Node17&#45;&gt;Node26</title>
<path fill="none" stroke="midnightblue" d="M657.863,-346.428C552.823,-341.941 352.84,-330.495 184.625,-304 181.694,-303.538 178.698,-303.016 175.681,-302.449"/>
<polygon fill="midnightblue" stroke="midnightblue" points="657.899,-349.933 668.036,-346.853 658.191,-342.939 657.899,-349.933"/>
</g>
<!-- Node28 -->
<g id="node28" class="node"><title>Node28</title>
<g id="a_node28"><a xlink:href="../../db/db0/eventuserchangestatus_8h.xhtml" target="_top" xlink:title="GUI/resources/events\l/eventuserchangestatus.h">
<polygon fill="white" stroke="black" points="193.625,-273 193.625,-303 321.625,-303 321.625,-273 193.625,-273"/>
<text text-anchor="start" x="201.625" y="-291" font-family="Helvetica,sans-Serif" font-size="10.00">GUI/resources/events</text>
<text text-anchor="middle" x="257.625" y="-280" font-family="Helvetica,sans-Serif" font-size="10.00">/eventuserchangestatus.h</text>
</a>
</g>
</g>
<!-- Node17&#45;&gt;Node28 -->
<g id="edge40" class="edge"><title>Node17&#45;&gt;Node28</title>
<path fill="none" stroke="midnightblue" d="M658.018,-342.826C577.668,-335.53 444.469,-322.062 330.625,-304 327.686,-303.534 324.686,-303.03 321.659,-302.5"/>
<polygon fill="midnightblue" stroke="midnightblue" points="657.759,-346.317 668.032,-343.728 658.387,-339.345 657.759,-346.317"/>
</g>
<!-- Node30 -->
<g id="node30" class="node"><title>Node30</title>
<g id="a_node30"><a xlink:href="../../d8/d44/eventuserchangenick_8h.xhtml" target="_top" xlink:title="GUI/resources/events\l/eventuserchangenick.h">
<polygon fill="white" stroke="black" points="340.125,-273 340.125,-303 459.125,-303 459.125,-273 340.125,-273"/>
<text text-anchor="start" x="348.125" y="-291" font-family="Helvetica,sans-Serif" font-size="10.00">GUI/resources/events</text>
<text text-anchor="middle" x="399.625" y="-280" font-family="Helvetica,sans-Serif" font-size="10.00">/eventuserchangenick.h</text>
</a>
</g>
</g>
<!-- Node17&#45;&gt;Node30 -->
<g id="edge43" class="edge"><title>Node17&#45;&gt;Node30</title>
<path fill="none" stroke="midnightblue" d="M666.848,-338.851C613.707,-330.201 536.083,-317.119 468.625,-304 465.617,-303.415 462.538,-302.801 459.431,-302.17"/>
<polygon fill="midnightblue" stroke="midnightblue" points="666.377,-342.32 676.808,-340.467 667.498,-335.41 666.377,-342.32"/>
</g>
<!-- Node32 -->
<g id="node32" class="node"><title>Node32</title>
<g id="a_node32"><a xlink:href="../../da/d66/eventservermessage_8h.xhtml" target="_top" xlink:title="GUI/resources/events\l/eventservermessage.h">
<polygon fill="white" stroke="black" points="477.625,-273 477.625,-303 593.625,-303 593.625,-273 477.625,-273"/>
<text text-anchor="start" x="485.625" y="-291" font-family="Helvetica,sans-Serif" font-size="10.00">GUI/resources/events</text>
<text text-anchor="middle" x="535.625" y="-280" font-family="Helvetica,sans-Serif" font-size="10.00">/eventservermessage.h</text>
</a>
</g>
</g>
<!-- Node17&#45;&gt;Node32 -->
<g id="edge46" class="edge"><title>Node17&#45;&gt;Node32</title>
<path fill="none" stroke="midnightblue" d="M692.847,-337.376C660.938,-327.558 615.148,-313.468 581.207,-303.025"/>
<polygon fill="midnightblue" stroke="midnightblue" points="692.099,-340.808 702.686,-340.403 694.158,-334.117 692.099,-340.808"/>
</g>
<!-- Node18&#45;&gt;Node13 -->
<g id="edge25" class="edge"><title>Node18&#45;&gt;Node13</title>
<path fill="none" stroke="midnightblue" d="M1170.07,-268.48C1192,-257.913 1219.07,-244.874 1239.28,-235.135"/>
<polygon fill="midnightblue" stroke="midnightblue" points="1168.5,-265.348 1161.01,-272.841 1171.54,-271.654 1168.5,-265.348"/>
</g>
<!-- Node18&#45;&gt;Node5 -->
<g id="edge26" class="edge"><title>Node18&#45;&gt;Node5</title>
<path fill="none" stroke="midnightblue" d="M1148.6,-264.751C1154.76,-256.068 1161.47,-245.847 1166.63,-236 1188.68,-193.878 1170.59,-169.198 1204.63,-136 1228.79,-112.43 1264.48,-99.7006 1294.4,-92.8537"/>
<polygon fill="midnightblue" stroke="midnightblue" points="1145.76,-262.707 1142.7,-272.85 1151.42,-266.83 1145.76,-262.707"/>
</g>
<!-- Node19 -->
<g id="node19" class="node"><title>Node19</title>
<g id="a_node19"><a xlink:href="../../d7/d4e/sensordata_8cpp.xhtml" target="_top" xlink:title="GUI/Gui&#45;RoombaV1.0\l/sensordata.cpp">
<polygon fill="white" stroke="black" points="1047.63,-205 1047.63,-235 1157.63,-235 1157.63,-205 1047.63,-205"/>
<text text-anchor="start" x="1055.63" y="-223" font-family="Helvetica,sans-Serif" font-size="10.00">GUI/Gui&#45;RoombaV1.0</text>
<text text-anchor="middle" x="1102.63" y="-212" font-family="Helvetica,sans-Serif" font-size="10.00">/sensordata.cpp</text>
</a>
</g>
</g>
<!-- Node18&#45;&gt;Node19 -->
<g id="edge27" class="edge"><title>Node18&#45;&gt;Node19</title>
<path fill="none" stroke="midnightblue" d="M1121.27,-263.426C1117.13,-254.023 1112.51,-243.504 1108.91,-235.293"/>
<polygon fill="midnightblue" stroke="midnightblue" points="1118.11,-264.932 1125.33,-272.679 1124.51,-262.116 1118.11,-264.932"/>
</g>
<!-- Node22 -->
<g id="node22" class="node"><title>Node22</title>
<g id="a_node22"><a xlink:href="../../db/df5/eventchat_8cpp.xhtml" target="_top" xlink:title="GUI/resources/events\l/eventchat.cpp">
<polygon fill="white" stroke="black" points="753.625,-205 753.625,-235 863.625,-235 863.625,-205 753.625,-205"/>
<text text-anchor="start" x="761.625" y="-223" font-family="Helvetica,sans-Serif" font-size="10.00">GUI/resources/events</text>
<text text-anchor="middle" x="808.625" y="-212" font-family="Helvetica,sans-Serif" font-size="10.00">/eventchat.cpp</text>
</a>
</g>
</g>
<!-- Node21&#45;&gt;Node22 -->
<g id="edge32" class="edge"><title>Node21&#45;&gt;Node22</title>
<path fill="none" stroke="midnightblue" d="M706.166,-268.622C728.956,-258.029 757.167,-244.917 778.213,-235.135"/>
<polygon fill="midnightblue" stroke="midnightblue" points="704.681,-265.452 697.088,-272.841 707.631,-271.8 704.681,-265.452"/>
</g>
<!-- Node23 -->
<g id="node23" class="node"><title>Node23</title>
<g id="a_node23"><a xlink:href="../../db/dd2/events_8h.xhtml" target="_top" xlink:title="GUI/resources/events\l/events.h">
<polygon fill="white" stroke="black" points="481.625,-205 481.625,-235 591.625,-235 591.625,-205 481.625,-205"/>
<text text-anchor="start" x="489.625" y="-223" font-family="Helvetica,sans-Serif" font-size="10.00">GUI/resources/events</text>
<text text-anchor="middle" x="536.625" y="-212" font-family="Helvetica,sans-Serif" font-size="10.00">/events.h</text>
</a>
</g>
</g>
<!-- Node21&#45;&gt;Node23 -->
<g id="edge33" class="edge"><title>Node21&#45;&gt;Node23</title>
<path fill="none" stroke="midnightblue" d="M629.588,-268.197C608.874,-257.68 583.478,-244.787 564.467,-235.135"/>
<polygon fill="midnightblue" stroke="midnightblue" points="628.236,-271.435 638.737,-272.841 631.405,-265.194 628.236,-271.435"/>
</g>
<!-- Node24&#45;&gt;Node23 -->
<g id="edge35" class="edge"><title>Node24&#45;&gt;Node23</title>
<path fill="none" stroke="midnightblue" d="M729.875,-270.436C687.248,-259.532 632.054,-245.412 591.571,-235.056"/>
<polygon fill="midnightblue" stroke="midnightblue" points="729.039,-273.835 739.594,-272.922 730.773,-267.053 729.039,-273.835"/>
</g>
<!-- Node25 -->
<g id="node25" class="node"><title>Node25</title>
<g id="a_node25"><a xlink:href="../../d0/ddb/eventuserjoin_8cpp.xhtml" target="_top" xlink:title="GUI/resources/events\l/eventuserjoin.cpp">
<polygon fill="white" stroke="black" points="881.625,-205 881.625,-235 991.625,-235 991.625,-205 881.625,-205"/>
<text text-anchor="start" x="889.625" y="-223" font-family="Helvetica,sans-Serif" font-size="10.00">GUI/resources/events</text>
<text text-anchor="middle" x="936.625" y="-212" font-family="Helvetica,sans-Serif" font-size="10.00">/eventuserjoin.cpp</text>
</a>
</g>
</g>
<!-- Node24&#45;&gt;Node25 -->
<g id="edge36" class="edge"><title>Node24&#45;&gt;Node25</title>
<path fill="none" stroke="midnightblue" d="M834.166,-268.622C856.956,-258.029 885.167,-244.917 906.213,-235.135"/>
<polygon fill="midnightblue" stroke="midnightblue" points="832.681,-265.452 825.088,-272.841 835.631,-271.8 832.681,-265.452"/>
</g>
<!-- Node26&#45;&gt;Node23 -->
<g id="edge38" class="edge"><title>Node26&#45;&gt;Node23</title>
<path fill="none" stroke="midnightblue" d="M185.831,-271.907C312.941,-249.747 348.265,-257.912 471.625,-236 474.818,-235.433 478.09,-234.81 481.385,-234.151"/>
<polygon fill="midnightblue" stroke="midnightblue" points="184.942,-268.51 175.706,-273.701 186.164,-275.402 184.942,-268.51"/>
</g>
<!-- Node27 -->
<g id="node27" class="node"><title>Node27</title>
<g id="a_node27"><a xlink:href="../../df/d4c/eventuserleave_8cpp.xhtml" target="_top" xlink:title="GUI/resources/events\l/eventuserleave.cpp">
<polygon fill="white" stroke="black" points="49.625,-205 49.625,-235 159.625,-235 159.625,-205 49.625,-205"/>
<text text-anchor="start" x="57.625" y="-223" font-family="Helvetica,sans-Serif" font-size="10.00">GUI/resources/events</text>
<text text-anchor="middle" x="104.625" y="-212" font-family="Helvetica,sans-Serif" font-size="10.00">/eventuserleave.cpp</text>
</a>
</g>
</g>
<!-- Node26&#45;&gt;Node27 -->
<g id="edge39" class="edge"><title>Node26&#45;&gt;Node27</title>
<path fill="none" stroke="midnightblue" d="M114.766,-262.831C112.523,-253.581 110.039,-243.331 108.09,-235.293"/>
<polygon fill="midnightblue" stroke="midnightblue" points="111.396,-263.785 117.153,-272.679 118.199,-262.136 111.396,-263.785"/>
</g>
<!-- Node28&#45;&gt;Node23 -->
<g id="edge41" class="edge"><title>Node28&#45;&gt;Node23</title>
<path fill="none" stroke="midnightblue" d="M327.075,-270.571C374.76,-259.291 437.193,-244.522 481.472,-234.047"/>
<polygon fill="midnightblue" stroke="midnightblue" points="326.061,-267.214 317.135,-272.922 327.672,-274.026 326.061,-267.214"/>
</g>
<!-- Node29 -->
<g id="node29" class="node"><title>Node29</title>
<g id="a_node29"><a xlink:href="../../da/d88/eventuserchangestatus_8cpp.xhtml" target="_top" xlink:title="GUI/resources/events\l/eventuserchangestatus.cpp">
<polygon fill="white" stroke="black" points="177.625,-205 177.625,-235 315.625,-235 315.625,-205 177.625,-205"/>
<text text-anchor="start" x="185.625" y="-223" font-family="Helvetica,sans-Serif" font-size="10.00">GUI/resources/events</text>
<text text-anchor="middle" x="246.625" y="-212" font-family="Helvetica,sans-Serif" font-size="10.00">/eventuserchangestatus.cpp</text>
</a>
</g>
</g>
<!-- Node28&#45;&gt;Node29 -->
<g id="edge42" class="edge"><title>Node28&#45;&gt;Node29</title>
<path fill="none" stroke="midnightblue" d="M253.547,-262.532C252.018,-253.361 250.333,-243.245 249.007,-235.293"/>
<polygon fill="midnightblue" stroke="midnightblue" points="250.142,-263.39 255.238,-272.679 257.046,-262.24 250.142,-263.39"/>
</g>
<!-- Node30&#45;&gt;Node23 -->
<g id="edge44" class="edge"><title>Node30&#45;&gt;Node23</title>
<path fill="none" stroke="midnightblue" d="M438.067,-268.48C460.003,-257.913 487.069,-244.874 507.284,-235.135"/>
<polygon fill="midnightblue" stroke="midnightblue" points="436.505,-265.348 429.015,-272.841 439.543,-271.654 436.505,-265.348"/>
</g>
<!-- Node31 -->
<g id="node31" class="node"><title>Node31</title>
<g id="a_node31"><a xlink:href="../../dd/d4b/eventuserchangenick_8cpp.xhtml" target="_top" xlink:title="GUI/resources/events\l/eventuserchangenick.cpp">
<polygon fill="white" stroke="black" points="334.125,-205 334.125,-235 463.125,-235 463.125,-205 334.125,-205"/>
<text text-anchor="start" x="342.125" y="-223" font-family="Helvetica,sans-Serif" font-size="10.00">GUI/resources/events</text>
<text text-anchor="middle" x="398.625" y="-212" font-family="Helvetica,sans-Serif" font-size="10.00">/eventuserchangenick.cpp</text>
</a>
</g>
</g>
<!-- Node30&#45;&gt;Node31 -->
<g id="edge45" class="edge"><title>Node30&#45;&gt;Node31</title>
<path fill="none" stroke="midnightblue" d="M399.254,-262.532C399.115,-253.361 398.962,-243.245 398.842,-235.293"/>
<polygon fill="midnightblue" stroke="midnightblue" points="395.757,-262.733 399.408,-272.679 402.756,-262.627 395.757,-262.733"/>
</g>
<!-- Node32&#45;&gt;Node23 -->
<g id="edge47" class="edge"><title>Node32&#45;&gt;Node23</title>
<path fill="none" stroke="midnightblue" d="M535.996,-262.532C536.135,-253.361 536.288,-243.245 536.408,-235.293"/>
<polygon fill="midnightblue" stroke="midnightblue" points="532.494,-262.627 535.842,-272.679 539.493,-262.733 532.494,-262.627"/>
</g>
<!-- Node33 -->
<g id="node33" class="node"><title>Node33</title>
<g id="a_node33"><a xlink:href="../../d3/d54/eventservermessage_8cpp.xhtml" target="_top" xlink:title="GUI/resources/events\l/eventservermessage.cpp">
<polygon fill="white" stroke="black" points="609.625,-205 609.625,-235 735.625,-235 735.625,-205 609.625,-205"/>
<text text-anchor="start" x="617.625" y="-223" font-family="Helvetica,sans-Serif" font-size="10.00">GUI/resources/events</text>
<text text-anchor="middle" x="672.625" y="-212" font-family="Helvetica,sans-Serif" font-size="10.00">/eventservermessage.cpp</text>
</a>
</g>
</g>
<!-- Node32&#45;&gt;Node33 -->
<g id="edge48" class="edge"><title>Node32&#45;&gt;Node33</title>
<path fill="none" stroke="midnightblue" d="M574.067,-268.48C596.003,-257.913 623.069,-244.874 643.284,-235.135"/>
<polygon fill="midnightblue" stroke="midnightblue" points="572.505,-265.348 565.015,-272.841 575.543,-271.654 572.505,-265.348"/>
</g>
</g>
</svg>
