<?xml version="1.0" encoding="UTF-8" standalone="no"?>
<!DOCTYPE svg PUBLIC "-//W3C//DTD SVG 1.1//EN"
 "http://www.w3.org/Graphics/SVG/1.1/DTD/svg11.dtd">
<!-- Generated by graphviz version 2.30.1 (20130214.1330)
 -->
<!-- Title: GUI/resources/clslog.h Pages: 1 -->
<svg width="1299pt" height="424pt"
 viewBox="0.00 0.00 1298.61 424.00" xmlns="http://www.w3.org/2000/svg" xmlns:xlink="http://www.w3.org/1999/xlink">
<g id="graph0" class="graph" transform="scale(1 1) rotate(0) translate(4 420)">
<title>GUI/resources/clslog.h</title>
<polygon fill="white" stroke="white" points="-4,5 -4,-420 1295.61,-420 1295.61,5 -4,5"/>
<!-- Node1 -->
<g id="node1" class="node"><title>Node1</title>
<polygon fill="#bfbfbf" stroke="black" points="232,-396.5 232,-415.5 348,-415.5 348,-396.5 232,-396.5"/>
<text text-anchor="middle" x="290" y="-403.5" font-family="Helvetica,sans-Serif" font-size="10.00">GUI/resources/clslog.h</text>
</g>
<!-- Node2 -->
<g id="node2" class="node"><title>Node2</title>
<g id="a_node2"><a xlink:href="../../da/d4b/controllingroomba_8h.xhtml" target="_top" xlink:title="GUI/Gui&#45;RoombaV1.0\l/controllingroomba.h">
<polygon fill="white" stroke="black" points="22,-69 22,-99 132,-99 132,-69 22,-69"/>
<text text-anchor="start" x="30" y="-87" font-family="Helvetica,sans-Serif" font-size="10.00">GUI/Gui&#45;RoombaV1.0</text>
<text text-anchor="middle" x="77" y="-76" font-family="Helvetica,sans-Serif" font-size="10.00">/controllingroomba.h</text>
</a>
</g>
</g>
<!-- Node1&#45;&gt;Node2 -->
<g id="edge1" class="edge"><title>Node1&#45;&gt;Node2</title>
<path fill="none" stroke="midnightblue" d="M221.598,-396.527C159.312,-384.534 77,-356.01 77,-289 77,-289 77,-289 77,-219 77,-175.264 77,-123.498 77,-99.0834"/>
<polygon fill="midnightblue" stroke="midnightblue" points="221.332,-400.035 231.797,-398.379 222.584,-393.148 221.332,-400.035"/>
</g>
<!-- Node5 -->
<g id="node5" class="node"><title>Node5</title>
<g id="a_node5"><a xlink:href="../../d4/dca/_roomba_connect_8h.xhtml" target="_top" xlink:title="GUI/Gui&#45;RoombaV1.0\l/RoombaConnect.h">
<polygon fill="white" stroke="black" points="346,-137 346,-167 456,-167 456,-137 346,-137"/>
<text text-anchor="start" x="354" y="-155" font-family="Helvetica,sans-Serif" font-size="10.00">GUI/Gui&#45;RoombaV1.0</text>
<text text-anchor="middle" x="401" y="-144" font-family="Helvetica,sans-Serif" font-size="10.00">/RoombaConnect.h</text>
</a>
</g>
</g>
<!-- Node1&#45;&gt;Node5 -->
<g id="edge4" class="edge"><title>Node1&#45;&gt;Node5</title>
<path fill="none" stroke="midnightblue" d="M286.419,-386.381C280.207,-348.547 271.431,-261.414 309,-204 320.199,-186.885 339.209,-174.984 357.051,-167.01"/>
<polygon fill="midnightblue" stroke="midnightblue" points="283.013,-387.219 288.21,-396.452 289.905,-385.994 283.013,-387.219"/>
</g>
<!-- Node12 -->
<g id="node12" class="node"><title>Node12</title>
<g id="a_node12"><a xlink:href="../../dc/d96/jsoncommand_8h.xhtml" target="_top" xlink:title="GUI/resources/jsoncommand.h">
<polygon fill="white" stroke="black" points="110.5,-210.5 110.5,-229.5 261.5,-229.5 261.5,-210.5 110.5,-210.5"/>
<text text-anchor="middle" x="186" y="-217.5" font-family="Helvetica,sans-Serif" font-size="10.00">GUI/resources/jsoncommand.h</text>
</a>
</g>
</g>
<!-- Node1&#45;&gt;Node12 -->
<g id="edge13" class="edge"><title>Node1&#45;&gt;Node12</title>
<path fill="none" stroke="midnightblue" d="M279.863,-387.065C257.993,-348.372 207.058,-258.257 190.966,-229.786"/>
<polygon fill="midnightblue" stroke="midnightblue" points="277.016,-389.142 284.984,-396.125 283.11,-385.697 277.016,-389.142"/>
</g>
<!-- Node14 -->
<g id="node14" class="node"><title>Node14</title>
<g id="a_node14"><a xlink:href="../../db/d97/clsevent_8h.xhtml" target="_top" xlink:title="GUI/resources/clsevent.h">
<polygon fill="white" stroke="black" points="634.5,-340.5 634.5,-359.5 759.5,-359.5 759.5,-340.5 634.5,-340.5"/>
<text text-anchor="middle" x="697" y="-347.5" font-family="Helvetica,sans-Serif" font-size="10.00">GUI/resources/clsevent.h</text>
</a>
</g>
</g>
<!-- Node1&#45;&gt;Node14 -->
<g id="edge17" class="edge"><title>Node1&#45;&gt;Node14</title>
<path fill="none" stroke="midnightblue" d="M358.406,-395.924C435.518,-385.693 559.834,-369.199 634.453,-359.299"/>
<polygon fill="midnightblue" stroke="midnightblue" points="357.766,-392.478 348.313,-397.263 358.687,-399.417 357.766,-392.478"/>
</g>
<!-- Node29 -->
<g id="node29" class="node"><title>Node29</title>
<g id="a_node29"><a xlink:href="../../d5/d28/clslog_8cpp.xhtml" target="_top" xlink:title="GUI/resources/clslog.cpp">
<polygon fill="white" stroke="black" points="778,-340.5 778,-359.5 904,-359.5 904,-340.5 778,-340.5"/>
<text text-anchor="middle" x="841" y="-347.5" font-family="Helvetica,sans-Serif" font-size="10.00">GUI/resources/clslog.cpp</text>
</a>
</g>
</g>
<!-- Node1&#45;&gt;Node29 -->
<g id="edge39" class="edge"><title>Node1&#45;&gt;Node29</title>
<path fill="none" stroke="midnightblue" d="M358.286,-399.194C451.102,-391.161 622.236,-375.843 768,-360 771.174,-359.655 774.424,-359.292 777.705,-358.917"/>
<polygon fill="midnightblue" stroke="midnightblue" points="357.845,-395.719 348.183,-400.067 358.448,-402.693 357.845,-395.719"/>
</g>
<!-- Node3 -->
<g id="node3" class="node"><title>Node3</title>
<g id="a_node3"><a xlink:href="../../d5/dd2/controllingroomba_8cpp.xhtml" target="_top" xlink:title="GUI/Gui&#45;RoombaV1.0\l/controllingroomba.cpp">
<polygon fill="white" stroke="black" points="-0.5,-1 -0.5,-31 114.5,-31 114.5,-1 -0.5,-1"/>
<text text-anchor="start" x="7.5" y="-19" font-family="Helvetica,sans-Serif" font-size="10.00">GUI/Gui&#45;RoombaV1.0</text>
<text text-anchor="middle" x="57" y="-8" font-family="Helvetica,sans-Serif" font-size="10.00">/controllingroomba.cpp</text>
</a>
</g>
</g>
<!-- Node2&#45;&gt;Node3 -->
<g id="edge2" class="edge"><title>Node2&#45;&gt;Node3</title>
<path fill="none" stroke="midnightblue" d="M69.676,-58.8309C66.873,-49.5807 63.7671,-39.3313 61.3312,-31.2931"/>
<polygon fill="midnightblue" stroke="midnightblue" points="66.4106,-60.1238 72.6603,-68.679 73.1097,-58.0937 66.4106,-60.1238"/>
</g>
<!-- Node4 -->
<g id="node4" class="node"><title>Node4</title>
<g id="a_node4"><a xlink:href="../../de/d67/roomba_8cpp.xhtml" target="_top" xlink:title="GUI/Gui&#45;RoombaV1.0\l/roomba.cpp">
<polygon fill="white" stroke="black" points="133,-1 133,-31 243,-31 243,-1 133,-1"/>
<text text-anchor="start" x="141" y="-19" font-family="Helvetica,sans-Serif" font-size="10.00">GUI/Gui&#45;RoombaV1.0</text>
<text text-anchor="middle" x="188" y="-8" font-family="Helvetica,sans-Serif" font-size="10.00">/roomba.cpp</text>
</a>
</g>
</g>
<!-- Node2&#45;&gt;Node4 -->
<g id="edge3" class="edge"><title>Node2&#45;&gt;Node4</title>
<path fill="none" stroke="midnightblue" d="M109.583,-63.6261C127.09,-53.2166 148.287,-40.6129 164.227,-31.1352"/>
<polygon fill="midnightblue" stroke="midnightblue" points="107.619,-60.7222 100.812,-68.8413 111.196,-66.7389 107.619,-60.7222"/>
</g>
<!-- Node6 -->
<g id="node6" class="node"><title>Node6</title>
<g id="a_node6"><a xlink:href="../../dd/da1/roomba_8h.xhtml" target="_top" xlink:title="GUI/Gui&#45;RoombaV1.0\l/roomba.h">
<polygon fill="white" stroke="black" points="368,-69 368,-99 478,-99 478,-69 368,-69"/>
<text text-anchor="start" x="376" y="-87" font-family="Helvetica,sans-Serif" font-size="10.00">GUI/Gui&#45;RoombaV1.0</text>
<text text-anchor="middle" x="423" y="-76" font-family="Helvetica,sans-Serif" font-size="10.00">/roomba.h</text>
</a>
</g>
</g>
<!-- Node5&#45;&gt;Node6 -->
<g id="edge5" class="edge"><title>Node5&#45;&gt;Node6</title>
<path fill="none" stroke="midnightblue" d="M408.957,-127.129C412.066,-117.801 415.527,-107.418 418.236,-99.2931"/>
<polygon fill="midnightblue" stroke="midnightblue" points="405.616,-126.085 405.774,-136.679 412.256,-128.299 405.616,-126.085"/>
</g>
<!-- Node11 -->
<g id="node11" class="node"><title>Node11</title>
<g id="a_node11"><a xlink:href="../../d7/da4/_roomba_connect_8cpp.xhtml" target="_top" xlink:title="GUI/Gui&#45;RoombaV1.0\l/RoombaConnect.cpp">
<polygon fill="white" stroke="black" points="240,-69 240,-99 350,-99 350,-69 240,-69"/>
<text text-anchor="start" x="248" y="-87" font-family="Helvetica,sans-Serif" font-size="10.00">GUI/Gui&#45;RoombaV1.0</text>
<text text-anchor="middle" x="295" y="-76" font-family="Helvetica,sans-Serif" font-size="10.00">/RoombaConnect.cpp</text>
</a>
</g>
</g>
<!-- Node5&#45;&gt;Node11 -->
<g id="edge12" class="edge"><title>Node5&#45;&gt;Node11</title>
<path fill="none" stroke="midnightblue" d="M369.423,-131.339C352.795,-120.986 332.784,-108.526 317.702,-99.1352"/>
<polygon fill="midnightblue" stroke="midnightblue" points="367.921,-134.527 378.26,-136.841 371.621,-128.585 367.921,-134.527"/>
</g>
<!-- Node6&#45;&gt;Node3 -->
<g id="edge6" class="edge"><title>Node6&#45;&gt;Node3</title>
<path fill="none" stroke="midnightblue" d="M357.901,-67.8802C253.531,-48.1272 224.694,-50.9616 124,-32 120.954,-31.4265 117.836,-30.8147 114.692,-30.1784"/>
<polygon fill="midnightblue" stroke="midnightblue" points="357.421,-71.3519 367.901,-69.7976 358.739,-64.4771 357.421,-71.3519"/>
</g>
<!-- Node7 -->
<g id="node7" class="node"><title>Node7</title>
<g id="a_node7"><a xlink:href="../../d1/d10/displaylogs_8cpp.xhtml" target="_top" xlink:title="GUI/Gui&#45;RoombaV1.0\l/displaylogs.cpp">
<polygon fill="white" stroke="black" points="517,-1 517,-31 627,-31 627,-1 517,-1"/>
<text text-anchor="start" x="525" y="-19" font-family="Helvetica,sans-Serif" font-size="10.00">GUI/Gui&#45;RoombaV1.0</text>
<text text-anchor="middle" x="572" y="-8" font-family="Helvetica,sans-Serif" font-size="10.00">/displaylogs.cpp</text>
</a>
</g>
</g>
<!-- Node6&#45;&gt;Node7 -->
<g id="edge7" class="edge"><title>Node6&#45;&gt;Node7</title>
<path fill="none" stroke="midnightblue" d="M464.204,-64.7485C488.26,-54.093 518.146,-40.8547 540.345,-31.0218"/>
<polygon fill="midnightblue" stroke="midnightblue" points="462.69,-61.5912 454.964,-68.8413 465.525,-67.9914 462.69,-61.5912"/>
</g>
<!-- Node8 -->
<g id="node8" class="node"><title>Node8</title>
<g id="a_node8"><a xlink:href="../../da/d0b/information_8cpp.xhtml" target="_top" xlink:title="GUI/Gui&#45;RoombaV1.0\l/information.cpp">
<polygon fill="white" stroke="black" points="645,-1 645,-31 755,-31 755,-1 645,-1"/>
<text text-anchor="start" x="653" y="-19" font-family="Helvetica,sans-Serif" font-size="10.00">GUI/Gui&#45;RoombaV1.0</text>
<text text-anchor="middle" x="700" y="-8" font-family="Helvetica,sans-Serif" font-size="10.00">/information.cpp</text>
</a>
</g>
</g>
<!-- Node6&#45;&gt;Node8 -->
<g id="edge8" class="edge"><title>Node6&#45;&gt;Node8</title>
<path fill="none" stroke="midnightblue" d="M487.948,-67.5249C535.519,-56.1904 599.397,-40.9704 644.573,-30.2064"/>
<polygon fill="midnightblue" stroke="midnightblue" points="486.974,-64.1591 478.057,-69.8816 488.596,-70.9684 486.974,-64.1591"/>
</g>
<!-- Node9 -->
<g id="node9" class="node"><title>Node9</title>
<g id="a_node9"><a xlink:href="../../df/d0a/main_8cpp.xhtml" target="_top" xlink:title="GUI/Gui&#45;RoombaV1.0\l/main.cpp">
<polygon fill="white" stroke="black" points="261,-1 261,-31 371,-31 371,-1 261,-1"/>
<text text-anchor="start" x="269" y="-19" font-family="Helvetica,sans-Serif" font-size="10.00">GUI/Gui&#45;RoombaV1.0</text>
<text text-anchor="middle" x="316" y="-8" font-family="Helvetica,sans-Serif" font-size="10.00">/main.cpp</text>
</a>
</g>
</g>
<!-- Node6&#45;&gt;Node9 -->
<g id="edge9" class="edge"><title>Node6&#45;&gt;Node9</title>
<path fill="none" stroke="midnightblue" d="M391.125,-63.339C374.34,-52.9856 354.141,-40.526 338.916,-31.1352"/>
<polygon fill="midnightblue" stroke="midnightblue" points="389.697,-66.5703 400.046,-68.8413 393.372,-60.6126 389.697,-66.5703"/>
</g>
<!-- Node6&#45;&gt;Node4 -->
<g id="edge10" class="edge"><title>Node6&#45;&gt;Node4</title>
<path fill="none" stroke="midnightblue" d="M362.792,-66.0905C324.139,-55.2347 274.533,-41.303 238.048,-31.0561"/>
<polygon fill="midnightblue" stroke="midnightblue" points="362.301,-69.588 372.875,-68.9223 364.194,-62.8487 362.301,-69.588"/>
</g>
<!-- Node10 -->
<g id="node10" class="node"><title>Node10</title>
<g id="a_node10"><a xlink:href="../../da/d3b/settingsroomba_8cpp.xhtml" target="_top" xlink:title="GUI/Gui&#45;RoombaV1.0\l/settingsroomba.cpp">
<polygon fill="white" stroke="black" points="389,-1 389,-31 499,-31 499,-1 389,-1"/>
<text text-anchor="start" x="397" y="-19" font-family="Helvetica,sans-Serif" font-size="10.00">GUI/Gui&#45;RoombaV1.0</text>
<text text-anchor="middle" x="444" y="-8" font-family="Helvetica,sans-Serif" font-size="10.00">/settingsroomba.cpp</text>
</a>
</g>
</g>
<!-- Node6&#45;&gt;Node10 -->
<g id="edge11" class="edge"><title>Node6&#45;&gt;Node10</title>
<path fill="none" stroke="midnightblue" d="M430.595,-59.129C433.563,-49.8014 436.867,-39.4177 439.452,-31.2931"/>
<polygon fill="midnightblue" stroke="midnightblue" points="427.254,-58.0885 427.557,-68.679 433.924,-60.211 427.254,-58.0885"/>
</g>
<!-- Node12&#45;&gt;Node5 -->
<g id="edge14" class="edge"><title>Node12&#45;&gt;Node5</title>
<path fill="none" stroke="midnightblue" d="M223.912,-207.362C260.555,-196.113 316.116,-179.057 355.211,-167.056"/>
<polygon fill="midnightblue" stroke="midnightblue" points="222.64,-204.091 214.107,-210.372 224.694,-210.783 222.64,-204.091"/>
</g>
<!-- Node12&#45;&gt;Node11 -->
<g id="edge15" class="edge"><title>Node12&#45;&gt;Node11</title>
<path fill="none" stroke="midnightblue" d="M221.872,-206.461C240.344,-198.251 261.716,-185.713 275,-168 290.384,-147.485 294.109,-116.793 294.908,-99.0475"/>
<polygon fill="midnightblue" stroke="midnightblue" points="220.411,-203.278 212.535,-210.365 223.111,-209.737 220.411,-203.278"/>
</g>
<!-- Node13 -->
<g id="node13" class="node"><title>Node13</title>
<g id="a_node13"><a xlink:href="../../d9/d73/jsoncommand_8cpp.xhtml" target="_top" xlink:title="GUI/resources/jsoncommand.cpp">
<polygon fill="white" stroke="black" points="105.5,-142.5 105.5,-161.5 266.5,-161.5 266.5,-142.5 105.5,-142.5"/>
<text text-anchor="middle" x="186" y="-149.5" font-family="Helvetica,sans-Serif" font-size="10.00">GUI/resources/jsoncommand.cpp</text>
</a>
</g>
</g>
<!-- Node12&#45;&gt;Node13 -->
<g id="edge16" class="edge"><title>Node12&#45;&gt;Node13</title>
<path fill="none" stroke="midnightblue" d="M186,-200.041C186,-187.472 186,-171.563 186,-161.841"/>
<polygon fill="midnightblue" stroke="midnightblue" points="182.5,-200.372 186,-210.372 189.5,-200.372 182.5,-200.372"/>
</g>
<!-- Node14&#45;&gt;Node5 -->
<g id="edge18" class="edge"><title>Node14&#45;&gt;Node5</title>
<path fill="none" stroke="midnightblue" d="M769.897,-340.21C857.883,-335.236 1227.86,-341.648 1265,-304 1296.24,-272.333 1299.52,-236.361 1269,-204 1241.05,-174.364 643.013,-158.444 456.228,-154.182"/>
<polygon fill="midnightblue" stroke="midnightblue" points="769.523,-336.728 759.807,-340.954 770.037,-343.709 769.523,-336.728"/>
</g>
<!-- Node15 -->
<g id="node15" class="node"><title>Node15</title>
<g id="a_node15"><a xlink:href="../../db/d70/eventchat_8h.xhtml" target="_top" xlink:title="GUI/resources/events\l/eventchat.h">
<polygon fill="white" stroke="black" points="318,-273 318,-303 428,-303 428,-273 318,-273"/>
<text text-anchor="start" x="326" y="-291" font-family="Helvetica,sans-Serif" font-size="10.00">GUI/resources/events</text>
<text text-anchor="middle" x="373" y="-280" font-family="Helvetica,sans-Serif" font-size="10.00">/eventchat.h</text>
</a>
</g>
</g>
<!-- Node14&#45;&gt;Node15 -->
<g id="edge19" class="edge"><title>Node14&#45;&gt;Node15</title>
<path fill="none" stroke="midnightblue" d="M632.404,-338.904C579.675,-330.403 503.315,-317.498 437,-304 434.092,-303.408 431.115,-302.782 428.113,-302.134"/>
<polygon fill="midnightblue" stroke="midnightblue" points="631.867,-342.363 642.295,-340.492 632.976,-335.451 631.867,-342.363"/>
</g>
<!-- Node18 -->
<g id="node18" class="node"><title>Node18</title>
<g id="a_node18"><a xlink:href="../../d5/d02/eventuserjoin_8h.xhtml" target="_top" xlink:title="GUI/resources/events\l/eventuserjoin.h">
<polygon fill="white" stroke="black" points="446,-273 446,-303 556,-303 556,-273 446,-273"/>
<text text-anchor="start" x="454" y="-291" font-family="Helvetica,sans-Serif" font-size="10.00">GUI/resources/events</text>
<text text-anchor="middle" x="501" y="-280" font-family="Helvetica,sans-Serif" font-size="10.00">/eventuserjoin.h</text>
</a>
</g>
</g>
<!-- Node14&#45;&gt;Node18 -->
<g id="edge23" class="edge"><title>Node14&#45;&gt;Node18</title>
<path fill="none" stroke="midnightblue" d="M659.028,-337.376C626.955,-327.558 580.93,-313.468 546.816,-303.025"/>
<polygon fill="midnightblue" stroke="midnightblue" points="658.331,-340.823 668.918,-340.403 660.38,-334.13 658.331,-340.823"/>
</g>
<!-- Node20 -->
<g id="node20" class="node"><title>Node20</title>
<g id="a_node20"><a xlink:href="../../d7/d56/eventuserleave_8h.xhtml" target="_top" xlink:title="GUI/resources/events\l/eventuserleave.h">
<polygon fill="white" stroke="black" points="574,-273 574,-303 684,-303 684,-273 574,-273"/>
<text text-anchor="start" x="582" y="-291" font-family="Helvetica,sans-Serif" font-size="10.00">GUI/resources/events</text>
<text text-anchor="middle" x="629" y="-280" font-family="Helvetica,sans-Serif" font-size="10.00">/eventuserleave.h</text>
</a>
</g>
</g>
<!-- Node14&#45;&gt;Node20 -->
<g id="edge26" class="edge"><title>Node14&#45;&gt;Node20</title>
<path fill="none" stroke="midnightblue" d="M679.453,-333.517C668.824,-324.138 655.368,-312.266 645.026,-303.141"/>
<polygon fill="midnightblue" stroke="midnightblue" points="677.443,-336.412 687.257,-340.403 682.075,-331.163 677.443,-336.412"/>
</g>
<!-- Node22 -->
<g id="node22" class="node"><title>Node22</title>
<g id="a_node22"><a xlink:href="../../db/db0/eventuserchangestatus_8h.xhtml" target="_top" xlink:title="GUI/resources/events\l/eventuserchangestatus.h">
<polygon fill="white" stroke="black" points="702,-273 702,-303 830,-303 830,-273 702,-273"/>
<text text-anchor="start" x="710" y="-291" font-family="Helvetica,sans-Serif" font-size="10.00">GUI/resources/events</text>
<text text-anchor="middle" x="766" y="-280" font-family="Helvetica,sans-Serif" font-size="10.00">/eventuserchangestatus.h</text>
</a>
</g>
</g>
<!-- Node14&#45;&gt;Node22 -->
<g id="edge29" class="edge"><title>Node14&#45;&gt;Node22</title>
<path fill="none" stroke="midnightblue" d="M714.486,-333.795C725.32,-324.374 739.14,-312.356 749.738,-303.141"/>
<polygon fill="midnightblue" stroke="midnightblue" points="712.135,-331.201 706.886,-340.403 716.729,-336.483 712.135,-331.201"/>
</g>
<!-- Node24 -->
<g id="node24" class="node"><title>Node24</title>
<g id="a_node24"><a xlink:href="../../d8/d44/eventuserchangenick_8h.xhtml" target="_top" xlink:title="GUI/resources/events\l/eventuserchangenick.h">
<polygon fill="white" stroke="black" points="848.5,-273 848.5,-303 967.5,-303 967.5,-273 848.5,-273"/>
<text text-anchor="start" x="856.5" y="-291" font-family="Helvetica,sans-Serif" font-size="10.00">GUI/resources/events</text>
<text text-anchor="middle" x="908" y="-280" font-family="Helvetica,sans-Serif" font-size="10.00">/eventuserchangenick.h</text>
</a>
</g>
</g>
<!-- Node14&#45;&gt;Node24 -->
<g id="edge32" class="edge"><title>Node14&#45;&gt;Node24</title>
<path fill="none" stroke="midnightblue" d="M736.985,-337.63C771.546,-327.802 821.635,-313.559 858.678,-303.025"/>
<polygon fill="midnightblue" stroke="midnightblue" points="735.892,-334.302 727.231,-340.403 737.807,-341.035 735.892,-334.302"/>
</g>
<!-- Node26 -->
<g id="node26" class="node"><title>Node26</title>
<g id="a_node26"><a xlink:href="../../da/d66/eventservermessage_8h.xhtml" target="_top" xlink:title="GUI/resources/events\l/eventservermessage.h">
<polygon fill="white" stroke="black" points="986,-273 986,-303 1102,-303 1102,-273 986,-273"/>
<text text-anchor="start" x="994" y="-291" font-family="Helvetica,sans-Serif" font-size="10.00">GUI/resources/events</text>
<text text-anchor="middle" x="1044" y="-280" font-family="Helvetica,sans-Serif" font-size="10.00">/eventservermessage.h</text>
</a>
</g>
</g>
<!-- Node14&#45;&gt;Node26 -->
<g id="edge35" class="edge"><title>Node14&#45;&gt;Node26</title>
<path fill="none" stroke="midnightblue" d="M765.863,-339.015C822.448,-330.541 904.621,-317.618 976,-304 979.206,-303.388 982.493,-302.739 985.807,-302.066"/>
<polygon fill="midnightblue" stroke="midnightblue" points="765.33,-335.555 755.956,-340.492 766.362,-342.479 765.33,-335.555"/>
</g>
<!-- Node28 -->
<g id="node28" class="node"><title>Node28</title>
<g id="a_node28"><a xlink:href="../../da/de6/clsevent_8cpp.xhtml" target="_top" xlink:title="GUI/resources/clsevent.cpp">
<polygon fill="white" stroke="black" points="1120,-278.5 1120,-297.5 1256,-297.5 1256,-278.5 1120,-278.5"/>
<text text-anchor="middle" x="1188" y="-285.5" font-family="Helvetica,sans-Serif" font-size="10.00">GUI/resources/clsevent.cpp</text>
</a>
</g>
</g>
<!-- Node14&#45;&gt;Node28 -->
<g id="edge38" class="edge"><title>Node14&#45;&gt;Node28</title>
<path fill="none" stroke="midnightblue" d="M770.031,-339.909C922.565,-322.685 963.093,-326.148 1111,-304 1122.99,-302.205 1135.95,-299.845 1147.75,-297.53"/>
<polygon fill="midnightblue" stroke="midnightblue" points="769.359,-336.463 759.82,-341.074 770.152,-343.418 769.359,-336.463"/>
</g>
<!-- Node16 -->
<g id="node16" class="node"><title>Node16</title>
<g id="a_node16"><a xlink:href="../../db/dd2/events_8h.xhtml" target="_top" xlink:title="GUI/resources/events\l/events.h">
<polygon fill="white" stroke="black" points="702,-205 702,-235 812,-235 812,-205 702,-205"/>
<text text-anchor="start" x="710" y="-223" font-family="Helvetica,sans-Serif" font-size="10.00">GUI/resources/events</text>
<text text-anchor="middle" x="757" y="-212" font-family="Helvetica,sans-Serif" font-size="10.00">/events.h</text>
</a>
</g>
</g>
<!-- Node15&#45;&gt;Node16 -->
<g id="edge20" class="edge"><title>Node15&#45;&gt;Node16</title>
<path fill="none" stroke="midnightblue" d="M438.226,-271.879C551.71,-251.202 583.261,-256.532 693,-236 695.917,-235.454 698.901,-234.865 701.909,-234.246"/>
<polygon fill="midnightblue" stroke="midnightblue" points="437.287,-268.493 428.091,-273.754 438.561,-275.376 437.287,-268.493"/>
</g>
<!-- Node17 -->
<g id="node17" class="node"><title>Node17</title>
<g id="a_node17"><a xlink:href="../../db/df5/eventchat_8cpp.xhtml" target="_top" xlink:title="GUI/resources/events\l/eventchat.cpp">
<polygon fill="white" stroke="black" points="318,-205 318,-235 428,-235 428,-205 318,-205"/>
<text text-anchor="start" x="326" y="-223" font-family="Helvetica,sans-Serif" font-size="10.00">GUI/resources/events</text>
<text text-anchor="middle" x="373" y="-212" font-family="Helvetica,sans-Serif" font-size="10.00">/eventchat.cpp</text>
</a>
</g>
</g>
<!-- Node15&#45;&gt;Node17 -->
<g id="edge22" class="edge"><title>Node15&#45;&gt;Node17</title>
<path fill="none" stroke="midnightblue" d="M373,-262.532C373,-253.361 373,-243.245 373,-235.293"/>
<polygon fill="midnightblue" stroke="midnightblue" points="369.5,-262.679 373,-272.679 376.5,-262.679 369.5,-262.679"/>
</g>
<!-- Node16&#45;&gt;Node5 -->
<g id="edge21" class="edge"><title>Node16&#45;&gt;Node5</title>
<path fill="none" stroke="midnightblue" d="M691.997,-203.858C603.933,-186.053 512.782,-170.78 456.071,-161.653"/>
<polygon fill="midnightblue" stroke="midnightblue" points="691.389,-207.306 701.886,-205.871 692.785,-200.447 691.389,-207.306"/>
</g>
<!-- Node18&#45;&gt;Node16 -->
<g id="edge24" class="edge"><title>Node18&#45;&gt;Node16</title>
<path fill="none" stroke="midnightblue" d="M565.516,-270.367C607.775,-259.472 662.396,-245.39 702.479,-235.056"/>
<polygon fill="midnightblue" stroke="midnightblue" points="564.414,-267.037 555.604,-272.922 566.162,-273.815 564.414,-267.037"/>
</g>
<!-- Node19 -->
<g id="node19" class="node"><title>Node19</title>
<g id="a_node19"><a xlink:href="../../d0/ddb/eventuserjoin_8cpp.xhtml" target="_top" xlink:title="GUI/resources/events\l/eventuserjoin.cpp">
<polygon fill="white" stroke="black" points="446,-205 446,-235 556,-235 556,-205 446,-205"/>
<text text-anchor="start" x="454" y="-223" font-family="Helvetica,sans-Serif" font-size="10.00">GUI/resources/events</text>
<text text-anchor="middle" x="501" y="-212" font-family="Helvetica,sans-Serif" font-size="10.00">/eventuserjoin.cpp</text>
</a>
</g>
</g>
<!-- Node18&#45;&gt;Node19 -->
<g id="edge25" class="edge"><title>Node18&#45;&gt;Node19</title>
<path fill="none" stroke="midnightblue" d="M501,-262.532C501,-253.361 501,-243.245 501,-235.293"/>
<polygon fill="midnightblue" stroke="midnightblue" points="497.5,-262.679 501,-272.679 504.5,-262.679 497.5,-262.679"/>
</g>
<!-- Node20&#45;&gt;Node16 -->
<g id="edge27" class="edge"><title>Node20&#45;&gt;Node16</title>
<path fill="none" stroke="midnightblue" d="M665.467,-268.197C685.863,-257.68 710.868,-244.787 729.586,-235.135"/>
<polygon fill="midnightblue" stroke="midnightblue" points="663.743,-265.148 656.459,-272.841 666.951,-271.369 663.743,-265.148"/>
</g>
<!-- Node21 -->
<g id="node21" class="node"><title>Node21</title>
<g id="a_node21"><a xlink:href="../../df/d4c/eventuserleave_8cpp.xhtml" target="_top" xlink:title="GUI/resources/events\l/eventuserleave.cpp">
<polygon fill="white" stroke="black" points="574,-205 574,-235 684,-235 684,-205 574,-205"/>
<text text-anchor="start" x="582" y="-223" font-family="Helvetica,sans-Serif" font-size="10.00">GUI/resources/events</text>
<text text-anchor="middle" x="629" y="-212" font-family="Helvetica,sans-Serif" font-size="10.00">/eventuserleave.cpp</text>
</a>
</g>
</g>
<!-- Node20&#45;&gt;Node21 -->
<g id="edge28" class="edge"><title>Node20&#45;&gt;Node21</title>
<path fill="none" stroke="midnightblue" d="M629,-262.532C629,-253.361 629,-243.245 629,-235.293"/>
<polygon fill="midnightblue" stroke="midnightblue" points="625.5,-262.679 629,-272.679 632.5,-262.679 625.5,-262.679"/>
</g>
<!-- Node22&#45;&gt;Node16 -->
<g id="edge30" class="edge"><title>Node22&#45;&gt;Node16</title>
<path fill="none" stroke="midnightblue" d="M762.663,-262.532C761.413,-253.361 760.033,-243.245 758.949,-235.293"/>
<polygon fill="midnightblue" stroke="midnightblue" points="759.228,-263.244 764.047,-272.679 766.164,-262.298 759.228,-263.244"/>
</g>
<!-- Node23 -->
<g id="node23" class="node"><title>Node23</title>
<g id="a_node23"><a xlink:href="../../da/d88/eventuserchangestatus_8cpp.xhtml" target="_top" xlink:title="GUI/resources/events\l/eventuserchangestatus.cpp">
<polygon fill="white" stroke="black" points="830,-205 830,-235 968,-235 968,-205 830,-205"/>
<text text-anchor="start" x="838" y="-223" font-family="Helvetica,sans-Serif" font-size="10.00">GUI/resources/events</text>
<text text-anchor="middle" x="899" y="-212" font-family="Helvetica,sans-Serif" font-size="10.00">/eventuserchangestatus.cpp</text>
</a>
</g>
</g>
<!-- Node22&#45;&gt;Node23 -->
<g id="edge31" class="edge"><title>Node22&#45;&gt;Node23</title>
<path fill="none" stroke="midnightblue" d="M803.605,-268.339C824.85,-257.796 850.978,-244.83 870.515,-235.135"/>
<polygon fill="midnightblue" stroke="midnightblue" points="801.934,-265.261 794.532,-272.841 805.045,-271.531 801.934,-265.261"/>
</g>
<!-- Node24&#45;&gt;Node16 -->
<g id="edge33" class="edge"><title>Node24&#45;&gt;Node16</title>
<path fill="none" stroke="midnightblue" d="M866.243,-268.749C841.864,-258.093 811.577,-244.855 789.08,-235.022"/>
<polygon fill="midnightblue" stroke="midnightblue" points="865.042,-272.043 875.607,-272.841 867.846,-265.629 865.042,-272.043"/>
</g>
<!-- Node25 -->
<g id="node25" class="node"><title>Node25</title>
<g id="a_node25"><a xlink:href="../../dd/d4b/eventuserchangenick_8cpp.xhtml" target="_top" xlink:title="GUI/resources/events\l/eventuserchangenick.cpp">
<polygon fill="white" stroke="black" points="986.5,-205 986.5,-235 1115.5,-235 1115.5,-205 986.5,-205"/>
<text text-anchor="start" x="994.5" y="-223" font-family="Helvetica,sans-Serif" font-size="10.00">GUI/resources/events</text>
<text text-anchor="middle" x="1051" y="-212" font-family="Helvetica,sans-Serif" font-size="10.00">/eventuserchangenick.cpp</text>
</a>
</g>
</g>
<!-- Node24&#45;&gt;Node25 -->
<g id="edge34" class="edge"><title>Node24&#45;&gt;Node25</title>
<path fill="none" stroke="midnightblue" d="M947.819,-268.622C970.77,-258.029 999.179,-244.917 1020.37,-235.135"/>
<polygon fill="midnightblue" stroke="midnightblue" points="946.29,-265.473 938.677,-272.841 949.223,-271.829 946.29,-265.473"/>
</g>
<!-- Node26&#45;&gt;Node16 -->
<g id="edge36" class="edge"><title>Node26&#45;&gt;Node16</title>
<path fill="none" stroke="midnightblue" d="M975.994,-271.547C931.813,-261.483 872.978,-248.035 821,-236 818.109,-235.331 815.146,-234.643 812.154,-233.946"/>
<polygon fill="midnightblue" stroke="midnightblue" points="975.231,-274.963 985.758,-273.77 976.785,-268.137 975.231,-274.963"/>
</g>
<!-- Node27 -->
<g id="node27" class="node"><title>Node27</title>
<g id="a_node27"><a xlink:href="../../d3/d54/eventservermessage_8cpp.xhtml" target="_top" xlink:title="GUI/resources/events\l/eventservermessage.cpp">
<polygon fill="white" stroke="black" points="1134,-205 1134,-235 1260,-235 1260,-205 1134,-205"/>
<text text-anchor="start" x="1142" y="-223" font-family="Helvetica,sans-Serif" font-size="10.00">GUI/resources/events</text>
<text text-anchor="middle" x="1197" y="-212" font-family="Helvetica,sans-Serif" font-size="10.00">/eventservermessage.cpp</text>
</a>
</g>
</g>
<!-- Node26&#45;&gt;Node27 -->
<g id="edge37" class="edge"><title>Node26&#45;&gt;Node27</title>
<path fill="none" stroke="midnightblue" d="M1086.31,-268.749C1111.01,-258.093 1141.7,-244.855 1164.49,-235.022"/>
<polygon fill="midnightblue" stroke="midnightblue" points="1084.62,-265.667 1076.82,-272.841 1087.39,-272.094 1084.62,-265.667"/>
</g>
</g>
</svg>
