<?xml version="1.0" encoding="UTF-8" standalone="no"?>
<!DOCTYPE svg PUBLIC "-//W3C//DTD SVG 1.1//EN"
 "http://www.w3.org/Graphics/SVG/1.1/DTD/svg11.dtd">
<!-- Generated by graphviz version 2.30.1 (20130214.1330)
 -->
<!-- Title: GUI/roombagui&#45;build&#45;Desktop_Qt_5_0_1_MSVC2010_32bit&#45;Debug/ui_displaylogs.h Pages: 1 -->
<svg width="1330pt" height="106pt"
 viewBox="0.00 0.00 1330.00 106.00" xmlns="http://www.w3.org/2000/svg" xmlns:xlink="http://www.w3.org/1999/xlink">
<g id="graph0" class="graph" transform="scale(1 1) rotate(0) translate(4 102)">
<title>GUI/roombagui&#45;build&#45;Desktop_Qt_5_0_1_MSVC2010_32bit&#45;Debug/ui_displaylogs.h</title>
<polygon fill="white" stroke="white" points="-4,5 -4,-102 1327,-102 1327,5 -4,5"/>
<!-- Node1 -->
<g id="node1" class="node"><title>Node1</title>
<polygon fill="#bfbfbf" stroke="black" points="569,-56.5 569,-97.5 727,-97.5 727,-56.5 569,-56.5"/>
<text text-anchor="start" x="577" y="-85.5" font-family="Helvetica,sans-Serif" font-size="10.00">GUI/roombagui&#45;build</text>
<text text-anchor="start" x="577" y="-74.5" font-family="Helvetica,sans-Serif" font-size="10.00">&#45;Desktop_Qt_5_0_1_MSVC2010</text>
<text text-anchor="middle" x="648" y="-63.5" font-family="Helvetica,sans-Serif" font-size="10.00">_32bit&#45;Debug/ui_displaylogs.h</text>
</g>
<!-- Node2 -->
<g id="node2" class="node"><title>Node2</title>
<polygon fill="white" stroke="#bfbfbf" points="-0.5,-0.5 -0.5,-19.5 88.5,-19.5 88.5,-0.5 -0.5,-0.5"/>
<text text-anchor="middle" x="44" y="-7.5" font-family="Helvetica,sans-Serif" font-size="10.00">QtCore/QVariant</text>
</g>
<!-- Node1&#45;&gt;Node2 -->
<g id="edge1" class="edge"><title>Node1&#45;&gt;Node2</title>
<path fill="none" stroke="midnightblue" d="M568.877,-69.6337C463.723,-60.798 271.935,-43.3811 98.8457,-20.1797"/>
<polygon fill="midnightblue" stroke="midnightblue" points="99.1656,-16.6913 88.7872,-18.822 98.2291,-23.6283 99.1656,-16.6913"/>
</g>
<!-- Node3 -->
<g id="node3" class="node"><title>Node3</title>
<polygon fill="white" stroke="#bfbfbf" points="106.5,-0.5 106.5,-19.5 207.5,-19.5 207.5,-0.5 106.5,-0.5"/>
<text text-anchor="middle" x="157" y="-7.5" font-family="Helvetica,sans-Serif" font-size="10.00">QtWidgets/QAction</text>
</g>
<!-- Node1&#45;&gt;Node3 -->
<g id="edge2" class="edge"><title>Node1&#45;&gt;Node3</title>
<path fill="none" stroke="midnightblue" d="M568.895,-66.1959C484.597,-55.6403 346.948,-38.0964 217.804,-20.0892"/>
<polygon fill="midnightblue" stroke="midnightblue" points="218.117,-16.5991 207.729,-18.681 217.148,-23.5317 218.117,-16.5991"/>
</g>
<!-- Node4 -->
<g id="node4" class="node"><title>Node4</title>
<polygon fill="white" stroke="#bfbfbf" points="226,-0.5 226,-19.5 348,-19.5 348,-0.5 226,-0.5"/>
<text text-anchor="middle" x="287" y="-7.5" font-family="Helvetica,sans-Serif" font-size="10.00">QtWidgets/QApplication</text>
</g>
<!-- Node1&#45;&gt;Node4 -->
<g id="edge3" class="edge"><title>Node1&#45;&gt;Node4</title>
<path fill="none" stroke="midnightblue" d="M568.777,-61.7355C500.99,-49.53 405.025,-32.2511 344.416,-21.3381"/>
<polygon fill="midnightblue" stroke="midnightblue" points="344.727,-17.8378 334.265,-19.5103 343.486,-24.727 344.727,-17.8378"/>
</g>
<!-- Node5 -->
<g id="node5" class="node"><title>Node5</title>
<polygon fill="white" stroke="#bfbfbf" points="366,-0.5 366,-19.5 494,-19.5 494,-0.5 366,-0.5"/>
<text text-anchor="middle" x="430" y="-7.5" font-family="Helvetica,sans-Serif" font-size="10.00">QtWidgets/QButtonGroup</text>
</g>
<!-- Node1&#45;&gt;Node5 -->
<g id="edge4" class="edge"><title>Node1&#45;&gt;Node5</title>
<path fill="none" stroke="midnightblue" d="M582.593,-56.4979C545.36,-45.3964 500.003,-31.8725 468.46,-22.4676"/>
<polygon fill="midnightblue" stroke="midnightblue" points="469.316,-19.0704 458.733,-19.5671 467.316,-25.7786 469.316,-19.0704"/>
</g>
<!-- Node6 -->
<g id="node6" class="node"><title>Node6</title>
<polygon fill="white" stroke="#bfbfbf" points="512.5,-0.5 512.5,-19.5 639.5,-19.5 639.5,-0.5 512.5,-0.5"/>
<text text-anchor="middle" x="576" y="-7.5" font-family="Helvetica,sans-Serif" font-size="10.00">QtWidgets/QHBoxLayout</text>
</g>
<!-- Node1&#45;&gt;Node6 -->
<g id="edge5" class="edge"><title>Node1&#45;&gt;Node6</title>
<path fill="none" stroke="midnightblue" d="M626.398,-56.4979C615.783,-46.9154 603.17,-35.5281 593.217,-26.5428"/>
<polygon fill="midnightblue" stroke="midnightblue" points="595.352,-23.7556 585.584,-19.6525 590.662,-28.9515 595.352,-23.7556"/>
</g>
<!-- Node7 -->
<g id="node7" class="node"><title>Node7</title>
<polygon fill="white" stroke="#bfbfbf" points="657.5,-0.5 657.5,-19.5 782.5,-19.5 782.5,-0.5 657.5,-0.5"/>
<text text-anchor="middle" x="720" y="-7.5" font-family="Helvetica,sans-Serif" font-size="10.00">QtWidgets/QHeaderView</text>
</g>
<!-- Node1&#45;&gt;Node7 -->
<g id="edge6" class="edge"><title>Node1&#45;&gt;Node7</title>
<path fill="none" stroke="midnightblue" d="M669.602,-56.4979C680.217,-46.9154 692.83,-35.5281 702.783,-26.5428"/>
<polygon fill="midnightblue" stroke="midnightblue" points="705.338,-28.9515 710.416,-19.6525 700.648,-23.7556 705.338,-28.9515"/>
</g>
<!-- Node8 -->
<g id="node8" class="node"><title>Node8</title>
<polygon fill="white" stroke="#bfbfbf" points="801,-0.5 801,-19.5 911,-19.5 911,-0.5 801,-0.5"/>
<text text-anchor="middle" x="856" y="-7.5" font-family="Helvetica,sans-Serif" font-size="10.00">QtWidgets/QListView</text>
</g>
<!-- Node1&#45;&gt;Node8 -->
<g id="edge7" class="edge"><title>Node1&#45;&gt;Node8</title>
<path fill="none" stroke="midnightblue" d="M710.407,-56.4979C745.778,-45.4445 788.834,-31.9895 818.912,-22.59"/>
<polygon fill="midnightblue" stroke="midnightblue" points="820.085,-25.8906 828.585,-19.5671 817.997,-19.2092 820.085,-25.8906"/>
</g>
<!-- Node9 -->
<g id="node9" class="node"><title>Node9</title>
<polygon fill="white" stroke="#bfbfbf" points="929.5,-0.5 929.5,-19.5 1054.5,-19.5 1054.5,-0.5 929.5,-0.5"/>
<text text-anchor="middle" x="992" y="-7.5" font-family="Helvetica,sans-Serif" font-size="10.00">QtWidgets/QPushButton</text>
</g>
<!-- Node1&#45;&gt;Node9 -->
<g id="edge8" class="edge"><title>Node1&#45;&gt;Node9</title>
<path fill="none" stroke="midnightblue" d="M727.352,-61.0061C791.556,-48.8746 880.308,-32.1046 936.938,-21.4042"/>
<polygon fill="midnightblue" stroke="midnightblue" points="937.602,-24.8406 946.779,-19.5447 936.303,-17.9623 937.602,-24.8406"/>
</g>
<!-- Node10 -->
<g id="node10" class="node"><title>Node10</title>
<polygon fill="white" stroke="#bfbfbf" points="1072.5,-0.5 1072.5,-19.5 1199.5,-19.5 1199.5,-0.5 1072.5,-0.5"/>
<text text-anchor="middle" x="1136" y="-7.5" font-family="Helvetica,sans-Serif" font-size="10.00">QtWidgets/QVBoxLayout</text>
</g>
<!-- Node1&#45;&gt;Node10 -->
<g id="edge9" class="edge"><title>Node1&#45;&gt;Node10</title>
<path fill="none" stroke="midnightblue" d="M727.22,-65.4482C819.874,-53.1069 972.037,-32.8394 1062.26,-20.8214"/>
<polygon fill="midnightblue" stroke="midnightblue" points="1062.96,-24.2593 1072.41,-19.4696 1062.04,-17.3206 1062.96,-24.2593"/>
</g>
<!-- Node11 -->
<g id="node11" class="node"><title>Node11</title>
<polygon fill="white" stroke="#bfbfbf" points="1218,-0.5 1218,-19.5 1322,-19.5 1322,-0.5 1218,-0.5"/>
<text text-anchor="middle" x="1270" y="-7.5" font-family="Helvetica,sans-Serif" font-size="10.00">QtWidgets/QWidget</text>
</g>
<!-- Node1&#45;&gt;Node11 -->
<g id="edge10" class="edge"><title>Node1&#45;&gt;Node11</title>
<path fill="none" stroke="midnightblue" d="M727.414,-69.1793C836.062,-59.592 1037.07,-40.9423 1208,-20 1208.1,-19.9876 1208.2,-19.9752 1208.3,-19.9627"/>
<polygon fill="midnightblue" stroke="midnightblue" points="1208.45,-23.4723 1217.93,-18.7304 1207.56,-16.529 1208.45,-23.4723"/>
</g>
</g>
</svg>
