<?xml version="1.0" encoding="UTF-8" standalone="no"?>
<!DOCTYPE svg PUBLIC "-//W3C//DTD SVG 1.1//EN"
 "http://www.w3.org/Graphics/SVG/1.1/DTD/svg11.dtd">
<!-- Generated by graphviz version 2.30.1 (20130214.1330)
 -->
<!-- Title: GUI/roombagui&#45;build&#45;Desktop_Qt_5_0_1_MSVC2010_32bit&#45;Debug/debug/moc_controllingroomba.cpp Pages: 1 -->
<svg width="1396pt" height="398pt"
 viewBox="0.00 0.00 1396.00 398.00" xmlns="http://www.w3.org/2000/svg" xmlns:xlink="http://www.w3.org/1999/xlink">
<g id="graph0" class="graph" transform="scale(1 1) rotate(0) translate(4 394)">
<title>GUI/roombagui&#45;build&#45;Desktop_Qt_5_0_1_MSVC2010_32bit&#45;Debug/debug/moc_controllingroomba.cpp</title>
<polygon fill="white" stroke="white" points="-4,5 -4,-394 1393,-394 1393,5 -4,5"/>
<!-- Node1 -->
<g id="node1" class="node"><title>Node1</title>
<polygon fill="#bfbfbf" stroke="black" points="1068.5,-348.5 1068.5,-389.5 1293.5,-389.5 1293.5,-348.5 1068.5,-348.5"/>
<text text-anchor="start" x="1076.5" y="-377.5" font-family="Helvetica,sans-Serif" font-size="10.00">GUI/roombagui&#45;build</text>
<text text-anchor="start" x="1076.5" y="-366.5" font-family="Helvetica,sans-Serif" font-size="10.00">&#45;Desktop_Qt_5_0_1_MSVC2010</text>
<text text-anchor="middle" x="1181" y="-355.5" font-family="Helvetica,sans-Serif" font-size="10.00">_32bit&#45;Debug/debug/moc_controllingroomba.cpp</text>
</g>
<!-- Node2 -->
<g id="node2" class="node"><title>Node2</title>
<g id="a_node2"><a xlink:href="../../da/d4b/controllingroomba_8h.xhtml" target="_top" xlink:title="../../Gui&#45;RoombaV1.0\l/controllingroomba.h">
<polygon fill="white" stroke="black" points="1001.5,-281 1001.5,-311 1110.5,-311 1110.5,-281 1001.5,-281"/>
<text text-anchor="start" x="1009.5" y="-299" font-family="Helvetica,sans-Serif" font-size="10.00">../../Gui&#45;RoombaV1.0</text>
<text text-anchor="middle" x="1056" y="-288" font-family="Helvetica,sans-Serif" font-size="10.00">/controllingroomba.h</text>
</a>
</g>
</g>
<!-- Node1&#45;&gt;Node2 -->
<g id="edge1" class="edge"><title>Node1&#45;&gt;Node2</title>
<path fill="none" stroke="midnightblue" d="M1146.51,-348.411C1128.79,-338.344 1107.28,-326.126 1089.67,-316.126"/>
<polygon fill="midnightblue" stroke="midnightblue" points="1091.29,-313.018 1080.86,-311.123 1087.83,-319.105 1091.29,-313.018"/>
</g>
<!-- Node30 -->
<g id="node30" class="node"><title>Node30</title>
<polygon fill="white" stroke="#bfbfbf" points="1129,-286.5 1129,-305.5 1233,-305.5 1233,-286.5 1129,-286.5"/>
<text text-anchor="middle" x="1181" y="-293.5" font-family="Helvetica,sans-Serif" font-size="10.00">QtCore/qbytearray.h</text>
</g>
<!-- Node1&#45;&gt;Node30 -->
<g id="edge56" class="edge"><title>Node1&#45;&gt;Node30</title>
<path fill="none" stroke="midnightblue" d="M1181,-348.223C1181,-338.086 1181,-325.807 1181,-315.813"/>
<polygon fill="midnightblue" stroke="midnightblue" points="1184.5,-315.735 1181,-305.735 1177.5,-315.735 1184.5,-315.735"/>
</g>
<!-- Node31 -->
<g id="node31" class="node"><title>Node31</title>
<polygon fill="white" stroke="#bfbfbf" points="1251,-286.5 1251,-305.5 1355,-305.5 1355,-286.5 1251,-286.5"/>
<text text-anchor="middle" x="1303" y="-293.5" font-family="Helvetica,sans-Serif" font-size="10.00">QtCore/qmetatype.h</text>
</g>
<!-- Node1&#45;&gt;Node31 -->
<g id="edge57" class="edge"><title>Node1&#45;&gt;Node31</title>
<path fill="none" stroke="midnightblue" d="M1214.66,-348.411C1235.2,-336.457 1260.96,-321.468 1279.35,-310.765"/>
<polygon fill="midnightblue" stroke="midnightblue" points="1281.35,-313.652 1288.23,-305.597 1277.82,-307.602 1281.35,-313.652"/>
</g>
<!-- Node3 -->
<g id="node3" class="node"><title>Node3</title>
<g id="a_node3"><a xlink:href="../../d4/d05/json_8h.xhtml" target="_top" xlink:title="../resources/json.h">
<polygon fill="white" stroke="black" points="521,-112.5 521,-131.5 619,-131.5 619,-112.5 521,-112.5"/>
<text text-anchor="middle" x="570" y="-119.5" font-family="Helvetica,sans-Serif" font-size="10.00">../resources/json.h</text>
</a>
</g>
</g>
<!-- Node2&#45;&gt;Node3 -->
<g id="edge2" class="edge"><title>Node2&#45;&gt;Node3</title>
<path fill="none" stroke="midnightblue" d="M1078.09,-280.883C1113.87,-256.364 1177.2,-204.991 1143,-168 1108.63,-130.83 768.725,-124.313 629.251,-123.208"/>
<polygon fill="midnightblue" stroke="midnightblue" points="629.189,-119.707 619.164,-123.134 629.139,-126.707 629.189,-119.707"/>
</g>
<!-- Node6 -->
<g id="node6" class="node"><title>Node6</title>
<g id="a_node6"><a xlink:href="../../dc/d96/jsoncommand_8h.xhtml" target="_top" xlink:title="../resources/jsoncommand.h">
<polygon fill="white" stroke="black" points="99,-168.5 99,-187.5 239,-187.5 239,-168.5 99,-168.5"/>
<text text-anchor="middle" x="169" y="-175.5" font-family="Helvetica,sans-Serif" font-size="10.00">../resources/jsoncommand.h</text>
</a>
</g>
</g>
<!-- Node2&#45;&gt;Node6 -->
<g id="edge5" class="edge"><title>Node2&#45;&gt;Node6</title>
<path fill="none" stroke="midnightblue" d="M1001.37,-293.396C855.081,-288.747 456.874,-273.666 329,-244 279.453,-232.506 225.313,-207.702 194.424,-192.276"/>
<polygon fill="midnightblue" stroke="midnightblue" points="195.749,-189.024 185.247,-187.626 192.585,-195.268 195.749,-189.024"/>
</g>
<!-- Node15 -->
<g id="node15" class="node"><title>Node15</title>
<g id="a_node15"><a xlink:href="../../d4/dca/_roomba_connect_8h.xhtml" target="_top" xlink:title="RoombaConnect.h">
<polygon fill="white" stroke="black" points="594.5,-224.5 594.5,-243.5 691.5,-243.5 691.5,-224.5 594.5,-224.5"/>
<text text-anchor="middle" x="643" y="-231.5" font-family="Helvetica,sans-Serif" font-size="10.00">RoombaConnect.h</text>
</a>
</g>
</g>
<!-- Node2&#45;&gt;Node15 -->
<g id="edge15" class="edge"><title>Node2&#45;&gt;Node15</title>
<path fill="none" stroke="midnightblue" d="M1001.16,-287.032C923.459,-275.745 781.921,-255.182 702.011,-243.573"/>
<polygon fill="midnightblue" stroke="midnightblue" points="702.031,-240.039 691.632,-242.065 701.025,-246.967 702.031,-240.039"/>
</g>
<!-- Node9 -->
<g id="node9" class="node"><title>Node9</title>
<g id="a_node9"><a xlink:href="../../d7/d62/clslog_8h.xhtml" target="_top" xlink:title="clslog.h">
<polygon fill="white" stroke="black" points="61,-56.5 61,-75.5 111,-75.5 111,-56.5 61,-56.5"/>
<text text-anchor="middle" x="86" y="-63.5" font-family="Helvetica,sans-Serif" font-size="10.00">clslog.h</text>
</a>
</g>
</g>
<!-- Node2&#45;&gt;Node9 -->
<g id="edge45" class="edge"><title>Node2&#45;&gt;Node9</title>
<path fill="none" stroke="midnightblue" d="M1001.41,-294.406C814.136,-292.039 204.964,-281.507 126,-244 95.5923,-229.557 88.8102,-218.7 75,-188 64.7311,-165.172 70.3352,-156.996 69,-132 68.5258,-123.124 67.4034,-120.744 69,-112 70.6876,-102.757 74.175,-92.9479 77.5544,-84.8546"/>
<polygon fill="midnightblue" stroke="midnightblue" points="80.7635,-86.2518 81.6337,-75.6928 74.3687,-83.4045 80.7635,-86.2518"/>
</g>
<!-- Node21 -->
<g id="node21" class="node"><title>Node21</title>
<g id="a_node21"><a xlink:href="../../db/d97/clsevent_8h.xhtml" target="_top" xlink:title="../resources/clsevent.h">
<polygon fill="white" stroke="black" points="387.5,-112.5 387.5,-131.5 502.5,-131.5 502.5,-112.5 387.5,-112.5"/>
<text text-anchor="middle" x="445" y="-119.5" font-family="Helvetica,sans-Serif" font-size="10.00">../resources/clsevent.h</text>
</a>
</g>
</g>
<!-- Node2&#45;&gt;Node21 -->
<g id="edge46" class="edge"><title>Node2&#45;&gt;Node21</title>
<path fill="none" stroke="midnightblue" d="M1001.33,-293C912.881,-288.893 733.343,-276.932 585,-244 509.809,-227.308 465.807,-250.647 421,-188 410.552,-173.392 420.453,-153.715 430.522,-139.85"/>
<polygon fill="midnightblue" stroke="midnightblue" points="433.512,-141.711 436.951,-131.69 428.013,-137.379 433.512,-141.711"/>
</g>
<!-- Node27 -->
<g id="node27" class="node"><title>Node27</title>
<polygon fill="white" stroke="#bfbfbf" points="1283.5,-168.5 1283.5,-187.5 1338.5,-187.5 1338.5,-168.5 1283.5,-168.5"/>
<text text-anchor="middle" x="1311" y="-175.5" font-family="Helvetica,sans-Serif" font-size="10.00">QWidget</text>
</g>
<!-- Node2&#45;&gt;Node27 -->
<g id="edge47" class="edge"><title>Node2&#45;&gt;Node27</title>
<path fill="none" stroke="midnightblue" d="M1110.79,-282.067C1113.91,-281.361 1116.99,-280.667 1120,-280 1196.25,-263.088 1234.66,-297.029 1292,-244 1304.67,-232.284 1309.06,-212.638 1310.49,-198.005"/>
<polygon fill="midnightblue" stroke="midnightblue" points="1314.01,-197.783 1311.12,-187.592 1307.03,-197.365 1314.01,-197.783"/>
</g>
<!-- Node17 -->
<g id="node17" class="node"><title>Node17</title>
<polygon fill="white" stroke="#bfbfbf" points="1063.5,-168.5 1063.5,-187.5 1134.5,-187.5 1134.5,-168.5 1063.5,-168.5"/>
<text text-anchor="middle" x="1099" y="-175.5" font-family="Helvetica,sans-Serif" font-size="10.00">QTcpSocket</text>
</g>
<!-- Node2&#45;&gt;Node17 -->
<g id="edge48" class="edge"><title>Node2&#45;&gt;Node17</title>
<path fill="none" stroke="midnightblue" d="M1061.27,-280.776C1069.06,-259.781 1083.62,-220.488 1092.2,-197.349"/>
<polygon fill="midnightblue" stroke="midnightblue" points="1095.58,-198.3 1095.77,-187.707 1089.01,-195.867 1095.58,-198.3"/>
</g>
<!-- Node28 -->
<g id="node28" class="node"><title>Node28</title>
<polygon fill="white" stroke="#bfbfbf" points="1339.5,-224.5 1339.5,-243.5 1388.5,-243.5 1388.5,-224.5 1339.5,-224.5"/>
<text text-anchor="middle" x="1364" y="-231.5" font-family="Helvetica,sans-Serif" font-size="10.00">QSlider</text>
</g>
<!-- Node2&#45;&gt;Node28 -->
<g id="edge49" class="edge"><title>Node2&#45;&gt;Node28</title>
<path fill="none" stroke="midnightblue" d="M1110.77,-281.95C1113.89,-281.273 1116.98,-280.618 1120,-280 1210.62,-261.438 1234.34,-262.407 1325,-244 1326.45,-243.706 1327.92,-243.399 1329.41,-243.083"/>
<polygon fill="midnightblue" stroke="midnightblue" points="1330.27,-246.478 1339.29,-240.911 1328.77,-239.641 1330.27,-246.478"/>
</g>
<!-- Node16 -->
<g id="node16" class="node"><title>Node16</title>
<polygon fill="white" stroke="#bfbfbf" points="998.5,-168.5 998.5,-187.5 1045.5,-187.5 1045.5,-168.5 998.5,-168.5"/>
<text text-anchor="middle" x="1022" y="-175.5" font-family="Helvetica,sans-Serif" font-size="10.00">QtCore</text>
</g>
<!-- Node2&#45;&gt;Node16 -->
<g id="edge50" class="edge"><title>Node2&#45;&gt;Node16</title>
<path fill="none" stroke="midnightblue" d="M1051.83,-280.776C1045.68,-259.781 1034.16,-220.488 1027.38,-197.349"/>
<polygon fill="midnightblue" stroke="midnightblue" points="1030.72,-196.319 1024.55,-187.707 1024.01,-198.288 1030.72,-196.319"/>
</g>
<!-- Node7 -->
<g id="node7" class="node"><title>Node7</title>
<polygon fill="white" stroke="#bfbfbf" points="212.5,-56.5 212.5,-75.5 265.5,-75.5 265.5,-56.5 212.5,-56.5"/>
<text text-anchor="middle" x="239" y="-63.5" font-family="Helvetica,sans-Serif" font-size="10.00">QObject</text>
</g>
<!-- Node2&#45;&gt;Node7 -->
<g id="edge51" class="edge"><title>Node2&#45;&gt;Node7</title>
<path fill="none" stroke="midnightblue" d="M1001.27,-293.27C845.902,-288.074 404.188,-271.265 262,-244 183.044,-228.86 137.235,-253.054 90,-188 72.4403,-163.816 104.338,-124.266 118,-112 141.704,-90.7184 176.386,-79.1968 202.548,-73.1576"/>
<polygon fill="midnightblue" stroke="midnightblue" points="203.426,-76.5491 212.471,-71.0324 201.96,-69.7043 203.426,-76.5491"/>
</g>
<!-- Node25 -->
<g id="node25" class="node"><title>Node25</title>
<g id="a_node25"><a xlink:href="../../da/d69/loggingdata_8h.xhtml" target="_top" xlink:title="loggingdata.h">
<polygon fill="white" stroke="black" points="1191,-168.5 1191,-187.5 1265,-187.5 1265,-168.5 1191,-168.5"/>
<text text-anchor="middle" x="1228" y="-175.5" font-family="Helvetica,sans-Serif" font-size="10.00">loggingdata.h</text>
</a>
</g>
</g>
<!-- Node2&#45;&gt;Node25 -->
<g id="edge52" class="edge"><title>Node2&#45;&gt;Node25</title>
<path fill="none" stroke="midnightblue" d="M1089.58,-280.856C1109.88,-271.636 1135.83,-258.624 1157,-244 1177.92,-229.55 1199.05,-209.318 1212.75,-195.28"/>
<polygon fill="midnightblue" stroke="midnightblue" points="1215.51,-197.461 1219.91,-187.821 1210.46,-192.617 1215.51,-197.461"/>
</g>
<!-- Node29 -->
<g id="node29" class="node"><title>Node29</title>
<g id="a_node29"><a xlink:href="../../d7/d82/displaylogs_8h.xhtml" target="_top" xlink:title="displaylogs.h">
<polygon fill="white" stroke="black" points="1209,-224.5 1209,-243.5 1283,-243.5 1283,-224.5 1209,-224.5"/>
<text text-anchor="middle" x="1246" y="-231.5" font-family="Helvetica,sans-Serif" font-size="10.00">displaylogs.h</text>
</a>
</g>
</g>
<!-- Node2&#45;&gt;Node29 -->
<g id="edge53" class="edge"><title>Node2&#45;&gt;Node29</title>
<path fill="none" stroke="midnightblue" d="M1100.55,-280.933C1133.7,-270.462 1178.41,-256.345 1209.47,-246.536"/>
<polygon fill="midnightblue" stroke="midnightblue" points="1210.56,-249.862 1219.04,-243.513 1208.45,-243.187 1210.56,-249.862"/>
</g>
<!-- Node4 -->
<g id="node4" class="node"><title>Node4</title>
<polygon fill="white" stroke="#bfbfbf" points="696.5,-56.5 696.5,-75.5 751.5,-75.5 751.5,-56.5 696.5,-56.5"/>
<text text-anchor="middle" x="724" y="-63.5" font-family="Helvetica,sans-Serif" font-size="10.00">QVariant</text>
</g>
<!-- Node3&#45;&gt;Node4 -->
<g id="edge3" class="edge"><title>Node3&#45;&gt;Node4</title>
<path fill="none" stroke="midnightblue" d="M594.402,-112.444C620.197,-103.399 661.077,-89.064 690.018,-78.9158"/>
<polygon fill="midnightblue" stroke="midnightblue" points="691.434,-82.1283 699.712,-75.5164 689.118,-75.5226 691.434,-82.1283"/>
</g>
<!-- Node5 -->
<g id="node5" class="node"><title>Node5</title>
<polygon fill="white" stroke="#bfbfbf" points="483,-56.5 483,-75.5 533,-75.5 533,-56.5 483,-56.5"/>
<text text-anchor="middle" x="508" y="-63.5" font-family="Helvetica,sans-Serif" font-size="10.00">QString</text>
</g>
<!-- Node3&#45;&gt;Node5 -->
<g id="edge4" class="edge"><title>Node3&#45;&gt;Node5</title>
<path fill="none" stroke="midnightblue" d="M560.039,-112.324C550.873,-104.341 537.063,-92.3128 525.972,-82.6529"/>
<polygon fill="midnightblue" stroke="midnightblue" points="527.982,-79.7624 518.143,-75.8339 523.385,-85.041 527.982,-79.7624"/>
</g>
<!-- Node6&#45;&gt;Node7 -->
<g id="edge6" class="edge"><title>Node6&#45;&gt;Node7</title>
<path fill="none" stroke="midnightblue" d="M178.406,-168.409C187.383,-159.841 200.859,-145.975 210,-132 219.608,-117.313 227.481,-98.9148 232.587,-85.4446"/>
<polygon fill="midnightblue" stroke="midnightblue" points="235.943,-86.4574 236.069,-75.8633 229.364,-84.0664 235.943,-86.4574"/>
</g>
<!-- Node8 -->
<g id="node8" class="node"><title>Node8</title>
<polygon fill="white" stroke="#bfbfbf" points="127,-112.5 127,-131.5 201,-131.5 201,-112.5 127,-112.5"/>
<text text-anchor="middle" x="164" y="-119.5" font-family="Helvetica,sans-Serif" font-size="10.00">QVariantMap</text>
</g>
<!-- Node6&#45;&gt;Node8 -->
<g id="edge7" class="edge"><title>Node6&#45;&gt;Node8</title>
<path fill="none" stroke="midnightblue" d="M168.174,-168.083C167.519,-161.006 166.58,-150.861 165.758,-141.986"/>
<polygon fill="midnightblue" stroke="midnightblue" points="169.217,-141.386 164.81,-131.751 162.247,-142.031 169.217,-141.386"/>
</g>
<!-- Node6&#45;&gt;Node3 -->
<g id="edge8" class="edge"><title>Node6&#45;&gt;Node3</title>
<path fill="none" stroke="midnightblue" d="M236.866,-168.488C303.688,-160.011 408.933,-146.408 510.612,-132.028"/>
<polygon fill="midnightblue" stroke="midnightblue" points="511.346,-135.459 520.756,-130.589 510.363,-128.528 511.346,-135.459"/>
</g>
<!-- Node6&#45;&gt;Node9 -->
<g id="edge9" class="edge"><title>Node6&#45;&gt;Node9</title>
<path fill="none" stroke="midnightblue" d="M156.855,-168.464C145.678,-160.144 129.187,-146.635 118,-132 107.03,-117.649 98.2979,-98.9441 92.7447,-85.2863"/>
<polygon fill="midnightblue" stroke="midnightblue" points="95.8665,-83.6554 88.9908,-75.5947 89.339,-86.1838 95.8665,-83.6554"/>
</g>
<!-- Node10 -->
<g id="node10" class="node"><title>Node10</title>
<polygon fill="white" stroke="#bfbfbf" points="247,-0.5 247,-19.5 299,-19.5 299,-0.5 247,-0.5"/>
<text text-anchor="middle" x="273" y="-7.5" font-family="Helvetica,sans-Serif" font-size="10.00">QDebug</text>
</g>
<!-- Node9&#45;&gt;Node10 -->
<g id="edge10" class="edge"><title>Node9&#45;&gt;Node10</title>
<path fill="none" stroke="midnightblue" d="M111.22,-57.7173C143.66,-48.3494 200.214,-32.0184 237.126,-21.3593"/>
<polygon fill="midnightblue" stroke="midnightblue" points="238.344,-24.6508 246.98,-18.5138 236.402,-17.9256 238.344,-24.6508"/>
</g>
<!-- Node11 -->
<g id="node11" class="node"><title>Node11</title>
<polygon fill="white" stroke="#bfbfbf" points="339.5,-0.5 339.5,-19.5 404.5,-19.5 404.5,-0.5 339.5,-0.5"/>
<text text-anchor="middle" x="372" y="-7.5" font-family="Helvetica,sans-Serif" font-size="10.00">QDateTime</text>
</g>
<!-- Node9&#45;&gt;Node11 -->
<g id="edge11" class="edge"><title>Node9&#45;&gt;Node11</title>
<path fill="none" stroke="midnightblue" d="M111.13,-60.2552C160.094,-51.0102 268.763,-30.4923 329.257,-19.0704"/>
<polygon fill="midnightblue" stroke="midnightblue" points="330.074,-22.478 339.251,-17.1834 328.775,-15.5996 330.074,-22.478"/>
</g>
<!-- Node12 -->
<g id="node12" class="node"><title>Node12</title>
<polygon fill="white" stroke="#bfbfbf" points="-0.5,-0.5 -0.5,-19.5 40.5,-19.5 40.5,-0.5 -0.5,-0.5"/>
<text text-anchor="middle" x="20" y="-7.5" font-family="Helvetica,sans-Serif" font-size="10.00">string</text>
</g>
<!-- Node9&#45;&gt;Node12 -->
<g id="edge12" class="edge"><title>Node9&#45;&gt;Node12</title>
<path fill="none" stroke="midnightblue" d="M75.396,-56.324C65.5438,-48.2631 50.6491,-36.0765 38.7849,-26.3695"/>
<polygon fill="midnightblue" stroke="midnightblue" points="40.7529,-23.4575 30.797,-19.8339 36.3202,-28.8752 40.7529,-23.4575"/>
</g>
<!-- Node13 -->
<g id="node13" class="node"><title>Node13</title>
<polygon fill="white" stroke="#bfbfbf" points="59,-0.5 59,-19.5 113,-19.5 113,-0.5 59,-0.5"/>
<text text-anchor="middle" x="86" y="-7.5" font-family="Helvetica,sans-Serif" font-size="10.00">iostream</text>
</g>
<!-- Node9&#45;&gt;Node13 -->
<g id="edge13" class="edge"><title>Node9&#45;&gt;Node13</title>
<path fill="none" stroke="midnightblue" d="M86,-56.083C86,-49.0059 86,-38.8611 86,-29.9865"/>
<polygon fill="midnightblue" stroke="midnightblue" points="89.5001,-29.751 86,-19.7511 82.5001,-29.7511 89.5001,-29.751"/>
</g>
<!-- Node14 -->
<g id="node14" class="node"><title>Node14</title>
<polygon fill="white" stroke="#bfbfbf" points="131.5,-0.5 131.5,-19.5 196.5,-19.5 196.5,-0.5 131.5,-0.5"/>
<text text-anchor="middle" x="164" y="-7.5" font-family="Helvetica,sans-Serif" font-size="10.00">QStringList</text>
</g>
<!-- Node9&#45;&gt;Node14 -->
<g id="edge14" class="edge"><title>Node9&#45;&gt;Node14</title>
<path fill="none" stroke="midnightblue" d="M98.532,-56.324C110.586,-47.979 129.027,-35.2122 143.269,-25.3524"/>
<polygon fill="midnightblue" stroke="midnightblue" points="145.269,-28.2243 151.499,-19.6545 141.285,-22.469 145.269,-28.2243"/>
</g>
<!-- Node15&#45;&gt;Node10 -->
<g id="edge16" class="edge"><title>Node15&#45;&gt;Node10</title>
<path fill="none" stroke="midnightblue" d="M594.227,-232.27C546.892,-229.546 474.552,-219.896 421,-188 353.368,-147.717 302.355,-64.9731 282.302,-28.6995"/>
<polygon fill="midnightblue" stroke="midnightblue" points="285.313,-26.9082 277.479,-19.7747 279.154,-30.2363 285.313,-26.9082"/>
</g>
<!-- Node15&#45;&gt;Node16 -->
<g id="edge17" class="edge"><title>Node15&#45;&gt;Node16</title>
<path fill="none" stroke="midnightblue" d="M691.764,-228.781C757.095,-222.662 876.749,-209.82 988.23,-187.891"/>
<polygon fill="midnightblue" stroke="midnightblue" points="989.178,-191.271 998.3,-185.881 987.808,-184.407 989.178,-191.271"/>
</g>
<!-- Node15&#45;&gt;Node7 -->
<g id="edge18" class="edge"><title>Node15&#45;&gt;Node7</title>
<path fill="none" stroke="midnightblue" d="M594.193,-232.595C508.993,-230.956 337.733,-223.235 291,-188 258.092,-163.189 245.746,-113.33 241.32,-85.996"/>
<polygon fill="midnightblue" stroke="midnightblue" points="244.744,-85.2076 239.872,-75.7992 237.813,-86.1921 244.744,-85.2076"/>
</g>
<!-- Node15&#45;&gt;Node17 -->
<g id="edge19" class="edge"><title>Node15&#45;&gt;Node17</title>
<path fill="none" stroke="midnightblue" d="M691.584,-229.081C766.794,-222.706 916.128,-208.83 1052.94,-188.033"/>
<polygon fill="midnightblue" stroke="midnightblue" points="1053.84,-191.437 1063.19,-186.459 1052.77,-184.518 1053.84,-191.437"/>
</g>
<!-- Node18 -->
<g id="node18" class="node"><title>Node18</title>
<polygon fill="white" stroke="#bfbfbf" points="567,-168.5 567,-187.5 641,-187.5 641,-168.5 567,-168.5"/>
<text text-anchor="middle" x="604" y="-175.5" font-family="Helvetica,sans-Serif" font-size="10.00">QTextStream</text>
</g>
<!-- Node15&#45;&gt;Node18 -->
<g id="edge20" class="edge"><title>Node15&#45;&gt;Node18</title>
<path fill="none" stroke="midnightblue" d="M636.56,-224.083C631.051,-216.455 622.969,-205.264 616.235,-195.941"/>
<polygon fill="midnightblue" stroke="midnightblue" points="619.013,-193.809 610.32,-187.751 613.338,-197.907 619.013,-193.809"/>
</g>
<!-- Node19 -->
<g id="node19" class="node"><title>Node19</title>
<polygon fill="white" stroke="#bfbfbf" points="659.5,-168.5 659.5,-187.5 704.5,-187.5 704.5,-168.5 659.5,-168.5"/>
<text text-anchor="middle" x="682" y="-175.5" font-family="Helvetica,sans-Serif" font-size="10.00">QTime</text>
</g>
<!-- Node15&#45;&gt;Node19 -->
<g id="edge21" class="edge"><title>Node15&#45;&gt;Node19</title>
<path fill="none" stroke="midnightblue" d="M649.44,-224.083C654.949,-216.455 663.031,-205.264 669.765,-195.941"/>
<polygon fill="midnightblue" stroke="midnightblue" points="672.662,-197.907 675.68,-187.751 666.987,-193.809 672.662,-197.907"/>
</g>
<!-- Node15&#45;&gt;Node9 -->
<g id="edge22" class="edge"><title>Node15&#45;&gt;Node9</title>
<path fill="none" stroke="midnightblue" d="M594.222,-232.656C465.552,-231.253 124.431,-224.13 90,-188 63.9903,-160.707 72.4659,-112.256 79.8699,-85.6962"/>
<polygon fill="midnightblue" stroke="midnightblue" points="83.3244,-86.3647 82.8738,-75.7795 76.625,-84.3354 83.3244,-86.3647"/>
</g>
<!-- Node20 -->
<g id="node20" class="node"><title>Node20</title>
<polygon fill="white" stroke="#bfbfbf" points="723,-168.5 723,-187.5 771,-187.5 771,-168.5 723,-168.5"/>
<text text-anchor="middle" x="747" y="-175.5" font-family="Helvetica,sans-Serif" font-size="10.00">QTimer</text>
</g>
<!-- Node15&#45;&gt;Node20 -->
<g id="edge23" class="edge"><title>Node15&#45;&gt;Node20</title>
<path fill="none" stroke="midnightblue" d="M659.709,-224.324C676.312,-215.703 702.002,-202.364 721.22,-192.386"/>
<polygon fill="midnightblue" stroke="midnightblue" points="723.07,-195.369 730.332,-187.655 719.844,-189.156 723.07,-195.369"/>
</g>
<!-- Node15&#45;&gt;Node6 -->
<g id="edge24" class="edge"><title>Node15&#45;&gt;Node6</title>
<path fill="none" stroke="midnightblue" d="M594.059,-227.424C512.502,-218.133 348.022,-199.395 249.292,-188.147"/>
<polygon fill="midnightblue" stroke="midnightblue" points="249.396,-184.636 239.064,-186.982 248.603,-191.591 249.396,-184.636"/>
</g>
<!-- Node15&#45;&gt;Node3 -->
<g id="edge25" class="edge"><title>Node15&#45;&gt;Node3</title>
<path fill="none" stroke="midnightblue" d="M594.267,-229.206C539.965,-223.848 457.24,-211.921 438,-188 432.429,-181.073 432.827,-175.229 438,-168 447.832,-154.26 486.175,-142.127 519.021,-133.932"/>
<polygon fill="midnightblue" stroke="midnightblue" points="520.103,-137.272 529,-131.518 518.457,-130.468 520.103,-137.272"/>
</g>
<!-- Node15&#45;&gt;Node21 -->
<g id="edge26" class="edge"><title>Node15&#45;&gt;Node21</title>
<path fill="none" stroke="midnightblue" d="M594.383,-229.669C538.037,-224.679 450.293,-213.028 430,-188 419.096,-174.551 426.043,-154.643 433.71,-140.406"/>
<polygon fill="midnightblue" stroke="midnightblue" points="436.838,-141.992 438.923,-131.605 430.815,-138.425 436.838,-141.992"/>
</g>
<!-- Node22 -->
<g id="node22" class="node"><title>Node22</title>
<g id="a_node22"><a xlink:href="../../d4/d25/sensordata_8h.xhtml" target="_top" xlink:title="sensordata.h">
<polygon fill="white" stroke="black" points="907.5,-168.5 907.5,-187.5 980.5,-187.5 980.5,-168.5 907.5,-168.5"/>
<text text-anchor="middle" x="944" y="-175.5" font-family="Helvetica,sans-Serif" font-size="10.00">sensordata.h</text>
</a>
</g>
</g>
<!-- Node15&#45;&gt;Node22 -->
<g id="edge32" class="edge"><title>Node15&#45;&gt;Node22</title>
<path fill="none" stroke="midnightblue" d="M691.934,-224.642C741.198,-216.165 819.638,-202.499 897.384,-188.087"/>
<polygon fill="midnightblue" stroke="midnightblue" points="898.161,-191.502 907.353,-186.234 896.882,-184.62 898.161,-191.502"/>
</g>
<!-- Node23 -->
<g id="node23" class="node"><title>Node23</title>
<g id="a_node23"><a xlink:href="../../d1/da1/brushvacuumdata_8h.xhtml" target="_top" xlink:title="brushvacuumdata.h">
<polygon fill="white" stroke="black" points="447.5,-168.5 447.5,-187.5 548.5,-187.5 548.5,-168.5 447.5,-168.5"/>
<text text-anchor="middle" x="498" y="-175.5" font-family="Helvetica,sans-Serif" font-size="10.00">brushvacuumdata.h</text>
</a>
</g>
</g>
<!-- Node15&#45;&gt;Node23 -->
<g id="edge35" class="edge"><title>Node15&#45;&gt;Node23</title>
<path fill="none" stroke="midnightblue" d="M620.024,-224.444C595.843,-215.438 557.582,-201.189 530.354,-191.049"/>
<polygon fill="midnightblue" stroke="midnightblue" points="531.461,-187.727 520.868,-187.516 529.018,-194.286 531.461,-187.727"/>
</g>
<!-- Node24 -->
<g id="node24" class="node"><title>Node24</title>
<g id="a_node24"><a xlink:href="../../de/d51/currentactiondata_8h.xhtml" target="_top" xlink:title="currentactiondata.h">
<polygon fill="white" stroke="black" points="789,-168.5 789,-187.5 889,-187.5 889,-168.5 789,-168.5"/>
<text text-anchor="middle" x="839" y="-175.5" font-family="Helvetica,sans-Serif" font-size="10.00">currentactiondata.h</text>
</a>
</g>
</g>
<!-- Node15&#45;&gt;Node24 -->
<g id="edge38" class="edge"><title>Node15&#45;&gt;Node24</title>
<path fill="none" stroke="midnightblue" d="M674.057,-224.444C707.603,-215.201 761.197,-200.436 798.141,-190.257"/>
<polygon fill="midnightblue" stroke="midnightblue" points="799.377,-193.547 808.089,-187.516 797.518,-186.798 799.377,-193.547"/>
</g>
<!-- Node15&#45;&gt;Node25 -->
<g id="edge41" class="edge"><title>Node15&#45;&gt;Node25</title>
<path fill="none" stroke="midnightblue" d="M691.642,-228.878C781.055,-221.244 977.541,-204.204 1143,-188 1155.23,-186.802 1168.44,-185.438 1180.72,-184.139"/>
<polygon fill="midnightblue" stroke="midnightblue" points="1181.2,-187.608 1190.77,-183.07 1180.46,-180.647 1181.2,-187.608"/>
</g>
<!-- Node21&#45;&gt;Node7 -->
<g id="edge27" class="edge"><title>Node21&#45;&gt;Node7</title>
<path fill="none" stroke="midnightblue" d="M412.359,-112.444C375.075,-102.67 314.232,-86.721 275.434,-76.5506"/>
<polygon fill="midnightblue" stroke="midnightblue" points="276.154,-73.1211 265.593,-73.971 274.379,-79.8923 276.154,-73.1211"/>
</g>
<!-- Node21&#45;&gt;Node5 -->
<g id="edge28" class="edge"><title>Node21&#45;&gt;Node5</title>
<path fill="none" stroke="midnightblue" d="M455.122,-112.324C464.526,-104.263 478.744,-92.0765 490.069,-82.3695"/>
<polygon fill="midnightblue" stroke="midnightblue" points="492.379,-84.9993 497.694,-75.8339 487.823,-79.6844 492.379,-84.9993"/>
</g>
<!-- Node21&#45;&gt;Node4 -->
<g id="edge29" class="edge"><title>Node21&#45;&gt;Node4</title>
<path fill="none" stroke="midnightblue" d="M489.208,-112.444C543.69,-101.899 635.315,-84.1648 686.51,-74.2561"/>
<polygon fill="midnightblue" stroke="midnightblue" points="687.337,-77.6611 696.49,-72.3245 686.007,-70.7886 687.337,-77.6611"/>
</g>
<!-- Node21&#45;&gt;Node11 -->
<g id="edge30" class="edge"><title>Node21&#45;&gt;Node11</title>
<path fill="none" stroke="midnightblue" d="M439.272,-112.368C427.225,-94.2153 399.077,-51.8015 383.275,-27.9902"/>
<polygon fill="midnightblue" stroke="midnightblue" points="386.147,-25.9882 377.702,-19.5914 380.315,-29.8589 386.147,-25.9882"/>
</g>
<!-- Node21&#45;&gt;Node9 -->
<g id="edge31" class="edge"><title>Node21&#45;&gt;Node9</title>
<path fill="none" stroke="midnightblue" d="M388.115,-112.444C313.169,-101.17 183.594,-81.6799 121.364,-72.3193"/>
<polygon fill="midnightblue" stroke="midnightblue" points="121.673,-68.8265 111.263,-70.8 120.631,-75.7486 121.673,-68.8265"/>
</g>
<!-- Node22&#45;&gt;Node21 -->
<g id="edge33" class="edge"><title>Node22&#45;&gt;Node21</title>
<path fill="none" stroke="midnightblue" d="M907.398,-169.495C904.226,-168.949 901.061,-168.441 898,-168 730.709,-143.895 684.928,-151.179 512.889,-132.05"/>
<polygon fill="midnightblue" stroke="midnightblue" points="513.054,-128.546 502.725,-130.905 512.271,-135.502 513.054,-128.546"/>
</g>
<!-- Node22&#45;&gt;Node4 -->
<g id="edge34" class="edge"><title>Node22&#45;&gt;Node4</title>
<path fill="none" stroke="midnightblue" d="M926.737,-168.368C888.342,-149.171 795.684,-102.842 750.148,-80.074"/>
<polygon fill="midnightblue" stroke="midnightblue" points="751.692,-76.9331 741.183,-75.5914 748.562,-83.1941 751.692,-76.9331"/>
</g>
<!-- Node23&#45;&gt;Node21 -->
<g id="edge36" class="edge"><title>Node23&#45;&gt;Node21</title>
<path fill="none" stroke="midnightblue" d="M489.248,-168.083C481.53,-160.22 470.095,-148.569 460.783,-139.081"/>
<polygon fill="midnightblue" stroke="midnightblue" points="463.092,-136.436 453.589,-131.751 458.096,-141.34 463.092,-136.436"/>
</g>
<!-- Node23&#45;&gt;Node4 -->
<g id="edge37" class="edge"><title>Node23&#45;&gt;Node4</title>
<path fill="none" stroke="midnightblue" d="M529.931,-168.493C556.84,-160.732 595.966,-148.04 628,-132 656.588,-117.686 686.659,-96.11 705.367,-81.7951"/>
<polygon fill="midnightblue" stroke="midnightblue" points="707.596,-84.4951 713.349,-75.5979 703.303,-78.9659 707.596,-84.4951"/>
</g>
<!-- Node24&#45;&gt;Node21 -->
<g id="edge39" class="edge"><title>Node24&#45;&gt;Node21</title>
<path fill="none" stroke="midnightblue" d="M788.797,-169.28C785.821,-168.841 782.872,-168.412 780,-168 778.35,-167.763 610.067,-145.164 512.674,-132.087"/>
<polygon fill="midnightblue" stroke="midnightblue" points="512.988,-128.598 502.611,-130.736 512.056,-135.535 512.988,-128.598"/>
</g>
<!-- Node24&#45;&gt;Node4 -->
<g id="edge40" class="edge"><title>Node24&#45;&gt;Node4</title>
<path fill="none" stroke="midnightblue" d="M829.976,-168.368C810.662,-149.894 765.079,-106.293 740.459,-82.7436"/>
<polygon fill="midnightblue" stroke="midnightblue" points="742.628,-79.9744 732.982,-75.5914 737.789,-85.0329 742.628,-79.9744"/>
</g>
<!-- Node25&#45;&gt;Node21 -->
<g id="edge42" class="edge"><title>Node25&#45;&gt;Node21</title>
<path fill="none" stroke="midnightblue" d="M1190.8,-172.666C1175.95,-171.039 1158.68,-169.276 1143,-168 866.307,-145.472 793.329,-158.406 512.779,-131.994"/>
<polygon fill="midnightblue" stroke="midnightblue" points="512.997,-128.499 502.711,-131.038 512.335,-135.467 512.997,-128.499"/>
</g>
<!-- Node25&#45;&gt;Node4 -->
<g id="edge43" class="edge"><title>Node25&#45;&gt;Node4</title>
<path fill="none" stroke="midnightblue" d="M1190.94,-168.911C1097.93,-148.611 855.373,-95.6726 761.689,-75.2257"/>
<polygon fill="midnightblue" stroke="midnightblue" points="762.312,-71.7795 751.796,-73.0666 760.82,-78.6185 762.312,-71.7795"/>
</g>
<!-- Node26 -->
<g id="node26" class="node"><title>Node26</title>
<polygon fill="white" stroke="#bfbfbf" points="1201.5,-112.5 1201.5,-131.5 1254.5,-131.5 1254.5,-112.5 1201.5,-112.5"/>
<text text-anchor="middle" x="1228" y="-119.5" font-family="Helvetica,sans-Serif" font-size="10.00">QVector</text>
</g>
<!-- Node25&#45;&gt;Node26 -->
<g id="edge44" class="edge"><title>Node25&#45;&gt;Node26</title>
<path fill="none" stroke="midnightblue" d="M1228,-168.083C1228,-161.006 1228,-150.861 1228,-141.986"/>
<polygon fill="midnightblue" stroke="midnightblue" points="1231.5,-141.751 1228,-131.751 1224.5,-141.751 1231.5,-141.751"/>
</g>
<!-- Node29&#45;&gt;Node27 -->
<g id="edge54" class="edge"><title>Node29&#45;&gt;Node27</title>
<path fill="none" stroke="midnightblue" d="M1256.44,-224.324C1266.15,-216.263 1280.82,-204.077 1292.5,-194.369"/>
<polygon fill="midnightblue" stroke="midnightblue" points="1294.91,-196.916 1300.37,-187.834 1290.44,-191.532 1294.91,-196.916"/>
</g>
<!-- Node29&#45;&gt;Node25 -->
<g id="edge55" class="edge"><title>Node29&#45;&gt;Node25</title>
<path fill="none" stroke="midnightblue" d="M1243.03,-224.083C1240.62,-216.849 1237.14,-206.409 1234.13,-197.397"/>
<polygon fill="midnightblue" stroke="midnightblue" points="1237.4,-196.131 1230.92,-187.751 1230.76,-198.345 1237.4,-196.131"/>
</g>
</g>
</svg>
