<?xml version="1.0" encoding="UTF-8" standalone="no"?>
<!DOCTYPE svg PUBLIC "-//W3C//DTD SVG 1.1//EN"
 "http://www.w3.org/Graphics/SVG/1.1/DTD/svg11.dtd">
<!-- Generated by graphviz version 2.30.1 (20130214.1330)
 -->
<!-- Title: Hoofdprogramma/include/features.h Pages: 1 -->
<svg width="795pt" height="448pt"
 viewBox="0.00 0.00 795.00 448.00" xmlns="http://www.w3.org/2000/svg" xmlns:xlink="http://www.w3.org/1999/xlink">
<g id="graph0" class="graph" transform="scale(1 1) rotate(0) translate(4 444)">
<title>Hoofdprogramma/include/features.h</title>
<polygon fill="white" stroke="white" points="-4,5 -4,-444 792,-444 792,5 -4,5"/>
<!-- Node1 -->
<g id="node1" class="node"><title>Node1</title>
<polygon fill="#bfbfbf" stroke="black" points="250,-409 250,-439 374,-439 374,-409 250,-409"/>
<text text-anchor="start" x="258" y="-427" font-family="Helvetica,sans-Serif" font-size="10.00">Hoofdprogramma/include</text>
<text text-anchor="middle" x="312" y="-416" font-family="Helvetica,sans-Serif" font-size="10.00">/features.h</text>
</g>
<!-- Node2 -->
<g id="node2" class="node"><title>Node2</title>
<g id="a_node2"><a xlink:href="../../d6/dda/reader_8h.xhtml" target="_top" xlink:title="Hoofdprogramma/include\l/reader.h">
<polygon fill="white" stroke="black" points="205,-341 205,-371 329,-371 329,-341 205,-341"/>
<text text-anchor="start" x="213" y="-359" font-family="Helvetica,sans-Serif" font-size="10.00">Hoofdprogramma/include</text>
<text text-anchor="middle" x="267" y="-348" font-family="Helvetica,sans-Serif" font-size="10.00">/reader.h</text>
</a>
</g>
</g>
<!-- Node1&#45;&gt;Node2 -->
<g id="edge1" class="edge"><title>Node1&#45;&gt;Node2</title>
<path fill="none" stroke="midnightblue" d="M296.532,-400.314C289.97,-390.689 282.521,-379.763 276.745,-371.293"/>
<polygon fill="midnightblue" stroke="midnightblue" points="293.71,-402.388 302.236,-408.679 299.494,-398.445 293.71,-402.388"/>
</g>
<!-- Node3 -->
<g id="node3" class="node"><title>Node3</title>
<g id="a_node3"><a xlink:href="../../d4/d05/json_8h.xhtml" target="_top" xlink:title="Hoofdprogramma/include\l/json.h">
<polygon fill="white" stroke="black" points="250,-273 250,-303 374,-303 374,-273 250,-273"/>
<text text-anchor="start" x="258" y="-291" font-family="Helvetica,sans-Serif" font-size="10.00">Hoofdprogramma/include</text>
<text text-anchor="middle" x="312" y="-280" font-family="Helvetica,sans-Serif" font-size="10.00">/json.h</text>
</a>
</g>
</g>
<!-- Node1&#45;&gt;Node3 -->
<g id="edge14" class="edge"><title>Node1&#45;&gt;Node3</title>
<path fill="none" stroke="midnightblue" d="M326.575,-400.099C331.18,-391.612 335.673,-381.689 338,-372 341.322,-358.171 341.322,-353.829 338,-340 334.797,-326.664 327.492,-312.886 321.438,-303.018"/>
<polygon fill="midnightblue" stroke="midnightblue" points="323.414,-398.573 321.438,-408.982 329.474,-402.078 323.414,-398.573"/>
</g>
<!-- Node2&#45;&gt;Node3 -->
<g id="edge2" class="edge"><title>Node2&#45;&gt;Node3</title>
<path fill="none" stroke="midnightblue" d="M282.468,-332.314C289.03,-322.689 296.479,-311.763 302.255,-303.293"/>
<polygon fill="midnightblue" stroke="midnightblue" points="279.506,-330.445 276.764,-340.679 285.29,-334.388 279.506,-330.445"/>
</g>
<!-- Node4 -->
<g id="node4" class="node"><title>Node4</title>
<g id="a_node4"><a xlink:href="../../d8/d2e/json_command_8h.xhtml" target="_top" xlink:title="Hoofdprogramma/ourProgram\l/src/jsonCommand.h">
<polygon fill="white" stroke="black" points="240.5,-205 240.5,-235 383.5,-235 383.5,-205 240.5,-205"/>
<text text-anchor="start" x="248.5" y="-223" font-family="Helvetica,sans-Serif" font-size="10.00">Hoofdprogramma/ourProgram</text>
<text text-anchor="middle" x="312" y="-212" font-family="Helvetica,sans-Serif" font-size="10.00">/src/jsonCommand.h</text>
</a>
</g>
</g>
<!-- Node3&#45;&gt;Node4 -->
<g id="edge3" class="edge"><title>Node3&#45;&gt;Node4</title>
<path fill="none" stroke="midnightblue" d="M312,-262.532C312,-253.361 312,-243.245 312,-235.293"/>
<polygon fill="midnightblue" stroke="midnightblue" points="308.5,-262.679 312,-272.679 315.5,-262.679 308.5,-262.679"/>
</g>
<!-- Node5 -->
<g id="node5" class="node"><title>Node5</title>
<g id="a_node5"><a xlink:href="../../dd/dd2/json_command_8cpp.xhtml" target="_top" xlink:title="Hoofdprogramma/ourProgram\l/src/jsonCommand.cpp">
<polygon fill="white" stroke="black" points="160.5,-137 160.5,-167 303.5,-167 303.5,-137 160.5,-137"/>
<text text-anchor="start" x="168.5" y="-155" font-family="Helvetica,sans-Serif" font-size="10.00">Hoofdprogramma/ourProgram</text>
<text text-anchor="middle" x="232" y="-144" font-family="Helvetica,sans-Serif" font-size="10.00">/src/jsonCommand.cpp</text>
</a>
</g>
</g>
<!-- Node4&#45;&gt;Node5 -->
<g id="edge4" class="edge"><title>Node4&#45;&gt;Node5</title>
<path fill="none" stroke="midnightblue" d="M286.92,-198.309C274.597,-188.143 260.068,-176.156 249.05,-167.066"/>
<polygon fill="midnightblue" stroke="midnightblue" points="284.7,-201.015 294.641,-204.679 289.155,-195.615 284.7,-201.015"/>
</g>
<!-- Node6 -->
<g id="node6" class="node"><title>Node6</title>
<g id="a_node6"><a xlink:href="../../d4/d51/json_protocol_8h.xhtml" target="_top" xlink:title="Hoofdprogramma/ourProgram\l/src/jsonProtocol.h">
<polygon fill="white" stroke="black" points="321.5,-137 321.5,-167 464.5,-167 464.5,-137 321.5,-137"/>
<text text-anchor="start" x="329.5" y="-155" font-family="Helvetica,sans-Serif" font-size="10.00">Hoofdprogramma/ourProgram</text>
<text text-anchor="middle" x="393" y="-144" font-family="Helvetica,sans-Serif" font-size="10.00">/src/jsonProtocol.h</text>
</a>
</g>
</g>
<!-- Node4&#45;&gt;Node6 -->
<g id="edge5" class="edge"><title>Node4&#45;&gt;Node6</title>
<path fill="none" stroke="midnightblue" d="M337.393,-198.309C349.87,-188.143 364.581,-176.156 375.737,-167.066"/>
<polygon fill="midnightblue" stroke="midnightblue" points="335.117,-195.649 329.576,-204.679 339.539,-201.076 335.117,-195.649"/>
</g>
<!-- Node7 -->
<g id="node7" class="node"><title>Node7</title>
<g id="a_node7"><a xlink:href="../../d8/d25/json_protocol_8cpp.xhtml" target="_top" xlink:title="Hoofdprogramma/ourProgram\l/src/jsonProtocol.cpp">
<polygon fill="white" stroke="black" points="-0.5,-69 -0.5,-99 142.5,-99 142.5,-69 -0.5,-69"/>
<text text-anchor="start" x="7.5" y="-87" font-family="Helvetica,sans-Serif" font-size="10.00">Hoofdprogramma/ourProgram</text>
<text text-anchor="middle" x="71" y="-76" font-family="Helvetica,sans-Serif" font-size="10.00">/src/jsonProtocol.cpp</text>
</a>
</g>
</g>
<!-- Node6&#45;&gt;Node7 -->
<g id="edge6" class="edge"><title>Node6&#45;&gt;Node7</title>
<path fill="none" stroke="midnightblue" d="M314.196,-134.848C260.731,-123.889 190.739,-109.543 139.577,-99.0561"/>
<polygon fill="midnightblue" stroke="midnightblue" points="313.819,-138.343 324.318,-136.922 315.224,-131.486 313.819,-138.343"/>
</g>
<!-- Node8 -->
<g id="node8" class="node"><title>Node8</title>
<g id="a_node8"><a xlink:href="../../d4/ddd/json_translate_capsule_8h.xhtml" target="_top" xlink:title="Hoofdprogramma/ourProgram\l/src/jsonTranslateCapsule.h">
<polygon fill="white" stroke="black" points="160.5,-69 160.5,-99 303.5,-99 303.5,-69 160.5,-69"/>
<text text-anchor="start" x="168.5" y="-87" font-family="Helvetica,sans-Serif" font-size="10.00">Hoofdprogramma/ourProgram</text>
<text text-anchor="middle" x="232" y="-76" font-family="Helvetica,sans-Serif" font-size="10.00">/src/jsonTranslateCapsule.h</text>
</a>
</g>
</g>
<!-- Node6&#45;&gt;Node8 -->
<g id="edge7" class="edge"><title>Node6&#45;&gt;Node8</title>
<path fill="none" stroke="midnightblue" d="M349.166,-133.031C323.057,-122.328 290.403,-108.942 266.205,-99.0218"/>
<polygon fill="midnightblue" stroke="midnightblue" points="347.881,-136.287 358.461,-136.841 350.536,-129.81 347.881,-136.287"/>
</g>
<!-- Node10 -->
<g id="node10" class="node"><title>Node10</title>
<g id="a_node10"><a xlink:href="../../d6/db7/main_capsule_8h.xhtml" target="_top" xlink:title="Hoofdprogramma/ourProgram\l/src/mainCapsule.h">
<polygon fill="white" stroke="black" points="321.5,-69 321.5,-99 464.5,-99 464.5,-69 321.5,-69"/>
<text text-anchor="start" x="329.5" y="-87" font-family="Helvetica,sans-Serif" font-size="10.00">Hoofdprogramma/ourProgram</text>
<text text-anchor="middle" x="393" y="-76" font-family="Helvetica,sans-Serif" font-size="10.00">/src/mainCapsule.h</text>
</a>
</g>
</g>
<!-- Node6&#45;&gt;Node10 -->
<g id="edge9" class="edge"><title>Node6&#45;&gt;Node10</title>
<path fill="none" stroke="midnightblue" d="M393,-126.532C393,-117.361 393,-107.245 393,-99.2931"/>
<polygon fill="midnightblue" stroke="midnightblue" points="389.5,-126.679 393,-136.679 396.5,-126.679 389.5,-126.679"/>
</g>
<!-- Node12 -->
<g id="node12" class="node"><title>Node12</title>
<g id="a_node12"><a xlink:href="../../db/d7e/tcp_top_capsule_8h.xhtml" target="_top" xlink:title="Hoofdprogramma/ourProgram\l/src/tcpTopCapsule.h">
<polygon fill="white" stroke="black" points="482.5,-69 482.5,-99 625.5,-99 625.5,-69 482.5,-69"/>
<text text-anchor="start" x="490.5" y="-87" font-family="Helvetica,sans-Serif" font-size="10.00">Hoofdprogramma/ourProgram</text>
<text text-anchor="middle" x="554" y="-76" font-family="Helvetica,sans-Serif" font-size="10.00">/src/tcpTopCapsule.h</text>
</a>
</g>
</g>
<!-- Node6&#45;&gt;Node12 -->
<g id="edge11" class="edge"><title>Node6&#45;&gt;Node12</title>
<path fill="none" stroke="midnightblue" d="M436.834,-133.031C462.943,-122.328 495.597,-108.942 519.795,-99.0218"/>
<polygon fill="midnightblue" stroke="midnightblue" points="435.464,-129.81 427.539,-136.841 438.119,-136.287 435.464,-129.81"/>
</g>
<!-- Node14 -->
<g id="node14" class="node"><title>Node14</title>
<g id="a_node14"><a xlink:href="../../dd/d42/top_cap_8cpp.xhtml" target="_top" xlink:title="Hoofdprogramma/ourProgram\l/src/topCap.cpp">
<polygon fill="white" stroke="black" points="643.5,-69 643.5,-99 786.5,-99 786.5,-69 643.5,-69"/>
<text text-anchor="start" x="651.5" y="-87" font-family="Helvetica,sans-Serif" font-size="10.00">Hoofdprogramma/ourProgram</text>
<text text-anchor="middle" x="715" y="-76" font-family="Helvetica,sans-Serif" font-size="10.00">/src/topCap.cpp</text>
</a>
</g>
</g>
<!-- Node6&#45;&gt;Node14 -->
<g id="edge13" class="edge"><title>Node6&#45;&gt;Node14</title>
<path fill="none" stroke="midnightblue" d="M471.804,-134.848C525.269,-123.889 595.261,-109.543 646.423,-99.0561"/>
<polygon fill="midnightblue" stroke="midnightblue" points="470.776,-131.486 461.682,-136.922 472.181,-138.343 470.776,-131.486"/>
</g>
<!-- Node9 -->
<g id="node9" class="node"><title>Node9</title>
<g id="a_node9"><a xlink:href="../../d0/d63/json_translate_capsule_8cpp.xhtml" target="_top" xlink:title="Hoofdprogramma/ourProgram\l/src/jsonTranslateCapsule.cpp">
<polygon fill="white" stroke="black" points="155,-1 155,-31 303,-31 303,-1 155,-1"/>
<text text-anchor="start" x="163" y="-19" font-family="Helvetica,sans-Serif" font-size="10.00">Hoofdprogramma/ourProgram</text>
<text text-anchor="middle" x="229" y="-8" font-family="Helvetica,sans-Serif" font-size="10.00">/src/jsonTranslateCapsule.cpp</text>
</a>
</g>
</g>
<!-- Node8&#45;&gt;Node9 -->
<g id="edge8" class="edge"><title>Node8&#45;&gt;Node9</title>
<path fill="none" stroke="midnightblue" d="M230.888,-58.5322C230.471,-49.3606 230.011,-39.2449 229.65,-31.2931"/>
<polygon fill="midnightblue" stroke="midnightblue" points="227.398,-58.8483 231.349,-68.679 234.391,-58.5303 227.398,-58.8483"/>
</g>
<!-- Node11 -->
<g id="node11" class="node"><title>Node11</title>
<g id="a_node11"><a xlink:href="../../d4/d75/main_capsule_8cpp.xhtml" target="_top" xlink:title="Hoofdprogramma/ourProgram\l/src/mainCapsule.cpp">
<polygon fill="white" stroke="black" points="321.5,-1 321.5,-31 464.5,-31 464.5,-1 321.5,-1"/>
<text text-anchor="start" x="329.5" y="-19" font-family="Helvetica,sans-Serif" font-size="10.00">Hoofdprogramma/ourProgram</text>
<text text-anchor="middle" x="393" y="-8" font-family="Helvetica,sans-Serif" font-size="10.00">/src/mainCapsule.cpp</text>
</a>
</g>
</g>
<!-- Node10&#45;&gt;Node11 -->
<g id="edge10" class="edge"><title>Node10&#45;&gt;Node11</title>
<path fill="none" stroke="midnightblue" d="M393,-58.5322C393,-49.3606 393,-39.2449 393,-31.2931"/>
<polygon fill="midnightblue" stroke="midnightblue" points="389.5,-58.6789 393,-68.679 396.5,-58.679 389.5,-58.6789"/>
</g>
<!-- Node13 -->
<g id="node13" class="node"><title>Node13</title>
<g id="a_node13"><a xlink:href="../../d9/d5c/tcp_top_capsule_8cpp.xhtml" target="_top" xlink:title="Hoofdprogramma/ourProgram\l/src/tcpTopCapsule.cpp">
<polygon fill="white" stroke="black" points="482.5,-1 482.5,-31 625.5,-31 625.5,-1 482.5,-1"/>
<text text-anchor="start" x="490.5" y="-19" font-family="Helvetica,sans-Serif" font-size="10.00">Hoofdprogramma/ourProgram</text>
<text text-anchor="middle" x="554" y="-8" font-family="Helvetica,sans-Serif" font-size="10.00">/src/tcpTopCapsule.cpp</text>
</a>
</g>
</g>
<!-- Node12&#45;&gt;Node13 -->
<g id="edge12" class="edge"><title>Node12&#45;&gt;Node13</title>
<path fill="none" stroke="midnightblue" d="M554,-58.5322C554,-49.3606 554,-39.2449 554,-31.2931"/>
<polygon fill="midnightblue" stroke="midnightblue" points="550.5,-58.6789 554,-68.679 557.5,-58.679 550.5,-58.6789"/>
</g>
</g>
</svg>
