<?xml version="1.0" encoding="UTF-8" standalone="no"?>
<!DOCTYPE svg PUBLIC "-//W3C//DTD SVG 1.1//EN"
 "http://www.w3.org/Graphics/SVG/1.1/DTD/svg11.dtd">
<!-- Generated by graphviz version 2.30.1 (20130214.1330)
 -->
<!-- Title: Ui_DisplayLogs Pages: 1 -->
<svg width="122pt" height="248pt"
 viewBox="0.00 0.00 122.00 248.00" xmlns="http://www.w3.org/2000/svg" xmlns:xlink="http://www.w3.org/1999/xlink">
<g id="graph0" class="graph" transform="scale(1 1) rotate(0) translate(4 244)">
<title>Ui_DisplayLogs</title>
<polygon fill="white" stroke="white" points="-4,5 -4,-244 119,-244 119,5 -4,5"/>
<!-- Node1 -->
<g id="node1" class="node"><title>Node1</title>
<polygon fill="#bfbfbf" stroke="black" points="0,-94.5 0,-239.5 114,-239.5 114,-94.5 0,-94.5"/>
<text text-anchor="middle" x="57" y="-227.5" font-family="Helvetica,sans-Serif" font-size="10.00">Ui_DisplayLogs</text>
<polyline fill="none" stroke="black" points="0,-220.5 114,-220.5 "/>
<text text-anchor="start" x="8" y="-208.5" font-family="Helvetica,sans-Serif" font-size="10.00">+ pbRead</text>
<text text-anchor="start" x="8" y="-197.5" font-family="Helvetica,sans-Serif" font-size="10.00">+ lvLogs</text>
<text text-anchor="start" x="8" y="-186.5" font-family="Helvetica,sans-Serif" font-size="10.00">+ pbCloseDisplayLogs</text>
<text text-anchor="start" x="8" y="-175.5" font-family="Helvetica,sans-Serif" font-size="10.00">+ verticalLayout_2</text>
<text text-anchor="start" x="8" y="-164.5" font-family="Helvetica,sans-Serif" font-size="10.00">+ verticalLayout</text>
<text text-anchor="start" x="8" y="-153.5" font-family="Helvetica,sans-Serif" font-size="10.00">+ horizontalLayout</text>
<polyline fill="none" stroke="black" points="0,-146.5 114,-146.5 "/>
<text text-anchor="start" x="8" y="-134.5" font-family="Helvetica,sans-Serif" font-size="10.00">+ setupUi()</text>
<text text-anchor="start" x="8" y="-123.5" font-family="Helvetica,sans-Serif" font-size="10.00">+ retranslateUi()</text>
<text text-anchor="start" x="8" y="-112.5" font-family="Helvetica,sans-Serif" font-size="10.00">+ setupUi()</text>
<text text-anchor="start" x="8" y="-101.5" font-family="Helvetica,sans-Serif" font-size="10.00">+ retranslateUi()</text>
</g>
<!-- Node2 -->
<g id="node2" class="node"><title>Node2</title>
<g id="a_node2"><a xlink:href="../../d8/d0f/class_ui_1_1_display_logs.xhtml" target="_top" xlink:title="{Ui::DisplayLogs\n||}">
<polygon fill="white" stroke="black" points="14.5,-0.5 14.5,-57.5 99.5,-57.5 99.5,-0.5 14.5,-0.5"/>
<text text-anchor="middle" x="57" y="-45.5" font-family="Helvetica,sans-Serif" font-size="10.00">Ui::DisplayLogs</text>
<polyline fill="none" stroke="black" points="14.5,-38.5 99.5,-38.5 "/>
<text text-anchor="middle" x="57" y="-26.5" font-family="Helvetica,sans-Serif" font-size="10.00"> </text>
<polyline fill="none" stroke="black" points="14.5,-19.5 99.5,-19.5 "/>
<text text-anchor="middle" x="57" y="-7.5" font-family="Helvetica,sans-Serif" font-size="10.00"> </text>
</a>
</g>
</g>
<!-- Node1&#45;&gt;Node2 -->
<g id="edge1" class="edge"><title>Node1&#45;&gt;Node2</title>
<path fill="none" stroke="midnightblue" d="M50.3717,-84.3871C50.5441,-74.8611 50.8996,-65.7068 51.4384,-57.7138"/>
<polygon fill="none" stroke="midnightblue" points="46.8717,-84.3766 50.2583,-94.4155 53.8712,-84.4558 46.8717,-84.3766"/>
</g>
<!-- Node1&#45;&gt;Node2 -->
<g id="edge2" class="edge"><title>Node1&#45;&gt;Node2</title>
<path fill="none" stroke="midnightblue" d="M63.6283,-84.3871C63.4559,-74.8611 63.1004,-65.7068 62.5616,-57.7138"/>
<polygon fill="none" stroke="midnightblue" points="60.1288,-84.4558 63.7417,-94.4155 67.1283,-84.3766 60.1288,-84.4558"/>
</g>
</g>
</svg>
