<?xml version="1.0" encoding="UTF-8" standalone="no"?>
<!DOCTYPE svg PUBLIC "-//W3C//DTD SVG 1.1//EN"
 "http://www.w3.org/Graphics/SVG/1.1/DTD/svg11.dtd">
<!-- Generated by graphviz version 2.30.1 (20130214.1330)
 -->
<!-- Title: jsonCommand Pages: 1 -->
<svg width="118pt" height="96pt"
 viewBox="0.00 0.00 118.00 96.00" xmlns="http://www.w3.org/2000/svg" xmlns:xlink="http://www.w3.org/1999/xlink">
<g id="graph0" class="graph" transform="scale(1 1) rotate(0) translate(4 92)">
<title>jsonCommand</title>
<polygon fill="white" stroke="white" points="-4,5 -4,-92 115,-92 115,5 -4,5"/>
<!-- Node1 -->
<g id="node1" class="node"><title>Node1</title>
<polygon fill="#bfbfbf" stroke="black" points="-0.5,-0.5 -0.5,-19.5 78.5,-19.5 78.5,-0.5 -0.5,-0.5"/>
<text text-anchor="middle" x="39" y="-7.5" font-family="Helvetica,sans-Serif" font-size="10.00">jsonCommand</text>
</g>
<!-- Node2 -->
<g id="node2" class="node"><title>Node2</title>
<g id="a_node2"><a xlink:href="../../df/dcf/class_json_1_1_value.xhtml" target="_top" xlink:title="Represents a JSON value.">
<polygon fill="white" stroke="black" points="5,-68.5 5,-87.5 73,-87.5 73,-68.5 5,-68.5"/>
<text text-anchor="middle" x="39" y="-75.5" font-family="Helvetica,sans-Serif" font-size="10.00">Json::Value</text>
</a>
</g>
</g>
<!-- Node2&#45;&gt;Node1 -->
<g id="edge1" class="edge"><title>Node2&#45;&gt;Node1</title>
<path fill="none" stroke="#9a32cd" stroke-dasharray="5,2" d="M39,-58.0413C39,-45.4724 39,-29.5631 39,-19.8411"/>
<polygon fill="#9a32cd" stroke="#9a32cd" points="35.5001,-58.3716 39,-68.3717 42.5001,-58.3717 35.5001,-58.3716"/>
<text text-anchor="middle" x="50" y="-41.5" font-family="Helvetica,sans-Serif" font-size="10.00"> data</text>
</g>
<!-- Node2&#45;&gt;Node2 -->
<g id="edge2" class="edge"><title>Node2&#45;&gt;Node2</title>
<path fill="none" stroke="#9a32cd" stroke-dasharray="5,2" d="M83.1476,-83.333C87.9245,-82.3094 91,-80.5317 91,-78 91,-73.9492 83.1268,-71.8289 73.0085,-71.639"/>
<polygon fill="#9a32cd" stroke="#9a32cd" points="82.6044,-79.87 73.0085,-84.361 83.3106,-86.8343 82.6044,-79.87"/>
<text text-anchor="middle" x="100.5" y="-75.5" font-family="Helvetica,sans-Serif" font-size="10.00"> null</text>
</g>
</g>
</svg>
