<?xml version="1.0" encoding="UTF-8" standalone="no"?>
<!DOCTYPE svg PUBLIC "-//W3C//DTD SVG 1.1//EN"
 "http://www.w3.org/Graphics/SVG/1.1/DTD/svg11.dtd">
<!-- Generated by graphviz version 2.30.1 (20130214.1330)
 -->
<!-- Title: Hoofdprogramma/ourProgram/src/RTSystem/ourProgram.h Pages: 1 -->
<svg width="163pt" height="96pt"
 viewBox="0.00 0.00 163.00 96.00" xmlns="http://www.w3.org/2000/svg" xmlns:xlink="http://www.w3.org/1999/xlink">
<g id="graph0" class="graph" transform="scale(1 1) rotate(0) translate(4 92)">
<title>Hoofdprogramma/ourProgram/src/RTSystem/ourProgram.h</title>
<polygon fill="white" stroke="white" points="-4,5 -4,-92 160,-92 160,5 -4,5"/>
<!-- Node1 -->
<g id="node1" class="node"><title>Node1</title>
<polygon fill="#bfbfbf" stroke="black" points="12.5,-57 12.5,-87 155.5,-87 155.5,-57 12.5,-57"/>
<text text-anchor="start" x="20.5" y="-75" font-family="Helvetica,sans-Serif" font-size="10.00">Hoofdprogramma/ourProgram</text>
<text text-anchor="middle" x="84" y="-64" font-family="Helvetica,sans-Serif" font-size="10.00">/src/RTSystem/ourProgram.h</text>
</g>
<!-- Node2 -->
<g id="node2" class="node"><title>Node2</title>
<polygon fill="white" stroke="#bfbfbf" points="0,-0.5 0,-19.5 82,-19.5 82,-0.5 0,-0.5"/>
<text text-anchor="middle" x="41" y="-7.5" font-family="Helvetica,sans-Serif" font-size="10.00">RTStructures.h</text>
</g>
<!-- Node1&#45;&gt;Node2 -->
<g id="edge1" class="edge"><title>Node1&#45;&gt;Node2</title>
<path fill="none" stroke="midnightblue" d="M73.8096,-56.7808C67.6256,-48.152 59.6965,-37.0882 53.1824,-27.9987"/>
<polygon fill="midnightblue" stroke="midnightblue" points="55.927,-25.8199 47.2569,-19.7305 50.2372,-29.8976 55.927,-25.8199"/>
</g>
<!-- Node3 -->
<g id="node3" class="node"><title>Node3</title>
<polygon fill="white" stroke="#bfbfbf" points="100,-0.5 100,-19.5 154,-19.5 154,-0.5 100,-0.5"/>
<text text-anchor="middle" x="127" y="-7.5" font-family="Helvetica,sans-Serif" font-size="10.00">iostream</text>
</g>
<!-- Node1&#45;&gt;Node3 -->
<g id="edge2" class="edge"><title>Node1&#45;&gt;Node3</title>
<path fill="none" stroke="midnightblue" d="M94.1904,-56.7808C100.374,-48.152 108.303,-37.0882 114.818,-27.9987"/>
<polygon fill="midnightblue" stroke="midnightblue" points="117.763,-29.8976 120.743,-19.7305 112.073,-25.8199 117.763,-29.8976"/>
</g>
</g>
</svg>
