<?xml version="1.0" encoding="UTF-8" standalone="no"?>
<!DOCTYPE svg PUBLIC "-//W3C//DTD SVG 1.1//EN"
 "http://www.w3.org/Graphics/SVG/1.1/DTD/svg11.dtd">
<!-- Generated by graphviz version 2.30.1 (20130214.1330)
 -->
<!-- Title: Hoofdprogramma/include/config.h Pages: 1 -->
<!--zoomable 584 -->
<svg id="main" version="1.1" xmlns="http://www.w3.org/2000/svg" xmlns:xlink="http://www.w3.org/1999/xlink" xml:space="preserve" onload="init(evt)">
        <defs>
                <circle id="rim" cx="0" cy="0" r="7"/>
                <circle id="rim2" cx="0" cy="0" r="3.5"/>
                <g id="zoomPlus">
                        <use xlink:href="#rim" fill="#404040">
                                <set attributeName="fill" to="#808080" begin="zoomplus.mouseover" end="zoomplus.mouseout"/>
                        </use>
                        <path d="M-4,0h8M0,-4v8" fill="none" stroke="white" stroke-width="1.5" pointer-events="none"/>
                </g>
                <g id="zoomMin">
                        <use xlink:href="#rim" fill="#404040">
                                <set attributeName="fill" to="#808080" begin="zoomminus.mouseover" end="zoomminus.mouseout"/>
                        </use>
                        <path d="M-4,0h8" fill="none" stroke="white" stroke-width="1.5" pointer-events="none"/>
                </g>
                <g id="dirArrow">
                        <path fill="none" stroke="white" stroke-width="1.5" d="M0,-3.0v7 M-2.5,-0.5L0,-3.0L2.5,-0.5"/>
                </g>
               <g id="resetDef">
                       <use xlink:href="#rim2" fill="#404040">
                               <set attributeName="fill" to="#808080" begin="reset.mouseover" end="reset.mouseout"/>
                       </use>
               </g>
        </defs>

<script type="text/javascript">
var viewWidth = 795;
var viewHeight = 584;
var sectionId = 'dynsection-0';
</script>
<script xlink:href="../../svgpan.js"/>
<svg id="graph" class="graph">
<g id="viewport">
<title>Hoofdprogramma/include/config.h</title>
<polygon fill="white" stroke="white" points="-4,5 -4,-580 792,-580 792,5 -4,5"/>
<!-- Node1 -->
<g id="node1" class="node"><title>Node1</title>
<polygon fill="#bfbfbf" stroke="black" points="195,-545 195,-575 319,-575 319,-545 195,-545"/>
<text text-anchor="start" x="203" y="-563" font-family="Helvetica,sans-Serif" font-size="10.00">Hoofdprogramma/include</text>
<text text-anchor="middle" x="257" y="-552" font-family="Helvetica,sans-Serif" font-size="10.00">/config.h</text>
</g>
<!-- Node2 -->
<g id="node2" class="node"><title>Node2</title>
<g id="a_node2"><a xlink:href="../../d3/dea/autolink_8h.xhtml" target="_top" xlink:title="Hoofdprogramma/include\l/autolink.h">
<polygon fill="white" stroke="black" points="115,-477 115,-507 239,-507 239,-477 115,-477"/>
<text text-anchor="start" x="123" y="-495" font-family="Helvetica,sans-Serif" font-size="10.00">Hoofdprogramma/include</text>
<text text-anchor="middle" x="177" y="-484" font-family="Helvetica,sans-Serif" font-size="10.00">/autolink.h</text>
</a>
</g>
</g>
<!-- Node1&#45;&gt;Node2 -->
<g id="edge1" class="edge"><title>Node1&#45;&gt;Node2</title>
<path fill="none" stroke="midnightblue" d="M231.92,-538.309C219.597,-528.143 205.068,-516.156 194.05,-507.066"/>
<polygon fill="midnightblue" stroke="midnightblue" points="229.7,-541.015 239.641,-544.679 234.155,-535.615 229.7,-541.015"/>
</g>
<!-- Node15 -->
<g id="node15" class="node"><title>Node15</title>
<g id="a_node15"><a xlink:href="../../d2/d84/forwards_8h.xhtml" target="_top" xlink:title="Hoofdprogramma/include\l/forwards.h">
<polygon fill="white" stroke="black" points="275,-477 275,-507 399,-507 399,-477 275,-477"/>
<text text-anchor="start" x="283" y="-495" font-family="Helvetica,sans-Serif" font-size="10.00">Hoofdprogramma/include</text>
<text text-anchor="middle" x="337" y="-484" font-family="Helvetica,sans-Serif" font-size="10.00">/forwards.h</text>
</a>
</g>
</g>
<!-- Node1&#45;&gt;Node15 -->
<g id="edge15" class="edge"><title>Node1&#45;&gt;Node15</title>
<path fill="none" stroke="midnightblue" d="M282.08,-538.309C294.403,-528.143 308.932,-516.156 319.95,-507.066"/>
<polygon fill="midnightblue" stroke="midnightblue" points="279.845,-535.615 274.359,-544.679 284.3,-541.015 279.845,-535.615"/>
</g>
<!-- Node2&#45;&gt;Node2 -->
<g id="edge2" class="edge"><title>Node2&#45;&gt;Node2</title>
<path fill="none" stroke="midnightblue" d="M249.032,-501.242C253.986,-499.122 257,-496.041 257,-492 257,-485.691 249.655,-481.724 239.055,-480.097"/>
<polygon fill="midnightblue" stroke="midnightblue" points="247.815,-497.944 239.055,-503.903 249.619,-504.708 247.815,-497.944"/>
</g>
<!-- Node3 -->
<g id="node3" class="node"><title>Node3</title>
<g id="a_node3"><a xlink:href="../../d4/d05/json_8h.xhtml" target="_top" xlink:title="Hoofdprogramma/include\l/json.h">
<polygon fill="white" stroke="black" points="250,-273 250,-303 374,-303 374,-273 250,-273"/>
<text text-anchor="start" x="258" y="-291" font-family="Helvetica,sans-Serif" font-size="10.00">Hoofdprogramma/include</text>
<text text-anchor="middle" x="312" y="-280" font-family="Helvetica,sans-Serif" font-size="10.00">/json.h</text>
</a>
</g>
</g>
<!-- Node2&#45;&gt;Node3 -->
<g id="edge3" class="edge"><title>Node2&#45;&gt;Node3</title>
<path fill="none" stroke="midnightblue" d="M180.174,-466.599C185.599,-433.98 199.514,-376.095 233,-340 247.212,-324.681 266.962,-311.931 283.159,-303.011"/>
<polygon fill="midnightblue" stroke="midnightblue" points="176.693,-466.211 178.644,-476.625 183.613,-467.267 176.693,-466.211"/>
</g>
<!-- Node4 -->
<g id="node4" class="node"><title>Node4</title>
<g id="a_node4"><a xlink:href="../../d8/d2e/json_command_8h.xhtml" target="_top" xlink:title="Hoofdprogramma/ourProgram\l/src/jsonCommand.h">
<polygon fill="white" stroke="black" points="240.5,-205 240.5,-235 383.5,-235 383.5,-205 240.5,-205"/>
<text text-anchor="start" x="248.5" y="-223" font-family="Helvetica,sans-Serif" font-size="10.00">Hoofdprogramma/ourProgram</text>
<text text-anchor="middle" x="312" y="-212" font-family="Helvetica,sans-Serif" font-size="10.00">/src/jsonCommand.h</text>
</a>
</g>
</g>
<!-- Node3&#45;&gt;Node4 -->
<g id="edge4" class="edge"><title>Node3&#45;&gt;Node4</title>
<path fill="none" stroke="midnightblue" d="M312,-262.532C312,-253.361 312,-243.245 312,-235.293"/>
<polygon fill="midnightblue" stroke="midnightblue" points="308.5,-262.679 312,-272.679 315.5,-262.679 308.5,-262.679"/>
</g>
<!-- Node5 -->
<g id="node5" class="node"><title>Node5</title>
<g id="a_node5"><a xlink:href="../../dd/dd2/json_command_8cpp.xhtml" target="_top" xlink:title="Hoofdprogramma/ourProgram\l/src/jsonCommand.cpp">
<polygon fill="white" stroke="black" points="160.5,-137 160.5,-167 303.5,-167 303.5,-137 160.5,-137"/>
<text text-anchor="start" x="168.5" y="-155" font-family="Helvetica,sans-Serif" font-size="10.00">Hoofdprogramma/ourProgram</text>
<text text-anchor="middle" x="232" y="-144" font-family="Helvetica,sans-Serif" font-size="10.00">/src/jsonCommand.cpp</text>
</a>
</g>
</g>
<!-- Node4&#45;&gt;Node5 -->
<g id="edge5" class="edge"><title>Node4&#45;&gt;Node5</title>
<path fill="none" stroke="midnightblue" d="M286.92,-198.309C274.597,-188.143 260.068,-176.156 249.05,-167.066"/>
<polygon fill="midnightblue" stroke="midnightblue" points="284.7,-201.015 294.641,-204.679 289.155,-195.615 284.7,-201.015"/>
</g>
<!-- Node6 -->
<g id="node6" class="node"><title>Node6</title>
<g id="a_node6"><a xlink:href="../../d4/d51/json_protocol_8h.xhtml" target="_top" xlink:title="Hoofdprogramma/ourProgram\l/src/jsonProtocol.h">
<polygon fill="white" stroke="black" points="321.5,-137 321.5,-167 464.5,-167 464.5,-137 321.5,-137"/>
<text text-anchor="start" x="329.5" y="-155" font-family="Helvetica,sans-Serif" font-size="10.00">Hoofdprogramma/ourProgram</text>
<text text-anchor="middle" x="393" y="-144" font-family="Helvetica,sans-Serif" font-size="10.00">/src/jsonProtocol.h</text>
</a>
</g>
</g>
<!-- Node4&#45;&gt;Node6 -->
<g id="edge6" class="edge"><title>Node4&#45;&gt;Node6</title>
<path fill="none" stroke="midnightblue" d="M337.393,-198.309C349.87,-188.143 364.581,-176.156 375.737,-167.066"/>
<polygon fill="midnightblue" stroke="midnightblue" points="335.117,-195.649 329.576,-204.679 339.539,-201.076 335.117,-195.649"/>
</g>
<!-- Node7 -->
<g id="node7" class="node"><title>Node7</title>
<g id="a_node7"><a xlink:href="../../d8/d25/json_protocol_8cpp.xhtml" target="_top" xlink:title="Hoofdprogramma/ourProgram\l/src/jsonProtocol.cpp">
<polygon fill="white" stroke="black" points="-0.5,-69 -0.5,-99 142.5,-99 142.5,-69 -0.5,-69"/>
<text text-anchor="start" x="7.5" y="-87" font-family="Helvetica,sans-Serif" font-size="10.00">Hoofdprogramma/ourProgram</text>
<text text-anchor="middle" x="71" y="-76" font-family="Helvetica,sans-Serif" font-size="10.00">/src/jsonProtocol.cpp</text>
</a>
</g>
</g>
<!-- Node6&#45;&gt;Node7 -->
<g id="edge7" class="edge"><title>Node6&#45;&gt;Node7</title>
<path fill="none" stroke="midnightblue" d="M314.196,-134.848C260.731,-123.889 190.739,-109.543 139.577,-99.0561"/>
<polygon fill="midnightblue" stroke="midnightblue" points="313.819,-138.343 324.318,-136.922 315.224,-131.486 313.819,-138.343"/>
</g>
<!-- Node8 -->
<g id="node8" class="node"><title>Node8</title>
<g id="a_node8"><a xlink:href="../../d4/ddd/json_translate_capsule_8h.xhtml" target="_top" xlink:title="Hoofdprogramma/ourProgram\l/src/jsonTranslateCapsule.h">
<polygon fill="white" stroke="black" points="160.5,-69 160.5,-99 303.5,-99 303.5,-69 160.5,-69"/>
<text text-anchor="start" x="168.5" y="-87" font-family="Helvetica,sans-Serif" font-size="10.00">Hoofdprogramma/ourProgram</text>
<text text-anchor="middle" x="232" y="-76" font-family="Helvetica,sans-Serif" font-size="10.00">/src/jsonTranslateCapsule.h</text>
</a>
</g>
</g>
<!-- Node6&#45;&gt;Node8 -->
<g id="edge8" class="edge"><title>Node6&#45;&gt;Node8</title>
<path fill="none" stroke="midnightblue" d="M349.166,-133.031C323.057,-122.328 290.403,-108.942 266.205,-99.0218"/>
<polygon fill="midnightblue" stroke="midnightblue" points="347.881,-136.287 358.461,-136.841 350.536,-129.81 347.881,-136.287"/>
</g>
<!-- Node10 -->
<g id="node10" class="node"><title>Node10</title>
<g id="a_node10"><a xlink:href="../../d6/db7/main_capsule_8h.xhtml" target="_top" xlink:title="Hoofdprogramma/ourProgram\l/src/mainCapsule.h">
<polygon fill="white" stroke="black" points="321.5,-69 321.5,-99 464.5,-99 464.5,-69 321.5,-69"/>
<text text-anchor="start" x="329.5" y="-87" font-family="Helvetica,sans-Serif" font-size="10.00">Hoofdprogramma/ourProgram</text>
<text text-anchor="middle" x="393" y="-76" font-family="Helvetica,sans-Serif" font-size="10.00">/src/mainCapsule.h</text>
</a>
</g>
</g>
<!-- Node6&#45;&gt;Node10 -->
<g id="edge10" class="edge"><title>Node6&#45;&gt;Node10</title>
<path fill="none" stroke="midnightblue" d="M393,-126.532C393,-117.361 393,-107.245 393,-99.2931"/>
<polygon fill="midnightblue" stroke="midnightblue" points="389.5,-126.679 393,-136.679 396.5,-126.679 389.5,-126.679"/>
</g>
<!-- Node12 -->
<g id="node12" class="node"><title>Node12</title>
<g id="a_node12"><a xlink:href="../../db/d7e/tcp_top_capsule_8h.xhtml" target="_top" xlink:title="Hoofdprogramma/ourProgram\l/src/tcpTopCapsule.h">
<polygon fill="white" stroke="black" points="482.5,-69 482.5,-99 625.5,-99 625.5,-69 482.5,-69"/>
<text text-anchor="start" x="490.5" y="-87" font-family="Helvetica,sans-Serif" font-size="10.00">Hoofdprogramma/ourProgram</text>
<text text-anchor="middle" x="554" y="-76" font-family="Helvetica,sans-Serif" font-size="10.00">/src/tcpTopCapsule.h</text>
</a>
</g>
</g>
<!-- Node6&#45;&gt;Node12 -->
<g id="edge12" class="edge"><title>Node6&#45;&gt;Node12</title>
<path fill="none" stroke="midnightblue" d="M436.834,-133.031C462.943,-122.328 495.597,-108.942 519.795,-99.0218"/>
<polygon fill="midnightblue" stroke="midnightblue" points="435.464,-129.81 427.539,-136.841 438.119,-136.287 435.464,-129.81"/>
</g>
<!-- Node14 -->
<g id="node14" class="node"><title>Node14</title>
<g id="a_node14"><a xlink:href="../../dd/d42/top_cap_8cpp.xhtml" target="_top" xlink:title="Hoofdprogramma/ourProgram\l/src/topCap.cpp">
<polygon fill="white" stroke="black" points="643.5,-69 643.5,-99 786.5,-99 786.5,-69 643.5,-69"/>
<text text-anchor="start" x="651.5" y="-87" font-family="Helvetica,sans-Serif" font-size="10.00">Hoofdprogramma/ourProgram</text>
<text text-anchor="middle" x="715" y="-76" font-family="Helvetica,sans-Serif" font-size="10.00">/src/topCap.cpp</text>
</a>
</g>
</g>
<!-- Node6&#45;&gt;Node14 -->
<g id="edge14" class="edge"><title>Node6&#45;&gt;Node14</title>
<path fill="none" stroke="midnightblue" d="M471.804,-134.848C525.269,-123.889 595.261,-109.543 646.423,-99.0561"/>
<polygon fill="midnightblue" stroke="midnightblue" points="470.776,-131.486 461.682,-136.922 472.181,-138.343 470.776,-131.486"/>
</g>
<!-- Node9 -->
<g id="node9" class="node"><title>Node9</title>
<g id="a_node9"><a xlink:href="../../d0/d63/json_translate_capsule_8cpp.xhtml" target="_top" xlink:title="Hoofdprogramma/ourProgram\l/src/jsonTranslateCapsule.cpp">
<polygon fill="white" stroke="black" points="155,-1 155,-31 303,-31 303,-1 155,-1"/>
<text text-anchor="start" x="163" y="-19" font-family="Helvetica,sans-Serif" font-size="10.00">Hoofdprogramma/ourProgram</text>
<text text-anchor="middle" x="229" y="-8" font-family="Helvetica,sans-Serif" font-size="10.00">/src/jsonTranslateCapsule.cpp</text>
</a>
</g>
</g>
<!-- Node8&#45;&gt;Node9 -->
<g id="edge9" class="edge"><title>Node8&#45;&gt;Node9</title>
<path fill="none" stroke="midnightblue" d="M230.888,-58.5322C230.471,-49.3606 230.011,-39.2449 229.65,-31.2931"/>
<polygon fill="midnightblue" stroke="midnightblue" points="227.398,-58.8483 231.349,-68.679 234.391,-58.5303 227.398,-58.8483"/>
</g>
<!-- Node11 -->
<g id="node11" class="node"><title>Node11</title>
<g id="a_node11"><a xlink:href="../../d4/d75/main_capsule_8cpp.xhtml" target="_top" xlink:title="Hoofdprogramma/ourProgram\l/src/mainCapsule.cpp">
<polygon fill="white" stroke="black" points="321.5,-1 321.5,-31 464.5,-31 464.5,-1 321.5,-1"/>
<text text-anchor="start" x="329.5" y="-19" font-family="Helvetica,sans-Serif" font-size="10.00">Hoofdprogramma/ourProgram</text>
<text text-anchor="middle" x="393" y="-8" font-family="Helvetica,sans-Serif" font-size="10.00">/src/mainCapsule.cpp</text>
</a>
</g>
</g>
<!-- Node10&#45;&gt;Node11 -->
<g id="edge11" class="edge"><title>Node10&#45;&gt;Node11</title>
<path fill="none" stroke="midnightblue" d="M393,-58.5322C393,-49.3606 393,-39.2449 393,-31.2931"/>
<polygon fill="midnightblue" stroke="midnightblue" points="389.5,-58.6789 393,-68.679 396.5,-58.679 389.5,-58.6789"/>
</g>
<!-- Node13 -->
<g id="node13" class="node"><title>Node13</title>
<g id="a_node13"><a xlink:href="../../d9/d5c/tcp_top_capsule_8cpp.xhtml" target="_top" xlink:title="Hoofdprogramma/ourProgram\l/src/tcpTopCapsule.cpp">
<polygon fill="white" stroke="black" points="482.5,-1 482.5,-31 625.5,-31 625.5,-1 482.5,-1"/>
<text text-anchor="start" x="490.5" y="-19" font-family="Helvetica,sans-Serif" font-size="10.00">Hoofdprogramma/ourProgram</text>
<text text-anchor="middle" x="554" y="-8" font-family="Helvetica,sans-Serif" font-size="10.00">/src/tcpTopCapsule.cpp</text>
</a>
</g>
</g>
<!-- Node12&#45;&gt;Node13 -->
<g id="edge13" class="edge"><title>Node12&#45;&gt;Node13</title>
<path fill="none" stroke="midnightblue" d="M554,-58.5322C554,-49.3606 554,-39.2449 554,-31.2931"/>
<polygon fill="midnightblue" stroke="midnightblue" points="550.5,-58.6789 554,-68.679 557.5,-58.679 550.5,-58.6789"/>
</g>
<!-- Node16 -->
<g id="node16" class="node"><title>Node16</title>
<g id="a_node16"><a xlink:href="../../de/d47/features_8h.xhtml" target="_top" xlink:title="Hoofdprogramma/include\l/features.h">
<polygon fill="white" stroke="black" points="205,-409 205,-439 329,-439 329,-409 205,-409"/>
<text text-anchor="start" x="213" y="-427" font-family="Helvetica,sans-Serif" font-size="10.00">Hoofdprogramma/include</text>
<text text-anchor="middle" x="267" y="-416" font-family="Helvetica,sans-Serif" font-size="10.00">/features.h</text>
</a>
</g>
</g>
<!-- Node15&#45;&gt;Node16 -->
<g id="edge16" class="edge"><title>Node15&#45;&gt;Node16</title>
<path fill="none" stroke="midnightblue" d="M314.49,-469.776C303.92,-459.81 291.601,-448.196 282.159,-439.293"/>
<polygon fill="midnightblue" stroke="midnightblue" points="312.134,-472.365 321.811,-476.679 316.936,-467.272 312.134,-472.365"/>
</g>
<!-- Node18 -->
<g id="node18" class="node"><title>Node18</title>
<g id="a_node18"><a xlink:href="../../d4/d3f/value_8h.xhtml" target="_top" xlink:title="Hoofdprogramma/include\l/value.h">
<polygon fill="white" stroke="black" points="347,-409 347,-439 471,-439 471,-409 347,-409"/>
<text text-anchor="start" x="355" y="-427" font-family="Helvetica,sans-Serif" font-size="10.00">Hoofdprogramma/include</text>
<text text-anchor="middle" x="409" y="-416" font-family="Helvetica,sans-Serif" font-size="10.00">/value.h</text>
</a>
</g>
</g>
<!-- Node15&#45;&gt;Node18 -->
<g id="edge20" class="edge"><title>Node15&#45;&gt;Node18</title>
<path fill="none" stroke="midnightblue" d="M360.153,-469.776C371.025,-459.81 383.696,-448.196 393.408,-439.293"/>
<polygon fill="midnightblue" stroke="midnightblue" points="357.629,-467.342 352.623,-476.679 362.36,-472.502 357.629,-467.342"/>
</g>
<!-- Node17 -->
<g id="node17" class="node"><title>Node17</title>
<g id="a_node17"><a xlink:href="../../d6/dda/reader_8h.xhtml" target="_top" xlink:title="Hoofdprogramma/include\l/reader.h">
<polygon fill="white" stroke="black" points="250,-341 250,-371 374,-371 374,-341 250,-341"/>
<text text-anchor="start" x="258" y="-359" font-family="Helvetica,sans-Serif" font-size="10.00">Hoofdprogramma/include</text>
<text text-anchor="middle" x="312" y="-348" font-family="Helvetica,sans-Serif" font-size="10.00">/reader.h</text>
</a>
</g>
</g>
<!-- Node16&#45;&gt;Node17 -->
<g id="edge17" class="edge"><title>Node16&#45;&gt;Node17</title>
<path fill="none" stroke="midnightblue" d="M282.468,-400.314C289.03,-390.689 296.479,-379.763 302.255,-371.293"/>
<polygon fill="midnightblue" stroke="midnightblue" points="279.506,-398.445 276.764,-408.679 285.29,-402.388 279.506,-398.445"/>
</g>
<!-- Node16&#45;&gt;Node3 -->
<g id="edge19" class="edge"><title>Node16&#45;&gt;Node3</title>
<path fill="none" stroke="midnightblue" d="M250.607,-400.149C240.469,-383.005 231.115,-359.272 241,-340 249.312,-323.795 265.432,-311.576 280.214,-303.167"/>
<polygon fill="midnightblue" stroke="midnightblue" points="247.875,-402.375 256.202,-408.926 253.778,-398.612 247.875,-402.375"/>
</g>
<!-- Node17&#45;&gt;Node3 -->
<g id="edge18" class="edge"><title>Node17&#45;&gt;Node3</title>
<path fill="none" stroke="midnightblue" d="M312,-330.532C312,-321.361 312,-311.245 312,-303.293"/>
<polygon fill="midnightblue" stroke="midnightblue" points="308.5,-330.679 312,-340.679 315.5,-330.679 308.5,-330.679"/>
</g>
<!-- Node18&#45;&gt;Node3 -->
<g id="edge21" class="edge"><title>Node18&#45;&gt;Node3</title>
<path fill="none" stroke="midnightblue" d="M405.627,-398.783C402.225,-381.162 395.597,-357.433 383,-340 371.8,-324.5 354.425,-311.903 339.667,-303.107"/>
<polygon fill="midnightblue" stroke="midnightblue" points="402.214,-399.59 407.352,-408.855 409.113,-398.408 402.214,-399.59"/>
</g>
<!-- Node18&#45;&gt;Node17 -->
<g id="edge22" class="edge"><title>Node18&#45;&gt;Node17</title>
<path fill="none" stroke="midnightblue" d="M379.442,-402.888C364.322,-392.6 346.287,-380.329 332.673,-371.066"/>
<polygon fill="midnightblue" stroke="midnightblue" points="377.716,-405.947 387.952,-408.679 381.654,-400.16 377.716,-405.947"/>
</g>
<!-- Node19 -->
<g id="node19" class="node"><title>Node19</title>
<g id="a_node19"><a xlink:href="../../d9/d53/writer_8h.xhtml" target="_top" xlink:title="Hoofdprogramma/include\l/writer.h">
<polygon fill="white" stroke="black" points="430,-341 430,-371 554,-371 554,-341 430,-341"/>
<text text-anchor="start" x="438" y="-359" font-family="Helvetica,sans-Serif" font-size="10.00">Hoofdprogramma/include</text>
<text text-anchor="middle" x="492" y="-348" font-family="Helvetica,sans-Serif" font-size="10.00">/writer.h</text>
</a>
</g>
</g>
<!-- Node18&#45;&gt;Node19 -->
<g id="edge23" class="edge"><title>Node18&#45;&gt;Node19</title>
<path fill="none" stroke="midnightblue" d="M435.02,-402.309C447.806,-392.143 462.879,-380.156 474.311,-371.066"/>
<polygon fill="midnightblue" stroke="midnightblue" points="432.658,-399.716 427.01,-408.679 437.015,-405.194 432.658,-399.716"/>
</g>
<!-- Node19&#45;&gt;Node3 -->
<g id="edge24" class="edge"><title>Node19&#45;&gt;Node3</title>
<path fill="none" stroke="midnightblue" d="M443.76,-337.312C414.444,-326.563 377.533,-313.029 350.241,-303.022"/>
<polygon fill="midnightblue" stroke="midnightblue" points="442.792,-340.685 453.385,-340.841 445.202,-334.113 442.792,-340.685"/>
</g>
</g>
</svg>
        <g id="navigator" transform="translate(0 0)" fill="#404254">
                <rect fill="#f2f5e9" fill-opacity="0.5" stroke="#606060" stroke-width=".5" x="0" y="0" width="60" height="60"/>
                <use id="zoomplus" xlink:href="#zoomPlus" x="17" y="9" onmousedown="handleZoom(evt,'in')"/>
                <use id="zoomminus" xlink:href="#zoomMin" x="42" y="9" onmousedown="handleZoom(evt,'out')"/>
                <use id="reset" xlink:href="#resetDef" x="30" y="36" onmousedown="handleReset()"/>
                <g id="arrowUp" xlink:href="#dirArrow" transform="translate(30 24)" onmousedown="handlePan(0,-1)">
                  <use xlink:href="#rim" fill="#404040">
                        <set attributeName="fill" to="#808080" begin="arrowUp.mouseover" end="arrowUp.mouseout"/>
                  </use>
                  <path fill="none" stroke="white" stroke-width="1.5" d="M0,-3.0v7 M-2.5,-0.5L0,-3.0L2.5,-0.5"/>
                </g>
                <g id="arrowRight" xlink:href="#dirArrow" transform="rotate(90) translate(36 -43)" onmousedown="handlePan(1,0)">
                  <use xlink:href="#rim" fill="#404040">
                        <set attributeName="fill" to="#808080" begin="arrowRight.mouseover" end="arrowRight.mouseout"/>
                  </use>
                  <path fill="none" stroke="white" stroke-width="1.5" d="M0,-3.0v7 M-2.5,-0.5L0,-3.0L2.5,-0.5"/>
                </g>
                <g id="arrowDown" xlink:href="#dirArrow" transform="rotate(180) translate(-30 -48)" onmousedown="handlePan(0,1)">
                  <use xlink:href="#rim" fill="#404040">
                        <set attributeName="fill" to="#808080" begin="arrowDown.mouseover" end="arrowDown.mouseout"/>
                  </use>
                  <path fill="none" stroke="white" stroke-width="1.5" d="M0,-3.0v7 M-2.5,-0.5L0,-3.0L2.5,-0.5"/>
                </g>
                <g id="arrowLeft" xlink:href="#dirArrow" transform="rotate(270) translate(-36 17)" onmousedown="handlePan(-1,0)">
                  <use xlink:href="#rim" fill="#404040">
                        <set attributeName="fill" to="#808080" begin="arrowLeft.mouseover" end="arrowLeft.mouseout"/>
                  </use>
                  <path fill="none" stroke="white" stroke-width="1.5" d="M0,-3.0v7 M-2.5,-0.5L0,-3.0L2.5,-0.5"/>
                </g>
        </g>
        <svg viewBox="0 0 15 15" width="100%" height="30px" preserveAspectRatio="xMaxYMin meet">
         <g id="arrow_out" transform="scale(0.3 0.3)">
          <a xlink:href="config_8h__dep__incl_org.svg" target="_base">
           <rect id="button" ry="5" rx="5" y="6" x="6" height="38" width="38"
                fill="#f2f5e9" fill-opacity="0.5" stroke="#606060" stroke-width="1.0"/>
           <path id="arrow"
             d="M 11.500037,31.436501 C 11.940474,20.09759 22.043105,11.32322 32.158766,21.979434 L 37.068811,17.246167 C 37.068811,17.246167 37.088388,32 37.088388,32 L 22.160133,31.978069 C 22.160133,31.978069 26.997745,27.140456 26.997745,27.140456 C 18.528582,18.264221 13.291696,25.230495 11.500037,31.436501 z"
             style="fill:#404040;"/>
          </a>
         </g>
        </svg>
</svg>
