<?xml version="1.0" encoding="UTF-8" standalone="no"?>
<!DOCTYPE svg PUBLIC "-//W3C//DTD SVG 1.1//EN"
 "http://www.w3.org/Graphics/SVG/1.1/DTD/svg11.dtd">
<!-- Generated by graphviz version 2.30.1 (20130214.1330)
 -->
<!-- Title: GUI/Gui&#45;RoombaV1.0/settingsroomba.h Pages: 1 -->
<svg width="265pt" height="108pt"
 viewBox="0.00 0.00 265.00 108.00" xmlns="http://www.w3.org/2000/svg" xmlns:xlink="http://www.w3.org/1999/xlink">
<g id="graph0" class="graph" transform="scale(1 1) rotate(0) translate(4 104)">
<title>GUI/Gui&#45;RoombaV1.0/settingsroomba.h</title>
<polygon fill="white" stroke="white" points="-4,5 -4,-104 262,-104 262,5 -4,5"/>
<!-- Node1 -->
<g id="node1" class="node"><title>Node1</title>
<polygon fill="#bfbfbf" stroke="black" points="78,-69 78,-99 188,-99 188,-69 78,-69"/>
<text text-anchor="start" x="86" y="-87" font-family="Helvetica,sans-Serif" font-size="10.00">GUI/Gui&#45;RoombaV1.0</text>
<text text-anchor="middle" x="133" y="-76" font-family="Helvetica,sans-Serif" font-size="10.00">/settingsroomba.h</text>
</g>
<!-- Node2 -->
<g id="node2" class="node"><title>Node2</title>
<g id="a_node2"><a xlink:href="../../dd/de5/moc__settingsroomba_8cpp.xhtml" target="_top" xlink:title="GUI/bin/debug/debug\l/moc_settingsroomba.cpp">
<polygon fill="white" stroke="black" points="-0.5,-1 -0.5,-31 128.5,-31 128.5,-1 -0.5,-1"/>
<text text-anchor="start" x="7.5" y="-19" font-family="Helvetica,sans-Serif" font-size="10.00">GUI/bin/debug/debug</text>
<text text-anchor="middle" x="64" y="-8" font-family="Helvetica,sans-Serif" font-size="10.00">/moc_settingsroomba.cpp</text>
</a>
</g>
</g>
<!-- Node1&#45;&gt;Node2 -->
<g id="edge1" class="edge"><title>Node1&#45;&gt;Node2</title>
<path fill="none" stroke="midnightblue" d="M110.508,-61.4855C100.157,-51.5852 88.1596,-40.1092 78.9428,-31.2931"/>
<polygon fill="midnightblue" stroke="midnightblue" points="108.382,-64.296 118.028,-68.679 113.221,-59.2375 108.382,-64.296"/>
</g>
<!-- Node3 -->
<g id="node3" class="node"><title>Node3</title>
<g id="a_node3"><a xlink:href="../../da/d3b/settingsroomba_8cpp.xhtml" target="_top" xlink:title="GUI/Gui&#45;RoombaV1.0\l/settingsroomba.cpp">
<polygon fill="white" stroke="black" points="147,-1 147,-31 257,-31 257,-1 147,-1"/>
<text text-anchor="start" x="155" y="-19" font-family="Helvetica,sans-Serif" font-size="10.00">GUI/Gui&#45;RoombaV1.0</text>
<text text-anchor="middle" x="202" y="-8" font-family="Helvetica,sans-Serif" font-size="10.00">/settingsroomba.cpp</text>
</a>
</g>
</g>
<!-- Node1&#45;&gt;Node3 -->
<g id="edge2" class="edge"><title>Node1&#45;&gt;Node3</title>
<path fill="none" stroke="midnightblue" d="M155.492,-61.4855C165.843,-51.5852 177.84,-40.1092 187.057,-31.2931"/>
<polygon fill="midnightblue" stroke="midnightblue" points="152.779,-59.2375 147.972,-68.679 157.618,-64.296 152.779,-59.2375"/>
</g>
</g>
</svg>
