<?xml version="1.0" encoding="UTF-8" standalone="no"?>
<!DOCTYPE svg PUBLIC "-//W3C//DTD SVG 1.1//EN"
 "http://www.w3.org/Graphics/SVG/1.1/DTD/svg11.dtd">
<!-- Generated by graphviz version 2.30.1 (20130214.1330)
 -->
<!-- Title: Hoofdprogramma/ourProgram/src/TCPCONSTANTS.cpp Pages: 1 -->
<svg width="183pt" height="208pt"
 viewBox="0.00 0.00 183.00 208.00" xmlns="http://www.w3.org/2000/svg" xmlns:xlink="http://www.w3.org/1999/xlink">
<g id="graph0" class="graph" transform="scale(1 1) rotate(0) translate(4 204)">
<title>Hoofdprogramma/ourProgram/src/TCPCONSTANTS.cpp</title>
<polygon fill="white" stroke="white" points="-4,5 -4,-204 180,-204 180,5 -4,5"/>
<!-- Node1 -->
<g id="node1" class="node"><title>Node1</title>
<polygon fill="#bfbfbf" stroke="black" points="12.5,-169 12.5,-199 155.5,-199 155.5,-169 12.5,-169"/>
<text text-anchor="start" x="20.5" y="-187" font-family="Helvetica,sans-Serif" font-size="10.00">Hoofdprogramma/ourProgram</text>
<text text-anchor="middle" x="84" y="-176" font-family="Helvetica,sans-Serif" font-size="10.00">/src/TCPCONSTANTS.cpp</text>
</g>
<!-- Node2 -->
<g id="node2" class="node"><title>Node2</title>
<g id="a_node2"><a xlink:href="../../dd/d50/our_program_8h.xhtml" target="_top" xlink:title="RTSystem/ourProgram.h">
<polygon fill="white" stroke="black" points="22,-56.5 22,-75.5 146,-75.5 146,-56.5 22,-56.5"/>
<text text-anchor="middle" x="84" y="-63.5" font-family="Helvetica,sans-Serif" font-size="10.00">RTSystem/ourProgram.h</text>
</a>
</g>
</g>
<!-- Node1&#45;&gt;Node2 -->
<g id="edge1" class="edge"><title>Node1&#45;&gt;Node2</title>
<path fill="none" stroke="midnightblue" d="M75.8774,-168.991C68.6224,-154.767 59.7465,-132.043 64,-112 65.9966,-102.591 70.1008,-92.7618 74.0746,-84.6981"/>
<polygon fill="midnightblue" stroke="midnightblue" points="77.3067,-86.0721 78.8698,-75.5932 71.1131,-82.8101 77.3067,-86.0721"/>
</g>
<!-- Node5 -->
<g id="node5" class="node"><title>Node5</title>
<g id="a_node5"><a xlink:href="../../d7/d0a/_t_c_p_c_o_n_s_t_a_n_t_s_8h.xhtml" target="_top" xlink:title="TCPCONSTANTS.h">
<polygon fill="white" stroke="black" points="73,-112.5 73,-131.5 175,-131.5 175,-112.5 73,-112.5"/>
<text text-anchor="middle" x="124" y="-119.5" font-family="Helvetica,sans-Serif" font-size="10.00">TCPCONSTANTS.h</text>
</a>
</g>
</g>
<!-- Node1&#45;&gt;Node5 -->
<g id="edge4" class="edge"><title>Node1&#45;&gt;Node5</title>
<path fill="none" stroke="midnightblue" d="M93.4794,-168.781C99.1721,-160.242 106.454,-149.318 112.478,-140.283"/>
<polygon fill="midnightblue" stroke="midnightblue" points="115.545,-141.993 118.18,-131.731 109.72,-138.11 115.545,-141.993"/>
</g>
<!-- Node3 -->
<g id="node3" class="node"><title>Node3</title>
<polygon fill="white" stroke="#bfbfbf" points="0,-0.5 0,-19.5 82,-19.5 82,-0.5 0,-0.5"/>
<text text-anchor="middle" x="41" y="-7.5" font-family="Helvetica,sans-Serif" font-size="10.00">RTStructures.h</text>
</g>
<!-- Node2&#45;&gt;Node3 -->
<g id="edge2" class="edge"><title>Node2&#45;&gt;Node3</title>
<path fill="none" stroke="midnightblue" d="M76.8994,-56.083C70.763,-48.3768 61.7303,-37.0333 54.2608,-27.6531"/>
<polygon fill="midnightblue" stroke="midnightblue" points="56.9357,-25.3936 47.9685,-19.7511 51.4598,-29.7542 56.9357,-25.3936"/>
</g>
<!-- Node4 -->
<g id="node4" class="node"><title>Node4</title>
<polygon fill="white" stroke="#bfbfbf" points="100,-0.5 100,-19.5 154,-19.5 154,-0.5 100,-0.5"/>
<text text-anchor="middle" x="127" y="-7.5" font-family="Helvetica,sans-Serif" font-size="10.00">iostream</text>
</g>
<!-- Node2&#45;&gt;Node4 -->
<g id="edge3" class="edge"><title>Node2&#45;&gt;Node4</title>
<path fill="none" stroke="midnightblue" d="M91.1006,-56.083C97.237,-48.3768 106.27,-37.0333 113.739,-27.6531"/>
<polygon fill="midnightblue" stroke="midnightblue" points="116.54,-29.7542 120.032,-19.7511 111.064,-25.3936 116.54,-29.7542"/>
</g>
<!-- Node5&#45;&gt;Node2 -->
<g id="edge5" class="edge"><title>Node5&#45;&gt;Node2</title>
<path fill="none" stroke="midnightblue" d="M117.395,-112.083C111.745,-104.455 103.455,-93.2645 96.5488,-83.9408"/>
<polygon fill="midnightblue" stroke="midnightblue" points="99.2471,-81.7034 90.4823,-75.7511 93.6221,-85.87 99.2471,-81.7034"/>
</g>
</g>
</svg>
