<?xml version="1.0" encoding="UTF-8" standalone="no"?>
<!DOCTYPE svg PUBLIC "-//W3C//DTD SVG 1.1//EN"
 "http://www.w3.org/Graphics/SVG/1.1/DTD/svg11.dtd">
<!-- Generated by graphviz version 2.30.1 (20130214.1330)
 -->
<!-- Title: GUI/Gui&#45;RoombaV1.0/controllingroomba.cpp Pages: 1 -->
<!--zoomable 432 -->
<svg id="main" version="1.1" xmlns="http://www.w3.org/2000/svg" xmlns:xlink="http://www.w3.org/1999/xlink" xml:space="preserve" onload="init(evt)">
        <defs>
                <circle id="rim" cx="0" cy="0" r="7"/>
                <circle id="rim2" cx="0" cy="0" r="3.5"/>
                <g id="zoomPlus">
                        <use xlink:href="#rim" fill="#404040">
                                <set attributeName="fill" to="#808080" begin="zoomplus.mouseover" end="zoomplus.mouseout"/>
                        </use>
                        <path d="M-4,0h8M0,-4v8" fill="none" stroke="white" stroke-width="1.5" pointer-events="none"/>
                </g>
                <g id="zoomMin">
                        <use xlink:href="#rim" fill="#404040">
                                <set attributeName="fill" to="#808080" begin="zoomminus.mouseover" end="zoomminus.mouseout"/>
                        </use>
                        <path d="M-4,0h8" fill="none" stroke="white" stroke-width="1.5" pointer-events="none"/>
                </g>
                <g id="dirArrow">
                        <path fill="none" stroke="white" stroke-width="1.5" d="M0,-3.0v7 M-2.5,-0.5L0,-3.0L2.5,-0.5"/>
                </g>
               <g id="resetDef">
                       <use xlink:href="#rim2" fill="#404040">
                               <set attributeName="fill" to="#808080" begin="reset.mouseover" end="reset.mouseout"/>
                       </use>
               </g>
        </defs>

<script type="text/javascript">
var viewWidth = 1839;
var viewHeight = 432;
var sectionId = 'dynsection-0';
</script>
<script xlink:href="../../svgpan.js"/>
<svg id="graph" class="graph">
<g id="viewport">
<title>GUI/Gui&#45;RoombaV1.0/controllingroomba.cpp</title>
<polygon fill="white" stroke="white" points="-4,5 -4,-428 1836.23,-428 1836.23,5 -4,5"/>
<!-- Node1 -->
<g id="node1" class="node"><title>Node1</title>
<polygon fill="#bfbfbf" stroke="black" points="1426.73,-393 1426.73,-423 1541.73,-423 1541.73,-393 1426.73,-393"/>
<text text-anchor="start" x="1434.73" y="-411" font-family="Helvetica,sans-Serif" font-size="10.00">GUI/Gui&#45;RoombaV1.0</text>
<text text-anchor="middle" x="1484.23" y="-400" font-family="Helvetica,sans-Serif" font-size="10.00">/controllingroomba.cpp</text>
</g>
<!-- Node2 -->
<g id="node2" class="node"><title>Node2</title>
<g id="a_node2"><a xlink:href="../../da/d4b/controllingroomba_8h.xhtml" target="_top" xlink:title="controllingroomba.h">
<polygon fill="white" stroke="black" points="329.726,-280.5 329.726,-299.5 430.726,-299.5 430.726,-280.5 329.726,-280.5"/>
<text text-anchor="middle" x="380.226" y="-287.5" font-family="Helvetica,sans-Serif" font-size="10.00">controllingroomba.h</text>
</a>
</g>
</g>
<!-- Node1&#45;&gt;Node2 -->
<g id="edge1" class="edge"><title>Node1&#45;&gt;Node2</title>
<path fill="none" stroke="midnightblue" d="M1426.7,-401.788C1269.38,-387.38 818.787,-345.083 445.226,-300 443.921,-299.843 442.603,-299.681 441.274,-299.516"/>
<polygon fill="midnightblue" stroke="midnightblue" points="441.308,-295.992 430.945,-298.197 440.421,-302.936 441.308,-295.992"/>
</g>
<!-- Node30 -->
<g id="node30" class="node"><title>Node30</title>
<polygon fill="white" stroke="#bfbfbf" points="1084.23,-336.5 1084.23,-355.5 1198.23,-355.5 1198.23,-336.5 1084.23,-336.5"/>
<text text-anchor="middle" x="1141.23" y="-343.5" font-family="Helvetica,sans-Serif" font-size="10.00">ui_controllingroomba.h</text>
</g>
<!-- Node1&#45;&gt;Node30 -->
<g id="edge56" class="edge"><title>Node1&#45;&gt;Node30</title>
<path fill="none" stroke="midnightblue" d="M1426.43,-396.89C1363.58,-385.896 1263.66,-368.417 1200.31,-357.336"/>
<polygon fill="midnightblue" stroke="midnightblue" points="1200.54,-353.822 1190.08,-355.547 1199.33,-360.717 1200.54,-353.822"/>
</g>
<!-- Node31 -->
<g id="node31" class="node"><title>Node31</title>
<g id="a_node31"><a xlink:href="../../dd/da1/roomba_8h.xhtml" target="_top" xlink:title="roomba.h">
<polygon fill="white" stroke="black" points="1216.73,-336.5 1216.73,-355.5 1273.73,-355.5 1273.73,-336.5 1216.73,-336.5"/>
<text text-anchor="middle" x="1245.23" y="-343.5" font-family="Helvetica,sans-Serif" font-size="10.00">roomba.h</text>
</a>
</g>
</g>
<!-- Node1&#45;&gt;Node31 -->
<g id="edge57" class="edge"><title>Node1&#45;&gt;Node31</title>
<path fill="none" stroke="midnightblue" d="M1428.19,-392.933C1383.74,-381.772 1322.77,-366.468 1283.68,-356.655"/>
<polygon fill="midnightblue" stroke="midnightblue" points="1284.31,-353.203 1273.76,-354.163 1282.6,-359.992 1284.31,-353.203"/>
</g>
<!-- Node34 -->
<g id="node34" class="node"><title>Node34</title>
<g id="a_node34"><a xlink:href="../../df/dd0/_gui-_roomba_v1_80_2mytimer_8h.xhtml" target="_top" xlink:title="mytimer.h">
<polygon fill="white" stroke="black" points="1751.23,-280.5 1751.23,-299.5 1811.23,-299.5 1811.23,-280.5 1751.23,-280.5"/>
<text text-anchor="middle" x="1781.23" y="-287.5" font-family="Helvetica,sans-Serif" font-size="10.00">mytimer.h</text>
</a>
</g>
</g>
<!-- Node1&#45;&gt;Node34 -->
<g id="edge75" class="edge"><title>Node1&#45;&gt;Node34</title>
<path fill="none" stroke="midnightblue" d="M1541.96,-400.494C1606.43,-392.349 1705.85,-376.887 1737.23,-356 1754.37,-344.588 1766.61,-323.998 1773.75,-309.043"/>
<polygon fill="midnightblue" stroke="midnightblue" points="1777.01,-310.33 1777.89,-299.772 1770.62,-307.479 1777.01,-310.33"/>
</g>
<!-- Node16 -->
<g id="node16" class="node"><title>Node16</title>
<polygon fill="white" stroke="#bfbfbf" points="1675.73,-168.5 1675.73,-187.5 1722.73,-187.5 1722.73,-168.5 1675.73,-168.5"/>
<text text-anchor="middle" x="1699.23" y="-175.5" font-family="Helvetica,sans-Serif" font-size="10.00">QtCore</text>
</g>
<!-- Node1&#45;&gt;Node16 -->
<g id="edge77" class="edge"><title>Node1&#45;&gt;Node16</title>
<path fill="none" stroke="midnightblue" d="M1527.93,-392.996C1572.19,-376.848 1640.11,-346.41 1683.23,-300 1707.43,-273.95 1711.73,-259.385 1708.23,-224 1707.35,-215.17 1705.53,-205.505 1703.76,-197.404"/>
<polygon fill="midnightblue" stroke="midnightblue" points="1707.14,-196.494 1701.46,-187.551 1700.33,-198.085 1707.14,-196.494"/>
</g>
<!-- Node35 -->
<g id="node35" class="node"><title>Node35</title>
<polygon fill="white" stroke="#bfbfbf" points="1789.23,-336.5 1789.23,-355.5 1831.23,-355.5 1831.23,-336.5 1789.23,-336.5"/>
<text text-anchor="middle" x="1810.23" y="-343.5" font-family="Helvetica,sans-Serif" font-size="10.00">QtGui</text>
</g>
<!-- Node1&#45;&gt;Node35 -->
<g id="edge78" class="edge"><title>Node1&#45;&gt;Node35</title>
<path fill="none" stroke="midnightblue" d="M1541.91,-398.255C1600.81,-389.006 1694.76,-373.369 1775.23,-356 1776.5,-355.724 1777.8,-355.434 1779.11,-355.134"/>
<polygon fill="midnightblue" stroke="midnightblue" points="1780.29,-358.449 1789.19,-352.693 1778.65,-351.646 1780.29,-358.449"/>
</g>
<!-- Node3 -->
<g id="node3" class="node"><title>Node3</title>
<g id="a_node3"><a xlink:href="../../d4/d05/json_8h.xhtml" target="_top" xlink:title="../resources/json.h">
<polygon fill="white" stroke="black" points="1021.23,-112.5 1021.23,-131.5 1119.23,-131.5 1119.23,-112.5 1021.23,-112.5"/>
<text text-anchor="middle" x="1070.23" y="-119.5" font-family="Helvetica,sans-Serif" font-size="10.00">../resources/json.h</text>
</a>
</g>
</g>
<!-- Node2&#45;&gt;Node3 -->
<g id="edge2" class="edge"><title>Node2&#45;&gt;Node3</title>
<path fill="none" stroke="midnightblue" d="M411.575,-280.499C510.248,-253.752 809.175,-172.796 830.226,-168 891.389,-154.065 962.031,-141.204 1010.76,-132.832"/>
<polygon fill="midnightblue" stroke="midnightblue" points="1011.55,-136.249 1020.81,-131.115 1010.37,-129.348 1011.55,-136.249"/>
</g>
<!-- Node6 -->
<g id="node6" class="node"><title>Node6</title>
<g id="a_node6"><a xlink:href="../../dc/d96/jsoncommand_8h.xhtml" target="_top" xlink:title="../resources/jsoncommand.h">
<polygon fill="white" stroke="black" points="1175.23,-168.5 1175.23,-187.5 1315.23,-187.5 1315.23,-168.5 1175.23,-168.5"/>
<text text-anchor="middle" x="1245.23" y="-175.5" font-family="Helvetica,sans-Serif" font-size="10.00">../resources/jsoncommand.h</text>
</a>
</g>
</g>
<!-- Node2&#45;&gt;Node6 -->
<g id="edge5" class="edge"><title>Node2&#45;&gt;Node6</title>
<path fill="none" stroke="midnightblue" d="M430.745,-287.246C529.866,-283.304 756.614,-271.816 945.226,-244 1037.98,-230.32 1144.94,-204.743 1202.77,-190.082"/>
<polygon fill="midnightblue" stroke="midnightblue" points="1203.81,-193.428 1212.64,-187.565 1202.08,-186.645 1203.81,-193.428"/>
</g>
<!-- Node15 -->
<g id="node15" class="node"><title>Node15</title>
<g id="a_node15"><a xlink:href="../../d4/dca/_roomba_connect_8h.xhtml" target="_top" xlink:title="RoombaConnect.h">
<polygon fill="white" stroke="black" points="839.726,-224.5 839.726,-243.5 936.726,-243.5 936.726,-224.5 839.726,-224.5"/>
<text text-anchor="middle" x="888.226" y="-231.5" font-family="Helvetica,sans-Serif" font-size="10.00">RoombaConnect.h</text>
</a>
</g>
</g>
<!-- Node2&#45;&gt;Node15 -->
<g id="edge15" class="edge"><title>Node2&#45;&gt;Node15</title>
<path fill="none" stroke="midnightblue" d="M431.021,-284.548C513.735,-277.145 682.628,-261.388 825.226,-244 826.521,-243.842 827.831,-243.679 829.152,-243.513"/>
<polygon fill="midnightblue" stroke="midnightblue" points="829.949,-246.939 839.413,-242.175 829.044,-239.998 829.949,-246.939"/>
</g>
<!-- Node9 -->
<g id="node9" class="node"><title>Node9</title>
<g id="a_node9"><a xlink:href="../../d7/d62/clslog_8h.xhtml" target="_top" xlink:title="clslog.h">
<polygon fill="white" stroke="black" points="1311.23,-56.5 1311.23,-75.5 1361.23,-75.5 1361.23,-56.5 1311.23,-56.5"/>
<text text-anchor="middle" x="1336.23" y="-63.5" font-family="Helvetica,sans-Serif" font-size="10.00">clslog.h</text>
</a>
</g>
</g>
<!-- Node2&#45;&gt;Node9 -->
<g id="edge45" class="edge"><title>Node2&#45;&gt;Node9</title>
<path fill="none" stroke="midnightblue" d="M430.91,-288.409C603.535,-285.661 1166.57,-270.434 1324.23,-188 1355.42,-171.691 1366.76,-164.519 1380.23,-132 1387.97,-113.304 1371.92,-94.4265 1357.08,-81.869"/>
<polygon fill="midnightblue" stroke="midnightblue" points="1359.14,-79.0324 1349.12,-75.5841 1354.8,-84.527 1359.14,-79.0324"/>
</g>
<!-- Node21 -->
<g id="node21" class="node"><title>Node21</title>
<g id="a_node21"><a xlink:href="../../db/d97/clsevent_8h.xhtml" target="_top" xlink:title="../resources/clsevent.h">
<polygon fill="white" stroke="black" points="498.726,-112.5 498.726,-131.5 613.726,-131.5 613.726,-112.5 498.726,-112.5"/>
<text text-anchor="middle" x="556.226" y="-119.5" font-family="Helvetica,sans-Serif" font-size="10.00">../resources/clsevent.h</text>
</a>
</g>
</g>
<!-- Node2&#45;&gt;Node21 -->
<g id="edge46" class="edge"><title>Node2&#45;&gt;Node21</title>
<path fill="none" stroke="midnightblue" d="M373.588,-280.308C358.027,-258.807 322.537,-202.39 350.226,-168 367.453,-146.604 435.279,-134.828 488.457,-128.747"/>
<polygon fill="midnightblue" stroke="midnightblue" points="488.981,-132.211 498.539,-127.642 488.217,-125.253 488.981,-132.211"/>
</g>
<!-- Node27 -->
<g id="node27" class="node"><title>Node27</title>
<polygon fill="white" stroke="#bfbfbf" points="11.7256,-168.5 11.7256,-187.5 66.7256,-187.5 66.7256,-168.5 11.7256,-168.5"/>
<text text-anchor="middle" x="39.2256" y="-175.5" font-family="Helvetica,sans-Serif" font-size="10.00">QWidget</text>
</g>
<!-- Node2&#45;&gt;Node27 -->
<g id="edge47" class="edge"><title>Node2&#45;&gt;Node27</title>
<path fill="none" stroke="midnightblue" d="M329.495,-284.596C245.47,-276.888 84.599,-260.225 64.2256,-244 50.2074,-232.836 44.0412,-212.81 41.3339,-197.927"/>
<polygon fill="midnightblue" stroke="midnightblue" points="44.7617,-197.175 39.8651,-187.78 37.8339,-198.178 44.7617,-197.175"/>
</g>
<!-- Node17 -->
<g id="node17" class="node"><title>Node17</title>
<polygon fill="white" stroke="#bfbfbf" points="359.726,-168.5 359.726,-187.5 430.726,-187.5 430.726,-168.5 359.726,-168.5"/>
<text text-anchor="middle" x="395.226" y="-175.5" font-family="Helvetica,sans-Serif" font-size="10.00">QTcpSocket</text>
</g>
<!-- Node2&#45;&gt;Node17 -->
<g id="edge48" class="edge"><title>Node2&#45;&gt;Node17</title>
<path fill="none" stroke="midnightblue" d="M381.403,-280.368C383.823,-262.617 389.407,-221.666 392.69,-197.597"/>
<polygon fill="midnightblue" stroke="midnightblue" points="396.171,-197.973 394.054,-187.591 389.235,-197.027 396.171,-197.973"/>
</g>
<!-- Node28 -->
<g id="node28" class="node"><title>Node28</title>
<polygon fill="white" stroke="#bfbfbf" points="73.7256,-224.5 73.7256,-243.5 122.726,-243.5 122.726,-224.5 73.7256,-224.5"/>
<text text-anchor="middle" x="98.2256" y="-231.5" font-family="Helvetica,sans-Serif" font-size="10.00">QSlider</text>
</g>
<!-- Node2&#45;&gt;Node28 -->
<g id="edge49" class="edge"><title>Node2&#45;&gt;Node28</title>
<path fill="none" stroke="midnightblue" d="M329.642,-281.028C281.519,-273.174 206.892,-260.292 132.999,-244.026"/>
<polygon fill="midnightblue" stroke="midnightblue" points="133.574,-240.569 123.052,-241.815 132.054,-247.402 133.574,-240.569"/>
</g>
<!-- Node2&#45;&gt;Node16 -->
<g id="edge50" class="edge"><title>Node2&#45;&gt;Node16</title>
<path fill="none" stroke="midnightblue" d="M430.78,-288.734C571.804,-287.527 981.349,-280.855 1319.23,-244 1448.07,-229.946 1599.41,-199.963 1665.5,-186.19"/>
<polygon fill="midnightblue" stroke="midnightblue" points="1666.29,-189.601 1675.36,-184.124 1664.85,-182.75 1666.29,-189.601"/>
</g>
<!-- Node7 -->
<g id="node7" class="node"><title>Node7</title>
<polygon fill="white" stroke="#bfbfbf" points="746.726,-56.5 746.726,-75.5 799.726,-75.5 799.726,-56.5 746.726,-56.5"/>
<text text-anchor="middle" x="773.226" y="-63.5" font-family="Helvetica,sans-Serif" font-size="10.00">QObject</text>
</g>
<!-- Node2&#45;&gt;Node7 -->
<g id="edge51" class="edge"><title>Node2&#45;&gt;Node7</title>
<path fill="none" stroke="midnightblue" d="M369.425,-280.292C360.089,-272.048 347.187,-258.763 341.226,-244 328.568,-212.655 318.921,-195.749 338.226,-168 384.049,-102.132 640.158,-76.7499 736.539,-69.4455"/>
<polygon fill="midnightblue" stroke="midnightblue" points="736.969,-72.9234 746.686,-68.6991 736.456,-65.9423 736.969,-72.9234"/>
</g>
<!-- Node25 -->
<g id="node25" class="node"><title>Node25</title>
<g id="a_node25"><a xlink:href="../../da/d69/loggingdata_8h.xhtml" target="_top" xlink:title="loggingdata.h">
<polygon fill="white" stroke="black" points="99.2256,-168.5 99.2256,-187.5 173.226,-187.5 173.226,-168.5 99.2256,-168.5"/>
<text text-anchor="middle" x="136.226" y="-175.5" font-family="Helvetica,sans-Serif" font-size="10.00">loggingdata.h</text>
</a>
</g>
</g>
<!-- Node2&#45;&gt;Node25 -->
<g id="edge52" class="edge"><title>Node2&#45;&gt;Node25</title>
<path fill="none" stroke="midnightblue" d="M361.079,-280.368C318.318,-261.091 214.868,-214.454 164.595,-191.789"/>
<polygon fill="midnightblue" stroke="midnightblue" points="165.838,-188.511 155.283,-187.591 162.961,-194.892 165.838,-188.511"/>
</g>
<!-- Node29 -->
<g id="node29" class="node"><title>Node29</title>
<g id="a_node29"><a xlink:href="../../d7/d82/displaylogs_8h.xhtml" target="_top" xlink:title="displaylogs.h">
<polygon fill="white" stroke="black" points="141.226,-224.5 141.226,-243.5 215.226,-243.5 215.226,-224.5 141.226,-224.5"/>
<text text-anchor="middle" x="178.226" y="-231.5" font-family="Helvetica,sans-Serif" font-size="10.00">displaylogs.h</text>
</a>
</g>
</g>
<!-- Node2&#45;&gt;Node29 -->
<g id="edge53" class="edge"><title>Node2&#45;&gt;Node29</title>
<path fill="none" stroke="midnightblue" d="M348.218,-280.444C313.497,-271.162 257.938,-256.309 219.849,-246.127"/>
<polygon fill="midnightblue" stroke="midnightblue" points="220.648,-242.718 210.083,-243.516 218.84,-249.48 220.648,-242.718"/>
</g>
<!-- Node4 -->
<g id="node4" class="node"><title>Node4</title>
<polygon fill="white" stroke="#bfbfbf" points="383.726,-56.5 383.726,-75.5 438.726,-75.5 438.726,-56.5 383.726,-56.5"/>
<text text-anchor="middle" x="411.226" y="-63.5" font-family="Helvetica,sans-Serif" font-size="10.00">QVariant</text>
</g>
<!-- Node3&#45;&gt;Node4 -->
<g id="edge3" class="edge"><title>Node3&#45;&gt;Node4</title>
<path fill="none" stroke="midnightblue" d="M1020.96,-116.963C894.752,-106.621 561.823,-79.3403 449.133,-70.1062"/>
<polygon fill="midnightblue" stroke="midnightblue" points="449.182,-66.5986 438.93,-69.2701 448.61,-73.5752 449.182,-66.5986"/>
</g>
<!-- Node5 -->
<g id="node5" class="node"><title>Node5</title>
<polygon fill="white" stroke="#bfbfbf" points="1045.23,-56.5 1045.23,-75.5 1095.23,-75.5 1095.23,-56.5 1045.23,-56.5"/>
<text text-anchor="middle" x="1070.23" y="-63.5" font-family="Helvetica,sans-Serif" font-size="10.00">QString</text>
</g>
<!-- Node3&#45;&gt;Node5 -->
<g id="edge4" class="edge"><title>Node3&#45;&gt;Node5</title>
<path fill="none" stroke="midnightblue" d="M1070.23,-112.083C1070.23,-105.006 1070.23,-94.8611 1070.23,-85.9865"/>
<polygon fill="midnightblue" stroke="midnightblue" points="1073.73,-85.751 1070.23,-75.7511 1066.73,-85.7511 1073.73,-85.751"/>
</g>
<!-- Node6&#45;&gt;Node7 -->
<g id="edge6" class="edge"><title>Node6&#45;&gt;Node7</title>
<path fill="none" stroke="midnightblue" d="M1233.31,-168.328C1212.91,-153.976 1169.52,-125.528 1128.23,-112 1016.38,-75.357 875.651,-68.304 810.046,-67.1132"/>
<polygon fill="midnightblue" stroke="midnightblue" points="809.855,-63.6102 799.805,-66.9648 809.753,-70.6094 809.855,-63.6102"/>
</g>
<!-- Node8 -->
<g id="node8" class="node"><title>Node8</title>
<polygon fill="white" stroke="#bfbfbf" points="1297.23,-112.5 1297.23,-131.5 1371.23,-131.5 1371.23,-112.5 1297.23,-112.5"/>
<text text-anchor="middle" x="1334.23" y="-119.5" font-family="Helvetica,sans-Serif" font-size="10.00">QVariantMap</text>
</g>
<!-- Node6&#45;&gt;Node8 -->
<g id="edge7" class="edge"><title>Node6&#45;&gt;Node8</title>
<path fill="none" stroke="midnightblue" d="M1259.52,-168.324C1273.41,-159.9 1294.72,-146.971 1311.03,-137.074"/>
<polygon fill="midnightblue" stroke="midnightblue" points="1313.23,-139.834 1319.96,-131.655 1309.6,-133.85 1313.23,-139.834"/>
</g>
<!-- Node6&#45;&gt;Node3 -->
<g id="edge8" class="edge"><title>Node6&#45;&gt;Node3</title>
<path fill="none" stroke="midnightblue" d="M1217.5,-168.444C1187.8,-159.28 1140.51,-144.688 1107.56,-134.519"/>
<polygon fill="midnightblue" stroke="midnightblue" points="1108.41,-131.121 1097.83,-131.516 1106.35,-137.809 1108.41,-131.121"/>
</g>
<!-- Node6&#45;&gt;Node9 -->
<g id="edge9" class="edge"><title>Node6&#45;&gt;Node9</title>
<path fill="none" stroke="midnightblue" d="M1250.19,-168.136C1257.64,-155.185 1272.52,-130.611 1288.23,-112 1297.23,-101.333 1308.57,-90.5958 1317.97,-82.2861"/>
<polygon fill="midnightblue" stroke="midnightblue" points="1320.35,-84.859 1325.63,-75.6714 1315.77,-79.5634 1320.35,-84.859"/>
</g>
<!-- Node10 -->
<g id="node10" class="node"><title>Node10</title>
<polygon fill="white" stroke="#bfbfbf" points="1583.23,-0.5 1583.23,-19.5 1635.23,-19.5 1635.23,-0.5 1583.23,-0.5"/>
<text text-anchor="middle" x="1609.23" y="-7.5" font-family="Helvetica,sans-Serif" font-size="10.00">QDebug</text>
</g>
<!-- Node9&#45;&gt;Node10 -->
<g id="edge10" class="edge"><title>Node9&#45;&gt;Node10</title>
<path fill="none" stroke="midnightblue" d="M1361.42,-60.0166C1410.01,-50.4059 1516.81,-29.2795 1573.01,-18.1626"/>
<polygon fill="midnightblue" stroke="midnightblue" points="1573.76,-21.5824 1582.89,-16.2084 1572.41,-14.7154 1573.76,-21.5824"/>
</g>
<!-- Node11 -->
<g id="node11" class="node"><title>Node11</title>
<polygon fill="white" stroke="#bfbfbf" points="925.726,-0.5 925.726,-19.5 990.726,-19.5 990.726,-0.5 925.726,-0.5"/>
<text text-anchor="middle" x="958.226" y="-7.5" font-family="Helvetica,sans-Serif" font-size="10.00">QDateTime</text>
</g>
<!-- Node9&#45;&gt;Node11 -->
<g id="edge11" class="edge"><title>Node9&#45;&gt;Node11</title>
<path fill="none" stroke="midnightblue" d="M1311.13,-61.4151C1247.69,-52.3525 1080.33,-28.4436 1001.04,-17.117"/>
<polygon fill="midnightblue" stroke="midnightblue" points="1001.31,-13.6194 990.915,-15.67 1000.32,-20.5491 1001.31,-13.6194"/>
</g>
<!-- Node12 -->
<g id="node12" class="node"><title>Node12</title>
<polygon fill="white" stroke="#bfbfbf" points="1349.73,-0.5 1349.73,-19.5 1390.73,-19.5 1390.73,-0.5 1349.73,-0.5"/>
<text text-anchor="middle" x="1370.23" y="-7.5" font-family="Helvetica,sans-Serif" font-size="10.00">string</text>
</g>
<!-- Node9&#45;&gt;Node12 -->
<g id="edge12" class="edge"><title>Node9&#45;&gt;Node12</title>
<path fill="none" stroke="midnightblue" d="M1341.84,-56.083C1346.59,-48.5341 1353.54,-37.4948 1359.38,-28.2298"/>
<polygon fill="midnightblue" stroke="midnightblue" points="1362.35,-30.0783 1364.72,-19.7511 1356.43,-26.3486 1362.35,-30.0783"/>
</g>
<!-- Node13 -->
<g id="node13" class="node"><title>Node13</title>
<polygon fill="white" stroke="#bfbfbf" points="1443.23,-0.5 1443.23,-19.5 1497.23,-19.5 1497.23,-0.5 1443.23,-0.5"/>
<text text-anchor="middle" x="1470.23" y="-7.5" font-family="Helvetica,sans-Serif" font-size="10.00">iostream</text>
</g>
<!-- Node9&#45;&gt;Node13 -->
<g id="edge13" class="edge"><title>Node9&#45;&gt;Node13</title>
<path fill="none" stroke="midnightblue" d="M1357.46,-56.4435C1379.61,-47.5171 1414.54,-33.4387 1439.66,-23.3168"/>
<polygon fill="midnightblue" stroke="midnightblue" points="1441.13,-26.5006 1449.09,-19.5164 1438.51,-20.0079 1441.13,-26.5006"/>
</g>
<!-- Node14 -->
<g id="node14" class="node"><title>Node14</title>
<polygon fill="white" stroke="#bfbfbf" points="1266.73,-0.5 1266.73,-19.5 1331.73,-19.5 1331.73,-0.5 1266.73,-0.5"/>
<text text-anchor="middle" x="1299.23" y="-7.5" font-family="Helvetica,sans-Serif" font-size="10.00">QStringList</text>
</g>
<!-- Node9&#45;&gt;Node14 -->
<g id="edge14" class="edge"><title>Node9&#45;&gt;Node14</title>
<path fill="none" stroke="midnightblue" d="M1330.12,-56.083C1324.94,-48.5341 1317.38,-37.4948 1311.03,-28.2298"/>
<polygon fill="midnightblue" stroke="midnightblue" points="1313.76,-26.0221 1305.22,-19.7511 1307.99,-29.9787 1313.76,-26.0221"/>
</g>
<!-- Node15&#45;&gt;Node10 -->
<g id="edge16" class="edge"><title>Node15&#45;&gt;Node10</title>
<path fill="none" stroke="midnightblue" d="M936.845,-230.736C1035.02,-225.717 1253.57,-212.147 1324.23,-188 1435.6,-149.938 1548.73,-61.6768 1591.44,-26.1842"/>
<polygon fill="midnightblue" stroke="midnightblue" points="1593.84,-28.7443 1599.25,-19.6337 1589.34,-23.3832 1593.84,-28.7443"/>
</g>
<!-- Node15&#45;&gt;Node16 -->
<g id="edge17" class="edge"><title>Node15&#45;&gt;Node16</title>
<path fill="none" stroke="midnightblue" d="M936.829,-229.764C1086.42,-219.803 1537.51,-189.768 1665.21,-181.265"/>
<polygon fill="midnightblue" stroke="midnightblue" points="1665.79,-184.734 1675.53,-180.578 1665.32,-177.75 1665.79,-184.734"/>
</g>
<!-- Node15&#45;&gt;Node7 -->
<g id="edge18" class="edge"><title>Node15&#45;&gt;Node7</title>
<path fill="none" stroke="midnightblue" d="M873.284,-224.238C860.516,-216.147 842.34,-203.117 830.226,-188 804.547,-155.958 787.147,-110.448 778.84,-85.3653"/>
<polygon fill="midnightblue" stroke="midnightblue" points="782.125,-84.1458 775.753,-75.6815 775.456,-86.2722 782.125,-84.1458"/>
</g>
<!-- Node15&#45;&gt;Node17 -->
<g id="edge19" class="edge"><title>Node15&#45;&gt;Node17</title>
<path fill="none" stroke="midnightblue" d="M839.606,-227.674C744.288,-217.234 534.076,-194.209 441.053,-184.02"/>
<polygon fill="midnightblue" stroke="midnightblue" points="441.155,-180.51 430.833,-182.9 440.393,-187.468 441.155,-180.51"/>
</g>
<!-- Node18 -->
<g id="node18" class="node"><title>Node18</title>
<polygon fill="white" stroke="#bfbfbf" points="839.226,-168.5 839.226,-187.5 913.226,-187.5 913.226,-168.5 839.226,-168.5"/>
<text text-anchor="middle" x="876.226" y="-175.5" font-family="Helvetica,sans-Serif" font-size="10.00">QTextStream</text>
</g>
<!-- Node15&#45;&gt;Node18 -->
<g id="edge20" class="edge"><title>Node15&#45;&gt;Node18</title>
<path fill="none" stroke="midnightblue" d="M886.244,-224.083C884.654,-216.927 882.367,-206.635 880.379,-197.691"/>
<polygon fill="midnightblue" stroke="midnightblue" points="883.756,-196.754 878.17,-187.751 876.923,-198.272 883.756,-196.754"/>
</g>
<!-- Node19 -->
<g id="node19" class="node"><title>Node19</title>
<polygon fill="white" stroke="#bfbfbf" points="931.726,-168.5 931.726,-187.5 976.726,-187.5 976.726,-168.5 931.726,-168.5"/>
<text text-anchor="middle" x="954.226" y="-175.5" font-family="Helvetica,sans-Serif" font-size="10.00">QTime</text>
</g>
<!-- Node15&#45;&gt;Node19 -->
<g id="edge21" class="edge"><title>Node15&#45;&gt;Node19</title>
<path fill="none" stroke="midnightblue" d="M898.83,-224.324C908.682,-216.263 923.577,-204.077 935.441,-194.369"/>
<polygon fill="midnightblue" stroke="midnightblue" points="937.905,-196.875 943.429,-187.834 933.473,-191.457 937.905,-196.875"/>
</g>
<!-- Node15&#45;&gt;Node9 -->
<g id="edge22" class="edge"><title>Node15&#45;&gt;Node9</title>
<path fill="none" stroke="midnightblue" d="M933.788,-224.471C971.671,-216.776 1026.71,-204.188 1073.23,-188 1163.85,-156.461 1265.58,-104.665 1311.45,-80.3689"/>
<polygon fill="midnightblue" stroke="midnightblue" points="1313.18,-83.41 1320.36,-75.6189 1309.89,-77.2322 1313.18,-83.41"/>
</g>
<!-- Node20 -->
<g id="node20" class="node"><title>Node20</title>
<polygon fill="white" stroke="#bfbfbf" points="995.226,-168.5 995.226,-187.5 1043.23,-187.5 1043.23,-168.5 995.226,-168.5"/>
<text text-anchor="middle" x="1019.23" y="-175.5" font-family="Helvetica,sans-Serif" font-size="10.00">QTimer</text>
</g>
<!-- Node15&#45;&gt;Node20 -->
<g id="edge23" class="edge"><title>Node15&#45;&gt;Node20</title>
<path fill="none" stroke="midnightblue" d="M908.983,-224.444C930.542,-215.557 964.489,-201.563 989.019,-191.451"/>
<polygon fill="midnightblue" stroke="midnightblue" points="990.654,-194.563 998.565,-187.516 987.986,-188.092 990.654,-194.563"/>
</g>
<!-- Node15&#45;&gt;Node6 -->
<g id="edge24" class="edge"><title>Node15&#45;&gt;Node6</title>
<path fill="none" stroke="midnightblue" d="M936.744,-225.661C999.342,-216.192 1108.52,-199.678 1178.79,-189.049"/>
<polygon fill="midnightblue" stroke="midnightblue" points="1179.5,-192.481 1188.87,-187.525 1178.46,-185.56 1179.5,-192.481"/>
</g>
<!-- Node15&#45;&gt;Node3 -->
<g id="edge25" class="edge"><title>Node15&#45;&gt;Node3</title>
<path fill="none" stroke="midnightblue" d="M936.892,-232.01C973.33,-228.657 1021.92,-218.236 1052.23,-188 1064.26,-175.993 1068.43,-156.698 1069.79,-142.244"/>
<polygon fill="midnightblue" stroke="midnightblue" points="1073.31,-142.103 1070.37,-131.922 1066.32,-141.709 1073.31,-142.103"/>
</g>
<!-- Node15&#45;&gt;Node21 -->
<g id="edge26" class="edge"><title>Node15&#45;&gt;Node21</title>
<path fill="none" stroke="midnightblue" d="M839.655,-231.502C787.274,-228.283 702.49,-218.351 636.226,-188 610.692,-176.305 586.399,-154.521 571.422,-139.413"/>
<polygon fill="midnightblue" stroke="midnightblue" points="573.566,-136.593 564.111,-131.813 568.521,-141.446 573.566,-136.593"/>
</g>
<!-- Node22 -->
<g id="node22" class="node"><title>Node22</title>
<g id="a_node22"><a xlink:href="../../d4/d25/sensordata_8h.xhtml" target="_top" xlink:title="sensordata.h">
<polygon fill="white" stroke="black" points="191.726,-168.5 191.726,-187.5 264.726,-187.5 264.726,-168.5 191.726,-168.5"/>
<text text-anchor="middle" x="228.226" y="-175.5" font-family="Helvetica,sans-Serif" font-size="10.00">sensordata.h</text>
</a>
</g>
</g>
<!-- Node15&#45;&gt;Node22 -->
<g id="edge32" class="edge"><title>Node15&#45;&gt;Node22</title>
<path fill="none" stroke="midnightblue" d="M839.694,-229.029C717.047,-218.994 395.857,-192.715 275.062,-182.832"/>
<polygon fill="midnightblue" stroke="midnightblue" points="275.272,-179.338 265.02,-182.01 274.702,-186.314 275.272,-179.338"/>
</g>
<!-- Node23 -->
<g id="node23" class="node"><title>Node23</title>
<g id="a_node23"><a xlink:href="../../d1/da1/brushvacuumdata_8h.xhtml" target="_top" xlink:title="brushvacuumdata.h">
<polygon fill="white" stroke="black" points="487.726,-168.5 487.726,-187.5 588.726,-187.5 588.726,-168.5 487.726,-168.5"/>
<text text-anchor="middle" x="538.226" y="-175.5" font-family="Helvetica,sans-Serif" font-size="10.00">brushvacuumdata.h</text>
</a>
</g>
</g>
<!-- Node15&#45;&gt;Node23 -->
<g id="edge35" class="edge"><title>Node15&#45;&gt;Node23</title>
<path fill="none" stroke="midnightblue" d="M839.56,-225.492C776.671,-215.789 667.174,-198.895 598.918,-188.364"/>
<polygon fill="midnightblue" stroke="midnightblue" points="599.162,-184.86 588.745,-186.794 598.094,-191.778 599.162,-184.86"/>
</g>
<!-- Node24 -->
<g id="node24" class="node"><title>Node24</title>
<g id="a_node24"><a xlink:href="../../de/d51/currentactiondata_8h.xhtml" target="_top" xlink:title="currentactiondata.h">
<polygon fill="white" stroke="black" points="645.226,-168.5 645.226,-187.5 745.226,-187.5 745.226,-168.5 645.226,-168.5"/>
<text text-anchor="middle" x="695.226" y="-175.5" font-family="Helvetica,sans-Serif" font-size="10.00">currentactiondata.h</text>
</a>
</g>
</g>
<!-- Node15&#45;&gt;Node24 -->
<g id="edge38" class="edge"><title>Node15&#45;&gt;Node24</title>
<path fill="none" stroke="midnightblue" d="M857.644,-224.444C824.611,-215.201 771.838,-200.436 735.46,-190.257"/>
<polygon fill="midnightblue" stroke="midnightblue" points="736.237,-186.84 725.664,-187.516 734.351,-193.582 736.237,-186.84"/>
</g>
<!-- Node15&#45;&gt;Node25 -->
<g id="edge41" class="edge"><title>Node15&#45;&gt;Node25</title>
<path fill="none" stroke="midnightblue" d="M839.656,-232.07C726.375,-229.435 435.767,-219.99 183.409,-187.98"/>
<polygon fill="midnightblue" stroke="midnightblue" points="183.679,-184.486 173.315,-186.685 182.789,-191.429 183.679,-184.486"/>
</g>
<!-- Node21&#45;&gt;Node7 -->
<g id="edge27" class="edge"><title>Node21&#45;&gt;Node7</title>
<path fill="none" stroke="midnightblue" d="M590.61,-112.444C630.492,-102.519 695.966,-86.2259 736.727,-76.0826"/>
<polygon fill="midnightblue" stroke="midnightblue" points="737.668,-79.4552 746.527,-73.6439 735.978,-72.6624 737.668,-79.4552"/>
</g>
<!-- Node21&#45;&gt;Node5 -->
<g id="edge28" class="edge"><title>Node21&#45;&gt;Node5</title>
<path fill="none" stroke="midnightblue" d="M614.189,-114.91C721.43,-103.644 947.807,-79.8611 1034.98,-70.7031"/>
<polygon fill="midnightblue" stroke="midnightblue" points="1035.56,-74.1612 1045.14,-69.6354 1034.83,-67.1995 1035.56,-74.1612"/>
</g>
<!-- Node21&#45;&gt;Node4 -->
<g id="edge29" class="edge"><title>Node21&#45;&gt;Node4</title>
<path fill="none" stroke="midnightblue" d="M533.25,-112.444C509.069,-103.438 470.808,-89.1891 443.579,-79.049"/>
<polygon fill="midnightblue" stroke="midnightblue" points="444.687,-75.7265 434.094,-75.5164 442.243,-82.2864 444.687,-75.7265"/>
</g>
<!-- Node21&#45;&gt;Node11 -->
<g id="edge30" class="edge"><title>Node21&#45;&gt;Node11</title>
<path fill="none" stroke="midnightblue" d="M577.085,-112.396C610.442,-98.8905 678.063,-72.5537 737.226,-56 798.444,-38.8709 870.901,-25.3691 915.719,-17.7831"/>
<polygon fill="midnightblue" stroke="midnightblue" points="916.384,-21.2204 925.67,-16.1191 915.23,-14.3163 916.384,-21.2204"/>
</g>
<!-- Node21&#45;&gt;Node9 -->
<g id="edge31" class="edge"><title>Node21&#45;&gt;Node9</title>
<path fill="none" stroke="midnightblue" d="M613.898,-117.007C766.635,-106.433 1178.31,-77.9325 1301.16,-69.4279"/>
<polygon fill="midnightblue" stroke="midnightblue" points="1301.41,-72.9186 1311.15,-68.7362 1300.93,-65.9353 1301.41,-72.9186"/>
</g>
<!-- Node22&#45;&gt;Node21 -->
<g id="edge33" class="edge"><title>Node22&#45;&gt;Node21</title>
<path fill="none" stroke="midnightblue" d="M264.897,-170.963C320.469,-161.814 426.693,-144.325 494.366,-133.184"/>
<polygon fill="midnightblue" stroke="midnightblue" points="495.173,-136.599 504.471,-131.521 494.035,-129.692 495.173,-136.599"/>
</g>
<!-- Node22&#45;&gt;Node4 -->
<g id="edge34" class="edge"><title>Node22&#45;&gt;Node4</title>
<path fill="none" stroke="midnightblue" d="M242.585,-168.368C274.122,-149.412 349.67,-104.001 388.031,-80.9424"/>
<polygon fill="midnightblue" stroke="midnightblue" points="390.165,-83.7431 396.933,-75.5914 386.559,-77.7435 390.165,-83.7431"/>
</g>
<!-- Node23&#45;&gt;Node21 -->
<g id="edge36" class="edge"><title>Node23&#45;&gt;Node21</title>
<path fill="none" stroke="midnightblue" d="M541.198,-168.083C543.609,-160.849 547.089,-150.409 550.093,-141.397"/>
<polygon fill="midnightblue" stroke="midnightblue" points="553.467,-142.345 553.309,-131.751 546.826,-140.131 553.467,-142.345"/>
</g>
<!-- Node23&#45;&gt;Node4 -->
<g id="edge37" class="edge"><title>Node23&#45;&gt;Node4</title>
<path fill="none" stroke="midnightblue" d="M528.26,-168.368C506.838,-149.814 456.152,-105.913 429.049,-82.4376"/>
<polygon fill="midnightblue" stroke="midnightblue" points="430.995,-79.4929 421.145,-75.5914 426.412,-84.7841 430.995,-79.4929"/>
</g>
<!-- Node24&#45;&gt;Node21 -->
<g id="edge39" class="edge"><title>Node24&#45;&gt;Node21</title>
<path fill="none" stroke="midnightblue" d="M673.201,-168.444C650.122,-159.478 613.664,-145.314 587.585,-135.183"/>
<polygon fill="midnightblue" stroke="midnightblue" points="588.736,-131.875 578.148,-131.516 586.201,-138.4 588.736,-131.875"/>
</g>
<!-- Node24&#45;&gt;Node4 -->
<g id="edge40" class="edge"><title>Node24&#45;&gt;Node4</title>
<path fill="none" stroke="midnightblue" d="M688.152,-168.277C676.161,-154.112 650.383,-126.261 622.226,-112 566.198,-83.6238 493.045,-73.1143 449.237,-69.2403"/>
<polygon fill="midnightblue" stroke="midnightblue" points="449.276,-65.732 439.025,-68.411 448.709,-72.709 449.276,-65.732"/>
</g>
<!-- Node25&#45;&gt;Node21 -->
<g id="edge42" class="edge"><title>Node25&#45;&gt;Node21</title>
<path fill="none" stroke="midnightblue" d="M173.341,-169.495C176.342,-168.963 179.332,-168.457 182.226,-168 288.809,-151.185 413.356,-137.352 488.441,-129.643"/>
<polygon fill="midnightblue" stroke="midnightblue" points="489.107,-133.093 498.7,-128.596 488.396,-126.129 489.107,-133.093"/>
</g>
<!-- Node25&#45;&gt;Node4 -->
<g id="edge43" class="edge"><title>Node25&#45;&gt;Node4</title>
<path fill="none" stroke="midnightblue" d="M157.804,-168.368C206.3,-148.97 324.052,-101.87 380.307,-79.3673"/>
<polygon fill="midnightblue" stroke="midnightblue" points="381.762,-82.5551 389.747,-75.5914 379.162,-76.0557 381.762,-82.5551"/>
</g>
<!-- Node26 -->
<g id="node26" class="node"><title>Node26</title>
<polygon fill="white" stroke="#bfbfbf" points="12.7256,-112.5 12.7256,-131.5 65.7256,-131.5 65.7256,-112.5 12.7256,-112.5"/>
<text text-anchor="middle" x="39.2256" y="-119.5" font-family="Helvetica,sans-Serif" font-size="10.00">QVector</text>
</g>
<!-- Node25&#45;&gt;Node26 -->
<g id="edge44" class="edge"><title>Node25&#45;&gt;Node26</title>
<path fill="none" stroke="midnightblue" d="M120.641,-168.324C105.227,-159.743 81.4134,-146.486 63.5159,-136.522"/>
<polygon fill="midnightblue" stroke="midnightblue" points="65.2114,-133.461 54.7716,-131.655 61.8065,-139.577 65.2114,-133.461"/>
</g>
<!-- Node29&#45;&gt;Node27 -->
<g id="edge54" class="edge"><title>Node29&#45;&gt;Node27</title>
<path fill="none" stroke="midnightblue" d="M156.201,-224.444C133.122,-215.478 96.6635,-201.314 70.5847,-191.183"/>
<polygon fill="midnightblue" stroke="midnightblue" points="71.7363,-187.875 61.1475,-187.516 69.2014,-194.4 71.7363,-187.875"/>
</g>
<!-- Node29&#45;&gt;Node25 -->
<g id="edge55" class="edge"><title>Node29&#45;&gt;Node25</title>
<path fill="none" stroke="midnightblue" d="M171.29,-224.083C165.296,-216.377 156.474,-205.033 149.178,-195.653"/>
<polygon fill="midnightblue" stroke="midnightblue" points="151.934,-193.496 143.032,-187.751 146.409,-197.793 151.934,-193.496"/>
</g>
<!-- Node31&#45;&gt;Node5 -->
<g id="edge58" class="edge"><title>Node31&#45;&gt;Node5</title>
<path fill="none" stroke="midnightblue" d="M1273.8,-342.758C1327.73,-337.983 1441.79,-325.136 1471.23,-300 1494.64,-280.001 1495.23,-265.795 1495.23,-235 1495.23,-235 1495.23,-235 1495.23,-177 1495.23,-146.205 1495.47,-130.988 1471.23,-112 1442.68,-89.6436 1198.07,-74.0173 1105.51,-68.8563"/>
<polygon fill="midnightblue" stroke="midnightblue" points="1105.68,-65.3607 1095.51,-68.3064 1105.3,-72.3501 1105.68,-65.3607"/>
</g>
<!-- Node31&#45;&gt;Node10 -->
<g id="edge59" class="edge"><title>Node31&#45;&gt;Node10</title>
<path fill="none" stroke="midnightblue" d="M1273.81,-343.362C1365.65,-337.329 1647.23,-312.513 1647.23,-235 1647.23,-235 1647.23,-235 1647.23,-121 1647.23,-86.8131 1630.63,-49.7639 1619.37,-28.5707"/>
<polygon fill="midnightblue" stroke="midnightblue" points="1622.41,-26.832 1614.51,-19.769 1616.28,-30.2151 1622.41,-26.832"/>
</g>
<!-- Node31&#45;&gt;Node16 -->
<g id="edge60" class="edge"><title>Node31&#45;&gt;Node16</title>
<path fill="none" stroke="midnightblue" d="M1273.96,-343.695C1363.19,-339.395 1631.32,-324.537 1661.23,-300 1691.91,-274.825 1698.22,-225.115 1699.27,-197.9"/>
<polygon fill="midnightblue" stroke="midnightblue" points="1702.77,-197.813 1699.46,-187.752 1695.78,-197.687 1702.77,-197.813"/>
</g>
<!-- Node32 -->
<g id="node32" class="node"><title>Node32</title>
<polygon fill="white" stroke="#bfbfbf" points="173.226,-280.5 173.226,-299.5 215.226,-299.5 215.226,-280.5 173.226,-280.5"/>
<text text-anchor="middle" x="194.226" y="-287.5" font-family="Helvetica,sans-Serif" font-size="10.00">vector</text>
</g>
<!-- Node31&#45;&gt;Node32 -->
<g id="edge61" class="edge"><title>Node31&#45;&gt;Node32</title>
<path fill="none" stroke="midnightblue" d="M1216.7,-337.613C1213.52,-336.978 1210.32,-336.419 1207.23,-336 776.203,-277.599 659.67,-362.522 229.226,-300 227.968,-299.817 226.691,-299.607 225.404,-299.375"/>
<polygon fill="midnightblue" stroke="midnightblue" points="226.061,-295.937 215.549,-297.258 224.591,-302.781 226.061,-295.937"/>
</g>
<!-- Node31&#45;&gt;Node26 -->
<g id="edge62" class="edge"><title>Node31&#45;&gt;Node26</title>
<path fill="none" stroke="midnightblue" d="M1216.71,-337.599C1213.52,-336.966 1210.32,-336.412 1207.23,-336 1084.69,-319.673 206.957,-352.897 95.2256,-300 36.7467,-272.314 23.3742,-249.147 2.22558,-188 -0.679885,-179.599 -0.772849,-176.368 2.22558,-168 6.16618,-157.003 14.0826,-146.769 21.5851,-138.848"/>
<polygon fill="midnightblue" stroke="midnightblue" points="24.1179,-141.266 28.7871,-131.755 19.2062,-136.278 24.1179,-141.266"/>
</g>
<!-- Node31&#45;&gt;Node8 -->
<g id="edge63" class="edge"><title>Node31&#45;&gt;Node8</title>
<path fill="none" stroke="midnightblue" d="M1250.9,-336.224C1265.59,-313.048 1305.09,-247.872 1324.23,-188 1329.07,-172.86 1331.6,-154.963 1332.9,-141.786"/>
<polygon fill="midnightblue" stroke="midnightblue" points="1336.41,-141.867 1333.76,-131.609 1329.43,-141.28 1336.41,-141.867"/>
</g>
<!-- Node31&#45;&gt;Node13 -->
<g id="edge64" class="edge"><title>Node31&#45;&gt;Node13</title>
<path fill="none" stroke="midnightblue" d="M1273.96,-344.339C1338.78,-342.258 1493.67,-333.784 1531.23,-300 1611.8,-227.52 1517.76,-77.7423 1482.5,-27.696"/>
<polygon fill="midnightblue" stroke="midnightblue" points="1485.33,-25.6365 1476.66,-19.553 1479.64,-29.718 1485.33,-25.6365"/>
</g>
<!-- Node33 -->
<g id="node33" class="node"><title>Node33</title>
<polygon fill="white" stroke="#bfbfbf" points="963.226,-280.5 963.226,-299.5 1043.23,-299.5 1043.23,-280.5 963.226,-280.5"/>
<text text-anchor="middle" x="1003.23" y="-287.5" font-family="Helvetica,sans-Serif" font-size="10.00">QMainWindow</text>
</g>
<!-- Node31&#45;&gt;Node33 -->
<g id="edge65" class="edge"><title>Node31&#45;&gt;Node33</title>
<path fill="none" stroke="midnightblue" d="M1216.6,-338.171C1213.44,-337.431 1210.27,-336.695 1207.23,-336 1154.48,-323.936 1093.92,-310.649 1052.58,-301.663"/>
<polygon fill="midnightblue" stroke="midnightblue" points="1053.27,-298.232 1042.76,-299.53 1051.78,-305.073 1053.27,-298.232"/>
</g>
<!-- Node31&#45;&gt;Node7 -->
<g id="edge66" class="edge"><title>Node31&#45;&gt;Node7</title>
<path fill="none" stroke="midnightblue" d="M1273.82,-343.181C1331.68,-337.792 1457.23,-316.686 1457.23,-235 1457.23,-235 1457.23,-235 1457.23,-177 1457.23,-132.215 1421.69,-128.925 1380.23,-112 1327.52,-90.4881 933.525,-73.3093 810.089,-68.4091"/>
<polygon fill="midnightblue" stroke="midnightblue" points="810.131,-64.9081 800.001,-68.0121 809.856,-71.9027 810.131,-64.9081"/>
</g>
<!-- Node31&#45;&gt;Node15 -->
<g id="edge67" class="edge"><title>Node31&#45;&gt;Node15</title>
<path fill="none" stroke="midnightblue" d="M1216.62,-337.735C1186.13,-329.689 1136.65,-315.753 1095.23,-300 1075.52,-292.508 1072.01,-287.259 1052.23,-280 1013.92,-265.948 969.174,-253.953 936.109,-245.89"/>
<polygon fill="midnightblue" stroke="midnightblue" points="936.783,-242.452 926.242,-243.515 935.146,-249.258 936.783,-242.452"/>
</g>
<!-- Node31&#45;&gt;Node2 -->
<g id="edge68" class="edge"><title>Node31&#45;&gt;Node2</title>
<path fill="none" stroke="midnightblue" d="M1216.7,-337.645C1213.52,-337.004 1210.31,-336.435 1207.23,-336 871.493,-288.728 782.824,-331.282 445.226,-300 443.918,-299.879 442.595,-299.75 441.263,-299.615"/>
<polygon fill="midnightblue" stroke="midnightblue" points="441.241,-296.091 430.916,-298.469 440.47,-303.049 441.241,-296.091"/>
</g>
<!-- Node31&#45;&gt;Node22 -->
<g id="edge69" class="edge"><title>Node31&#45;&gt;Node22</title>
<path fill="none" stroke="midnightblue" d="M1216.7,-337.624C1213.52,-336.987 1210.32,-336.425 1207.23,-336 1109.51,-322.572 407.687,-345.604 320.226,-300 277.276,-277.605 248.62,-225.12 235.84,-197.207"/>
<polygon fill="midnightblue" stroke="midnightblue" points="238.947,-195.576 231.723,-187.826 232.537,-198.39 238.947,-195.576"/>
</g>
<!-- Node31&#45;&gt;Node6 -->
<g id="edge70" class="edge"><title>Node31&#45;&gt;Node6</title>
<path fill="none" stroke="midnightblue" d="M1245.23,-336.075C1245.23,-309.945 1245.23,-233.211 1245.23,-197.577"/>
<polygon fill="midnightblue" stroke="midnightblue" points="1248.73,-197.568 1245.23,-187.568 1241.73,-197.568 1248.73,-197.568"/>
</g>
<!-- Node31&#45;&gt;Node3 -->
<g id="edge71" class="edge"><title>Node31&#45;&gt;Node3</title>
<path fill="none" stroke="midnightblue" d="M1238.37,-336.297C1212.23,-303.148 1118.64,-184.414 1083.6,-139.961"/>
<polygon fill="midnightblue" stroke="midnightblue" points="1086.17,-137.57 1077.23,-131.884 1080.67,-141.904 1086.17,-137.57"/>
</g>
<!-- Node31&#45;&gt;Node9 -->
<g id="edge72" class="edge"><title>Node31&#45;&gt;Node9</title>
<path fill="none" stroke="midnightblue" d="M1273.83,-343.671C1334.55,-340.298 1473.72,-329.479 1509.23,-300 1532.92,-280.327 1533.23,-265.795 1533.23,-235 1533.23,-235 1533.23,-235 1533.23,-177 1533.23,-146.205 1532.05,-132.669 1509.23,-112 1471.16,-77.5391 1410.04,-68.8254 1371.56,-66.9727"/>
<polygon fill="midnightblue" stroke="midnightblue" points="1371.47,-63.4672 1361.35,-66.6164 1371.22,-70.463 1371.47,-63.4672"/>
</g>
<!-- Node31&#45;&gt;Node21 -->
<g id="edge73" class="edge"><title>Node31&#45;&gt;Node21</title>
<path fill="none" stroke="midnightblue" d="M1216.65,-337.937C1213.48,-337.242 1210.29,-336.58 1207.23,-336 1095.63,-314.89 1065.84,-321.028 954.226,-300 740.65,-259.762 613.161,-358.37 478.226,-188 461.215,-166.522 493.613,-147.164 521.694,-135.269"/>
<polygon fill="midnightblue" stroke="midnightblue" points="523.007,-138.513 530.974,-131.529 520.39,-132.021 523.007,-138.513"/>
</g>
<!-- Node31&#45;&gt;Node25 -->
<g id="edge74" class="edge"><title>Node31&#45;&gt;Node25</title>
<path fill="none" stroke="midnightblue" d="M1216.71,-337.606C1213.52,-336.972 1210.32,-336.415 1207.23,-336 977.374,-305.124 387.584,-362.417 164.226,-300 115.166,-286.291 89.9836,-287.946 64.2256,-244 51.3135,-221.97 78.9561,-203.234 103.642,-191.618"/>
<polygon fill="midnightblue" stroke="midnightblue" points="105.148,-194.779 112.868,-187.522 102.308,-188.381 105.148,-194.779"/>
</g>
<!-- Node34&#45;&gt;Node16 -->
<g id="edge76" class="edge"><title>Node34&#45;&gt;Node16</title>
<path fill="none" stroke="midnightblue" d="M1775.81,-280.385C1767.77,-267.745 1752.03,-243.554 1737.23,-224 1729.82,-214.218 1721,-203.719 1713.73,-195.324"/>
<polygon fill="midnightblue" stroke="midnightblue" points="1716.31,-192.95 1707.08,-187.736 1711.04,-197.563 1716.31,-192.95"/>
</g>
</g>
</svg>
        <g id="navigator" transform="translate(0 0)" fill="#404254">
                <rect fill="#f2f5e9" fill-opacity="0.5" stroke="#606060" stroke-width=".5" x="0" y="0" width="60" height="60"/>
                <use id="zoomplus" xlink:href="#zoomPlus" x="17" y="9" onmousedown="handleZoom(evt,'in')"/>
                <use id="zoomminus" xlink:href="#zoomMin" x="42" y="9" onmousedown="handleZoom(evt,'out')"/>
                <use id="reset" xlink:href="#resetDef" x="30" y="36" onmousedown="handleReset()"/>
                <g id="arrowUp" xlink:href="#dirArrow" transform="translate(30 24)" onmousedown="handlePan(0,-1)">
                  <use xlink:href="#rim" fill="#404040">
                        <set attributeName="fill" to="#808080" begin="arrowUp.mouseover" end="arrowUp.mouseout"/>
                  </use>
                  <path fill="none" stroke="white" stroke-width="1.5" d="M0,-3.0v7 M-2.5,-0.5L0,-3.0L2.5,-0.5"/>
                </g>
                <g id="arrowRight" xlink:href="#dirArrow" transform="rotate(90) translate(36 -43)" onmousedown="handlePan(1,0)">
                  <use xlink:href="#rim" fill="#404040">
                        <set attributeName="fill" to="#808080" begin="arrowRight.mouseover" end="arrowRight.mouseout"/>
                  </use>
                  <path fill="none" stroke="white" stroke-width="1.5" d="M0,-3.0v7 M-2.5,-0.5L0,-3.0L2.5,-0.5"/>
                </g>
                <g id="arrowDown" xlink:href="#dirArrow" transform="rotate(180) translate(-30 -48)" onmousedown="handlePan(0,1)">
                  <use xlink:href="#rim" fill="#404040">
                        <set attributeName="fill" to="#808080" begin="arrowDown.mouseover" end="arrowDown.mouseout"/>
                  </use>
                  <path fill="none" stroke="white" stroke-width="1.5" d="M0,-3.0v7 M-2.5,-0.5L0,-3.0L2.5,-0.5"/>
                </g>
                <g id="arrowLeft" xlink:href="#dirArrow" transform="rotate(270) translate(-36 17)" onmousedown="handlePan(-1,0)">
                  <use xlink:href="#rim" fill="#404040">
                        <set attributeName="fill" to="#808080" begin="arrowLeft.mouseover" end="arrowLeft.mouseout"/>
                  </use>
                  <path fill="none" stroke="white" stroke-width="1.5" d="M0,-3.0v7 M-2.5,-0.5L0,-3.0L2.5,-0.5"/>
                </g>
        </g>
        <svg viewBox="0 0 15 15" width="100%" height="30px" preserveAspectRatio="xMaxYMin meet">
         <g id="arrow_out" transform="scale(0.3 0.3)">
          <a xlink:href="controllingroomba_8cpp__incl_org.svg" target="_base">
           <rect id="button" ry="5" rx="5" y="6" x="6" height="38" width="38"
                fill="#f2f5e9" fill-opacity="0.5" stroke="#606060" stroke-width="1.0"/>
           <path id="arrow"
             d="M 11.500037,31.436501 C 11.940474,20.09759 22.043105,11.32322 32.158766,21.979434 L 37.068811,17.246167 C 37.068811,17.246167 37.088388,32 37.088388,32 L 22.160133,31.978069 C 22.160133,31.978069 26.997745,27.140456 26.997745,27.140456 C 18.528582,18.264221 13.291696,25.230495 11.500037,31.436501 z"
             style="fill:#404040;"/>
          </a>
         </g>
        </svg>
</svg>
