<?xml version="1.0" encoding="UTF-8" standalone="no"?>
<!DOCTYPE svg PUBLIC "-//W3C//DTD SVG 1.1//EN"
 "http://www.w3.org/Graphics/SVG/1.1/DTD/svg11.dtd">
<!-- Generated by graphviz version 2.30.1 (20130214.1330)
 -->
<!-- Title: GUI/Gui&#45;RoombaV1.0/controllingroomba.cpp Pages: 1 -->
<svg width="1296pt" height="444pt"
 viewBox="0.00 0.00 1296.00 444.00" xmlns="http://www.w3.org/2000/svg" xmlns:xlink="http://www.w3.org/1999/xlink">
<g id="graph0" class="graph" transform="scale(1 1) rotate(0) translate(4 440)">
<title>GUI/Gui&#45;RoombaV1.0/controllingroomba.cpp</title>
<polygon fill="white" stroke="white" points="-4,5 -4,-440 1293,-440 1293,5 -4,5"/>
<!-- Node1 -->
<g id="node1" class="node"><title>Node1</title>
<polygon fill="#bfbfbf" stroke="black" points="118.5,-405 118.5,-435 233.5,-435 233.5,-405 118.5,-405"/>
<text text-anchor="start" x="126.5" y="-423" font-family="Helvetica,sans-Serif" font-size="10.00">GUI/Gui&#45;RoombaV1.0</text>
<text text-anchor="middle" x="176" y="-412" font-family="Helvetica,sans-Serif" font-size="10.00">/controllingroomba.cpp</text>
</g>
<!-- Node2 -->
<g id="node2" class="node"><title>Node2</title>
<g id="a_node2"><a xlink:href="../../da/d4b/controllingroomba_8h.xhtml" target="_top" xlink:title="controllingroomba.h">
<polygon fill="white" stroke="black" points="-0.5,-348.5 -0.5,-367.5 100.5,-367.5 100.5,-348.5 -0.5,-348.5"/>
<text text-anchor="middle" x="50" y="-355.5" font-family="Helvetica,sans-Serif" font-size="10.00">controllingroomba.h</text>
</a>
</g>
</g>
<!-- Node1&#45;&gt;Node2 -->
<g id="edge1" class="edge"><title>Node1&#45;&gt;Node2</title>
<path fill="none" stroke="midnightblue" d="M146.459,-404.933C125.486,-394.946 97.5434,-381.64 77.133,-371.92"/>
<polygon fill="midnightblue" stroke="midnightblue" points="78.5935,-368.739 68.0601,-367.6 75.5839,-375.059 78.5935,-368.739"/>
</g>
<!-- Node10 -->
<g id="node10" class="node"><title>Node10</title>
<polygon fill="white" stroke="#bfbfbf" points="119,-348.5 119,-367.5 233,-367.5 233,-348.5 119,-348.5"/>
<text text-anchor="middle" x="176" y="-355.5" font-family="Helvetica,sans-Serif" font-size="10.00">ui_controllingroomba.h</text>
</g>
<!-- Node1&#45;&gt;Node10 -->
<g id="edge9" class="edge"><title>Node1&#45;&gt;Node10</title>
<path fill="none" stroke="midnightblue" d="M176,-404.781C176,-396.781 176,-386.689 176,-378.017"/>
<polygon fill="midnightblue" stroke="midnightblue" points="179.5,-377.73 176,-367.731 172.5,-377.731 179.5,-377.73"/>
</g>
<!-- Node11 -->
<g id="node11" class="node"><title>Node11</title>
<g id="a_node11"><a xlink:href="../../dd/da1/roomba_8h.xhtml" target="_top" xlink:title="roomba.h">
<polygon fill="white" stroke="black" points="251.5,-348.5 251.5,-367.5 308.5,-367.5 308.5,-348.5 251.5,-348.5"/>
<text text-anchor="middle" x="280" y="-355.5" font-family="Helvetica,sans-Serif" font-size="10.00">roomba.h</text>
</a>
</g>
</g>
<!-- Node1&#45;&gt;Node11 -->
<g id="edge10" class="edge"><title>Node1&#45;&gt;Node11</title>
<path fill="none" stroke="midnightblue" d="M200.383,-404.933C217.146,-395.262 239.303,-382.479 255.985,-372.855"/>
<polygon fill="midnightblue" stroke="midnightblue" points="258.18,-375.629 265.093,-367.6 254.682,-369.566 258.18,-375.629"/>
</g>
<!-- Node3 -->
<g id="node3" class="node"><title>Node3</title>
<g id="a_node3"><a xlink:href="../../d7/d62/clslog_8h.xhtml" target="_top" xlink:title="../resources/clslog.h">
<polygon fill="white" stroke="black" points="157.5,-56.5 157.5,-75.5 262.5,-75.5 262.5,-56.5 157.5,-56.5"/>
<text text-anchor="middle" x="210" y="-63.5" font-family="Helvetica,sans-Serif" font-size="10.00">../resources/clslog.h</text>
</a>
</g>
</g>
<!-- Node2&#45;&gt;Node3 -->
<g id="edge2" class="edge"><title>Node2&#45;&gt;Node3</title>
<path fill="none" stroke="midnightblue" d="M46.4538,-348.44C38.9194,-329.454 22,-282.227 22,-241 22,-241 22,-241 22,-177 22,-117.638 92.6909,-89.7157 147.377,-76.9967"/>
<polygon fill="midnightblue" stroke="midnightblue" points="148.368,-80.3626 157.382,-74.7946 146.863,-73.5263 148.368,-80.3626"/>
</g>
<!-- Node9 -->
<g id="node9" class="node"><title>Node9</title>
<polygon fill="white" stroke="#bfbfbf" points="50.5,-292.5 50.5,-311.5 105.5,-311.5 105.5,-292.5 50.5,-292.5"/>
<text text-anchor="middle" x="78" y="-299.5" font-family="Helvetica,sans-Serif" font-size="10.00">QWidget</text>
</g>
<!-- Node2&#45;&gt;Node9 -->
<g id="edge8" class="edge"><title>Node2&#45;&gt;Node9</title>
<path fill="none" stroke="midnightblue" d="M54.6236,-348.083C58.4563,-340.691 64.0242,-329.953 68.7646,-320.811"/>
<polygon fill="midnightblue" stroke="midnightblue" points="71.9663,-322.24 73.4624,-311.751 65.752,-319.018 71.9663,-322.24"/>
</g>
<!-- Node4 -->
<g id="node4" class="node"><title>Node4</title>
<polygon fill="white" stroke="#bfbfbf" points="152,-0.5 152,-19.5 204,-19.5 204,-0.5 152,-0.5"/>
<text text-anchor="middle" x="178" y="-7.5" font-family="Helvetica,sans-Serif" font-size="10.00">QDebug</text>
</g>
<!-- Node3&#45;&gt;Node4 -->
<g id="edge3" class="edge"><title>Node3&#45;&gt;Node4</title>
<path fill="none" stroke="midnightblue" d="M204.716,-56.083C200.289,-48.6127 193.837,-37.7244 188.382,-28.5199"/>
<polygon fill="midnightblue" stroke="midnightblue" points="191.295,-26.5697 183.186,-19.7511 185.273,-30.1383 191.295,-26.5697"/>
</g>
<!-- Node5 -->
<g id="node5" class="node"><title>Node5</title>
<polygon fill="white" stroke="#bfbfbf" points="377.5,-0.5 377.5,-19.5 442.5,-19.5 442.5,-0.5 377.5,-0.5"/>
<text text-anchor="middle" x="410" y="-7.5" font-family="Helvetica,sans-Serif" font-size="10.00">QDateTime</text>
</g>
<!-- Node3&#45;&gt;Node5 -->
<g id="edge4" class="edge"><title>Node3&#45;&gt;Node5</title>
<path fill="none" stroke="midnightblue" d="M241.691,-56.4435C276.068,-47.1616 331.077,-32.3093 368.789,-22.127"/>
<polygon fill="midnightblue" stroke="midnightblue" points="369.716,-25.5022 378.458,-19.5164 367.891,-18.7442 369.716,-25.5022"/>
</g>
<!-- Node6 -->
<g id="node6" class="node"><title>Node6</title>
<polygon fill="white" stroke="#bfbfbf" points="222.5,-0.5 222.5,-19.5 263.5,-19.5 263.5,-0.5 222.5,-0.5"/>
<text text-anchor="middle" x="243" y="-7.5" font-family="Helvetica,sans-Serif" font-size="10.00">string</text>
</g>
<!-- Node3&#45;&gt;Node6 -->
<g id="edge5" class="edge"><title>Node3&#45;&gt;Node6</title>
<path fill="none" stroke="midnightblue" d="M215.449,-56.083C220.014,-48.6127 226.668,-37.7244 232.293,-28.5199"/>
<polygon fill="midnightblue" stroke="midnightblue" points="235.424,-30.109 237.652,-19.7511 229.451,-26.4588 235.424,-30.109"/>
</g>
<!-- Node7 -->
<g id="node7" class="node"><title>Node7</title>
<polygon fill="white" stroke="#bfbfbf" points="282,-0.5 282,-19.5 336,-19.5 336,-0.5 282,-0.5"/>
<text text-anchor="middle" x="309" y="-7.5" font-family="Helvetica,sans-Serif" font-size="10.00">iostream</text>
</g>
<!-- Node3&#45;&gt;Node7 -->
<g id="edge6" class="edge"><title>Node3&#45;&gt;Node7</title>
<path fill="none" stroke="midnightblue" d="M225.906,-56.324C241.638,-47.7428 265.942,-34.486 284.209,-24.5224"/>
<polygon fill="midnightblue" stroke="midnightblue" points="286.03,-27.5157 293.133,-19.6545 282.678,-21.3704 286.03,-27.5157"/>
</g>
<!-- Node8 -->
<g id="node8" class="node"><title>Node8</title>
<polygon fill="white" stroke="#bfbfbf" points="68.5,-0.5 68.5,-19.5 133.5,-19.5 133.5,-0.5 68.5,-0.5"/>
<text text-anchor="middle" x="101" y="-7.5" font-family="Helvetica,sans-Serif" font-size="10.00">QStringList</text>
</g>
<!-- Node3&#45;&gt;Node8 -->
<g id="edge7" class="edge"><title>Node3&#45;&gt;Node8</title>
<path fill="none" stroke="midnightblue" d="M192.487,-56.324C174.928,-47.6247 147.669,-34.1202 127.469,-24.113"/>
<polygon fill="midnightblue" stroke="midnightblue" points="128.984,-20.9575 118.469,-19.6545 125.876,-27.23 128.984,-20.9575"/>
</g>
<!-- Node12 -->
<g id="node12" class="node"><title>Node12</title>
<polygon fill="white" stroke="#bfbfbf" points="165,-292.5 165,-311.5 245,-311.5 245,-292.5 165,-292.5"/>
<text text-anchor="middle" x="205" y="-299.5" font-family="Helvetica,sans-Serif" font-size="10.00">QMainWindow</text>
</g>
<!-- Node11&#45;&gt;Node12 -->
<g id="edge11" class="edge"><title>Node11&#45;&gt;Node12</title>
<path fill="none" stroke="midnightblue" d="M267.95,-348.324C256.537,-340.107 239.169,-327.602 225.565,-317.807"/>
<polygon fill="midnightblue" stroke="midnightblue" points="227.43,-314.837 217.269,-311.834 223.34,-320.517 227.43,-314.837"/>
</g>
<!-- Node13 -->
<g id="node13" class="node"><title>Node13</title>
<g id="a_node13"><a xlink:href="../../d4/dca/_roomba_connect_8h.xhtml" target="_top" xlink:title="RoombaConnect.h">
<polygon fill="white" stroke="black" points="263.5,-292.5 263.5,-311.5 360.5,-311.5 360.5,-292.5 263.5,-292.5"/>
<text text-anchor="middle" x="312" y="-299.5" font-family="Helvetica,sans-Serif" font-size="10.00">RoombaConnect.h</text>
</a>
</g>
</g>
<!-- Node11&#45;&gt;Node13 -->
<g id="edge12" class="edge"><title>Node11&#45;&gt;Node13</title>
<path fill="none" stroke="midnightblue" d="M285.284,-348.083C289.711,-340.613 296.163,-329.724 301.618,-320.52"/>
<polygon fill="midnightblue" stroke="midnightblue" points="304.727,-322.138 306.814,-311.751 298.705,-318.57 304.727,-322.138"/>
</g>
<!-- Node14 -->
<g id="node14" class="node"><title>Node14</title>
<polygon fill="white" stroke="#bfbfbf" points="461.5,-56.5 461.5,-75.5 514.5,-75.5 514.5,-56.5 461.5,-56.5"/>
<text text-anchor="middle" x="488" y="-63.5" font-family="Helvetica,sans-Serif" font-size="10.00">QObject</text>
</g>
<!-- Node13&#45;&gt;Node14 -->
<g id="edge13" class="edge"><title>Node13&#45;&gt;Node14</title>
<path fill="none" stroke="midnightblue" d="M360.682,-301.807C514.518,-303.202 985.437,-298.252 1077,-188 1150.21,-99.8488 664.72,-73.9035 524.911,-68.3003"/>
<polygon fill="midnightblue" stroke="midnightblue" points="524.833,-64.7947 514.704,-67.903 524.561,-71.7894 524.833,-64.7947"/>
</g>
<!-- Node15 -->
<g id="node15" class="node"><title>Node15</title>
<polygon fill="white" stroke="#bfbfbf" points="1124.5,-230.5 1124.5,-249.5 1195.5,-249.5 1195.5,-230.5 1124.5,-230.5"/>
<text text-anchor="middle" x="1160" y="-237.5" font-family="Helvetica,sans-Serif" font-size="10.00">QTcpSocket</text>
</g>
<!-- Node13&#45;&gt;Node15 -->
<g id="edge14" class="edge"><title>Node13&#45;&gt;Node15</title>
<path fill="none" stroke="midnightblue" d="M360.714,-299.753C510.805,-295.675 964.789,-281.509 1110,-256 1115.17,-255.092 1120.55,-253.828 1125.8,-252.415"/>
<polygon fill="midnightblue" stroke="midnightblue" points="1126.98,-255.716 1135.61,-249.569 1125.03,-248.994 1126.98,-255.716"/>
</g>
<!-- Node16 -->
<g id="node16" class="node"><title>Node16</title>
<polygon fill="white" stroke="#bfbfbf" points="1214,-230.5 1214,-249.5 1288,-249.5 1288,-230.5 1214,-230.5"/>
<text text-anchor="middle" x="1251" y="-237.5" font-family="Helvetica,sans-Serif" font-size="10.00">QTextStream</text>
</g>
<!-- Node13&#45;&gt;Node16 -->
<g id="edge15" class="edge"><title>Node13&#45;&gt;Node16</title>
<path fill="none" stroke="midnightblue" d="M360.691,-300.199C522.306,-297.282 1040,-285.788 1204,-256 1208.8,-255.128 1213.8,-253.9 1218.66,-252.519"/>
<polygon fill="midnightblue" stroke="midnightblue" points="1219.83,-255.822 1228.35,-249.532 1217.76,-249.132 1219.83,-255.822"/>
</g>
<!-- Node17 -->
<g id="node17" class="node"><title>Node17</title>
<polygon fill="white" stroke="#bfbfbf" points="50.5,-230.5 50.5,-249.5 95.5,-249.5 95.5,-230.5 50.5,-230.5"/>
<text text-anchor="middle" x="73" y="-237.5" font-family="Helvetica,sans-Serif" font-size="10.00">QTime</text>
</g>
<!-- Node13&#45;&gt;Node17 -->
<g id="edge16" class="edge"><title>Node13&#45;&gt;Node17</title>
<path fill="none" stroke="midnightblue" d="M263.247,-292.493C221.96,-284.732 161.452,-272.039 110,-256 107.361,-255.177 104.647,-254.247 101.945,-253.263"/>
<polygon fill="midnightblue" stroke="midnightblue" points="102.955,-249.901 92.366,-249.556 100.429,-256.429 102.955,-249.901"/>
</g>
<!-- Node13&#45;&gt;Node3 -->
<g id="edge17" class="edge"><title>Node13&#45;&gt;Node3</title>
<path fill="none" stroke="midnightblue" d="M269.42,-292.465C221.965,-282.525 150.817,-266.171 143,-256 101.148,-201.545 163.59,-118.778 194.437,-83.6741"/>
<polygon fill="midnightblue" stroke="midnightblue" points="197.419,-85.5933 201.516,-75.8226 192.22,-80.9059 197.419,-85.5933"/>
</g>
<!-- Node18 -->
<g id="node18" class="node"><title>Node18</title>
<polygon fill="white" stroke="#bfbfbf" points="152,-230.5 152,-249.5 200,-249.5 200,-230.5 152,-230.5"/>
<text text-anchor="middle" x="176" y="-237.5" font-family="Helvetica,sans-Serif" font-size="10.00">QTimer</text>
</g>
<!-- Node13&#45;&gt;Node18 -->
<g id="edge18" class="edge"><title>Node13&#45;&gt;Node18</title>
<path fill="none" stroke="midnightblue" d="M292.515,-292.403C269.59,-282.29 231.315,-265.404 204.925,-253.761"/>
<polygon fill="midnightblue" stroke="midnightblue" points="206.011,-250.415 195.449,-249.581 203.186,-256.819 206.011,-250.415"/>
</g>
<!-- Node19 -->
<g id="node19" class="node"><title>Node19</title>
<g id="a_node19"><a xlink:href="../../dc/d96/jsoncommand_8h.xhtml" target="_top" xlink:title="../resources/jsoncommand.h">
<polygon fill="white" stroke="black" points="190,-168.5 190,-187.5 330,-187.5 330,-168.5 190,-168.5"/>
<text text-anchor="middle" x="260" y="-175.5" font-family="Helvetica,sans-Serif" font-size="10.00">../resources/jsoncommand.h</text>
</a>
</g>
</g>
<!-- Node13&#45;&gt;Node19 -->
<g id="edge19" class="edge"><title>Node13&#45;&gt;Node19</title>
<path fill="none" stroke="midnightblue" d="M308.26,-292.226C299.79,-272.354 279,-223.576 267.668,-196.989"/>
<polygon fill="midnightblue" stroke="midnightblue" points="270.847,-195.521 263.706,-187.694 264.407,-198.266 270.847,-195.521"/>
</g>
<!-- Node21 -->
<g id="node21" class="node"><title>Node21</title>
<g id="a_node21"><a xlink:href="../../d4/d05/json_8h.xhtml" target="_top" xlink:title="json.h">
<polygon fill="white" stroke="black" points="238.5,-112.5 238.5,-131.5 281.5,-131.5 281.5,-112.5 238.5,-112.5"/>
<text text-anchor="middle" x="260" y="-119.5" font-family="Helvetica,sans-Serif" font-size="10.00">json.h</text>
</a>
</g>
</g>
<!-- Node13&#45;&gt;Node21 -->
<g id="edge26" class="edge"><title>Node13&#45;&gt;Node21</title>
<path fill="none" stroke="midnightblue" d="M299.56,-292.355C269.369,-271.071 193.758,-215.853 181,-188 169.34,-162.545 201.996,-143.792 228.812,-133.14"/>
<polygon fill="midnightblue" stroke="midnightblue" points="230.19,-136.361 238.334,-129.584 227.741,-129.803 230.19,-136.361"/>
</g>
<!-- Node24 -->
<g id="node24" class="node"><title>Node24</title>
<g id="a_node24"><a xlink:href="../../db/d97/clsevent_8h.xhtml" target="_top" xlink:title="../resources/clsevent.h">
<polygon fill="white" stroke="black" points="430.5,-112.5 430.5,-131.5 545.5,-131.5 545.5,-112.5 430.5,-112.5"/>
<text text-anchor="middle" x="488" y="-119.5" font-family="Helvetica,sans-Serif" font-size="10.00">../resources/clsevent.h</text>
</a>
</g>
</g>
<!-- Node13&#45;&gt;Node24 -->
<g id="edge27" class="edge"><title>Node13&#45;&gt;Node24</title>
<path fill="none" stroke="midnightblue" d="M313.957,-292.236C319.61,-268.851 338.099,-204.29 377,-168 394.064,-152.081 417.499,-141.471 438.44,-134.575"/>
<polygon fill="midnightblue" stroke="midnightblue" points="439.644,-137.866 448.166,-131.572 437.579,-131.178 439.644,-137.866"/>
</g>
<!-- Node25 -->
<g id="node25" class="node"><title>Node25</title>
<g id="a_node25"><a xlink:href="../../db/dd2/events_8h.xhtml" target="_top" xlink:title="../resources/events\l/events.h">
<polygon fill="white" stroke="black" points="605.5,-225 605.5,-255 704.5,-255 704.5,-225 605.5,-225"/>
<text text-anchor="start" x="613.5" y="-243" font-family="Helvetica,sans-Serif" font-size="10.00">../resources/events</text>
<text text-anchor="middle" x="655" y="-232" font-family="Helvetica,sans-Serif" font-size="10.00">/events.h</text>
</a>
</g>
</g>
<!-- Node13&#45;&gt;Node25 -->
<g id="edge33" class="edge"><title>Node13&#45;&gt;Node25</title>
<path fill="none" stroke="midnightblue" d="M360.779,-292.467C422.528,-281.666 528.85,-263.067 595.359,-251.433"/>
<polygon fill="midnightblue" stroke="midnightblue" points="596.029,-254.869 605.276,-249.698 594.822,-247.974 596.029,-254.869"/>
</g>
<!-- Node19&#45;&gt;Node14 -->
<g id="edge20" class="edge"><title>Node19&#45;&gt;Node14</title>
<path fill="none" stroke="midnightblue" d="M266.682,-168.464C278.012,-154.568 302.37,-127.095 329,-112 367.623,-90.1072 417.652,-78.2389 451.184,-72.2755"/>
<polygon fill="midnightblue" stroke="midnightblue" points="452.178,-75.6573 461.456,-70.5416 451.013,-68.755 452.178,-75.6573"/>
</g>
<!-- Node20 -->
<g id="node20" class="node"><title>Node20</title>
<polygon fill="white" stroke="#bfbfbf" points="338,-112.5 338,-131.5 412,-131.5 412,-112.5 338,-112.5"/>
<text text-anchor="middle" x="375" y="-119.5" font-family="Helvetica,sans-Serif" font-size="10.00">QVariantMap</text>
</g>
<!-- Node19&#45;&gt;Node20 -->
<g id="edge21" class="edge"><title>Node19&#45;&gt;Node20</title>
<path fill="none" stroke="midnightblue" d="M278.222,-168.444C296.896,-159.675 326.156,-145.935 347.617,-135.858"/>
<polygon fill="midnightblue" stroke="midnightblue" points="349.299,-138.935 356.863,-131.516 346.324,-132.599 349.299,-138.935"/>
</g>
<!-- Node19&#45;&gt;Node21 -->
<g id="edge22" class="edge"><title>Node19&#45;&gt;Node21</title>
<path fill="none" stroke="midnightblue" d="M260,-168.083C260,-161.006 260,-150.861 260,-141.986"/>
<polygon fill="midnightblue" stroke="midnightblue" points="263.5,-141.751 260,-131.751 256.5,-141.751 263.5,-141.751"/>
</g>
<!-- Node19&#45;&gt;Node3 -->
<g id="edge25" class="edge"><title>Node19&#45;&gt;Node3</title>
<path fill="none" stroke="midnightblue" d="M252.679,-168.217C245.736,-159.506 235.436,-145.537 229,-132 221.901,-117.068 216.868,-98.9276 213.773,-85.6088"/>
<polygon fill="midnightblue" stroke="midnightblue" points="217.171,-84.7601 211.627,-75.7314 210.33,-86.2466 217.171,-84.7601"/>
</g>
<!-- Node22 -->
<g id="node22" class="node"><title>Node22</title>
<polygon fill="white" stroke="#bfbfbf" points="280.5,-56.5 280.5,-75.5 335.5,-75.5 335.5,-56.5 280.5,-56.5"/>
<text text-anchor="middle" x="308" y="-63.5" font-family="Helvetica,sans-Serif" font-size="10.00">QVariant</text>
</g>
<!-- Node21&#45;&gt;Node22 -->
<g id="edge23" class="edge"><title>Node21&#45;&gt;Node22</title>
<path fill="none" stroke="midnightblue" d="M267.926,-112.083C274.846,-104.298 285.065,-92.8015 293.452,-83.3665"/>
<polygon fill="midnightblue" stroke="midnightblue" points="296.194,-85.5505 300.221,-75.7511 290.962,-80.8999 296.194,-85.5505"/>
</g>
<!-- Node23 -->
<g id="node23" class="node"><title>Node23</title>
<polygon fill="white" stroke="#bfbfbf" points="355,-56.5 355,-75.5 405,-75.5 405,-56.5 355,-56.5"/>
<text text-anchor="middle" x="380" y="-63.5" font-family="Helvetica,sans-Serif" font-size="10.00">QString</text>
</g>
<!-- Node21&#45;&gt;Node23 -->
<g id="edge24" class="edge"><title>Node21&#45;&gt;Node23</title>
<path fill="none" stroke="midnightblue" d="M279.014,-112.444C298.588,-103.636 329.308,-89.8116 351.729,-79.722"/>
<polygon fill="midnightblue" stroke="midnightblue" points="353.392,-82.8119 361.075,-75.5164 350.519,-76.4284 353.392,-82.8119"/>
</g>
<!-- Node24&#45;&gt;Node14 -->
<g id="edge28" class="edge"><title>Node24&#45;&gt;Node14</title>
<path fill="none" stroke="midnightblue" d="M488,-112.083C488,-105.006 488,-94.8611 488,-85.9865"/>
<polygon fill="midnightblue" stroke="midnightblue" points="491.5,-85.751 488,-75.7511 484.5,-85.7511 491.5,-85.751"/>
</g>
<!-- Node24&#45;&gt;Node23 -->
<g id="edge29" class="edge"><title>Node24&#45;&gt;Node23</title>
<path fill="none" stroke="midnightblue" d="M470.648,-112.324C453.328,-103.664 426.485,-90.2424 406.498,-80.249"/>
<polygon fill="midnightblue" stroke="midnightblue" points="407.819,-76.9962 397.309,-75.6545 404.688,-83.2572 407.819,-76.9962"/>
</g>
<!-- Node24&#45;&gt;Node22 -->
<g id="edge30" class="edge"><title>Node24&#45;&gt;Node22</title>
<path fill="none" stroke="midnightblue" d="M459.478,-112.444C428.664,-103.199 379.432,-88.4296 345.504,-78.2511"/>
<polygon fill="midnightblue" stroke="midnightblue" points="346.087,-74.7719 335.503,-75.2508 344.075,-81.4767 346.087,-74.7719"/>
</g>
<!-- Node24&#45;&gt;Node5 -->
<g id="edge31" class="edge"><title>Node24&#45;&gt;Node5</title>
<path fill="none" stroke="midnightblue" d="M480.556,-112.242C473.079,-103.32 461.356,-88.9892 452,-76 440.626,-60.2092 428.678,-41.479 420.446,-28.1906"/>
<polygon fill="midnightblue" stroke="midnightblue" points="423.384,-26.2875 415.17,-19.5963 417.419,-29.9497 423.384,-26.2875"/>
</g>
<!-- Node24&#45;&gt;Node3 -->
<g id="edge32" class="edge"><title>Node24&#45;&gt;Node3</title>
<path fill="none" stroke="midnightblue" d="M443.95,-112.444C395.149,-102.964 316.437,-87.6747 263.97,-77.4835"/>
<polygon fill="midnightblue" stroke="midnightblue" points="264.328,-73.9875 253.844,-75.5164 262.993,-80.8591 264.328,-73.9875"/>
</g>
<!-- Node26 -->
<g id="node26" class="node"><title>Node26</title>
<g id="a_node26"><a xlink:href="../../db/d70/eventchat_8h.xhtml" target="_top" xlink:title="eventchat.h">
<polygon fill="white" stroke="black" points="1002,-168.5 1002,-187.5 1068,-187.5 1068,-168.5 1002,-168.5"/>
<text text-anchor="middle" x="1035" y="-175.5" font-family="Helvetica,sans-Serif" font-size="10.00">eventchat.h</text>
</a>
</g>
</g>
<!-- Node25&#45;&gt;Node26 -->
<g id="edge34" class="edge"><title>Node25&#45;&gt;Node26</title>
<path fill="none" stroke="midnightblue" d="M704.538,-232.39C768.379,-223.675 883.026,-207.361 991.557,-187.985"/>
<polygon fill="midnightblue" stroke="midnightblue" points="992.478,-191.376 1001.7,-186.162 991.24,-184.486 992.478,-191.376"/>
</g>
<!-- Node27 -->
<g id="node27" class="node"><title>Node27</title>
<g id="a_node27"><a xlink:href="../../d5/d02/eventuserjoin_8h.xhtml" target="_top" xlink:title="eventuserjoin.h">
<polygon fill="white" stroke="black" points="386.5,-168.5 386.5,-187.5 467.5,-187.5 467.5,-168.5 386.5,-168.5"/>
<text text-anchor="middle" x="427" y="-175.5" font-family="Helvetica,sans-Serif" font-size="10.00">eventuserjoin.h</text>
</a>
</g>
</g>
<!-- Node25&#45;&gt;Node27 -->
<g id="edge36" class="edge"><title>Node25&#45;&gt;Node27</title>
<path fill="none" stroke="midnightblue" d="M605.246,-225.907C564.592,-215.208 507.752,-200.25 469.273,-190.124"/>
<polygon fill="midnightblue" stroke="midnightblue" points="469.983,-186.692 459.422,-187.532 468.202,-193.462 469.983,-186.692"/>
</g>
<!-- Node28 -->
<g id="node28" class="node"><title>Node28</title>
<g id="a_node28"><a xlink:href="../../d7/d56/eventuserleave_8h.xhtml" target="_top" xlink:title="eventuserleave.h">
<polygon fill="white" stroke="black" points="486,-168.5 486,-187.5 574,-187.5 574,-168.5 486,-168.5"/>
<text text-anchor="middle" x="530" y="-175.5" font-family="Helvetica,sans-Serif" font-size="10.00">eventuserleave.h</text>
</a>
</g>
</g>
<!-- Node25&#45;&gt;Node28 -->
<g id="edge38" class="edge"><title>Node25&#45;&gt;Node28</title>
<path fill="none" stroke="midnightblue" d="M625.693,-224.933C604.981,-214.991 577.417,-201.76 557.193,-192.053"/>
<polygon fill="midnightblue" stroke="midnightblue" points="558.447,-188.772 547.917,-187.6 555.417,-195.083 558.447,-188.772"/>
</g>
<!-- Node29 -->
<g id="node29" class="node"><title>Node29</title>
<g id="a_node29"><a xlink:href="../../db/db0/eventuserchangestatus_8h.xhtml" target="_top" xlink:title="eventuserchangestatus.h">
<polygon fill="white" stroke="black" points="592.5,-168.5 592.5,-187.5 717.5,-187.5 717.5,-168.5 592.5,-168.5"/>
<text text-anchor="middle" x="655" y="-175.5" font-family="Helvetica,sans-Serif" font-size="10.00">eventuserchangestatus.h</text>
</a>
</g>
</g>
<!-- Node25&#45;&gt;Node29 -->
<g id="edge40" class="edge"><title>Node25&#45;&gt;Node29</title>
<path fill="none" stroke="midnightblue" d="M655,-224.781C655,-216.781 655,-206.689 655,-198.017"/>
<polygon fill="midnightblue" stroke="midnightblue" points="658.5,-197.73 655,-187.731 651.5,-197.731 658.5,-197.73"/>
</g>
<!-- Node30 -->
<g id="node30" class="node"><title>Node30</title>
<g id="a_node30"><a xlink:href="../../d8/d44/eventuserchangenick_8h.xhtml" target="_top" xlink:title="eventuserchangenick.h">
<polygon fill="white" stroke="black" points="736,-168.5 736,-187.5 852,-187.5 852,-168.5 736,-168.5"/>
<text text-anchor="middle" x="794" y="-175.5" font-family="Helvetica,sans-Serif" font-size="10.00">eventuserchangenick.h</text>
</a>
</g>
</g>
<!-- Node25&#45;&gt;Node30 -->
<g id="edge42" class="edge"><title>Node25&#45;&gt;Node30</title>
<path fill="none" stroke="midnightblue" d="M687.589,-224.933C710.936,-214.855 742.11,-201.399 764.677,-191.657"/>
<polygon fill="midnightblue" stroke="midnightblue" points="766.283,-194.777 774.077,-187.6 763.508,-188.35 766.283,-194.777"/>
</g>
<!-- Node31 -->
<g id="node31" class="node"><title>Node31</title>
<g id="a_node31"><a xlink:href="../../da/d66/eventservermessage_8h.xhtml" target="_top" xlink:title="eventservermessage.h">
<polygon fill="white" stroke="black" points="870.5,-168.5 870.5,-187.5 983.5,-187.5 983.5,-168.5 870.5,-168.5"/>
<text text-anchor="middle" x="927" y="-175.5" font-family="Helvetica,sans-Serif" font-size="10.00">eventservermessage.h</text>
</a>
</g>
</g>
<!-- Node25&#45;&gt;Node31 -->
<g id="edge44" class="edge"><title>Node25&#45;&gt;Node31</title>
<path fill="none" stroke="midnightblue" d="M704.573,-228.065C753.927,-217.178 829.21,-200.571 878.267,-189.75"/>
<polygon fill="midnightblue" stroke="midnightblue" points="879.307,-193.105 888.318,-187.533 877.799,-186.269 879.307,-193.105"/>
</g>
<!-- Node26&#45;&gt;Node24 -->
<g id="edge35" class="edge"><title>Node26&#45;&gt;Node24</title>
<path fill="none" stroke="midnightblue" d="M1001.73,-169.635C998.455,-169.03 995.168,-168.471 992,-168 836.902,-144.926 653.064,-132.152 555.967,-126.532"/>
<polygon fill="midnightblue" stroke="midnightblue" points="555.887,-123.021 545.704,-125.946 555.488,-130.01 555.887,-123.021"/>
</g>
<!-- Node27&#45;&gt;Node24 -->
<g id="edge37" class="edge"><title>Node27&#45;&gt;Node24</title>
<path fill="none" stroke="midnightblue" d="M436.801,-168.324C445.818,-160.341 459.406,-148.313 470.318,-138.653"/>
<polygon fill="midnightblue" stroke="midnightblue" points="472.853,-141.083 478.021,-131.834 468.213,-135.842 472.853,-141.083"/>
</g>
<!-- Node28&#45;&gt;Node24 -->
<g id="edge39" class="edge"><title>Node28&#45;&gt;Node24</title>
<path fill="none" stroke="midnightblue" d="M523.065,-168.083C517.071,-160.377 508.248,-149.033 500.952,-139.653"/>
<polygon fill="midnightblue" stroke="midnightblue" points="503.709,-137.496 494.806,-131.751 498.183,-141.793 503.709,-137.496"/>
</g>
<!-- Node29&#45;&gt;Node24 -->
<g id="edge41" class="edge"><title>Node29&#45;&gt;Node24</title>
<path fill="none" stroke="midnightblue" d="M628.538,-168.444C600.322,-159.32 555.46,-144.813 524.032,-134.651"/>
<polygon fill="midnightblue" stroke="midnightblue" points="524.93,-131.263 514.338,-131.516 522.776,-137.923 524.93,-131.263"/>
</g>
<!-- Node30&#45;&gt;Node24 -->
<g id="edge43" class="edge"><title>Node30&#45;&gt;Node24</title>
<path fill="none" stroke="midnightblue" d="M745.513,-168.444C691.461,-158.905 604.072,-143.483 546.327,-133.293"/>
<polygon fill="midnightblue" stroke="midnightblue" points="546.716,-129.808 536.26,-131.516 545.499,-136.701 546.716,-129.808"/>
</g>
<!-- Node31&#45;&gt;Node24 -->
<g id="edge45" class="edge"><title>Node31&#45;&gt;Node24</title>
<path fill="none" stroke="midnightblue" d="M870.482,-169.235C867.275,-168.812 864.097,-168.398 861,-168 754.415,-154.304 630.533,-139.599 555.761,-130.856"/>
<polygon fill="midnightblue" stroke="midnightblue" points="555.882,-127.346 545.543,-129.663 555.07,-134.299 555.882,-127.346"/>
</g>
</g>
</svg>
