<?xml version="1.0" encoding="UTF-8" standalone="no"?>
<!DOCTYPE svg PUBLIC "-//W3C//DTD SVG 1.1//EN"
 "http://www.w3.org/Graphics/SVG/1.1/DTD/svg11.dtd">
<!-- Generated by graphviz version 2.30.1 (20130214.1330)
 -->
<!-- Title: GUI/Gui&#45;RoombaV1.0/controllingroomba.cpp Pages: 1 -->
<!--zoomable 432 -->
<svg id="main" version="1.1" xmlns="http://www.w3.org/2000/svg" xmlns:xlink="http://www.w3.org/1999/xlink" xml:space="preserve" onload="init(evt)">
        <defs>
                <circle id="rim" cx="0" cy="0" r="7"/>
                <circle id="rim2" cx="0" cy="0" r="3.5"/>
                <g id="zoomPlus">
                        <use xlink:href="#rim" fill="#404040">
                                <set attributeName="fill" to="#808080" begin="zoomplus.mouseover" end="zoomplus.mouseout"/>
                        </use>
                        <path d="M-4,0h8M0,-4v8" fill="none" stroke="white" stroke-width="1.5" pointer-events="none"/>
                </g>
                <g id="zoomMin">
                        <use xlink:href="#rim" fill="#404040">
                                <set attributeName="fill" to="#808080" begin="zoomminus.mouseover" end="zoomminus.mouseout"/>
                        </use>
                        <path d="M-4,0h8" fill="none" stroke="white" stroke-width="1.5" pointer-events="none"/>
                </g>
                <g id="dirArrow">
                        <path fill="none" stroke="white" stroke-width="1.5" d="M0,-3.0v7 M-2.5,-0.5L0,-3.0L2.5,-0.5"/>
                </g>
               <g id="resetDef">
                       <use xlink:href="#rim2" fill="#404040">
                               <set attributeName="fill" to="#808080" begin="reset.mouseover" end="reset.mouseout"/>
                       </use>
               </g>
        </defs>

<script type="text/javascript">
var viewWidth = 3096;
var viewHeight = 432;
var sectionId = 'dynsection-0';
</script>
<script xlink:href="../../svgpan.js"/>
<svg id="graph" class="graph">
<g id="viewport">
<title>GUI/Gui&#45;RoombaV1.0/controllingroomba.cpp</title>
<polygon fill="white" stroke="white" points="-4,5 -4,-428 3093,-428 3093,5 -4,5"/>
<!-- Node1 -->
<g id="node1" class="node"><title>Node1</title>
<polygon fill="#bfbfbf" stroke="black" points="1385.5,-393 1385.5,-423 1500.5,-423 1500.5,-393 1385.5,-393"/>
<text text-anchor="start" x="1393.5" y="-411" font-family="Helvetica,sans-Serif" font-size="10.00">GUI/Gui&#45;RoombaV1.0</text>
<text text-anchor="middle" x="1443" y="-400" font-family="Helvetica,sans-Serif" font-size="10.00">/controllingroomba.cpp</text>
</g>
<!-- Node2 -->
<g id="node2" class="node"><title>Node2</title>
<g id="a_node2"><a xlink:href="../../da/d4b/controllingroomba_8h.xhtml" target="_top" xlink:title="controllingroomba.h">
<polygon fill="white" stroke="black" points="605.5,-280.5 605.5,-299.5 706.5,-299.5 706.5,-280.5 605.5,-280.5"/>
<text text-anchor="middle" x="656" y="-287.5" font-family="Helvetica,sans-Serif" font-size="10.00">controllingroomba.h</text>
</a>
</g>
</g>
<!-- Node1&#45;&gt;Node2 -->
<g id="edge1" class="edge"><title>Node1&#45;&gt;Node2</title>
<path fill="none" stroke="midnightblue" d="M1385.4,-402.302C1297.62,-394.772 1125.24,-378.523 980,-356 880.917,-340.635 766.113,-315.954 703.233,-301.839"/>
<polygon fill="midnightblue" stroke="midnightblue" points="703.751,-298.368 693.226,-299.583 702.212,-305.196 703.751,-298.368"/>
</g>
<!-- Node25 -->
<g id="node25" class="node"><title>Node25</title>
<g id="a_node25"><a xlink:href="../../d7/de0/ui__controllingroomba_8h.xhtml" target="_top" xlink:title="ui_controllingroomba.h">
<polygon fill="white" stroke="black" points="2186,-336.5 2186,-355.5 2300,-355.5 2300,-336.5 2186,-336.5"/>
<text text-anchor="middle" x="2243" y="-343.5" font-family="Helvetica,sans-Serif" font-size="10.00">ui_controllingroomba.h</text>
</a>
</g>
</g>
<!-- Node1&#45;&gt;Node25 -->
<g id="edge41" class="edge"><title>Node1&#45;&gt;Node25</title>
<path fill="none" stroke="midnightblue" d="M1500.53,-402.685C1644.82,-391.863 2021.52,-363.611 2175.72,-352.046"/>
<polygon fill="midnightblue" stroke="midnightblue" points="2176.28,-355.514 2185.99,-351.276 2175.75,-348.534 2176.28,-355.514"/>
</g>
<!-- Node38 -->
<g id="node38" class="node"><title>Node38</title>
<g id="a_node38"><a xlink:href="../../dd/da1/roomba_8h.xhtml" target="_top" xlink:title="roomba.h">
<polygon fill="white" stroke="black" points="989.5,-336.5 989.5,-355.5 1046.5,-355.5 1046.5,-336.5 989.5,-336.5"/>
<text text-anchor="middle" x="1018" y="-343.5" font-family="Helvetica,sans-Serif" font-size="10.00">roomba.h</text>
</a>
</g>
</g>
<!-- Node1&#45;&gt;Node38 -->
<g id="edge54" class="edge"><title>Node1&#45;&gt;Node38</title>
<path fill="none" stroke="midnightblue" d="M1385.24,-398.846C1297.13,-386.406 1131.48,-363.021 1056.55,-352.443"/>
<polygon fill="midnightblue" stroke="midnightblue" points="1056.99,-348.97 1046.6,-351.038 1056.01,-355.901 1056.99,-348.97"/>
</g>
<!-- Node42 -->
<g id="node42" class="node"><title>Node42</title>
<g id="a_node42"><a xlink:href="../../d7/d82/displaylogs_8h.xhtml" target="_top" xlink:title="displaylogs.h">
<polygon fill="white" stroke="black" points="1374,-336.5 1374,-355.5 1448,-355.5 1448,-336.5 1374,-336.5"/>
<text text-anchor="middle" x="1411" y="-343.5" font-family="Helvetica,sans-Serif" font-size="10.00">displaylogs.h</text>
</a>
</g>
</g>
<!-- Node1&#45;&gt;Node42 -->
<g id="edge71" class="edge"><title>Node1&#45;&gt;Node42</title>
<path fill="none" stroke="midnightblue" d="M1435.42,-392.781C1430.91,-384.332 1425.16,-373.548 1420.37,-364.569"/>
<polygon fill="midnightblue" stroke="midnightblue" points="1423.45,-362.907 1415.66,-355.731 1417.27,-366.201 1423.45,-362.907"/>
</g>
<!-- Node43 -->
<g id="node43" class="node"><title>Node43</title>
<g id="a_node43"><a xlink:href="../../df/dd0/_gui-_roomba_v1_80_2mytimer_8h.xhtml" target="_top" xlink:title="mytimer.h">
<polygon fill="white" stroke="black" points="1504,-224.5 1504,-243.5 1564,-243.5 1564,-224.5 1504,-224.5"/>
<text text-anchor="middle" x="1534" y="-231.5" font-family="Helvetica,sans-Serif" font-size="10.00">mytimer.h</text>
</a>
</g>
</g>
<!-- Node1&#45;&gt;Node43 -->
<g id="edge73" class="edge"><title>Node1&#45;&gt;Node43</title>
<path fill="none" stroke="midnightblue" d="M1459.13,-392.682C1469.13,-383.11 1481.61,-369.783 1490,-356 1510.36,-322.551 1523.46,-278.224 1529.7,-253.567"/>
<polygon fill="midnightblue" stroke="midnightblue" points="1533.13,-254.275 1532.09,-243.732 1526.33,-252.624 1533.13,-254.275"/>
</g>
<!-- Node16 -->
<g id="node16" class="node"><title>Node16</title>
<polygon fill="white" stroke="#bfbfbf" points="1390.5,-168.5 1390.5,-187.5 1437.5,-187.5 1437.5,-168.5 1390.5,-168.5"/>
<text text-anchor="middle" x="1414" y="-175.5" font-family="Helvetica,sans-Serif" font-size="10.00">QtCore</text>
</g>
<!-- Node1&#45;&gt;Node16 -->
<g id="edge75" class="edge"><title>Node1&#45;&gt;Node16</title>
<path fill="none" stroke="midnightblue" d="M1448.56,-392.94C1453.54,-378.676 1459.68,-355.923 1457,-336 1450.09,-284.59 1430.98,-226.19 1420.72,-197.253"/>
<polygon fill="midnightblue" stroke="midnightblue" points="1423.95,-195.899 1417.27,-187.682 1417.37,-198.276 1423.95,-195.899"/>
</g>
<!-- Node3 -->
<g id="node3" class="node"><title>Node3</title>
<g id="a_node3"><a xlink:href="../../d4/d05/json_8h.xhtml" target="_top" xlink:title="../resources/json.h">
<polygon fill="white" stroke="black" points="147,-112.5 147,-131.5 245,-131.5 245,-112.5 147,-112.5"/>
<text text-anchor="middle" x="196" y="-119.5" font-family="Helvetica,sans-Serif" font-size="10.00">../resources/json.h</text>
</a>
</g>
</g>
<!-- Node2&#45;&gt;Node3 -->
<g id="edge2" class="edge"><title>Node2&#45;&gt;Node3</title>
<path fill="none" stroke="midnightblue" d="M605.273,-288.27C478.827,-285.221 155.449,-269.456 95,-188 76.3718,-162.898 114.192,-144.906 148.739,-134.305"/>
<polygon fill="midnightblue" stroke="midnightblue" points="149.722,-137.664 158.347,-131.511 147.767,-130.942 149.722,-137.664"/>
</g>
<!-- Node6 -->
<g id="node6" class="node"><title>Node6</title>
<g id="a_node6"><a xlink:href="../../dc/d96/jsoncommand_8h.xhtml" target="_top" xlink:title="../resources/jsoncommand.h">
<polygon fill="white" stroke="black" points="812,-168.5 812,-187.5 952,-187.5 952,-168.5 812,-168.5"/>
<text text-anchor="middle" x="882" y="-175.5" font-family="Helvetica,sans-Serif" font-size="10.00">../resources/jsoncommand.h</text>
</a>
</g>
</g>
<!-- Node2&#45;&gt;Node6 -->
<g id="edge5" class="edge"><title>Node2&#45;&gt;Node6</title>
<path fill="none" stroke="midnightblue" d="M673.734,-280.368C713.176,-261.171 808.361,-214.842 855.139,-192.074"/>
<polygon fill="midnightblue" stroke="midnightblue" points="856.889,-195.115 864.349,-187.591 853.825,-188.821 856.889,-195.115"/>
</g>
<!-- Node15 -->
<g id="node15" class="node"><title>Node15</title>
<g id="a_node15"><a xlink:href="../../d4/dca/_roomba_connect_8h.xhtml" target="_top" xlink:title="RoombaConnect.h">
<polygon fill="white" stroke="black" points="607.5,-224.5 607.5,-243.5 704.5,-243.5 704.5,-224.5 607.5,-224.5"/>
<text text-anchor="middle" x="656" y="-231.5" font-family="Helvetica,sans-Serif" font-size="10.00">RoombaConnect.h</text>
</a>
</g>
</g>
<!-- Node2&#45;&gt;Node15 -->
<g id="edge15" class="edge"><title>Node2&#45;&gt;Node15</title>
<path fill="none" stroke="midnightblue" d="M656,-280.083C656,-273.006 656,-262.861 656,-253.986"/>
<polygon fill="midnightblue" stroke="midnightblue" points="659.5,-253.751 656,-243.751 652.5,-253.751 659.5,-253.751"/>
</g>
<!-- Node9 -->
<g id="node9" class="node"><title>Node9</title>
<g id="a_node9"><a xlink:href="../../d7/d62/clslog_8h.xhtml" target="_top" xlink:title="clslog.h">
<polygon fill="white" stroke="black" points="668,-56.5 668,-75.5 718,-75.5 718,-56.5 668,-56.5"/>
<text text-anchor="middle" x="693" y="-63.5" font-family="Helvetica,sans-Serif" font-size="10.00">clslog.h</text>
</a>
</g>
</g>
<!-- Node2&#45;&gt;Node9 -->
<g id="edge35" class="edge"><title>Node2&#45;&gt;Node9</title>
<path fill="none" stroke="midnightblue" d="M612.491,-280.445C545.211,-265.127 427.574,-228.804 467,-168 509.436,-102.554 605.296,-79.1402 657.499,-71.0549"/>
<polygon fill="midnightblue" stroke="midnightblue" points="658.237,-74.4848 667.635,-69.5934 657.237,-67.5565 658.237,-74.4848"/>
</g>
<!-- Node21 -->
<g id="node21" class="node"><title>Node21</title>
<g id="a_node21"><a xlink:href="../../db/d97/clsevent_8h.xhtml" target="_top" xlink:title="../resources/clsevent.h">
<polygon fill="white" stroke="black" points="304.5,-112.5 304.5,-131.5 419.5,-131.5 419.5,-112.5 304.5,-112.5"/>
<text text-anchor="middle" x="362" y="-119.5" font-family="Helvetica,sans-Serif" font-size="10.00">../resources/clsevent.h</text>
</a>
</g>
</g>
<!-- Node2&#45;&gt;Node21 -->
<g id="edge36" class="edge"><title>Node2&#45;&gt;Node21</title>
<path fill="none" stroke="midnightblue" d="M605.394,-283.541C548.65,-276.6 461.023,-263.17 434,-244 397.903,-218.392 376.85,-168.483 367.618,-141.455"/>
<polygon fill="midnightblue" stroke="midnightblue" points="370.874,-140.148 364.467,-131.71 364.214,-142.302 370.874,-140.148"/>
</g>
<!-- Node23 -->
<g id="node23" class="node"><title>Node23</title>
<polygon fill="white" stroke="#bfbfbf" points="1200.5,-224.5 1200.5,-243.5 1255.5,-243.5 1255.5,-224.5 1200.5,-224.5"/>
<text text-anchor="middle" x="1228" y="-231.5" font-family="Helvetica,sans-Serif" font-size="10.00">QWidget</text>
</g>
<!-- Node2&#45;&gt;Node23 -->
<g id="edge37" class="edge"><title>Node2&#45;&gt;Node23</title>
<path fill="none" stroke="midnightblue" d="M706.761,-284.208C819.802,-273.536 1090.15,-248.013 1190.05,-238.582"/>
<polygon fill="midnightblue" stroke="midnightblue" points="1190.65,-242.041 1200.28,-237.617 1190,-235.072 1190.65,-242.041"/>
</g>
<!-- Node17 -->
<g id="node17" class="node"><title>Node17</title>
<polygon fill="white" stroke="#bfbfbf" points="104.5,-168.5 104.5,-187.5 175.5,-187.5 175.5,-168.5 104.5,-168.5"/>
<text text-anchor="middle" x="140" y="-175.5" font-family="Helvetica,sans-Serif" font-size="10.00">QTcpSocket</text>
</g>
<!-- Node2&#45;&gt;Node17 -->
<g id="edge38" class="edge"><title>Node2&#45;&gt;Node17</title>
<path fill="none" stroke="midnightblue" d="M605.375,-286.886C539.246,-283.062 420.418,-272.524 323,-244 302.772,-238.077 299.627,-231.684 280,-224 246.864,-211.027 208.309,-198.841 180.059,-190.43"/>
<polygon fill="midnightblue" stroke="midnightblue" points="180.728,-186.979 170.146,-187.508 178.748,-193.693 180.728,-186.979"/>
</g>
<!-- Node24 -->
<g id="node24" class="node"><title>Node24</title>
<polygon fill="white" stroke="#bfbfbf" points="332.5,-224.5 332.5,-243.5 381.5,-243.5 381.5,-224.5 332.5,-224.5"/>
<text text-anchor="middle" x="357" y="-231.5" font-family="Helvetica,sans-Serif" font-size="10.00">QSlider</text>
</g>
<!-- Node2&#45;&gt;Node24 -->
<g id="edge39" class="edge"><title>Node2&#45;&gt;Node24</title>
<path fill="none" stroke="midnightblue" d="M605.028,-281.035C552.494,-272.625 468.297,-258.587 396,-244 394.553,-243.708 393.077,-243.402 391.587,-243.088"/>
<polygon fill="midnightblue" stroke="midnightblue" points="392.231,-239.646 381.713,-240.92 390.73,-246.483 392.231,-239.646"/>
</g>
<!-- Node2&#45;&gt;Node16 -->
<g id="edge40" class="edge"><title>Node2&#45;&gt;Node16</title>
<path fill="none" stroke="midnightblue" d="M706.616,-281.655C850.529,-260.77 1259.43,-201.431 1380.09,-183.921"/>
<polygon fill="midnightblue" stroke="midnightblue" points="1380.81,-187.353 1390.21,-182.453 1379.81,-180.425 1380.81,-187.353"/>
</g>
<!-- Node4 -->
<g id="node4" class="node"><title>Node4</title>
<polygon fill="white" stroke="#bfbfbf" points="245.5,-56.5 245.5,-75.5 300.5,-75.5 300.5,-56.5 245.5,-56.5"/>
<text text-anchor="middle" x="273" y="-63.5" font-family="Helvetica,sans-Serif" font-size="10.00">QVariant</text>
</g>
<!-- Node3&#45;&gt;Node4 -->
<g id="edge3" class="edge"><title>Node3&#45;&gt;Node4</title>
<path fill="none" stroke="midnightblue" d="M208.371,-112.324C220.158,-104.058 238.132,-91.4527 252.136,-81.6322"/>
<polygon fill="midnightblue" stroke="midnightblue" points="254.482,-84.2619 260.659,-75.6545 250.462,-78.5307 254.482,-84.2619"/>
</g>
<!-- Node5 -->
<g id="node5" class="node"><title>Node5</title>
<polygon fill="white" stroke="#bfbfbf" points="171,-56.5 171,-75.5 221,-75.5 221,-56.5 171,-56.5"/>
<text text-anchor="middle" x="196" y="-63.5" font-family="Helvetica,sans-Serif" font-size="10.00">QString</text>
</g>
<!-- Node3&#45;&gt;Node5 -->
<g id="edge4" class="edge"><title>Node3&#45;&gt;Node5</title>
<path fill="none" stroke="midnightblue" d="M196,-112.083C196,-105.006 196,-94.8611 196,-85.9865"/>
<polygon fill="midnightblue" stroke="midnightblue" points="199.5,-85.751 196,-75.7511 192.5,-85.7511 199.5,-85.751"/>
</g>
<!-- Node7 -->
<g id="node7" class="node"><title>Node7</title>
<polygon fill="white" stroke="#bfbfbf" points="819.5,-56.5 819.5,-75.5 872.5,-75.5 872.5,-56.5 819.5,-56.5"/>
<text text-anchor="middle" x="846" y="-63.5" font-family="Helvetica,sans-Serif" font-size="10.00">QObject</text>
</g>
<!-- Node6&#45;&gt;Node7 -->
<g id="edge6" class="edge"><title>Node6&#45;&gt;Node7</title>
<path fill="none" stroke="midnightblue" d="M879.175,-168.368C873.339,-150.537 859.842,-109.295 851.98,-85.2717"/>
<polygon fill="midnightblue" stroke="midnightblue" points="855.249,-84.0067 848.812,-75.5914 848.596,-86.1841 855.249,-84.0067"/>
</g>
<!-- Node8 -->
<g id="node8" class="node"><title>Node8</title>
<polygon fill="white" stroke="#bfbfbf" points="908,-112.5 908,-131.5 982,-131.5 982,-112.5 908,-112.5"/>
<text text-anchor="middle" x="945" y="-119.5" font-family="Helvetica,sans-Serif" font-size="10.00">QVariantMap</text>
</g>
<!-- Node6&#45;&gt;Node8 -->
<g id="edge7" class="edge"><title>Node6&#45;&gt;Node8</title>
<path fill="none" stroke="midnightblue" d="M892.122,-168.324C901.526,-160.263 915.744,-148.077 927.069,-138.369"/>
<polygon fill="midnightblue" stroke="midnightblue" points="929.379,-140.999 934.694,-131.834 924.823,-135.684 929.379,-140.999"/>
</g>
<!-- Node6&#45;&gt;Node3 -->
<g id="edge8" class="edge"><title>Node6&#45;&gt;Node3</title>
<path fill="none" stroke="midnightblue" d="M811.947,-171.952C701.859,-163.945 481.644,-147.637 295,-132 282.176,-130.926 268.423,-129.714 255.371,-128.535"/>
<polygon fill="midnightblue" stroke="midnightblue" points="255.36,-125.02 245.085,-127.601 254.727,-131.991 255.36,-125.02"/>
</g>
<!-- Node6&#45;&gt;Node9 -->
<g id="edge9" class="edge"><title>Node6&#45;&gt;Node9</title>
<path fill="none" stroke="midnightblue" d="M867.169,-168.368C834.461,-149.332 755.912,-103.615 716.454,-80.6505"/>
<polygon fill="midnightblue" stroke="midnightblue" points="718.165,-77.5967 707.762,-75.5914 714.644,-83.6466 718.165,-77.5967"/>
</g>
<!-- Node10 -->
<g id="node10" class="node"><title>Node10</title>
<polygon fill="white" stroke="#bfbfbf" points="732,-0.5 732,-19.5 784,-19.5 784,-0.5 732,-0.5"/>
<text text-anchor="middle" x="758" y="-7.5" font-family="Helvetica,sans-Serif" font-size="10.00">QDebug</text>
</g>
<!-- Node9&#45;&gt;Node10 -->
<g id="edge10" class="edge"><title>Node9&#45;&gt;Node10</title>
<path fill="none" stroke="midnightblue" d="M703.443,-56.324C713.146,-48.2631 727.815,-36.0765 739.5,-26.3695"/>
<polygon fill="midnightblue" stroke="midnightblue" points="741.911,-28.9163 747.367,-19.8339 737.438,-23.532 741.911,-28.9163"/>
</g>
<!-- Node11 -->
<g id="node11" class="node"><title>Node11</title>
<polygon fill="white" stroke="#bfbfbf" points="461.5,-0.5 461.5,-19.5 526.5,-19.5 526.5,-0.5 461.5,-0.5"/>
<text text-anchor="middle" x="494" y="-7.5" font-family="Helvetica,sans-Serif" font-size="10.00">QDateTime</text>
</g>
<!-- Node9&#45;&gt;Node11 -->
<g id="edge11" class="edge"><title>Node9&#45;&gt;Node11</title>
<path fill="none" stroke="midnightblue" d="M667.797,-58.1609C634.437,-49.1085 575.19,-33.0314 535.258,-22.1956"/>
<polygon fill="midnightblue" stroke="midnightblue" points="536.117,-18.8022 525.549,-19.5611 534.284,-25.5579 536.117,-18.8022"/>
</g>
<!-- Node12 -->
<g id="node12" class="node"><title>Node12</title>
<polygon fill="white" stroke="#bfbfbf" points="672.5,-0.5 672.5,-19.5 713.5,-19.5 713.5,-0.5 672.5,-0.5"/>
<text text-anchor="middle" x="693" y="-7.5" font-family="Helvetica,sans-Serif" font-size="10.00">string</text>
</g>
<!-- Node9&#45;&gt;Node12 -->
<g id="edge12" class="edge"><title>Node9&#45;&gt;Node12</title>
<path fill="none" stroke="midnightblue" d="M693,-56.083C693,-49.0059 693,-38.8611 693,-29.9865"/>
<polygon fill="midnightblue" stroke="midnightblue" points="696.5,-29.751 693,-19.7511 689.5,-29.7511 696.5,-29.751"/>
</g>
<!-- Node13 -->
<g id="node13" class="node"><title>Node13</title>
<polygon fill="white" stroke="#bfbfbf" points="1068,-0.5 1068,-19.5 1122,-19.5 1122,-0.5 1068,-0.5"/>
<text text-anchor="middle" x="1095" y="-7.5" font-family="Helvetica,sans-Serif" font-size="10.00">iostream</text>
</g>
<!-- Node9&#45;&gt;Node13 -->
<g id="edge13" class="edge"><title>Node9&#45;&gt;Node13</title>
<path fill="none" stroke="midnightblue" d="M718.147,-61.6221C786.581,-52.4295 976.449,-26.9247 1057.52,-16.0343"/>
<polygon fill="midnightblue" stroke="midnightblue" points="1058.32,-19.4589 1067.76,-14.6586 1057.39,-12.5212 1058.32,-19.4589"/>
</g>
<!-- Node14 -->
<g id="node14" class="node"><title>Node14</title>
<polygon fill="white" stroke="#bfbfbf" points="589.5,-0.5 589.5,-19.5 654.5,-19.5 654.5,-0.5 589.5,-0.5"/>
<text text-anchor="middle" x="622" y="-7.5" font-family="Helvetica,sans-Serif" font-size="10.00">QStringList</text>
</g>
<!-- Node9&#45;&gt;Node14 -->
<g id="edge14" class="edge"><title>Node9&#45;&gt;Node14</title>
<path fill="none" stroke="midnightblue" d="M681.593,-56.324C670.891,-48.1849 654.659,-35.8395 641.837,-26.0874"/>
<polygon fill="midnightblue" stroke="midnightblue" points="643.693,-23.1018 633.615,-19.8339 639.456,-28.6734 643.693,-23.1018"/>
</g>
<!-- Node15&#45;&gt;Node10 -->
<g id="edge16" class="edge"><title>Node15&#45;&gt;Node10</title>
<path fill="none" stroke="midnightblue" d="M669.369,-224.192C680.689,-216.07 696.543,-203.022 706,-188 738.359,-136.6 751.311,-64.2219 755.852,-30.1525"/>
<polygon fill="midnightblue" stroke="midnightblue" points="759.379,-30.149 757.126,-19.7966 752.431,-29.2947 759.379,-30.149"/>
</g>
<!-- Node15&#45;&gt;Node16 -->
<g id="edge17" class="edge"><title>Node15&#45;&gt;Node16</title>
<path fill="none" stroke="midnightblue" d="M704.569,-229.54C846.667,-219.417 1259.18,-190.03 1380.23,-181.406"/>
<polygon fill="midnightblue" stroke="midnightblue" points="1380.65,-184.885 1390.38,-180.683 1380.16,-177.902 1380.65,-184.885"/>
</g>
<!-- Node15&#45;&gt;Node7 -->
<g id="edge18" class="edge"><title>Node15&#45;&gt;Node7</title>
<path fill="none" stroke="midnightblue" d="M687.054,-224.484C709.082,-217.334 738.442,-205.456 760,-188 796.249,-158.649 824.226,-110.325 837.511,-84.5227"/>
<polygon fill="midnightblue" stroke="midnightblue" points="840.663,-86.0438 842.009,-75.5348 834.403,-82.9106 840.663,-86.0438"/>
</g>
<!-- Node15&#45;&gt;Node17 -->
<g id="edge19" class="edge"><title>Node15&#45;&gt;Node17</title>
<path fill="none" stroke="midnightblue" d="M607.208,-229.609C522.212,-223.408 341.571,-208.924 190,-188 188.553,-187.8 187.084,-187.589 185.601,-187.368"/>
<polygon fill="midnightblue" stroke="midnightblue" points="186.148,-183.911 175.723,-185.797 185.049,-190.824 186.148,-183.911"/>
</g>
<!-- Node18 -->
<g id="node18" class="node"><title>Node18</title>
<polygon fill="white" stroke="#bfbfbf" points="476,-168.5 476,-187.5 550,-187.5 550,-168.5 476,-168.5"/>
<text text-anchor="middle" x="513" y="-175.5" font-family="Helvetica,sans-Serif" font-size="10.00">QTextStream</text>
</g>
<!-- Node15&#45;&gt;Node18 -->
<g id="edge20" class="edge"><title>Node15&#45;&gt;Node18</title>
<path fill="none" stroke="midnightblue" d="M633.341,-224.444C609.598,-215.478 572.091,-201.314 545.262,-191.183"/>
<polygon fill="midnightblue" stroke="midnightblue" points="546.144,-187.775 535.553,-187.516 543.671,-194.324 546.144,-187.775"/>
</g>
<!-- Node19 -->
<g id="node19" class="node"><title>Node19</title>
<polygon fill="white" stroke="#bfbfbf" points="568.5,-168.5 568.5,-187.5 613.5,-187.5 613.5,-168.5 568.5,-168.5"/>
<text text-anchor="middle" x="591" y="-175.5" font-family="Helvetica,sans-Serif" font-size="10.00">QTime</text>
</g>
<!-- Node15&#45;&gt;Node19 -->
<g id="edge21" class="edge"><title>Node15&#45;&gt;Node19</title>
<path fill="none" stroke="midnightblue" d="M645.557,-224.324C635.854,-216.263 621.185,-204.077 609.5,-194.369"/>
<polygon fill="midnightblue" stroke="midnightblue" points="611.562,-191.532 601.633,-187.834 607.089,-196.916 611.562,-191.532"/>
</g>
<!-- Node15&#45;&gt;Node9 -->
<g id="edge22" class="edge"><title>Node15&#45;&gt;Node9</title>
<path fill="none" stroke="midnightblue" d="M664.911,-224.304C672.887,-215.869 684.061,-202.284 689,-188 700.977,-153.36 698.493,-109.767 695.692,-85.4917"/>
<polygon fill="midnightblue" stroke="midnightblue" points="699.156,-84.988 694.393,-75.524 692.215,-85.8924 699.156,-84.988"/>
</g>
<!-- Node20 -->
<g id="node20" class="node"><title>Node20</title>
<polygon fill="white" stroke="#bfbfbf" points="632,-168.5 632,-187.5 680,-187.5 680,-168.5 632,-168.5"/>
<text text-anchor="middle" x="656" y="-175.5" font-family="Helvetica,sans-Serif" font-size="10.00">QTimer</text>
</g>
<!-- Node15&#45;&gt;Node20 -->
<g id="edge23" class="edge"><title>Node15&#45;&gt;Node20</title>
<path fill="none" stroke="midnightblue" d="M656,-224.083C656,-217.006 656,-206.861 656,-197.986"/>
<polygon fill="midnightblue" stroke="midnightblue" points="659.5,-197.751 656,-187.751 652.5,-197.751 659.5,-197.751"/>
</g>
<!-- Node15&#45;&gt;Node6 -->
<g id="edge24" class="edge"><title>Node15&#45;&gt;Node6</title>
<path fill="none" stroke="midnightblue" d="M691.81,-224.444C730.988,-215.083 793.877,-200.056 836.515,-189.868"/>
<polygon fill="midnightblue" stroke="midnightblue" points="837.444,-193.245 846.357,-187.516 835.818,-186.436 837.444,-193.245"/>
</g>
<!-- Node15&#45;&gt;Node3 -->
<g id="edge25" class="edge"><title>Node15&#45;&gt;Node3</title>
<path fill="none" stroke="midnightblue" d="M607.256,-230.723C500.54,-225.343 253.303,-210.577 223,-188 208.476,-177.179 201.72,-157.099 198.605,-142.109"/>
<polygon fill="midnightblue" stroke="midnightblue" points="201.991,-141.148 196.864,-131.876 195.09,-142.321 201.991,-141.148"/>
</g>
<!-- Node15&#45;&gt;Node21 -->
<g id="edge26" class="edge"><title>Node15&#45;&gt;Node21</title>
<path fill="none" stroke="midnightblue" d="M607.287,-225.826C568.306,-219.047 512.783,-207.035 467,-188 435.097,-174.736 401.752,-152.414 381.422,-137.694"/>
<polygon fill="midnightblue" stroke="midnightblue" points="383.426,-134.823 373.298,-131.712 379.276,-140.46 383.426,-134.823"/>
</g>
<!-- Node22 -->
<g id="node22" class="node"><title>Node22</title>
<g id="a_node22"><a xlink:href="../../d4/d25/sensordata_8h.xhtml" target="_top" xlink:title="sensordata.h">
<polygon fill="white" stroke="black" points="232.5,-168.5 232.5,-187.5 305.5,-187.5 305.5,-168.5 232.5,-168.5"/>
<text text-anchor="middle" x="269" y="-175.5" font-family="Helvetica,sans-Serif" font-size="10.00">sensordata.h</text>
</a>
</g>
</g>
<!-- Node15&#45;&gt;Node22 -->
<g id="edge32" class="edge"><title>Node15&#45;&gt;Node22</title>
<path fill="none" stroke="midnightblue" d="M607.378,-226.216C532.343,-215.746 389.3,-195.786 315.543,-185.494"/>
<polygon fill="midnightblue" stroke="midnightblue" points="315.998,-182.024 305.61,-184.108 315.031,-188.957 315.998,-182.024"/>
</g>
<!-- Node21&#45;&gt;Node7 -->
<g id="edge27" class="edge"><title>Node21&#45;&gt;Node7</title>
<path fill="none" stroke="midnightblue" d="M419.901,-114.54C520.723,-103.291 725.731,-80.4185 809.299,-71.0947"/>
<polygon fill="midnightblue" stroke="midnightblue" points="809.788,-74.562 819.338,-69.9747 809.012,-67.6052 809.788,-74.562"/>
</g>
<!-- Node21&#45;&gt;Node5 -->
<g id="edge28" class="edge"><title>Node21&#45;&gt;Node5</title>
<path fill="none" stroke="midnightblue" d="M335.697,-112.444C307.319,-103.212 262.004,-88.4712 230.719,-78.2941"/>
<polygon fill="midnightblue" stroke="midnightblue" points="231.686,-74.9281 221.094,-75.1629 229.52,-81.5848 231.686,-74.9281"/>
</g>
<!-- Node21&#45;&gt;Node4 -->
<g id="edge29" class="edge"><title>Node21&#45;&gt;Node4</title>
<path fill="none" stroke="midnightblue" d="M347.701,-112.324C333.817,-103.9 312.508,-90.9709 296.196,-81.0741"/>
<polygon fill="midnightblue" stroke="midnightblue" points="297.629,-77.8495 287.264,-75.6545 293.998,-83.8341 297.629,-77.8495"/>
</g>
<!-- Node21&#45;&gt;Node11 -->
<g id="edge30" class="edge"><title>Node21&#45;&gt;Node11</title>
<path fill="none" stroke="midnightblue" d="M372.358,-112.368C394.72,-93.7334 447.761,-49.5324 475.839,-26.1338"/>
<polygon fill="midnightblue" stroke="midnightblue" points="478.249,-28.6821 483.69,-19.5914 473.767,-23.3045 478.249,-28.6821"/>
</g>
<!-- Node21&#45;&gt;Node9 -->
<g id="edge31" class="edge"><title>Node21&#45;&gt;Node9</title>
<path fill="none" stroke="midnightblue" d="M414.448,-112.444C482.405,-101.357 599.077,-82.3228 657.495,-72.7923"/>
<polygon fill="midnightblue" stroke="midnightblue" points="658.394,-76.192 667.7,-71.1274 657.267,-69.2833 658.394,-76.192"/>
</g>
<!-- Node22&#45;&gt;Node21 -->
<g id="edge33" class="edge"><title>Node22&#45;&gt;Node21</title>
<path fill="none" stroke="midnightblue" d="M283.942,-168.324C298.585,-159.822 321.134,-146.729 338.238,-136.797"/>
<polygon fill="midnightblue" stroke="midnightblue" points="340.205,-139.703 347.095,-131.655 336.69,-133.649 340.205,-139.703"/>
</g>
<!-- Node22&#45;&gt;Node4 -->
<g id="edge34" class="edge"><title>Node22&#45;&gt;Node4</title>
<path fill="none" stroke="midnightblue" d="M269.314,-168.368C269.959,-150.617 271.448,-109.666 272.324,-85.5974"/>
<polygon fill="midnightblue" stroke="midnightblue" points="275.822,-85.712 272.688,-75.5914 268.826,-85.4576 275.822,-85.712"/>
</g>
<!-- Node26 -->
<g id="node26" class="node"><title>Node26</title>
<polygon fill="white" stroke="#bfbfbf" points="2198.5,-280.5 2198.5,-299.5 2287.5,-299.5 2287.5,-280.5 2198.5,-280.5"/>
<text text-anchor="middle" x="2243" y="-287.5" font-family="Helvetica,sans-Serif" font-size="10.00">QtCore/QVariant</text>
</g>
<!-- Node25&#45;&gt;Node26 -->
<g id="edge42" class="edge"><title>Node25&#45;&gt;Node26</title>
<path fill="none" stroke="midnightblue" d="M2243,-336.083C2243,-329.006 2243,-318.861 2243,-309.986"/>
<polygon fill="midnightblue" stroke="midnightblue" points="2246.5,-309.751 2243,-299.751 2239.5,-309.751 2246.5,-309.751"/>
</g>
<!-- Node27 -->
<g id="node27" class="node"><title>Node27</title>
<polygon fill="white" stroke="#bfbfbf" points="2305.5,-280.5 2305.5,-299.5 2406.5,-299.5 2406.5,-280.5 2305.5,-280.5"/>
<text text-anchor="middle" x="2356" y="-287.5" font-family="Helvetica,sans-Serif" font-size="10.00">QtWidgets/QAction</text>
</g>
<!-- Node25&#45;&gt;Node27 -->
<g id="edge43" class="edge"><title>Node25&#45;&gt;Node27</title>
<path fill="none" stroke="midnightblue" d="M2260.91,-336.444C2279.25,-327.675 2308.01,-313.935 2329.09,-303.858"/>
<polygon fill="midnightblue" stroke="midnightblue" points="2330.67,-306.986 2338.18,-299.516 2327.65,-300.67 2330.67,-306.986"/>
</g>
<!-- Node28 -->
<g id="node28" class="node"><title>Node28</title>
<polygon fill="white" stroke="#bfbfbf" points="2425,-280.5 2425,-299.5 2547,-299.5 2547,-280.5 2425,-280.5"/>
<text text-anchor="middle" x="2486" y="-287.5" font-family="Helvetica,sans-Serif" font-size="10.00">QtWidgets/QApplication</text>
</g>
<!-- Node25&#45;&gt;Node28 -->
<g id="edge44" class="edge"><title>Node25&#45;&gt;Node28</title>
<path fill="none" stroke="midnightblue" d="M2281.5,-336.444C2323.81,-327.043 2391.82,-311.929 2437.67,-301.739"/>
<polygon fill="midnightblue" stroke="midnightblue" points="2438.67,-305.102 2447.68,-299.516 2437.15,-298.269 2438.67,-305.102"/>
</g>
<!-- Node29 -->
<g id="node29" class="node"><title>Node29</title>
<polygon fill="white" stroke="#bfbfbf" points="2565,-280.5 2565,-299.5 2693,-299.5 2693,-280.5 2565,-280.5"/>
<text text-anchor="middle" x="2629" y="-287.5" font-family="Helvetica,sans-Serif" font-size="10.00">QtWidgets/QButtonGroup</text>
</g>
<!-- Node25&#45;&gt;Node29 -->
<g id="edge45" class="edge"><title>Node25&#45;&gt;Node29</title>
<path fill="none" stroke="midnightblue" d="M2300.37,-336.974C2368.97,-327.377 2483.79,-311.314 2557.94,-300.941"/>
<polygon fill="midnightblue" stroke="midnightblue" points="2558.71,-304.368 2568.12,-299.516 2557.74,-297.436 2558.71,-304.368"/>
</g>
<!-- Node30 -->
<g id="node30" class="node"><title>Node30</title>
<polygon fill="white" stroke="#bfbfbf" points="2711.5,-280.5 2711.5,-299.5 2830.5,-299.5 2830.5,-280.5 2711.5,-280.5"/>
<text text-anchor="middle" x="2771" y="-287.5" font-family="Helvetica,sans-Serif" font-size="10.00">QtWidgets/QCheckBox</text>
</g>
<!-- Node25&#45;&gt;Node30 -->
<g id="edge46" class="edge"><title>Node25&#45;&gt;Node30</title>
<path fill="none" stroke="midnightblue" d="M2300.31,-339.975C2385.29,-332.392 2550,-317.193 2700.8,-300.103"/>
<polygon fill="midnightblue" stroke="midnightblue" points="2701.64,-303.531 2711.18,-298.922 2700.84,-296.576 2701.64,-303.531"/>
</g>
<!-- Node31 -->
<g id="node31" class="node"><title>Node31</title>
<polygon fill="white" stroke="#bfbfbf" points="2848.5,-280.5 2848.5,-299.5 2973.5,-299.5 2973.5,-280.5 2848.5,-280.5"/>
<text text-anchor="middle" x="2911" y="-287.5" font-family="Helvetica,sans-Serif" font-size="10.00">QtWidgets/QHeaderView</text>
</g>
<!-- Node25&#45;&gt;Node31 -->
<g id="edge47" class="edge"><title>Node25&#45;&gt;Node31</title>
<path fill="none" stroke="midnightblue" d="M2300.2,-341.617C2404.76,-335.228 2633.99,-320.276 2838.18,-300.034"/>
<polygon fill="midnightblue" stroke="midnightblue" points="2838.59,-303.51 2848.19,-299.035 2837.89,-296.545 2838.59,-303.51"/>
</g>
<!-- Node32 -->
<g id="node32" class="node"><title>Node32</title>
<polygon fill="white" stroke="#bfbfbf" points="2991.5,-280.5 2991.5,-299.5 3088.5,-299.5 3088.5,-280.5 2991.5,-280.5"/>
<text text-anchor="middle" x="3040" y="-287.5" font-family="Helvetica,sans-Serif" font-size="10.00">QtWidgets/QLabel</text>
</g>
<!-- Node25&#45;&gt;Node32 -->
<g id="edge48" class="edge"><title>Node25&#45;&gt;Node32</title>
<path fill="none" stroke="midnightblue" d="M2300.17,-343.333C2422.92,-339.36 2720.95,-327.614 2981.29,-299.967"/>
<polygon fill="midnightblue" stroke="midnightblue" points="2981.74,-303.438 2991.31,-298.892 2980.99,-296.478 2981.74,-303.438"/>
</g>
<!-- Node33 -->
<g id="node33" class="node"><title>Node33</title>
<polygon fill="white" stroke="#bfbfbf" points="1542,-280.5 1542,-299.5 1670,-299.5 1670,-280.5 1542,-280.5"/>
<text text-anchor="middle" x="1606" y="-287.5" font-family="Helvetica,sans-Serif" font-size="10.00">QtWidgets/QProgressBar</text>
</g>
<!-- Node25&#45;&gt;Node33 -->
<g id="edge49" class="edge"><title>Node25&#45;&gt;Node33</title>
<path fill="none" stroke="midnightblue" d="M2185.68,-341.246C2085.42,-334.498 1871.42,-319.301 1680.04,-300.065"/>
<polygon fill="midnightblue" stroke="midnightblue" points="1680.38,-296.582 1670.08,-299.058 1679.67,-303.546 1680.38,-296.582"/>
</g>
<!-- Node34 -->
<g id="node34" class="node"><title>Node34</title>
<polygon fill="white" stroke="#bfbfbf" points="1688.5,-280.5 1688.5,-299.5 1813.5,-299.5 1813.5,-280.5 1688.5,-280.5"/>
<text text-anchor="middle" x="1751" y="-287.5" font-family="Helvetica,sans-Serif" font-size="10.00">QtWidgets/QPushButton</text>
</g>
<!-- Node25&#45;&gt;Node34 -->
<g id="edge50" class="edge"><title>Node25&#45;&gt;Node34</title>
<path fill="none" stroke="midnightblue" d="M2185.9,-339.204C2107.04,-331.128 1960.06,-315.82 1824.01,-300.1"/>
<polygon fill="midnightblue" stroke="midnightblue" points="1824.16,-296.593 1813.82,-298.919 1823.35,-303.546 1824.16,-296.593"/>
</g>
<!-- Node35 -->
<g id="node35" class="node"><title>Node35</title>
<polygon fill="white" stroke="#bfbfbf" points="1832,-280.5 1832,-299.5 1930,-299.5 1930,-280.5 1832,-280.5"/>
<text text-anchor="middle" x="1881" y="-287.5" font-family="Helvetica,sans-Serif" font-size="10.00">QtWidgets/QSlider</text>
</g>
<!-- Node25&#45;&gt;Node35 -->
<g id="edge51" class="edge"><title>Node25&#45;&gt;Node35</title>
<path fill="none" stroke="midnightblue" d="M2185.83,-336.659C2126.87,-328.029 2031.95,-314.06 1940.07,-300.154"/>
<polygon fill="midnightblue" stroke="midnightblue" points="1940.46,-296.673 1930.04,-298.635 1939.41,-303.594 1940.46,-296.673"/>
</g>
<!-- Node36 -->
<g id="node36" class="node"><title>Node36</title>
<polygon fill="white" stroke="#bfbfbf" points="1948,-280.5 1948,-299.5 2058,-299.5 2058,-280.5 1948,-280.5"/>
<text text-anchor="middle" x="2003" y="-287.5" font-family="Helvetica,sans-Serif" font-size="10.00">QtWidgets/QTextEdit</text>
</g>
<!-- Node25&#45;&gt;Node36 -->
<g id="edge52" class="edge"><title>Node25&#45;&gt;Node36</title>
<path fill="none" stroke="midnightblue" d="M2204.97,-336.444C2163.19,-327.043 2096.02,-311.929 2050.73,-301.739"/>
<polygon fill="midnightblue" stroke="midnightblue" points="2051.38,-298.297 2040.85,-299.516 2049.84,-305.126 2051.38,-298.297"/>
</g>
<!-- Node37 -->
<g id="node37" class="node"><title>Node37</title>
<polygon fill="white" stroke="#bfbfbf" points="2076,-280.5 2076,-299.5 2180,-299.5 2180,-280.5 2076,-280.5"/>
<text text-anchor="middle" x="2128" y="-287.5" font-family="Helvetica,sans-Serif" font-size="10.00">QtWidgets/QWidget</text>
</g>
<!-- Node25&#45;&gt;Node37 -->
<g id="edge53" class="edge"><title>Node25&#45;&gt;Node37</title>
<path fill="none" stroke="midnightblue" d="M2224.78,-336.444C2206.1,-327.675 2176.84,-313.935 2155.38,-303.858"/>
<polygon fill="midnightblue" stroke="midnightblue" points="2156.68,-300.599 2146.14,-299.516 2153.7,-306.935 2156.68,-300.599"/>
</g>
<!-- Node38&#45;&gt;Node5 -->
<g id="edge55" class="edge"><title>Node38&#45;&gt;Node5</title>
<path fill="none" stroke="midnightblue" d="M989.369,-344.859C858.506,-344.008 316.619,-338.198 152,-300 80.4283,-283.392 0,-308.473 0,-235 0,-235 0,-235 0,-177 0,-104.083 104.436,-79.0064 160.841,-70.7803"/>
<polygon fill="midnightblue" stroke="midnightblue" points="161.339,-74.2449 170.778,-69.4326 160.398,-67.3084 161.339,-74.2449"/>
</g>
<!-- Node38&#45;&gt;Node10 -->
<g id="edge56" class="edge"><title>Node38&#45;&gt;Node10</title>
<path fill="none" stroke="midnightblue" d="M1029.54,-336.433C1050.8,-319.571 1094,-279.799 1094,-235 1094,-235 1094,-235 1094,-121 1094,-58.4688 881.156,-25.7943 794.275,-15.0616"/>
<polygon fill="midnightblue" stroke="midnightblue" points="794.433,-11.5553 784.086,-13.8326 793.595,-18.505 794.433,-11.5553"/>
</g>
<!-- Node38&#45;&gt;Node16 -->
<g id="edge57" class="edge"><title>Node38&#45;&gt;Node16</title>
<path fill="none" stroke="midnightblue" d="M1046.58,-345.252C1122.39,-345.34 1326.18,-341.608 1376,-300 1406.46,-274.561 1412.87,-224.958 1413.99,-197.831"/>
<polygon fill="midnightblue" stroke="midnightblue" points="1417.49,-197.788 1414.2,-187.717 1410.49,-197.641 1417.49,-197.788"/>
</g>
<!-- Node39 -->
<g id="node39" class="node"><title>Node39</title>
<polygon fill="white" stroke="#bfbfbf" points="1122,-280.5 1122,-299.5 1164,-299.5 1164,-280.5 1122,-280.5"/>
<text text-anchor="middle" x="1143" y="-287.5" font-family="Helvetica,sans-Serif" font-size="10.00">vector</text>
</g>
<!-- Node38&#45;&gt;Node39 -->
<g id="edge58" class="edge"><title>Node38&#45;&gt;Node39</title>
<path fill="none" stroke="midnightblue" d="M1037.81,-336.444C1058.29,-327.596 1090.48,-313.687 1113.86,-303.586"/>
<polygon fill="midnightblue" stroke="midnightblue" points="1115.49,-306.695 1123.29,-299.516 1112.72,-300.269 1115.49,-306.695"/>
</g>
<!-- Node40 -->
<g id="node40" class="node"><title>Node40</title>
<polygon fill="white" stroke="#bfbfbf" points="1182.5,-280.5 1182.5,-299.5 1235.5,-299.5 1235.5,-280.5 1182.5,-280.5"/>
<text text-anchor="middle" x="1209" y="-287.5" font-family="Helvetica,sans-Serif" font-size="10.00">QVector</text>
</g>
<!-- Node38&#45;&gt;Node40 -->
<g id="edge59" class="edge"><title>Node38&#45;&gt;Node40</title>
<path fill="none" stroke="midnightblue" d="M1046.59,-336.916C1080.17,-327.422 1135.93,-311.659 1172.57,-301.298"/>
<polygon fill="midnightblue" stroke="midnightblue" points="1173.7,-304.618 1182.37,-298.529 1171.79,-297.882 1173.7,-304.618"/>
</g>
<!-- Node38&#45;&gt;Node8 -->
<g id="edge60" class="edge"><title>Node38&#45;&gt;Node8</title>
<path fill="none" stroke="midnightblue" d="M1015.36,-336.496C1007.4,-310.924 982.853,-232.517 961,-168 958.004,-159.154 954.547,-149.38 951.614,-141.208"/>
<polygon fill="midnightblue" stroke="midnightblue" points="954.833,-139.817 948.144,-131.6 948.249,-142.194 954.833,-139.817"/>
</g>
<!-- Node38&#45;&gt;Node13 -->
<g id="edge61" class="edge"><title>Node38&#45;&gt;Node13</title>
<path fill="none" stroke="midnightblue" d="M1046.55,-344.892C1117.43,-344.041 1298.85,-338.1 1343,-300 1365.79,-280.336 1362,-265.098 1362,-235 1362,-235 1362,-235 1362,-121 1362,-22.804 1205.7,-10.4761 1132.27,-10.1026"/>
<polygon fill="midnightblue" stroke="midnightblue" points="1132.06,-6.60297 1122.07,-10.1254 1132.08,-13.603 1132.06,-6.60297"/>
</g>
<!-- Node41 -->
<g id="node41" class="node"><title>Node41</title>
<polygon fill="white" stroke="#bfbfbf" points="1254,-280.5 1254,-299.5 1334,-299.5 1334,-280.5 1254,-280.5"/>
<text text-anchor="middle" x="1294" y="-287.5" font-family="Helvetica,sans-Serif" font-size="10.00">QMainWindow</text>
</g>
<!-- Node38&#45;&gt;Node41 -->
<g id="edge62" class="edge"><title>Node38&#45;&gt;Node41</title>
<path fill="none" stroke="midnightblue" d="M1046.76,-339.374C1093.38,-330.251 1186.07,-312.116 1243.77,-300.828"/>
<polygon fill="midnightblue" stroke="midnightblue" points="1244.63,-304.227 1253.77,-298.872 1243.28,-297.357 1244.63,-304.227"/>
</g>
<!-- Node38&#45;&gt;Node7 -->
<g id="edge63" class="edge"><title>Node38&#45;&gt;Node7</title>
<path fill="none" stroke="midnightblue" d="M1023.28,-336.231C1033.73,-318.043 1056,-274.601 1056,-235 1056,-235 1056,-235 1056,-177 1056,-146.205 1055,-132.473 1032,-112 990.562,-75.1222 924.056,-67.2065 882.808,-66.1612"/>
<polygon fill="midnightblue" stroke="midnightblue" points="882.688,-62.6595 872.644,-66.0298 882.598,-69.6589 882.688,-62.6595"/>
</g>
<!-- Node38&#45;&gt;Node15 -->
<g id="edge64" class="edge"><title>Node38&#45;&gt;Node15</title>
<path fill="none" stroke="midnightblue" d="M989.896,-336.46C925.481,-316.886 767.121,-268.766 694.06,-246.565"/>
<polygon fill="midnightblue" stroke="midnightblue" points="694.922,-243.169 684.336,-243.61 692.886,-249.867 694.922,-243.169"/>
</g>
<!-- Node38&#45;&gt;Node2 -->
<g id="edge65" class="edge"><title>Node38&#45;&gt;Node2</title>
<path fill="none" stroke="midnightblue" d="M989.292,-340.718C930.636,-331.968 795.929,-311.873 716.898,-300.084"/>
<polygon fill="midnightblue" stroke="midnightblue" points="717.008,-296.562 706.601,-298.548 715.975,-303.485 717.008,-296.562"/>
</g>
<!-- Node38&#45;&gt;Node22 -->
<g id="edge66" class="edge"><title>Node38&#45;&gt;Node22</title>
<path fill="none" stroke="midnightblue" d="M989.05,-344.482C848.305,-341.826 241.165,-328.728 214,-300 190.792,-275.457 199.535,-254.524 214,-224 220.128,-211.068 231.994,-200.617 243.141,-193.053"/>
<polygon fill="midnightblue" stroke="midnightblue" points="245.195,-195.896 251.802,-187.614 241.472,-189.968 245.195,-195.896"/>
</g>
<!-- Node38&#45;&gt;Node6 -->
<g id="edge67" class="edge"><title>Node38&#45;&gt;Node6</title>
<path fill="none" stroke="midnightblue" d="M1006.52,-336.433C995.462,-327.883 978.609,-314.03 966,-300 935.651,-266.233 906.996,-221.105 892.282,-196.615"/>
<polygon fill="midnightblue" stroke="midnightblue" points="895.138,-194.568 887.027,-187.752 889.116,-198.139 895.138,-194.568"/>
</g>
<!-- Node38&#45;&gt;Node3 -->
<g id="edge68" class="edge"><title>Node38&#45;&gt;Node3</title>
<path fill="none" stroke="midnightblue" d="M989.432,-344.645C853.006,-342.789 271.395,-332.984 198,-300 128.083,-268.58 44.3771,-231.709 87,-168 98.4917,-150.823 117.869,-140.196 137.125,-133.623"/>
<polygon fill="midnightblue" stroke="midnightblue" points="138.313,-136.92 146.837,-130.627 136.249,-130.231 138.313,-136.92"/>
</g>
<!-- Node38&#45;&gt;Node9 -->
<g id="edge69" class="edge"><title>Node38&#45;&gt;Node9</title>
<path fill="none" stroke="midnightblue" d="M1018,-336.442C1018,-317.936 1018,-272.813 1018,-235 1018,-235 1018,-235 1018,-177 1018,-145.718 1015.65,-131.266 991,-112 970.569,-96.0291 803.066,-77.8071 728.534,-70.3986"/>
<polygon fill="midnightblue" stroke="midnightblue" points="728.535,-66.8819 718.24,-69.3856 727.849,-73.8482 728.535,-66.8819"/>
</g>
<!-- Node38&#45;&gt;Node21 -->
<g id="edge70" class="edge"><title>Node38&#45;&gt;Node21</title>
<path fill="none" stroke="midnightblue" d="M989.322,-343.082C863.67,-334.387 366.062,-296.792 323,-244 297.542,-212.79 328.195,-164.591 347.9,-139.483"/>
<polygon fill="midnightblue" stroke="midnightblue" points="350.696,-141.592 354.304,-131.63 345.271,-137.169 350.696,-141.592"/>
</g>
<!-- Node42&#45;&gt;Node23 -->
<g id="edge72" class="edge"><title>Node42&#45;&gt;Node23</title>
<path fill="none" stroke="midnightblue" d="M1403.9,-336.303C1392.38,-322.671 1368.33,-296.163 1343,-280 1318.96,-264.663 1288.86,-253.116 1265.48,-245.561"/>
<polygon fill="midnightblue" stroke="midnightblue" points="1266.5,-242.212 1255.92,-242.567 1264.41,-248.893 1266.5,-242.212"/>
</g>
<!-- Node43&#45;&gt;Node16 -->
<g id="edge74" class="edge"><title>Node43&#45;&gt;Node16</title>
<path fill="none" stroke="midnightblue" d="M1514.99,-224.444C1495.41,-215.636 1464.69,-201.812 1442.27,-191.722"/>
<polygon fill="midnightblue" stroke="midnightblue" points="1443.48,-188.428 1432.93,-187.516 1440.61,-194.812 1443.48,-188.428"/>
</g>
</g>
</svg>
        <g id="navigator" transform="translate(0 0)" fill="#404254">
                <rect fill="#f2f5e9" fill-opacity="0.5" stroke="#606060" stroke-width=".5" x="0" y="0" width="60" height="60"/>
                <use id="zoomplus" xlink:href="#zoomPlus" x="17" y="9" onmousedown="handleZoom(evt,'in')"/>
                <use id="zoomminus" xlink:href="#zoomMin" x="42" y="9" onmousedown="handleZoom(evt,'out')"/>
                <use id="reset" xlink:href="#resetDef" x="30" y="36" onmousedown="handleReset()"/>
                <g id="arrowUp" xlink:href="#dirArrow" transform="translate(30 24)" onmousedown="handlePan(0,-1)">
                  <use xlink:href="#rim" fill="#404040">
                        <set attributeName="fill" to="#808080" begin="arrowUp.mouseover" end="arrowUp.mouseout"/>
                  </use>
                  <path fill="none" stroke="white" stroke-width="1.5" d="M0,-3.0v7 M-2.5,-0.5L0,-3.0L2.5,-0.5"/>
                </g>
                <g id="arrowRight" xlink:href="#dirArrow" transform="rotate(90) translate(36 -43)" onmousedown="handlePan(1,0)">
                  <use xlink:href="#rim" fill="#404040">
                        <set attributeName="fill" to="#808080" begin="arrowRight.mouseover" end="arrowRight.mouseout"/>
                  </use>
                  <path fill="none" stroke="white" stroke-width="1.5" d="M0,-3.0v7 M-2.5,-0.5L0,-3.0L2.5,-0.5"/>
                </g>
                <g id="arrowDown" xlink:href="#dirArrow" transform="rotate(180) translate(-30 -48)" onmousedown="handlePan(0,1)">
                  <use xlink:href="#rim" fill="#404040">
                        <set attributeName="fill" to="#808080" begin="arrowDown.mouseover" end="arrowDown.mouseout"/>
                  </use>
                  <path fill="none" stroke="white" stroke-width="1.5" d="M0,-3.0v7 M-2.5,-0.5L0,-3.0L2.5,-0.5"/>
                </g>
                <g id="arrowLeft" xlink:href="#dirArrow" transform="rotate(270) translate(-36 17)" onmousedown="handlePan(-1,0)">
                  <use xlink:href="#rim" fill="#404040">
                        <set attributeName="fill" to="#808080" begin="arrowLeft.mouseover" end="arrowLeft.mouseout"/>
                  </use>
                  <path fill="none" stroke="white" stroke-width="1.5" d="M0,-3.0v7 M-2.5,-0.5L0,-3.0L2.5,-0.5"/>
                </g>
        </g>
        <svg viewBox="0 0 15 15" width="100%" height="30px" preserveAspectRatio="xMaxYMin meet">
         <g id="arrow_out" transform="scale(0.3 0.3)">
          <a xlink:href="controllingroomba_8cpp__incl_org.svg" target="_base">
           <rect id="button" ry="5" rx="5" y="6" x="6" height="38" width="38"
                fill="#f2f5e9" fill-opacity="0.5" stroke="#606060" stroke-width="1.0"/>
           <path id="arrow"
             d="M 11.500037,31.436501 C 11.940474,20.09759 22.043105,11.32322 32.158766,21.979434 L 37.068811,17.246167 C 37.068811,17.246167 37.088388,32 37.088388,32 L 22.160133,31.978069 C 22.160133,31.978069 26.997745,27.140456 26.997745,27.140456 C 18.528582,18.264221 13.291696,25.230495 11.500037,31.436501 z"
             style="fill:#404040;"/>
          </a>
         </g>
        </svg>
</svg>
