<?xml version="1.0" encoding="UTF-8" standalone="no"?>
<!DOCTYPE svg PUBLIC "-//W3C//DTD SVG 1.1//EN"
 "http://www.w3.org/Graphics/SVG/1.1/DTD/svg11.dtd">
<!-- Generated by graphviz version 2.30.1 (20130214.1330)
 -->
<!-- Title: GUI/Gui&#45;RoombaV1.0/roomba.h Pages: 1 -->
<svg width="888pt" height="108pt"
 viewBox="0.00 0.00 888.00 108.00" xmlns="http://www.w3.org/2000/svg" xmlns:xlink="http://www.w3.org/1999/xlink">
<g id="graph0" class="graph" transform="scale(1 1) rotate(0) translate(4 104)">
<title>GUI/Gui&#45;RoombaV1.0/roomba.h</title>
<polygon fill="white" stroke="white" points="-4,5 -4,-104 885,-104 885,5 -4,5"/>
<!-- Node1 -->
<g id="node1" class="node"><title>Node1</title>
<polygon fill="#bfbfbf" stroke="black" points="386,-69 386,-99 496,-99 496,-69 386,-69"/>
<text text-anchor="start" x="394" y="-87" font-family="Helvetica,sans-Serif" font-size="10.00">GUI/Gui&#45;RoombaV1.0</text>
<text text-anchor="middle" x="441" y="-76" font-family="Helvetica,sans-Serif" font-size="10.00">/roomba.h</text>
</g>
<!-- Node2 -->
<g id="node2" class="node"><title>Node2</title>
<g id="a_node2"><a xlink:href="../../df/db0/moc__roomba_8cpp.xhtml" target="_top" xlink:title="GUI/bin/debug/debug\l/moc_roomba.cpp">
<polygon fill="white" stroke="black" points="-0.5,-1 -0.5,-31 106.5,-31 106.5,-1 -0.5,-1"/>
<text text-anchor="start" x="7.5" y="-19" font-family="Helvetica,sans-Serif" font-size="10.00">GUI/bin/debug/debug</text>
<text text-anchor="middle" x="53" y="-8" font-family="Helvetica,sans-Serif" font-size="10.00">/moc_roomba.cpp</text>
</a>
</g>
</g>
<!-- Node1&#45;&gt;Node2 -->
<g id="edge1" class="edge"><title>Node1&#45;&gt;Node2</title>
<path fill="none" stroke="midnightblue" d="M375.707,-74.3947C309.692,-65.3172 204.865,-49.8687 115,-32 112.285,-31.4601 109.508,-30.8825 106.709,-30.2799"/>
<polygon fill="midnightblue" stroke="midnightblue" points="375.578,-77.9096 385.96,-75.7962 376.526,-70.9741 375.578,-77.9096"/>
</g>
<!-- Node3 -->
<g id="node3" class="node"><title>Node3</title>
<g id="a_node3"><a xlink:href="../../d5/dd2/controllingroomba_8cpp.xhtml" target="_top" xlink:title="GUI/Gui&#45;RoombaV1.0\l/controllingroomba.cpp">
<polygon fill="white" stroke="black" points="124.5,-1 124.5,-31 239.5,-31 239.5,-1 124.5,-1"/>
<text text-anchor="start" x="132.5" y="-19" font-family="Helvetica,sans-Serif" font-size="10.00">GUI/Gui&#45;RoombaV1.0</text>
<text text-anchor="middle" x="182" y="-8" font-family="Helvetica,sans-Serif" font-size="10.00">/controllingroomba.cpp</text>
</a>
</g>
</g>
<!-- Node1&#45;&gt;Node3 -->
<g id="edge2" class="edge"><title>Node1&#45;&gt;Node3</title>
<path fill="none" stroke="midnightblue" d="M375.999,-66.4359C333.207,-55.5316 277.798,-41.412 237.159,-31.0561"/>
<polygon fill="midnightblue" stroke="midnightblue" points="375.201,-69.8445 385.756,-68.9223 376.93,-63.0613 375.201,-69.8445"/>
</g>
<!-- Node4 -->
<g id="node4" class="node"><title>Node4</title>
<g id="a_node4"><a xlink:href="../../d1/d10/displaylogs_8cpp.xhtml" target="_top" xlink:title="GUI/Gui&#45;RoombaV1.0\l/displaylogs.cpp">
<polygon fill="white" stroke="black" points="258,-1 258,-31 368,-31 368,-1 258,-1"/>
<text text-anchor="start" x="266" y="-19" font-family="Helvetica,sans-Serif" font-size="10.00">GUI/Gui&#45;RoombaV1.0</text>
<text text-anchor="middle" x="313" y="-8" font-family="Helvetica,sans-Serif" font-size="10.00">/displaylogs.cpp</text>
</a>
</g>
</g>
<!-- Node1&#45;&gt;Node4 -->
<g id="edge3" class="edge"><title>Node1&#45;&gt;Node4</title>
<path fill="none" stroke="midnightblue" d="M404.533,-64.1968C384.137,-53.6802 359.132,-40.7868 340.414,-31.1352"/>
<polygon fill="midnightblue" stroke="midnightblue" points="403.049,-67.3692 413.541,-68.8413 406.257,-61.1476 403.049,-67.3692"/>
</g>
<!-- Node5 -->
<g id="node5" class="node"><title>Node5</title>
<g id="a_node5"><a xlink:href="../../da/d0b/information_8cpp.xhtml" target="_top" xlink:title="GUI/Gui&#45;RoombaV1.0\l/information.cpp">
<polygon fill="white" stroke="black" points="386,-1 386,-31 496,-31 496,-1 386,-1"/>
<text text-anchor="start" x="394" y="-19" font-family="Helvetica,sans-Serif" font-size="10.00">GUI/Gui&#45;RoombaV1.0</text>
<text text-anchor="middle" x="441" y="-8" font-family="Helvetica,sans-Serif" font-size="10.00">/information.cpp</text>
</a>
</g>
</g>
<!-- Node1&#45;&gt;Node5 -->
<g id="edge4" class="edge"><title>Node1&#45;&gt;Node5</title>
<path fill="none" stroke="midnightblue" d="M441,-58.5322C441,-49.3606 441,-39.2449 441,-31.2931"/>
<polygon fill="midnightblue" stroke="midnightblue" points="437.5,-58.6789 441,-68.679 444.5,-58.679 437.5,-58.6789"/>
</g>
<!-- Node6 -->
<g id="node6" class="node"><title>Node6</title>
<g id="a_node6"><a xlink:href="../../d8/da8/_gui-_roomba_v1_80_2main_8cpp.xhtml" target="_top" xlink:title="GUI/Gui&#45;RoombaV1.0\l/main.cpp">
<polygon fill="white" stroke="black" points="514,-1 514,-31 624,-31 624,-1 514,-1"/>
<text text-anchor="start" x="522" y="-19" font-family="Helvetica,sans-Serif" font-size="10.00">GUI/Gui&#45;RoombaV1.0</text>
<text text-anchor="middle" x="569" y="-8" font-family="Helvetica,sans-Serif" font-size="10.00">/main.cpp</text>
</a>
</g>
</g>
<!-- Node1&#45;&gt;Node6 -->
<g id="edge5" class="edge"><title>Node1&#45;&gt;Node6</title>
<path fill="none" stroke="midnightblue" d="M477.467,-64.1968C497.863,-53.6802 522.868,-40.7868 541.586,-31.1352"/>
<polygon fill="midnightblue" stroke="midnightblue" points="475.743,-61.1476 468.459,-68.8413 478.951,-67.3692 475.743,-61.1476"/>
</g>
<!-- Node7 -->
<g id="node7" class="node"><title>Node7</title>
<g id="a_node7"><a xlink:href="../../de/d67/roomba_8cpp.xhtml" target="_top" xlink:title="GUI/Gui&#45;RoombaV1.0\l/roomba.cpp">
<polygon fill="white" stroke="black" points="642,-1 642,-31 752,-31 752,-1 642,-1"/>
<text text-anchor="start" x="650" y="-19" font-family="Helvetica,sans-Serif" font-size="10.00">GUI/Gui&#45;RoombaV1.0</text>
<text text-anchor="middle" x="697" y="-8" font-family="Helvetica,sans-Serif" font-size="10.00">/roomba.cpp</text>
</a>
</g>
</g>
<!-- Node1&#45;&gt;Node7 -->
<g id="edge6" class="edge"><title>Node1&#45;&gt;Node7</title>
<path fill="none" stroke="midnightblue" d="M505.516,-66.367C547.775,-55.4721 602.396,-41.3902 642.479,-31.0561"/>
<polygon fill="midnightblue" stroke="midnightblue" points="504.414,-63.0366 495.604,-68.9223 506.162,-69.8149 504.414,-63.0366"/>
</g>
<!-- Node8 -->
<g id="node8" class="node"><title>Node8</title>
<g id="a_node8"><a xlink:href="../../da/d3b/settingsroomba_8cpp.xhtml" target="_top" xlink:title="GUI/Gui&#45;RoombaV1.0\l/settingsroomba.cpp">
<polygon fill="white" stroke="black" points="770,-1 770,-31 880,-31 880,-1 770,-1"/>
<text text-anchor="start" x="778" y="-19" font-family="Helvetica,sans-Serif" font-size="10.00">GUI/Gui&#45;RoombaV1.0</text>
<text text-anchor="middle" x="825" y="-8" font-family="Helvetica,sans-Serif" font-size="10.00">/settingsroomba.cpp</text>
</a>
</g>
</g>
<!-- Node1&#45;&gt;Node8 -->
<g id="edge7" class="edge"><title>Node1&#45;&gt;Node8</title>
<path fill="none" stroke="midnightblue" d="M506.216,-74.0138C571.054,-64.7493 673.235,-49.2553 761,-32 763.911,-31.4276 766.892,-30.8167 769.897,-30.1811"/>
<polygon fill="midnightblue" stroke="midnightblue" points="505.546,-70.5738 496.139,-75.4466 506.532,-77.5041 505.546,-70.5738"/>
</g>
</g>
</svg>
