<?xml version="1.0" encoding="UTF-8" standalone="no"?>
<!DOCTYPE svg PUBLIC "-//W3C//DTD SVG 1.1//EN"
 "http://www.w3.org/Graphics/SVG/1.1/DTD/svg11.dtd">
<!-- Generated by graphviz version 2.30.1 (20130214.1330)
 -->
<!-- Title: GUI/Gui&#45;RoombaV1.0/roomba.h Pages: 1 -->
<svg width="1087pt" height="118pt"
 viewBox="0.00 0.00 1087.00 118.00" xmlns="http://www.w3.org/2000/svg" xmlns:xlink="http://www.w3.org/1999/xlink">
<g id="graph0" class="graph" transform="scale(1 1) rotate(0) translate(4 114)">
<title>GUI/Gui&#45;RoombaV1.0/roomba.h</title>
<polygon fill="white" stroke="white" points="-4,5 -4,-114 1084,-114 1084,5 -4,5"/>
<!-- Node1 -->
<g id="node1" class="node"><title>Node1</title>
<polygon fill="#bfbfbf" stroke="black" points="450,-79 450,-109 560,-109 560,-79 450,-79"/>
<text text-anchor="start" x="458" y="-97" font-family="Helvetica,sans-Serif" font-size="10.00">GUI/Gui&#45;RoombaV1.0</text>
<text text-anchor="middle" x="505" y="-86" font-family="Helvetica,sans-Serif" font-size="10.00">/roomba.h</text>
</g>
<!-- Node2 -->
<g id="node2" class="node"><title>Node2</title>
<g id="a_node2"><a xlink:href="../../d8/d22/bin_2debug_2debug_2moc__roomba_8cpp.xhtml" target="_top" xlink:title="GUI/bin/debug/debug\l/moc_roomba.cpp">
<polygon fill="white" stroke="black" points="-0.5,-6 -0.5,-36 106.5,-36 106.5,-6 -0.5,-6"/>
<text text-anchor="start" x="7.5" y="-24" font-family="Helvetica,sans-Serif" font-size="10.00">GUI/bin/debug/debug</text>
<text text-anchor="middle" x="53" y="-13" font-family="Helvetica,sans-Serif" font-size="10.00">/moc_roomba.cpp</text>
</a>
</g>
</g>
<!-- Node1&#45;&gt;Node2 -->
<g id="edge1" class="edge"><title>Node1&#45;&gt;Node2</title>
<path fill="none" stroke="midnightblue" d="M439.714,-88.1176C361.739,-81.4487 227.697,-67.324 115,-42 107.827,-40.3882 100.3,-38.3056 93.0605,-36.0951"/>
<polygon fill="midnightblue" stroke="midnightblue" points="439.612,-91.6213 449.87,-88.9711 440.199,-84.6459 439.612,-91.6213"/>
</g>
<!-- Node3 -->
<g id="node3" class="node"><title>Node3</title>
<g id="a_node3"><a xlink:href="../../d5/dd2/controllingroomba_8cpp.xhtml" target="_top" xlink:title="GUI/Gui&#45;RoombaV1.0\l/controllingroomba.cpp">
<polygon fill="white" stroke="black" points="124.5,-6 124.5,-36 239.5,-36 239.5,-6 124.5,-6"/>
<text text-anchor="start" x="132.5" y="-24" font-family="Helvetica,sans-Serif" font-size="10.00">GUI/Gui&#45;RoombaV1.0</text>
<text text-anchor="middle" x="182" y="-13" font-family="Helvetica,sans-Serif" font-size="10.00">/controllingroomba.cpp</text>
</a>
</g>
</g>
<!-- Node1&#45;&gt;Node3 -->
<g id="edge2" class="edge"><title>Node1&#45;&gt;Node3</title>
<path fill="none" stroke="midnightblue" d="M439.657,-81.7227C387.704,-72.3387 313.324,-57.9709 249,-42 241.813,-40.2156 234.247,-38.1461 226.891,-36.0286"/>
<polygon fill="midnightblue" stroke="midnightblue" points="439.277,-85.2105 449.738,-83.532 440.514,-78.3205 439.277,-85.2105"/>
</g>
<!-- Node4 -->
<g id="node4" class="node"><title>Node4</title>
<g id="a_node4"><a xlink:href="../../d1/d10/displaylogs_8cpp.xhtml" target="_top" xlink:title="GUI/Gui&#45;RoombaV1.0\l/displaylogs.cpp">
<polygon fill="white" stroke="black" points="258,-6 258,-36 368,-36 368,-6 258,-6"/>
<text text-anchor="start" x="266" y="-24" font-family="Helvetica,sans-Serif" font-size="10.00">GUI/Gui&#45;RoombaV1.0</text>
<text text-anchor="middle" x="313" y="-13" font-family="Helvetica,sans-Serif" font-size="10.00">/displaylogs.cpp</text>
</a>
</g>
</g>
<!-- Node1&#45;&gt;Node4 -->
<g id="edge3" class="edge"><title>Node1&#45;&gt;Node4</title>
<path fill="none" stroke="midnightblue" d="M457.679,-75.501C424.886,-63.3743 381.787,-47.4369 351.182,-36.1195"/>
<polygon fill="midnightblue" stroke="midnightblue" points="456.474,-78.787 467.067,-78.9727 458.902,-72.2215 456.474,-78.787"/>
</g>
<!-- Node5 -->
<g id="node5" class="node"><title>Node5</title>
<g id="a_node5"><a xlink:href="../../da/d0b/information_8cpp.xhtml" target="_top" xlink:title="GUI/Gui&#45;RoombaV1.0\l/information.cpp">
<polygon fill="white" stroke="black" points="386,-6 386,-36 496,-36 496,-6 386,-6"/>
<text text-anchor="start" x="394" y="-24" font-family="Helvetica,sans-Serif" font-size="10.00">GUI/Gui&#45;RoombaV1.0</text>
<text text-anchor="middle" x="441" y="-13" font-family="Helvetica,sans-Serif" font-size="10.00">/information.cpp</text>
</a>
</g>
</g>
<!-- Node1&#45;&gt;Node5 -->
<g id="edge4" class="edge"><title>Node1&#45;&gt;Node5</title>
<path fill="none" stroke="midnightblue" d="M485.373,-71.226C475.205,-59.9457 463.066,-46.4798 454.057,-36.4856"/>
<polygon fill="midnightblue" stroke="midnightblue" points="483.06,-73.8883 492.356,-78.9727 488.26,-69.2015 483.06,-73.8883"/>
</g>
<!-- Node6 -->
<g id="node6" class="node"><title>Node6</title>
<g id="a_node6"><a xlink:href="../../d8/da8/_gui-_roomba_v1_80_2main_8cpp.xhtml" target="_top" xlink:title="GUI/Gui&#45;RoombaV1.0\l/main.cpp">
<polygon fill="white" stroke="black" points="514,-6 514,-36 624,-36 624,-6 514,-6"/>
<text text-anchor="start" x="522" y="-24" font-family="Helvetica,sans-Serif" font-size="10.00">GUI/Gui&#45;RoombaV1.0</text>
<text text-anchor="middle" x="569" y="-13" font-family="Helvetica,sans-Serif" font-size="10.00">/main.cpp</text>
</a>
</g>
</g>
<!-- Node1&#45;&gt;Node6 -->
<g id="edge5" class="edge"><title>Node1&#45;&gt;Node6</title>
<path fill="none" stroke="midnightblue" d="M524.627,-71.226C534.795,-59.9457 546.934,-46.4798 555.943,-36.4856"/>
<polygon fill="midnightblue" stroke="midnightblue" points="521.74,-69.2015 517.644,-78.9727 526.94,-73.8883 521.74,-69.2015"/>
</g>
<!-- Node7 -->
<g id="node7" class="node"><title>Node7</title>
<g id="a_node7"><a xlink:href="../../de/d67/roomba_8cpp.xhtml" target="_top" xlink:title="GUI/Gui&#45;RoombaV1.0\l/roomba.cpp">
<polygon fill="white" stroke="black" points="642,-6 642,-36 752,-36 752,-6 642,-6"/>
<text text-anchor="start" x="650" y="-24" font-family="Helvetica,sans-Serif" font-size="10.00">GUI/Gui&#45;RoombaV1.0</text>
<text text-anchor="middle" x="697" y="-13" font-family="Helvetica,sans-Serif" font-size="10.00">/roomba.cpp</text>
</a>
</g>
</g>
<!-- Node1&#45;&gt;Node7 -->
<g id="edge6" class="edge"><title>Node1&#45;&gt;Node7</title>
<path fill="none" stroke="midnightblue" d="M552.321,-75.501C585.114,-63.3743 628.213,-47.4369 658.818,-36.1195"/>
<polygon fill="midnightblue" stroke="midnightblue" points="551.098,-72.2215 542.933,-78.9727 553.526,-78.787 551.098,-72.2215"/>
</g>
<!-- Node8 -->
<g id="node8" class="node"><title>Node8</title>
<g id="a_node8"><a xlink:href="../../da/d3b/settingsroomba_8cpp.xhtml" target="_top" xlink:title="GUI/Gui&#45;RoombaV1.0\l/settingsroomba.cpp">
<polygon fill="white" stroke="black" points="770,-6 770,-36 880,-36 880,-6 770,-6"/>
<text text-anchor="start" x="778" y="-24" font-family="Helvetica,sans-Serif" font-size="10.00">GUI/Gui&#45;RoombaV1.0</text>
<text text-anchor="middle" x="825" y="-13" font-family="Helvetica,sans-Serif" font-size="10.00">/settingsroomba.cpp</text>
</a>
</g>
</g>
<!-- Node1&#45;&gt;Node8 -->
<g id="edge7" class="edge"><title>Node1&#45;&gt;Node8</title>
<path fill="none" stroke="midnightblue" d="M570.401,-81.9494C622.385,-72.6913 696.779,-58.3821 761,-42 767.881,-40.2448 775.116,-38.1905 782.146,-36.0793"/>
<polygon fill="midnightblue" stroke="midnightblue" points="569.55,-78.5454 560.312,-83.7328 570.769,-85.4385 569.55,-78.5454"/>
</g>
<!-- Node9 -->
<g id="node9" class="node"><title>Node9</title>
<g id="a_node9"><a xlink:href="../../d9/d13/roombagui-build-_desktop___qt__5__0__1___m_s_v_c2010__32bit-_debug_2debug_2moc__roomba_8cpp.xhtml" target="_top" xlink:title="GUI/roombagui&#45;build\l&#45;Desktop_Qt_5_0_1_MSVC2010\l_32bit&#45;Debug/debug/moc_roomba.cpp">
<polygon fill="white" stroke="black" points="898.5,-0.5 898.5,-41.5 1079.5,-41.5 1079.5,-0.5 898.5,-0.5"/>
<text text-anchor="start" x="906.5" y="-29.5" font-family="Helvetica,sans-Serif" font-size="10.00">GUI/roombagui&#45;build</text>
<text text-anchor="start" x="906.5" y="-18.5" font-family="Helvetica,sans-Serif" font-size="10.00">&#45;Desktop_Qt_5_0_1_MSVC2010</text>
<text text-anchor="middle" x="989" y="-7.5" font-family="Helvetica,sans-Serif" font-size="10.00">_32bit&#45;Debug/debug/moc_roomba.cpp</text>
</a>
</g>
</g>
<!-- Node1&#45;&gt;Node9 -->
<g id="edge8" class="edge"><title>Node1&#45;&gt;Node9</title>
<path fill="none" stroke="midnightblue" d="M570.149,-85.6631C646.692,-76.7389 777.414,-60.5482 889,-42 892.056,-41.4919 895.162,-40.9599 898.297,-40.4095"/>
<polygon fill="midnightblue" stroke="midnightblue" points="569.703,-82.1912 560.174,-86.8207 570.51,-89.1445 569.703,-82.1912"/>
</g>
</g>
</svg>
