<?xml version="1.0" encoding="UTF-8" standalone="no"?>
<!DOCTYPE svg PUBLIC "-//W3C//DTD SVG 1.1//EN"
 "http://www.w3.org/Graphics/SVG/1.1/DTD/svg11.dtd">
<!-- Generated by graphviz version 2.30.1 (20130214.1330)
 -->
<!-- Title: Hoofdprogramma/ourProgram/src/jsonProtocol.h Pages: 1 -->
<svg width="560pt" height="376pt"
 viewBox="0.00 0.00 560.00 376.00" xmlns="http://www.w3.org/2000/svg" xmlns:xlink="http://www.w3.org/1999/xlink">
<g id="graph0" class="graph" transform="scale(1 1) rotate(0) translate(4 372)">
<title>Hoofdprogramma/ourProgram/src/jsonProtocol.h</title>
<polygon fill="white" stroke="white" points="-4,5 -4,-372 557,-372 557,5 -4,5"/>
<!-- Node1 -->
<g id="node1" class="node"><title>Node1</title>
<polygon fill="#bfbfbf" stroke="black" points="41.5,-337 41.5,-367 184.5,-367 184.5,-337 41.5,-337"/>
<text text-anchor="start" x="49.5" y="-355" font-family="Helvetica,sans-Serif" font-size="10.00">Hoofdprogramma/ourProgram</text>
<text text-anchor="middle" x="113" y="-344" font-family="Helvetica,sans-Serif" font-size="10.00">/src/jsonProtocol.h</text>
</g>
<!-- Node2 -->
<g id="node2" class="node"><title>Node2</title>
<g id="a_node2"><a xlink:href="../../dd/d50/our_program_8h.xhtml" target="_top" xlink:title="RTSystem/ourProgram.h">
<polygon fill="white" stroke="black" points="0,-224.5 0,-243.5 124,-243.5 124,-224.5 0,-224.5"/>
<text text-anchor="middle" x="62" y="-231.5" font-family="Helvetica,sans-Serif" font-size="10.00">RTSystem/ourProgram.h</text>
</a>
</g>
</g>
<!-- Node1&#45;&gt;Node2 -->
<g id="edge1" class="edge"><title>Node1&#45;&gt;Node2</title>
<path fill="none" stroke="midnightblue" d="M106.746,-336.776C97.4739,-315.686 80.0841,-276.132 69.9294,-253.036"/>
<polygon fill="midnightblue" stroke="midnightblue" points="73.0569,-251.453 65.8281,-243.707 66.6489,-254.27 73.0569,-251.453"/>
</g>
<!-- Node5 -->
<g id="node5" class="node"><title>Node5</title>
<g id="a_node5"><a xlink:href="../../d8/d2e/json_command_8h.xhtml" target="_top" xlink:title="jsonCommand.h">
<polygon fill="white" stroke="black" points="113.5,-280.5 113.5,-299.5 200.5,-299.5 200.5,-280.5 113.5,-280.5"/>
<text text-anchor="middle" x="157" y="-287.5" font-family="Helvetica,sans-Serif" font-size="10.00">jsonCommand.h</text>
</a>
</g>
</g>
<!-- Node1&#45;&gt;Node5 -->
<g id="edge4" class="edge"><title>Node1&#45;&gt;Node5</title>
<path fill="none" stroke="midnightblue" d="M123.427,-336.781C129.755,-328.152 137.869,-317.088 144.534,-307.999"/>
<polygon fill="midnightblue" stroke="midnightblue" points="147.506,-309.864 150.598,-299.731 141.862,-305.725 147.506,-309.864"/>
</g>
<!-- Node3 -->
<g id="node3" class="node"><title>Node3</title>
<polygon fill="white" stroke="#bfbfbf" points="21,-168.5 21,-187.5 103,-187.5 103,-168.5 21,-168.5"/>
<text text-anchor="middle" x="62" y="-175.5" font-family="Helvetica,sans-Serif" font-size="10.00">RTStructures.h</text>
</g>
<!-- Node2&#45;&gt;Node3 -->
<g id="edge2" class="edge"><title>Node2&#45;&gt;Node3</title>
<path fill="none" stroke="midnightblue" d="M62,-224.083C62,-217.006 62,-206.861 62,-197.986"/>
<polygon fill="midnightblue" stroke="midnightblue" points="65.5001,-197.751 62,-187.751 58.5001,-197.751 65.5001,-197.751"/>
</g>
<!-- Node4 -->
<g id="node4" class="node"><title>Node4</title>
<polygon fill="white" stroke="#bfbfbf" points="159,-112.5 159,-131.5 213,-131.5 213,-112.5 159,-112.5"/>
<text text-anchor="middle" x="186" y="-119.5" font-family="Helvetica,sans-Serif" font-size="10.00">iostream</text>
</g>
<!-- Node2&#45;&gt;Node4 -->
<g id="edge3" class="edge"><title>Node2&#45;&gt;Node4</title>
<path fill="none" stroke="midnightblue" d="M46.9162,-224.365C27.0597,-211.901 -3.60204,-188.15 12,-168 28.5701,-146.599 102.591,-133.538 148.587,-127.341"/>
<polygon fill="midnightblue" stroke="midnightblue" points="149.319,-130.776 158.785,-126.018 148.418,-123.834 149.319,-130.776"/>
</g>
<!-- Node5&#45;&gt;Node2 -->
<g id="edge5" class="edge"><title>Node5&#45;&gt;Node2</title>
<path fill="none" stroke="midnightblue" d="M141.737,-280.324C126.779,-271.822 103.745,-258.729 86.2733,-248.797"/>
<polygon fill="midnightblue" stroke="midnightblue" points="87.6488,-245.553 77.2255,-243.655 84.1896,-251.639 87.6488,-245.553"/>
</g>
<!-- Node6 -->
<g id="node6" class="node"><title>Node6</title>
<g id="a_node6"><a xlink:href="../../d4/d05/json_8h.xhtml" target="_top" xlink:title="../../include/json.h">
<polygon fill="white" stroke="black" points="225.5,-224.5 225.5,-243.5 320.5,-243.5 320.5,-224.5 225.5,-224.5"/>
<text text-anchor="middle" x="273" y="-231.5" font-family="Helvetica,sans-Serif" font-size="10.00">../../include/json.h</text>
</a>
</g>
</g>
<!-- Node5&#45;&gt;Node6 -->
<g id="edge6" class="edge"><title>Node5&#45;&gt;Node6</title>
<path fill="none" stroke="midnightblue" d="M175.381,-280.444C194.216,-271.675 223.731,-257.935 245.379,-247.858"/>
<polygon fill="midnightblue" stroke="midnightblue" points="247.117,-250.91 254.705,-243.516 244.162,-244.564 247.117,-250.91"/>
</g>
<!-- Node19 -->
<g id="node19" class="node"><title>Node19</title>
<polygon fill="white" stroke="#bfbfbf" points="142,-224.5 142,-243.5 188,-243.5 188,-224.5 142,-224.5"/>
<text text-anchor="middle" x="165" y="-231.5" font-family="Helvetica,sans-Serif" font-size="10.00">stdio.h</text>
</g>
<!-- Node5&#45;&gt;Node19 -->
<g id="edge30" class="edge"><title>Node5&#45;&gt;Node19</title>
<path fill="none" stroke="midnightblue" d="M158.321,-280.083C159.381,-272.927 160.906,-262.635 162.231,-253.691"/>
<polygon fill="midnightblue" stroke="midnightblue" points="165.7,-254.156 163.704,-243.751 158.776,-253.13 165.7,-254.156"/>
</g>
<!-- Node7 -->
<g id="node7" class="node"><title>Node7</title>
<g id="a_node7"><a xlink:href="../../d3/dea/autolink_8h.xhtml" target="_top" xlink:title="autolink.h">
<polygon fill="white" stroke="black" points="121.5,-168.5 121.5,-187.5 180.5,-187.5 180.5,-168.5 121.5,-168.5"/>
<text text-anchor="middle" x="151" y="-175.5" font-family="Helvetica,sans-Serif" font-size="10.00">autolink.h</text>
</a>
</g>
</g>
<!-- Node6&#45;&gt;Node7 -->
<g id="edge7" class="edge"><title>Node6&#45;&gt;Node7</title>
<path fill="none" stroke="midnightblue" d="M253.669,-224.444C233.68,-215.596 202.257,-201.687 179.436,-191.586"/>
<polygon fill="midnightblue" stroke="midnightblue" points="180.802,-188.363 170.241,-187.516 177.968,-194.764 180.802,-188.363"/>
</g>
<!-- Node9 -->
<g id="node9" class="node"><title>Node9</title>
<g id="a_node9"><a xlink:href="../../d4/d3f/value_8h.xhtml" target="_top" xlink:title="value.h">
<polygon fill="white" stroke="black" points="269.5,-112.5 269.5,-131.5 316.5,-131.5 316.5,-112.5 269.5,-112.5"/>
<text text-anchor="middle" x="293" y="-119.5" font-family="Helvetica,sans-Serif" font-size="10.00">value.h</text>
</a>
</g>
</g>
<!-- Node6&#45;&gt;Node9 -->
<g id="edge10" class="edge"><title>Node6&#45;&gt;Node9</title>
<path fill="none" stroke="midnightblue" d="M274.569,-224.368C277.797,-206.617 285.242,-165.666 289.619,-141.597"/>
<polygon fill="midnightblue" stroke="midnightblue" points="293.093,-142.056 291.438,-131.591 286.205,-140.804 293.093,-142.056"/>
</g>
<!-- Node14 -->
<g id="node14" class="node"><title>Node14</title>
<g id="a_node14"><a xlink:href="../../d6/dda/reader_8h.xhtml" target="_top" xlink:title="reader.h">
<polygon fill="white" stroke="black" points="321,-168.5 321,-187.5 373,-187.5 373,-168.5 321,-168.5"/>
<text text-anchor="middle" x="347" y="-175.5" font-family="Helvetica,sans-Serif" font-size="10.00">reader.h</text>
</a>
</g>
</g>
<!-- Node6&#45;&gt;Node14 -->
<g id="edge16" class="edge"><title>Node6&#45;&gt;Node14</title>
<path fill="none" stroke="midnightblue" d="M284.889,-224.324C296.15,-216.107 313.287,-203.602 326.709,-193.807"/>
<polygon fill="midnightblue" stroke="midnightblue" points="328.88,-196.556 334.894,-187.834 324.753,-190.901 328.88,-196.556"/>
</g>
<!-- Node18 -->
<g id="node18" class="node"><title>Node18</title>
<g id="a_node18"><a xlink:href="../../d9/d53/writer_8h.xhtml" target="_top" xlink:title="writer.h">
<polygon fill="white" stroke="black" points="217,-168.5 217,-187.5 265,-187.5 265,-168.5 217,-168.5"/>
<text text-anchor="middle" x="241" y="-175.5" font-family="Helvetica,sans-Serif" font-size="10.00">writer.h</text>
</a>
</g>
</g>
<!-- Node6&#45;&gt;Node18 -->
<g id="edge24" class="edge"><title>Node6&#45;&gt;Node18</title>
<path fill="none" stroke="midnightblue" d="M267.716,-224.083C263.289,-216.613 256.837,-205.724 251.382,-196.52"/>
<polygon fill="midnightblue" stroke="midnightblue" points="254.295,-194.57 246.186,-187.751 248.273,-198.138 254.295,-194.57"/>
</g>
<!-- Node15 -->
<g id="node15" class="node"><title>Node15</title>
<g id="a_node15"><a xlink:href="../../de/d47/features_8h.xhtml" target="_top" xlink:title="features.h">
<polygon fill="white" stroke="black" points="493.5,-112.5 493.5,-131.5 552.5,-131.5 552.5,-112.5 493.5,-112.5"/>
<text text-anchor="middle" x="523" y="-119.5" font-family="Helvetica,sans-Serif" font-size="10.00">features.h</text>
</a>
</g>
</g>
<!-- Node6&#45;&gt;Node15 -->
<g id="edge29" class="edge"><title>Node6&#45;&gt;Node15</title>
<path fill="none" stroke="midnightblue" d="M294.412,-224.458C316.469,-215.589 351.793,-201.191 382,-188 421.775,-170.63 467.295,-149.397 495.598,-136.031"/>
<polygon fill="midnightblue" stroke="midnightblue" points="497.312,-139.092 504.854,-131.651 494.318,-132.765 497.312,-139.092"/>
</g>
<!-- Node8 -->
<g id="node8" class="node"><title>Node8</title>
<g id="a_node8"><a xlink:href="../../db/d16/config_8h.xhtml" target="_top" xlink:title="config.h">
<polygon fill="white" stroke="black" points="203,-0.5 203,-19.5 253,-19.5 253,-0.5 203,-0.5"/>
<text text-anchor="middle" x="228" y="-7.5" font-family="Helvetica,sans-Serif" font-size="10.00">config.h</text>
</a>
</g>
</g>
<!-- Node7&#45;&gt;Node8 -->
<g id="edge8" class="edge"><title>Node7&#45;&gt;Node8</title>
<path fill="none" stroke="midnightblue" d="M145.916,-168.273C134.359,-147.169 108.843,-92.4296 132,-56 145.383,-34.9458 171.504,-23.5717 193.124,-17.5293"/>
<polygon fill="midnightblue" stroke="midnightblue" points="194.148,-20.8808 202.989,-15.0423 192.437,-14.0932 194.148,-20.8808"/>
</g>
<!-- Node7&#45;&gt;Node7 -->
<g id="edge9" class="edge"><title>Node7&#45;&gt;Node7</title>
<path fill="none" stroke="midnightblue" d="M171.29,-187.575C184.825,-190.27 198,-187.078 198,-178 198,-171.262 190.743,-167.767 181.467,-167.515"/>
<polygon fill="midnightblue" stroke="midnightblue" points="180.938,-164.048 171.29,-168.425 181.562,-171.02 180.938,-164.048"/>
</g>
<!-- Node10 -->
<g id="node10" class="node"><title>Node10</title>
<g id="a_node10"><a xlink:href="../../d2/d84/forwards_8h.xhtml" target="_top" xlink:title="forwards.h">
<polygon fill="white" stroke="black" points="332.5,-56.5 332.5,-75.5 393.5,-75.5 393.5,-56.5 332.5,-56.5"/>
<text text-anchor="middle" x="363" y="-63.5" font-family="Helvetica,sans-Serif" font-size="10.00">forwards.h</text>
</a>
</g>
</g>
<!-- Node9&#45;&gt;Node10 -->
<g id="edge11" class="edge"><title>Node9&#45;&gt;Node10</title>
<path fill="none" stroke="midnightblue" d="M304.247,-112.324C314.797,-104.185 330.801,-91.8395 343.442,-82.0874"/>
<polygon fill="midnightblue" stroke="midnightblue" points="345.769,-84.7132 351.549,-75.8339 341.493,-79.1707 345.769,-84.7132"/>
</g>
<!-- Node11 -->
<g id="node11" class="node"><title>Node11</title>
<polygon fill="white" stroke="#bfbfbf" points="220.5,-56.5 220.5,-75.5 261.5,-75.5 261.5,-56.5 220.5,-56.5"/>
<text text-anchor="middle" x="241" y="-63.5" font-family="Helvetica,sans-Serif" font-size="10.00">string</text>
</g>
<!-- Node9&#45;&gt;Node11 -->
<g id="edge13" class="edge"><title>Node9&#45;&gt;Node11</title>
<path fill="none" stroke="midnightblue" d="M284.413,-112.083C276.841,-104.22 265.622,-92.5688 256.486,-83.0813"/>
<polygon fill="midnightblue" stroke="midnightblue" points="258.885,-80.5266 249.427,-75.7511 253.842,-85.3821 258.885,-80.5266"/>
</g>
<!-- Node12 -->
<g id="node12" class="node"><title>Node12</title>
<polygon fill="white" stroke="#bfbfbf" points="141,-56.5 141,-75.5 183,-75.5 183,-56.5 141,-56.5"/>
<text text-anchor="middle" x="162" y="-63.5" font-family="Helvetica,sans-Serif" font-size="10.00">vector</text>
</g>
<!-- Node9&#45;&gt;Node12 -->
<g id="edge14" class="edge"><title>Node9&#45;&gt;Node12</title>
<path fill="none" stroke="midnightblue" d="M272.243,-112.444C250.684,-103.557 216.737,-89.5632 192.206,-79.4514"/>
<polygon fill="midnightblue" stroke="midnightblue" points="193.239,-76.0917 182.66,-75.5164 190.572,-82.5634 193.239,-76.0917"/>
</g>
<!-- Node13 -->
<g id="node13" class="node"><title>Node13</title>
<polygon fill="white" stroke="#bfbfbf" points="279.5,-56.5 279.5,-75.5 314.5,-75.5 314.5,-56.5 279.5,-56.5"/>
<text text-anchor="middle" x="297" y="-63.5" font-family="Helvetica,sans-Serif" font-size="10.00">map</text>
</g>
<!-- Node9&#45;&gt;Node13 -->
<g id="edge15" class="edge"><title>Node9&#45;&gt;Node13</title>
<path fill="none" stroke="midnightblue" d="M293.661,-112.083C294.185,-105.006 294.936,-94.8611 295.594,-85.9865"/>
<polygon fill="midnightblue" stroke="midnightblue" points="299.103,-85.9823 296.352,-75.7511 292.123,-85.4652 299.103,-85.9823"/>
</g>
<!-- Node10&#45;&gt;Node8 -->
<g id="edge12" class="edge"><title>Node10&#45;&gt;Node8</title>
<path fill="none" stroke="midnightblue" d="M341.609,-56.4435C319.293,-47.5171 284.097,-33.4387 258.792,-23.3168"/>
<polygon fill="midnightblue" stroke="midnightblue" points="259.876,-19.9807 249.291,-19.5164 257.276,-26.4801 259.876,-19.9807"/>
</g>
<!-- Node14&#45;&gt;Node15 -->
<g id="edge17" class="edge"><title>Node14&#45;&gt;Node15</title>
<path fill="none" stroke="midnightblue" d="M373.349,-168.916C402.983,-159.823 451.363,-144.979 485.064,-134.64"/>
<polygon fill="midnightblue" stroke="midnightblue" points="486.481,-137.866 495.014,-131.587 484.427,-131.174 486.481,-137.866"/>
</g>
<!-- Node14&#45;&gt;Node9 -->
<g id="edge19" class="edge"><title>Node14&#45;&gt;Node9</title>
<path fill="none" stroke="midnightblue" d="M338.083,-168.083C330.22,-160.22 318.569,-148.569 309.081,-139.081"/>
<polygon fill="midnightblue" stroke="midnightblue" points="311.297,-136.347 301.751,-131.751 306.347,-141.297 311.297,-136.347"/>
</g>
<!-- Node16 -->
<g id="node16" class="node"><title>Node16</title>
<polygon fill="white" stroke="#bfbfbf" points="373.5,-112.5 373.5,-131.5 416.5,-131.5 416.5,-112.5 373.5,-112.5"/>
<text text-anchor="middle" x="395" y="-119.5" font-family="Helvetica,sans-Serif" font-size="10.00">deque</text>
</g>
<!-- Node14&#45;&gt;Node16 -->
<g id="edge20" class="edge"><title>Node14&#45;&gt;Node16</title>
<path fill="none" stroke="midnightblue" d="M354.926,-168.083C361.846,-160.298 372.065,-148.801 380.452,-139.367"/>
<polygon fill="midnightblue" stroke="midnightblue" points="383.194,-141.55 387.221,-131.751 377.962,-136.9 383.194,-141.55"/>
</g>
<!-- Node17 -->
<g id="node17" class="node"><title>Node17</title>
<polygon fill="white" stroke="#bfbfbf" points="434.5,-112.5 434.5,-131.5 475.5,-131.5 475.5,-112.5 434.5,-112.5"/>
<text text-anchor="middle" x="455" y="-119.5" font-family="Helvetica,sans-Serif" font-size="10.00">stack</text>
</g>
<!-- Node14&#45;&gt;Node17 -->
<g id="edge21" class="edge"><title>Node14&#45;&gt;Node17</title>
<path fill="none" stroke="midnightblue" d="M364.352,-168.324C381.672,-159.664 408.515,-146.242 428.502,-136.249"/>
<polygon fill="midnightblue" stroke="midnightblue" points="430.312,-139.257 437.691,-131.655 427.181,-132.996 430.312,-139.257"/>
</g>
<!-- Node14&#45;&gt;Node11 -->
<g id="edge22" class="edge"><title>Node14&#45;&gt;Node11</title>
<path fill="none" stroke="midnightblue" d="M346.12,-168.437C344.334,-154.989 339.167,-128.728 325,-112 310.927,-95.3822 289.119,-83.9566 271.251,-76.777"/>
<polygon fill="midnightblue" stroke="midnightblue" points="272.395,-73.4681 261.803,-73.2192 269.928,-80.019 272.395,-73.4681"/>
</g>
<!-- Node14&#45;&gt;Node4 -->
<g id="edge23" class="edge"><title>Node14&#45;&gt;Node4</title>
<path fill="none" stroke="midnightblue" d="M321.489,-168.444C294.404,-159.359 251.41,-144.939 221.131,-134.783"/>
<polygon fill="midnightblue" stroke="midnightblue" points="221.986,-131.378 211.392,-131.516 219.76,-138.015 221.986,-131.378"/>
</g>
<!-- Node15&#45;&gt;Node10 -->
<g id="edge18" class="edge"><title>Node15&#45;&gt;Node10</title>
<path fill="none" stroke="midnightblue" d="M497.648,-112.444C470.731,-103.359 428.004,-88.9388 397.913,-78.7831"/>
<polygon fill="midnightblue" stroke="midnightblue" points="398.828,-75.3981 388.234,-75.5164 396.59,-82.0305 398.828,-75.3981"/>
</g>
<!-- Node18&#45;&gt;Node9 -->
<g id="edge25" class="edge"><title>Node18&#45;&gt;Node9</title>
<path fill="none" stroke="midnightblue" d="M249.587,-168.083C257.159,-160.22 268.378,-148.569 277.514,-139.081"/>
<polygon fill="midnightblue" stroke="midnightblue" points="280.158,-141.382 284.573,-131.751 275.115,-136.527 280.158,-141.382"/>
</g>
<!-- Node18&#45;&gt;Node12 -->
<g id="edge26" class="edge"><title>Node18&#45;&gt;Node12</title>
<path fill="none" stroke="midnightblue" d="M217.144,-168.499C192.827,-159.292 157.625,-144.277 150,-132 141.219,-117.862 146.239,-98.8811 152.241,-85.0823"/>
<polygon fill="midnightblue" stroke="midnightblue" points="155.575,-86.2291 156.809,-75.7063 149.283,-83.1627 155.575,-86.2291"/>
</g>
<!-- Node18&#45;&gt;Node11 -->
<g id="edge27" class="edge"><title>Node18&#45;&gt;Node11</title>
<path fill="none" stroke="midnightblue" d="M241,-168.368C241,-150.617 241,-109.666 241,-85.5974"/>
<polygon fill="midnightblue" stroke="midnightblue" points="244.5,-85.5914 241,-75.5914 237.5,-85.5915 244.5,-85.5914"/>
</g>
<!-- Node18&#45;&gt;Node4 -->
<g id="edge28" class="edge"><title>Node18&#45;&gt;Node4</title>
<path fill="none" stroke="midnightblue" d="M231.918,-168.083C223.829,-160.141 211.805,-148.335 202.09,-138.797"/>
<polygon fill="midnightblue" stroke="midnightblue" points="204.501,-136.26 194.913,-131.751 199.597,-141.254 204.501,-136.26"/>
</g>
</g>
</svg>
