<?xml version="1.0" encoding="UTF-8" standalone="no"?>
<!DOCTYPE svg PUBLIC "-//W3C//DTD SVG 1.1//EN"
 "http://www.w3.org/Graphics/SVG/1.1/DTD/svg11.dtd">
<!-- Generated by graphviz version 2.30.1 (20130214.1330)
 -->
<!-- Title: GUI/Gui&#45;RoombaV1.0/RoombaConnect.h Pages: 1 -->
<!--zoomable 332 -->
<svg id="main" version="1.1" xmlns="http://www.w3.org/2000/svg" xmlns:xlink="http://www.w3.org/1999/xlink" xml:space="preserve" onload="init(evt)">
        <defs>
                <circle id="rim" cx="0" cy="0" r="7"/>
                <circle id="rim2" cx="0" cy="0" r="3.5"/>
                <g id="zoomPlus">
                        <use xlink:href="#rim" fill="#404040">
                                <set attributeName="fill" to="#808080" begin="zoomplus.mouseover" end="zoomplus.mouseout"/>
                        </use>
                        <path d="M-4,0h8M0,-4v8" fill="none" stroke="white" stroke-width="1.5" pointer-events="none"/>
                </g>
                <g id="zoomMin">
                        <use xlink:href="#rim" fill="#404040">
                                <set attributeName="fill" to="#808080" begin="zoomminus.mouseover" end="zoomminus.mouseout"/>
                        </use>
                        <path d="M-4,0h8" fill="none" stroke="white" stroke-width="1.5" pointer-events="none"/>
                </g>
                <g id="dirArrow">
                        <path fill="none" stroke="white" stroke-width="1.5" d="M0,-3.0v7 M-2.5,-0.5L0,-3.0L2.5,-0.5"/>
                </g>
               <g id="resetDef">
                       <use xlink:href="#rim2" fill="#404040">
                               <set attributeName="fill" to="#808080" begin="reset.mouseover" end="reset.mouseout"/>
                       </use>
               </g>
        </defs>

<script type="text/javascript">
var viewWidth = 1257;
var viewHeight = 332;
var sectionId = 'dynsection-0';
</script>
<script xlink:href="../../svgpan.js"/>
<svg id="graph" class="graph">
<g id="viewport">
<title>GUI/Gui&#45;RoombaV1.0/RoombaConnect.h</title>
<polygon fill="white" stroke="white" points="-4,5 -4,-328 1254.24,-328 1254.24,5 -4,5"/>
<!-- Node1 -->
<g id="node1" class="node"><title>Node1</title>
<polygon fill="#bfbfbf" stroke="black" points="853.241,-293 853.241,-323 963.241,-323 963.241,-293 853.241,-293"/>
<text text-anchor="start" x="861.241" y="-311" font-family="Helvetica,sans-Serif" font-size="10.00">GUI/Gui&#45;RoombaV1.0</text>
<text text-anchor="middle" x="908.241" y="-300" font-family="Helvetica,sans-Serif" font-size="10.00">/RoombaConnect.h</text>
</g>
<!-- Node2 -->
<g id="node2" class="node"><title>Node2</title>
<polygon fill="white" stroke="#bfbfbf" points="525.741,-56.5 525.741,-75.5 578.741,-75.5 578.741,-56.5 525.741,-56.5"/>
<text text-anchor="middle" x="552.241" y="-63.5" font-family="Helvetica,sans-Serif" font-size="10.00">QObject</text>
</g>
<!-- Node1&#45;&gt;Node2 -->
<g id="edge1" class="edge"><title>Node1&#45;&gt;Node2</title>
<path fill="none" stroke="midnightblue" d="M853.193,-307.376C694.811,-307.851 240.423,-304.806 101.241,-256 51.5582,-238.578 28.5393,-234.707 4.2414,-188 -44.6325,-94.0508 384.66,-72.4074 515.268,-68.0158"/>
<polygon fill="midnightblue" stroke="midnightblue" points="515.676,-71.5046 525.558,-67.6851 515.451,-64.5082 515.676,-71.5046"/>
</g>
<!-- Node3 -->
<g id="node3" class="node"><title>Node3</title>
<polygon fill="white" stroke="#bfbfbf" points="955.741,-230.5 955.741,-249.5 1026.74,-249.5 1026.74,-230.5 955.741,-230.5"/>
<text text-anchor="middle" x="991.241" y="-237.5" font-family="Helvetica,sans-Serif" font-size="10.00">QTcpSocket</text>
</g>
<!-- Node1&#45;&gt;Node3 -->
<g id="edge2" class="edge"><title>Node1&#45;&gt;Node3</title>
<path fill="none" stroke="midnightblue" d="M926.251,-292.679C939.833,-281.879 958.421,-267.098 972.239,-256.11"/>
<polygon fill="midnightblue" stroke="midnightblue" points="974.49,-258.792 980.139,-249.828 970.134,-253.313 974.49,-258.792"/>
</g>
<!-- Node4 -->
<g id="node4" class="node"><title>Node4</title>
<polygon fill="white" stroke="#bfbfbf" points="1045.24,-230.5 1045.24,-249.5 1119.24,-249.5 1119.24,-230.5 1045.24,-230.5"/>
<text text-anchor="middle" x="1082.24" y="-237.5" font-family="Helvetica,sans-Serif" font-size="10.00">QTextStream</text>
</g>
<!-- Node1&#45;&gt;Node4 -->
<g id="edge3" class="edge"><title>Node1&#45;&gt;Node4</title>
<path fill="none" stroke="midnightblue" d="M945.569,-292.841C976.7,-281.033 1020.59,-264.384 1050.16,-253.168"/>
<polygon fill="midnightblue" stroke="midnightblue" points="1051.49,-256.406 1059.6,-249.587 1049.01,-249.861 1051.49,-256.406"/>
</g>
<!-- Node5 -->
<g id="node5" class="node"><title>Node5</title>
<polygon fill="white" stroke="#bfbfbf" points="1137.74,-230.5 1137.74,-249.5 1182.74,-249.5 1182.74,-230.5 1137.74,-230.5"/>
<text text-anchor="middle" x="1160.24" y="-237.5" font-family="Helvetica,sans-Serif" font-size="10.00">QTime</text>
</g>
<!-- Node1&#45;&gt;Node5 -->
<g id="edge4" class="edge"><title>Node1&#45;&gt;Node5</title>
<path fill="none" stroke="midnightblue" d="M963.39,-297.557C1008.44,-289.053 1073.4,-274.971 1128.24,-256 1130.15,-255.338 1132.11,-254.597 1134.06,-253.81"/>
<polygon fill="midnightblue" stroke="midnightblue" points="1135.83,-256.851 1143.58,-249.62 1133.02,-250.443 1135.83,-256.851"/>
</g>
<!-- Node6 -->
<g id="node6" class="node"><title>Node6</title>
<g id="a_node6"><a xlink:href="../../d7/d62/clslog_8h.xhtml" target="_top" xlink:title="../resources/clslog.h">
<polygon fill="white" stroke="black" points="738.741,-56.5 738.741,-75.5 843.741,-75.5 843.741,-56.5 738.741,-56.5"/>
<text text-anchor="middle" x="791.241" y="-63.5" font-family="Helvetica,sans-Serif" font-size="10.00">../resources/clslog.h</text>
</a>
</g>
</g>
<!-- Node1&#45;&gt;Node6 -->
<g id="edge5" class="edge"><title>Node1&#45;&gt;Node6</title>
<path fill="none" stroke="midnightblue" d="M910.016,-292.738C911.195,-282.527 912.633,-268.44 913.241,-256 915.211,-215.733 913.246,-201.78 891.241,-168 868.531,-133.138 832.354,-100.383 810.303,-82.084"/>
<polygon fill="midnightblue" stroke="midnightblue" points="812.296,-79.1932 802.333,-75.5898 807.874,-84.6199 812.296,-79.1932"/>
</g>
<!-- Node12 -->
<g id="node12" class="node"><title>Node12</title>
<polygon fill="white" stroke="#bfbfbf" points="1201.24,-230.5 1201.24,-249.5 1249.24,-249.5 1249.24,-230.5 1201.24,-230.5"/>
<text text-anchor="middle" x="1225.24" y="-237.5" font-family="Helvetica,sans-Serif" font-size="10.00">QTimer</text>
</g>
<!-- Node1&#45;&gt;Node12 -->
<g id="edge11" class="edge"><title>Node1&#45;&gt;Node12</title>
<path fill="none" stroke="midnightblue" d="M963.407,-300.991C1021.12,-293.799 1113.9,-279.66 1191.24,-256 1193.67,-255.257 1196.16,-254.387 1198.63,-253.448"/>
<polygon fill="midnightblue" stroke="midnightblue" points="1200,-256.666 1207.9,-249.599 1197.32,-250.201 1200,-256.666"/>
</g>
<!-- Node13 -->
<g id="node13" class="node"><title>Node13</title>
<g id="a_node13"><a xlink:href="../../dc/d96/jsoncommand_8h.xhtml" target="_top" xlink:title="../resources/jsoncommand.h">
<polygon fill="white" stroke="black" points="721.241,-168.5 721.241,-187.5 861.241,-187.5 861.241,-168.5 721.241,-168.5"/>
<text text-anchor="middle" x="791.241" y="-175.5" font-family="Helvetica,sans-Serif" font-size="10.00">../resources/jsoncommand.h</text>
</a>
</g>
</g>
<!-- Node1&#45;&gt;Node13 -->
<g id="edge12" class="edge"><title>Node1&#45;&gt;Node13</title>
<path fill="none" stroke="midnightblue" d="M895.273,-292.813C873.357,-268.836 829.128,-220.449 806.036,-195.186"/>
<polygon fill="midnightblue" stroke="midnightblue" points="808.409,-192.594 799.078,-187.574 803.242,-197.316 808.409,-192.594"/>
</g>
<!-- Node15 -->
<g id="node15" class="node"><title>Node15</title>
<g id="a_node15"><a xlink:href="../../d4/d05/json_8h.xhtml" target="_top" xlink:title="json.h">
<polygon fill="white" stroke="black" points="719.741,-112.5 719.741,-131.5 762.741,-131.5 762.741,-112.5 719.741,-112.5"/>
<text text-anchor="middle" x="741.241" y="-119.5" font-family="Helvetica,sans-Serif" font-size="10.00">json.h</text>
</a>
</g>
</g>
<!-- Node1&#45;&gt;Node15 -->
<g id="edge19" class="edge"><title>Node1&#45;&gt;Node15</title>
<path fill="none" stroke="midnightblue" d="M908.462,-292.733C908.106,-265.01 903.36,-203.478 870.241,-168 844.871,-140.821 802.205,-130.055 772.936,-125.791"/>
<polygon fill="midnightblue" stroke="midnightblue" points="773.178,-122.294 762.815,-124.497 772.29,-129.237 773.178,-122.294"/>
</g>
<!-- Node18 -->
<g id="node18" class="node"><title>Node18</title>
<g id="a_node18"><a xlink:href="../../db/d97/clsevent_8h.xhtml" target="_top" xlink:title="../resources/clsevent.h">
<polygon fill="white" stroke="black" points="447.741,-112.5 447.741,-131.5 562.741,-131.5 562.741,-112.5 447.741,-112.5"/>
<text text-anchor="middle" x="505.241" y="-119.5" font-family="Helvetica,sans-Serif" font-size="10.00">../resources/clsevent.h</text>
</a>
</g>
</g>
<!-- Node1&#45;&gt;Node18 -->
<g id="edge20" class="edge"><title>Node1&#45;&gt;Node18</title>
<path fill="none" stroke="midnightblue" d="M853.006,-304.019C665.968,-293.346 65.1641,-254.116 12.2414,-188 6.68665,-181.06 6.24848,-174.565 12.2414,-168 40.3443,-137.215 308.964,-127.246 437.435,-124.223"/>
<polygon fill="midnightblue" stroke="midnightblue" points="437.639,-127.719 447.557,-123.992 437.48,-120.721 437.639,-127.719"/>
</g>
<!-- Node19 -->
<g id="node19" class="node"><title>Node19</title>
<g id="a_node19"><a xlink:href="../../db/dd2/events_8h.xhtml" target="_top" xlink:title="../resources/events\l/events.h">
<polygon fill="white" stroke="black" points="324.741,-225 324.741,-255 423.741,-255 423.741,-225 324.741,-225"/>
<text text-anchor="start" x="332.741" y="-243" font-family="Helvetica,sans-Serif" font-size="10.00">../resources/events</text>
<text text-anchor="middle" x="374.241" y="-232" font-family="Helvetica,sans-Serif" font-size="10.00">/events.h</text>
</a>
</g>
</g>
<!-- Node1&#45;&gt;Node19 -->
<g id="edge26" class="edge"><title>Node1&#45;&gt;Node19</title>
<path fill="none" stroke="midnightblue" d="M853.105,-300.185C752.142,-287.707 538.375,-261.286 434.044,-248.391"/>
<polygon fill="midnightblue" stroke="midnightblue" points="434.348,-244.902 423.994,-247.149 433.489,-251.849 434.348,-244.902"/>
</g>
<!-- Node7 -->
<g id="node7" class="node"><title>Node7</title>
<polygon fill="white" stroke="#bfbfbf" points="732.241,-0.5 732.241,-19.5 784.241,-19.5 784.241,-0.5 732.241,-0.5"/>
<text text-anchor="middle" x="758.241" y="-7.5" font-family="Helvetica,sans-Serif" font-size="10.00">QDebug</text>
</g>
<!-- Node6&#45;&gt;Node7 -->
<g id="edge6" class="edge"><title>Node6&#45;&gt;Node7</title>
<path fill="none" stroke="midnightblue" d="M785.792,-56.083C781.227,-48.6127 774.573,-37.7244 768.948,-28.5199"/>
<polygon fill="midnightblue" stroke="midnightblue" points="771.79,-26.4588 763.589,-19.7511 765.817,-30.109 771.79,-26.4588"/>
</g>
<!-- Node8 -->
<g id="node8" class="node"><title>Node8</title>
<polygon fill="white" stroke="#bfbfbf" points="531.741,-0.5 531.741,-19.5 596.741,-19.5 596.741,-0.5 531.741,-0.5"/>
<text text-anchor="middle" x="564.241" y="-7.5" font-family="Helvetica,sans-Serif" font-size="10.00">QDateTime</text>
</g>
<!-- Node6&#45;&gt;Node8 -->
<g id="edge7" class="edge"><title>Node6&#45;&gt;Node8</title>
<path fill="none" stroke="midnightblue" d="M755.273,-56.4435C714.996,-46.8624 649.769,-31.3458 606.939,-21.157"/>
<polygon fill="midnightblue" stroke="midnightblue" points="607.632,-17.7245 597.094,-18.8151 606.012,-24.5344 607.632,-17.7245"/>
</g>
<!-- Node9 -->
<g id="node9" class="node"><title>Node9</title>
<polygon fill="white" stroke="#bfbfbf" points="802.741,-0.5 802.741,-19.5 843.741,-19.5 843.741,-0.5 802.741,-0.5"/>
<text text-anchor="middle" x="823.241" y="-7.5" font-family="Helvetica,sans-Serif" font-size="10.00">string</text>
</g>
<!-- Node6&#45;&gt;Node9 -->
<g id="edge8" class="edge"><title>Node6&#45;&gt;Node9</title>
<path fill="none" stroke="midnightblue" d="M796.526,-56.083C800.952,-48.6127 807.405,-37.7244 812.859,-28.5199"/>
<polygon fill="midnightblue" stroke="midnightblue" points="815.969,-30.1383 818.056,-19.7511 809.946,-26.5697 815.969,-30.1383"/>
</g>
<!-- Node10 -->
<g id="node10" class="node"><title>Node10</title>
<polygon fill="white" stroke="#bfbfbf" points="862.241,-0.5 862.241,-19.5 916.241,-19.5 916.241,-0.5 862.241,-0.5"/>
<text text-anchor="middle" x="889.241" y="-7.5" font-family="Helvetica,sans-Serif" font-size="10.00">iostream</text>
</g>
<!-- Node6&#45;&gt;Node10 -->
<g id="edge9" class="edge"><title>Node6&#45;&gt;Node10</title>
<path fill="none" stroke="midnightblue" d="M806.987,-56.324C822.56,-47.7428 846.619,-34.486 864.701,-24.5224"/>
<polygon fill="midnightblue" stroke="midnightblue" points="866.466,-27.546 873.535,-19.6545 863.088,-21.4152 866.466,-27.546"/>
</g>
<!-- Node11 -->
<g id="node11" class="node"><title>Node11</title>
<polygon fill="white" stroke="#bfbfbf" points="648.741,-0.5 648.741,-19.5 713.741,-19.5 713.741,-0.5 648.741,-0.5"/>
<text text-anchor="middle" x="681.241" y="-7.5" font-family="Helvetica,sans-Serif" font-size="10.00">QStringList</text>
</g>
<!-- Node6&#45;&gt;Node11 -->
<g id="edge10" class="edge"><title>Node6&#45;&gt;Node11</title>
<path fill="none" stroke="midnightblue" d="M773.568,-56.324C755.847,-47.6247 728.338,-34.1202 707.953,-24.113"/>
<polygon fill="midnightblue" stroke="midnightblue" points="709.39,-20.9195 698.871,-19.6545 706.305,-27.2031 709.39,-20.9195"/>
</g>
<!-- Node13&#45;&gt;Node2 -->
<g id="edge13" class="edge"><title>Node13&#45;&gt;Node2</title>
<path fill="none" stroke="midnightblue" d="M775.509,-168.245C745.609,-151.63 682.622,-116.753 672.241,-112 644.503,-99.3005 612.056,-87.2961 587.899,-78.885"/>
<polygon fill="midnightblue" stroke="midnightblue" points="589.016,-75.5678 578.421,-75.6206 586.736,-82.1863 589.016,-75.5678"/>
</g>
<!-- Node14 -->
<g id="node14" class="node"><title>Node14</title>
<polygon fill="white" stroke="#bfbfbf" points="589.241,-112.5 589.241,-131.5 663.241,-131.5 663.241,-112.5 589.241,-112.5"/>
<text text-anchor="middle" x="626.241" y="-119.5" font-family="Helvetica,sans-Serif" font-size="10.00">QVariantMap</text>
</g>
<!-- Node13&#45;&gt;Node14 -->
<g id="edge14" class="edge"><title>Node13&#45;&gt;Node14</title>
<path fill="none" stroke="midnightblue" d="M765.097,-168.444C737.218,-159.32 692.893,-144.813 661.841,-134.651"/>
<polygon fill="midnightblue" stroke="midnightblue" points="662.856,-131.3 652.264,-131.516 660.679,-137.953 662.856,-131.3"/>
</g>
<!-- Node13&#45;&gt;Node15 -->
<g id="edge15" class="edge"><title>Node13&#45;&gt;Node15</title>
<path fill="none" stroke="midnightblue" d="M782.985,-168.083C775.777,-160.298 765.132,-148.801 756.396,-139.367"/>
<polygon fill="midnightblue" stroke="midnightblue" points="758.707,-136.711 749.344,-131.751 753.57,-141.467 758.707,-136.711"/>
</g>
<!-- Node13&#45;&gt;Node6 -->
<g id="edge18" class="edge"><title>Node13&#45;&gt;Node6</title>
<path fill="none" stroke="midnightblue" d="M791.241,-168.368C791.241,-150.617 791.241,-109.666 791.241,-85.5974"/>
<polygon fill="midnightblue" stroke="midnightblue" points="794.741,-85.5914 791.241,-75.5914 787.741,-85.5915 794.741,-85.5914"/>
</g>
<!-- Node16 -->
<g id="node16" class="node"><title>Node16</title>
<polygon fill="white" stroke="#bfbfbf" points="665.741,-56.5 665.741,-75.5 720.741,-75.5 720.741,-56.5 665.741,-56.5"/>
<text text-anchor="middle" x="693.241" y="-63.5" font-family="Helvetica,sans-Serif" font-size="10.00">QVariant</text>
</g>
<!-- Node15&#45;&gt;Node16 -->
<g id="edge16" class="edge"><title>Node15&#45;&gt;Node16</title>
<path fill="none" stroke="midnightblue" d="M733.315,-112.083C726.395,-104.298 716.176,-92.8015 707.789,-83.3665"/>
<polygon fill="midnightblue" stroke="midnightblue" points="710.28,-80.8999 701.02,-75.7511 705.048,-85.5505 710.28,-80.8999"/>
</g>
<!-- Node17 -->
<g id="node17" class="node"><title>Node17</title>
<polygon fill="white" stroke="#bfbfbf" points="597.241,-56.5 597.241,-75.5 647.241,-75.5 647.241,-56.5 597.241,-56.5"/>
<text text-anchor="middle" x="622.241" y="-63.5" font-family="Helvetica,sans-Serif" font-size="10.00">QString</text>
</g>
<!-- Node15&#45;&gt;Node17 -->
<g id="edge17" class="edge"><title>Node15&#45;&gt;Node17</title>
<path fill="none" stroke="midnightblue" d="M722.385,-112.444C702.975,-103.636 672.511,-89.8116 650.277,-79.722"/>
<polygon fill="midnightblue" stroke="midnightblue" points="651.562,-76.4615 641.009,-75.5164 648.669,-82.836 651.562,-76.4615"/>
</g>
<!-- Node18&#45;&gt;Node2 -->
<g id="edge21" class="edge"><title>Node18&#45;&gt;Node2</title>
<path fill="none" stroke="midnightblue" d="M513.002,-112.083C519.778,-104.298 529.785,-92.8015 537.996,-83.3665"/>
<polygon fill="midnightblue" stroke="midnightblue" points="540.7,-85.592 544.625,-75.7511 535.419,-80.9963 540.7,-85.592"/>
</g>
<!-- Node18&#45;&gt;Node17 -->
<g id="edge22" class="edge"><title>Node18&#45;&gt;Node17</title>
<path fill="none" stroke="midnightblue" d="M523.78,-112.444C542.864,-103.636 572.816,-89.8116 594.677,-79.722"/>
<polygon fill="midnightblue" stroke="midnightblue" points="596.176,-82.8849 603.789,-75.5164 593.243,-76.5292 596.176,-82.8849"/>
</g>
<!-- Node18&#45;&gt;Node16 -->
<g id="edge23" class="edge"><title>Node18&#45;&gt;Node16</title>
<path fill="none" stroke="midnightblue" d="M535.031,-112.444C567.73,-103.051 620.287,-87.9549 655.762,-77.7654"/>
<polygon fill="midnightblue" stroke="midnightblue" points="657.087,-81.0263 665.732,-74.9015 655.155,-74.2983 657.087,-81.0263"/>
</g>
<!-- Node18&#45;&gt;Node8 -->
<g id="edge24" class="edge"><title>Node18&#45;&gt;Node8</title>
<path fill="none" stroke="midnightblue" d="M504.998,-112.447C504.986,-99.4635 506.39,-74.3532 516.241,-56 522.593,-44.168 533.233,-33.7131 542.884,-25.8657"/>
<polygon fill="midnightblue" stroke="midnightblue" points="545.164,-28.5287 550.978,-19.6718 540.91,-22.9697 545.164,-28.5287"/>
</g>
<!-- Node18&#45;&gt;Node6 -->
<g id="edge25" class="edge"><title>Node18&#45;&gt;Node6</title>
<path fill="none" stroke="midnightblue" d="M550.559,-112.444C600.869,-102.944 682.079,-87.611 736.055,-77.4198"/>
<polygon fill="midnightblue" stroke="midnightblue" points="736.959,-80.8111 746.136,-75.5164 735.66,-73.9326 736.959,-80.8111"/>
</g>
<!-- Node20 -->
<g id="node20" class="node"><title>Node20</title>
<g id="a_node20"><a xlink:href="../../db/d70/eventchat_8h.xhtml" target="_top" xlink:title="eventchat.h">
<polygon fill="white" stroke="black" points="21.2414,-168.5 21.2414,-187.5 87.2414,-187.5 87.2414,-168.5 21.2414,-168.5"/>
<text text-anchor="middle" x="54.2414" y="-175.5" font-family="Helvetica,sans-Serif" font-size="10.00">eventchat.h</text>
</a>
</g>
</g>
<!-- Node19&#45;&gt;Node20 -->
<g id="edge27" class="edge"><title>Node19&#45;&gt;Node20</title>
<path fill="none" stroke="midnightblue" d="M324.693,-230.367C271.091,-220.926 182.864,-205.09 97.5431,-188.217"/>
<polygon fill="midnightblue" stroke="midnightblue" points="98.1836,-184.776 87.6935,-186.262 96.8206,-191.642 98.1836,-184.776"/>
</g>
<!-- Node21 -->
<g id="node21" class="node"><title>Node21</title>
<g id="a_node21"><a xlink:href="../../d5/d02/eventuserjoin_8h.xhtml" target="_top" xlink:title="eventuserjoin.h">
<polygon fill="white" stroke="black" points="105.741,-168.5 105.741,-187.5 186.741,-187.5 186.741,-168.5 105.741,-168.5"/>
<text text-anchor="middle" x="146.241" y="-175.5" font-family="Helvetica,sans-Serif" font-size="10.00">eventuserjoin.h</text>
</a>
</g>
</g>
<!-- Node19&#45;&gt;Node21 -->
<g id="edge29" class="edge"><title>Node19&#45;&gt;Node21</title>
<path fill="none" stroke="midnightblue" d="M324.488,-225.907C283.833,-215.208 226.993,-200.25 188.514,-190.124"/>
<polygon fill="midnightblue" stroke="midnightblue" points="189.225,-186.692 178.663,-187.532 187.443,-193.462 189.225,-186.692"/>
</g>
<!-- Node22 -->
<g id="node22" class="node"><title>Node22</title>
<g id="a_node22"><a xlink:href="../../d7/d56/eventuserleave_8h.xhtml" target="_top" xlink:title="eventuserleave.h">
<polygon fill="white" stroke="black" points="205.241,-168.5 205.241,-187.5 293.241,-187.5 293.241,-168.5 205.241,-168.5"/>
<text text-anchor="middle" x="249.241" y="-175.5" font-family="Helvetica,sans-Serif" font-size="10.00">eventuserleave.h</text>
</a>
</g>
</g>
<!-- Node19&#45;&gt;Node22 -->
<g id="edge31" class="edge"><title>Node19&#45;&gt;Node22</title>
<path fill="none" stroke="midnightblue" d="M344.934,-224.933C324.222,-214.991 296.658,-201.76 276.434,-192.053"/>
<polygon fill="midnightblue" stroke="midnightblue" points="277.688,-188.772 267.158,-187.6 274.659,-195.083 277.688,-188.772"/>
</g>
<!-- Node23 -->
<g id="node23" class="node"><title>Node23</title>
<g id="a_node23"><a xlink:href="../../db/db0/eventuserchangestatus_8h.xhtml" target="_top" xlink:title="eventuserchangestatus.h">
<polygon fill="white" stroke="black" points="311.741,-168.5 311.741,-187.5 436.741,-187.5 436.741,-168.5 311.741,-168.5"/>
<text text-anchor="middle" x="374.241" y="-175.5" font-family="Helvetica,sans-Serif" font-size="10.00">eventuserchangestatus.h</text>
</a>
</g>
</g>
<!-- Node19&#45;&gt;Node23 -->
<g id="edge33" class="edge"><title>Node19&#45;&gt;Node23</title>
<path fill="none" stroke="midnightblue" d="M374.241,-224.781C374.241,-216.781 374.241,-206.689 374.241,-198.017"/>
<polygon fill="midnightblue" stroke="midnightblue" points="377.741,-197.73 374.241,-187.731 370.741,-197.731 377.741,-197.73"/>
</g>
<!-- Node24 -->
<g id="node24" class="node"><title>Node24</title>
<g id="a_node24"><a xlink:href="../../d8/d44/eventuserchangenick_8h.xhtml" target="_top" xlink:title="eventuserchangenick.h">
<polygon fill="white" stroke="black" points="455.241,-168.5 455.241,-187.5 571.241,-187.5 571.241,-168.5 455.241,-168.5"/>
<text text-anchor="middle" x="513.241" y="-175.5" font-family="Helvetica,sans-Serif" font-size="10.00">eventuserchangenick.h</text>
</a>
</g>
</g>
<!-- Node19&#45;&gt;Node24 -->
<g id="edge35" class="edge"><title>Node19&#45;&gt;Node24</title>
<path fill="none" stroke="midnightblue" d="M406.831,-224.933C430.177,-214.855 461.351,-201.399 483.918,-191.657"/>
<polygon fill="midnightblue" stroke="midnightblue" points="485.524,-194.777 493.318,-187.6 482.75,-188.35 485.524,-194.777"/>
</g>
<!-- Node25 -->
<g id="node25" class="node"><title>Node25</title>
<g id="a_node25"><a xlink:href="../../da/d66/eventservermessage_8h.xhtml" target="_top" xlink:title="eventservermessage.h">
<polygon fill="white" stroke="black" points="589.741,-168.5 589.741,-187.5 702.741,-187.5 702.741,-168.5 589.741,-168.5"/>
<text text-anchor="middle" x="646.241" y="-175.5" font-family="Helvetica,sans-Serif" font-size="10.00">eventservermessage.h</text>
</a>
</g>
</g>
<!-- Node19&#45;&gt;Node25 -->
<g id="edge37" class="edge"><title>Node19&#45;&gt;Node25</title>
<path fill="none" stroke="midnightblue" d="M423.814,-228.065C473.168,-217.178 548.451,-200.571 597.508,-189.75"/>
<polygon fill="midnightblue" stroke="midnightblue" points="598.549,-193.105 607.56,-187.533 597.041,-186.269 598.549,-193.105"/>
</g>
<!-- Node20&#45;&gt;Node18 -->
<g id="edge28" class="edge"><title>Node20&#45;&gt;Node18</title>
<path fill="none" stroke="midnightblue" d="M87.6542,-169.52C90.5517,-168.969 93.444,-168.452 96.2414,-168 215.603,-148.696 355.922,-135.247 437.306,-128.349"/>
<polygon fill="midnightblue" stroke="midnightblue" points="437.747,-131.825 447.419,-127.5 437.161,-124.849 437.747,-131.825"/>
</g>
<!-- Node21&#45;&gt;Node18 -->
<g id="edge30" class="edge"><title>Node21&#45;&gt;Node18</title>
<path fill="none" stroke="midnightblue" d="M186.881,-169.567C190.046,-169.025 193.194,-168.496 196.241,-168 279.113,-154.511 374.81,-140.873 437.482,-132.203"/>
<polygon fill="midnightblue" stroke="midnightblue" points="438.206,-135.636 447.633,-130.802 437.249,-128.702 438.206,-135.636"/>
</g>
<!-- Node22&#45;&gt;Node18 -->
<g id="edge32" class="edge"><title>Node22&#45;&gt;Node18</title>
<path fill="none" stroke="midnightblue" d="M289.805,-168.444C334.558,-159.004 406.624,-143.802 454.937,-133.611"/>
<polygon fill="midnightblue" stroke="midnightblue" points="455.805,-137.005 464.867,-131.516 454.36,-130.156 455.805,-137.005"/>
</g>
<!-- Node23&#45;&gt;Node18 -->
<g id="edge34" class="edge"><title>Node23&#45;&gt;Node18</title>
<path fill="none" stroke="midnightblue" d="M394.999,-168.444C416.558,-159.557 450.505,-145.563 475.035,-135.451"/>
<polygon fill="midnightblue" stroke="midnightblue" points="476.67,-138.563 484.581,-131.516 474.002,-132.092 476.67,-138.563"/>
</g>
<!-- Node24&#45;&gt;Node18 -->
<g id="edge36" class="edge"><title>Node24&#45;&gt;Node18</title>
<path fill="none" stroke="midnightblue" d="M511.92,-168.083C510.86,-160.927 509.336,-150.635 508.01,-141.691"/>
<polygon fill="midnightblue" stroke="midnightblue" points="511.466,-141.13 506.538,-131.751 504.541,-142.156 511.466,-141.13"/>
</g>
<!-- Node25&#45;&gt;Node18 -->
<g id="edge38" class="edge"><title>Node25&#45;&gt;Node18</title>
<path fill="none" stroke="midnightblue" d="M623.9,-168.444C600.488,-159.478 563.506,-145.314 537.052,-135.183"/>
<polygon fill="midnightblue" stroke="midnightblue" points="538.069,-131.824 527.479,-131.516 535.566,-138.361 538.069,-131.824"/>
</g>
</g>
</svg>
        <g id="navigator" transform="translate(0 0)" fill="#404254">
                <rect fill="#f2f5e9" fill-opacity="0.5" stroke="#606060" stroke-width=".5" x="0" y="0" width="60" height="60"/>
                <use id="zoomplus" xlink:href="#zoomPlus" x="17" y="9" onmousedown="handleZoom(evt,'in')"/>
                <use id="zoomminus" xlink:href="#zoomMin" x="42" y="9" onmousedown="handleZoom(evt,'out')"/>
                <use id="reset" xlink:href="#resetDef" x="30" y="36" onmousedown="handleReset()"/>
                <g id="arrowUp" xlink:href="#dirArrow" transform="translate(30 24)" onmousedown="handlePan(0,-1)">
                  <use xlink:href="#rim" fill="#404040">
                        <set attributeName="fill" to="#808080" begin="arrowUp.mouseover" end="arrowUp.mouseout"/>
                  </use>
                  <path fill="none" stroke="white" stroke-width="1.5" d="M0,-3.0v7 M-2.5,-0.5L0,-3.0L2.5,-0.5"/>
                </g>
                <g id="arrowRight" xlink:href="#dirArrow" transform="rotate(90) translate(36 -43)" onmousedown="handlePan(1,0)">
                  <use xlink:href="#rim" fill="#404040">
                        <set attributeName="fill" to="#808080" begin="arrowRight.mouseover" end="arrowRight.mouseout"/>
                  </use>
                  <path fill="none" stroke="white" stroke-width="1.5" d="M0,-3.0v7 M-2.5,-0.5L0,-3.0L2.5,-0.5"/>
                </g>
                <g id="arrowDown" xlink:href="#dirArrow" transform="rotate(180) translate(-30 -48)" onmousedown="handlePan(0,1)">
                  <use xlink:href="#rim" fill="#404040">
                        <set attributeName="fill" to="#808080" begin="arrowDown.mouseover" end="arrowDown.mouseout"/>
                  </use>
                  <path fill="none" stroke="white" stroke-width="1.5" d="M0,-3.0v7 M-2.5,-0.5L0,-3.0L2.5,-0.5"/>
                </g>
                <g id="arrowLeft" xlink:href="#dirArrow" transform="rotate(270) translate(-36 17)" onmousedown="handlePan(-1,0)">
                  <use xlink:href="#rim" fill="#404040">
                        <set attributeName="fill" to="#808080" begin="arrowLeft.mouseover" end="arrowLeft.mouseout"/>
                  </use>
                  <path fill="none" stroke="white" stroke-width="1.5" d="M0,-3.0v7 M-2.5,-0.5L0,-3.0L2.5,-0.5"/>
                </g>
        </g>
        <svg viewBox="0 0 15 15" width="100%" height="30px" preserveAspectRatio="xMaxYMin meet">
         <g id="arrow_out" transform="scale(0.3 0.3)">
          <a xlink:href="_roomba_connect_8h__incl_org.svg" target="_base">
           <rect id="button" ry="5" rx="5" y="6" x="6" height="38" width="38"
                fill="#f2f5e9" fill-opacity="0.5" stroke="#606060" stroke-width="1.0"/>
           <path id="arrow"
             d="M 11.500037,31.436501 C 11.940474,20.09759 22.043105,11.32322 32.158766,21.979434 L 37.068811,17.246167 C 37.068811,17.246167 37.088388,32 37.088388,32 L 22.160133,31.978069 C 22.160133,31.978069 26.997745,27.140456 26.997745,27.140456 C 18.528582,18.264221 13.291696,25.230495 11.500037,31.436501 z"
             style="fill:#404040;"/>
          </a>
         </g>
        </svg>
</svg>
