<?xml version="1.0" encoding="UTF-8" standalone="no"?>
<!DOCTYPE svg PUBLIC "-//W3C//DTD SVG 1.1//EN"
 "http://www.w3.org/Graphics/SVG/1.1/DTD/svg11.dtd">
<!-- Generated by graphviz version 2.30.1 (20130214.1330)
 -->
<!-- Title: GUI/Gui&#45;RoombaV1.0/RoombaConnect.h Pages: 1 -->
<svg width="828pt" height="264pt"
 viewBox="0.00 0.00 828.00 264.00" xmlns="http://www.w3.org/2000/svg" xmlns:xlink="http://www.w3.org/1999/xlink">
<g id="graph0" class="graph" transform="scale(1 1) rotate(0) translate(4 260)">
<title>GUI/Gui&#45;RoombaV1.0/RoombaConnect.h</title>
<polygon fill="white" stroke="white" points="-4,5 -4,-260 825,-260 825,5 -4,5"/>
<!-- Node1 -->
<g id="node1" class="node"><title>Node1</title>
<polygon fill="#bfbfbf" stroke="black" points="345,-225 345,-255 455,-255 455,-225 345,-225"/>
<text text-anchor="start" x="353" y="-243" font-family="Helvetica,sans-Serif" font-size="10.00">GUI/Gui&#45;RoombaV1.0</text>
<text text-anchor="middle" x="400" y="-232" font-family="Helvetica,sans-Serif" font-size="10.00">/RoombaConnect.h</text>
</g>
<!-- Node2 -->
<g id="node2" class="node"><title>Node2</title>
<polygon fill="white" stroke="#bfbfbf" points="0,-0.5 0,-19.5 52,-19.5 52,-0.5 0,-0.5"/>
<text text-anchor="middle" x="26" y="-7.5" font-family="Helvetica,sans-Serif" font-size="10.00">QDebug</text>
</g>
<!-- Node1&#45;&gt;Node2 -->
<g id="edge1" class="edge"><title>Node1&#45;&gt;Node2</title>
<path fill="none" stroke="midnightblue" d="M344.922,-235.732C269.638,-230.246 139.736,-216.822 103,-188 51.8509,-147.87 34.0049,-66.9117 28.361,-30.0534"/>
<polygon fill="midnightblue" stroke="midnightblue" points="31.7718,-29.1678 26.9306,-19.7437 24.8382,-30.1299 31.7718,-29.1678"/>
</g>
<!-- Node3 -->
<g id="node3" class="node"><title>Node3</title>
<polygon fill="white" stroke="#bfbfbf" points="461.5,-168.5 461.5,-187.5 508.5,-187.5 508.5,-168.5 461.5,-168.5"/>
<text text-anchor="middle" x="485" y="-175.5" font-family="Helvetica,sans-Serif" font-size="10.00">QtCore</text>
</g>
<!-- Node1&#45;&gt;Node3 -->
<g id="edge2" class="edge"><title>Node1&#45;&gt;Node3</title>
<path fill="none" stroke="midnightblue" d="M420.144,-224.781C433.595,-215.286 451.222,-202.843 464.704,-193.327"/>
<polygon fill="midnightblue" stroke="midnightblue" points="466.728,-196.182 472.879,-187.556 462.691,-190.463 466.728,-196.182"/>
</g>
<!-- Node4 -->
<g id="node4" class="node"><title>Node4</title>
<polygon fill="white" stroke="#bfbfbf" points="243.5,-56.5 243.5,-75.5 296.5,-75.5 296.5,-56.5 243.5,-56.5"/>
<text text-anchor="middle" x="270" y="-63.5" font-family="Helvetica,sans-Serif" font-size="10.00">QObject</text>
</g>
<!-- Node1&#45;&gt;Node4 -->
<g id="edge3" class="edge"><title>Node1&#45;&gt;Node4</title>
<path fill="none" stroke="midnightblue" d="M344.729,-236.783C272.856,-232.606 153.253,-220.794 126,-188 105.137,-162.895 139.708,-128.64 159,-112 180.26,-93.6622 209.972,-82.1501 233.305,-75.3648"/>
<polygon fill="midnightblue" stroke="midnightblue" points="234.477,-78.673 243.197,-72.6562 232.628,-71.9215 234.477,-78.673"/>
</g>
<!-- Node5 -->
<g id="node5" class="node"><title>Node5</title>
<polygon fill="white" stroke="#bfbfbf" points="526.5,-168.5 526.5,-187.5 597.5,-187.5 597.5,-168.5 526.5,-168.5"/>
<text text-anchor="middle" x="562" y="-175.5" font-family="Helvetica,sans-Serif" font-size="10.00">QTcpSocket</text>
</g>
<!-- Node1&#45;&gt;Node5 -->
<g id="edge4" class="edge"><title>Node1&#45;&gt;Node5</title>
<path fill="none" stroke="midnightblue" d="M437.982,-224.933C465.679,-214.674 502.83,-200.915 529.23,-191.137"/>
<polygon fill="midnightblue" stroke="midnightblue" points="530.618,-194.355 538.78,-187.6 528.187,-187.791 530.618,-194.355"/>
</g>
<!-- Node6 -->
<g id="node6" class="node"><title>Node6</title>
<polygon fill="white" stroke="#bfbfbf" points="616,-168.5 616,-187.5 690,-187.5 690,-168.5 616,-168.5"/>
<text text-anchor="middle" x="653" y="-175.5" font-family="Helvetica,sans-Serif" font-size="10.00">QTextStream</text>
</g>
<!-- Node1&#45;&gt;Node6 -->
<g id="edge5" class="edge"><title>Node1&#45;&gt;Node6</title>
<path fill="none" stroke="midnightblue" d="M455.209,-225.907C500.706,-215.117 564.469,-199.995 607.178,-189.867"/>
<polygon fill="midnightblue" stroke="midnightblue" points="608.101,-193.245 617.023,-187.532 606.485,-186.434 608.101,-193.245"/>
</g>
<!-- Node7 -->
<g id="node7" class="node"><title>Node7</title>
<polygon fill="white" stroke="#bfbfbf" points="708.5,-168.5 708.5,-187.5 753.5,-187.5 753.5,-168.5 708.5,-168.5"/>
<text text-anchor="middle" x="731" y="-175.5" font-family="Helvetica,sans-Serif" font-size="10.00">QTime</text>
</g>
<!-- Node1&#45;&gt;Node7 -->
<g id="edge6" class="edge"><title>Node1&#45;&gt;Node7</title>
<path fill="none" stroke="midnightblue" d="M455.174,-231.367C513.315,-222.926 607.695,-208.096 698.446,-187.916"/>
<polygon fill="midnightblue" stroke="midnightblue" points="699.361,-191.297 708.35,-185.688 697.825,-184.468 699.361,-191.297"/>
</g>
<!-- Node8 -->
<g id="node8" class="node"><title>Node8</title>
<g id="a_node8"><a xlink:href="../../d7/d62/clslog_8h.xhtml" target="_top" xlink:title="../resources/clslog.h">
<polygon fill="white" stroke="black" points="95.5,-56.5 95.5,-75.5 200.5,-75.5 200.5,-56.5 95.5,-56.5"/>
<text text-anchor="middle" x="148" y="-63.5" font-family="Helvetica,sans-Serif" font-size="10.00">../resources/clslog.h</text>
</a>
</g>
</g>
<!-- Node1&#45;&gt;Node8 -->
<g id="edge7" class="edge"><title>Node1&#45;&gt;Node8</title>
<path fill="none" stroke="midnightblue" d="M344.938,-237.206C270.733,-233.496 144.604,-222.198 116,-188 90.671,-157.717 117.413,-109.471 135.073,-84.0132"/>
<polygon fill="midnightblue" stroke="midnightblue" points="138.032,-85.8947 141.055,-75.7404 132.359,-81.793 138.032,-85.8947"/>
</g>
<!-- Node13 -->
<g id="node13" class="node"><title>Node13</title>
<polygon fill="white" stroke="#bfbfbf" points="772,-168.5 772,-187.5 820,-187.5 820,-168.5 772,-168.5"/>
<text text-anchor="middle" x="796" y="-175.5" font-family="Helvetica,sans-Serif" font-size="10.00">QTimer</text>
</g>
<!-- Node1&#45;&gt;Node13 -->
<g id="edge13" class="edge"><title>Node1&#45;&gt;Node13</title>
<path fill="none" stroke="midnightblue" d="M455.234,-233.285C526.525,-225.437 654.22,-209.777 762,-188 762.101,-187.98 762.202,-187.959 762.303,-187.938"/>
<polygon fill="midnightblue" stroke="midnightblue" points="762.962,-191.378 771.937,-185.748 761.41,-184.552 762.962,-191.378"/>
</g>
<!-- Node14 -->
<g id="node14" class="node"><title>Node14</title>
<g id="a_node14"><a xlink:href="../../dc/d96/jsoncommand_8h.xhtml" target="_top" xlink:title="../resources/jsoncommand.h">
<polygon fill="white" stroke="black" points="135,-168.5 135,-187.5 275,-187.5 275,-168.5 135,-168.5"/>
<text text-anchor="middle" x="205" y="-175.5" font-family="Helvetica,sans-Serif" font-size="10.00">../resources/jsoncommand.h</text>
</a>
</g>
</g>
<!-- Node1&#45;&gt;Node14 -->
<g id="edge14" class="edge"><title>Node1&#45;&gt;Node14</title>
<path fill="none" stroke="midnightblue" d="M354.281,-224.933C320.253,-214.462 274.37,-200.345 242.491,-190.536"/>
<polygon fill="midnightblue" stroke="midnightblue" points="243.253,-187.108 232.666,-187.513 241.195,-193.799 243.253,-187.108"/>
</g>
<!-- Node16 -->
<g id="node16" class="node"><title>Node16</title>
<g id="a_node16"><a xlink:href="../../d4/d05/json_8h.xhtml" target="_top" xlink:title="json.h">
<polygon fill="white" stroke="black" points="431.5,-112.5 431.5,-131.5 474.5,-131.5 474.5,-112.5 431.5,-112.5"/>
<text text-anchor="middle" x="453" y="-119.5" font-family="Helvetica,sans-Serif" font-size="10.00">json.h</text>
</a>
</g>
</g>
<!-- Node1&#45;&gt;Node16 -->
<g id="edge21" class="edge"><title>Node1&#45;&gt;Node16</title>
<path fill="none" stroke="midnightblue" d="M406.499,-224.776C416.135,-203.686 434.207,-164.132 444.76,-141.036"/>
<polygon fill="midnightblue" stroke="midnightblue" points="448.049,-142.257 449.022,-131.707 441.683,-139.348 448.049,-142.257"/>
</g>
<!-- Node19 -->
<g id="node19" class="node"><title>Node19</title>
<g id="a_node19"><a xlink:href="../../db/d97/clsevent_8h.xhtml" target="_top" xlink:title="../resources/clsevent.h">
<polygon fill="white" stroke="black" points="298.5,-112.5 298.5,-131.5 413.5,-131.5 413.5,-112.5 298.5,-112.5"/>
<text text-anchor="middle" x="356" y="-119.5" font-family="Helvetica,sans-Serif" font-size="10.00">../resources/clsevent.h</text>
</a>
</g>
</g>
<!-- Node1&#45;&gt;Node19 -->
<g id="edge22" class="edge"><title>Node1&#45;&gt;Node19</title>
<path fill="none" stroke="midnightblue" d="M363.951,-224.947C348.073,-216.734 331.007,-204.65 322,-188 313.068,-171.488 325.695,-152.441 338.015,-139.252"/>
<polygon fill="midnightblue" stroke="midnightblue" points="340.818,-141.401 345.45,-131.873 335.887,-136.433 340.818,-141.401"/>
</g>
<!-- Node20 -->
<g id="node20" class="node"><title>Node20</title>
<g id="a_node20"><a xlink:href="../../d4/d25/sensordata_8h.xhtml" target="_top" xlink:title="sensordata.h">
<polygon fill="white" stroke="black" points="331.5,-168.5 331.5,-187.5 404.5,-187.5 404.5,-168.5 331.5,-168.5"/>
<text text-anchor="middle" x="368" y="-175.5" font-family="Helvetica,sans-Serif" font-size="10.00">sensordata.h</text>
</a>
</g>
</g>
<!-- Node1&#45;&gt;Node20 -->
<g id="edge28" class="edge"><title>Node1&#45;&gt;Node20</title>
<path fill="none" stroke="midnightblue" d="M392.416,-224.781C387.91,-216.332 382.159,-205.548 377.37,-196.569"/>
<polygon fill="midnightblue" stroke="midnightblue" points="380.45,-194.907 372.656,-187.731 374.274,-198.201 380.45,-194.907"/>
</g>
<!-- Node8&#45;&gt;Node2 -->
<g id="edge8" class="edge"><title>Node8&#45;&gt;Node2</title>
<path fill="none" stroke="midnightblue" d="M128.669,-56.4435C108.68,-47.5961 77.2569,-33.6875 54.4361,-23.5865"/>
<polygon fill="midnightblue" stroke="midnightblue" points="55.8018,-20.3635 45.2408,-19.5164 52.9685,-26.7645 55.8018,-20.3635"/>
</g>
<!-- Node9 -->
<g id="node9" class="node"><title>Node9</title>
<polygon fill="white" stroke="#bfbfbf" points="289.5,-0.5 289.5,-19.5 354.5,-19.5 354.5,-0.5 289.5,-0.5"/>
<text text-anchor="middle" x="322" y="-7.5" font-family="Helvetica,sans-Serif" font-size="10.00">QDateTime</text>
</g>
<!-- Node8&#45;&gt;Node9 -->
<g id="edge9" class="edge"><title>Node8&#45;&gt;Node9</title>
<path fill="none" stroke="midnightblue" d="M175.571,-56.4435C205.097,-47.2801 252.118,-32.6876 284.883,-22.5192"/>
<polygon fill="midnightblue" stroke="midnightblue" points="286.045,-25.8232 294.558,-19.5164 283.97,-19.1378 286.045,-25.8232"/>
</g>
<!-- Node10 -->
<g id="node10" class="node"><title>Node10</title>
<polygon fill="white" stroke="#bfbfbf" points="70.5,-0.5 70.5,-19.5 111.5,-19.5 111.5,-0.5 70.5,-0.5"/>
<text text-anchor="middle" x="91" y="-7.5" font-family="Helvetica,sans-Serif" font-size="10.00">string</text>
</g>
<!-- Node8&#45;&gt;Node10 -->
<g id="edge10" class="edge"><title>Node8&#45;&gt;Node10</title>
<path fill="none" stroke="midnightblue" d="M138.842,-56.324C130.499,-48.4196 117.968,-36.5482 107.823,-26.9377"/>
<polygon fill="midnightblue" stroke="midnightblue" points="109.991,-24.1705 100.325,-19.8339 105.177,-29.2522 109.991,-24.1705"/>
</g>
<!-- Node11 -->
<g id="node11" class="node"><title>Node11</title>
<polygon fill="white" stroke="#bfbfbf" points="130,-0.5 130,-19.5 184,-19.5 184,-0.5 130,-0.5"/>
<text text-anchor="middle" x="157" y="-7.5" font-family="Helvetica,sans-Serif" font-size="10.00">iostream</text>
</g>
<!-- Node8&#45;&gt;Node11 -->
<g id="edge11" class="edge"><title>Node8&#45;&gt;Node11</title>
<path fill="none" stroke="midnightblue" d="M149.486,-56.083C150.679,-48.9272 152.394,-38.6353 153.885,-29.6911"/>
<polygon fill="midnightblue" stroke="midnightblue" points="157.35,-30.1904 155.541,-19.7511 150.445,-29.0396 157.35,-30.1904"/>
</g>
<!-- Node12 -->
<g id="node12" class="node"><title>Node12</title>
<polygon fill="white" stroke="#bfbfbf" points="202.5,-0.5 202.5,-19.5 267.5,-19.5 267.5,-0.5 202.5,-0.5"/>
<text text-anchor="middle" x="235" y="-7.5" font-family="Helvetica,sans-Serif" font-size="10.00">QStringList</text>
</g>
<!-- Node8&#45;&gt;Node12 -->
<g id="edge12" class="edge"><title>Node8&#45;&gt;Node12</title>
<path fill="none" stroke="midnightblue" d="M161.978,-56.324C175.55,-47.9002 196.38,-34.9709 212.325,-25.0741"/>
<polygon fill="midnightblue" stroke="midnightblue" points="214.406,-27.9019 221.057,-19.6545 210.714,-21.9544 214.406,-27.9019"/>
</g>
<!-- Node14&#45;&gt;Node4 -->
<g id="edge15" class="edge"><title>Node14&#45;&gt;Node4</title>
<path fill="none" stroke="midnightblue" d="M216.873,-168.288C227.3,-160.041 242.149,-146.753 251,-132 259.6,-117.665 264.508,-99.202 267.173,-85.6187"/>
<polygon fill="midnightblue" stroke="midnightblue" points="270.658,-86.0047 268.915,-75.5542 263.76,-84.8108 270.658,-86.0047"/>
</g>
<!-- Node15 -->
<g id="node15" class="node"><title>Node15</title>
<polygon fill="white" stroke="#bfbfbf" points="168,-112.5 168,-131.5 242,-131.5 242,-112.5 168,-112.5"/>
<text text-anchor="middle" x="205" y="-119.5" font-family="Helvetica,sans-Serif" font-size="10.00">QVariantMap</text>
</g>
<!-- Node14&#45;&gt;Node15 -->
<g id="edge16" class="edge"><title>Node14&#45;&gt;Node15</title>
<path fill="none" stroke="midnightblue" d="M205,-168.083C205,-161.006 205,-150.861 205,-141.986"/>
<polygon fill="midnightblue" stroke="midnightblue" points="208.5,-141.751 205,-131.751 201.5,-141.751 208.5,-141.751"/>
</g>
<!-- Node14&#45;&gt;Node16 -->
<g id="edge17" class="edge"><title>Node14&#45;&gt;Node16</title>
<path fill="none" stroke="midnightblue" d="M251.378,-168.47C293.323,-160.512 356.971,-147.833 421.445,-131.978"/>
<polygon fill="midnightblue" stroke="midnightblue" points="422.516,-135.318 431.378,-129.511 420.829,-128.524 422.516,-135.318"/>
</g>
<!-- Node14&#45;&gt;Node8 -->
<g id="edge20" class="edge"><title>Node14&#45;&gt;Node8</title>
<path fill="none" stroke="midnightblue" d="M192.291,-168.204C181.613,-160.09 166.872,-147.047 159,-132 151.456,-117.581 148.899,-99.1269 148.116,-85.5686"/>
<polygon fill="midnightblue" stroke="midnightblue" points="151.613,-85.4141 147.805,-75.5271 144.616,-85.6306 151.613,-85.4141"/>
</g>
<!-- Node17 -->
<g id="node17" class="node"><title>Node17</title>
<polygon fill="white" stroke="#bfbfbf" points="425.5,-56.5 425.5,-75.5 480.5,-75.5 480.5,-56.5 425.5,-56.5"/>
<text text-anchor="middle" x="453" y="-63.5" font-family="Helvetica,sans-Serif" font-size="10.00">QVariant</text>
</g>
<!-- Node16&#45;&gt;Node17 -->
<g id="edge18" class="edge"><title>Node16&#45;&gt;Node17</title>
<path fill="none" stroke="midnightblue" d="M453,-112.083C453,-105.006 453,-94.8611 453,-85.9865"/>
<polygon fill="midnightblue" stroke="midnightblue" points="456.5,-85.751 453,-75.7511 449.5,-85.7511 456.5,-85.751"/>
</g>
<!-- Node18 -->
<g id="node18" class="node"><title>Node18</title>
<polygon fill="white" stroke="#bfbfbf" points="356,-56.5 356,-75.5 406,-75.5 406,-56.5 356,-56.5"/>
<text text-anchor="middle" x="381" y="-63.5" font-family="Helvetica,sans-Serif" font-size="10.00">QString</text>
</g>
<!-- Node16&#45;&gt;Node18 -->
<g id="edge19" class="edge"><title>Node16&#45;&gt;Node18</title>
<path fill="none" stroke="midnightblue" d="M441.432,-112.324C430.58,-104.185 414.119,-91.8395 401.117,-82.0874"/>
<polygon fill="midnightblue" stroke="midnightblue" points="402.879,-79.0339 392.779,-75.8339 398.679,-84.6339 402.879,-79.0339"/>
</g>
<!-- Node19&#45;&gt;Node4 -->
<g id="edge23" class="edge"><title>Node19&#45;&gt;Node4</title>
<path fill="none" stroke="midnightblue" d="M342.183,-112.324C328.767,-103.9 308.176,-90.9709 292.414,-81.0741"/>
<polygon fill="midnightblue" stroke="midnightblue" points="294.113,-78.0081 283.783,-75.6545 290.391,-83.9364 294.113,-78.0081"/>
</g>
<!-- Node19&#45;&gt;Node18 -->
<g id="edge24" class="edge"><title>Node19&#45;&gt;Node18</title>
<path fill="none" stroke="midnightblue" d="M360.128,-112.083C363.514,-104.77 368.416,-94.1814 372.619,-85.1034"/>
<polygon fill="midnightblue" stroke="midnightblue" points="375.923,-86.2962 376.949,-75.7511 369.571,-83.3553 375.923,-86.2962"/>
</g>
<!-- Node19&#45;&gt;Node17 -->
<g id="edge25" class="edge"><title>Node19&#45;&gt;Node17</title>
<path fill="none" stroke="midnightblue" d="M371.585,-112.324C386.999,-103.743 410.812,-90.486 428.71,-80.5224"/>
<polygon fill="midnightblue" stroke="midnightblue" points="430.419,-83.5767 437.454,-75.6545 427.014,-77.4606 430.419,-83.5767"/>
</g>
<!-- Node19&#45;&gt;Node9 -->
<g id="edge26" class="edge"><title>Node19&#45;&gt;Node9</title>
<path fill="none" stroke="midnightblue" d="M353.332,-112.368C347.82,-94.5366 335.073,-53.2953 327.648,-29.2717"/>
<polygon fill="midnightblue" stroke="midnightblue" points="330.953,-28.1119 324.656,-19.5914 324.265,-30.179 330.953,-28.1119"/>
</g>
<!-- Node19&#45;&gt;Node8 -->
<g id="edge27" class="edge"><title>Node19&#45;&gt;Node8</title>
<path fill="none" stroke="midnightblue" d="M323.042,-112.444C287.213,-103.142 229.837,-88.246 190.609,-78.062"/>
<polygon fill="midnightblue" stroke="midnightblue" points="191.363,-74.6417 180.804,-75.5164 189.604,-81.4171 191.363,-74.6417"/>
</g>
<!-- Node20&#45;&gt;Node19 -->
<g id="edge29" class="edge"><title>Node20&#45;&gt;Node19</title>
<path fill="none" stroke="midnightblue" d="M366.018,-168.083C364.428,-160.927 362.141,-150.635 360.154,-141.691"/>
<polygon fill="midnightblue" stroke="midnightblue" points="363.531,-140.754 357.945,-131.751 356.697,-142.272 363.531,-140.754"/>
</g>
<!-- Node20&#45;&gt;Node17 -->
<g id="edge30" class="edge"><title>Node20&#45;&gt;Node17</title>
<path fill="none" stroke="midnightblue" d="M404.504,-173.389C431.147,-168.627 465.535,-157.588 483,-132 493.444,-116.698 481.554,-97.178 469.798,-83.5402"/>
<polygon fill="midnightblue" stroke="midnightblue" points="472.068,-80.8415 462.697,-75.8992 466.941,-85.6069 472.068,-80.8415"/>
</g>
</g>
</svg>
