<?xml version="1.0" encoding="UTF-8" standalone="no"?>
<!DOCTYPE svg PUBLIC "-//W3C//DTD SVG 1.1//EN"
 "http://www.w3.org/Graphics/SVG/1.1/DTD/svg11.dtd">
<!-- Generated by graphviz version 2.30.1 (20130214.1330)
 -->
<!-- Title: GUI/Gui&#45;RoombaV1.0/RoombaConnect.h Pages: 1 -->
<!--zoomable 264 -->
<svg id="main" version="1.1" xmlns="http://www.w3.org/2000/svg" xmlns:xlink="http://www.w3.org/1999/xlink" xml:space="preserve" onload="init(evt)">
        <defs>
                <circle id="rim" cx="0" cy="0" r="7"/>
                <circle id="rim2" cx="0" cy="0" r="3.5"/>
                <g id="zoomPlus">
                        <use xlink:href="#rim" fill="#404040">
                                <set attributeName="fill" to="#808080" begin="zoomplus.mouseover" end="zoomplus.mouseout"/>
                        </use>
                        <path d="M-4,0h8M0,-4v8" fill="none" stroke="white" stroke-width="1.5" pointer-events="none"/>
                </g>
                <g id="zoomMin">
                        <use xlink:href="#rim" fill="#404040">
                                <set attributeName="fill" to="#808080" begin="zoomminus.mouseover" end="zoomminus.mouseout"/>
                        </use>
                        <path d="M-4,0h8" fill="none" stroke="white" stroke-width="1.5" pointer-events="none"/>
                </g>
                <g id="dirArrow">
                        <path fill="none" stroke="white" stroke-width="1.5" d="M0,-3.0v7 M-2.5,-0.5L0,-3.0L2.5,-0.5"/>
                </g>
               <g id="resetDef">
                       <use xlink:href="#rim2" fill="#404040">
                               <set attributeName="fill" to="#808080" begin="reset.mouseover" end="reset.mouseout"/>
                       </use>
               </g>
        </defs>

<script type="text/javascript">
var viewWidth = 1162;
var viewHeight = 264;
var sectionId = 'dynsection-0';
</script>
<script xlink:href="../../svgpan.js"/>
<svg id="graph" class="graph">
<g id="viewport">
<title>GUI/Gui&#45;RoombaV1.0/RoombaConnect.h</title>
<polygon fill="white" stroke="white" points="-4,5 -4,-260 1159,-260 1159,5 -4,5"/>
<!-- Node1 -->
<g id="node1" class="node"><title>Node1</title>
<polygon fill="#bfbfbf" stroke="black" points="461,-225 461,-255 571,-255 571,-225 461,-225"/>
<text text-anchor="start" x="469" y="-243" font-family="Helvetica,sans-Serif" font-size="10.00">GUI/Gui&#45;RoombaV1.0</text>
<text text-anchor="middle" x="516" y="-232" font-family="Helvetica,sans-Serif" font-size="10.00">/RoombaConnect.h</text>
</g>
<!-- Node2 -->
<g id="node2" class="node"><title>Node2</title>
<polygon fill="white" stroke="#bfbfbf" points="0,-0.5 0,-19.5 52,-19.5 52,-0.5 0,-0.5"/>
<text text-anchor="middle" x="26" y="-7.5" font-family="Helvetica,sans-Serif" font-size="10.00">QDebug</text>
</g>
<!-- Node1&#45;&gt;Node2 -->
<g id="edge1" class="edge"><title>Node1&#45;&gt;Node2</title>
<path fill="none" stroke="midnightblue" d="M460.848,-239.814C356.736,-240.209 136.605,-235.25 80,-188 32.1508,-148.059 25.8122,-67.0031 25.5483,-30.0866"/>
<polygon fill="midnightblue" stroke="midnightblue" points="29.0507,-29.7876 25.6312,-19.7598 22.0509,-29.7314 29.0507,-29.7876"/>
</g>
<!-- Node3 -->
<g id="node3" class="node"><title>Node3</title>
<polygon fill="white" stroke="#bfbfbf" points="795.5,-168.5 795.5,-187.5 842.5,-187.5 842.5,-168.5 795.5,-168.5"/>
<text text-anchor="middle" x="819" y="-175.5" font-family="Helvetica,sans-Serif" font-size="10.00">QtCore</text>
</g>
<!-- Node1&#45;&gt;Node3 -->
<g id="edge2" class="edge"><title>Node1&#45;&gt;Node3</title>
<path fill="none" stroke="midnightblue" d="M571.081,-229.918C623.695,-220.945 705.397,-206.236 785.505,-187.962"/>
<polygon fill="midnightblue" stroke="midnightblue" points="786.304,-191.37 795.264,-185.716 784.734,-184.548 786.304,-191.37"/>
</g>
<!-- Node4 -->
<g id="node4" class="node"><title>Node4</title>
<polygon fill="white" stroke="#bfbfbf" points="243.5,-56.5 243.5,-75.5 296.5,-75.5 296.5,-56.5 243.5,-56.5"/>
<text text-anchor="middle" x="270" y="-63.5" font-family="Helvetica,sans-Serif" font-size="10.00">QObject</text>
</g>
<!-- Node1&#45;&gt;Node4 -->
<g id="edge3" class="edge"><title>Node1&#45;&gt;Node4</title>
<path fill="none" stroke="midnightblue" d="M460.898,-231.817C423.627,-224.999 374.545,-212.058 337,-188 309.4,-170.314 304.615,-160.822 289,-132 281.124,-117.463 276.168,-99.2833 273.3,-85.8492"/>
<polygon fill="midnightblue" stroke="midnightblue" points="276.704,-85.0159 271.364,-75.865 269.832,-86.3484 276.704,-85.0159"/>
</g>
<!-- Node5 -->
<g id="node5" class="node"><title>Node5</title>
<polygon fill="white" stroke="#bfbfbf" points="860.5,-168.5 860.5,-187.5 931.5,-187.5 931.5,-168.5 860.5,-168.5"/>
<text text-anchor="middle" x="896" y="-175.5" font-family="Helvetica,sans-Serif" font-size="10.00">QTcpSocket</text>
</g>
<!-- Node1&#45;&gt;Node5 -->
<g id="edge4" class="edge"><title>Node1&#45;&gt;Node5</title>
<path fill="none" stroke="midnightblue" d="M571.258,-231.388C635.695,-222.332 745.652,-206.326 850.08,-188.093"/>
<polygon fill="midnightblue" stroke="midnightblue" points="850.923,-191.499 860.167,-186.322 849.712,-184.605 850.923,-191.499"/>
</g>
<!-- Node6 -->
<g id="node6" class="node"><title>Node6</title>
<polygon fill="white" stroke="#bfbfbf" points="950,-168.5 950,-187.5 1024,-187.5 1024,-168.5 950,-168.5"/>
<text text-anchor="middle" x="987" y="-175.5" font-family="Helvetica,sans-Serif" font-size="10.00">QTextStream</text>
</g>
<!-- Node1&#45;&gt;Node6 -->
<g id="edge5" class="edge"><title>Node1&#45;&gt;Node6</title>
<path fill="none" stroke="midnightblue" d="M571.053,-233.613C650.186,-225.596 800.86,-209.317 939.855,-187.912"/>
<polygon fill="midnightblue" stroke="midnightblue" points="940.496,-191.355 949.841,-186.363 939.423,-184.438 940.496,-191.355"/>
</g>
<!-- Node7 -->
<g id="node7" class="node"><title>Node7</title>
<polygon fill="white" stroke="#bfbfbf" points="1042.5,-168.5 1042.5,-187.5 1087.5,-187.5 1087.5,-168.5 1042.5,-168.5"/>
<text text-anchor="middle" x="1065" y="-175.5" font-family="Helvetica,sans-Serif" font-size="10.00">QTime</text>
</g>
<!-- Node1&#45;&gt;Node7 -->
<g id="edge6" class="edge"><title>Node1&#45;&gt;Node7</title>
<path fill="none" stroke="midnightblue" d="M571.163,-236.744C664.381,-232.238 858.998,-219.841 1032.32,-187.779"/>
<polygon fill="midnightblue" stroke="midnightblue" points="1033.21,-191.174 1042.39,-185.89 1031.92,-184.294 1033.21,-191.174"/>
</g>
<!-- Node8 -->
<g id="node8" class="node"><title>Node8</title>
<g id="a_node8"><a xlink:href="../../d7/d62/clslog_8h.xhtml" target="_top" xlink:title="../resources/clslog.h">
<polygon fill="white" stroke="black" points="79.5,-56.5 79.5,-75.5 184.5,-75.5 184.5,-56.5 79.5,-56.5"/>
<text text-anchor="middle" x="132" y="-63.5" font-family="Helvetica,sans-Serif" font-size="10.00">../resources/clslog.h</text>
</a>
</g>
</g>
<!-- Node1&#45;&gt;Node8 -->
<g id="edge7" class="edge"><title>Node1&#45;&gt;Node8</title>
<path fill="none" stroke="midnightblue" d="M460.729,-236.356C351.627,-230.568 117.016,-215.085 93,-188 66.2791,-157.864 97.47,-109.208 117.588,-83.7487"/>
<polygon fill="midnightblue" stroke="midnightblue" points="120.49,-85.7295 124.129,-75.7791 115.079,-81.2885 120.49,-85.7295"/>
</g>
<!-- Node13 -->
<g id="node13" class="node"><title>Node13</title>
<polygon fill="white" stroke="#bfbfbf" points="1106,-168.5 1106,-187.5 1154,-187.5 1154,-168.5 1106,-168.5"/>
<text text-anchor="middle" x="1130" y="-175.5" font-family="Helvetica,sans-Serif" font-size="10.00">QTimer</text>
</g>
<!-- Node1&#45;&gt;Node13 -->
<g id="edge13" class="edge"><title>Node1&#45;&gt;Node13</title>
<path fill="none" stroke="midnightblue" d="M571.184,-237.289C674.763,-233.383 905.075,-221.41 1096,-188 1096.1,-187.982 1096.2,-187.964 1096.3,-187.946"/>
<polygon fill="midnightblue" stroke="midnightblue" points="1096.91,-191.397 1105.97,-185.906 1095.46,-184.548 1096.91,-191.397"/>
</g>
<!-- Node14 -->
<g id="node14" class="node"><title>Node14</title>
<g id="a_node14"><a xlink:href="../../dc/d96/jsoncommand_8h.xhtml" target="_top" xlink:title="../resources/jsoncommand.h">
<polygon fill="white" stroke="black" points="102,-168.5 102,-187.5 242,-187.5 242,-168.5 102,-168.5"/>
<text text-anchor="middle" x="172" y="-175.5" font-family="Helvetica,sans-Serif" font-size="10.00">../resources/jsoncommand.h</text>
</a>
</g>
</g>
<!-- Node1&#45;&gt;Node14 -->
<g id="edge14" class="edge"><title>Node1&#45;&gt;Node14</title>
<path fill="none" stroke="midnightblue" d="M460.73,-229.36C397.813,-218.386 295.439,-200.53 231.007,-189.292"/>
<polygon fill="midnightblue" stroke="midnightblue" points="231.457,-185.818 221.004,-187.547 230.254,-192.714 231.457,-185.818"/>
</g>
<!-- Node16 -->
<g id="node16" class="node"><title>Node16</title>
<g id="a_node16"><a xlink:href="../../d4/d05/json_8h.xhtml" target="_top" xlink:title="json.h">
<polygon fill="white" stroke="black" points="298.5,-112.5 298.5,-131.5 341.5,-131.5 341.5,-112.5 298.5,-112.5"/>
<text text-anchor="middle" x="320" y="-119.5" font-family="Helvetica,sans-Serif" font-size="10.00">json.h</text>
</a>
</g>
</g>
<!-- Node1&#45;&gt;Node16 -->
<g id="edge21" class="edge"><title>Node1&#45;&gt;Node16</title>
<path fill="none" stroke="midnightblue" d="M460.828,-231.315C428.115,-224.455 387.432,-211.655 358,-188 342.75,-175.744 332.343,-155.6 326.328,-140.982"/>
<polygon fill="midnightblue" stroke="midnightblue" points="329.549,-139.605 322.719,-131.506 323.008,-142.096 329.549,-139.605"/>
</g>
<!-- Node19 -->
<g id="node19" class="node"><title>Node19</title>
<g id="a_node19"><a xlink:href="../../db/d97/clsevent_8h.xhtml" target="_top" xlink:title="../resources/clsevent.h">
<polygon fill="white" stroke="black" points="359.5,-112.5 359.5,-131.5 474.5,-131.5 474.5,-112.5 359.5,-112.5"/>
<text text-anchor="middle" x="417" y="-119.5" font-family="Helvetica,sans-Serif" font-size="10.00">../resources/clsevent.h</text>
</a>
</g>
</g>
<!-- Node1&#45;&gt;Node19 -->
<g id="edge22" class="edge"><title>Node1&#45;&gt;Node19</title>
<path fill="none" stroke="midnightblue" d="M460.911,-235.872C427.28,-230.777 386.701,-218.235 365,-188 351.993,-169.878 373.577,-149.978 392.767,-137.032"/>
<polygon fill="midnightblue" stroke="midnightblue" points="394.73,-139.931 401.282,-131.605 390.968,-134.028 394.73,-139.931"/>
</g>
<!-- Node20 -->
<g id="node20" class="node"><title>Node20</title>
<g id="a_node20"><a xlink:href="../../d4/d25/sensordata_8h.xhtml" target="_top" xlink:title="sensordata.h">
<polygon fill="white" stroke="black" points="374.5,-168.5 374.5,-187.5 447.5,-187.5 447.5,-168.5 374.5,-168.5"/>
<text text-anchor="middle" x="411" y="-175.5" font-family="Helvetica,sans-Serif" font-size="10.00">sensordata.h</text>
</a>
</g>
</g>
<!-- Node1&#45;&gt;Node20 -->
<g id="edge28" class="edge"><title>Node1&#45;&gt;Node20</title>
<path fill="none" stroke="midnightblue" d="M491.382,-224.933C474.3,-215.171 451.67,-202.24 434.775,-192.586"/>
<polygon fill="midnightblue" stroke="midnightblue" points="436.469,-189.523 426.05,-187.6 432.996,-195.6 436.469,-189.523"/>
</g>
<!-- Node21 -->
<g id="node21" class="node"><title>Node21</title>
<g id="a_node21"><a xlink:href="../../d1/da1/brushvacuumdata_8h.xhtml" target="_top" xlink:title="brushvacuumdata.h">
<polygon fill="white" stroke="black" points="465.5,-168.5 465.5,-187.5 566.5,-187.5 566.5,-168.5 465.5,-168.5"/>
<text text-anchor="middle" x="516" y="-175.5" font-family="Helvetica,sans-Serif" font-size="10.00">brushvacuumdata.h</text>
</a>
</g>
</g>
<!-- Node1&#45;&gt;Node21 -->
<g id="edge31" class="edge"><title>Node1&#45;&gt;Node21</title>
<path fill="none" stroke="midnightblue" d="M516,-224.781C516,-216.781 516,-206.689 516,-198.017"/>
<polygon fill="midnightblue" stroke="midnightblue" points="519.5,-197.73 516,-187.731 512.5,-197.731 519.5,-197.73"/>
</g>
<!-- Node22 -->
<g id="node22" class="node"><title>Node22</title>
<g id="a_node22"><a xlink:href="../../de/d51/currentactiondata_8h.xhtml" target="_top" xlink:title="currentactiondata.h">
<polygon fill="white" stroke="black" points="585,-168.5 585,-187.5 685,-187.5 685,-168.5 585,-168.5"/>
<text text-anchor="middle" x="635" y="-175.5" font-family="Helvetica,sans-Serif" font-size="10.00">currentactiondata.h</text>
</a>
</g>
</g>
<!-- Node1&#45;&gt;Node22 -->
<g id="edge34" class="edge"><title>Node1&#45;&gt;Node22</title>
<path fill="none" stroke="midnightblue" d="M543.9,-224.933C563.529,-215.036 589.621,-201.88 608.849,-192.185"/>
<polygon fill="midnightblue" stroke="midnightblue" points="610.59,-195.227 617.943,-187.6 607.438,-188.977 610.59,-195.227"/>
</g>
<!-- Node23 -->
<g id="node23" class="node"><title>Node23</title>
<g id="a_node23"><a xlink:href="../../da/d69/loggingdata_8h.xhtml" target="_top" xlink:title="loggingdata.h">
<polygon fill="white" stroke="black" points="703,-168.5 703,-187.5 777,-187.5 777,-168.5 703,-168.5"/>
<text text-anchor="middle" x="740" y="-175.5" font-family="Helvetica,sans-Serif" font-size="10.00">loggingdata.h</text>
</a>
</g>
</g>
<!-- Node1&#45;&gt;Node23 -->
<g id="edge37" class="edge"><title>Node1&#45;&gt;Node23</title>
<path fill="none" stroke="midnightblue" d="M568.518,-224.933C608.115,-214.326 661.685,-199.977 698.351,-190.156"/>
<polygon fill="midnightblue" stroke="midnightblue" points="699.465,-193.481 708.219,-187.513 697.654,-186.719 699.465,-193.481"/>
</g>
<!-- Node8&#45;&gt;Node2 -->
<g id="edge8" class="edge"><title>Node8&#45;&gt;Node2</title>
<path fill="none" stroke="midnightblue" d="M114.969,-56.324C97.9702,-47.6641 71.6239,-34.2424 52.0074,-24.249"/>
<polygon fill="midnightblue" stroke="midnightblue" points="53.4876,-21.0752 42.9885,-19.6545 50.3101,-27.3125 53.4876,-21.0752"/>
</g>
<!-- Node9 -->
<g id="node9" class="node"><title>Node9</title>
<polygon fill="white" stroke="#bfbfbf" points="328.5,-0.5 328.5,-19.5 393.5,-19.5 393.5,-0.5 328.5,-0.5"/>
<text text-anchor="middle" x="361" y="-7.5" font-family="Helvetica,sans-Serif" font-size="10.00">QDateTime</text>
</g>
<!-- Node8&#45;&gt;Node9 -->
<g id="edge9" class="edge"><title>Node8&#45;&gt;Node9</title>
<path fill="none" stroke="midnightblue" d="M168.286,-56.4435C209.034,-46.8348 275.097,-31.2566 318.299,-21.0693"/>
<polygon fill="midnightblue" stroke="midnightblue" points="319.293,-24.4308 328.223,-18.729 317.687,-17.6177 319.293,-24.4308"/>
</g>
<!-- Node10 -->
<g id="node10" class="node"><title>Node10</title>
<polygon fill="white" stroke="#bfbfbf" points="70.5,-0.5 70.5,-19.5 111.5,-19.5 111.5,-0.5 70.5,-0.5"/>
<text text-anchor="middle" x="91" y="-7.5" font-family="Helvetica,sans-Serif" font-size="10.00">string</text>
</g>
<!-- Node8&#45;&gt;Node10 -->
<g id="edge10" class="edge"><title>Node8&#45;&gt;Node10</title>
<path fill="none" stroke="midnightblue" d="M125.23,-56.083C119.438,-48.4554 110.942,-37.2645 103.862,-27.9408"/>
<polygon fill="midnightblue" stroke="midnightblue" points="106.479,-25.5991 97.6443,-19.7511 100.904,-29.8321 106.479,-25.5991"/>
</g>
<!-- Node11 -->
<g id="node11" class="node"><title>Node11</title>
<polygon fill="white" stroke="#bfbfbf" points="130,-0.5 130,-19.5 184,-19.5 184,-0.5 130,-0.5"/>
<text text-anchor="middle" x="157" y="-7.5" font-family="Helvetica,sans-Serif" font-size="10.00">iostream</text>
</g>
<!-- Node8&#45;&gt;Node11 -->
<g id="edge11" class="edge"><title>Node8&#45;&gt;Node11</title>
<path fill="none" stroke="midnightblue" d="M136.128,-56.083C139.514,-48.77 144.416,-38.1814 148.619,-29.1034"/>
<polygon fill="midnightblue" stroke="midnightblue" points="151.923,-30.2962 152.949,-19.7511 145.571,-27.3553 151.923,-30.2962"/>
</g>
<!-- Node12 -->
<g id="node12" class="node"><title>Node12</title>
<polygon fill="white" stroke="#bfbfbf" points="202.5,-0.5 202.5,-19.5 267.5,-19.5 267.5,-0.5 202.5,-0.5"/>
<text text-anchor="middle" x="235" y="-7.5" font-family="Helvetica,sans-Serif" font-size="10.00">QStringList</text>
</g>
<!-- Node8&#45;&gt;Node12 -->
<g id="edge12" class="edge"><title>Node8&#45;&gt;Node12</title>
<path fill="none" stroke="midnightblue" d="M148.549,-56.324C164.992,-47.7034 190.435,-34.3643 209.468,-24.3855"/>
<polygon fill="midnightblue" stroke="midnightblue" points="211.261,-27.3977 218.492,-19.6545 208.011,-21.198 211.261,-27.3977"/>
</g>
<!-- Node14&#45;&gt;Node4 -->
<g id="edge15" class="edge"><title>Node14&#45;&gt;Node4</title>
<path fill="none" stroke="midnightblue" d="M179.909,-168.417C188.202,-159.395 201.59,-144.765 213,-132 227.605,-115.661 244.093,-96.8141 255.565,-83.6361"/>
<polygon fill="midnightblue" stroke="midnightblue" points="258.389,-85.7216 262.309,-75.8782 253.106,-81.1292 258.389,-85.7216"/>
</g>
<!-- Node15 -->
<g id="node15" class="node"><title>Node15</title>
<polygon fill="white" stroke="#bfbfbf" points="130,-112.5 130,-131.5 204,-131.5 204,-112.5 130,-112.5"/>
<text text-anchor="middle" x="167" y="-119.5" font-family="Helvetica,sans-Serif" font-size="10.00">QVariantMap</text>
</g>
<!-- Node14&#45;&gt;Node15 -->
<g id="edge16" class="edge"><title>Node14&#45;&gt;Node15</title>
<path fill="none" stroke="midnightblue" d="M171.174,-168.083C170.519,-161.006 169.58,-150.861 168.758,-141.986"/>
<polygon fill="midnightblue" stroke="midnightblue" points="172.217,-141.386 167.81,-131.751 165.247,-142.031 172.217,-141.386"/>
</g>
<!-- Node14&#45;&gt;Node16 -->
<g id="edge17" class="edge"><title>Node14&#45;&gt;Node16</title>
<path fill="none" stroke="midnightblue" d="M195.451,-168.444C220.568,-159.279 260.568,-144.685 288.437,-134.516"/>
<polygon fill="midnightblue" stroke="midnightblue" points="289.912,-137.704 298.106,-130.988 287.512,-131.128 289.912,-137.704"/>
</g>
<!-- Node14&#45;&gt;Node8 -->
<g id="edge20" class="edge"><title>Node14&#45;&gt;Node8</title>
<path fill="none" stroke="midnightblue" d="M156.266,-168.236C144.111,-160.481 128.188,-147.929 121,-132 114.314,-117.183 118.433,-98.7994 123.425,-85.3676"/>
<polygon fill="midnightblue" stroke="midnightblue" points="126.789,-86.3955 127.427,-75.8199 120.333,-83.6897 126.789,-86.3955"/>
</g>
<!-- Node17 -->
<g id="node17" class="node"><title>Node17</title>
<polygon fill="white" stroke="#bfbfbf" points="494.5,-56.5 494.5,-75.5 549.5,-75.5 549.5,-56.5 494.5,-56.5"/>
<text text-anchor="middle" x="522" y="-63.5" font-family="Helvetica,sans-Serif" font-size="10.00">QVariant</text>
</g>
<!-- Node16&#45;&gt;Node17 -->
<g id="edge18" class="edge"><title>Node16&#45;&gt;Node17</title>
<path fill="none" stroke="midnightblue" d="M341.603,-114.419C344.423,-113.589 347.278,-112.764 350,-112 396.116,-99.0544 449.525,-85.2681 484.439,-76.4173"/>
<polygon fill="midnightblue" stroke="midnightblue" points="485.377,-79.7906 494.213,-73.946 483.661,-73.0041 485.377,-79.7906"/>
</g>
<!-- Node18 -->
<g id="node18" class="node"><title>Node18</title>
<polygon fill="white" stroke="#bfbfbf" points="321,-56.5 321,-75.5 371,-75.5 371,-56.5 321,-56.5"/>
<text text-anchor="middle" x="346" y="-63.5" font-family="Helvetica,sans-Serif" font-size="10.00">QString</text>
</g>
<!-- Node16&#45;&gt;Node18 -->
<g id="edge19" class="edge"><title>Node16&#45;&gt;Node18</title>
<path fill="none" stroke="midnightblue" d="M324.293,-112.083C327.852,-104.691 333.022,-93.9533 337.424,-84.8111"/>
<polygon fill="midnightblue" stroke="midnightblue" points="340.602,-86.2795 341.787,-75.7511 334.295,-83.2427 340.602,-86.2795"/>
</g>
<!-- Node19&#45;&gt;Node4 -->
<g id="edge23" class="edge"><title>Node19&#45;&gt;Node4</title>
<path fill="none" stroke="midnightblue" d="M393.707,-112.444C369.193,-103.438 330.404,-89.1891 302.8,-79.049"/>
<polygon fill="midnightblue" stroke="midnightblue" points="303.777,-75.6793 293.184,-75.5164 301.363,-82.25 303.777,-75.6793"/>
</g>
<!-- Node19&#45;&gt;Node18 -->
<g id="edge24" class="edge"><title>Node19&#45;&gt;Node18</title>
<path fill="none" stroke="midnightblue" d="M405.593,-112.324C394.891,-104.185 378.659,-91.8395 365.837,-82.0874"/>
<polygon fill="midnightblue" stroke="midnightblue" points="367.693,-79.1018 357.615,-75.8339 363.456,-84.6734 367.693,-79.1018"/>
</g>
<!-- Node19&#45;&gt;Node17 -->
<g id="edge25" class="edge"><title>Node19&#45;&gt;Node17</title>
<path fill="none" stroke="midnightblue" d="M433.87,-112.324C450.709,-103.664 476.807,-90.2424 496.238,-80.249"/>
<polygon fill="midnightblue" stroke="midnightblue" points="497.88,-83.3405 505.172,-75.6545 494.678,-77.1155 497.88,-83.3405"/>
</g>
<!-- Node19&#45;&gt;Node9 -->
<g id="edge26" class="edge"><title>Node19&#45;&gt;Node9</title>
<path fill="none" stroke="midnightblue" d="M412.606,-112.368C403.446,-94.376 382.153,-52.5503 369.974,-28.6267"/>
<polygon fill="midnightblue" stroke="midnightblue" points="373.03,-26.9152 365.374,-19.5914 366.792,-30.091 373.03,-26.9152"/>
</g>
<!-- Node19&#45;&gt;Node8 -->
<g id="edge27" class="edge"><title>Node19&#45;&gt;Node8</title>
<path fill="none" stroke="midnightblue" d="M371.841,-112.444C321.706,-102.944 240.78,-87.611 186.994,-77.4198"/>
<polygon fill="midnightblue" stroke="midnightblue" points="187.425,-73.9393 176.948,-75.5164 186.121,-80.8169 187.425,-73.9393"/>
</g>
<!-- Node20&#45;&gt;Node19 -->
<g id="edge29" class="edge"><title>Node20&#45;&gt;Node19</title>
<path fill="none" stroke="midnightblue" d="M411.991,-168.083C412.786,-160.927 413.929,-150.635 414.923,-141.691"/>
<polygon fill="midnightblue" stroke="midnightblue" points="418.402,-142.076 416.028,-131.751 411.445,-141.303 418.402,-142.076"/>
</g>
<!-- Node20&#45;&gt;Node17 -->
<g id="edge30" class="edge"><title>Node20&#45;&gt;Node17</title>
<path fill="none" stroke="midnightblue" d="M429.842,-168.358C445.451,-160.514 467.508,-147.776 483,-132 496.504,-118.248 507.321,-98.9577 514.106,-84.9663"/>
<polygon fill="midnightblue" stroke="midnightblue" points="517.292,-86.4153 518.314,-75.8699 510.939,-83.4759 517.292,-86.4153"/>
</g>
<!-- Node21&#45;&gt;Node19 -->
<g id="edge32" class="edge"><title>Node21&#45;&gt;Node19</title>
<path fill="none" stroke="midnightblue" d="M500.094,-168.324C484.362,-159.743 460.058,-146.486 441.791,-136.522"/>
<polygon fill="midnightblue" stroke="midnightblue" points="443.322,-133.37 432.867,-131.655 439.97,-139.516 443.322,-133.37"/>
</g>
<!-- Node21&#45;&gt;Node17 -->
<g id="edge33" class="edge"><title>Node21&#45;&gt;Node17</title>
<path fill="none" stroke="midnightblue" d="M516.471,-168.368C517.439,-150.617 519.673,-109.666 520.986,-85.5974"/>
<polygon fill="midnightblue" stroke="midnightblue" points="524.481,-85.7672 521.531,-75.5914 517.492,-85.3859 524.481,-85.7672"/>
</g>
<!-- Node22&#45;&gt;Node19 -->
<g id="edge35" class="edge"><title>Node22&#45;&gt;Node19</title>
<path fill="none" stroke="midnightblue" d="M600.457,-168.444C562.747,-159.102 502.26,-144.119 461.135,-133.933"/>
<polygon fill="midnightblue" stroke="midnightblue" points="461.929,-130.524 451.381,-131.516 460.246,-137.318 461.929,-130.524"/>
</g>
<!-- Node22&#45;&gt;Node17 -->
<g id="edge36" class="edge"><title>Node22&#45;&gt;Node17</title>
<path fill="none" stroke="midnightblue" d="M626.133,-168.368C607.155,-149.894 562.364,-106.293 538.173,-82.7436"/>
<polygon fill="midnightblue" stroke="midnightblue" points="540.433,-80.0588 530.826,-75.5914 535.55,-85.0747 540.433,-80.0588"/>
</g>
<!-- Node23&#45;&gt;Node19 -->
<g id="edge38" class="edge"><title>Node23&#45;&gt;Node19</title>
<path fill="none" stroke="midnightblue" d="M702.862,-169.628C699.866,-169.065 696.884,-168.516 694,-168 621.988,-155.11 539.156,-141.859 482.971,-133.106"/>
<polygon fill="midnightblue" stroke="midnightblue" points="483.217,-129.602 472.798,-131.525 482.142,-136.519 483.217,-129.602"/>
</g>
<!-- Node23&#45;&gt;Node17 -->
<g id="edge39" class="edge"><title>Node23&#45;&gt;Node17</title>
<path fill="none" stroke="midnightblue" d="M722.894,-168.368C684.928,-149.211 593.416,-103.036 548.194,-80.2172"/>
<polygon fill="midnightblue" stroke="midnightblue" points="549.531,-76.9716 539.027,-75.5914 546.378,-83.2211 549.531,-76.9716"/>
</g>
<!-- Node24 -->
<g id="node24" class="node"><title>Node24</title>
<polygon fill="white" stroke="#bfbfbf" points="713.5,-112.5 713.5,-131.5 766.5,-131.5 766.5,-112.5 713.5,-112.5"/>
<text text-anchor="middle" x="740" y="-119.5" font-family="Helvetica,sans-Serif" font-size="10.00">QVector</text>
</g>
<!-- Node23&#45;&gt;Node24 -->
<g id="edge40" class="edge"><title>Node23&#45;&gt;Node24</title>
<path fill="none" stroke="midnightblue" d="M740,-168.083C740,-161.006 740,-150.861 740,-141.986"/>
<polygon fill="midnightblue" stroke="midnightblue" points="743.5,-141.751 740,-131.751 736.5,-141.751 743.5,-141.751"/>
</g>
</g>
</svg>
        <g id="navigator" transform="translate(0 0)" fill="#404254">
                <rect fill="#f2f5e9" fill-opacity="0.5" stroke="#606060" stroke-width=".5" x="0" y="0" width="60" height="60"/>
                <use id="zoomplus" xlink:href="#zoomPlus" x="17" y="9" onmousedown="handleZoom(evt,'in')"/>
                <use id="zoomminus" xlink:href="#zoomMin" x="42" y="9" onmousedown="handleZoom(evt,'out')"/>
                <use id="reset" xlink:href="#resetDef" x="30" y="36" onmousedown="handleReset()"/>
                <g id="arrowUp" xlink:href="#dirArrow" transform="translate(30 24)" onmousedown="handlePan(0,-1)">
                  <use xlink:href="#rim" fill="#404040">
                        <set attributeName="fill" to="#808080" begin="arrowUp.mouseover" end="arrowUp.mouseout"/>
                  </use>
                  <path fill="none" stroke="white" stroke-width="1.5" d="M0,-3.0v7 M-2.5,-0.5L0,-3.0L2.5,-0.5"/>
                </g>
                <g id="arrowRight" xlink:href="#dirArrow" transform="rotate(90) translate(36 -43)" onmousedown="handlePan(1,0)">
                  <use xlink:href="#rim" fill="#404040">
                        <set attributeName="fill" to="#808080" begin="arrowRight.mouseover" end="arrowRight.mouseout"/>
                  </use>
                  <path fill="none" stroke="white" stroke-width="1.5" d="M0,-3.0v7 M-2.5,-0.5L0,-3.0L2.5,-0.5"/>
                </g>
                <g id="arrowDown" xlink:href="#dirArrow" transform="rotate(180) translate(-30 -48)" onmousedown="handlePan(0,1)">
                  <use xlink:href="#rim" fill="#404040">
                        <set attributeName="fill" to="#808080" begin="arrowDown.mouseover" end="arrowDown.mouseout"/>
                  </use>
                  <path fill="none" stroke="white" stroke-width="1.5" d="M0,-3.0v7 M-2.5,-0.5L0,-3.0L2.5,-0.5"/>
                </g>
                <g id="arrowLeft" xlink:href="#dirArrow" transform="rotate(270) translate(-36 17)" onmousedown="handlePan(-1,0)">
                  <use xlink:href="#rim" fill="#404040">
                        <set attributeName="fill" to="#808080" begin="arrowLeft.mouseover" end="arrowLeft.mouseout"/>
                  </use>
                  <path fill="none" stroke="white" stroke-width="1.5" d="M0,-3.0v7 M-2.5,-0.5L0,-3.0L2.5,-0.5"/>
                </g>
        </g>
        <svg viewBox="0 0 15 15" width="100%" height="30px" preserveAspectRatio="xMaxYMin meet">
         <g id="arrow_out" transform="scale(0.3 0.3)">
          <a xlink:href="_roomba_connect_8h__incl_org.svg" target="_base">
           <rect id="button" ry="5" rx="5" y="6" x="6" height="38" width="38"
                fill="#f2f5e9" fill-opacity="0.5" stroke="#606060" stroke-width="1.0"/>
           <path id="arrow"
             d="M 11.500037,31.436501 C 11.940474,20.09759 22.043105,11.32322 32.158766,21.979434 L 37.068811,17.246167 C 37.068811,17.246167 37.088388,32 37.088388,32 L 22.160133,31.978069 C 22.160133,31.978069 26.997745,27.140456 26.997745,27.140456 C 18.528582,18.264221 13.291696,25.230495 11.500037,31.436501 z"
             style="fill:#404040;"/>
          </a>
         </g>
        </svg>
</svg>
