<?xml version="1.0" encoding="UTF-8" standalone="no"?>
<!DOCTYPE svg PUBLIC "-//W3C//DTD SVG 1.1//EN"
 "http://www.w3.org/Graphics/SVG/1.1/DTD/svg11.dtd">
<!-- Generated by graphviz version 2.30.1 (20130214.1330)
 -->
<!-- Title: Ui::Roomba Pages: 1 -->
<svg width="110pt" height="304pt"
 viewBox="0.00 0.00 110.00 304.00" xmlns="http://www.w3.org/2000/svg" xmlns:xlink="http://www.w3.org/1999/xlink">
<g id="graph0" class="graph" transform="scale(1 1) rotate(0) translate(4 300)">
<title>Ui::Roomba</title>
<polygon fill="white" stroke="white" points="-4,5 -4,-300 107,-300 107,5 -4,5"/>
<!-- Node1 -->
<g id="node1" class="node"><title>Node1</title>
<polygon fill="#bfbfbf" stroke="black" points="17,-0.5 17,-57.5 85,-57.5 85,-0.5 17,-0.5"/>
<text text-anchor="middle" x="51" y="-45.5" font-family="Helvetica,sans-Serif" font-size="10.00">Ui::Roomba</text>
<polyline fill="none" stroke="black" points="17,-38.5 85,-38.5 "/>
<text text-anchor="middle" x="51" y="-26.5" font-family="Helvetica,sans-Serif" font-size="10.00"> </text>
<polyline fill="none" stroke="black" points="17,-19.5 85,-19.5 "/>
<text text-anchor="middle" x="51" y="-7.5" font-family="Helvetica,sans-Serif" font-size="10.00"> </text>
</g>
<!-- Node2 -->
<g id="node2" class="node"><title>Node2</title>
<g id="a_node2"><a xlink:href="../../d8/de5/class_ui___roomba.xhtml" target="_top" xlink:title="{Ui_Roomba\n|+ actionEinde\l+ centralWidget\l+ pbCloseRoomba\l+ pbControlRoomba\l+ pbInformation\l+ pbDisplayLogs\l+ pbConnect\l+ pbDisonnect\l+ menuBar\l+ menuStart\land 8 more...\l|+ setupUi()\l+ retranslateUi()\l+ setupUi()\l+ retranslateUi()\l}">
<polygon fill="white" stroke="black" points="-0.5,-95 -0.5,-295 102.5,-295 102.5,-95 -0.5,-95"/>
<text text-anchor="middle" x="51" y="-283" font-family="Helvetica,sans-Serif" font-size="10.00">Ui_Roomba</text>
<polyline fill="none" stroke="black" points="-0.5,-276 102.5,-276 "/>
<text text-anchor="start" x="7.5" y="-264" font-family="Helvetica,sans-Serif" font-size="10.00">+ actionEinde</text>
<text text-anchor="start" x="7.5" y="-253" font-family="Helvetica,sans-Serif" font-size="10.00">+ centralWidget</text>
<text text-anchor="start" x="7.5" y="-242" font-family="Helvetica,sans-Serif" font-size="10.00">+ pbCloseRoomba</text>
<text text-anchor="start" x="7.5" y="-231" font-family="Helvetica,sans-Serif" font-size="10.00">+ pbControlRoomba</text>
<text text-anchor="start" x="7.5" y="-220" font-family="Helvetica,sans-Serif" font-size="10.00">+ pbInformation</text>
<text text-anchor="start" x="7.5" y="-209" font-family="Helvetica,sans-Serif" font-size="10.00">+ pbDisplayLogs</text>
<text text-anchor="start" x="7.5" y="-198" font-family="Helvetica,sans-Serif" font-size="10.00">+ pbConnect</text>
<text text-anchor="start" x="7.5" y="-187" font-family="Helvetica,sans-Serif" font-size="10.00">+ pbDisonnect</text>
<text text-anchor="start" x="7.5" y="-176" font-family="Helvetica,sans-Serif" font-size="10.00">+ menuBar</text>
<text text-anchor="start" x="7.5" y="-165" font-family="Helvetica,sans-Serif" font-size="10.00">+ menuStart</text>
<text text-anchor="start" x="7.5" y="-154" font-family="Helvetica,sans-Serif" font-size="10.00">and 8 more...</text>
<polyline fill="none" stroke="black" points="-0.5,-147 102.5,-147 "/>
<text text-anchor="start" x="7.5" y="-135" font-family="Helvetica,sans-Serif" font-size="10.00">+ setupUi()</text>
<text text-anchor="start" x="7.5" y="-124" font-family="Helvetica,sans-Serif" font-size="10.00">+ retranslateUi()</text>
<text text-anchor="start" x="7.5" y="-113" font-family="Helvetica,sans-Serif" font-size="10.00">+ setupUi()</text>
<text text-anchor="start" x="7.5" y="-102" font-family="Helvetica,sans-Serif" font-size="10.00">+ retranslateUi()</text>
</a>
</g>
</g>
<!-- Node2&#45;&gt;Node1 -->
<g id="edge1" class="edge"><title>Node2&#45;&gt;Node1</title>
<path fill="none" stroke="midnightblue" d="M44.5929,-84.7468C44.8508,-74.8506 45.2542,-65.552 45.8031,-57.525"/>
<polygon fill="none" stroke="midnightblue" points="41.0922,-84.7465 44.3835,-94.8171 48.0907,-84.8921 41.0922,-84.7465"/>
</g>
<!-- Node2&#45;&gt;Node1 -->
<g id="edge2" class="edge"><title>Node2&#45;&gt;Node1</title>
<path fill="none" stroke="midnightblue" d="M57.4071,-84.7468C57.1492,-74.8506 56.7458,-65.552 56.1969,-57.525"/>
<polygon fill="none" stroke="midnightblue" points="53.9093,-84.8921 57.6165,-94.8171 60.9078,-84.7465 53.9093,-84.8921"/>
</g>
</g>
</svg>
