<?xml version="1.0" encoding="UTF-8" standalone="no"?>
<!DOCTYPE svg PUBLIC "-//W3C//DTD SVG 1.1//EN"
 "http://www.w3.org/Graphics/SVG/1.1/DTD/svg11.dtd">
<!-- Generated by graphviz version 2.30.1 (20130214.1330)
 -->
<!-- Title: GUI/bin/debug/ui_settingsroomba.h Pages: 1 -->
<svg width="1176pt" height="84pt"
 viewBox="0.00 0.00 1176.00 84.00" xmlns="http://www.w3.org/2000/svg" xmlns:xlink="http://www.w3.org/1999/xlink">
<g id="graph0" class="graph" transform="scale(1 1) rotate(0) translate(4 80)">
<title>GUI/bin/debug/ui_settingsroomba.h</title>
<polygon fill="white" stroke="white" points="-4,5 -4,-80 1173,-80 1173,5 -4,5"/>
<!-- Node1 -->
<g id="node1" class="node"><title>Node1</title>
<polygon fill="#bfbfbf" stroke="black" points="493.5,-56.5 493.5,-75.5 662.5,-75.5 662.5,-56.5 493.5,-56.5"/>
<text text-anchor="middle" x="578" y="-63.5" font-family="Helvetica,sans-Serif" font-size="10.00">GUI/bin/debug/ui_settingsroomba.h</text>
</g>
<!-- Node2 -->
<g id="node2" class="node"><title>Node2</title>
<polygon fill="white" stroke="#bfbfbf" points="-0.5,-0.5 -0.5,-19.5 88.5,-19.5 88.5,-0.5 -0.5,-0.5"/>
<text text-anchor="middle" x="44" y="-7.5" font-family="Helvetica,sans-Serif" font-size="10.00">QtCore/QVariant</text>
</g>
<!-- Node1&#45;&gt;Node2 -->
<g id="edge1" class="edge"><title>Node1&#45;&gt;Node2</title>
<path fill="none" stroke="midnightblue" d="M493.069,-58.9883C399.047,-51.8949 242.783,-38.8103 99.1058,-20.197"/>
<polygon fill="midnightblue" stroke="midnightblue" points="99.1532,-16.6735 88.7838,-18.8473 98.2456,-23.6144 99.1532,-16.6735"/>
</g>
<!-- Node3 -->
<g id="node3" class="node"><title>Node3</title>
<polygon fill="white" stroke="#bfbfbf" points="106.5,-0.5 106.5,-19.5 207.5,-19.5 207.5,-0.5 106.5,-0.5"/>
<text text-anchor="middle" x="157" y="-7.5" font-family="Helvetica,sans-Serif" font-size="10.00">QtWidgets/QAction</text>
</g>
<!-- Node1&#45;&gt;Node3 -->
<g id="edge2" class="edge"><title>Node1&#45;&gt;Node3</title>
<path fill="none" stroke="midnightblue" d="M505.328,-56.4794C434.585,-48.0622 323.76,-34.5518 217.649,-20.0596"/>
<polygon fill="midnightblue" stroke="midnightblue" points="218.109,-16.59 207.726,-18.6996 217.158,-23.5251 218.109,-16.59"/>
</g>
<!-- Node4 -->
<g id="node4" class="node"><title>Node4</title>
<polygon fill="white" stroke="#bfbfbf" points="226,-0.5 226,-19.5 348,-19.5 348,-0.5 226,-0.5"/>
<text text-anchor="middle" x="287" y="-7.5" font-family="Helvetica,sans-Serif" font-size="10.00">QtWidgets/QApplication</text>
</g>
<!-- Node1&#45;&gt;Node4 -->
<g id="edge3" class="edge"><title>Node1&#45;&gt;Node4</title>
<path fill="none" stroke="midnightblue" d="M531.89,-56.4435C480.594,-46.9246 397.727,-31.5472 342.809,-21.3563"/>
<polygon fill="midnightblue" stroke="midnightblue" points="343.365,-17.8998 332.894,-19.5164 342.088,-24.7823 343.365,-17.8998"/>
</g>
<!-- Node5 -->
<g id="node5" class="node"><title>Node5</title>
<polygon fill="white" stroke="#bfbfbf" points="366,-0.5 366,-19.5 494,-19.5 494,-0.5 366,-0.5"/>
<text text-anchor="middle" x="430" y="-7.5" font-family="Helvetica,sans-Serif" font-size="10.00">QtWidgets/QButtonGroup</text>
</g>
<!-- Node1&#45;&gt;Node5 -->
<g id="edge4" class="edge"><title>Node1&#45;&gt;Node5</title>
<path fill="none" stroke="midnightblue" d="M554.549,-56.4435C529.867,-47.4381 490.815,-33.1891 463.023,-23.049"/>
<polygon fill="midnightblue" stroke="midnightblue" points="463.935,-19.6561 453.341,-19.5164 461.536,-26.2321 463.935,-19.6561"/>
</g>
<!-- Node6 -->
<g id="node6" class="node"><title>Node6</title>
<polygon fill="white" stroke="#bfbfbf" points="512,-0.5 512,-19.5 644,-19.5 644,-0.5 512,-0.5"/>
<text text-anchor="middle" x="578" y="-7.5" font-family="Helvetica,sans-Serif" font-size="10.00">QtWidgets/QDateTimeEdit</text>
</g>
<!-- Node1&#45;&gt;Node6 -->
<g id="edge5" class="edge"><title>Node1&#45;&gt;Node6</title>
<path fill="none" stroke="midnightblue" d="M578,-56.083C578,-49.0059 578,-38.8611 578,-29.9865"/>
<polygon fill="midnightblue" stroke="midnightblue" points="581.5,-29.751 578,-19.7511 574.5,-29.7511 581.5,-29.751"/>
</g>
<!-- Node7 -->
<g id="node7" class="node"><title>Node7</title>
<polygon fill="white" stroke="#bfbfbf" points="662.5,-0.5 662.5,-19.5 787.5,-19.5 787.5,-0.5 662.5,-0.5"/>
<text text-anchor="middle" x="725" y="-7.5" font-family="Helvetica,sans-Serif" font-size="10.00">QtWidgets/QHeaderView</text>
</g>
<!-- Node1&#45;&gt;Node7 -->
<g id="edge6" class="edge"><title>Node1&#45;&gt;Node7</title>
<path fill="none" stroke="midnightblue" d="M601.293,-56.4435C625.807,-47.4381 664.596,-33.1891 692.2,-23.049"/>
<polygon fill="midnightblue" stroke="midnightblue" points="693.637,-26.25 701.816,-19.5164 691.223,-19.6793 693.637,-26.25"/>
</g>
<!-- Node8 -->
<g id="node8" class="node"><title>Node8</title>
<polygon fill="white" stroke="#bfbfbf" points="805.5,-0.5 805.5,-19.5 902.5,-19.5 902.5,-0.5 805.5,-0.5"/>
<text text-anchor="middle" x="854" y="-7.5" font-family="Helvetica,sans-Serif" font-size="10.00">QtWidgets/QLabel</text>
</g>
<!-- Node1&#45;&gt;Node8 -->
<g id="edge7" class="edge"><title>Node1&#45;&gt;Node8</title>
<path fill="none" stroke="midnightblue" d="M621.733,-56.4435C670.183,-46.9641 748.329,-31.6747 800.418,-21.4835"/>
<polygon fill="midnightblue" stroke="midnightblue" points="801.33,-24.8715 810.472,-19.5164 799.986,-18.0017 801.33,-24.8715"/>
</g>
<!-- Node9 -->
<g id="node9" class="node"><title>Node9</title>
<polygon fill="white" stroke="#bfbfbf" points="920.5,-0.5 920.5,-19.5 1045.5,-19.5 1045.5,-0.5 920.5,-0.5"/>
<text text-anchor="middle" x="983" y="-7.5" font-family="Helvetica,sans-Serif" font-size="10.00">QtWidgets/QPushButton</text>
</g>
<!-- Node1&#45;&gt;Node9 -->
<g id="edge8" class="edge"><title>Node1&#45;&gt;Node9</title>
<path fill="none" stroke="midnightblue" d="M642.173,-56.4435C715.177,-46.7097 834.126,-30.8499 910.444,-20.6742"/>
<polygon fill="midnightblue" stroke="midnightblue" points="911.008,-24.13 920.458,-19.339 910.083,-17.1914 911.008,-24.13"/>
</g>
<!-- Node10 -->
<g id="node10" class="node"><title>Node10</title>
<polygon fill="white" stroke="#bfbfbf" points="1064,-0.5 1064,-19.5 1168,-19.5 1168,-0.5 1064,-0.5"/>
<text text-anchor="middle" x="1116" y="-7.5" font-family="Helvetica,sans-Serif" font-size="10.00">QtWidgets/QWidget</text>
</g>
<!-- Node1&#45;&gt;Node10 -->
<g id="edge9" class="edge"><title>Node1&#45;&gt;Node10</title>
<path fill="none" stroke="midnightblue" d="M662.831,-58.2657C758.139,-50.4008 917.392,-36.3621 1054,-20 1054.1,-19.9879 1054.2,-19.9757 1054.3,-19.9635"/>
<polygon fill="midnightblue" stroke="midnightblue" points="1054.45,-23.4734 1063.93,-18.7509 1053.57,-16.5283 1054.45,-23.4734"/>
</g>
</g>
</svg>
