<?xml version="1.0" encoding="UTF-8" standalone="no"?>
<!DOCTYPE svg PUBLIC "-//W3C//DTD SVG 1.1//EN"
 "http://www.w3.org/Graphics/SVG/1.1/DTD/svg11.dtd">
<!-- Generated by graphviz version 2.30.1 (20130214.1330)
 -->
<!-- Title: myTimer Pages: 1 -->
<svg width="94pt" height="194pt"
 viewBox="0.00 0.00 94.00 194.00" xmlns="http://www.w3.org/2000/svg" xmlns:xlink="http://www.w3.org/1999/xlink">
<g id="graph0" class="graph" transform="scale(1 1) rotate(0) translate(4 190)">
<title>myTimer</title>
<polygon fill="white" stroke="white" points="-4,5 -4,-190 91,-190 91,5 -4,5"/>
<!-- Node1 -->
<g id="node1" class="node"><title>Node1</title>
<polygon fill="#bfbfbf" stroke="black" points="0,-1 0,-91 86,-91 86,-1 0,-1"/>
<text text-anchor="middle" x="43" y="-79" font-family="Helvetica,sans-Serif" font-size="10.00">myTimer</text>
<polyline fill="none" stroke="black" points="0,-72 86,-72 "/>
<text text-anchor="start" x="8" y="-60" font-family="Helvetica,sans-Serif" font-size="10.00">+ timer</text>
<polyline fill="none" stroke="black" points="0,-53 86,-53 "/>
<text text-anchor="start" x="8" y="-41" font-family="Helvetica,sans-Serif" font-size="10.00">+ myTimer()</text>
<text text-anchor="start" x="8" y="-30" font-family="Helvetica,sans-Serif" font-size="10.00">+ myTimer()</text>
<text text-anchor="start" x="8" y="-19" font-family="Helvetica,sans-Serif" font-size="10.00">+ MyTimerSlot()</text>
<text text-anchor="start" x="8" y="-8" font-family="Helvetica,sans-Serif" font-size="10.00">+ MyTimerSlot()</text>
</g>
<!-- Node2 -->
<g id="node2" class="node"><title>Node2</title>
<polygon fill="white" stroke="#bfbfbf" points="16.5,-128.5 16.5,-185.5 69.5,-185.5 69.5,-128.5 16.5,-128.5"/>
<text text-anchor="middle" x="43" y="-173.5" font-family="Helvetica,sans-Serif" font-size="10.00">QObject</text>
<polyline fill="none" stroke="#bfbfbf" points="16.5,-166.5 69.5,-166.5 "/>
<text text-anchor="middle" x="43" y="-154.5" font-family="Helvetica,sans-Serif" font-size="10.00"> </text>
<polyline fill="none" stroke="#bfbfbf" points="16.5,-147.5 69.5,-147.5 "/>
<text text-anchor="middle" x="43" y="-135.5" font-family="Helvetica,sans-Serif" font-size="10.00"> </text>
</g>
<!-- Node2&#45;&gt;Node1 -->
<g id="edge1" class="edge"><title>Node2&#45;&gt;Node1</title>
<path fill="none" stroke="midnightblue" d="M36.5502,-118.484C36.228,-109.643 36.1651,-100.139 36.3617,-91.0399"/>
<polygon fill="none" stroke="midnightblue" points="33.0555,-118.681 37.0476,-128.495 40.0469,-118.333 33.0555,-118.681"/>
</g>
<!-- Node2&#45;&gt;Node1 -->
<g id="edge2" class="edge"><title>Node2&#45;&gt;Node1</title>
<path fill="none" stroke="midnightblue" d="M49.4498,-118.484C49.772,-109.643 49.8349,-100.139 49.6383,-91.0399"/>
<polygon fill="none" stroke="midnightblue" points="45.9531,-118.333 48.9524,-128.495 52.9445,-118.681 45.9531,-118.333"/>
</g>
</g>
</svg>
