<?xml version="1.0" encoding="UTF-8" standalone="no"?>
<!DOCTYPE svg PUBLIC "-//W3C//DTD SVG 1.1//EN"
 "http://www.w3.org/Graphics/SVG/1.1/DTD/svg11.dtd">
<!-- Generated by graphviz version 2.30.1 (20130214.1330)
 -->
<!-- Title: GUI/resources/clsevent.h Pages: 1 -->
<svg width="1784pt" height="368pt"
 viewBox="0.00 0.00 1784.00 368.00" xmlns="http://www.w3.org/2000/svg" xmlns:xlink="http://www.w3.org/1999/xlink">
<g id="graph0" class="graph" transform="scale(1 1) rotate(0) translate(4 364)">
<title>GUI/resources/clsevent.h</title>
<polygon fill="white" stroke="white" points="-4,5 -4,-364 1781,-364 1781,5 -4,5"/>
<!-- Node1 -->
<g id="node1" class="node"><title>Node1</title>
<polygon fill="#bfbfbf" stroke="black" points="826.5,-340.5 826.5,-359.5 951.5,-359.5 951.5,-340.5 826.5,-340.5"/>
<text text-anchor="middle" x="889" y="-347.5" font-family="Helvetica,sans-Serif" font-size="10.00">GUI/resources/clsevent.h</text>
</g>
<!-- Node2 -->
<g id="node2" class="node"><title>Node2</title>
<g id="a_node2"><a xlink:href="../../d4/dca/_roomba_connect_8h.xhtml" target="_top" xlink:title="GUI/Gui&#45;RoombaV1.0\l/RoombaConnect.h">
<polygon fill="white" stroke="black" points="426,-205 426,-235 536,-235 536,-205 426,-205"/>
<text text-anchor="start" x="434" y="-223" font-family="Helvetica,sans-Serif" font-size="10.00">GUI/Gui&#45;RoombaV1.0</text>
<text text-anchor="middle" x="481" y="-212" font-family="Helvetica,sans-Serif" font-size="10.00">/RoombaConnect.h</text>
</a>
</g>
</g>
<!-- Node1&#45;&gt;Node2 -->
<g id="edge1" class="edge"><title>Node1&#45;&gt;Node2</title>
<path fill="none" stroke="midnightblue" d="M816.125,-346.136C728.605,-341.568 587.952,-330.294 543,-304 515.521,-287.926 496.401,-254.402 487.218,-235.242"/>
<polygon fill="midnightblue" stroke="midnightblue" points="816.098,-349.639 826.262,-346.647 816.451,-342.648 816.098,-349.639"/>
</g>
<!-- Node15 -->
<g id="node15" class="node"><title>Node15</title>
<g id="a_node15"><a xlink:href="../../d4/d25/sensordata_8h.xhtml" target="_top" xlink:title="GUI/Gui&#45;RoombaV1.0\l/sensordata.h">
<polygon fill="white" stroke="black" points="552,-273 552,-303 662,-303 662,-273 552,-273"/>
<text text-anchor="start" x="560" y="-291" font-family="Helvetica,sans-Serif" font-size="10.00">GUI/Gui&#45;RoombaV1.0</text>
<text text-anchor="middle" x="607" y="-280" font-family="Helvetica,sans-Serif" font-size="10.00">/sensordata.h</text>
</a>
</g>
</g>
<!-- Node1&#45;&gt;Node15 -->
<g id="edge16" class="edge"><title>Node1&#45;&gt;Node15</title>
<path fill="none" stroke="midnightblue" d="M835.967,-338.464C791.771,-329.585 727.195,-316.383 671,-304 668.102,-303.361 665.133,-302.698 662.137,-302.021"/>
<polygon fill="midnightblue" stroke="midnightblue" points="835.417,-341.923 845.91,-340.458 836.793,-335.06 835.417,-341.923"/>
</g>
<!-- Node3 -->
<g id="node3" class="node"><title>Node3</title>
<g id="a_node3"><a xlink:href="../../da/d4b/controllingroomba_8h.xhtml" target="_top" xlink:title="GUI/Gui&#45;RoombaV1.0\l/controllingroomba.h">
<polygon fill="white" stroke="black" points="193,-137 193,-167 303,-167 303,-137 193,-137"/>
<text text-anchor="start" x="201" y="-155" font-family="Helvetica,sans-Serif" font-size="10.00">GUI/Gui&#45;RoombaV1.0</text>
<text text-anchor="middle" x="248" y="-144" font-family="Helvetica,sans-Serif" font-size="10.00">/controllingroomba.h</text>
</a>
</g>
</g>
<!-- Node1&#45;&gt;Node3 -->
<g id="edge20" class="edge"><title>Node1&#45;&gt;Node3</title>
<path fill="none" stroke="midnightblue" d="M816.157,-347.356C671.189,-343.497 357.007,-331.982 317,-304 269.999,-271.126 254.376,-198.117 249.749,-167.235"/>
<polygon fill="midnightblue" stroke="midnightblue" points="816.208,-350.858 826.296,-347.621 816.391,-343.861 816.208,-350.858"/>
</g>
<!-- Node5 -->
<g id="node5" class="node"><title>Node5</title>
<g id="a_node5"><a xlink:href="../../dd/da1/roomba_8h.xhtml" target="_top" xlink:title="GUI/Gui&#45;RoombaV1.0\l/roomba.h">
<polygon fill="white" stroke="black" points="325,-69 325,-99 435,-99 435,-69 325,-69"/>
<text text-anchor="start" x="333" y="-87" font-family="Helvetica,sans-Serif" font-size="10.00">GUI/Gui&#45;RoombaV1.0</text>
<text text-anchor="middle" x="380" y="-76" font-family="Helvetica,sans-Serif" font-size="10.00">/roomba.h</text>
</a>
</g>
</g>
<!-- Node1&#45;&gt;Node5 -->
<g id="edge21" class="edge"><title>Node1&#45;&gt;Node5</title>
<path fill="none" stroke="midnightblue" d="M816.122,-344.967C721.347,-338.943 561.477,-325.895 507,-304 428.555,-272.472 397.521,-249.206 374,-168 367.207,-144.548 371.998,-115.888 376.039,-99.1168"/>
<polygon fill="midnightblue" stroke="midnightblue" points="816.015,-348.467 826.214,-345.598 816.452,-341.481 816.015,-348.467"/>
</g>
<!-- Node17 -->
<g id="node17" class="node"><title>Node17</title>
<g id="a_node17"><a xlink:href="../../da/de6/clsevent_8cpp.xhtml" target="_top" xlink:title="GUI/resources/clsevent.cpp">
<polygon fill="white" stroke="black" points="680,-278.5 680,-297.5 816,-297.5 816,-278.5 680,-278.5"/>
<text text-anchor="middle" x="748" y="-285.5" font-family="Helvetica,sans-Serif" font-size="10.00">GUI/resources/clsevent.cpp</text>
</a>
</g>
</g>
<!-- Node1&#45;&gt;Node17 -->
<g id="edge22" class="edge"><title>Node1&#45;&gt;Node17</title>
<path fill="none" stroke="midnightblue" d="M859.33,-336.374C831.945,-324.721 792.02,-307.732 768.164,-297.581"/>
<polygon fill="midnightblue" stroke="midnightblue" points="858.226,-339.708 868.798,-340.403 860.967,-333.267 858.226,-339.708"/>
</g>
<!-- Node18 -->
<g id="node18" class="node"><title>Node18</title>
<g id="a_node18"><a xlink:href="../../db/d70/eventchat_8h.xhtml" target="_top" xlink:title="GUI/resources/events\l/eventchat.h">
<polygon fill="white" stroke="black" points="834,-273 834,-303 944,-303 944,-273 834,-273"/>
<text text-anchor="start" x="842" y="-291" font-family="Helvetica,sans-Serif" font-size="10.00">GUI/resources/events</text>
<text text-anchor="middle" x="889" y="-280" font-family="Helvetica,sans-Serif" font-size="10.00">/eventchat.h</text>
</a>
</g>
</g>
<!-- Node1&#45;&gt;Node18 -->
<g id="edge23" class="edge"><title>Node1&#45;&gt;Node18</title>
<path fill="none" stroke="midnightblue" d="M889,-330.371C889,-321.585 889,-311.272 889,-303.141"/>
<polygon fill="midnightblue" stroke="midnightblue" points="885.5,-330.403 889,-340.403 892.5,-330.403 885.5,-330.403"/>
</g>
<!-- Node21 -->
<g id="node21" class="node"><title>Node21</title>
<g id="a_node21"><a xlink:href="../../d5/d02/eventuserjoin_8h.xhtml" target="_top" xlink:title="GUI/resources/events\l/eventuserjoin.h">
<polygon fill="white" stroke="black" points="962,-273 962,-303 1072,-303 1072,-273 962,-273"/>
<text text-anchor="start" x="970" y="-291" font-family="Helvetica,sans-Serif" font-size="10.00">GUI/resources/events</text>
<text text-anchor="middle" x="1017" y="-280" font-family="Helvetica,sans-Serif" font-size="10.00">/eventuserjoin.h</text>
</a>
</g>
</g>
<!-- Node1&#45;&gt;Node21 -->
<g id="edge26" class="edge"><title>Node1&#45;&gt;Node21</title>
<path fill="none" stroke="midnightblue" d="M916.535,-336.093C937.222,-326.396 965.535,-313.124 986.833,-303.141"/>
<polygon fill="midnightblue" stroke="midnightblue" points="914.908,-332.99 907.339,-340.403 917.879,-339.328 914.908,-332.99"/>
</g>
<!-- Node23 -->
<g id="node23" class="node"><title>Node23</title>
<g id="a_node23"><a xlink:href="../../d7/d56/eventuserleave_8h.xhtml" target="_top" xlink:title="GUI/resources/events\l/eventuserleave.h">
<polygon fill="white" stroke="black" points="1090,-273 1090,-303 1200,-303 1200,-273 1090,-273"/>
<text text-anchor="start" x="1098" y="-291" font-family="Helvetica,sans-Serif" font-size="10.00">GUI/resources/events</text>
<text text-anchor="middle" x="1145" y="-280" font-family="Helvetica,sans-Serif" font-size="10.00">/eventuserleave.h</text>
</a>
</g>
</g>
<!-- Node1&#45;&gt;Node23 -->
<g id="edge29" class="edge"><title>Node1&#45;&gt;Node23</title>
<path fill="none" stroke="midnightblue" d="M935.147,-338.184C978.599,-328 1043.73,-312.735 1089.89,-301.916"/>
<polygon fill="midnightblue" stroke="midnightblue" points="934.344,-334.778 925.407,-340.467 935.942,-341.593 934.344,-334.778"/>
</g>
<!-- Node25 -->
<g id="node25" class="node"><title>Node25</title>
<g id="a_node25"><a xlink:href="../../db/db0/eventuserchangestatus_8h.xhtml" target="_top" xlink:title="GUI/resources/events\l/eventuserchangestatus.h">
<polygon fill="white" stroke="black" points="1218,-273 1218,-303 1346,-303 1346,-273 1218,-273"/>
<text text-anchor="start" x="1226" y="-291" font-family="Helvetica,sans-Serif" font-size="10.00">GUI/resources/events</text>
<text text-anchor="middle" x="1282" y="-280" font-family="Helvetica,sans-Serif" font-size="10.00">/eventuserchangestatus.h</text>
</a>
</g>
</g>
<!-- Node1&#45;&gt;Node25 -->
<g id="edge32" class="edge"><title>Node1&#45;&gt;Node25</title>
<path fill="none" stroke="midnightblue" d="M961.869,-340.081C1026.86,-331.81 1124.52,-318.605 1209,-304 1211.93,-303.493 1214.93,-302.956 1217.95,-302.399"/>
<polygon fill="midnightblue" stroke="midnightblue" points="961.206,-336.636 951.725,-341.365 962.086,-343.581 961.206,-336.636"/>
</g>
<!-- Node27 -->
<g id="node27" class="node"><title>Node27</title>
<g id="a_node27"><a xlink:href="../../d8/d44/eventuserchangenick_8h.xhtml" target="_top" xlink:title="GUI/resources/events\l/eventuserchangenick.h">
<polygon fill="white" stroke="black" points="1364.5,-273 1364.5,-303 1483.5,-303 1483.5,-273 1364.5,-273"/>
<text text-anchor="start" x="1372.5" y="-291" font-family="Helvetica,sans-Serif" font-size="10.00">GUI/resources/events</text>
<text text-anchor="middle" x="1424" y="-280" font-family="Helvetica,sans-Serif" font-size="10.00">/eventuserchangenick.h</text>
</a>
</g>
</g>
<!-- Node1&#45;&gt;Node27 -->
<g id="edge35" class="edge"><title>Node1&#45;&gt;Node27</title>
<path fill="none" stroke="midnightblue" d="M961.898,-344.628C1053.9,-338.5 1216.84,-325.611 1355,-304 1358.03,-303.526 1361.12,-303.002 1364.24,-302.442"/>
<polygon fill="midnightblue" stroke="midnightblue" points="961.604,-341.14 951.855,-345.289 962.063,-348.125 961.604,-341.14"/>
</g>
<!-- Node29 -->
<g id="node29" class="node"><title>Node29</title>
<g id="a_node29"><a xlink:href="../../da/d66/eventservermessage_8h.xhtml" target="_top" xlink:title="GUI/resources/events\l/eventservermessage.h">
<polygon fill="white" stroke="black" points="1502,-273 1502,-303 1618,-303 1618,-273 1502,-273"/>
<text text-anchor="start" x="1510" y="-291" font-family="Helvetica,sans-Serif" font-size="10.00">GUI/resources/events</text>
<text text-anchor="middle" x="1560" y="-280" font-family="Helvetica,sans-Serif" font-size="10.00">/eventservermessage.h</text>
</a>
</g>
</g>
<!-- Node1&#45;&gt;Node29 -->
<g id="edge38" class="edge"><title>Node1&#45;&gt;Node29</title>
<path fill="none" stroke="midnightblue" d="M962.152,-346.904C1075.98,-342.888 1302.14,-331.879 1492,-304 1495.23,-303.526 1498.53,-302.985 1501.86,-302.396"/>
<polygon fill="midnightblue" stroke="midnightblue" points="961.698,-343.418 951.825,-347.26 961.939,-350.414 961.698,-343.418"/>
</g>
<!-- Node2&#45;&gt;Node3 -->
<g id="edge2" class="edge"><title>Node2&#45;&gt;Node3</title>
<path fill="none" stroke="midnightblue" d="M421.304,-202.091C382.98,-191.235 333.797,-177.303 297.622,-167.056"/>
<polygon fill="midnightblue" stroke="midnightblue" points="420.726,-205.564 431.301,-204.922 422.634,-198.829 420.726,-205.564"/>
</g>
<!-- Node2&#45;&gt;Node5 -->
<g id="edge13" class="edge"><title>Node2&#45;&gt;Node5</title>
<path fill="none" stroke="midnightblue" d="M426.839,-200.423C411.929,-192.693 397.314,-182.134 388,-168 374.299,-147.209 375.398,-116.888 377.593,-99.2288"/>
<polygon fill="midnightblue" stroke="midnightblue" points="425.585,-203.703 436.115,-204.876 428.615,-197.393 425.585,-203.703"/>
</g>
<!-- Node13 -->
<g id="node13" class="node"><title>Node13</title>
<g id="a_node13"><a xlink:href="../../d3/d0e/moc___roomba_connect_8cpp.xhtml" target="_top" xlink:title="GUI/bin/debug/debug\l/moc_RoombaConnect.cpp">
<polygon fill="white" stroke="black" points="397,-137 397,-167 531,-167 531,-137 397,-137"/>
<text text-anchor="start" x="405" y="-155" font-family="Helvetica,sans-Serif" font-size="10.00">GUI/bin/debug/debug</text>
<text text-anchor="middle" x="464" y="-144" font-family="Helvetica,sans-Serif" font-size="10.00">/moc_RoombaConnect.cpp</text>
</a>
</g>
</g>
<!-- Node2&#45;&gt;Node13 -->
<g id="edge14" class="edge"><title>Node2&#45;&gt;Node13</title>
<path fill="none" stroke="midnightblue" d="M474.775,-194.831C472.392,-185.581 469.752,-175.331 467.682,-167.293"/>
<polygon fill="midnightblue" stroke="midnightblue" points="471.427,-195.868 477.311,-204.679 478.206,-194.122 471.427,-195.868"/>
</g>
<!-- Node14 -->
<g id="node14" class="node"><title>Node14</title>
<g id="a_node14"><a xlink:href="../../d7/da4/_roomba_connect_8cpp.xhtml" target="_top" xlink:title="GUI/Gui&#45;RoombaV1.0\l/RoombaConnect.cpp">
<polygon fill="white" stroke="black" points="549,-137 549,-167 659,-167 659,-137 549,-137"/>
<text text-anchor="start" x="557" y="-155" font-family="Helvetica,sans-Serif" font-size="10.00">GUI/Gui&#45;RoombaV1.0</text>
<text text-anchor="middle" x="604" y="-144" font-family="Helvetica,sans-Serif" font-size="10.00">/RoombaConnect.cpp</text>
</a>
</g>
</g>
<!-- Node2&#45;&gt;Node14 -->
<g id="edge15" class="edge"><title>Node2&#45;&gt;Node14</title>
<path fill="none" stroke="midnightblue" d="M516.307,-200.055C535.858,-189.564 559.751,-176.743 577.657,-167.135"/>
<polygon fill="midnightblue" stroke="midnightblue" points="514.543,-197.029 507.387,-204.841 517.853,-203.197 514.543,-197.029"/>
</g>
<!-- Node4 -->
<g id="node4" class="node"><title>Node4</title>
<g id="a_node4"><a xlink:href="../../d0/de4/moc__controllingroomba_8cpp.xhtml" target="_top" xlink:title="GUI/bin/debug/debug\l/moc_controllingroomba.cpp">
<polygon fill="white" stroke="black" points="167.5,-69 167.5,-99 306.5,-99 306.5,-69 167.5,-69"/>
<text text-anchor="start" x="175.5" y="-87" font-family="Helvetica,sans-Serif" font-size="10.00">GUI/bin/debug/debug</text>
<text text-anchor="middle" x="237" y="-76" font-family="Helvetica,sans-Serif" font-size="10.00">/moc_controllingroomba.cpp</text>
</a>
</g>
</g>
<!-- Node3&#45;&gt;Node4 -->
<g id="edge3" class="edge"><title>Node3&#45;&gt;Node4</title>
<path fill="none" stroke="midnightblue" d="M243.922,-126.532C242.393,-117.361 240.707,-107.245 239.382,-99.2931"/>
<polygon fill="midnightblue" stroke="midnightblue" points="240.517,-127.39 245.613,-136.679 247.421,-126.24 240.517,-127.39"/>
</g>
<!-- Node3&#45;&gt;Node5 -->
<g id="edge4" class="edge"><title>Node3&#45;&gt;Node5</title>
<path fill="none" stroke="midnightblue" d="M285.322,-132.339C306.407,-121.796 332.339,-108.83 351.73,-99.1352"/>
<polygon fill="midnightblue" stroke="midnightblue" points="283.696,-129.239 276.317,-136.841 286.827,-135.5 283.696,-129.239"/>
</g>
<!-- Node7 -->
<g id="node7" class="node"><title>Node7</title>
<g id="a_node7"><a xlink:href="../../d5/dd2/controllingroomba_8cpp.xhtml" target="_top" xlink:title="GUI/Gui&#45;RoombaV1.0\l/controllingroomba.cpp">
<polygon fill="white" stroke="black" points="-0.5,-1 -0.5,-31 114.5,-31 114.5,-1 -0.5,-1"/>
<text text-anchor="start" x="7.5" y="-19" font-family="Helvetica,sans-Serif" font-size="10.00">GUI/Gui&#45;RoombaV1.0</text>
<text text-anchor="middle" x="57" y="-8" font-family="Helvetica,sans-Serif" font-size="10.00">/controllingroomba.cpp</text>
</a>
</g>
</g>
<!-- Node3&#45;&gt;Node7 -->
<g id="edge12" class="edge"><title>Node3&#45;&gt;Node7</title>
<path fill="none" stroke="midnightblue" d="M211.184,-132.008C194.539,-122.952 174.864,-111.58 158,-100 126.006,-78.0313 91.6898,-48.3783 72.4286,-31.1087"/>
<polygon fill="midnightblue" stroke="midnightblue" points="209.617,-135.139 220.083,-136.788 212.93,-128.972 209.617,-135.139"/>
</g>
<!-- Node6 -->
<g id="node6" class="node"><title>Node6</title>
<g id="a_node6"><a xlink:href="../../df/db0/moc__roomba_8cpp.xhtml" target="_top" xlink:title="GUI/bin/debug/debug\l/moc_roomba.cpp">
<polygon fill="white" stroke="black" points="517.5,-1 517.5,-31 624.5,-31 624.5,-1 517.5,-1"/>
<text text-anchor="start" x="525.5" y="-19" font-family="Helvetica,sans-Serif" font-size="10.00">GUI/bin/debug/debug</text>
<text text-anchor="middle" x="571" y="-8" font-family="Helvetica,sans-Serif" font-size="10.00">/moc_roomba.cpp</text>
</a>
</g>
</g>
<!-- Node5&#45;&gt;Node6 -->
<g id="edge5" class="edge"><title>Node5&#45;&gt;Node6</title>
<path fill="none" stroke="midnightblue" d="M430.783,-65.4519C461.955,-54.6805 501.336,-41.0722 530.422,-31.0218"/>
<polygon fill="midnightblue" stroke="midnightblue" points="429.283,-62.2672 420.974,-68.8413 431.569,-68.8833 429.283,-62.2672"/>
</g>
<!-- Node5&#45;&gt;Node7 -->
<g id="edge6" class="edge"><title>Node5&#45;&gt;Node7</title>
<path fill="none" stroke="midnightblue" d="M314.775,-68.0082C228.792,-50.2015 205.548,-48.8086 124,-32 120.965,-31.3744 117.855,-30.7211 114.717,-30.0522"/>
<polygon fill="midnightblue" stroke="midnightblue" points="314.211,-71.4659 324.715,-70.0816 315.641,-64.6134 314.211,-71.4659"/>
</g>
<!-- Node8 -->
<g id="node8" class="node"><title>Node8</title>
<g id="a_node8"><a xlink:href="../../d1/d10/displaylogs_8cpp.xhtml" target="_top" xlink:title="GUI/Gui&#45;RoombaV1.0\l/displaylogs.cpp">
<polygon fill="white" stroke="black" points="643,-1 643,-31 753,-31 753,-1 643,-1"/>
<text text-anchor="start" x="651" y="-19" font-family="Helvetica,sans-Serif" font-size="10.00">GUI/Gui&#45;RoombaV1.0</text>
<text text-anchor="middle" x="698" y="-8" font-family="Helvetica,sans-Serif" font-size="10.00">/displaylogs.cpp</text>
</a>
</g>
</g>
<!-- Node5&#45;&gt;Node8 -->
<g id="edge7" class="edge"><title>Node5&#45;&gt;Node8</title>
<path fill="none" stroke="midnightblue" d="M445.3,-70.3561C496.45,-60.3266 569.359,-45.7548 633,-32 636.17,-31.315 639.423,-30.6003 642.705,-29.8708"/>
<polygon fill="midnightblue" stroke="midnightblue" points="444.51,-66.9441 435.369,-72.2999 445.855,-73.8138 444.51,-66.9441"/>
</g>
<!-- Node9 -->
<g id="node9" class="node"><title>Node9</title>
<g id="a_node9"><a xlink:href="../../da/d0b/information_8cpp.xhtml" target="_top" xlink:title="GUI/Gui&#45;RoombaV1.0\l/information.cpp">
<polygon fill="white" stroke="black" points="771,-1 771,-31 881,-31 881,-1 771,-1"/>
<text text-anchor="start" x="779" y="-19" font-family="Helvetica,sans-Serif" font-size="10.00">GUI/Gui&#45;RoombaV1.0</text>
<text text-anchor="middle" x="826" y="-8" font-family="Helvetica,sans-Serif" font-size="10.00">/information.cpp</text>
</a>
</g>
</g>
<!-- Node5&#45;&gt;Node9 -->
<g id="edge8" class="edge"><title>Node5&#45;&gt;Node9</title>
<path fill="none" stroke="midnightblue" d="M445.247,-76.2493C521.54,-67.9032 651.468,-52.2816 762,-32 764.918,-31.4645 767.904,-30.883 770.914,-30.2705"/>
<polygon fill="midnightblue" stroke="midnightblue" points="444.865,-72.7701 435.301,-77.3293 445.621,-79.7292 444.865,-72.7701"/>
</g>
<!-- Node10 -->
<g id="node10" class="node"><title>Node10</title>
<g id="a_node10"><a xlink:href="../../d8/da8/_gui-_roomba_v1_80_2main_8cpp.xhtml" target="_top" xlink:title="GUI/Gui&#45;RoombaV1.0\l/main.cpp">
<polygon fill="white" stroke="black" points="133,-1 133,-31 243,-31 243,-1 133,-1"/>
<text text-anchor="start" x="141" y="-19" font-family="Helvetica,sans-Serif" font-size="10.00">GUI/Gui&#45;RoombaV1.0</text>
<text text-anchor="middle" x="188" y="-8" font-family="Helvetica,sans-Serif" font-size="10.00">/main.cpp</text>
</a>
</g>
</g>
<!-- Node5&#45;&gt;Node10 -->
<g id="edge9" class="edge"><title>Node5&#45;&gt;Node10</title>
<path fill="none" stroke="midnightblue" d="M328.951,-65.4519C297.616,-54.6805 258.028,-41.0722 228.791,-31.0218"/>
<polygon fill="midnightblue" stroke="midnightblue" points="328.217,-68.9004 338.811,-68.8413 330.492,-62.2806 328.217,-68.9004"/>
</g>
<!-- Node11 -->
<g id="node11" class="node"><title>Node11</title>
<g id="a_node11"><a xlink:href="../../de/d67/roomba_8cpp.xhtml" target="_top" xlink:title="GUI/Gui&#45;RoombaV1.0\l/roomba.cpp">
<polygon fill="white" stroke="black" points="261,-1 261,-31 371,-31 371,-1 261,-1"/>
<text text-anchor="start" x="269" y="-19" font-family="Helvetica,sans-Serif" font-size="10.00">GUI/Gui&#45;RoombaV1.0</text>
<text text-anchor="middle" x="316" y="-8" font-family="Helvetica,sans-Serif" font-size="10.00">/roomba.cpp</text>
</a>
</g>
</g>
<!-- Node5&#45;&gt;Node11 -->
<g id="edge10" class="edge"><title>Node5&#45;&gt;Node11</title>
<path fill="none" stroke="midnightblue" d="M359.137,-61.4855C349.537,-51.5852 338.409,-40.1092 329.86,-31.2931"/>
<polygon fill="midnightblue" stroke="midnightblue" points="356.639,-63.9365 366.113,-68.679 361.664,-59.0634 356.639,-63.9365"/>
</g>
<!-- Node12 -->
<g id="node12" class="node"><title>Node12</title>
<g id="a_node12"><a xlink:href="../../da/d3b/settingsroomba_8cpp.xhtml" target="_top" xlink:title="GUI/Gui&#45;RoombaV1.0\l/settingsroomba.cpp">
<polygon fill="white" stroke="black" points="389,-1 389,-31 499,-31 499,-1 389,-1"/>
<text text-anchor="start" x="397" y="-19" font-family="Helvetica,sans-Serif" font-size="10.00">GUI/Gui&#45;RoombaV1.0</text>
<text text-anchor="middle" x="444" y="-8" font-family="Helvetica,sans-Serif" font-size="10.00">/settingsroomba.cpp</text>
</a>
</g>
</g>
<!-- Node5&#45;&gt;Node12 -->
<g id="edge11" class="edge"><title>Node5&#45;&gt;Node12</title>
<path fill="none" stroke="midnightblue" d="M400.863,-61.4855C410.463,-51.5852 421.591,-40.1092 430.14,-31.2931"/>
<polygon fill="midnightblue" stroke="midnightblue" points="398.336,-59.0634 393.887,-68.679 403.361,-63.9365 398.336,-59.0634"/>
</g>
<!-- Node15&#45;&gt;Node2 -->
<g id="edge17" class="edge"><title>Node15&#45;&gt;Node2</title>
<path fill="none" stroke="midnightblue" d="M571.103,-268.197C551.026,-257.68 526.411,-244.787 507.985,-235.135"/>
<polygon fill="midnightblue" stroke="midnightblue" points="569.487,-271.302 579.97,-272.841 572.736,-265.101 569.487,-271.302"/>
</g>
<!-- Node15&#45;&gt;Node5 -->
<g id="edge18" class="edge"><title>Node15&#45;&gt;Node5</title>
<path fill="none" stroke="midnightblue" d="M628.694,-265.165C657.37,-233.654 700.656,-174.947 668,-136 638.882,-101.273 510.35,-90.1786 435.197,-86.6441"/>
<polygon fill="midnightblue" stroke="midnightblue" points="626.05,-262.868 621.774,-272.562 631.162,-267.651 626.05,-262.868"/>
</g>
<!-- Node16 -->
<g id="node16" class="node"><title>Node16</title>
<g id="a_node16"><a xlink:href="../../d7/d4e/sensordata_8cpp.xhtml" target="_top" xlink:title="GUI/Gui&#45;RoombaV1.0\l/sensordata.cpp">
<polygon fill="white" stroke="black" points="706,-205 706,-235 816,-235 816,-205 706,-205"/>
<text text-anchor="start" x="714" y="-223" font-family="Helvetica,sans-Serif" font-size="10.00">GUI/Gui&#45;RoombaV1.0</text>
<text text-anchor="middle" x="761" y="-212" font-family="Helvetica,sans-Serif" font-size="10.00">/sensordata.cpp</text>
</a>
</g>
</g>
<!-- Node15&#45;&gt;Node16 -->
<g id="edge19" class="edge"><title>Node15&#45;&gt;Node16</title>
<path fill="none" stroke="midnightblue" d="M649.257,-268.89C674.176,-258.21 705.238,-244.898 728.282,-235.022"/>
<polygon fill="midnightblue" stroke="midnightblue" points="647.85,-265.685 640.037,-272.841 650.607,-272.119 647.85,-265.685"/>
</g>
<!-- Node19 -->
<g id="node19" class="node"><title>Node19</title>
<g id="a_node19"><a xlink:href="../../db/df5/eventchat_8cpp.xhtml" target="_top" xlink:title="GUI/resources/events\l/eventchat.cpp">
<polygon fill="white" stroke="black" points="834,-205 834,-235 944,-235 944,-205 834,-205"/>
<text text-anchor="start" x="842" y="-223" font-family="Helvetica,sans-Serif" font-size="10.00">GUI/resources/events</text>
<text text-anchor="middle" x="889" y="-212" font-family="Helvetica,sans-Serif" font-size="10.00">/eventchat.cpp</text>
</a>
</g>
</g>
<!-- Node18&#45;&gt;Node19 -->
<g id="edge24" class="edge"><title>Node18&#45;&gt;Node19</title>
<path fill="none" stroke="midnightblue" d="M889,-262.532C889,-253.361 889,-243.245 889,-235.293"/>
<polygon fill="midnightblue" stroke="midnightblue" points="885.5,-262.679 889,-272.679 892.5,-262.679 885.5,-262.679"/>
</g>
<!-- Node20 -->
<g id="node20" class="node"><title>Node20</title>
<g id="a_node20"><a xlink:href="../../db/dd2/events_8h.xhtml" target="_top" xlink:title="GUI/resources/events\l/events.h">
<polygon fill="white" stroke="black" points="1218,-205 1218,-235 1328,-235 1328,-205 1218,-205"/>
<text text-anchor="start" x="1226" y="-223" font-family="Helvetica,sans-Serif" font-size="10.00">GUI/resources/events</text>
<text text-anchor="middle" x="1273" y="-212" font-family="Helvetica,sans-Serif" font-size="10.00">/events.h</text>
</a>
</g>
</g>
<!-- Node18&#45;&gt;Node20 -->
<g id="edge25" class="edge"><title>Node18&#45;&gt;Node20</title>
<path fill="none" stroke="midnightblue" d="M954.226,-271.879C1067.71,-251.202 1099.26,-256.532 1209,-236 1211.92,-235.454 1214.9,-234.865 1217.91,-234.246"/>
<polygon fill="midnightblue" stroke="midnightblue" points="953.287,-268.493 944.091,-273.754 954.561,-275.376 953.287,-268.493"/>
</g>
<!-- Node21&#45;&gt;Node20 -->
<g id="edge27" class="edge"><title>Node21&#45;&gt;Node20</title>
<path fill="none" stroke="midnightblue" d="M1081.52,-270.367C1123.77,-259.472 1178.4,-245.39 1218.48,-235.056"/>
<polygon fill="midnightblue" stroke="midnightblue" points="1080.41,-267.037 1071.6,-272.922 1082.16,-273.815 1080.41,-267.037"/>
</g>
<!-- Node22 -->
<g id="node22" class="node"><title>Node22</title>
<g id="a_node22"><a xlink:href="../../d0/ddb/eventuserjoin_8cpp.xhtml" target="_top" xlink:title="GUI/resources/events\l/eventuserjoin.cpp">
<polygon fill="white" stroke="black" points="962,-205 962,-235 1072,-235 1072,-205 962,-205"/>
<text text-anchor="start" x="970" y="-223" font-family="Helvetica,sans-Serif" font-size="10.00">GUI/resources/events</text>
<text text-anchor="middle" x="1017" y="-212" font-family="Helvetica,sans-Serif" font-size="10.00">/eventuserjoin.cpp</text>
</a>
</g>
</g>
<!-- Node21&#45;&gt;Node22 -->
<g id="edge28" class="edge"><title>Node21&#45;&gt;Node22</title>
<path fill="none" stroke="midnightblue" d="M1017,-262.532C1017,-253.361 1017,-243.245 1017,-235.293"/>
<polygon fill="midnightblue" stroke="midnightblue" points="1013.5,-262.679 1017,-272.679 1020.5,-262.679 1013.5,-262.679"/>
</g>
<!-- Node23&#45;&gt;Node20 -->
<g id="edge30" class="edge"><title>Node23&#45;&gt;Node20</title>
<path fill="none" stroke="midnightblue" d="M1181.47,-268.197C1201.86,-257.68 1226.87,-244.787 1245.59,-235.135"/>
<polygon fill="midnightblue" stroke="midnightblue" points="1179.74,-265.148 1172.46,-272.841 1182.95,-271.369 1179.74,-265.148"/>
</g>
<!-- Node24 -->
<g id="node24" class="node"><title>Node24</title>
<g id="a_node24"><a xlink:href="../../df/d4c/eventuserleave_8cpp.xhtml" target="_top" xlink:title="GUI/resources/events\l/eventuserleave.cpp">
<polygon fill="white" stroke="black" points="1090,-205 1090,-235 1200,-235 1200,-205 1090,-205"/>
<text text-anchor="start" x="1098" y="-223" font-family="Helvetica,sans-Serif" font-size="10.00">GUI/resources/events</text>
<text text-anchor="middle" x="1145" y="-212" font-family="Helvetica,sans-Serif" font-size="10.00">/eventuserleave.cpp</text>
</a>
</g>
</g>
<!-- Node23&#45;&gt;Node24 -->
<g id="edge31" class="edge"><title>Node23&#45;&gt;Node24</title>
<path fill="none" stroke="midnightblue" d="M1145,-262.532C1145,-253.361 1145,-243.245 1145,-235.293"/>
<polygon fill="midnightblue" stroke="midnightblue" points="1141.5,-262.679 1145,-272.679 1148.5,-262.679 1141.5,-262.679"/>
</g>
<!-- Node25&#45;&gt;Node20 -->
<g id="edge33" class="edge"><title>Node25&#45;&gt;Node20</title>
<path fill="none" stroke="midnightblue" d="M1278.66,-262.532C1277.41,-253.361 1276.03,-243.245 1274.95,-235.293"/>
<polygon fill="midnightblue" stroke="midnightblue" points="1275.23,-263.244 1280.05,-272.679 1282.16,-262.298 1275.23,-263.244"/>
</g>
<!-- Node26 -->
<g id="node26" class="node"><title>Node26</title>
<g id="a_node26"><a xlink:href="../../da/d88/eventuserchangestatus_8cpp.xhtml" target="_top" xlink:title="GUI/resources/events\l/eventuserchangestatus.cpp">
<polygon fill="white" stroke="black" points="1346,-205 1346,-235 1484,-235 1484,-205 1346,-205"/>
<text text-anchor="start" x="1354" y="-223" font-family="Helvetica,sans-Serif" font-size="10.00">GUI/resources/events</text>
<text text-anchor="middle" x="1415" y="-212" font-family="Helvetica,sans-Serif" font-size="10.00">/eventuserchangestatus.cpp</text>
</a>
</g>
</g>
<!-- Node25&#45;&gt;Node26 -->
<g id="edge34" class="edge"><title>Node25&#45;&gt;Node26</title>
<path fill="none" stroke="midnightblue" d="M1319.61,-268.339C1340.85,-257.796 1366.98,-244.83 1386.52,-235.135"/>
<polygon fill="midnightblue" stroke="midnightblue" points="1317.93,-265.261 1310.53,-272.841 1321.05,-271.531 1317.93,-265.261"/>
</g>
<!-- Node27&#45;&gt;Node20 -->
<g id="edge36" class="edge"><title>Node27&#45;&gt;Node20</title>
<path fill="none" stroke="midnightblue" d="M1382.24,-268.749C1357.86,-258.093 1327.58,-244.855 1305.08,-235.022"/>
<polygon fill="midnightblue" stroke="midnightblue" points="1381.04,-272.043 1391.61,-272.841 1383.85,-265.629 1381.04,-272.043"/>
</g>
<!-- Node28 -->
<g id="node28" class="node"><title>Node28</title>
<g id="a_node28"><a xlink:href="../../dd/d4b/eventuserchangenick_8cpp.xhtml" target="_top" xlink:title="GUI/resources/events\l/eventuserchangenick.cpp">
<polygon fill="white" stroke="black" points="1502.5,-205 1502.5,-235 1631.5,-235 1631.5,-205 1502.5,-205"/>
<text text-anchor="start" x="1510.5" y="-223" font-family="Helvetica,sans-Serif" font-size="10.00">GUI/resources/events</text>
<text text-anchor="middle" x="1567" y="-212" font-family="Helvetica,sans-Serif" font-size="10.00">/eventuserchangenick.cpp</text>
</a>
</g>
</g>
<!-- Node27&#45;&gt;Node28 -->
<g id="edge37" class="edge"><title>Node27&#45;&gt;Node28</title>
<path fill="none" stroke="midnightblue" d="M1463.82,-268.622C1486.77,-258.029 1515.18,-244.917 1536.37,-235.135"/>
<polygon fill="midnightblue" stroke="midnightblue" points="1462.29,-265.473 1454.68,-272.841 1465.22,-271.829 1462.29,-265.473"/>
</g>
<!-- Node29&#45;&gt;Node20 -->
<g id="edge39" class="edge"><title>Node29&#45;&gt;Node20</title>
<path fill="none" stroke="midnightblue" d="M1491.99,-271.547C1447.81,-261.483 1388.98,-248.035 1337,-236 1334.11,-235.331 1331.15,-234.643 1328.15,-233.946"/>
<polygon fill="midnightblue" stroke="midnightblue" points="1491.23,-274.963 1501.76,-273.77 1492.78,-268.137 1491.23,-274.963"/>
</g>
<!-- Node30 -->
<g id="node30" class="node"><title>Node30</title>
<g id="a_node30"><a xlink:href="../../d3/d54/eventservermessage_8cpp.xhtml" target="_top" xlink:title="GUI/resources/events\l/eventservermessage.cpp">
<polygon fill="white" stroke="black" points="1650,-205 1650,-235 1776,-235 1776,-205 1650,-205"/>
<text text-anchor="start" x="1658" y="-223" font-family="Helvetica,sans-Serif" font-size="10.00">GUI/resources/events</text>
<text text-anchor="middle" x="1713" y="-212" font-family="Helvetica,sans-Serif" font-size="10.00">/eventservermessage.cpp</text>
</a>
</g>
</g>
<!-- Node29&#45;&gt;Node30 -->
<g id="edge40" class="edge"><title>Node29&#45;&gt;Node30</title>
<path fill="none" stroke="midnightblue" d="M1602.31,-268.749C1627.01,-258.093 1657.7,-244.855 1680.49,-235.022"/>
<polygon fill="midnightblue" stroke="midnightblue" points="1600.62,-265.667 1592.82,-272.841 1603.39,-272.094 1600.62,-265.667"/>
</g>
</g>
</svg>
