<?xml version="1.0" encoding="UTF-8" standalone="no"?>
<!DOCTYPE svg PUBLIC "-//W3C//DTD SVG 1.1//EN"
 "http://www.w3.org/Graphics/SVG/1.1/DTD/svg11.dtd">
<!-- Generated by graphviz version 2.30.1 (20130214.1330)
 -->
<!-- Title: GUI/resources/clsevent.h Pages: 1 -->
<!--zoomable 368 -->
<svg id="main" version="1.1" xmlns="http://www.w3.org/2000/svg" xmlns:xlink="http://www.w3.org/1999/xlink" xml:space="preserve" onload="init(evt)">
        <defs>
                <circle id="rim" cx="0" cy="0" r="7"/>
                <circle id="rim2" cx="0" cy="0" r="3.5"/>
                <g id="zoomPlus">
                        <use xlink:href="#rim" fill="#404040">
                                <set attributeName="fill" to="#808080" begin="zoomplus.mouseover" end="zoomplus.mouseout"/>
                        </use>
                        <path d="M-4,0h8M0,-4v8" fill="none" stroke="white" stroke-width="1.5" pointer-events="none"/>
                </g>
                <g id="zoomMin">
                        <use xlink:href="#rim" fill="#404040">
                                <set attributeName="fill" to="#808080" begin="zoomminus.mouseover" end="zoomminus.mouseout"/>
                        </use>
                        <path d="M-4,0h8" fill="none" stroke="white" stroke-width="1.5" pointer-events="none"/>
                </g>
                <g id="dirArrow">
                        <path fill="none" stroke="white" stroke-width="1.5" d="M0,-3.0v7 M-2.5,-0.5L0,-3.0L2.5,-0.5"/>
                </g>
               <g id="resetDef">
                       <use xlink:href="#rim2" fill="#404040">
                               <set attributeName="fill" to="#808080" begin="reset.mouseover" end="reset.mouseout"/>
                       </use>
               </g>
        </defs>

<script type="text/javascript">
var viewWidth = 1189;
var viewHeight = 368;
var sectionId = 'dynsection-1';
</script>
<script xlink:href="../../svgpan.js"/>
<svg id="graph" class="graph">
<g id="viewport">
<title>GUI/resources/clsevent.h</title>
<polygon fill="white" stroke="white" points="-4,5 -4,-364 1186,-364 1186,5 -4,5"/>
<!-- Node1 -->
<g id="node1" class="node"><title>Node1</title>
<polygon fill="#bfbfbf" stroke="black" points="555.5,-340.5 555.5,-359.5 680.5,-359.5 680.5,-340.5 555.5,-340.5"/>
<text text-anchor="middle" x="618" y="-347.5" font-family="Helvetica,sans-Serif" font-size="10.00">GUI/resources/clsevent.h</text>
</g>
<!-- Node2 -->
<g id="node2" class="node"><title>Node2</title>
<g id="a_node2"><a xlink:href="../../d4/dca/_roomba_connect_8h.xhtml" target="_top" xlink:title="GUI/Gui&#45;RoombaV1.0\l/RoombaConnect.h">
<polygon fill="white" stroke="black" points="389,-137 389,-167 499,-167 499,-137 389,-137"/>
<text text-anchor="start" x="397" y="-155" font-family="Helvetica,sans-Serif" font-size="10.00">GUI/Gui&#45;RoombaV1.0</text>
<text text-anchor="middle" x="444" y="-144" font-family="Helvetica,sans-Serif" font-size="10.00">/RoombaConnect.h</text>
</a>
</g>
</g>
<!-- Node1&#45;&gt;Node2 -->
<g id="edge1" class="edge"><title>Node1&#45;&gt;Node2</title>
<path fill="none" stroke="midnightblue" d="M545.271,-345.703C438.729,-340.117 250.564,-327.087 230,-304 200.439,-270.812 202.456,-238.88 230,-204 249.469,-179.346 332.279,-165.318 388.988,-158.44"/>
<polygon fill="midnightblue" stroke="midnightblue" points="545.152,-349.201 555.319,-346.22 545.512,-342.211 545.152,-349.201"/>
</g>
<!-- Node11 -->
<g id="node11" class="node"><title>Node11</title>
<g id="a_node11"><a xlink:href="../../db/d70/eventchat_8h.xhtml" target="_top" xlink:title="GUI/resources/events\l/eventchat.h">
<polygon fill="white" stroke="black" points="239,-273 239,-303 349,-303 349,-273 239,-273"/>
<text text-anchor="start" x="247" y="-291" font-family="Helvetica,sans-Serif" font-size="10.00">GUI/resources/events</text>
<text text-anchor="middle" x="294" y="-280" font-family="Helvetica,sans-Serif" font-size="10.00">/eventchat.h</text>
</a>
</g>
</g>
<!-- Node1&#45;&gt;Node11 -->
<g id="edge10" class="edge"><title>Node1&#45;&gt;Node11</title>
<path fill="none" stroke="midnightblue" d="M553.404,-338.904C500.675,-330.403 424.315,-317.498 358,-304 355.092,-303.408 352.115,-302.782 349.113,-302.134"/>
<polygon fill="midnightblue" stroke="midnightblue" points="552.867,-342.363 563.295,-340.492 553.976,-335.451 552.867,-342.363"/>
</g>
<!-- Node14 -->
<g id="node14" class="node"><title>Node14</title>
<g id="a_node14"><a xlink:href="../../d5/d02/eventuserjoin_8h.xhtml" target="_top" xlink:title="GUI/resources/events\l/eventuserjoin.h">
<polygon fill="white" stroke="black" points="367,-273 367,-303 477,-303 477,-273 367,-273"/>
<text text-anchor="start" x="375" y="-291" font-family="Helvetica,sans-Serif" font-size="10.00">GUI/resources/events</text>
<text text-anchor="middle" x="422" y="-280" font-family="Helvetica,sans-Serif" font-size="10.00">/eventuserjoin.h</text>
</a>
</g>
</g>
<!-- Node1&#45;&gt;Node14 -->
<g id="edge14" class="edge"><title>Node1&#45;&gt;Node14</title>
<path fill="none" stroke="midnightblue" d="M580.028,-337.376C547.955,-327.558 501.93,-313.468 467.816,-303.025"/>
<polygon fill="midnightblue" stroke="midnightblue" points="579.331,-340.823 589.918,-340.403 581.38,-334.13 579.331,-340.823"/>
</g>
<!-- Node16 -->
<g id="node16" class="node"><title>Node16</title>
<g id="a_node16"><a xlink:href="../../d7/d56/eventuserleave_8h.xhtml" target="_top" xlink:title="GUI/resources/events\l/eventuserleave.h">
<polygon fill="white" stroke="black" points="495,-273 495,-303 605,-303 605,-273 495,-273"/>
<text text-anchor="start" x="503" y="-291" font-family="Helvetica,sans-Serif" font-size="10.00">GUI/resources/events</text>
<text text-anchor="middle" x="550" y="-280" font-family="Helvetica,sans-Serif" font-size="10.00">/eventuserleave.h</text>
</a>
</g>
</g>
<!-- Node1&#45;&gt;Node16 -->
<g id="edge17" class="edge"><title>Node1&#45;&gt;Node16</title>
<path fill="none" stroke="midnightblue" d="M600.453,-333.517C589.824,-324.138 576.368,-312.266 566.026,-303.141"/>
<polygon fill="midnightblue" stroke="midnightblue" points="598.443,-336.412 608.257,-340.403 603.075,-331.163 598.443,-336.412"/>
</g>
<!-- Node18 -->
<g id="node18" class="node"><title>Node18</title>
<g id="a_node18"><a xlink:href="../../db/db0/eventuserchangestatus_8h.xhtml" target="_top" xlink:title="GUI/resources/events\l/eventuserchangestatus.h">
<polygon fill="white" stroke="black" points="623,-273 623,-303 751,-303 751,-273 623,-273"/>
<text text-anchor="start" x="631" y="-291" font-family="Helvetica,sans-Serif" font-size="10.00">GUI/resources/events</text>
<text text-anchor="middle" x="687" y="-280" font-family="Helvetica,sans-Serif" font-size="10.00">/eventuserchangestatus.h</text>
</a>
</g>
</g>
<!-- Node1&#45;&gt;Node18 -->
<g id="edge20" class="edge"><title>Node1&#45;&gt;Node18</title>
<path fill="none" stroke="midnightblue" d="M635.486,-333.795C646.32,-324.374 660.14,-312.356 670.738,-303.141"/>
<polygon fill="midnightblue" stroke="midnightblue" points="633.135,-331.201 627.886,-340.403 637.729,-336.483 633.135,-331.201"/>
</g>
<!-- Node20 -->
<g id="node20" class="node"><title>Node20</title>
<g id="a_node20"><a xlink:href="../../d8/d44/eventuserchangenick_8h.xhtml" target="_top" xlink:title="GUI/resources/events\l/eventuserchangenick.h">
<polygon fill="white" stroke="black" points="769.5,-273 769.5,-303 888.5,-303 888.5,-273 769.5,-273"/>
<text text-anchor="start" x="777.5" y="-291" font-family="Helvetica,sans-Serif" font-size="10.00">GUI/resources/events</text>
<text text-anchor="middle" x="829" y="-280" font-family="Helvetica,sans-Serif" font-size="10.00">/eventuserchangenick.h</text>
</a>
</g>
</g>
<!-- Node1&#45;&gt;Node20 -->
<g id="edge23" class="edge"><title>Node1&#45;&gt;Node20</title>
<path fill="none" stroke="midnightblue" d="M657.985,-337.63C692.546,-327.802 742.635,-313.559 779.678,-303.025"/>
<polygon fill="midnightblue" stroke="midnightblue" points="656.892,-334.302 648.231,-340.403 658.807,-341.035 656.892,-334.302"/>
</g>
<!-- Node22 -->
<g id="node22" class="node"><title>Node22</title>
<g id="a_node22"><a xlink:href="../../da/d66/eventservermessage_8h.xhtml" target="_top" xlink:title="GUI/resources/events\l/eventservermessage.h">
<polygon fill="white" stroke="black" points="907,-273 907,-303 1023,-303 1023,-273 907,-273"/>
<text text-anchor="start" x="915" y="-291" font-family="Helvetica,sans-Serif" font-size="10.00">GUI/resources/events</text>
<text text-anchor="middle" x="965" y="-280" font-family="Helvetica,sans-Serif" font-size="10.00">/eventservermessage.h</text>
</a>
</g>
</g>
<!-- Node1&#45;&gt;Node22 -->
<g id="edge26" class="edge"><title>Node1&#45;&gt;Node22</title>
<path fill="none" stroke="midnightblue" d="M686.863,-339.015C743.448,-330.541 825.621,-317.618 897,-304 900.206,-303.388 903.493,-302.739 906.807,-302.066"/>
<polygon fill="midnightblue" stroke="midnightblue" points="686.33,-335.555 676.956,-340.492 687.362,-342.479 686.33,-335.555"/>
</g>
<!-- Node24 -->
<g id="node24" class="node"><title>Node24</title>
<g id="a_node24"><a xlink:href="../../da/de6/clsevent_8cpp.xhtml" target="_top" xlink:title="GUI/resources/clsevent.cpp">
<polygon fill="white" stroke="black" points="1041,-278.5 1041,-297.5 1177,-297.5 1177,-278.5 1041,-278.5"/>
<text text-anchor="middle" x="1109" y="-285.5" font-family="Helvetica,sans-Serif" font-size="10.00">GUI/resources/clsevent.cpp</text>
</a>
</g>
</g>
<!-- Node1&#45;&gt;Node24 -->
<g id="edge29" class="edge"><title>Node1&#45;&gt;Node24</title>
<path fill="none" stroke="midnightblue" d="M690.702,-342.963C773.565,-335.65 912.943,-322.034 1032,-304 1043.98,-302.185 1056.94,-299.819 1068.75,-297.504"/>
<polygon fill="midnightblue" stroke="midnightblue" points="690.291,-339.486 680.635,-343.845 690.902,-346.459 690.291,-339.486"/>
</g>
<!-- Node3 -->
<g id="node3" class="node"><title>Node3</title>
<g id="a_node3"><a xlink:href="../../dd/da1/roomba_8h.xhtml" target="_top" xlink:title="GUI/Gui&#45;RoombaV1.0\l/roomba.h">
<polygon fill="white" stroke="black" points="325,-69 325,-99 435,-99 435,-69 325,-69"/>
<text text-anchor="start" x="333" y="-87" font-family="Helvetica,sans-Serif" font-size="10.00">GUI/Gui&#45;RoombaV1.0</text>
<text text-anchor="middle" x="380" y="-76" font-family="Helvetica,sans-Serif" font-size="10.00">/roomba.h</text>
</a>
</g>
</g>
<!-- Node2&#45;&gt;Node3 -->
<g id="edge2" class="edge"><title>Node2&#45;&gt;Node3</title>
<path fill="none" stroke="midnightblue" d="M423.137,-129.485C413.537,-119.585 402.409,-108.109 393.86,-99.2931"/>
<polygon fill="midnightblue" stroke="midnightblue" points="420.639,-131.936 430.113,-136.679 425.664,-127.063 420.639,-131.936"/>
</g>
<!-- Node10 -->
<g id="node10" class="node"><title>Node10</title>
<g id="a_node10"><a xlink:href="../../d7/da4/_roomba_connect_8cpp.xhtml" target="_top" xlink:title="GUI/Gui&#45;RoombaV1.0\l/RoombaConnect.cpp">
<polygon fill="white" stroke="black" points="453,-69 453,-99 563,-99 563,-69 453,-69"/>
<text text-anchor="start" x="461" y="-87" font-family="Helvetica,sans-Serif" font-size="10.00">GUI/Gui&#45;RoombaV1.0</text>
<text text-anchor="middle" x="508" y="-76" font-family="Helvetica,sans-Serif" font-size="10.00">/RoombaConnect.cpp</text>
</a>
</g>
</g>
<!-- Node2&#45;&gt;Node10 -->
<g id="edge9" class="edge"><title>Node2&#45;&gt;Node10</title>
<path fill="none" stroke="midnightblue" d="M464.863,-129.485C474.463,-119.585 485.591,-108.109 494.14,-99.2931"/>
<polygon fill="midnightblue" stroke="midnightblue" points="462.336,-127.063 457.887,-136.679 467.361,-131.936 462.336,-127.063"/>
</g>
<!-- Node4 -->
<g id="node4" class="node"><title>Node4</title>
<g id="a_node4"><a xlink:href="../../d5/dd2/controllingroomba_8cpp.xhtml" target="_top" xlink:title="GUI/Gui&#45;RoombaV1.0\l/controllingroomba.cpp">
<polygon fill="white" stroke="black" points="-0.5,-1 -0.5,-31 114.5,-31 114.5,-1 -0.5,-1"/>
<text text-anchor="start" x="7.5" y="-19" font-family="Helvetica,sans-Serif" font-size="10.00">GUI/Gui&#45;RoombaV1.0</text>
<text text-anchor="middle" x="57" y="-8" font-family="Helvetica,sans-Serif" font-size="10.00">/controllingroomba.cpp</text>
</a>
</g>
</g>
<!-- Node3&#45;&gt;Node4 -->
<g id="edge3" class="edge"><title>Node3&#45;&gt;Node4</title>
<path fill="none" stroke="midnightblue" d="M314.942,-70.4791C263.149,-60.4049 188.843,-45.7154 124,-32 120.968,-31.3587 117.861,-30.6929 114.725,-30.0142"/>
<polygon fill="midnightblue" stroke="midnightblue" points="314.508,-73.96 324.992,-72.4307 315.842,-67.0884 314.508,-73.96"/>
</g>
<!-- Node5 -->
<g id="node5" class="node"><title>Node5</title>
<g id="a_node5"><a xlink:href="../../d1/d10/displaylogs_8cpp.xhtml" target="_top" xlink:title="GUI/Gui&#45;RoombaV1.0\l/displaylogs.cpp">
<polygon fill="white" stroke="black" points="133,-1 133,-31 243,-31 243,-1 133,-1"/>
<text text-anchor="start" x="141" y="-19" font-family="Helvetica,sans-Serif" font-size="10.00">GUI/Gui&#45;RoombaV1.0</text>
<text text-anchor="middle" x="188" y="-8" font-family="Helvetica,sans-Serif" font-size="10.00">/displaylogs.cpp</text>
</a>
</g>
</g>
<!-- Node3&#45;&gt;Node5 -->
<g id="edge4" class="edge"><title>Node3&#45;&gt;Node5</title>
<path fill="none" stroke="midnightblue" d="M328.951,-65.4519C297.616,-54.6805 258.028,-41.0722 228.791,-31.0218"/>
<polygon fill="midnightblue" stroke="midnightblue" points="328.217,-68.9004 338.811,-68.8413 330.492,-62.2806 328.217,-68.9004"/>
</g>
<!-- Node6 -->
<g id="node6" class="node"><title>Node6</title>
<g id="a_node6"><a xlink:href="../../da/d0b/information_8cpp.xhtml" target="_top" xlink:title="GUI/Gui&#45;RoombaV1.0\l/information.cpp">
<polygon fill="white" stroke="black" points="261,-1 261,-31 371,-31 371,-1 261,-1"/>
<text text-anchor="start" x="269" y="-19" font-family="Helvetica,sans-Serif" font-size="10.00">GUI/Gui&#45;RoombaV1.0</text>
<text text-anchor="middle" x="316" y="-8" font-family="Helvetica,sans-Serif" font-size="10.00">/information.cpp</text>
</a>
</g>
</g>
<!-- Node3&#45;&gt;Node6 -->
<g id="edge5" class="edge"><title>Node3&#45;&gt;Node6</title>
<path fill="none" stroke="midnightblue" d="M359.137,-61.4855C349.537,-51.5852 338.409,-40.1092 329.86,-31.2931"/>
<polygon fill="midnightblue" stroke="midnightblue" points="356.639,-63.9365 366.113,-68.679 361.664,-59.0634 356.639,-63.9365"/>
</g>
<!-- Node7 -->
<g id="node7" class="node"><title>Node7</title>
<g id="a_node7"><a xlink:href="../../df/d0a/main_8cpp.xhtml" target="_top" xlink:title="GUI/Gui&#45;RoombaV1.0\l/main.cpp">
<polygon fill="white" stroke="black" points="389,-1 389,-31 499,-31 499,-1 389,-1"/>
<text text-anchor="start" x="397" y="-19" font-family="Helvetica,sans-Serif" font-size="10.00">GUI/Gui&#45;RoombaV1.0</text>
<text text-anchor="middle" x="444" y="-8" font-family="Helvetica,sans-Serif" font-size="10.00">/main.cpp</text>
</a>
</g>
</g>
<!-- Node3&#45;&gt;Node7 -->
<g id="edge6" class="edge"><title>Node3&#45;&gt;Node7</title>
<path fill="none" stroke="midnightblue" d="M400.863,-61.4855C410.463,-51.5852 421.591,-40.1092 430.14,-31.2931"/>
<polygon fill="midnightblue" stroke="midnightblue" points="398.336,-59.0634 393.887,-68.679 403.361,-63.9365 398.336,-59.0634"/>
</g>
<!-- Node8 -->
<g id="node8" class="node"><title>Node8</title>
<g id="a_node8"><a xlink:href="../../de/d67/roomba_8cpp.xhtml" target="_top" xlink:title="GUI/Gui&#45;RoombaV1.0\l/roomba.cpp">
<polygon fill="white" stroke="black" points="517,-1 517,-31 627,-31 627,-1 517,-1"/>
<text text-anchor="start" x="525" y="-19" font-family="Helvetica,sans-Serif" font-size="10.00">GUI/Gui&#45;RoombaV1.0</text>
<text text-anchor="middle" x="572" y="-8" font-family="Helvetica,sans-Serif" font-size="10.00">/roomba.cpp</text>
</a>
</g>
</g>
<!-- Node3&#45;&gt;Node8 -->
<g id="edge7" class="edge"><title>Node3&#45;&gt;Node8</title>
<path fill="none" stroke="midnightblue" d="M431.049,-65.4519C462.384,-54.6805 501.972,-41.0722 531.209,-31.0218"/>
<polygon fill="midnightblue" stroke="midnightblue" points="429.508,-62.2806 421.189,-68.8413 431.783,-68.9004 429.508,-62.2806"/>
</g>
<!-- Node9 -->
<g id="node9" class="node"><title>Node9</title>
<g id="a_node9"><a xlink:href="../../da/d3b/settingsroomba_8cpp.xhtml" target="_top" xlink:title="GUI/Gui&#45;RoombaV1.0\l/settingsroomba.cpp">
<polygon fill="white" stroke="black" points="645,-1 645,-31 755,-31 755,-1 645,-1"/>
<text text-anchor="start" x="653" y="-19" font-family="Helvetica,sans-Serif" font-size="10.00">GUI/Gui&#45;RoombaV1.0</text>
<text text-anchor="middle" x="700" y="-8" font-family="Helvetica,sans-Serif" font-size="10.00">/settingsroomba.cpp</text>
</a>
</g>
</g>
<!-- Node3&#45;&gt;Node9 -->
<g id="edge8" class="edge"><title>Node3&#45;&gt;Node9</title>
<path fill="none" stroke="midnightblue" d="M445.019,-67.8411C530.632,-50.0536 554.117,-49.2632 636,-32 638.903,-31.3879 641.877,-30.7454 644.877,-30.085"/>
<polygon fill="midnightblue" stroke="midnightblue" points="444.192,-64.4383 435.123,-69.915 445.628,-71.2895 444.192,-64.4383"/>
</g>
<!-- Node12 -->
<g id="node12" class="node"><title>Node12</title>
<g id="a_node12"><a xlink:href="../../db/dd2/events_8h.xhtml" target="_top" xlink:title="GUI/resources/events\l/events.h">
<polygon fill="white" stroke="black" points="623,-205 623,-235 733,-235 733,-205 623,-205"/>
<text text-anchor="start" x="631" y="-223" font-family="Helvetica,sans-Serif" font-size="10.00">GUI/resources/events</text>
<text text-anchor="middle" x="678" y="-212" font-family="Helvetica,sans-Serif" font-size="10.00">/events.h</text>
</a>
</g>
</g>
<!-- Node11&#45;&gt;Node12 -->
<g id="edge11" class="edge"><title>Node11&#45;&gt;Node12</title>
<path fill="none" stroke="midnightblue" d="M359.226,-271.879C472.71,-251.202 504.261,-256.532 614,-236 616.917,-235.454 619.901,-234.865 622.909,-234.246"/>
<polygon fill="midnightblue" stroke="midnightblue" points="358.287,-268.493 349.091,-273.754 359.561,-275.376 358.287,-268.493"/>
</g>
<!-- Node13 -->
<g id="node13" class="node"><title>Node13</title>
<g id="a_node13"><a xlink:href="../../db/df5/eventchat_8cpp.xhtml" target="_top" xlink:title="GUI/resources/events\l/eventchat.cpp">
<polygon fill="white" stroke="black" points="239,-205 239,-235 349,-235 349,-205 239,-205"/>
<text text-anchor="start" x="247" y="-223" font-family="Helvetica,sans-Serif" font-size="10.00">GUI/resources/events</text>
<text text-anchor="middle" x="294" y="-212" font-family="Helvetica,sans-Serif" font-size="10.00">/eventchat.cpp</text>
</a>
</g>
</g>
<!-- Node11&#45;&gt;Node13 -->
<g id="edge13" class="edge"><title>Node11&#45;&gt;Node13</title>
<path fill="none" stroke="midnightblue" d="M294,-262.532C294,-253.361 294,-243.245 294,-235.293"/>
<polygon fill="midnightblue" stroke="midnightblue" points="290.5,-262.679 294,-272.679 297.5,-262.679 290.5,-262.679"/>
</g>
<!-- Node12&#45;&gt;Node2 -->
<g id="edge12" class="edge"><title>Node12&#45;&gt;Node2</title>
<path fill="none" stroke="midnightblue" d="M618.048,-202.091C579.559,-191.235 530.165,-177.303 493.835,-167.056"/>
<polygon fill="midnightblue" stroke="midnightblue" points="617.514,-205.576 628.088,-204.922 619.414,-198.839 617.514,-205.576"/>
</g>
<!-- Node14&#45;&gt;Node12 -->
<g id="edge15" class="edge"><title>Node14&#45;&gt;Node12</title>
<path fill="none" stroke="midnightblue" d="M486.516,-270.367C528.775,-259.472 583.396,-245.39 623.479,-235.056"/>
<polygon fill="midnightblue" stroke="midnightblue" points="485.414,-267.037 476.604,-272.922 487.162,-273.815 485.414,-267.037"/>
</g>
<!-- Node15 -->
<g id="node15" class="node"><title>Node15</title>
<g id="a_node15"><a xlink:href="../../d0/ddb/eventuserjoin_8cpp.xhtml" target="_top" xlink:title="GUI/resources/events\l/eventuserjoin.cpp">
<polygon fill="white" stroke="black" points="367,-205 367,-235 477,-235 477,-205 367,-205"/>
<text text-anchor="start" x="375" y="-223" font-family="Helvetica,sans-Serif" font-size="10.00">GUI/resources/events</text>
<text text-anchor="middle" x="422" y="-212" font-family="Helvetica,sans-Serif" font-size="10.00">/eventuserjoin.cpp</text>
</a>
</g>
</g>
<!-- Node14&#45;&gt;Node15 -->
<g id="edge16" class="edge"><title>Node14&#45;&gt;Node15</title>
<path fill="none" stroke="midnightblue" d="M422,-262.532C422,-253.361 422,-243.245 422,-235.293"/>
<polygon fill="midnightblue" stroke="midnightblue" points="418.5,-262.679 422,-272.679 425.5,-262.679 418.5,-262.679"/>
</g>
<!-- Node16&#45;&gt;Node12 -->
<g id="edge18" class="edge"><title>Node16&#45;&gt;Node12</title>
<path fill="none" stroke="midnightblue" d="M586.467,-268.197C606.863,-257.68 631.868,-244.787 650.586,-235.135"/>
<polygon fill="midnightblue" stroke="midnightblue" points="584.743,-265.148 577.459,-272.841 587.951,-271.369 584.743,-265.148"/>
</g>
<!-- Node17 -->
<g id="node17" class="node"><title>Node17</title>
<g id="a_node17"><a xlink:href="../../df/d4c/eventuserleave_8cpp.xhtml" target="_top" xlink:title="GUI/resources/events\l/eventuserleave.cpp">
<polygon fill="white" stroke="black" points="495,-205 495,-235 605,-235 605,-205 495,-205"/>
<text text-anchor="start" x="503" y="-223" font-family="Helvetica,sans-Serif" font-size="10.00">GUI/resources/events</text>
<text text-anchor="middle" x="550" y="-212" font-family="Helvetica,sans-Serif" font-size="10.00">/eventuserleave.cpp</text>
</a>
</g>
</g>
<!-- Node16&#45;&gt;Node17 -->
<g id="edge19" class="edge"><title>Node16&#45;&gt;Node17</title>
<path fill="none" stroke="midnightblue" d="M550,-262.532C550,-253.361 550,-243.245 550,-235.293"/>
<polygon fill="midnightblue" stroke="midnightblue" points="546.5,-262.679 550,-272.679 553.5,-262.679 546.5,-262.679"/>
</g>
<!-- Node18&#45;&gt;Node12 -->
<g id="edge21" class="edge"><title>Node18&#45;&gt;Node12</title>
<path fill="none" stroke="midnightblue" d="M683.663,-262.532C682.413,-253.361 681.033,-243.245 679.949,-235.293"/>
<polygon fill="midnightblue" stroke="midnightblue" points="680.228,-263.244 685.047,-272.679 687.164,-262.298 680.228,-263.244"/>
</g>
<!-- Node19 -->
<g id="node19" class="node"><title>Node19</title>
<g id="a_node19"><a xlink:href="../../da/d88/eventuserchangestatus_8cpp.xhtml" target="_top" xlink:title="GUI/resources/events\l/eventuserchangestatus.cpp">
<polygon fill="white" stroke="black" points="751,-205 751,-235 889,-235 889,-205 751,-205"/>
<text text-anchor="start" x="759" y="-223" font-family="Helvetica,sans-Serif" font-size="10.00">GUI/resources/events</text>
<text text-anchor="middle" x="820" y="-212" font-family="Helvetica,sans-Serif" font-size="10.00">/eventuserchangestatus.cpp</text>
</a>
</g>
</g>
<!-- Node18&#45;&gt;Node19 -->
<g id="edge22" class="edge"><title>Node18&#45;&gt;Node19</title>
<path fill="none" stroke="midnightblue" d="M724.605,-268.339C745.85,-257.796 771.978,-244.83 791.515,-235.135"/>
<polygon fill="midnightblue" stroke="midnightblue" points="722.934,-265.261 715.532,-272.841 726.045,-271.531 722.934,-265.261"/>
</g>
<!-- Node20&#45;&gt;Node12 -->
<g id="edge24" class="edge"><title>Node20&#45;&gt;Node12</title>
<path fill="none" stroke="midnightblue" d="M787.243,-268.749C762.864,-258.093 732.577,-244.855 710.08,-235.022"/>
<polygon fill="midnightblue" stroke="midnightblue" points="786.042,-272.043 796.607,-272.841 788.846,-265.629 786.042,-272.043"/>
</g>
<!-- Node21 -->
<g id="node21" class="node"><title>Node21</title>
<g id="a_node21"><a xlink:href="../../dd/d4b/eventuserchangenick_8cpp.xhtml" target="_top" xlink:title="GUI/resources/events\l/eventuserchangenick.cpp">
<polygon fill="white" stroke="black" points="907.5,-205 907.5,-235 1036.5,-235 1036.5,-205 907.5,-205"/>
<text text-anchor="start" x="915.5" y="-223" font-family="Helvetica,sans-Serif" font-size="10.00">GUI/resources/events</text>
<text text-anchor="middle" x="972" y="-212" font-family="Helvetica,sans-Serif" font-size="10.00">/eventuserchangenick.cpp</text>
</a>
</g>
</g>
<!-- Node20&#45;&gt;Node21 -->
<g id="edge25" class="edge"><title>Node20&#45;&gt;Node21</title>
<path fill="none" stroke="midnightblue" d="M868.819,-268.622C891.77,-258.029 920.179,-244.917 941.374,-235.135"/>
<polygon fill="midnightblue" stroke="midnightblue" points="867.29,-265.473 859.677,-272.841 870.223,-271.829 867.29,-265.473"/>
</g>
<!-- Node22&#45;&gt;Node12 -->
<g id="edge27" class="edge"><title>Node22&#45;&gt;Node12</title>
<path fill="none" stroke="midnightblue" d="M896.994,-271.547C852.813,-261.483 793.978,-248.035 742,-236 739.109,-235.331 736.146,-234.643 733.154,-233.946"/>
<polygon fill="midnightblue" stroke="midnightblue" points="896.231,-274.963 906.758,-273.77 897.785,-268.137 896.231,-274.963"/>
</g>
<!-- Node23 -->
<g id="node23" class="node"><title>Node23</title>
<g id="a_node23"><a xlink:href="../../d3/d54/eventservermessage_8cpp.xhtml" target="_top" xlink:title="GUI/resources/events\l/eventservermessage.cpp">
<polygon fill="white" stroke="black" points="1055,-205 1055,-235 1181,-235 1181,-205 1055,-205"/>
<text text-anchor="start" x="1063" y="-223" font-family="Helvetica,sans-Serif" font-size="10.00">GUI/resources/events</text>
<text text-anchor="middle" x="1118" y="-212" font-family="Helvetica,sans-Serif" font-size="10.00">/eventservermessage.cpp</text>
</a>
</g>
</g>
<!-- Node22&#45;&gt;Node23 -->
<g id="edge28" class="edge"><title>Node22&#45;&gt;Node23</title>
<path fill="none" stroke="midnightblue" d="M1007.31,-268.749C1032.01,-258.093 1062.7,-244.855 1085.49,-235.022"/>
<polygon fill="midnightblue" stroke="midnightblue" points="1005.62,-265.667 997.822,-272.841 1008.39,-272.094 1005.62,-265.667"/>
</g>
</g>
</svg>
        <g id="navigator" transform="translate(0 0)" fill="#404254">
                <rect fill="#f2f5e9" fill-opacity="0.5" stroke="#606060" stroke-width=".5" x="0" y="0" width="60" height="60"/>
                <use id="zoomplus" xlink:href="#zoomPlus" x="17" y="9" onmousedown="handleZoom(evt,'in')"/>
                <use id="zoomminus" xlink:href="#zoomMin" x="42" y="9" onmousedown="handleZoom(evt,'out')"/>
                <use id="reset" xlink:href="#resetDef" x="30" y="36" onmousedown="handleReset()"/>
                <g id="arrowUp" xlink:href="#dirArrow" transform="translate(30 24)" onmousedown="handlePan(0,-1)">
                  <use xlink:href="#rim" fill="#404040">
                        <set attributeName="fill" to="#808080" begin="arrowUp.mouseover" end="arrowUp.mouseout"/>
                  </use>
                  <path fill="none" stroke="white" stroke-width="1.5" d="M0,-3.0v7 M-2.5,-0.5L0,-3.0L2.5,-0.5"/>
                </g>
                <g id="arrowRight" xlink:href="#dirArrow" transform="rotate(90) translate(36 -43)" onmousedown="handlePan(1,0)">
                  <use xlink:href="#rim" fill="#404040">
                        <set attributeName="fill" to="#808080" begin="arrowRight.mouseover" end="arrowRight.mouseout"/>
                  </use>
                  <path fill="none" stroke="white" stroke-width="1.5" d="M0,-3.0v7 M-2.5,-0.5L0,-3.0L2.5,-0.5"/>
                </g>
                <g id="arrowDown" xlink:href="#dirArrow" transform="rotate(180) translate(-30 -48)" onmousedown="handlePan(0,1)">
                  <use xlink:href="#rim" fill="#404040">
                        <set attributeName="fill" to="#808080" begin="arrowDown.mouseover" end="arrowDown.mouseout"/>
                  </use>
                  <path fill="none" stroke="white" stroke-width="1.5" d="M0,-3.0v7 M-2.5,-0.5L0,-3.0L2.5,-0.5"/>
                </g>
                <g id="arrowLeft" xlink:href="#dirArrow" transform="rotate(270) translate(-36 17)" onmousedown="handlePan(-1,0)">
                  <use xlink:href="#rim" fill="#404040">
                        <set attributeName="fill" to="#808080" begin="arrowLeft.mouseover" end="arrowLeft.mouseout"/>
                  </use>
                  <path fill="none" stroke="white" stroke-width="1.5" d="M0,-3.0v7 M-2.5,-0.5L0,-3.0L2.5,-0.5"/>
                </g>
        </g>
        <svg viewBox="0 0 15 15" width="100%" height="30px" preserveAspectRatio="xMaxYMin meet">
         <g id="arrow_out" transform="scale(0.3 0.3)">
          <a xlink:href="clsevent_8h__dep__incl_org.svg" target="_base">
           <rect id="button" ry="5" rx="5" y="6" x="6" height="38" width="38"
                fill="#f2f5e9" fill-opacity="0.5" stroke="#606060" stroke-width="1.0"/>
           <path id="arrow"
             d="M 11.500037,31.436501 C 11.940474,20.09759 22.043105,11.32322 32.158766,21.979434 L 37.068811,17.246167 C 37.068811,17.246167 37.088388,32 37.088388,32 L 22.160133,31.978069 C 22.160133,31.978069 26.997745,27.140456 26.997745,27.140456 C 18.528582,18.264221 13.291696,25.230495 11.500037,31.436501 z"
             style="fill:#404040;"/>
          </a>
         </g>
        </svg>
</svg>
