<?xml version="1.0" encoding="UTF-8" standalone="no"?>
<!DOCTYPE svg PUBLIC "-//W3C//DTD SVG 1.1//EN"
 "http://www.w3.org/Graphics/SVG/1.1/DTD/svg11.dtd">
<!-- Generated by graphviz version 2.30.1 (20130214.1330)
 -->
<!-- Title: Hoofdprogramma/ourProgram/src/RTSystem/ourProgram.cpp Pages: 1 -->
<svg width="169pt" height="152pt"
 viewBox="0.00 0.00 169.00 152.00" xmlns="http://www.w3.org/2000/svg" xmlns:xlink="http://www.w3.org/1999/xlink">
<g id="graph0" class="graph" transform="scale(1 1) rotate(0) translate(4 148)">
<title>Hoofdprogramma/ourProgram/src/RTSystem/ourProgram.cpp</title>
<polygon fill="white" stroke="white" points="-4,5 -4,-148 166,-148 166,5 -4,5"/>
<!-- Node1 -->
<g id="node1" class="node"><title>Node1</title>
<polygon fill="#bfbfbf" stroke="black" points="7,-113 7,-143 161,-143 161,-113 7,-113"/>
<text text-anchor="start" x="15" y="-131" font-family="Helvetica,sans-Serif" font-size="10.00">Hoofdprogramma/ourProgram</text>
<text text-anchor="middle" x="84" y="-120" font-family="Helvetica,sans-Serif" font-size="10.00">/src/RTSystem/ourProgram.cpp</text>
</g>
<!-- Node2 -->
<g id="node2" class="node"><title>Node2</title>
<g id="a_node2"><a xlink:href="../../dd/d50/our_program_8h.xhtml" target="_top" xlink:title="RTSystem/ourProgram.h">
<polygon fill="white" stroke="black" points="22,-56.5 22,-75.5 146,-75.5 146,-56.5 22,-56.5"/>
<text text-anchor="middle" x="84" y="-63.5" font-family="Helvetica,sans-Serif" font-size="10.00">RTSystem/ourProgram.h</text>
</a>
</g>
</g>
<!-- Node1&#45;&gt;Node2 -->
<g id="edge1" class="edge"><title>Node1&#45;&gt;Node2</title>
<path fill="none" stroke="midnightblue" d="M84,-112.781C84,-104.781 84,-94.6887 84,-86.0168"/>
<polygon fill="midnightblue" stroke="midnightblue" points="87.5001,-85.7305 84,-75.7305 80.5001,-85.7306 87.5001,-85.7305"/>
</g>
<!-- Node3 -->
<g id="node3" class="node"><title>Node3</title>
<polygon fill="white" stroke="#bfbfbf" points="0,-0.5 0,-19.5 82,-19.5 82,-0.5 0,-0.5"/>
<text text-anchor="middle" x="41" y="-7.5" font-family="Helvetica,sans-Serif" font-size="10.00">RTStructures.h</text>
</g>
<!-- Node2&#45;&gt;Node3 -->
<g id="edge2" class="edge"><title>Node2&#45;&gt;Node3</title>
<path fill="none" stroke="midnightblue" d="M76.8994,-56.083C70.763,-48.3768 61.7303,-37.0333 54.2608,-27.6531"/>
<polygon fill="midnightblue" stroke="midnightblue" points="56.9357,-25.3936 47.9685,-19.7511 51.4598,-29.7542 56.9357,-25.3936"/>
</g>
<!-- Node4 -->
<g id="node4" class="node"><title>Node4</title>
<polygon fill="white" stroke="#bfbfbf" points="100,-0.5 100,-19.5 154,-19.5 154,-0.5 100,-0.5"/>
<text text-anchor="middle" x="127" y="-7.5" font-family="Helvetica,sans-Serif" font-size="10.00">iostream</text>
</g>
<!-- Node2&#45;&gt;Node4 -->
<g id="edge3" class="edge"><title>Node2&#45;&gt;Node4</title>
<path fill="none" stroke="midnightblue" d="M91.1006,-56.083C97.237,-48.3768 106.27,-37.0333 113.739,-27.6531"/>
<polygon fill="midnightblue" stroke="midnightblue" points="116.54,-29.7542 120.032,-19.7511 111.064,-25.3936 116.54,-29.7542"/>
</g>
</g>
</svg>
