<?xml version="1.0" encoding="UTF-8" standalone="no"?>
<!DOCTYPE svg PUBLIC "-//W3C//DTD SVG 1.1//EN"
 "http://www.w3.org/Graphics/SVG/1.1/DTD/svg11.dtd">
<!-- Generated by graphviz version 2.30.1 (20130214.1330)
 -->
<!-- Title: GUI/resources/events/eventuserchangestatus.h Pages: 1 -->
<svg width="526pt" height="208pt"
 viewBox="0.00 0.00 526.00 208.00" xmlns="http://www.w3.org/2000/svg" xmlns:xlink="http://www.w3.org/1999/xlink">
<g id="graph0" class="graph" transform="scale(1 1) rotate(0) translate(4 204)">
<title>GUI/resources/events/eventuserchangestatus.h</title>
<polygon fill="white" stroke="white" points="-4,5 -4,-204 523,-204 523,5 -4,5"/>
<!-- Node1 -->
<g id="node1" class="node"><title>Node1</title>
<polygon fill="#bfbfbf" stroke="black" points="103,-169 103,-199 231,-199 231,-169 103,-169"/>
<text text-anchor="start" x="111" y="-187" font-family="Helvetica,sans-Serif" font-size="10.00">GUI/resources/events</text>
<text text-anchor="middle" x="167" y="-176" font-family="Helvetica,sans-Serif" font-size="10.00">/eventuserchangestatus.h</text>
</g>
<!-- Node2 -->
<g id="node2" class="node"><title>Node2</title>
<g id="a_node2"><a xlink:href="../../db/d97/clsevent_8h.xhtml" target="_top" xlink:title="../clsevent.h">
<polygon fill="white" stroke="black" points="132.5,-112.5 132.5,-131.5 201.5,-131.5 201.5,-112.5 132.5,-112.5"/>
<text text-anchor="middle" x="167" y="-119.5" font-family="Helvetica,sans-Serif" font-size="10.00">../clsevent.h</text>
</a>
</g>
</g>
<!-- Node1&#45;&gt;Node2 -->
<g id="edge1" class="edge"><title>Node1&#45;&gt;Node2</title>
<path fill="none" stroke="midnightblue" d="M167,-168.781C167,-160.781 167,-150.689 167,-142.017"/>
<polygon fill="midnightblue" stroke="midnightblue" points="170.5,-141.73 167,-131.731 163.5,-141.731 170.5,-141.73"/>
</g>
<!-- Node3 -->
<g id="node3" class="node"><title>Node3</title>
<polygon fill="white" stroke="#bfbfbf" points="-0.5,-56.5 -0.5,-75.5 52.5,-75.5 52.5,-56.5 -0.5,-56.5"/>
<text text-anchor="middle" x="26" y="-63.5" font-family="Helvetica,sans-Serif" font-size="10.00">QObject</text>
</g>
<!-- Node2&#45;&gt;Node3 -->
<g id="edge2" class="edge"><title>Node2&#45;&gt;Node3</title>
<path fill="none" stroke="midnightblue" d="M144.658,-112.444C121.247,-103.478 84.2644,-89.314 57.8104,-79.1827"/>
<polygon fill="midnightblue" stroke="midnightblue" points="58.8277,-75.8245 48.2373,-75.5164 56.3241,-82.3615 58.8277,-75.8245"/>
</g>
<!-- Node4 -->
<g id="node4" class="node"><title>Node4</title>
<polygon fill="white" stroke="#bfbfbf" points="71,-56.5 71,-75.5 121,-75.5 121,-56.5 71,-56.5"/>
<text text-anchor="middle" x="96" y="-63.5" font-family="Helvetica,sans-Serif" font-size="10.00">QString</text>
</g>
<!-- Node2&#45;&gt;Node4 -->
<g id="edge3" class="edge"><title>Node2&#45;&gt;Node4</title>
<path fill="none" stroke="midnightblue" d="M155.593,-112.324C144.891,-104.185 128.659,-91.8395 115.837,-82.0874"/>
<polygon fill="midnightblue" stroke="midnightblue" points="117.693,-79.1018 107.615,-75.8339 113.456,-84.6734 117.693,-79.1018"/>
</g>
<!-- Node5 -->
<g id="node5" class="node"><title>Node5</title>
<polygon fill="white" stroke="#bfbfbf" points="139.5,-56.5 139.5,-75.5 194.5,-75.5 194.5,-56.5 139.5,-56.5"/>
<text text-anchor="middle" x="167" y="-63.5" font-family="Helvetica,sans-Serif" font-size="10.00">QVariant</text>
</g>
<!-- Node2&#45;&gt;Node5 -->
<g id="edge4" class="edge"><title>Node2&#45;&gt;Node5</title>
<path fill="none" stroke="midnightblue" d="M167,-112.083C167,-105.006 167,-94.8611 167,-85.9865"/>
<polygon fill="midnightblue" stroke="midnightblue" points="170.5,-85.751 167,-75.7511 163.5,-85.7511 170.5,-85.751"/>
</g>
<!-- Node6 -->
<g id="node6" class="node"><title>Node6</title>
<polygon fill="white" stroke="#bfbfbf" points="167.5,-0.5 167.5,-19.5 232.5,-19.5 232.5,-0.5 167.5,-0.5"/>
<text text-anchor="middle" x="200" y="-7.5" font-family="Helvetica,sans-Serif" font-size="10.00">QDateTime</text>
</g>
<!-- Node2&#45;&gt;Node6 -->
<g id="edge5" class="edge"><title>Node2&#45;&gt;Node6</title>
<path fill="none" stroke="midnightblue" d="M177.162,-112.185C185.908,-103.87 197.9,-90.539 203,-76 208.258,-61.0095 206.834,-42.8744 204.483,-29.5728"/>
<polygon fill="midnightblue" stroke="midnightblue" points="207.893,-28.7807 202.416,-19.7115 201.042,-30.2169 207.893,-28.7807"/>
</g>
<!-- Node7 -->
<g id="node7" class="node"><title>Node7</title>
<g id="a_node7"><a xlink:href="../../d7/d62/clslog_8h.xhtml" target="_top" xlink:title="clslog.h">
<polygon fill="white" stroke="black" points="295,-56.5 295,-75.5 345,-75.5 345,-56.5 295,-56.5"/>
<text text-anchor="middle" x="320" y="-63.5" font-family="Helvetica,sans-Serif" font-size="10.00">clslog.h</text>
</a>
</g>
</g>
<!-- Node2&#45;&gt;Node7 -->
<g id="edge6" class="edge"><title>Node2&#45;&gt;Node7</title>
<path fill="none" stroke="midnightblue" d="M191.243,-112.444C216.871,-103.399 257.485,-89.064 286.238,-78.9158"/>
<polygon fill="midnightblue" stroke="midnightblue" points="287.605,-82.1452 295.87,-75.5164 285.275,-75.5442 287.605,-82.1452"/>
</g>
<!-- Node8 -->
<g id="node8" class="node"><title>Node8</title>
<polygon fill="white" stroke="#bfbfbf" points="251,-0.5 251,-19.5 303,-19.5 303,-0.5 251,-0.5"/>
<text text-anchor="middle" x="277" y="-7.5" font-family="Helvetica,sans-Serif" font-size="10.00">QDebug</text>
</g>
<!-- Node7&#45;&gt;Node8 -->
<g id="edge7" class="edge"><title>Node7&#45;&gt;Node8</title>
<path fill="none" stroke="midnightblue" d="M312.899,-56.083C306.763,-48.3768 297.73,-37.0333 290.261,-27.6531"/>
<polygon fill="midnightblue" stroke="midnightblue" points="292.936,-25.3936 283.968,-19.7511 287.46,-29.7542 292.936,-25.3936"/>
</g>
<!-- Node7&#45;&gt;Node6 -->
<g id="edge8" class="edge"><title>Node7&#45;&gt;Node6</title>
<path fill="none" stroke="midnightblue" d="M300.986,-56.4435C281.412,-47.6356 250.692,-33.8116 228.271,-23.722"/>
<polygon fill="midnightblue" stroke="midnightblue" points="229.481,-20.4284 218.925,-19.5164 226.608,-26.8119 229.481,-20.4284"/>
</g>
<!-- Node9 -->
<g id="node9" class="node"><title>Node9</title>
<polygon fill="white" stroke="#bfbfbf" points="321.5,-0.5 321.5,-19.5 362.5,-19.5 362.5,-0.5 321.5,-0.5"/>
<text text-anchor="middle" x="342" y="-7.5" font-family="Helvetica,sans-Serif" font-size="10.00">string</text>
</g>
<!-- Node7&#45;&gt;Node9 -->
<g id="edge9" class="edge"><title>Node7&#45;&gt;Node9</title>
<path fill="none" stroke="midnightblue" d="M323.633,-56.083C326.612,-48.77 330.926,-38.1814 334.625,-29.1034"/>
<polygon fill="midnightblue" stroke="midnightblue" points="337.903,-30.3326 338.435,-19.7511 331.42,-27.6914 337.903,-30.3326"/>
</g>
<!-- Node10 -->
<g id="node10" class="node"><title>Node10</title>
<polygon fill="white" stroke="#bfbfbf" points="381,-0.5 381,-19.5 435,-19.5 435,-0.5 381,-0.5"/>
<text text-anchor="middle" x="408" y="-7.5" font-family="Helvetica,sans-Serif" font-size="10.00">iostream</text>
</g>
<!-- Node7&#45;&gt;Node10 -->
<g id="edge10" class="edge"><title>Node7&#45;&gt;Node10</title>
<path fill="none" stroke="midnightblue" d="M334.139,-56.324C347.866,-47.9002 368.936,-34.9709 385.064,-25.0741"/>
<polygon fill="midnightblue" stroke="midnightblue" points="387.204,-27.8678 393.896,-19.6545 383.543,-21.9016 387.204,-27.8678"/>
</g>
<!-- Node11 -->
<g id="node11" class="node"><title>Node11</title>
<polygon fill="white" stroke="#bfbfbf" points="453.5,-0.5 453.5,-19.5 518.5,-19.5 518.5,-0.5 453.5,-0.5"/>
<text text-anchor="middle" x="486" y="-7.5" font-family="Helvetica,sans-Serif" font-size="10.00">QStringList</text>
</g>
<!-- Node7&#45;&gt;Node11 -->
<g id="edge11" class="edge"><title>Node7&#45;&gt;Node11</title>
<path fill="none" stroke="midnightblue" d="M345.212,-56.7986C373.12,-47.72 418.332,-33.0123 449.971,-22.7203"/>
<polygon fill="midnightblue" stroke="midnightblue" points="451.3,-25.9685 459.727,-19.5467 449.135,-19.3119 451.3,-25.9685"/>
</g>
</g>
</svg>
